<?xml version="1.0" encoding="UTF-8" standalone="no"?><svg xmlns="http://www.w3.org/2000/svg" xmlns:xlink="http://www.w3.org/1999/xlink" clip-rule="evenodd" stroke-miterlimit="10" viewBox="0 0 389 39"><desc>SVG generated by Keynote</desc><defs></defs><g transform="matrix(1.00, 0.00, -0.00, -1.00, 0.0, 39.0)"><text xml:space="preserve" font-family="ProximaNova-Semibold,Proxima Nova" font-weight="bold" font-size="40.0" fill="#FEFFFF" transform="matrix(1.00, 0.00, -0.00, -1.00, -0.9, 9.4)">D</text><text xml:space="preserve" font-family="ProximaNova-Semibold,Proxima Nova" font-weight="bold" font-size="40.0" fill="#FEFFFF" transform="matrix(1.00, 0.00, -0.00, -1.00, 27.5, 9.4)">e</text><text xml:space="preserve" font-family="ProximaNova-Semibold,Proxima Nova" font-weight="bold" font-size="40.0" fill="#FEFFFF" transform="matrix(1.00, 0.00, -0.00, -1.00, 49.8, 9.4)">p</text><text xml:space="preserve" font-family="ProximaNova-Semibold,Proxima Nova" font-weight="bold" font-size="40.0" fill="#FEFFFF" transform="matrix(1.00, 0.00, -0.00, -1.00, 73.0, 9.4)">e</text><text xml:space="preserve" font-family="ProximaNova-Semibold,Proxima Nova" font-weight="bold" font-size="40.0" fill="#FEFFFF" transform="matrix(1.00, 0.00, -0.00, -1.00, 95.2, 9.4)">n</text><text xml:space="preserve" font-family="ProximaNova-Semibold,Proxima Nova" font-weight="bold" font-size="40.0" fill="#FEFFFF" transform="matrix(1.00, 0.00, -0.00, -1.00, 118.0, 9.4)">d</text><text xml:space="preserve" font-family="ProximaNova-Semibold,Proxima Nova" font-weight="bold" font-size="40.0" fill="#FEFFFF" transform="matrix(1.00, 0.00, -0.00, -1.00, 141.2, 9.4)">e</text><text xml:space="preserve" font-family="ProximaNova-Semibold,Proxima Nova" font-weight="bold" font-size="40.0" fill="#FEFFFF" transform="matrix(1.00, 0.00, -0.00, -1.00, 163.5, 9.4)">n</text><text xml:space="preserve" font-family="ProximaNova-Semibold,Proxima Nova" font-weight="bold" font-size="40.0" fill="#FEFFFF" transform="matrix(1.00, 0.00, -0.00, -1.00, 186.2, 9.4)">c</text><text xml:space="preserve" font-family="ProximaNova-Semibold,Proxima Nova" font-weight="bold" font-size="40.0" fill="#FEFFFF" transform="matrix(1.00, 0.00, -0.00, -1.00, 206.1, 9.4)">y</text><text xml:space="preserve" font-family="ProximaNova-Semibold,Proxima Nova" font-weight="bold" font-size="40.0" fill="#FEFFFF" transform="matrix(1.00, 0.00, -0.00, -1.00, 226.2, 9.4)"> </text><text xml:space="preserve" font-family="ProximaNova-Semibold,Proxima Nova" font-weight="bold" font-size="40.0" fill="#FEFFFF" transform="matrix(1.00, 0.00, -0.00, -1.00, 236.6, 9.4)">I</text><text xml:space="preserve" font-family="ProximaNova-Semibold,Proxima Nova" font-weight="bold" font-size="40.0" fill="#FEFFFF" transform="matrix(1.00, 0.00, -0.00, -1.00, 246.9, 9.4)">n</text><text xml:space="preserve" font-family="ProximaNova-Semibold,Proxima Nova" font-weight="bold" font-size="40.0" fill="#FEFFFF" transform="matrix(1.00, 0.00, -0.00, -1.00, 269.6, 9.4)">j</text><text xml:space="preserve" font-family="ProximaNova-Semibold,Proxima Nova" font-weight="bold" font-size="40.0" fill="#FEFFFF" transform="matrix(1.00, 0.00, -0.00, -1.00, 279.3, 9.4)">e</text><text xml:space="preserve" font-family="ProximaNova-Semibold,Proxima Nova" font-weight="bold" font-size="40.0" fill="#FEFFFF" transform="matrix(1.00, 0.00, -0.00, -1.00, 301.6, 9.4)">c</text><text xml:space="preserve" font-family="ProximaNova-Semibold,Proxima Nova" font-weight="bold" font-size="40.0" fill="#FEFFFF" transform="matrix(1.00, 0.00, -0.00, -1.00, 321.5, 9.4)">t</text><text xml:space="preserve" font-family="ProximaNova-Semibold,Proxima Nova" font-weight="bold" font-size="40.0" fill="#FEFFFF" transform="matrix(1.00, 0.00, -0.00, -1.00, 334.2, 9.4)">i</text><text xml:space="preserve" font-family="ProximaNova-Semibold,Proxima Nova" font-weight="bold" font-size="40.0" fill="#FEFFFF" transform="matrix(1.00, 0.00, -0.00, -1.00, 343.9, 9.4)">o</text><text xml:space="preserve" font-family="ProximaNova-Semibold,Proxima Nova" font-weight="bold" font-size="40.0" fill="#FEFFFF" transform="matrix(1.00, 0.00, -0.00, -1.00, 366.8, 9.4)">n</text></g></svg>