<?xml version="1.0" encoding="UTF-8" standalone="no"?><svg xmlns="http://www.w3.org/2000/svg" xmlns:xlink="http://www.w3.org/1999/xlink" clip-rule="evenodd" stroke-miterlimit="10" viewBox="0 0 1024 768"><desc>SVG generated by Keynote</desc><defs></defs><g transform="matrix(1.00, 0.00, -0.00, -1.00, 0.0, 768.0)"><path d="M 0.0 768.0 L 1024.0 768.0 L 1024.0 0.0 L 0.0 0.0 Z M 0.0 768.0 " fill="#000000"></path><image xlink:href="../../0E9448A9-882D-4CC9-8F82-4054D1CF2C5D/assets/4FA6A03008949295F34F58F5194EF60F.png" width="1024.00" height="789.00" transform="matrix(0.97, 0.00, -0.00, -0.97, 0.0, 768.0)"></image><text xml:space="preserve" font-family="ProximaNova-Regular,Proxima Nova" font-size="37.0" fill="#FEFFFF" transform="matrix(1.00, 0.00, -0.00, -1.00, 710.5, 262.8)">@</text><text xml:space="preserve" font-family="ProximaNova-Regular,Proxima Nova" font-size="37.0" fill="#FEFFFF" transform="matrix(1.00, 0.00, -0.00, -1.00, 739.5, 262.8)">h</text><text xml:space="preserve" font-family="ProximaNova-Regular,Proxima Nova" font-size="37.0" fill="#FEFFFF" transform="matrix(1.00, 0.00, -0.00, -1.00, 759.9, 262.8)">e</text><text xml:space="preserve" font-family="ProximaNova-Regular,Proxima Nova" font-size="37.0" fill="#FEFFFF" transform="matrix(1.00, 0.00, -0.00, -1.00, 780.7, 262.8)">l</text><text xml:space="preserve" font-family="ProximaNova-Regular,Proxima Nova" font-size="37.0" fill="#FEFFFF" transform="matrix(1.00, 0.00, -0.00, -1.00, 789.1, 262.8)">i</text><text xml:space="preserve" font-family="ProximaNova-Regular,Proxima Nova" font-size="37.0" fill="#FEFFFF" transform="matrix(1.00, 0.00, -0.00, -1.00, 797.4, 262.8)">o</text><text xml:space="preserve" font-family="ProximaNova-Regular,Proxima Nova" font-size="37.0" fill="#FEFFFF" transform="matrix(1.00, 0.00, -0.00, -1.00, 818.5, 262.8)">r</text><text xml:space="preserve" font-family="ProximaNova-Semibold,Proxima Nova" font-weight="bold" font-size="70.0" fill="#FF456F" transform="matrix(1.00, 0.00, -0.00, -1.00, 648.4, 538.7)">T</text><text xml:space="preserve" font-family="ProximaNova-Semibold,Proxima Nova" font-weight="bold" font-size="70.0" fill="#FF456F" transform="matrix(1.00, 0.00, -0.00, -1.00, 688.8, 538.7)">h</text><text xml:space="preserve" font-family="ProximaNova-Semibold,Proxima Nova" font-weight="bold" font-size="70.0" fill="#FF456F" transform="matrix(1.00, 0.00, -0.00, -1.00, 728.5, 538.7)">a</text><text xml:space="preserve" font-family="ProximaNova-Semibold,Proxima Nova" font-weight="bold" font-size="70.0" fill="#FF456F" transform="matrix(1.00, 0.00, -0.00, -1.00, 766.1, 538.7)">n</text><text xml:space="preserve" font-family="ProximaNova-Semibold,Proxima Nova" font-weight="bold" font-size="70.0" fill="#FF456F" transform="matrix(1.00, 0.00, -0.00, -1.00, 805.9, 538.7)">k</text><text xml:space="preserve" font-family="ProximaNova-Semibold,Proxima Nova" font-weight="bold" font-size="70.0" fill="#FF456F" transform="matrix(1.00, 0.00, -0.00, -1.00, 842.8, 538.7)">s</text><text xml:space="preserve" font-family="ProximaNova-Semibold,Proxima Nova" font-weight="bold" font-size="70.0" fill="#FF456F" transform="matrix(1.00, 0.00, -0.00, -1.00, 875.8, 538.7)">!</text><image xlink:href="../../AE69D5D0-4126-4083-9C15-0A24C18E07CC/assets/C6901D77D3B3F75BDFD73EE7BFCB36EE.png" width="332.00" height="291.00" transform="matrix(0.42, 0.00, -0.00, -0.42, 701.2, 457.4)"></image></g></svg>