<?xml version="1.0" encoding="UTF-8" standalone="no"?><svg xmlns="http://www.w3.org/2000/svg" xmlns:xlink="http://www.w3.org/1999/xlink" clip-rule="evenodd" stroke-miterlimit="10" viewBox="0 0 1024 768"><desc>SVG generated by Keynote</desc><defs></defs><g transform="matrix(1.00, 0.00, -0.00, -1.00, 0.0, 768.0)"><path d="M 0.0 768.0 L 1024.0 768.0 L 1024.0 0.0 L 0.0 0.0 Z M 0.0 768.0 " fill="#000000"></path><g opacity="0.24"><g><clipPath id="clip0x6100016bbde0"><path d="M 0.0 0.0 L 1024.0 0.0 L 1024.0 768.0 L 0.0 768.0 Z M 0.0 0.0 "></path></clipPath><g clip-path="url(#clip0x6100016bbde0)"><image xlink:href="../../2B65E894-41CD-4187-AA0B-9992FC393B41/assets/FBA7746C35092CB5337AA37887023B2A.jpeg" width="1024.00" height="681.00" transform="matrix(1.13, 0.00, -0.00, -1.13, -65.4, 768.0)"></image></g></g></g><image xlink:href="../../2B65E894-41CD-4187-AA0B-9992FC393B41/assets/DF585FD7C2919A7387434EE150C1980E.png" width="218.00" height="83.00" transform="matrix(0.61, 0.00, -0.00, -0.61, 132.0, 499.2)"></image><path d="M 0.0 0.0 L 134.0 0.0 L 134.0 51.0 L 0.0 51.0 Z M 0.0 0.0 " fill="none" stroke="#FEFFFE" stroke-width="1.00" transform="matrix(1.00, 0.00, 0.00, -1.00, 132.0, 499.2)"></path><g><clipPath id="clip0x6080018b8e40"><path d="M 362.7 326.7 L 601.3 326.7 L 601.3 570.9 L 362.7 570.9 Z M 362.7 326.7 "></path></clipPath><g clip-path="url(#clip0x6080018b8e40)"><image xlink:href="../../0DC4FC23-F999-4734-B7F9-A60288A9C79F/assets/6B0189AE7B5DCBA4B0200A4D71219A0C.png" width="340.00" height="348.00" transform="matrix(0.70, 0.00, -0.00, -0.70, 362.7, 570.9)"></image></g></g><g><clipPath id="clip0x6000022b69e0"><path d="M 287.6 491.3 L 341.6 491.3 L 341.6 456.2 L 287.6 456.2 Z M 287.6 491.3 "></path></clipPath><g clip-path="url(#clip0x6000022b69e0)"><path d="M 322.0 470.0 L 322.0 457.2 L 340.6 473.7 L 322.0 490.3 L 322.0 478.0 L 289.0 478.0 L 289.0 470.0 Z M 322.0 469.9 " fill="#FEFFFE"></path></g></g><g><clipPath id="clip0x6000022b6bc0"><path d="M 595.6 315.7 L 627.1 271.8 L 598.6 251.3 L 567.1 295.2 Z M 595.6 315.7 "></path></clipPath><g clip-path="url(#clip0x6000022b6bc0)"><path d="M 598.4 275.2 L 588.0 267.8 L 612.3 262.4 L 614.9 287.1 L 604.6 279.7 L 585.1 306.9 L 578.9 302.4 Z M 598.4 275.2 " fill="#FEFFFE"></path></g></g><g><clipPath id="clip0x6000022b6e00"><path d="M 579.7 192.3 L 700.3 192.3 L 700.3 237.6 L 579.7 237.6 Z M 579.7 192.3 "></path></clipPath><g clip-path="url(#clip0x6000022b6e00)"><image xlink:href="../../0DC4FC23-F999-4734-B7F9-A60288A9C79F/assets/30612C84C7EB362417D15DC74ED71DAD.png" width="235.00" height="87.00" transform="matrix(0.51, 0.00, -0.00, -0.51, 580.2, 237.1)"></image><path d="M 0.0 0.0 L 119.6 0.0 L 119.6 44.3 L 0.0 44.3 Z M 0.0 0.0 " fill="none" stroke="#FEFFFE" stroke-width="1.00" transform="matrix(1.00, 0.00, 0.00, -1.00, 580.2, 237.1)"></path></g></g><g><clipPath id="clip0x6100018b7280"><path d="M 177.5 39.5 L 890.5 39.5 L 890.5 91.5 L 177.5 91.5 Z M 177.5 39.5 "></path></clipPath><g clip-path="url(#clip0x6100018b7280)"><image xlink:href="../../0DC4FC23-F999-4734-B7F9-A60288A9C79F/assets/5B62C8191B7123DE349F0250084EBAB5.png" width="712.00" height="51.00" transform="matrix(1.00, 0.00, -0.00, -1.00, 178.0, 91.0)"></image><path d="M 0.0 0.0 L 712.0 0.0 L 712.0 51.0 L 0.0 51.0 Z M 0.0 0.0 " fill="none" stroke="#FEFFFE" stroke-width="1.00" transform="matrix(1.00, 0.00, 0.00, -1.00, 178.0, 91.0)"></path></g></g><g><clipPath id="clip0x6000022b7100"><path d="M 657.5 168.9 L 657.5 114.9 L 622.5 114.9 L 622.5 168.9 Z M 657.5 168.9 "></path></clipPath><g clip-path="url(#clip0x6000022b7100)"><path d="M 636.0 134.0 L 623.5 134.0 L 640.0 115.9 L 656.5 134.0 L 644.0 134.0 L 644.0 168.0 L 636.0 168.0 Z M 636.2 134.5 " fill="#FEFFFE"></path></g></g></g></svg>