<?xml version="1.0" encoding="UTF-8" standalone="no"?><svg xmlns="http://www.w3.org/2000/svg" xmlns:xlink="http://www.w3.org/1999/xlink" clip-rule="evenodd" stroke-miterlimit="10" viewBox="0 0 714 130"><desc>SVG generated by Keynote</desc><defs></defs><g transform="matrix(1.00, 0.00, -0.00, -1.00, 0.0, 130.0)"><g><clipPath id="clip0x6000022bc680"><path d="M 0.5 0.5 L 713.5 0.5 L 713.5 52.5 L 0.5 52.5 Z M 0.5 0.5 "></path></clipPath><g clip-path="url(#clip0x6000022bc680)"><image xlink:href="5B62C8191B7123DE349F0250084EBAB5.png" width="712.00" height="51.00" transform="matrix(1.00, 0.00, -0.00, -1.00, 1.0, 52.0)"></image><path d="M 0.0 0.0 L 712.0 0.0 L 712.0 51.0 L 0.0 51.0 Z M 0.0 0.0 " fill="none" stroke="#FEFFFE" stroke-width="1.00" transform="matrix(1.00, 0.00, 0.00, -1.00, 1.0, 52.0)"></path></g></g><g><clipPath id="clip0x6000022bcb00"><path d="M 480.5 129.9 L 480.5 75.9 L 445.5 75.9 L 445.5 129.9 Z M 480.5 129.9 "></path></clipPath><g clip-path="url(#clip0x6000022bcb00)"><path d="M 459.0 95.0 L 446.5 95.0 L 463.0 76.9 L 479.5 95.0 L 467.0 95.0 L 467.0 129.0 L 459.0 129.0 Z M 459.2 95.5 " fill="#FEFFFE"></path></g></g></g></svg>