<?xml version="1.0" encoding="UTF-8" standalone="no"?><svg xmlns="http://www.w3.org/2000/svg" xmlns:xlink="http://www.w3.org/1999/xlink" clip-rule="evenodd" stroke-miterlimit="10" viewBox="0 0 208 350"><desc>SVG generated by Keynote</desc><defs></defs><g transform="matrix(1.00, 0.00, -0.00, -1.00, 0.0, 350.0)"><path d="M 206.5 53.6 C 206.4 52.9 206.3 52.1 206.4 50.7 C 206.3 51.4 206.1 51.9 206.0 51.9 C 206.1 53.0 206.1 54.6 206.1 56.9 C 206.2 56.7 206.2 55.6 206.2 54.8 C 206.2 53.8 206.4 53.9 206.5 53.6 C 206.5 53.6 206.5 53.6 206.5 53.6 Z M 2.6 34.5 C 2.7 32.5 2.2 34.3 2.2 35.1 C 2.3 35.2 2.4 35.4 2.4 36.1 C 2.0 36.0 1.9 34.2 1.8 32.8 C 2.0 27.5 2.6 32.1 2.6 34.5 C 2.6 34.5 2.6 34.5 2.6 34.5 Z M 2.9 296.8 C 2.8 301.1 3.3 296.5 3.4 295.9 C 3.5 297.9 4.1 296.4 4.2 298.9 C 4.0 299.4 3.8 300.3 3.7 300.8 C 3.6 299.6 3.7 298.0 3.5 297.8 C 3.5 299.3 3.6 301.4 3.4 301.7 C 3.3 298.4 3.0 301.1 2.7 301.6 C 2.8 298.7 2.4 297.7 2.9 296.8 C 2.9 296.8 2.9 296.8 2.9 296.8 Z M 181.5 346.1 C 180.2 346.1 179.1 346.1 179.2 345.9 C 180.6 345.9 181.5 345.9 182.3 346.0 C 182.4 345.8 181.8 345.6 182.9 345.6 C 184.6 345.9 184.3 346.4 183.9 346.6 C 183.5 346.3 179.2 346.5 181.5 346.1 C 181.5 346.1 181.5 346.1 181.5 346.1 Z M 203.9 257.3 C 204.1 253.6 203.3 256.8 203.5 253.1 C 203.8 253.4 204.3 253.0 204.3 255.5 C 204.1 255.6 204.1 257.1 203.9 257.3 C 203.9 257.3 203.9 257.3 203.9 257.3 Z M 5.9 187.6 C 5.6 187.5 5.7 190.2 5.3 189.4 C 5.3 188.0 5.3 186.8 5.3 185.5 C 5.6 185.3 5.8 185.9 5.9 187.6 C 5.9 187.6 5.9 187.6 5.9 187.6 Z M 6.6 326.3 C 6.2 330.7 6.8 335.5 6.5 334.0 C 6.0 335.7 5.3 330.9 5.7 331.1 C 6.2 330.6 6.6 322.8 6.6 326.3 C 6.6 326.3 6.6 326.3 6.6 326.3 Z M 9.4 62.7 C 9.1 67.0 10.2 67.0 9.6 69.5 C 9.6 68.5 9.5 67.9 9.4 67.4 C 9.4 68.2 9.4 69.3 9.2 69.2 C 9.2 67.0 9.0 64.3 9.4 62.7 C 9.4 62.7 9.4 62.7 9.4 62.7 Z M 205.6 121.8 C 205.6 122.6 205.7 123.0 205.8 122.8 C 205.8 126.0 206.1 125.8 205.8 127.8 C 205.3 128.0 205.5 125.4 205.6 122.9 C 205.5 122.8 205.4 122.1 205.6 121.8 C 205.6 121.8 205.6 121.8 205.6 121.8 Z M 204.1 209.1 C 204.5 209.1 204.5 207.3 204.7 210.2 C 204.2 213.4 203.9 210.4 203.6 207.0 C 203.5 207.0 203.3 206.9 203.1 206.9 C 203.1 208.2 203.0 209.1 203.0 209.8 C 203.6 210.5 202.5 212.5 202.8 217.6 C 202.6 215.2 202.1 217.6 202.3 214.6 C 202.0 215.3 202.0 213.1 201.7 213.5 C 201.9 214.8 201.8 218.1 202.3 217.5 C 202.3 219.2 202.3 220.5 202.2 221.4 C 201.8 222.5 202.1 218.2 201.7 219.3 C 201.7 220.3 201.6 220.4 201.5 221.2 C 201.7 221.4 201.9 221.1 201.9 222.2 C 201.8 225.3 201.5 221.5 201.4 226.0 C 201.7 226.3 201.7 225.0 201.9 225.2 C 202.2 227.2 201.8 227.1 202.1 229.1 C 201.8 229.4 201.7 227.6 201.7 229.0 C 202.3 230.4 201.3 232.9 201.8 235.9 C 202.6 234.3 201.6 236.3 202.5 239.0 C 202.2 239.5 201.7 237.5 201.7 239.7 C 202.7 239.3 202.4 248.0 203.2 241.3 C 203.2 245.0 204.0 246.6 204.1 243.6 C 203.9 250.1 204.5 248.2 204.5 250.7 C 204.5 253.2 204.3 249.3 204.0 250.5 C 204.0 247.8 203.8 248.4 204.0 246.6 C 203.8 246.5 203.7 246.0 203.6 245.3 C 203.9 248.1 203.3 251.1 202.8 248.9 C 202.9 247.6 203.3 249.1 203.4 247.2 C 202.8 247.7 203.5 245.4 203.1 245.1 C 202.6 246.1 202.1 242.2 202.1 245.7 C 202.3 245.8 202.5 245.9 202.7 246.0 C 202.7 247.0 202.7 247.9 202.7 248.9 C 202.3 249.6 202.0 248.8 201.9 249.6 C 201.9 251.2 202.0 252.1 202.2 252.6 C 202.3 250.7 202.6 248.5 202.7 251.8 C 201.9 250.2 202.5 256.4 202.1 253.5 C 201.8 257.0 202.4 259.1 201.9 259.3 C 201.9 261.2 202.4 260.1 202.3 262.4 C 202.0 265.8 202.5 265.5 202.2 270.1 C 202.8 271.1 202.1 270.5 202.1 272.0 C 202.3 272.2 202.5 272.3 202.7 272.4 C 202.4 273.9 202.2 277.7 202.6 282.1 C 202.5 283.0 202.1 282.0 202.2 284.8 C 202.7 288.0 202.1 291.0 202.7 294.8 C 202.4 294.9 202.4 297.3 202.6 298.6 C 202.4 299.1 201.9 297.0 201.9 299.2 C 202.3 300.9 202.4 298.4 202.6 301.6 C 202.2 301.0 202.9 304.7 202.5 304.5 C 202.3 303.4 202.2 302.3 202.1 301.2 C 202.1 302.5 201.8 302.0 201.8 303.0 C 202.3 303.2 201.9 305.2 201.8 305.9 C 202.0 306.0 202.2 306.4 202.3 307.3 C 202.3 309.0 202.3 310.4 202.4 311.3 C 202.3 313.3 202.1 309.8 202.1 311.9 C 203.1 313.8 201.9 315.1 202.6 320.2 C 202.3 321.0 202.1 322.7 202.1 325.6 C 202.4 326.2 202.2 322.9 202.4 323.0 C 202.4 327.2 202.7 322.5 202.7 325.2 C 202.5 331.1 202.5 335.2 202.2 341.3 C 202.3 341.4 202.5 342.8 202.6 344.1 C 201.4 344.2 200.2 344.3 200.2 344.2 C 201.5 344.1 197.0 343.7 194.8 343.7 C 194.9 344.3 192.2 344.9 192.3 345.2 C 191.3 344.9 191.4 344.9 190.5 344.3 C 186.7 344.1 185.4 344.7 182.5 344.0 C 183.0 344.4 181.3 344.5 180.0 344.6 C 180.1 344.3 180.8 344.0 181.3 343.8 C 179.4 343.8 179.0 343.6 177.3 343.7 C 176.5 344.8 172.5 343.4 172.1 344.4 C 169.3 344.5 169.5 344.0 166.9 344.0 C 167.2 344.3 167.0 344.4 166.4 344.6 C 168.0 344.5 169.0 344.1 170.3 344.6 C 166.6 344.7 178.4 345.7 172.5 346.1 C 172.2 345.9 172.5 345.6 171.1 345.6 C 167.7 345.8 170.2 346.2 171.6 346.1 C 169.3 346.3 166.7 346.2 169.0 346.6 C 163.6 346.8 166.8 346.4 164.8 346.3 C 155.2 346.6 143.0 346.7 129.3 346.3 C 129.1 346.8 121.7 346.3 119.2 346.0 C 115.7 346.4 111.8 346.5 110.4 346.0 C 110.0 346.5 105.7 345.7 105.5 346.1 C 107.1 346.1 108.3 346.3 106.7 346.4 C 101.1 346.2 92.9 346.0 89.8 346.4 C 87.7 345.9 84.2 346.0 81.9 346.3 C 81.4 346.0 83.3 345.9 81.8 345.9 C 81.4 346.1 76.4 346.4 75.0 346.1 C 76.6 346.2 78.1 345.6 75.8 345.6 C 75.9 345.9 73.2 345.8 74.0 346.1 C 70.7 345.9 68.8 346.2 66.1 346.0 C 68.3 345.9 69.6 345.8 69.8 345.5 C 68.0 345.7 66.6 345.8 65.0 345.5 C 65.5 346.1 62.3 345.7 59.3 346.0 C 58.3 345.8 57.6 345.6 55.1 345.6 C 54.0 345.9 59.2 346.0 56.3 346.1 C 56.3 345.9 53.5 345.7 54.3 346.1 C 50.9 345.9 49.1 346.2 46.4 345.9 C 49.9 346.0 47.1 345.4 46.3 345.3 C 45.5 345.4 44.4 345.3 44.4 345.5 C 44.4 345.6 46.1 345.6 46.3 345.7 C 43.9 345.6 43.4 346.2 42.4 345.9 C 43.5 345.9 43.6 345.6 42.4 345.6 C 42.2 346.2 35.1 345.8 37.5 345.5 C 37.5 345.6 40.2 345.6 40.5 345.5 C 39.7 345.3 35.7 345.5 36.5 345.1 C 38.8 345.0 38.6 345.3 41.4 345.2 C 41.6 344.9 43.2 344.9 44.2 344.7 C 39.8 344.7 39.0 345.2 38.3 344.7 C 36.4 344.7 37.6 345.2 34.5 345.1 C 30.0 344.9 33.6 344.6 32.5 344.4 C 28.5 344.7 29.8 345.2 31.6 345.6 C 28.4 345.6 27.5 345.8 23.7 345.7 C 23.9 345.5 24.4 345.3 25.7 345.2 C 25.8 345.3 29.0 345.6 28.7 345.3 C 28.3 344.8 25.7 344.5 21.7 344.4 C 22.7 345.0 22.8 344.7 18.8 344.7 C 19.5 345.3 16.9 344.6 16.8 345.0 C 17.0 345.1 18.4 345.1 19.8 345.1 C 19.7 345.3 19.2 345.5 17.9 345.6 C 17.0 345.4 16.3 345.6 13.9 345.5 C 13.7 345.1 15.5 345.1 15.8 344.8 C 14.5 344.9 14.2 345.0 12.9 345.1 C 11.7 344.7 11.8 344.2 11.9 343.7 C 13.4 343.5 15.8 343.5 13.9 343.3 C 19.5 343.2 13.6 343.8 15.8 343.9 C 18.1 343.4 16.8 344.1 20.6 344.0 C 21.8 344.0 22.1 343.9 22.6 343.8 C 22.3 343.7 20.1 343.3 22.6 343.3 C 23.2 343.5 24.5 343.7 26.5 343.8 C 26.5 343.6 22.4 343.4 26.5 343.4 C 28.5 343.4 26.7 344.0 29.5 343.9 C 29.4 343.8 30.2 343.8 30.4 343.6 C 26.4 343.7 31.1 343.3 28.4 343.1 C 31.8 342.9 29.0 343.6 31.3 343.5 C 31.4 343.3 35.1 343.7 35.2 343.3 C 33.8 343.5 30.9 343.4 31.3 343.0 C 33.8 343.1 45.6 342.7 41.1 343.4 C 42.7 343.1 51.2 342.6 50.6 342.9 C 48.0 342.8 48.2 343.1 47.9 343.4 C 52.6 342.9 55.1 343.3 60.3 342.7 C 54.5 342.7 58.7 342.0 55.2 341.7 C 53.7 341.7 51.6 341.7 51.3 341.8 C 52.1 342.2 54.4 342.0 55.3 341.8 C 55.3 342.2 55.4 342.5 55.5 342.9 C 49.1 342.5 45.8 342.9 42.8 342.7 C 45.4 342.7 37.9 342.2 40.8 342.1 C 42.1 342.4 45.1 342.4 47.7 342.5 C 47.7 342.4 47.6 342.2 47.6 342.1 C 48.7 342.1 50.3 342.1 50.4 342.0 C 46.9 342.1 45.0 341.6 42.7 342.0 C 42.7 341.9 42.7 341.8 42.6 341.7 C 42.1 341.7 41.5 341.7 41.7 341.6 C 42.8 341.6 44.4 341.6 44.6 341.4 C 42.0 341.3 41.5 341.0 38.7 340.9 C 39.2 340.5 35.4 339.9 39.5 339.8 C 40.2 340.2 42.5 340.3 42.4 340.5 C 43.7 340.7 46.1 340.6 47.3 340.4 C 46.0 340.1 43.6 340.0 43.3 339.6 C 45.2 339.6 46.8 339.4 48.1 339.8 C 44.0 340.0 50.4 340.1 52.0 340.5 C 51.5 340.3 50.6 340.2 50.0 340.0 C 53.1 340.0 54.7 340.3 54.7 339.8 C 58.5 339.6 57.8 340.0 60.5 340.0 C 58.6 339.5 62.2 339.8 60.3 339.2 C 64.7 339.1 61.7 339.7 63.3 339.8 C 64.7 339.7 64.8 339.5 66.1 339.5 C 68.2 339.8 72.3 339.8 73.0 340.3 C 74.8 340.2 75.1 340.4 76.9 340.4 C 77.3 340.3 77.8 340.1 78.6 340.0 C 79.0 340.1 80.3 340.3 80.6 340.1 C 75.5 339.5 76.9 339.5 71.6 339.1 C 71.3 339.3 70.6 339.3 71.8 339.5 C 68.3 339.6 67.2 339.3 64.1 339.4 C 63.6 339.0 62.8 338.5 60.2 338.8 C 60.7 338.4 59.9 338.3 61.0 338.2 C 62.5 338.4 64.6 338.6 66.8 338.7 C 66.9 338.6 66.5 338.3 67.6 338.3 C 68.7 338.5 70.3 338.6 71.5 338.4 C 71.6 338.6 71.1 338.7 70.6 338.8 C 75.4 339.0 73.5 338.4 77.2 338.7 C 76.6 338.4 74.3 338.5 76.1 338.2 C 79.3 338.1 80.1 338.3 81.8 338.5 C 82.1 338.4 81.8 338.2 82.8 338.2 C 85.2 338.5 78.0 339.0 82.2 339.5 C 82.4 339.1 86.4 339.2 87.1 339.5 C 85.9 339.8 83.4 339.4 83.3 339.6 C 90.6 339.7 83.7 340.2 91.3 340.4 C 91.2 340.2 91.1 340.1 91.1 339.9 C 88.1 339.9 87.9 339.6 87.9 339.2 C 85.3 339.2 84.1 338.7 82.0 339.0 C 82.6 338.2 84.2 338.9 86.9 339.0 C 86.6 338.6 84.2 338.5 83.7 338.2 C 89.9 338.5 90.9 338.0 97.0 338.6 C 95.4 338.1 100.2 338.5 99.7 338.2 C 94.7 338.3 96.3 337.2 95.4 337.0 C 92.1 337.1 93.9 337.8 92.1 338.1 C 91.0 337.7 91.4 337.4 91.6 336.9 C 94.6 337.0 94.1 337.0 96.3 336.8 C 98.4 337.1 100.4 337.8 97.8 338.1 C 98.3 338.0 102.1 337.8 102.5 338.1 C 98.8 338.0 103.0 338.3 100.9 338.5 C 103.9 338.7 108.7 338.2 112.3 338.6 C 111.9 338.3 113.1 338.3 112.9 338.1 C 109.6 338.5 108.5 337.6 105.1 337.5 C 106.5 337.5 105.6 337.3 104.9 337.2 C 108.3 337.4 110.0 337.0 112.6 337.4 C 112.5 337.3 112.4 337.2 112.3 337.0 C 116.5 337.3 115.9 337.2 118.9 336.9 C 120.2 337.1 118.9 337.8 118.7 338.2 C 120.1 338.0 125.6 338.1 122.2 337.7 C 125.4 337.7 124.9 338.2 128.1 338.2 C 127.9 337.8 124.9 337.8 125.7 337.3 C 128.7 337.2 127.3 337.8 129.5 337.4 C 129.8 337.8 130.2 338.1 132.7 338.1 C 130.7 337.8 132.9 337.9 133.5 337.7 C 132.2 337.6 131.2 337.5 130.5 337.4 C 135.2 337.5 136.1 337.5 139.8 337.4 C 138.7 337.9 141.0 338.0 138.5 338.2 C 140.7 337.9 144.0 338.4 145.2 338.2 C 143.6 338.0 141.2 338.0 140.1 337.8 C 147.5 337.7 151.1 337.2 158.0 337.8 C 156.9 337.8 155.3 337.8 155.3 337.9 C 156.0 338.0 157.2 337.9 157.3 338.1 C 155.0 338.0 152.8 338.0 151.7 338.2 C 149.5 338.0 152.7 337.9 150.5 337.8 C 150.3 338.1 146.2 337.8 148.0 338.3 C 151.3 338.0 155.1 338.4 157.1 339.0 C 159.9 338.2 156.8 338.3 159.7 337.5 C 159.8 337.8 160.7 337.9 161.9 337.9 C 160.3 337.4 165.0 337.7 165.5 337.7 C 164.0 337.9 158.0 338.2 161.6 338.7 C 159.3 337.7 169.1 339.0 166.8 338.2 C 170.8 338.1 169.8 338.7 171.6 338.2 C 171.8 338.3 171.7 338.6 172.9 338.6 C 174.0 338.6 174.2 338.4 174.6 338.3 C 168.8 338.1 170.0 337.6 166.3 337.5 C 166.9 337.5 167.4 337.5 167.2 337.4 C 167.1 337.3 167.1 337.2 168.0 337.3 C 168.7 337.8 170.8 337.2 172.0 337.5 C 170.9 337.6 169.8 337.6 170.3 337.8 C 174.9 337.7 174.6 338.2 181.2 338.4 C 179.1 338.2 181.6 338.1 183.7 338.1 C 186.9 338.1 186.3 338.7 190.1 338.7 C 188.9 337.8 193.0 338.6 196.7 338.3 C 196.7 337.8 196.7 337.3 196.6 336.7 C 197.1 337.7 197.3 332.0 196.8 330.4 C 197.0 330.4 197.0 328.2 197.0 326.7 C 197.2 326.5 197.3 328.4 197.4 327.1 C 197.3 325.7 196.9 326.5 196.8 324.7 C 197.0 322.8 197.4 323.6 197.4 320.5 C 197.0 320.1 197.1 321.8 196.8 320.0 C 197.0 317.5 197.0 315.1 196.6 317.0 C 196.5 313.0 197.3 315.5 197.2 311.8 C 197.1 312.8 196.9 312.6 196.8 310.6 C 197.2 309.4 197.3 309.5 197.5 309.2 C 197.2 307.8 197.1 308.1 197.2 305.2 C 197.1 305.0 196.9 304.9 196.7 304.8 C 196.7 303.4 196.7 301.3 196.8 301.1 C 196.8 303.6 197.1 303.1 197.2 304.2 C 197.3 301.7 197.7 297.0 197.2 300.5 C 197.0 296.7 197.6 298.9 197.5 295.9 C 197.1 297.4 197.4 296.0 197.4 293.0 C 196.8 292.9 197.3 291.0 197.2 289.1 C 196.9 289.2 196.7 288.6 196.7 286.9 C 197.0 287.2 197.0 286.1 197.0 284.2 C 196.8 284.1 196.6 287.9 196.6 284.0 C 196.8 282.3 197.2 282.5 197.2 279.6 C 197.6 279.2 197.5 282.4 197.9 282.0 C 197.5 279.3 197.8 278.8 197.9 275.3 C 197.2 276.2 196.9 267.7 196.6 271.7 C 196.6 270.5 196.1 268.5 196.5 267.8 C 196.5 269.2 196.9 267.0 197.0 267.2 C 196.9 265.5 197.1 261.7 196.8 261.5 C 197.0 265.1 196.6 264.9 196.3 265.9 C 196.1 260.6 196.3 256.1 196.7 256.7 C 196.6 256.6 196.6 255.8 196.5 255.6 C 196.5 257.5 195.9 258.3 195.8 256.2 C 196.2 256.9 196.3 255.4 196.5 253.8 C 196.1 253.5 196.6 246.9 196.1 247.9 C 196.4 250.8 195.8 252.7 195.5 250.5 C 195.9 248.9 196.1 245.3 196.5 246.2 C 196.3 245.2 196.2 244.2 196.1 243.2 C 195.7 242.2 195.7 244.4 195.4 243.9 C 195.4 242.5 195.4 240.4 195.5 240.2 C 195.6 243.9 195.8 238.3 196.1 242.3 C 196.0 239.9 196.3 239.5 196.3 237.6 C 196.2 237.6 196.2 236.8 196.1 236.6 C 196.3 238.4 196.1 239.9 195.7 239.3 C 195.6 235.9 196.1 236.6 196.1 233.8 C 195.8 232.9 195.2 228.8 195.5 227.0 C 195.5 230.8 195.7 226.8 195.9 229.1 C 195.7 232.4 196.1 233.4 196.5 234.8 C 196.7 233.5 196.8 230.7 196.3 230.1 C 196.3 231.9 196.5 232.0 196.6 233.1 C 196.3 232.9 196.2 232.3 196.1 230.9 C 196.4 229.5 196.0 225.9 196.6 228.4 C 196.3 225.9 196.8 223.4 196.5 220.8 C 196.4 223.5 196.3 225.5 195.9 226.2 C 195.8 223.9 196.2 221.7 195.9 221.6 C 195.6 221.7 195.7 225.4 195.4 226.1 C 195.0 223.0 196.1 218.9 195.3 222.3 C 195.4 220.7 195.4 218.4 195.5 217.7 C 195.6 219.7 196.1 217.7 196.2 216.9 C 196.2 215.1 196.1 213.7 195.9 213.1 C 196.1 215.7 195.6 217.6 195.5 215.8 C 195.8 215.4 195.5 214.8 195.4 213.9 C 195.7 213.8 195.5 210.8 195.7 210.3 C 195.5 210.4 195.5 211.8 195.3 212.0 C 195.2 210.2 194.6 207.6 195.2 206.4 C 195.2 207.5 195.1 209.0 195.3 209.2 C 195.9 204.4 196.3 203.0 196.6 197.2 C 196.6 198.0 196.7 198.3 196.8 198.2 C 196.9 194.5 197.1 192.1 197.4 192.6 C 197.3 190.3 197.1 189.1 196.8 187.9 C 196.6 190.2 197.0 191.1 196.7 192.5 C 196.6 191.6 195.9 194.3 195.7 195.3 C 196.1 199.3 195.4 199.5 195.7 203.7 C 195.3 202.4 195.6 206.7 195.2 205.4 C 195.8 201.7 195.3 198.0 195.6 192.4 C 195.9 193.2 196.2 193.9 196.3 191.6 C 196.5 188.0 196.0 189.7 196.1 186.8 C 196.4 185.6 196.5 187.4 196.6 185.9 C 196.4 184.9 196.5 182.1 196.9 181.2 C 196.8 185.1 197.2 180.5 197.4 183.1 C 197.4 181.8 197.4 181.1 197.5 180.2 C 197.0 184.0 196.9 176.4 196.6 179.3 C 196.4 174.1 197.6 178.9 197.5 174.6 C 197.2 176.7 197.0 174.0 197.1 170.8 C 197.5 170.0 197.6 166.7 197.8 164.1 C 197.5 165.5 197.5 166.6 197.2 164.2 C 197.1 165.5 197.1 167.7 197.2 168.9 C 197.1 168.9 197.0 169.4 196.8 169.9 C 196.8 166.8 196.6 168.1 196.5 167.1 C 196.6 166.1 196.6 163.8 196.8 163.3 C 196.7 163.3 196.7 162.5 196.6 162.4 C 196.5 166.3 196.0 161.8 195.9 164.3 C 196.0 166.0 196.4 164.9 196.3 167.1 C 195.8 169.2 195.8 165.4 195.4 164.3 C 195.1 166.1 195.6 168.3 195.2 169.0 C 194.7 166.6 195.0 162.8 195.2 159.7 C 194.6 159.9 195.3 154.5 194.6 154.1 C 194.8 153.6 194.9 153.0 195.0 152.2 C 194.6 151.4 195.2 150.3 195.2 149.4 C 194.9 149.3 194.8 149.6 194.6 150.4 C 194.9 146.5 194.8 145.6 194.6 141.1 C 194.9 140.3 195.1 139.5 195.4 139.0 C 195.5 140.1 195.6 141.1 195.7 141.8 C 195.7 135.6 194.6 139.8 195.3 135.3 C 195.1 135.5 194.6 138.7 194.5 136.4 C 195.0 132.4 194.5 127.0 195.7 126.8 C 196.0 123.2 195.3 121.1 195.8 119.3 C 195.8 118.2 195.7 117.9 195.5 117.4 C 195.3 118.6 195.1 120.1 194.9 121.4 C 195.1 123.4 194.7 124.5 195.3 122.3 C 195.3 125.4 195.1 126.3 194.9 128.0 C 194.6 123.8 195.0 119.7 194.4 119.8 C 194.6 118.2 194.9 117.0 195.2 115.8 C 194.9 115.4 194.7 110.6 195.2 110.1 C 195.0 113.4 195.5 116.6 195.8 113.6 C 195.5 105.7 196.2 100.9 195.8 93.9 C 196.0 93.7 196.3 94.1 196.3 92.8 C 196.1 92.9 195.9 92.7 195.8 92.0 C 195.9 89.8 196.0 88.4 195.9 85.5 C 196.3 85.4 196.6 84.8 196.7 83.1 C 196.3 82.4 195.5 79.8 195.7 78.0 C 195.7 79.8 196.2 77.2 196.2 75.9 C 195.6 77.3 196.6 67.1 196.1 70.3 C 196.1 66.4 196.3 64.6 196.5 64.4 C 196.4 63.1 196.3 62.2 196.2 60.8 C 196.8 59.6 196.3 53.2 196.6 52.1 C 196.4 54.5 197.0 54.5 197.0 52.7 C 196.7 51.7 196.4 45.8 196.5 44.7 C 196.6 44.9 197.0 45.1 197.1 47.9 C 197.2 42.9 196.6 43.4 196.2 42.0 C 196.7 41.8 196.3 39.8 196.2 39.2 C 196.5 37.4 196.4 39.1 196.7 38.8 C 196.8 37.0 197.0 36.1 197.0 33.8 C 196.5 34.9 196.8 32.1 196.8 31.1 C 196.6 31.0 196.4 29.9 196.3 27.8 C 197.0 30.0 197.1 15.1 196.6 19.1 C 196.2 16.5 197.1 15.7 197.0 12.1 C 196.9 11.9 196.9 11.6 196.8 11.3 C 196.1 11.4 195.5 11.4 196.6 11.6 C 196.6 11.6 196.6 11.6 196.6 11.6 C 196.6 11.6 196.6 11.6 196.6 11.6 C 193.6 11.7 195.9 11.1 192.1 11.3 C 193.2 11.8 188.7 11.2 188.9 11.8 C 188.1 11.1 184.3 12.0 181.9 11.4 C 181.8 11.6 180.9 11.6 180.7 11.7 C 180.1 11.9 184.0 12.0 181.3 12.1 C 178.4 11.8 180.2 11.7 180.0 11.4 C 171.3 11.6 161.1 11.4 152.2 11.3 C 153.1 11.5 153.0 11.6 151.0 11.7 C 148.8 10.9 138.0 11.3 136.3 11.6 C 135.5 11.1 129.9 11.6 128.9 11.3 C 130.0 11.3 132.2 10.9 130.0 10.9 C 128.4 11.4 126.5 11.1 124.3 11.4 C 123.3 10.9 116.6 11.5 119.7 10.7 C 118.4 10.7 117.7 10.6 117.0 10.5 C 116.8 11.0 115.5 10.9 117.8 11.2 C 111.8 10.8 110.3 11.2 105.6 10.9 C 104.8 11.1 108.4 11.3 105.6 11.4 C 105.6 11.3 105.6 11.3 105.6 11.2 C 104.6 11.2 104.3 11.4 103.8 11.2 C 104.0 11.0 105.6 11.0 105.7 10.5 C 103.4 10.7 101.8 10.1 101.0 10.5 C 104.2 10.6 102.0 11.3 100.1 10.9 C 101.8 10.7 92.7 10.9 89.8 11.2 C 88.3 10.7 93.0 11.1 92.6 10.8 C 87.2 10.9 87.6 10.7 87.0 11.2 C 84.1 11.0 82.9 10.8 79.5 11.0 C 77.5 10.9 80.6 10.7 78.5 10.7 C 77.3 10.8 76.8 11.0 74.9 11.0 C 69.6 10.2 58.4 11.6 52.1 10.3 C 54.6 10.6 51.7 10.8 48.7 10.8 C 48.4 10.6 48.6 10.4 47.5 10.4 C 47.9 10.7 46.9 10.8 44.9 10.8 C 44.6 10.6 44.9 10.4 43.8 10.4 C 43.2 10.9 40.5 10.4 39.2 10.7 C 38.2 10.2 42.5 10.4 42.6 10.1 C 37.5 9.8 37.0 10.3 33.2 10.1 C 35.1 10.1 31.5 9.7 30.9 9.6 C 32.1 10.1 29.3 10.2 31.6 10.5 C 30.2 10.5 28.2 10.6 27.7 10.4 C 28.4 10.4 29.7 10.4 29.6 10.3 C 27.9 10.3 25.3 9.9 24.8 10.3 C 26.0 10.3 26.8 10.4 27.0 10.7 C 26.7 10.8 26.3 10.9 25.5 11.0 C 27.3 10.0 19.9 10.5 19.7 10.8 C 18.4 10.1 17.9 10.1 17.9 9.9 C 14.6 9.8 15.4 10.3 13.6 10.4 C 13.7 9.9 14.1 9.6 10.8 9.4 C 11.4 9.6 10.5 9.8 9.9 9.9 C 10.0 10.6 10.2 11.2 10.4 10.9 C 10.6 19.0 10.0 20.1 10.0 24.9 C 10.2 25.2 10.2 23.7 10.3 25.2 C 10.2 27.3 10.0 29.1 9.8 30.4 C 10.1 31.9 10.2 30.3 10.3 31.8 C 9.9 35.0 9.5 33.7 9.1 36.5 C 9.4 40.6 9.2 39.0 9.6 41.8 C 9.7 40.8 9.9 39.6 9.9 41.1 C 9.5 43.1 9.1 43.6 9.0 44.1 C 9.0 42.4 9.0 41.1 9.1 40.4 C 8.9 39.5 8.9 37.2 8.6 38.9 C 8.7 36.6 8.8 33.9 8.7 30.3 C 8.3 31.2 8.6 27.2 8.2 28.0 C 8.3 32.0 8.0 32.7 8.1 36.5 C 8.5 36.1 8.3 39.8 8.2 40.5 C 8.5 40.7 8.4 43.2 8.7 42.9 C 8.8 45.9 8.5 45.5 8.6 48.5 C 8.4 48.6 8.2 48.0 8.2 49.1 C 8.6 50.5 8.1 50.9 8.1 51.9 C 8.5 51.6 8.3 55.6 8.6 56.2 C 8.6 55.1 8.6 53.5 8.7 53.4 C 8.7 58.0 9.1 54.6 9.4 54.0 C 9.2 54.0 8.7 51.8 9.0 51.7 C 9.3 56.0 9.7 46.8 9.5 50.2 C 9.4 53.2 9.7 53.2 9.6 56.1 C 8.9 59.1 8.5 54.5 7.9 57.6 C 8.3 60.1 8.2 61.5 8.6 62.0 C 8.4 62.3 8.3 62.8 8.2 63.5 C 8.4 64.7 8.6 61.1 8.7 64.0 C 8.6 65.4 8.1 63.3 8.2 66.5 C 8.5 68.0 8.6 63.0 8.7 65.9 C 8.1 68.4 8.9 65.5 9.0 69.0 C 8.9 69.2 8.8 69.7 8.9 70.8 C 8.7 70.9 8.4 70.2 8.3 71.4 C 9.0 72.6 8.1 72.4 8.2 75.1 C 8.7 76.9 8.5 72.7 8.9 73.7 C 8.4 76.3 8.9 78.4 8.9 79.5 C 8.5 76.8 8.6 82.9 8.2 82.8 C 8.7 82.5 8.5 83.6 8.9 87.2 C 8.1 86.9 8.6 91.0 8.1 91.4 C 8.3 92.0 8.4 93.1 8.6 93.7 C 8.6 92.6 8.6 91.5 8.9 92.0 C 8.9 92.9 8.9 93.9 8.9 94.9 C 8.5 96.3 7.7 91.5 7.8 98.0 C 8.3 97.6 8.4 100.4 8.6 102.3 C 9.0 102.5 8.6 99.8 8.9 99.7 C 9.2 102.1 8.8 104.1 8.6 105.2 C 8.8 109.1 8.5 113.3 8.7 118.8 C 8.4 119.8 8.4 114.1 8.2 117.5 C 8.2 119.0 8.5 118.5 8.5 120.5 C 6.8 117.5 8.1 134.8 7.4 135.4 C 7.8 136.2 7.6 140.7 8.1 140.5 C 7.7 137.2 8.2 135.4 8.5 134.0 C 8.2 131.0 8.1 136.4 7.9 133.7 C 8.2 133.6 8.0 129.5 8.3 130.1 C 8.4 134.2 8.7 128.2 9.1 131.5 C 9.0 135.3 9.5 143.2 9.0 141.1 C 9.1 141.2 9.1 139.5 9.0 139.2 C 8.8 143.4 9.1 146.1 9.4 148.1 C 9.1 149.8 9.6 157.8 9.4 155.7 C 9.0 156.2 9.5 151.2 9.1 151.8 C 9.0 159.6 9.3 160.0 9.0 165.1 C 9.5 163.6 9.7 170.9 9.5 170.2 C 9.1 170.0 8.8 171.4 9.2 174.8 C 8.8 174.2 8.7 175.8 8.6 177.4 C 9.0 178.4 8.9 176.2 9.2 176.7 C 9.2 178.3 9.2 180.0 9.2 181.6 C 9.1 181.6 8.9 181.2 8.9 182.3 C 9.1 184.2 9.5 190.8 9.2 190.2 C 8.7 187.2 8.8 194.4 8.5 189.8 C 8.5 191.0 8.3 191.1 8.3 192.7 C 8.5 192.8 8.7 192.8 8.9 192.9 C 8.9 196.5 8.2 194.4 8.2 197.4 C 8.4 197.8 8.4 199.1 8.6 199.6 C 8.6 198.3 8.4 198.2 8.5 196.6 C 9.1 198.6 8.8 193.6 9.2 194.0 C 9.3 197.4 8.9 197.3 8.7 198.6 C 9.0 202.9 8.9 200.9 8.7 205.3 C 8.9 205.4 8.9 204.2 9.1 204.5 C 9.0 209.9 8.2 209.0 8.5 212.9 C 8.4 212.1 8.1 208.5 8.1 210.9 C 8.3 213.5 8.7 214.4 8.7 217.8 C 8.6 217.9 8.4 217.6 8.3 218.7 C 8.5 220.1 8.8 220.4 9.0 221.7 C 8.8 221.9 8.9 223.8 9.0 224.6 C 8.7 225.7 8.6 224.0 8.5 225.5 C 8.5 228.3 9.4 230.1 9.2 232.4 C 8.7 232.1 8.9 234.8 9.0 237.2 C 8.5 237.4 8.6 242.4 8.5 245.6 C 8.9 245.0 8.7 248.3 9.1 247.7 C 9.1 246.1 9.2 245.3 9.4 245.0 C 9.4 248.7 8.6 249.6 9.2 252.6 C 9.0 253.9 8.7 255.7 8.6 258.2 C 8.8 258.5 9.0 253.8 9.1 256.4 C 9.0 256.6 9.0 257.4 9.1 258.3 C 8.7 257.8 8.6 259.8 8.3 261.0 C 8.7 263.3 8.1 267.9 8.6 265.8 C 8.7 269.4 8.0 266.9 8.0 269.6 C 8.5 268.4 8.6 273.0 8.9 270.8 C 9.0 274.4 8.3 274.0 8.1 272.5 C 8.0 275.8 8.3 276.7 8.1 278.3 C 8.5 276.8 8.7 282.0 8.5 279.3 C 8.1 278.4 8.3 282.4 8.1 283.1 C 8.4 281.9 8.4 283.7 8.6 281.3 C 8.7 283.9 8.8 287.6 8.3 289.9 C 8.6 293.1 8.6 296.1 8.2 294.7 C 8.3 297.7 8.3 296.6 8.2 299.5 C 8.3 299.6 8.4 298.7 8.5 298.5 C 8.5 302.7 8.2 301.8 8.2 307.2 C 7.7 306.5 7.7 310.0 7.4 311.0 C 7.5 308.8 7.6 307.0 7.7 305.2 C 7.5 304.8 7.4 306.6 7.3 305.2 C 7.4 305.0 7.5 304.2 7.6 303.3 C 7.2 306.8 6.9 298.7 7.3 301.3 C 7.2 301.3 7.1 301.5 7.2 302.2 C 7.6 301.6 7.4 301.6 7.8 302.3 C 7.7 300.5 8.2 299.2 7.8 298.5 C 7.6 298.5 7.7 300.2 7.6 300.4 C 7.3 295.9 8.1 299.2 7.9 295.7 C 7.5 294.8 7.4 296.6 7.2 297.4 C 7.1 294.2 7.2 291.5 7.4 290.7 C 7.3 287.8 7.1 290.8 6.9 288.7 C 7.1 287.7 7.4 287.9 7.4 285.9 C 7.2 283.7 7.1 287.1 7.0 284.9 C 7.3 282.6 7.6 286.6 7.7 283.0 C 7.1 283.8 7.8 279.8 7.4 280.1 C 7.5 282.1 6.9 282.0 7.3 281.1 C 7.8 276.5 6.4 272.9 7.3 268.5 C 7.2 268.4 7.1 267.7 7.0 267.5 C 6.8 270.9 6.7 276.1 6.1 276.9 C 6.3 279.8 6.6 279.4 6.8 279.9 C 6.3 283.2 6.2 282.9 5.6 280.8 C 5.5 275.2 5.8 272.9 6.0 269.2 C 5.7 267.2 5.8 269.4 5.6 270.1 C 6.0 258.7 4.8 267.2 5.0 263.1 C 5.2 263.3 5.3 262.4 5.3 261.3 C 5.2 261.3 5.2 259.6 5.1 259.3 C 5.1 260.0 5.0 260.4 4.8 260.1 C 4.7 257.3 5.1 258.5 5.3 258.4 C 5.3 260.5 5.4 262.0 5.6 262.3 C 5.4 259.4 5.8 257.3 5.3 255.4 C 5.9 252.9 6.5 257.1 6.9 255.8 C 7.2 256.4 5.9 253.8 5.7 251.7 C 5.8 248.2 5.3 248.0 5.3 244.7 C 5.8 244.0 5.5 248.0 5.9 247.8 C 5.9 246.9 6.0 246.7 6.0 245.9 C 5.9 243.6 5.6 243.7 5.5 241.8 C 5.9 241.0 5.6 240.4 5.5 239.0 C 5.7 236.9 5.8 240.3 5.9 238.1 C 6.0 235.8 5.4 233.9 5.5 233.1 C 5.6 233.0 5.8 233.4 5.9 232.3 C 5.6 229.5 5.6 228.8 5.3 232.1 C 5.4 229.1 5.2 227.8 4.8 228.1 C 4.8 232.6 4.8 233.8 4.3 235.7 C 4.7 236.7 4.4 237.9 4.3 239.6 C 5.0 238.8 4.3 241.6 4.7 242.7 C 4.8 241.5 4.8 240.4 5.0 239.8 C 4.9 244.6 4.8 244.5 5.5 248.7 C 5.3 248.6 5.2 249.1 5.1 249.5 C 4.9 248.2 5.0 244.7 4.7 244.6 C 4.2 247.2 5.0 248.3 4.4 251.3 C 4.7 252.7 4.9 248.9 4.9 251.5 C 4.7 252.6 4.5 254.2 4.3 256.1 C 4.4 258.2 4.6 259.3 4.7 261.1 C 4.5 261.2 4.4 261.4 4.4 263.0 C 4.6 262.9 4.7 261.4 4.8 263.1 C 4.3 268.1 4.0 271.4 4.2 276.6 C 4.3 274.8 4.7 270.8 4.7 272.8 C 4.4 275.0 4.9 278.3 4.6 280.6 C 4.4 281.3 4.7 277.8 4.0 278.5 C 4.1 280.8 4.0 282.2 3.9 283.3 C 4.2 283.4 4.1 286.0 4.4 285.4 C 4.5 283.5 4.0 282.9 4.2 282.4 C 5.3 284.2 3.8 289.5 3.8 293.1 C 4.0 295.5 4.2 291.3 4.3 294.1 C 4.5 295.8 3.5 296.7 3.4 294.0 C 3.6 292.2 3.1 291.4 3.5 291.0 C 3.5 290.3 3.5 289.1 3.4 289.1 C 3.4 290.5 3.1 290.1 3.0 291.0 C 3.1 289.1 2.3 288.7 2.7 287.0 C 2.8 288.2 2.9 288.6 3.0 289.1 C 2.9 283.8 3.2 282.2 3.4 279.3 C 3.1 280.9 3.2 279.2 2.9 279.2 C 3.0 281.5 2.7 285.8 2.6 283.1 C 3.1 281.5 1.9 279.8 2.3 278.2 C 2.4 279.5 2.6 279.4 2.7 280.2 C 2.8 278.2 3.1 278.3 3.1 276.3 C 2.5 269.8 3.6 265.2 2.7 254.8 C 2.7 251.2 2.9 258.1 3.3 257.9 C 3.3 256.8 3.4 256.6 3.4 255.9 C 2.9 255.7 3.4 254.1 3.0 252.8 C 3.4 253.1 3.0 248.3 3.4 246.1 C 3.2 245.9 3.0 246.2 3.0 245.0 C 3.5 238.0 2.8 224.8 3.3 219.7 C 2.9 219.7 2.9 217.4 2.7 216.6 C 2.8 213.2 3.1 214.8 2.7 209.7 C 2.7 207.2 3.0 210.3 3.1 210.8 C 2.9 203.3 3.3 197.0 2.9 192.1 C 2.7 189.7 3.2 192.3 3.3 187.5 C 2.7 187.1 3.5 179.9 2.9 178.5 C 2.8 175.5 3.6 170.6 3.0 172.7 C 3.0 168.6 3.5 171.6 3.5 170.0 C 3.5 167.2 2.5 170.3 2.5 167.5 C 2.9 168.0 2.7 165.6 3.1 164.0 C 3.1 166.1 3.2 167.6 3.4 168.0 C 3.1 166.0 3.5 166.2 3.4 163.1 C 3.1 160.7 2.8 154.0 3.4 152.4 C 3.2 152.2 3.1 152.7 3.0 153.1 C 2.9 151.2 3.4 149.1 2.9 149.1 C 2.9 144.7 3.3 143.1 2.9 140.4 C 2.7 138.4 3.3 141.3 3.3 135.6 C 2.9 135.3 2.9 125.4 3.3 123.0 C 2.7 122.5 3.2 122.3 3.3 121.1 C 3.1 120.8 2.9 120.9 2.9 119.8 C 3.0 119.7 3.0 118.8 2.9 117.8 C 3.5 118.9 2.7 114.1 3.1 114.1 C 3.2 115.0 3.5 115.2 3.5 114.4 C 3.1 113.8 3.8 110.2 3.4 110.4 C 3.3 111.1 3.4 114.0 3.0 113.0 C 2.8 109.1 3.4 110.9 3.4 108.4 C 3.2 108.5 3.1 109.9 3.0 108.1 C 3.1 105.5 3.1 108.0 3.4 106.5 C 3.3 105.0 3.0 102.2 3.0 101.3 C 3.0 101.5 3.2 100.9 3.3 100.5 C 3.4 95.6 3.0 83.8 3.5 79.3 C 3.3 78.7 3.3 77.6 3.0 77.8 C 3.2 75.0 3.1 75.1 3.3 72.2 C 3.1 72.1 2.9 71.9 2.7 71.8 C 2.5 67.7 3.3 71.9 3.3 69.2 C 2.4 68.2 3.5 67.9 3.5 65.6 C 3.4 65.1 3.3 63.9 3.0 64.1 C 3.0 60.4 3.6 61.1 3.4 57.6 C 3.3 58.4 2.1 57.9 1.7 57.2 C 1.9 56.8 2.0 55.9 2.1 54.5 C 2.5 56.6 4.0 56.9 3.5 51.8 C 3.6 54.5 3.5 55.3 3.1 54.5 C 3.1 50.9 3.4 49.9 3.4 46.9 C 3.0 46.0 2.9 48.2 2.5 47.0 C 2.5 46.3 2.4 45.8 2.2 45.9 C 2.3 42.7 2.6 42.8 2.4 39.1 C 2.6 39.3 2.6 40.1 2.5 41.2 C 2.8 41.3 3.1 41.6 3.1 43.7 C 2.9 43.8 2.5 42.2 2.6 45.2 C 2.8 45.4 3.1 45.6 3.3 45.8 C 3.3 43.6 3.6 38.8 3.4 38.1 C 3.2 39.0 3.2 40.7 2.7 39.4 C 2.9 35.8 3.3 35.2 3.5 32.3 C 3.4 26.9 3.5 17.5 2.9 18.1 C 3.0 15.0 3.1 16.2 3.1 13.4 C 2.7 13.8 3.0 10.0 2.6 9.9 C 2.7 13.6 2.6 12.4 2.7 16.0 C 2.5 15.6 2.3 14.9 2.2 13.5 C 2.5 13.5 2.5 12.1 2.5 9.8 C 2.4 10.1 2.0 11.8 2.0 9.3 C 2.1 9.2 2.1 8.7 2.1 7.5 C 2.3 7.7 2.5 7.9 2.7 8.1 C 2.9 9.6 3.0 11.3 3.1 12.4 C 3.1 11.5 3.2 11.4 3.3 10.6 C 3.0 9.8 3.3 6.0 3.0 5.4 C 3.0 7.1 2.8 7.9 2.7 6.1 C 2.8 5.9 2.9 4.0 2.8 2.8 C 3.0 2.8 3.1 2.7 3.2 2.7 C 3.1 2.7 2.9 2.7 2.7 2.7 C 2.5 5.3 2.5 4.2 2.1 5.5 C 2.1 3.7 2.1 2.9 2.2 2.2 C 3.4 2.3 4.5 2.4 6.9 2.3 C 7.3 2.6 7.6 3.0 6.6 3.1 C 10.3 3.9 16.5 3.1 18.8 3.2 C 17.2 3.2 15.9 3.7 18.3 3.8 C 18.2 3.6 20.0 3.6 20.1 3.5 C 20.3 2.7 17.9 2.4 15.7 1.9 C 17.7 2.0 17.9 1.8 19.7 1.8 C 20.6 2.1 19.2 2.7 21.5 2.7 C 21.5 2.1 25.7 2.7 26.1 2.2 C 24.6 2.2 23.3 2.0 24.9 1.9 C 24.9 2.2 28.0 2.1 28.3 2.3 C 25.8 2.5 25.4 2.9 23.7 2.8 C 25.8 2.9 22.4 3.2 25.9 3.2 C 27.3 3.0 27.8 2.6 31.6 2.6 C 33.0 2.7 32.1 3.1 33.9 3.1 C 33.2 2.7 37.2 2.6 34.9 3.0 C 36.3 3.0 37.1 3.0 38.0 3.1 C 35.8 2.7 45.1 2.2 43.4 1.9 C 43.7 2.5 44.5 3.0 45.1 3.1 C 46.7 2.7 49.1 3.0 54.2 3.0 C 53.8 2.5 55.0 2.9 57.1 2.9 C 57.4 2.6 55.5 2.5 56.9 2.5 C 59.5 2.7 59.6 2.7 60.2 2.9 C 62.0 2.8 63.3 2.9 64.3 3.0 C 64.3 2.8 63.7 2.7 63.1 2.6 C 70.1 3.0 73.5 2.5 79.4 2.6 C 76.9 2.4 76.5 3.0 78.5 3.0 C 79.7 2.9 80.7 2.8 81.4 2.7 C 79.9 2.3 80.6 2.6 83.5 2.6 C 86.0 2.4 82.3 2.0 84.3 1.9 C 86.6 2.2 85.3 2.3 86.5 2.5 C 87.5 2.5 88.6 2.5 89.6 2.5 C 87.7 2.2 89.7 2.1 91.5 1.9 C 90.3 2.4 91.1 2.5 94.7 2.3 C 95.1 2.6 93.2 2.7 94.7 2.7 C 95.5 2.8 98.2 2.2 100.7 2.6 C 99.9 2.6 99.5 2.7 99.7 2.9 C 102.4 2.6 104.5 3.1 106.9 3.2 C 104.5 2.9 105.8 2.6 104.8 2.3 C 107.2 2.7 110.1 2.2 111.9 2.7 C 108.5 2.6 111.8 3.5 113.9 3.5 C 114.5 3.1 110.8 3.2 111.9 2.7 C 113.1 2.4 115.8 3.0 117.0 2.6 C 116.8 2.4 115.4 2.7 115.0 2.5 C 116.9 2.4 114.4 2.3 116.0 2.2 C 117.0 2.6 118.2 2.1 119.2 2.1 C 120.4 2.2 123.0 2.8 124.2 2.5 C 124.2 2.3 122.4 2.3 122.2 2.2 C 127.9 2.0 129.4 2.6 134.5 2.1 C 135.0 2.3 136.0 2.4 137.5 2.5 C 137.4 2.2 138.4 2.1 139.6 2.1 C 141.7 2.3 143.8 2.5 146.5 2.6 C 145.9 2.9 144.6 3.1 148.3 3.1 C 148.6 3.0 147.0 2.9 148.4 2.9 C 148.4 2.9 149.2 3.0 149.5 2.9 C 149.5 2.8 149.6 2.7 149.6 2.6 C 148.5 2.6 147.5 2.6 146.5 2.6 C 146.7 2.4 146.5 2.2 145.8 2.1 C 150.3 1.9 149.7 2.7 152.7 2.3 C 152.9 3.0 153.8 3.1 151.2 3.5 C 153.8 3.4 155.7 3.2 156.5 2.9 C 153.4 2.9 154.7 2.4 153.9 2.2 C 155.8 2.2 156.0 2.0 157.0 2.0 C 159.1 2.2 154.2 2.7 158.7 2.7 C 155.6 2.2 161.7 2.3 163.9 2.5 C 163.6 2.3 162.8 2.3 164.1 2.1 C 170.3 1.8 169.0 3.2 173.0 2.5 C 172.5 2.7 174.2 2.7 174.8 2.9 C 171.8 3.0 170.9 3.1 169.6 3.1 C 169.7 3.3 170.6 3.3 171.4 3.4 C 171.6 3.1 172.4 3.1 173.6 3.3 C 174.6 3.0 174.7 2.4 177.4 2.1 C 177.4 2.2 177.0 2.5 178.2 2.5 C 179.5 2.1 176.8 3.2 181.8 3.0 C 181.1 2.9 180.7 2.7 181.3 2.4 C 183.9 2.2 183.2 2.4 186.5 2.2 C 187.2 2.9 183.7 3.0 182.5 3.4 C 184.8 3.3 186.9 2.9 188.8 3.1 C 187.3 2.9 189.3 2.6 191.4 2.5 C 193.1 2.6 190.7 3.1 192.9 3.1 C 194.7 3.0 195.9 2.7 194.5 2.5 C 198.1 2.6 197.6 2.2 200.8 2.2 C 200.6 2.5 199.7 2.5 198.6 2.4 C 198.7 2.5 198.1 2.7 199.3 2.7 C 200.9 2.5 203.5 2.4 205.8 2.3 C 205.9 3.3 206.0 4.3 206.1 5.0 C 205.3 10.1 206.2 14.4 205.9 19.1 C 205.5 17.7 205.9 25.0 205.4 27.5 C 205.5 28.8 206.4 32.3 206.1 31.0 C 205.5 31.8 205.7 34.3 205.5 36.5 C 205.7 36.3 205.8 36.2 205.9 36.1 C 206.0 40.6 205.6 41.8 205.3 43.5 C 205.6 48.7 205.0 55.1 205.4 61.3 C 205.0 63.3 205.1 64.7 204.8 68.7 C 205.2 68.4 205.2 71.5 205.2 74.4 C 205.5 73.5 205.4 76.3 205.7 76.1 C 205.7 73.5 206.2 74.2 206.3 72.7 C 205.9 76.5 206.7 77.8 206.3 80.7 C 206.1 77.4 205.6 76.6 205.0 76.5 C 205.1 80.5 205.0 82.7 204.6 83.7 C 204.9 83.8 205.1 83.2 205.3 82.2 C 205.3 83.6 205.3 85.0 205.3 86.2 C 205.1 86.7 204.9 84.9 204.9 86.4 C 205.0 87.3 205.2 88.3 205.3 89.2 C 204.9 90.6 205.0 87.8 204.8 87.5 C 204.6 92.9 205.4 90.2 205.5 93.1 C 205.3 94.0 204.8 94.0 204.8 96.4 C 205.0 97.3 205.4 97.4 205.4 100.1 C 205.3 101.9 204.8 100.3 204.8 102.3 C 204.9 102.5 204.8 103.4 204.8 104.3 C 205.0 104.1 205.1 105.0 205.2 106.1 C 205.0 106.5 205.1 108.4 205.2 109.1 C 204.9 109.4 204.5 112.6 204.8 113.2 C 204.9 113.2 204.9 111.4 205.0 111.2 C 205.0 113.4 205.0 115.0 205.2 116.1 C 204.2 117.1 205.0 120.5 204.5 125.2 C 204.8 127.9 205.2 124.4 205.4 127.9 C 205.1 130.1 205.0 127.5 204.6 128.1 C 204.6 128.7 204.3 132.1 204.6 132.1 C 204.8 132.0 204.8 130.3 204.9 130.1 C 205.2 132.6 204.8 132.6 204.6 134.1 C 205.0 133.8 205.0 135.5 205.3 135.9 C 205.5 143.0 204.8 143.0 204.5 146.0 C 204.7 145.9 204.6 147.7 204.8 147.9 C 204.6 145.9 205.0 143.1 205.0 145.9 C 204.8 145.4 205.0 149.6 205.1 149.8 C 205.4 149.3 205.3 146.7 205.7 147.7 C 205.8 151.5 205.0 150.0 205.4 152.8 C 205.2 153.1 205.1 151.5 205.0 150.8 C 205.0 152.0 205.0 153.6 204.9 153.8 C 204.8 152.4 204.5 152.4 204.2 151.9 C 204.6 153.8 204.2 157.3 204.8 154.8 C 204.6 158.8 204.9 162.5 205.3 159.8 C 205.4 163.0 204.8 161.2 205.2 163.8 C 204.7 163.4 204.5 162.6 204.1 164.8 C 204.4 165.2 204.4 166.9 204.8 166.7 C 204.8 171.4 204.3 172.8 204.0 174.7 C 204.6 173.0 204.1 175.3 204.5 177.6 C 204.3 179.0 203.8 177.7 204.0 181.5 C 204.5 177.4 204.1 186.3 204.8 184.5 C 204.5 189.4 204.5 189.3 204.4 194.4 C 204.1 193.9 203.9 192.6 203.8 190.4 C 204.2 192.0 204.2 186.1 204.0 186.5 C 203.9 186.5 203.8 186.5 203.7 186.5 C 203.8 190.2 203.7 192.7 203.5 194.3 C 203.7 195.1 203.9 196.9 204.4 196.4 C 203.8 199.8 204.6 203.7 204.1 205.3 C 204.1 204.0 204.1 202.8 203.8 203.2 C 204.0 204.7 204.0 206.4 204.4 206.3 C 204.5 203.4 204.5 202.8 204.2 201.3 C 204.6 202.6 204.8 198.5 204.9 201.4 C 204.3 201.2 205.2 207.4 204.8 205.4 C 204.5 202.2 204.4 208.9 204.1 209.1 C 204.1 209.1 204.1 209.1 204.1 209.1 Z M 3.1 277.3 C 3.3 280.3 3.7 276.7 3.7 274.5 C 3.5 275.2 3.4 275.4 3.1 275.4 C 3.2 276.2 3.3 277.1 3.1 277.3 C 3.1 277.3 3.1 277.3 3.1 277.3 Z M 8.9 247.6 C 8.4 246.6 8.7 251.4 8.6 253.4 C 8.7 252.8 8.8 252.2 8.9 253.4 C 9.2 251.5 8.5 250.5 8.9 247.6 C 8.9 247.6 8.9 247.6 8.9 247.6 Z M 7.4 140.2 C 7.5 141.0 7.6 142.9 7.4 143.0 C 7.4 144.1 7.7 144.0 7.8 144.2 C 7.9 146.5 7.2 143.3 7.4 146.9 C 8.2 148.7 8.3 141.5 7.4 140.2 C 7.4 140.2 7.4 140.2 7.4 140.2 Z M 198.3 171.7 C 198.0 173.1 197.7 169.9 197.4 170.8 C 197.7 176.1 198.1 172.0 198.0 179.3 C 198.1 178.9 198.2 178.3 198.4 178.4 C 198.2 175.0 198.0 174.7 198.7 175.5 C 198.7 174.0 197.8 173.6 198.3 171.7 C 198.3 171.7 198.3 171.7 198.3 171.7 Z M 196.6 239.7 C 196.7 239.2 196.8 238.7 197.0 238.8 C 196.8 236.5 196.7 237.0 196.9 234.1 C 196.3 234.2 196.3 237.1 196.6 239.7 C 196.6 239.7 196.6 239.7 196.6 239.7 Z M 115.3 337.3 C 114.7 337.3 114.0 337.3 113.4 337.3 C 114.0 337.5 112.5 338.1 115.7 337.9 C 115.8 337.8 115.3 337.8 114.7 337.8 C 115.2 337.7 116.7 337.7 116.3 337.4 C 115.5 337.4 115.4 337.4 115.3 337.3 C 115.3 337.3 115.3 337.3 115.3 337.3 Z M 40.6 340.9 C 44.3 340.5 35.0 339.6 40.6 340.9 C 40.6 340.9 40.6 340.9 40.6 340.9 C 40.6 340.9 40.6 340.9 40.6 340.9 Z M 49.4 345.5 C 49.5 345.6 50.3 345.6 50.3 345.5 C 53.6 345.6 50.5 345.8 52.3 346.0 C 54.9 345.7 50.9 345.3 54.1 345.1 C 53.4 344.8 51.3 345.5 49.4 345.5 C 49.4 345.5 49.4 345.5 49.4 345.5 Z M 168.8 2.7 C 165.9 2.8 164.9 3.2 164.2 3.6 C 166.0 3.6 167.6 3.7 168.0 3.9 C 171.7 3.7 165.9 3.6 165.3 3.5 C 165.9 3.2 168.5 3.1 168.8 2.7 C 168.8 2.7 168.8 2.7 168.8 2.7 Z M 159.6 2.8 C 158.3 3.0 156.5 3.2 156.2 3.5 C 158.0 3.4 158.1 3.6 158.1 3.8 C 159.8 3.5 158.0 3.3 159.6 2.8 C 159.6 2.8 159.6 2.8 159.6 2.8 Z M 176.5 3.2 C 175.2 3.3 175.5 3.6 175.2 3.8 C 177.1 3.7 177.2 3.9 179.1 3.9 C 179.2 3.8 179.3 3.6 179.4 3.5 C 177.9 3.5 177.6 3.6 176.3 3.6 C 176.4 3.5 176.4 3.4 176.5 3.2 C 176.5 3.2 176.5 3.2 176.5 3.2 Z M 150.3 3.4 C 145.0 3.3 142.3 4.0 138.7 4.5 C 142.6 4.5 146.3 3.6 148.9 3.9 C 152.3 3.8 148.0 3.6 148.1 3.5 C 148.3 3.4 149.5 3.4 150.3 3.4 C 150.3 3.4 150.3 3.4 150.3 3.4 Z M 103.8 3.4 C 102.7 3.1 100.8 3.7 97.7 3.6 C 98.3 3.7 98.8 3.8 98.8 4.0 C 103.1 4.1 100.6 3.4 103.8 3.4 C 103.8 3.4 103.8 3.4 103.8 3.4 Z M 78.7 3.6 C 76.0 3.7 80.1 3.9 78.8 4.1 C 81.7 4.1 84.9 4.2 84.7 3.8 C 81.6 4.0 80.9 4.0 78.7 3.6 C 78.7 3.6 78.7 3.6 78.7 3.6 Z M 60.5 3.6 C 57.7 3.8 62.0 4.1 60.9 4.5 C 62.1 4.5 61.7 4.3 61.7 4.1 C 62.6 4.2 63.4 4.3 64.8 4.3 C 63.7 4.0 60.3 4.1 60.5 3.6 C 60.5 3.6 60.5 3.6 60.5 3.6 Z M 204.3 40.4 C 204.2 38.7 203.7 39.5 203.9 35.8 C 203.8 41.4 202.7 39.2 202.8 46.3 C 203.0 45.1 203.2 45.7 203.0 46.2 C 203.2 48.8 203.2 43.5 203.6 45.8 C 203.6 43.8 203.1 45.3 203.1 43.3 C 203.5 40.9 203.7 39.5 204.3 40.4 C 204.3 40.4 204.3 40.4 204.3 40.4 Z M 202.5 46.6 C 202.3 48.7 203.1 48.1 202.7 49.4 C 202.7 50.4 202.9 50.0 203.0 50.2 C 203.0 49.4 203.0 49.3 203.1 49.1 C 203.0 47.5 202.9 45.9 202.5 46.6 C 202.5 46.6 202.5 46.6 202.5 46.6 Z M 202.5 28.1 C 202.6 31.2 202.4 32.4 202.7 33.8 C 202.1 35.4 203.0 35.8 202.5 37.9 C 202.6 41.0 202.7 38.5 203.0 37.5 C 203.1 40.5 202.6 38.6 202.7 41.6 C 203.2 41.8 203.0 37.9 203.5 38.0 C 203.5 35.6 203.2 35.8 203.1 34.4 C 203.1 33.2 203.3 33.4 203.5 33.1 C 203.4 30.4 203.7 30.4 203.6 28.1 C 203.3 27.8 203.1 28.9 203.2 31.4 C 203.1 28.9 202.8 28.0 203.0 24.8 C 203.4 26.6 203.5 16.6 202.8 18.0 C 202.8 20.8 203.1 19.7 203.2 20.6 C 202.9 24.4 202.9 26.4 202.5 28.1 C 202.5 28.1 202.5 28.1 202.5 28.1 Z M 176.7 4.5 C 175.8 4.5 175.1 4.4 173.7 4.4 C 173.9 4.1 175.6 4.1 174.1 3.9 C 172.0 3.8 171.4 4.0 170.0 4.0 C 170.7 4.2 174.9 4.6 172.4 4.8 C 173.0 5.0 174.4 5.0 176.2 5.1 C 174.5 4.5 179.2 5.0 181.2 5.1 C 181.5 4.5 184.6 5.2 186.4 4.8 C 185.5 4.4 181.1 4.8 179.4 4.8 C 180.3 4.7 175.1 3.9 176.7 4.5 C 176.7 4.5 176.7 4.5 176.7 4.5 Z M 202.7 54.3 C 202.8 54.8 202.9 56.9 203.0 55.1 C 203.1 55.9 202.9 57.9 203.5 56.7 C 203.5 57.7 203.5 58.7 203.5 59.6 C 203.3 59.4 203.4 56.7 203.0 58.0 C 203.2 59.9 203.0 59.2 203.0 61.9 C 202.6 60.7 202.6 62.3 202.1 61.6 C 202.3 62.2 202.3 64.6 202.6 64.2 C 202.5 67.9 202.0 63.5 202.1 68.4 C 201.7 68.5 201.8 65.0 201.9 63.6 C 201.5 63.2 201.8 69.8 201.7 73.5 C 202.0 70.1 202.4 72.4 202.7 73.8 C 202.6 75.0 202.4 74.0 202.2 76.1 C 202.2 77.7 202.4 78.5 202.2 79.1 C 202.2 80.4 202.5 79.6 202.7 79.7 C 202.7 82.0 202.1 80.6 202.2 83.9 C 202.8 81.1 202.9 83.9 202.7 88.5 C 202.9 88.1 202.9 86.7 203.1 86.4 C 203.4 86.9 202.9 89.8 202.7 90.5 C 202.8 92.1 203.0 90.9 203.0 89.4 C 203.1 90.3 203.2 91.2 203.4 92.2 C 203.4 87.3 203.3 79.6 203.9 70.2 C 203.6 72.2 203.5 70.2 203.6 67.4 C 203.8 66.9 203.9 68.0 203.9 69.3 C 204.4 65.8 203.3 66.7 203.6 61.6 C 203.7 58.8 203.9 64.4 204.1 61.2 C 204.0 59.5 203.7 58.5 204.1 57.3 C 204.0 54.2 203.5 53.7 203.5 48.8 C 203.3 51.8 202.4 53.7 202.6 56.4 C 202.7 56.3 202.7 55.0 202.7 54.3 C 202.7 54.3 202.7 54.3 202.7 54.3 Z M 158.0 4.0 C 156.2 4.0 155.2 4.2 154.9 4.0 C 151.9 4.1 155.1 4.5 155.7 4.5 C 157.1 4.4 157.7 4.3 158.0 4.0 C 158.0 4.0 158.0 4.0 158.0 4.0 Z M 4.0 150.8 C 3.9 154.4 4.4 153.9 4.4 156.9 C 4.6 154.6 4.9 154.2 4.8 150.2 C 4.5 149.9 4.2 149.7 4.0 150.8 C 4.0 150.8 4.0 150.8 4.0 150.8 Z M 167.8 4.3 C 170.5 3.8 164.6 4.8 164.8 4.4 C 161.8 4.7 167.3 4.6 164.4 5.1 C 167.0 4.8 168.2 5.2 171.4 4.9 C 171.4 4.6 169.0 4.6 166.6 4.7 C 166.4 4.5 167.7 4.4 167.8 4.3 C 167.8 4.3 167.8 4.3 167.8 4.3 Z M 5.1 113.4 C 4.8 110.7 4.4 115.3 4.2 116.7 C 4.7 117.2 4.6 116.4 5.1 113.4 C 5.1 113.4 5.1 113.4 5.1 113.4 Z M 4.7 176.4 C 5.2 178.1 4.7 172.1 5.2 173.8 C 5.3 172.1 5.1 171.8 5.0 171.6 C 5.1 170.9 5.0 168.1 5.3 169.0 C 5.7 168.7 5.3 173.3 5.7 172.0 C 5.8 173.7 5.6 173.7 5.6 174.9 C 5.6 172.1 5.2 173.2 5.1 176.6 C 5.4 176.8 5.3 175.2 5.6 176.9 C 5.4 177.0 5.1 178.6 4.6 178.3 C 4.6 181.3 5.3 179.9 5.2 183.4 C 5.5 183.3 5.5 181.0 5.6 179.7 C 6.0 180.3 5.3 183.4 5.9 182.8 C 5.5 183.4 5.4 185.4 5.0 185.3 C 4.8 182.5 4.5 180.5 4.3 178.2 C 4.1 180.1 5.0 183.6 4.6 187.0 C 4.9 186.8 4.9 188.9 5.2 188.4 C 5.1 191.2 4.6 189.6 4.6 189.0 C 4.3 189.7 4.5 195.2 4.8 195.0 C 4.5 195.2 4.6 201.9 5.1 201.8 C 4.8 203.7 5.4 207.0 4.8 207.6 C 5.0 208.8 5.0 211.1 5.0 213.5 C 5.4 214.4 5.2 210.0 5.5 209.9 C 5.8 209.2 5.4 214.4 5.7 213.8 C 5.8 213.9 5.9 213.9 6.0 213.9 C 5.9 211.9 5.8 209.9 5.6 207.9 C 5.7 206.5 5.8 208.4 6.0 208.1 C 5.8 206.7 5.3 200.2 6.0 200.3 C 5.8 196.1 5.9 193.2 5.6 191.4 C 5.6 188.9 5.8 192.9 6.1 191.6 C 5.6 184.1 6.2 175.5 5.6 169.1 C 5.7 167.8 5.9 168.5 6.1 168.4 C 5.9 159.9 5.3 166.7 5.5 160.3 C 5.8 160.5 5.8 163.5 6.1 163.6 C 6.1 161.3 5.9 160.6 6.0 157.6 C 5.8 157.5 5.7 157.4 5.5 157.3 C 5.5 154.9 6.0 156.1 6.1 154.9 C 6.0 151.7 5.8 152.3 6.3 151.1 C 6.1 148.0 5.9 145.1 6.1 142.2 C 5.9 140.1 5.2 143.5 5.2 146.6 C 5.1 146.3 5.1 145.5 5.0 145.4 C 5.3 142.0 6.1 141.9 6.1 136.4 C 5.7 140.3 5.9 134.1 6.3 133.6 C 6.2 131.3 5.7 132.7 5.7 134.2 C 5.6 133.8 5.7 132.5 5.9 132.4 C 5.3 131.7 5.0 136.9 5.2 142.6 C 4.5 139.6 5.3 146.6 4.4 143.2 C 4.6 147.8 5.1 144.2 5.0 149.3 C 5.2 148.9 5.3 148.0 5.5 147.7 C 5.6 151.6 5.0 150.1 5.1 154.3 C 5.4 155.1 5.3 152.4 5.6 152.6 C 5.2 156.8 5.1 158.2 4.7 160.9 C 4.9 161.6 5.3 161.0 5.1 165.9 C 5.0 165.9 4.9 165.8 4.8 165.8 C 4.9 163.5 4.2 162.5 4.2 168.4 C 4.5 168.9 4.4 167.1 4.4 165.6 C 4.7 166.4 4.8 168.3 4.8 170.6 C 4.8 171.7 4.6 173.0 4.6 171.4 C 4.2 172.2 4.9 173.4 4.7 176.4 C 4.7 176.4 4.7 176.4 4.7 176.4 Z M 108.8 4.3 C 108.0 4.3 107.2 4.4 105.8 4.4 C 105.1 4.8 107.8 4.7 107.8 4.9 C 109.9 4.9 108.3 4.5 108.8 4.3 C 108.8 4.3 108.8 4.3 108.8 4.3 Z M 136.7 4.5 C 136.6 4.2 135.0 4.7 132.7 4.5 C 131.9 4.9 134.7 4.8 134.6 5.1 C 137.3 5.2 134.1 4.4 136.7 4.5 C 136.7 4.5 136.7 4.5 136.7 4.5 Z M 124.7 4.5 C 123.7 4.2 123.6 4.7 125.8 4.7 C 125.5 4.9 125.0 5.1 123.6 5.2 C 125.0 5.6 126.1 4.9 128.6 5.1 C 127.8 4.8 126.4 4.7 124.7 4.5 C 124.7 4.5 124.7 4.5 124.7 4.5 Z M 120.7 4.5 C 119.2 4.8 118.3 4.4 115.8 4.7 C 116.3 4.9 121.9 4.8 122.8 4.7 C 123.7 4.4 117.7 4.4 120.7 4.5 C 120.7 4.5 120.7 4.5 120.7 4.5 Z M 5.6 75.0 C 5.6 76.0 5.8 75.9 5.9 76.2 C 5.3 78.7 5.4 83.0 4.8 79.2 C 5.2 82.6 4.7 85.2 4.6 87.8 C 4.5 90.0 4.9 89.2 5.0 91.0 C 4.9 93.8 4.8 89.3 4.6 89.7 C 4.3 90.1 5.0 91.5 4.7 94.7 C 5.4 94.2 4.6 97.6 5.3 97.0 C 5.1 98.8 5.3 99.5 5.3 102.0 C 5.6 101.9 5.6 99.5 5.9 99.4 C 6.3 98.5 5.5 97.8 5.6 100.2 C 5.2 98.6 5.8 95.6 5.5 94.3 C 5.9 93.4 5.6 97.5 6.0 96.6 C 5.9 95.7 5.9 94.8 5.7 94.5 C 5.8 93.1 5.9 92.3 6.1 91.9 C 6.1 92.7 6.1 92.8 6.0 92.7 C 6.0 94.5 6.6 91.4 6.6 95.2 C 6.8 94.6 6.8 93.0 7.0 93.5 C 7.3 92.5 5.9 92.7 6.4 89.1 C 6.0 86.3 6.0 94.9 5.2 92.1 C 5.3 86.8 5.9 90.3 6.0 86.0 C 5.8 85.9 5.6 85.8 5.6 84.7 C 5.5 84.7 5.5 86.4 5.5 87.5 C 5.3 87.2 5.4 85.6 5.3 84.5 C 5.2 84.6 5.2 85.4 5.1 85.3 C 5.2 81.7 6.1 82.7 6.3 86.2 C 6.6 86.4 6.6 81.8 6.4 80.4 C 6.1 81.4 6.1 80.1 5.7 80.9 C 5.7 81.8 5.9 81.8 6.0 82.1 C 5.9 83.7 5.8 82.0 5.6 81.8 C 5.7 79.9 6.0 80.2 5.7 78.0 C 5.8 78.6 5.9 79.1 6.1 79.3 C 6.1 78.3 6.1 77.3 6.1 76.4 C 5.9 76.3 5.9 75.0 5.6 75.0 C 5.6 75.0 5.6 75.0 5.6 75.0 Z M 4.6 124.8 C 4.5 127.9 4.8 126.4 4.8 124.9 C 4.9 125.7 5.0 126.9 5.1 128.0 C 5.2 127.2 5.1 126.3 5.2 123.3 C 5.7 126.3 6.5 124.0 6.4 119.1 C 5.6 117.2 5.5 121.2 5.1 119.3 C 5.3 123.0 5.1 124.7 4.6 124.8 C 4.6 124.8 4.6 124.8 4.6 124.8 Z M 155.6 4.7 C 153.6 4.7 151.6 4.7 149.7 4.7 C 149.7 5.0 155.7 5.3 155.6 4.7 C 155.6 4.7 155.6 4.7 155.6 4.7 Z M 202.8 96.3 C 202.9 97.1 202.8 97.2 202.7 97.4 C 202.8 100.2 203.0 95.9 203.4 97.1 C 203.4 96.0 203.4 95.1 203.4 94.1 C 203.2 94.0 203.0 98.3 202.8 95.3 C 202.7 95.6 202.8 96.3 202.8 96.3 C 202.8 96.3 202.8 96.3 202.8 96.3 Z M 110.8 4.8 C 108.9 4.9 110.1 5.5 105.7 5.3 C 107.3 5.6 108.2 5.5 110.7 5.4 C 110.8 5.2 110.8 5.0 110.8 4.8 C 110.8 4.8 110.8 4.8 110.8 4.8 Z M 5.0 59.9 C 4.6 62.0 5.5 63.4 5.2 67.9 C 5.7 65.9 5.1 62.8 5.0 59.9 C 5.0 59.9 5.0 59.9 5.0 59.9 Z M 5.6 221.5 C 5.7 220.2 5.8 222.0 6.0 219.7 C 5.9 218.3 5.6 217.7 5.6 215.7 C 5.2 218.3 5.6 223.3 5.0 225.1 C 5.0 227.5 5.5 227.5 5.7 228.3 C 5.7 227.2 5.8 226.6 5.9 226.5 C 5.3 224.8 6.2 223.5 5.6 221.5 C 5.6 221.5 5.6 221.5 5.6 221.5 Z M 5.2 112.6 C 5.4 110.9 5.6 114.1 5.9 114.9 C 5.8 116.2 5.5 115.5 5.3 115.6 C 5.4 117.3 5.6 117.9 5.9 117.8 C 6.0 114.7 6.0 110.7 6.5 113.5 C 6.6 110.4 6.1 111.8 6.0 110.2 C 6.3 108.7 6.4 110.3 6.8 110.7 C 6.7 109.9 6.2 107.2 6.8 107.8 C 6.2 102.8 5.6 104.4 5.0 107.5 C 5.4 110.9 5.5 107.4 5.2 112.6 C 5.2 112.6 5.2 112.6 5.2 112.6 Z M 21.9 5.6 C 21.5 5.4 19.8 5.5 19.6 5.3 C 17.8 5.7 16.4 6.1 14.8 6.5 C 15.5 6.8 17.9 6.5 16.5 6.2 C 17.6 6.5 19.6 6.6 21.0 6.9 C 23.0 6.9 23.0 6.1 23.8 6.7 C 25.5 6.5 24.4 6.5 27.6 6.6 C 22.3 6.2 29.2 6.4 29.1 6.0 C 26.2 5.9 23.7 5.9 24.4 6.4 C 22.2 6.2 19.8 6.1 19.0 5.7 C 19.1 5.6 20.7 5.6 21.9 5.6 C 21.9 5.6 21.9 5.6 21.9 5.6 Z M 11.2 6.7 C 11.9 6.7 12.6 6.6 13.9 6.6 C 13.0 6.5 12.6 6.3 12.5 6.1 C 10.0 6.1 9.6 6.4 8.4 6.0 C 6.2 5.9 9.2 6.5 6.4 6.4 C 6.4 6.5 6.4 6.7 6.4 6.9 C 6.4 6.9 6.5 6.7 6.5 6.4 C 7.1 6.5 8.0 6.5 8.1 6.6 C 8.1 6.3 9.5 6.3 11.2 6.7 C 11.2 6.7 11.2 6.7 11.2 6.7 Z M 6.0 31.7 C 6.0 34.2 6.2 30.5 6.5 32.1 C 6.5 31.4 6.6 26.7 6.9 27.7 C 7.4 26.8 6.4 20.9 7.0 22.0 C 7.0 20.8 6.8 21.0 6.6 20.7 C 6.8 24.2 6.4 23.9 6.4 21.3 C 6.2 21.6 6.3 23.7 6.3 25.1 C 6.5 25.5 6.5 24.2 6.8 24.6 C 6.6 27.4 6.2 29.2 6.0 31.7 C 6.0 31.7 6.0 31.7 6.0 31.7 Z M 202.1 202.8 C 202.1 200.5 202.0 199.1 201.9 197.9 C 201.7 198.6 201.9 199.7 201.9 200.9 C 201.7 201.1 201.7 200.1 201.7 198.9 C 201.3 199.9 201.7 204.1 202.1 202.8 C 202.1 202.8 202.1 202.8 202.1 202.8 Z M 202.1 183.3 C 202.1 181.2 202.0 179.7 201.8 179.4 C 201.6 180.3 201.9 180.0 201.9 181.4 C 201.8 182.3 201.7 182.8 201.5 183.3 C 201.5 184.3 201.7 184.1 201.8 184.4 C 201.8 185.1 201.7 185.2 201.7 185.3 C 202.0 188.0 201.6 182.2 202.1 183.3 C 202.1 183.3 202.1 183.3 202.1 183.3 Z M 6.3 15.5 C 6.4 14.8 6.7 14.4 6.6 12.0 C 6.4 12.2 6.4 10.3 6.4 8.8 C 6.1 10.8 6.2 12.0 6.3 15.5 C 6.3 15.5 6.3 15.5 6.3 15.5 Z M 201.8 61.7 C 202.2 58.6 201.5 59.3 201.8 54.9 C 201.7 55.0 201.5 55.1 201.4 55.2 C 201.7 57.5 201.5 58.8 201.8 61.7 C 201.8 61.7 201.8 61.7 201.8 61.7 Z M 81.9 343.4 C 82.1 343.1 79.1 343.3 78.8 343.0 C 78.5 343.6 76.6 342.6 71.0 342.7 C 70.8 342.6 71.2 342.5 71.9 342.5 C 67.3 342.4 73.4 342.9 74.1 343.3 C 77.6 343.2 78.3 343.5 81.9 343.4 C 81.9 343.4 81.9 343.4 81.9 343.4 Z M 6.8 192.9 C 6.7 192.7 6.7 193.3 6.6 193.8 C 6.6 194.5 6.6 195.1 6.6 195.7 C 7.2 195.7 7.4 192.6 7.9 195.3 C 8.0 194.5 7.9 194.4 7.8 194.3 C 6.7 189.1 8.6 186.3 7.8 179.9 C 7.8 178.9 7.7 179.0 7.6 178.8 C 7.6 179.6 7.5 179.6 7.4 179.7 C 8.0 180.7 7.4 185.9 7.2 183.4 C 7.0 183.5 7.1 184.3 7.2 184.3 C 7.2 185.0 7.2 185.7 7.2 186.3 C 7.3 186.0 7.4 184.7 7.6 184.5 C 7.4 187.6 7.3 191.3 6.8 189.1 C 6.8 191.0 7.0 191.7 7.2 193.1 C 7.1 194.3 6.8 194.2 6.8 192.9 C 6.8 192.9 6.8 192.9 6.8 192.9 Z M 6.9 218.1 C 6.8 221.0 7.3 220.1 7.2 223.0 C 7.5 221.3 7.0 218.7 7.3 216.3 C 7.1 216.6 7.1 217.9 6.9 218.1 C 6.9 218.1 6.9 218.1 6.9 218.1 Z M 7.4 162.4 C 7.9 163.2 7.9 160.6 7.9 157.7 C 7.5 156.9 7.4 159.4 7.4 162.4 C 7.4 162.4 7.4 162.4 7.4 162.4 Z M 7.4 174.9 C 7.6 177.8 7.5 171.3 7.9 173.2 C 7.9 171.8 7.9 170.4 8.1 170.4 C 8.0 169.3 7.8 169.2 7.8 167.4 C 7.6 167.3 7.7 170.5 7.4 170.1 C 7.7 172.4 7.7 172.7 7.4 174.9 C 7.4 174.9 7.4 174.9 7.4 174.9 Z M 7.4 176.8 C 7.6 178.7 8.2 176.7 8.2 174.3 C 7.9 175.0 7.6 175.4 7.4 176.8 C 7.4 176.8 7.4 176.8 7.4 176.8 Z M 64.1 7.5 C 62.8 7.6 64.0 7.9 62.4 7.9 C 62.5 8.1 68.2 8.1 63.4 8.2 C 65.4 8.6 66.0 8.0 68.2 8.1 C 67.5 7.9 66.9 7.8 68.1 7.8 C 68.7 7.4 63.6 7.9 64.1 7.5 C 64.1 7.5 64.1 7.5 64.1 7.5 Z M 58.3 7.5 C 57.2 7.5 57.8 7.7 58.4 7.7 C 58.3 7.8 56.7 7.8 55.5 7.8 C 55.4 7.6 57.9 8.4 58.0 8.7 C 62.7 8.4 58.7 8.0 58.3 7.5 C 58.3 7.5 58.3 7.5 58.3 7.5 Z M 53.7 7.8 C 50.3 7.4 45.9 7.5 44.0 7.9 C 46.6 8.5 52.4 8.3 53.7 7.8 C 53.7 7.8 53.7 7.8 53.7 7.8 Z M 85.5 7.9 C 79.6 7.4 68.4 8.1 78.9 8.4 C 78.4 8.2 85.1 8.0 88.4 8.2 C 88.5 8.0 92.1 7.7 92.3 7.9 C 94.8 7.6 84.1 7.6 85.5 7.9 C 85.5 7.9 85.5 7.9 85.5 7.9 Z M 40.7 8.7 C 42.2 8.5 39.6 7.8 42.3 8.1 C 43.6 8.0 41.8 7.9 42.0 7.7 C 39.0 7.7 33.2 8.1 32.3 7.7 C 30.9 7.8 30.6 8.1 27.8 8.1 C 27.9 8.2 37.8 7.7 40.5 8.4 C 40.5 8.6 36.8 8.7 40.7 8.7 C 40.7 8.7 40.7 8.7 40.7 8.7 Z M 199.5 63.3 C 199.8 63.4 199.6 59.5 200.0 60.1 C 199.5 58.2 199.8 56.0 199.5 53.8 C 199.6 52.9 200.2 52.8 200.2 49.4 C 199.9 49.5 200.0 51.1 199.7 49.7 C 199.7 46.7 200.1 47.2 200.0 43.7 C 199.3 44.8 199.9 36.3 199.2 37.6 C 199.2 39.5 199.6 39.1 199.5 42.3 C 199.4 43.3 199.2 43.0 199.2 44.3 C 198.8 43.7 199.4 41.7 199.1 40.6 C 198.8 41.1 198.8 43.4 198.6 43.9 C 198.6 45.3 198.7 43.4 198.9 43.6 C 199.0 47.3 198.0 44.1 198.2 48.0 C 198.5 46.9 198.6 46.9 198.9 47.4 C 198.8 49.2 199.0 53.9 198.6 51.6 C 198.3 52.0 198.7 54.7 198.9 54.2 C 199.0 55.7 198.8 56.0 198.7 56.2 C 198.8 60.2 199.2 60.5 199.6 59.4 C 200.0 60.0 199.3 61.0 199.5 63.3 C 199.5 63.3 199.5 63.3 199.5 63.3 Z M 116.3 8.0 C 118.6 7.8 113.8 8.2 111.5 8.0 C 114.2 8.1 113.3 8.7 116.2 8.7 C 115.2 8.5 115.4 8.4 117.3 8.4 C 117.8 8.2 113.6 8.1 116.3 8.0 C 116.3 8.0 116.3 8.0 116.3 8.0 Z M 22.0 8.0 C 20.7 7.8 15.9 8.0 13.2 7.9 C 14.3 8.5 19.8 7.7 21.3 8.3 C 22.7 8.3 20.2 8.1 22.0 8.0 C 22.0 8.0 22.0 8.0 22.0 8.0 Z M 200.0 26.4 C 200.0 25.4 199.9 26.0 199.9 26.5 C 199.7 26.4 199.7 24.2 199.7 22.8 C 199.4 25.2 199.3 22.6 198.9 23.5 C 199.0 22.3 198.9 21.8 198.8 21.7 C 199.5 21.0 198.4 16.1 198.3 22.2 C 198.7 20.7 198.7 21.2 198.8 23.6 C 198.5 26.6 198.9 28.4 198.4 29.7 C 198.5 31.4 198.7 31.9 198.7 34.2 C 198.4 35.1 198.2 37.3 197.6 36.0 C 197.6 40.2 198.6 36.6 198.7 40.0 C 198.4 43.5 198.2 38.7 197.9 39.7 C 197.9 40.6 197.7 40.5 197.6 40.9 C 197.7 42.0 198.0 41.7 198.0 40.5 C 198.2 40.8 198.5 43.9 198.0 43.3 C 198.2 45.1 199.2 39.4 198.8 37.0 C 198.8 35.5 199.5 34.8 199.5 36.5 C 199.8 35.6 198.9 33.2 199.7 33.4 C 199.7 32.0 199.7 30.8 199.7 29.5 C 199.6 29.8 199.6 30.6 199.5 30.7 C 199.5 29.5 199.5 28.2 199.5 26.8 C 199.7 27.8 199.8 27.7 200.0 26.4 C 200.0 26.4 200.0 26.4 200.0 26.4 Z M 34.6 8.2 C 32.2 8.2 31.8 8.4 30.0 8.4 C 30.9 8.7 36.0 8.6 34.6 8.2 C 34.6 8.2 34.6 8.2 34.6 8.2 Z M 198.3 80.3 C 198.4 80.0 198.4 78.3 198.6 78.2 C 198.7 81.1 198.9 77.7 199.6 79.6 C 199.2 76.0 198.3 75.2 198.0 80.5 C 198.1 84.2 198.2 76.6 198.3 80.3 C 198.3 80.3 198.3 80.3 198.3 80.3 Z M 198.6 68.7 C 198.4 66.5 198.2 72.4 198.0 73.8 C 197.9 73.9 197.8 74.0 197.6 74.1 C 198.2 76.9 198.4 72.5 199.2 75.0 C 199.4 71.1 199.5 69.4 199.3 66.3 C 199.2 66.6 199.3 67.3 199.3 67.2 C 199.3 69.7 198.7 68.4 198.9 65.6 C 198.7 66.5 198.7 68.8 198.7 70.5 C 198.8 70.0 198.9 69.4 199.1 69.4 C 199.1 71.4 198.8 70.8 198.8 72.3 C 198.6 72.4 198.3 68.9 198.6 68.7 C 198.6 68.7 198.6 68.7 198.6 68.7 Z M 199.2 257.0 C 199.1 255.0 198.6 258.7 198.0 258.2 C 198.0 260.2 198.1 260.8 198.2 262.1 C 198.4 261.6 198.5 259.4 198.7 258.6 C 199.2 259.2 198.6 261.5 198.9 262.5 C 199.5 264.0 198.7 257.6 199.2 257.0 C 199.2 257.0 199.2 257.0 199.2 257.0 Z M 172.5 8.8 C 171.5 8.8 172.0 9.0 172.4 9.0 C 172.1 9.1 170.5 9.1 170.6 9.0 C 169.0 9.0 171.2 9.2 169.5 9.2 C 168.9 9.5 172.2 9.2 172.3 9.1 C 174.5 9.1 172.5 9.6 172.9 9.7 C 174.7 9.7 174.3 9.4 176.9 9.5 C 175.5 9.3 174.2 9.0 172.5 8.8 C 172.5 8.8 172.5 8.8 172.5 8.8 Z M 199.1 86.5 C 199.2 86.8 198.5 84.6 198.8 81.9 C 198.8 78.6 198.4 84.2 198.4 81.2 C 198.3 83.8 198.6 86.7 198.7 90.6 C 198.9 91.4 198.8 85.1 198.9 88.6 C 199.1 88.3 199.0 87.5 198.9 87.5 C 198.9 86.8 199.0 86.7 199.1 86.5 C 199.1 86.5 199.1 86.5 199.1 86.5 Z M 198.2 83.2 C 198.0 83.5 198.1 84.3 198.2 84.2 C 198.1 85.4 197.8 85.6 197.8 84.4 C 197.3 86.3 198.1 85.7 197.9 89.1 C 198.2 87.5 198.5 86.8 198.2 89.9 C 198.5 92.1 198.4 84.2 198.2 83.2 C 198.2 83.2 198.2 83.2 198.2 83.2 Z M 198.9 226.2 C 198.8 226.5 198.8 228.5 198.8 230.0 C 198.5 228.1 198.7 220.4 198.9 219.5 C 198.9 218.7 198.8 217.8 198.9 217.6 C 198.8 217.6 198.6 215.5 198.6 216.5 C 198.4 216.3 198.5 214.7 198.3 214.6 C 198.4 211.8 198.6 215.5 198.8 214.7 C 198.4 211.2 198.7 212.0 198.8 208.0 C 198.4 208.6 198.6 213.1 198.0 212.6 C 198.5 215.9 198.2 219.2 197.8 221.1 C 198.4 218.3 198.7 229.5 198.5 234.7 C 198.3 234.4 198.4 236.3 198.1 238.3 C 197.8 239.7 198.6 239.6 198.4 236.6 C 198.7 236.8 198.5 240.6 198.5 242.3 C 198.8 240.4 198.9 241.6 199.1 240.7 C 199.1 236.9 199.0 240.2 198.7 239.5 C 198.7 238.5 198.7 237.6 198.7 236.6 C 199.3 241.9 198.8 229.4 198.8 233.8 C 198.8 229.9 199.2 230.0 198.9 226.2 C 198.9 226.2 198.9 226.2 198.9 226.2 Z M 199.1 136.3 C 199.0 135.7 198.7 132.7 199.1 132.5 C 198.8 128.7 198.4 132.2 198.4 127.9 C 198.3 128.2 198.3 129.8 198.2 129.9 C 198.3 131.5 198.4 133.2 198.8 132.6 C 198.8 134.6 198.9 135.1 198.9 136.4 C 198.8 136.0 198.7 135.2 198.7 133.6 C 198.3 133.4 198.1 134.1 198.2 136.6 C 198.5 137.6 198.8 136.8 199.1 136.3 C 199.1 136.3 199.1 136.3 199.1 136.3 Z M 198.6 126.9 C 198.7 126.4 198.8 125.8 198.9 125.8 C 199.4 124.3 198.4 125.4 198.4 124.0 C 198.4 122.9 198.7 123.2 198.8 123.0 C 198.7 121.3 198.7 120.1 198.8 119.2 C 198.6 116.6 198.5 122.3 198.3 123.2 C 198.3 125.0 198.6 124.3 198.6 126.9 C 198.6 126.9 198.6 126.9 198.6 126.9 Z M 198.9 98.1 C 199.3 97.4 198.7 96.7 198.8 95.3 C 198.4 96.4 198.7 99.1 198.2 97.5 C 198.0 100.3 198.0 100.5 198.2 103.2 C 197.8 105.2 198.5 103.2 198.3 100.3 C 198.5 100.6 198.5 101.9 198.7 102.0 C 197.9 104.2 199.1 108.5 198.6 105.9 C 198.6 105.0 198.8 104.4 198.9 103.8 C 198.6 103.3 198.8 96.7 198.9 98.1 C 198.9 98.1 198.9 98.1 198.9 98.1 Z M 191.9 9.6 C 195.4 9.5 195.7 9.5 198.6 9.6 C 198.6 9.9 198.6 10.2 198.6 10.5 C 198.4 10.8 198.3 10.6 198.3 9.9 C 198.1 10.9 198.2 12.0 198.3 13.6 C 198.4 13.3 198.4 12.6 198.3 12.7 C 198.6 9.3 198.6 11.9 198.9 12.0 C 199.0 11.0 199.0 10.0 199.0 9.1 C 196.5 9.2 194.2 9.5 193.3 9.1 C 191.8 9.2 193.4 9.3 191.9 9.6 C 191.9 9.6 191.9 9.6 191.9 9.6 Z M 84.5 340.1 C 84.0 340.3 82.4 340.3 82.7 340.5 C 84.1 340.5 85.1 340.3 86.5 340.3 C 83.7 340.2 83.9 339.6 80.4 339.6 C 81.6 339.8 81.5 340.2 84.5 340.1 C 84.5 340.1 84.5 340.1 84.5 340.1 Z M 198.8 107.7 C 198.6 107.9 198.4 108.1 198.4 106.9 C 198.1 106.7 198.3 109.7 198.0 109.9 C 198.1 110.9 198.3 110.4 198.3 111.7 C 198.5 111.2 198.4 108.7 198.8 109.6 C 198.8 110.4 198.8 110.5 198.7 110.7 C 198.9 112.5 199.0 109.5 198.8 107.7 C 198.8 107.7 198.8 107.7 198.8 107.7 Z M 198.8 266.3 C 198.8 264.9 198.6 266.1 198.6 267.1 C 198.1 264.1 197.9 268.5 197.5 268.4 C 197.8 267.4 197.6 263.5 197.8 262.9 C 197.7 261.8 197.3 262.9 197.3 259.8 C 196.9 260.0 197.2 263.5 197.5 262.8 C 197.0 263.3 197.6 266.9 197.1 266.3 C 197.0 270.5 197.3 271.7 197.8 272.4 C 197.6 268.1 198.3 270.6 198.2 266.9 C 198.3 267.0 198.3 268.1 198.3 268.9 C 198.6 268.7 198.6 267.2 198.8 266.3 C 198.8 266.3 198.8 266.3 198.8 266.3 Z M 198.8 167.0 C 198.8 164.8 198.5 164.9 198.2 165.0 C 198.3 165.9 198.3 167.2 198.3 168.8 C 198.5 168.5 198.4 165.9 198.8 167.0 C 198.8 167.0 198.8 167.0 198.8 167.0 Z M 198.3 250.7 C 198.4 250.6 198.4 249.9 198.3 249.8 C 198.3 247.4 198.5 246.9 198.7 246.2 C 198.6 244.9 198.4 245.2 198.2 245.0 C 198.5 247.4 198.0 246.7 198.0 249.7 C 198.2 249.6 198.3 250.0 198.3 250.7 C 198.3 250.7 198.3 250.7 198.3 250.7 Z M 198.6 187.0 C 198.5 185.9 198.4 186.4 198.4 187.0 C 198.0 185.6 198.4 181.8 198.2 180.3 C 197.8 180.1 197.9 184.9 197.8 179.3 C 197.5 180.3 197.7 185.3 197.6 187.8 C 197.3 187.2 197.3 183.8 196.9 184.0 C 197.1 187.0 197.3 190.2 197.9 190.7 C 197.9 186.5 198.3 188.0 198.6 187.0 C 198.6 187.0 198.6 187.0 198.6 187.0 Z M 198.3 191.7 C 198.5 191.3 198.2 190.5 198.3 188.9 C 197.8 191.2 198.0 192.6 197.9 197.4 C 198.0 197.4 198.1 197.4 198.2 197.4 C 198.2 198.4 198.2 199.4 198.2 200.3 C 198.6 196.2 198.3 195.1 198.2 190.7 C 198.3 190.6 198.3 191.1 198.3 191.7 C 198.3 191.7 198.3 191.7 198.3 191.7 Z M 198.3 64.1 C 198.1 65.5 197.8 66.8 197.8 69.2 C 198.1 68.7 198.3 67.2 198.3 64.1 C 198.3 64.1 198.3 64.1 198.3 64.1 Z M 198.0 254.4 C 198.3 257.1 198.0 251.9 197.6 253.3 C 197.5 255.3 197.4 257.4 197.0 257.7 C 197.5 261.8 197.5 253.7 198.0 254.4 C 198.0 254.4 198.0 254.4 198.0 254.4 Z M 197.1 237.0 C 197.2 235.9 197.7 236.2 197.4 237.1 C 197.4 239.8 197.7 234.9 197.6 239.1 C 197.8 237.4 198.0 233.5 197.8 231.5 C 197.4 231.5 197.6 235.2 197.2 235.1 C 197.1 235.3 197.1 234.7 197.1 234.2 C 196.9 234.5 197.2 235.4 197.1 237.0 C 197.1 237.0 197.1 237.0 197.1 237.0 Z M 197.8 223.0 C 197.6 224.5 197.4 226.3 197.4 229.6 C 197.6 227.5 198.0 226.4 197.8 223.0 C 197.8 223.0 197.8 223.0 197.8 223.0 Z M 134.3 338.8 C 136.6 338.8 134.2 338.4 133.9 338.3 C 131.6 338.3 131.9 338.6 129.2 338.5 C 130.3 338.9 132.5 338.4 134.3 338.8 C 134.3 338.8 134.3 338.8 134.3 338.8 Z M 125.6 338.6 C 125.1 338.3 121.9 338.5 121.6 338.2 C 120.1 339.0 116.4 337.7 116.8 338.3 C 116.1 338.3 115.3 338.2 113.9 338.2 C 117.0 338.9 122.7 338.6 125.6 338.6 C 125.6 338.6 125.6 338.6 125.6 338.6 Z M 197.0 206.7 C 197.1 204.2 196.4 207.3 196.5 204.7 C 196.3 204.5 196.2 209.4 196.1 206.5 C 195.8 210.3 196.9 206.4 197.0 206.7 C 197.0 206.7 197.0 206.7 197.0 206.7 Z M 196.6 160.5 C 196.9 160.6 196.7 157.1 196.7 155.7 C 196.6 155.8 196.6 156.9 196.6 157.6 C 196.5 157.2 196.4 156.8 196.3 155.8 C 196.0 156.6 196.6 159.1 196.6 160.5 C 196.6 160.5 196.6 160.5 196.6 160.5 Z M 203.8 213.0 C 203.4 214.5 203.1 216.5 203.6 217.8 C 203.3 219.5 203.2 216.6 203.0 218.6 C 203.2 221.4 202.8 220.0 203.0 224.5 C 202.5 223.5 202.5 226.8 202.2 227.3 C 202.1 225.4 202.6 223.3 202.2 222.3 C 202.2 223.8 201.8 222.9 202.1 222.3 C 202.3 219.4 202.6 226.0 202.8 222.5 C 202.3 221.3 203.2 216.3 203.2 212.9 C 203.5 214.3 203.7 210.4 203.8 213.0 C 203.8 213.0 203.8 213.0 203.8 213.0 Z M 203.0 230.4 C 203.0 232.8 202.2 233.7 202.2 233.1 C 202.4 233.1 202.4 230.4 202.2 230.1 C 202.2 230.8 202.2 231.3 202.1 231.1 C 202.1 226.8 202.5 228.4 202.7 227.4 C 202.9 229.9 202.6 230.4 202.8 231.4 C 202.8 230.8 202.9 230.2 203.0 230.4 C 203.0 230.4 203.0 230.4 203.0 230.4 Z M 196.5 278.2 C 196.7 277.9 196.4 277.2 196.3 276.2 C 196.9 276.4 196.1 271.1 196.5 270.7 C 196.7 271.9 196.7 274.4 196.9 275.6 C 196.9 274.3 197.0 274.1 196.9 272.7 C 197.2 273.2 197.2 276.0 197.5 276.9 C 197.3 277.0 197.6 278.5 197.4 278.8 C 197.2 274.9 196.5 280.3 196.5 278.2 C 196.5 278.2 196.5 278.2 196.5 278.2 Z M 196.5 185.0 C 196.1 184.6 195.1 188.5 194.6 184.9 C 195.0 184.1 195.3 183.6 195.8 183.9 C 195.6 181.6 195.9 180.6 195.6 179.3 C 196.7 175.0 195.4 182.5 196.5 185.0 C 196.5 185.0 196.5 185.0 196.5 185.0 Z M 196.1 169.8 C 196.4 170.7 196.4 168.5 196.7 168.9 C 196.5 170.7 196.8 176.6 196.6 174.6 C 196.5 172.7 196.1 172.7 196.1 169.8 C 196.1 169.8 196.1 169.8 196.1 169.8 Z M 8.6 51.4 C 8.3 48.1 9.0 47.1 9.2 49.1 C 8.8 47.9 9.1 52.9 8.6 51.4 C 8.6 51.4 8.6 51.4 8.6 51.4 Z M 75.3 2.3 C 72.2 2.1 70.6 2.3 70.1 1.9 C 72.9 1.8 72.7 2.1 75.2 2.1 C 75.3 1.9 76.8 1.7 77.1 1.9 C 75.8 2.0 76.1 2.2 75.3 2.3 C 75.3 2.3 75.3 2.3 75.3 2.3 Z M 205.3 109.0 C 205.5 108.7 205.6 107.5 205.8 107.9 C 205.7 111.0 206.0 114.2 206.2 116.7 C 206.1 116.7 205.9 116.8 205.7 116.9 C 205.8 112.0 205.5 110.9 205.3 109.0 C 205.3 109.0 205.3 109.0 205.3 109.0 Z M 206.1 102.7 C 205.9 102.3 205.4 104.2 205.4 102.0 C 205.7 102.0 206.2 98.0 206.2 99.7 C 205.9 100.4 205.9 101.4 206.1 102.7 C 206.1 102.7 206.1 102.7 206.1 102.7 Z M 204.0 269.1 C 204.0 271.6 204.4 268.3 204.5 268.5 C 204.5 270.2 204.5 272.6 204.3 273.2 C 204.3 271.5 203.7 269.9 204.0 269.1 C 204.0 269.1 204.0 269.1 204.0 269.1 Z M 203.1 232.4 C 203.0 227.3 203.7 229.8 203.9 224.8 C 204.1 226.9 204.1 231.4 204.4 232.9 C 204.2 232.6 204.1 233.8 203.9 233.6 C 203.9 231.8 204.0 231.6 204.0 229.7 C 203.6 230.3 203.8 230.3 203.4 229.5 C 203.4 230.9 203.4 231.8 203.5 232.5 C 203.3 232.1 203.2 233.9 203.1 232.4 C 203.1 232.4 203.1 232.4 203.1 232.4 Z M 203.0 267.6 C 203.1 269.7 202.5 271.1 202.6 269.4 C 202.8 269.2 202.5 267.7 202.7 267.5 C 202.8 270.4 202.9 265.3 203.2 266.8 C 203.2 268.5 203.4 269.2 203.6 268.9 C 203.6 270.1 203.6 271.8 203.5 271.8 C 203.5 271.0 203.5 269.9 203.4 269.8 C 203.4 270.4 203.3 271.0 203.2 270.7 C 203.2 269.0 203.1 268.2 203.0 267.6 C 203.0 267.6 203.0 267.6 203.0 267.6 Z M 203.0 254.0 C 202.9 256.6 202.6 256.7 202.3 257.5 C 202.5 254.0 203.0 253.7 203.2 251.1 C 203.1 254.0 203.6 257.2 203.4 258.1 C 203.2 256.7 203.2 254.3 203.0 254.0 C 203.0 254.0 203.0 254.0 203.0 254.0 Z M 6.0 301.1 C 6.2 298.8 6.5 297.0 6.6 294.4 C 6.2 293.5 5.5 298.2 5.7 296.2 C 5.7 293.5 6.2 295.4 6.3 293.3 C 5.7 295.3 5.7 284.1 6.3 283.7 C 6.2 285.4 6.4 286.0 6.6 285.7 C 6.6 290.2 6.9 292.0 7.0 295.4 C 6.5 297.8 6.4 305.0 6.9 308.9 C 6.2 311.4 7.0 316.1 6.4 319.5 C 6.6 320.5 6.8 316.6 6.9 319.5 C 6.5 321.4 6.3 319.9 6.1 322.4 C 6.3 322.6 6.6 322.1 6.6 323.4 C 6.4 323.2 6.4 324.8 6.3 325.4 C 6.3 320.1 5.7 325.6 5.6 321.4 C 5.8 319.8 6.3 323.3 6.3 318.6 C 6.1 316.8 6.0 315.2 5.6 315.6 C 5.6 314.3 5.5 313.5 5.5 312.6 C 6.0 314.5 5.3 306.0 5.9 309.8 C 5.9 310.1 5.8 312.8 6.0 314.7 C 6.4 313.0 6.2 310.9 6.0 307.9 C 6.3 306.7 6.4 308.5 6.5 307.0 C 6.2 304.6 5.9 307.8 5.7 305.9 C 5.7 306.7 5.7 307.8 5.6 307.8 C 6.0 303.8 5.6 302.1 5.6 300.1 C 5.9 301.5 5.9 297.7 6.0 301.1 C 6.0 301.1 6.0 301.1 6.0 301.1 Z M 6.5 336.0 C 6.5 337.0 6.5 337.9 6.5 339.0 C 6.1 339.1 6.1 335.4 5.7 337.9 C 5.8 333.7 6.2 338.1 6.5 336.0 C 6.5 336.0 6.5 336.0 6.5 336.0 Z M 7.9 316.8 C 8.4 315.4 7.4 316.1 7.4 314.8 C 7.5 317.1 7.6 319.3 7.2 319.6 C 7.3 316.8 7.3 315.6 7.2 312.8 C 7.7 315.6 7.6 309.8 8.1 309.0 C 8.2 311.2 8.4 312.9 8.3 315.8 C 8.2 315.3 8.0 319.5 7.9 316.8 C 7.9 316.8 7.9 316.8 7.9 316.8 Z M 8.5 324.5 C 8.2 325.1 8.4 329.3 7.9 328.4 C 8.0 325.8 7.9 324.9 7.6 325.4 C 7.5 323.5 7.7 323.3 7.7 321.6 C 8.2 320.6 8.1 323.6 8.3 324.5 C 8.3 324.0 8.4 323.4 8.5 324.5 C 8.5 324.5 8.5 324.5 8.5 324.5 Z M 62.1 338.8 C 63.1 339.3 59.1 339.1 58.4 339.0 C 59.6 339.4 59.0 339.5 56.7 339.6 C 57.5 339.1 54.0 339.3 51.7 338.7 C 51.3 339.1 54.1 339.2 50.8 339.4 C 48.3 339.2 46.1 339.4 42.3 339.5 C 41.4 339.1 43.1 339.0 44.1 338.8 C 41.5 338.9 42.2 338.6 40.2 338.6 C 40.6 338.8 39.1 338.9 38.4 338.7 C 41.7 338.6 33.9 338.2 37.4 338.1 C 37.6 338.2 38.4 338.1 39.2 338.1 C 38.4 338.6 43.0 338.4 44.0 338.7 C 45.7 337.8 50.7 338.1 56.4 338.4 C 56.8 338.7 55.1 338.8 56.5 338.8 C 56.6 338.7 58.5 338.7 59.3 338.6 C 59.2 338.8 60.0 338.9 61.2 339.0 C 61.3 338.9 61.4 338.8 62.1 338.8 C 62.1 338.8 62.1 338.8 62.1 338.8 Z M 10.3 144.7 C 11.0 145.3 10.6 138.9 10.4 137.1 C 11.1 137.8 10.9 148.5 10.3 144.7 C 10.3 144.7 10.3 144.7 10.3 144.7 Z M 10.8 182.2 C 10.8 180.7 10.4 181.6 10.4 180.2 C 10.8 180.3 10.0 176.3 10.4 176.4 C 10.8 178.3 10.8 179.4 10.8 182.2 C 10.8 182.2 10.8 182.2 10.8 182.2 Z M 10.7 216.6 C 10.6 213.8 10.5 218.1 10.3 217.4 C 10.3 215.0 10.3 212.5 10.7 212.8 C 10.5 214.9 11.0 216.5 10.7 216.6 C 10.7 216.6 10.7 216.6 10.7 216.6 Z M 11.2 165.3 C 11.3 163.1 11.9 167.2 11.6 167.4 C 11.5 164.8 11.2 168.9 11.3 171.1 C 10.8 170.7 11.0 169.8 10.5 170.6 C 10.3 167.2 11.0 170.3 10.9 168.0 C 10.7 166.2 10.8 168.0 10.4 167.7 C 10.4 166.8 10.4 165.8 10.4 164.9 C 10.6 165.0 10.9 165.1 11.1 165.2 C 11.1 166.4 11.1 167.5 11.3 167.2 C 11.3 166.3 11.2 166.1 11.2 165.3 C 11.2 165.3 11.2 165.3 11.2 165.3 Z M 12.8 338.1 C 11.3 338.1 12.6 338.3 13.7 338.3 C 14.0 338.1 14.9 337.4 16.6 337.8 C 12.9 338.1 17.7 338.4 15.7 338.6 C 14.8 338.2 12.6 338.7 10.9 338.6 C 10.1 338.3 12.0 337.7 12.8 338.1 C 12.8 338.1 12.8 338.1 12.8 338.1 Z M 19.4 338.3 C 19.2 338.2 18.6 338.2 17.5 338.2 C 18.7 337.9 17.0 337.8 18.5 337.7 C 18.3 337.9 23.3 337.9 20.3 338.1 C 17.8 337.8 21.1 338.3 22.3 338.3 C 21.0 338.3 18.7 338.8 18.4 338.5 C 19.1 338.4 19.6 338.4 19.4 338.3 C 19.4 338.3 19.4 338.3 19.4 338.3 Z M 80.7 337.8 C 80.9 337.5 79.3 337.5 78.7 337.4 C 83.5 337.5 87.6 337.5 90.0 337.5 C 87.8 337.6 88.0 337.9 89.3 338.1 C 86.9 337.9 86.4 338.1 85.5 337.9 C 87.4 337.6 83.6 337.8 80.7 337.8 C 80.7 337.8 80.7 337.8 80.7 337.8 Z M 80.7 337.8 " fill="#FF456F"></path></g></svg>