<?xml version="1.0" encoding="UTF-8" standalone="no"?><svg xmlns="http://www.w3.org/2000/svg" xmlns:xlink="http://www.w3.org/1999/xlink" clip-rule="evenodd" stroke-miterlimit="10" viewBox="0 0 1024 768"><desc>SVG generated by Keynote</desc><defs></defs><g transform="matrix(1.00, 0.00, -0.00, -1.00, 0.0, 768.0)"><path d="M 0.0 768.0 L 1024.0 768.0 L 1024.0 0.0 L 0.0 0.0 Z M 0.0 768.0 " fill="#000000"></path><g opacity="0.55"><g><clipPath id="clip0x600001ca40e0"><path d="M 0.0 0.0 L 1024.0 0.0 L 1024.0 768.0 L 0.0 768.0 Z M 0.0 0.0 "></path></clipPath><g clip-path="url(#clip0x600001ca40e0)"><image xlink:href="../../37C02888-B3FD-41C4-B412-4DD037FD7C68/assets/105A5AE7FDD92854AF99243FCDA6B6DA.png" width="1025.00" height="767.00" transform="matrix(1.00, 0.00, -0.00, -1.00, -1.6, 768.0)"></image></g></g></g><text xml:space="preserve" font-family="ProximaNova-Semibold,Proxima Nova" font-weight="bold" font-size="40.0" fill="#FEFFFF" transform="matrix(1.00, 0.00, -0.00, -1.00, 155.3, 65.5)">F</text><text xml:space="preserve" font-family="ProximaNova-Semibold,Proxima Nova" font-weight="bold" font-size="40.0" fill="#FEFFFF" transform="matrix(1.00, 0.00, -0.00, -1.00, 177.8, 65.5)">i</text><text xml:space="preserve" font-family="ProximaNova-Semibold,Proxima Nova" font-weight="bold" font-size="40.0" fill="#FEFFFF" transform="matrix(1.00, 0.00, -0.00, -1.00, 187.4, 65.5)">e</text><text xml:space="preserve" font-family="ProximaNova-Semibold,Proxima Nova" font-weight="bold" font-size="40.0" fill="#FEFFFF" transform="matrix(1.00, 0.00, -0.00, -1.00, 209.7, 65.5)">l</text><text xml:space="preserve" font-family="ProximaNova-Semibold,Proxima Nova" font-weight="bold" font-size="40.0" fill="#FEFFFF" transform="matrix(1.00, 0.00, -0.00, -1.00, 219.4, 65.5)">d</text><text xml:space="preserve" font-family="ProximaNova-Semibold,Proxima Nova" font-weight="bold" font-size="40.0" fill="#FEFFFF" transform="matrix(1.00, 0.00, -0.00, -1.00, 242.6, 65.5)"> </text><text xml:space="preserve" font-family="ProximaNova-Semibold,Proxima Nova" font-weight="bold" font-size="40.0" fill="#FEFFFF" transform="matrix(1.00, 0.00, -0.00, -1.00, 252.9, 65.5)">T</text><text xml:space="preserve" font-family="ProximaNova-Semibold,Proxima Nova" font-weight="bold" font-size="40.0" fill="#FEFFFF" transform="matrix(1.00, 0.00, -0.00, -1.00, 274.4, 65.5)">y</text><text xml:space="preserve" font-family="ProximaNova-Semibold,Proxima Nova" font-weight="bold" font-size="40.0" fill="#FEFFFF" transform="matrix(1.00, 0.00, -0.00, -1.00, 294.5, 65.5)">p</text><text xml:space="preserve" font-family="ProximaNova-Semibold,Proxima Nova" font-weight="bold" font-size="40.0" fill="#FEFFFF" transform="matrix(1.00, 0.00, -0.00, -1.00, 317.7, 65.5)">e</text><text xml:space="preserve" font-family="ProximaNova-Semibold,Proxima Nova" font-weight="bold" font-size="40.0" fill="#FEFFFF" transform="matrix(1.00, 0.00, -0.00, -1.00, 340.0, 65.5)">s</text><path d="M 692.5 48.6 C 692.4 47.9 692.3 47.1 692.4 45.7 C 692.3 46.4 692.1 46.9 692.0 46.9 C 692.1 48.0 692.1 49.6 692.1 51.9 C 692.2 51.7 692.2 50.6 692.2 49.8 C 692.2 48.8 692.4 48.9 692.5 48.6 C 692.5 48.6 692.5 48.6 692.5 48.6 Z M 488.6 29.5 C 488.7 27.5 488.2 29.3 488.2 30.1 C 488.3 30.2 488.4 30.4 488.4 31.1 C 488.0 31.0 487.9 29.2 487.8 27.8 C 488.0 22.5 488.6 27.1 488.6 29.5 C 488.6 29.5 488.6 29.5 488.6 29.5 Z M 488.9 291.8 C 488.8 296.1 489.3 291.5 489.4 290.9 C 489.5 292.9 490.1 291.4 490.2 293.9 C 490.0 294.4 489.8 295.3 489.7 295.8 C 489.6 294.6 489.7 293.0 489.5 292.8 C 489.5 294.3 489.6 296.4 489.4 296.7 C 489.3 293.4 489.0 296.1 488.7 296.6 C 488.8 293.7 488.4 292.7 488.9 291.8 C 488.9 291.8 488.9 291.8 488.9 291.8 Z M 667.5 341.1 C 666.2 341.1 665.1 341.1 665.2 340.9 C 666.6 340.9 667.5 340.9 668.3 341.0 C 668.4 340.8 667.8 340.6 668.9 340.6 C 670.6 340.9 670.3 341.4 669.9 341.6 C 669.5 341.3 665.2 341.5 667.5 341.1 C 667.5 341.1 667.5 341.1 667.5 341.1 Z M 689.9 252.3 C 690.1 248.6 689.3 251.8 689.5 248.1 C 689.8 248.4 690.3 248.0 690.3 250.5 C 690.1 250.6 690.1 252.1 689.9 252.3 C 689.9 252.3 689.9 252.3 689.9 252.3 Z M 491.9 182.6 C 491.6 182.5 491.7 185.2 491.3 184.4 C 491.3 183.0 491.3 181.8 491.3 180.5 C 491.6 180.3 491.8 180.9 491.9 182.6 C 491.9 182.6 491.9 182.6 491.9 182.6 Z M 492.6 321.3 C 492.2 325.7 492.8 330.5 492.5 329.0 C 492.0 330.7 491.3 325.9 491.7 326.1 C 492.2 325.6 492.6 317.8 492.6 321.3 C 492.6 321.3 492.6 321.3 492.6 321.3 Z M 495.4 57.7 C 495.1 62.0 496.2 62.0 495.6 64.5 C 495.6 63.5 495.5 62.9 495.4 62.4 C 495.4 63.2 495.4 64.3 495.2 64.2 C 495.2 62.0 495.0 59.3 495.4 57.7 C 495.4 57.7 495.4 57.7 495.4 57.7 Z M 691.6 116.8 C 691.6 117.6 691.7 118.0 691.8 117.8 C 691.8 121.0 692.1 120.8 691.8 122.8 C 691.3 123.0 691.5 120.4 691.6 117.9 C 691.5 117.8 691.4 117.1 691.6 116.8 C 691.6 116.8 691.6 116.8 691.6 116.8 Z M 690.1 204.1 C 690.5 204.1 690.5 202.3 690.7 205.2 C 690.2 208.4 689.9 205.4 689.6 202.0 C 689.5 202.0 689.3 201.9 689.1 201.9 C 689.1 203.2 689.0 204.1 689.0 204.8 C 689.6 205.5 688.5 207.5 688.8 212.6 C 688.6 210.2 688.1 212.6 688.3 209.6 C 688.0 210.3 688.0 208.1 687.7 208.5 C 687.9 209.8 687.8 213.1 688.3 212.5 C 688.3 214.2 688.3 215.5 688.2 216.4 C 687.8 217.5 688.1 213.2 687.7 214.3 C 687.7 215.3 687.6 215.4 687.5 216.2 C 687.7 216.4 687.9 216.1 687.9 217.2 C 687.8 220.3 687.5 216.5 687.4 221.0 C 687.7 221.3 687.7 220.0 687.9 220.2 C 688.2 222.2 687.8 222.1 688.1 224.1 C 687.8 224.4 687.7 222.6 687.7 224.0 C 688.3 225.4 687.3 227.9 687.8 230.9 C 688.6 229.3 687.6 231.3 688.5 234.0 C 688.2 234.5 687.7 232.5 687.7 234.7 C 688.7 234.3 688.4 243.0 689.2 236.3 C 689.2 240.0 690.0 241.6 690.1 238.6 C 689.9 245.1 690.5 243.2 690.5 245.7 C 690.5 248.2 690.3 244.3 690.0 245.5 C 690.0 242.8 689.8 243.4 690.0 241.6 C 689.8 241.5 689.7 241.0 689.6 240.3 C 689.9 243.1 689.3 246.1 688.8 243.9 C 688.9 242.6 689.3 244.1 689.4 242.2 C 688.8 242.7 689.5 240.4 689.1 240.1 C 688.6 241.1 688.1 237.2 688.1 240.7 C 688.3 240.8 688.5 240.9 688.7 241.0 C 688.7 242.0 688.7 242.9 688.7 243.9 C 688.3 244.6 688.0 243.8 687.9 244.6 C 687.9 246.2 688.0 247.1 688.2 247.6 C 688.3 245.7 688.6 243.5 688.7 246.8 C 687.9 245.2 688.5 251.4 688.1 248.5 C 687.8 252.0 688.4 254.1 687.9 254.3 C 687.9 256.2 688.4 255.1 688.3 257.4 C 688.0 260.8 688.5 260.5 688.2 265.1 C 688.8 266.1 688.1 265.5 688.1 267.0 C 688.3 267.2 688.5 267.3 688.7 267.4 C 688.4 268.9 688.2 272.7 688.6 277.1 C 688.5 278.0 688.1 277.0 688.2 279.8 C 688.7 283.0 688.1 286.0 688.7 289.8 C 688.4 289.9 688.4 292.3 688.6 293.6 C 688.4 294.1 687.9 292.0 687.9 294.2 C 688.3 295.9 688.4 293.4 688.6 296.6 C 688.2 296.0 688.9 299.7 688.5 299.5 C 688.3 298.4 688.2 297.3 688.1 296.2 C 688.1 297.5 687.8 297.0 687.8 298.0 C 688.3 298.2 687.9 300.2 687.8 300.9 C 688.0 301.0 688.2 301.4 688.3 302.3 C 688.3 304.0 688.3 305.4 688.4 306.3 C 688.3 308.3 688.1 304.8 688.1 306.9 C 689.1 308.8 687.9 310.1 688.6 315.2 C 688.3 316.0 688.1 317.7 688.1 320.6 C 688.4 321.2 688.2 317.9 688.4 318.0 C 688.4 322.2 688.7 317.5 688.7 320.2 C 688.5 326.1 688.5 330.2 688.2 336.3 C 688.3 336.4 688.5 337.8 688.6 339.1 C 687.4 339.2 686.2 339.3 686.2 339.2 C 687.5 339.1 683.0 338.7 680.8 338.7 C 680.9 339.3 678.2 339.9 678.3 340.2 C 677.3 339.9 677.4 339.9 676.5 339.3 C 672.7 339.1 671.4 339.7 668.5 339.0 C 669.0 339.4 667.3 339.5 666.0 339.6 C 666.1 339.3 666.8 339.0 667.3 338.8 C 665.4 338.8 665.0 338.6 663.3 338.7 C 662.5 339.8 658.5 338.4 658.1 339.4 C 655.3 339.5 655.5 339.0 652.9 339.0 C 653.2 339.3 653.0 339.4 652.4 339.6 C 654.0 339.5 655.0 339.1 656.3 339.6 C 652.6 339.7 664.4 340.7 658.5 341.1 C 658.2 340.9 658.5 340.6 657.1 340.6 C 653.7 340.8 656.2 341.2 657.6 341.1 C 655.3 341.3 652.7 341.2 655.0 341.6 C 649.6 341.8 652.8 341.4 650.8 341.3 C 641.2 341.6 629.0 341.7 615.3 341.3 C 615.1 341.8 607.7 341.3 605.2 341.0 C 601.7 341.4 597.8 341.5 596.4 341.0 C 596.0 341.5 591.7 340.7 591.5 341.1 C 593.1 341.1 594.3 341.3 592.7 341.4 C 587.1 341.2 578.9 341.0 575.8 341.4 C 573.7 340.9 570.2 341.0 567.9 341.3 C 567.4 341.0 569.3 340.9 567.8 340.9 C 567.4 341.1 562.4 341.4 561.0 341.1 C 562.6 341.2 564.1 340.6 561.8 340.6 C 561.9 340.9 559.2 340.8 560.0 341.1 C 556.7 340.9 554.8 341.2 552.1 341.0 C 554.3 340.9 555.6 340.8 555.8 340.5 C 554.0 340.7 552.6 340.8 551.0 340.5 C 551.5 341.1 548.3 340.7 545.3 341.0 C 544.3 340.8 543.6 340.6 541.1 340.6 C 540.0 340.9 545.2 341.0 542.3 341.1 C 542.3 340.9 539.5 340.7 540.3 341.1 C 536.9 340.9 535.1 341.2 532.4 340.9 C 535.9 341.0 533.1 340.4 532.3 340.3 C 531.5 340.4 530.4 340.3 530.4 340.5 C 530.4 340.6 532.1 340.6 532.3 340.7 C 529.9 340.6 529.4 341.2 528.4 340.9 C 529.5 340.9 529.6 340.6 528.4 340.6 C 528.2 341.2 521.1 340.8 523.5 340.5 C 523.5 340.6 526.2 340.6 526.5 340.5 C 525.7 340.3 521.7 340.5 522.5 340.1 C 524.8 340.0 524.6 340.3 527.4 340.2 C 527.6 339.9 529.2 339.9 530.2 339.7 C 525.8 339.7 525.0 340.2 524.3 339.7 C 522.4 339.7 523.6 340.2 520.5 340.1 C 516.0 339.9 519.6 339.6 518.5 339.4 C 514.5 339.7 515.8 340.2 517.6 340.6 C 514.4 340.6 513.5 340.8 509.7 340.7 C 509.9 340.5 510.4 340.3 511.7 340.2 C 511.8 340.3 515.0 340.6 514.7 340.3 C 514.3 339.8 511.7 339.5 507.7 339.4 C 508.7 340.0 508.8 339.7 504.8 339.7 C 505.5 340.3 502.9 339.6 502.8 340.0 C 503.0 340.1 504.4 340.1 505.8 340.1 C 505.7 340.3 505.2 340.5 503.9 340.6 C 503.0 340.4 502.3 340.6 499.9 340.5 C 499.7 340.1 501.5 340.1 501.8 339.8 C 500.5 339.9 500.2 340.0 498.9 340.1 C 497.7 339.7 497.8 339.2 497.9 338.7 C 499.4 338.5 501.8 338.5 499.9 338.3 C 505.5 338.2 499.6 338.8 501.8 338.9 C 504.1 338.4 502.8 339.1 506.6 339.0 C 507.8 339.0 508.1 338.9 508.6 338.8 C 508.3 338.7 506.1 338.3 508.6 338.3 C 509.2 338.5 510.5 338.7 512.5 338.8 C 512.5 338.6 508.4 338.4 512.5 338.4 C 514.5 338.4 512.7 339.0 515.5 338.9 C 515.4 338.8 516.2 338.8 516.4 338.6 C 512.4 338.7 517.1 338.3 514.4 338.1 C 517.8 337.9 515.0 338.6 517.3 338.5 C 517.4 338.3 521.1 338.7 521.2 338.3 C 519.8 338.5 516.9 338.4 517.3 338.0 C 519.8 338.1 531.6 337.7 527.1 338.4 C 528.7 338.1 537.2 337.6 536.6 337.9 C 534.0 337.8 534.2 338.1 533.9 338.4 C 538.6 337.9 541.1 338.3 546.3 337.7 C 540.5 337.7 544.7 337.0 541.2 336.7 C 539.7 336.7 537.6 336.7 537.3 336.8 C 538.1 337.2 540.4 337.0 541.3 336.8 C 541.3 337.2 541.4 337.5 541.5 337.9 C 535.1 337.5 531.8 337.9 528.8 337.7 C 531.4 337.7 523.9 337.2 526.8 337.1 C 528.1 337.4 531.1 337.4 533.7 337.5 C 533.7 337.4 533.6 337.2 533.6 337.1 C 534.7 337.1 536.3 337.1 536.4 337.0 C 532.9 337.1 531.0 336.6 528.7 337.0 C 528.7 336.9 528.7 336.8 528.6 336.7 C 528.1 336.7 527.5 336.7 527.7 336.6 C 528.8 336.6 530.4 336.6 530.6 336.4 C 528.0 336.3 527.5 336.0 524.7 335.9 C 525.2 335.5 521.4 334.9 525.5 334.8 C 526.2 335.2 528.5 335.3 528.4 335.5 C 529.7 335.7 532.1 335.6 533.3 335.4 C 532.0 335.1 529.6 335.0 529.3 334.6 C 531.2 334.6 532.8 334.4 534.1 334.8 C 530.0 335.0 536.4 335.1 538.0 335.5 C 537.5 335.3 536.6 335.2 536.0 335.0 C 539.1 335.0 540.7 335.3 540.7 334.8 C 544.5 334.6 543.8 335.0 546.5 335.0 C 544.6 334.5 548.2 334.8 546.3 334.2 C 550.7 334.1 547.7 334.7 549.3 334.8 C 550.7 334.7 550.8 334.5 552.1 334.5 C 554.2 334.8 558.3 334.8 559.0 335.3 C 560.8 335.2 561.1 335.4 562.9 335.4 C 563.3 335.3 563.8 335.1 564.6 335.0 C 565.0 335.1 566.3 335.3 566.6 335.1 C 561.5 334.5 562.9 334.5 557.6 334.1 C 557.3 334.3 556.6 334.3 557.8 334.5 C 554.3 334.6 553.2 334.3 550.1 334.4 C 549.6 334.0 548.8 333.5 546.2 333.8 C 546.7 333.4 545.9 333.3 547.0 333.2 C 548.5 333.4 550.6 333.6 552.8 333.7 C 552.9 333.6 552.5 333.3 553.6 333.3 C 554.7 333.5 556.3 333.6 557.5 333.4 C 557.6 333.6 557.1 333.7 556.6 333.8 C 561.4 334.0 559.5 333.4 563.2 333.7 C 562.6 333.4 560.3 333.5 562.1 333.2 C 565.3 333.1 566.1 333.3 567.8 333.5 C 568.1 333.4 567.8 333.2 568.8 333.2 C 571.2 333.5 564.0 334.0 568.2 334.5 C 568.4 334.1 572.4 334.2 573.1 334.5 C 571.9 334.8 569.4 334.4 569.3 334.6 C 576.6 334.7 569.7 335.2 577.3 335.4 C 577.2 335.2 577.1 335.1 577.1 334.9 C 574.1 334.9 573.9 334.6 573.9 334.2 C 571.3 334.2 570.1 333.7 568.0 334.0 C 568.6 333.2 570.2 333.9 572.9 334.0 C 572.6 333.6 570.2 333.5 569.7 333.2 C 575.9 333.5 576.9 333.0 583.0 333.6 C 581.4 333.1 586.2 333.5 585.7 333.2 C 580.7 333.3 582.3 332.2 581.4 332.0 C 578.1 332.1 579.9 332.8 578.1 333.1 C 577.0 332.7 577.4 332.4 577.6 331.9 C 580.6 332.0 580.1 332.0 582.3 331.8 C 584.4 332.1 586.4 332.8 583.8 333.1 C 584.3 333.0 588.1 332.8 588.5 333.1 C 584.8 333.0 589.0 333.3 586.9 333.5 C 589.9 333.7 594.7 333.2 598.3 333.6 C 597.9 333.3 599.1 333.3 598.9 333.1 C 595.6 333.5 594.5 332.6 591.1 332.5 C 592.5 332.5 591.6 332.3 590.9 332.2 C 594.3 332.4 596.0 332.0 598.6 332.4 C 598.5 332.3 598.4 332.2 598.3 332.0 C 602.5 332.3 601.9 332.2 604.9 331.9 C 606.2 332.1 604.9 332.8 604.7 333.2 C 606.1 333.0 611.6 333.1 608.2 332.7 C 611.4 332.7 610.9 333.2 614.1 333.2 C 613.9 332.8 610.9 332.8 611.7 332.3 C 614.7 332.2 613.3 332.8 615.5 332.4 C 615.8 332.8 616.2 333.1 618.7 333.1 C 616.7 332.8 618.9 332.9 619.5 332.7 C 618.2 332.6 617.2 332.5 616.5 332.4 C 621.2 332.5 622.1 332.5 625.8 332.4 C 624.7 332.9 627.0 333.0 624.5 333.2 C 626.7 332.9 630.0 333.4 631.2 333.2 C 629.6 333.0 627.2 333.0 626.1 332.8 C 633.5 332.7 637.1 332.2 644.0 332.8 C 642.9 332.8 641.3 332.8 641.3 332.9 C 642.0 333.0 643.2 332.9 643.3 333.1 C 641.0 333.0 638.8 333.0 637.7 333.2 C 635.5 333.0 638.7 332.9 636.5 332.8 C 636.3 333.1 632.2 332.8 634.0 333.3 C 637.3 333.0 641.1 333.4 643.1 334.0 C 645.9 333.2 642.8 333.3 645.7 332.5 C 645.8 332.8 646.7 332.9 647.9 332.9 C 646.3 332.4 651.0 332.7 651.5 332.7 C 650.0 332.9 644.0 333.2 647.6 333.7 C 645.3 332.7 655.1 334.0 652.8 333.2 C 656.8 333.1 655.8 333.7 657.6 333.2 C 657.8 333.3 657.7 333.6 658.9 333.6 C 660.0 333.6 660.2 333.4 660.6 333.3 C 654.8 333.1 656.0 332.6 652.3 332.5 C 652.9 332.5 653.4 332.5 653.2 332.4 C 653.1 332.3 653.1 332.2 654.0 332.3 C 654.7 332.8 656.8 332.2 658.0 332.5 C 656.9 332.6 655.8 332.6 656.3 332.8 C 660.9 332.7 660.6 333.2 667.2 333.4 C 665.1 333.2 667.6 333.1 669.7 333.1 C 672.9 333.1 672.3 333.7 676.1 333.7 C 674.9 332.8 679.0 333.6 682.7 333.3 C 682.7 332.8 682.7 332.3 682.6 331.7 C 683.1 332.7 683.3 327.0 682.8 325.4 C 683.0 325.4 683.0 323.2 683.0 321.7 C 683.2 321.5 683.3 323.4 683.4 322.1 C 683.3 320.7 682.9 321.5 682.8 319.7 C 683.0 317.8 683.4 318.6 683.4 315.5 C 683.0 315.1 683.1 316.8 682.8 315.0 C 683.0 312.5 683.0 310.1 682.6 312.0 C 682.5 308.0 683.3 310.5 683.2 306.8 C 683.1 307.8 682.9 307.6 682.8 305.6 C 683.2 304.4 683.3 304.5 683.5 304.2 C 683.2 302.8 683.1 303.1 683.2 300.2 C 683.1 300.0 682.9 299.9 682.7 299.8 C 682.7 298.4 682.7 296.3 682.8 296.1 C 682.8 298.6 683.1 298.1 683.2 299.2 C 683.3 296.7 683.7 292.0 683.2 295.5 C 683.0 291.7 683.6 293.9 683.5 290.9 C 683.1 292.4 683.4 291.0 683.4 288.0 C 682.8 287.9 683.3 286.0 683.2 284.1 C 682.9 284.2 682.7 283.6 682.7 281.9 C 683.0 282.2 683.0 281.1 683.0 279.2 C 682.8 279.1 682.6 282.9 682.6 279.0 C 682.8 277.3 683.2 277.5 683.2 274.6 C 683.6 274.2 683.5 277.4 683.9 277.0 C 683.5 274.3 683.8 273.8 683.9 270.3 C 683.2 271.2 682.9 262.7 682.6 266.7 C 682.6 265.5 682.1 263.5 682.5 262.8 C 682.5 264.2 682.9 262.0 683.0 262.2 C 682.9 260.5 683.1 256.7 682.8 256.5 C 683.0 260.1 682.6 259.9 682.3 260.9 C 682.1 255.6 682.3 251.1 682.7 251.7 C 682.6 251.6 682.6 250.8 682.5 250.6 C 682.5 252.5 681.9 253.3 681.8 251.2 C 682.2 251.9 682.3 250.4 682.5 248.8 C 682.1 248.5 682.6 241.9 682.1 242.9 C 682.4 245.8 681.8 247.7 681.5 245.5 C 681.9 243.9 682.1 240.3 682.5 241.2 C 682.3 240.2 682.2 239.2 682.1 238.2 C 681.7 237.2 681.7 239.4 681.4 238.9 C 681.4 237.5 681.4 235.4 681.5 235.2 C 681.6 238.9 681.8 233.3 682.1 237.3 C 682.0 234.9 682.3 234.5 682.3 232.6 C 682.2 232.6 682.2 231.8 682.1 231.6 C 682.3 233.4 682.1 234.9 681.7 234.3 C 681.6 230.9 682.1 231.6 682.1 228.8 C 681.8 227.9 681.2 223.8 681.5 222.0 C 681.5 225.8 681.7 221.8 681.9 224.1 C 681.7 227.4 682.1 228.4 682.5 229.8 C 682.7 228.5 682.8 225.7 682.3 225.1 C 682.3 226.9 682.5 227.0 682.6 228.1 C 682.3 227.9 682.2 227.3 682.1 225.9 C 682.4 224.5 682.0 220.9 682.6 223.4 C 682.3 220.9 682.8 218.4 682.5 215.8 C 682.4 218.5 682.3 220.5 681.9 221.2 C 681.8 218.9 682.2 216.7 681.9 216.6 C 681.6 216.7 681.7 220.4 681.4 221.1 C 681.0 218.0 682.1 213.9 681.3 217.3 C 681.4 215.7 681.4 213.4 681.5 212.7 C 681.6 214.7 682.1 212.7 682.2 211.9 C 682.2 210.1 682.1 208.7 681.9 208.1 C 682.1 210.7 681.6 212.6 681.5 210.8 C 681.8 210.4 681.5 209.8 681.4 208.9 C 681.7 208.8 681.5 205.8 681.7 205.3 C 681.5 205.4 681.5 206.8 681.3 207.0 C 681.2 205.2 680.6 202.6 681.2 201.4 C 681.2 202.5 681.1 204.0 681.3 204.2 C 681.9 199.4 682.3 198.0 682.6 192.2 C 682.6 193.0 682.7 193.3 682.8 193.2 C 682.9 189.5 683.1 187.1 683.4 187.6 C 683.3 185.3 683.1 184.1 682.8 182.9 C 682.6 185.2 683.0 186.1 682.7 187.5 C 682.6 186.6 681.9 189.3 681.7 190.3 C 682.1 194.3 681.4 194.5 681.7 198.7 C 681.3 197.4 681.6 201.7 681.2 200.4 C 681.8 196.7 681.3 193.0 681.6 187.4 C 681.9 188.2 682.2 188.9 682.3 186.6 C 682.5 183.0 682.0 184.7 682.1 181.8 C 682.4 180.6 682.5 182.4 682.6 180.9 C 682.4 179.9 682.5 177.1 682.9 176.2 C 682.8 180.1 683.2 175.5 683.4 178.1 C 683.4 176.8 683.4 176.1 683.5 175.2 C 683.0 179.0 682.9 171.4 682.6 174.3 C 682.4 169.1 683.6 173.9 683.5 169.6 C 683.2 171.7 683.0 169.0 683.1 165.8 C 683.5 165.0 683.6 161.7 683.8 159.1 C 683.5 160.5 683.5 161.6 683.2 159.2 C 683.1 160.5 683.1 162.7 683.2 163.9 C 683.1 163.9 683.0 164.4 682.8 164.9 C 682.8 161.8 682.6 163.1 682.5 162.1 C 682.6 161.1 682.6 158.8 682.8 158.3 C 682.7 158.3 682.7 157.5 682.6 157.4 C 682.5 161.3 682.0 156.8 681.9 159.3 C 682.0 161.0 682.4 159.9 682.3 162.1 C 681.8 164.2 681.8 160.4 681.4 159.3 C 681.1 161.1 681.6 163.3 681.2 164.0 C 680.7 161.6 681.0 157.8 681.2 154.7 C 680.6 154.9 681.3 149.5 680.6 149.1 C 680.8 148.6 680.9 148.0 681.0 147.2 C 680.6 146.4 681.2 145.3 681.2 144.4 C 680.9 144.3 680.8 144.6 680.6 145.4 C 680.9 141.5 680.8 140.6 680.6 136.1 C 680.9 135.3 681.1 134.5 681.4 134.0 C 681.5 135.1 681.6 136.1 681.7 136.8 C 681.7 130.6 680.6 134.8 681.3 130.3 C 681.1 130.5 680.6 133.7 680.5 131.4 C 681.0 127.4 680.5 122.0 681.7 121.8 C 682.0 118.2 681.3 116.1 681.8 114.3 C 681.8 113.2 681.7 112.9 681.5 112.4 C 681.3 113.6 681.1 115.1 680.9 116.4 C 681.1 118.4 680.7 119.5 681.3 117.3 C 681.3 120.4 681.1 121.3 680.9 123.0 C 680.6 118.8 681.0 114.7 680.4 114.8 C 680.6 113.2 680.9 112.0 681.2 110.8 C 680.9 110.4 680.7 105.6 681.2 105.1 C 681.0 108.4 681.5 111.6 681.8 108.6 C 681.5 100.7 682.2 95.9 681.8 88.9 C 682.0 88.7 682.3 89.1 682.3 87.8 C 682.1 87.9 681.9 87.7 681.8 87.0 C 681.9 84.8 682.0 83.4 681.9 80.5 C 682.3 80.4 682.6 79.8 682.7 78.1 C 682.3 77.4 681.5 74.8 681.7 73.0 C 681.7 74.8 682.2 72.2 682.2 70.9 C 681.6 72.3 682.6 62.1 682.1 65.3 C 682.1 61.4 682.3 59.6 682.5 59.4 C 682.4 58.1 682.3 57.2 682.2 55.8 C 682.8 54.6 682.3 48.2 682.6 47.1 C 682.4 49.5 683.0 49.5 683.0 47.7 C 682.7 46.7 682.4 40.8 682.5 39.7 C 682.6 39.9 683.0 40.1 683.1 42.9 C 683.2 37.9 682.6 38.4 682.2 37.0 C 682.7 36.8 682.3 34.8 682.2 34.2 C 682.5 32.4 682.4 34.1 682.7 33.8 C 682.8 32.0 683.0 31.1 683.0 28.8 C 682.5 29.9 682.8 27.1 682.8 26.1 C 682.6 26.0 682.4 24.9 682.3 22.8 C 683.0 25.0 683.1 10.1 682.6 14.1 C 682.2 11.5 683.1 10.7 683.0 7.1 C 682.9 6.9 682.9 6.6 682.8 6.3 C 682.1 6.4 681.5 6.4 682.6 6.6 C 682.6 6.6 682.6 6.6 682.6 6.6 C 682.6 6.6 682.6 6.6 682.6 6.6 C 679.6 6.7 681.9 6.1 678.1 6.3 C 679.2 6.8 674.7 6.2 674.9 6.8 C 674.1 6.1 670.3 7.0 667.9 6.4 C 667.8 6.6 666.9 6.6 666.7 6.7 C 666.1 6.9 670.0 7.0 667.3 7.1 C 664.4 6.8 666.2 6.7 666.0 6.4 C 657.3 6.6 647.1 6.4 638.2 6.3 C 639.1 6.5 639.0 6.6 637.0 6.7 C 634.8 5.9 624.0 6.3 622.3 6.6 C 621.5 6.1 615.9 6.6 614.9 6.3 C 616.0 6.3 618.2 5.9 616.0 5.9 C 614.4 6.4 612.5 6.1 610.3 6.4 C 609.3 5.9 602.6 6.5 605.7 5.7 C 604.4 5.7 603.7 5.6 603.0 5.5 C 602.8 6.0 601.5 5.9 603.8 6.2 C 597.8 5.8 596.3 6.2 591.6 5.9 C 590.8 6.1 594.4 6.3 591.6 6.4 C 591.6 6.3 591.6 6.3 591.6 6.2 C 590.6 6.2 590.3 6.4 589.8 6.2 C 590.0 6.0 591.6 6.0 591.7 5.5 C 589.4 5.7 587.8 5.1 587.0 5.5 C 590.2 5.6 588.0 6.3 586.1 5.9 C 587.8 5.7 578.7 5.9 575.8 6.2 C 574.3 5.7 579.0 6.1 578.6 5.8 C 573.2 5.9 573.6 5.7 573.0 6.2 C 570.1 6.0 568.9 5.8 565.5 6.0 C 563.5 5.9 566.6 5.7 564.5 5.7 C 563.3 5.8 562.8 6.0 560.9 6.0 C 555.6 5.2 544.4 6.6 538.1 5.3 C 540.6 5.6 537.7 5.8 534.7 5.8 C 534.4 5.6 534.6 5.4 533.5 5.4 C 533.9 5.7 532.9 5.8 530.9 5.8 C 530.6 5.6 530.9 5.4 529.8 5.4 C 529.2 5.9 526.5 5.4 525.2 5.7 C 524.2 5.2 528.5 5.4 528.6 5.1 C 523.5 4.8 523.0 5.3 519.2 5.1 C 521.1 5.1 517.5 4.7 516.9 4.6 C 518.1 5.1 515.3 5.2 517.6 5.5 C 516.2 5.5 514.2 5.6 513.7 5.4 C 514.4 5.4 515.7 5.4 515.6 5.3 C 513.9 5.3 511.3 4.9 510.8 5.3 C 512.0 5.3 512.8 5.4 513.0 5.7 C 512.7 5.8 512.3 5.9 511.5 6.0 C 513.3 5.0 505.9 5.5 505.7 5.8 C 504.4 5.1 503.9 5.1 503.9 4.9 C 500.6 4.8 501.4 5.3 499.6 5.4 C 499.7 4.9 500.1 4.6 496.8 4.4 C 497.4 4.6 496.5 4.8 495.9 4.9 C 496.0 5.6 496.2 6.2 496.4 5.9 C 496.6 14.0 496.0 15.1 496.0 19.9 C 496.2 20.2 496.2 18.7 496.3 20.2 C 496.2 22.3 496.0 24.1 495.8 25.4 C 496.1 26.9 496.2 25.3 496.3 26.8 C 495.9 30.0 495.5 28.7 495.1 31.5 C 495.4 35.6 495.2 34.0 495.6 36.8 C 495.7 35.8 495.9 34.6 495.9 36.1 C 495.5 38.1 495.1 38.6 495.0 39.1 C 495.0 37.4 495.0 36.1 495.1 35.4 C 494.9 34.5 494.9 32.2 494.6 33.9 C 494.7 31.6 494.8 28.9 494.7 25.3 C 494.3 26.2 494.6 22.2 494.2 23.0 C 494.3 27.0 494.0 27.7 494.1 31.5 C 494.5 31.1 494.3 34.8 494.2 35.5 C 494.5 35.7 494.4 38.2 494.7 37.9 C 494.8 40.9 494.5 40.5 494.6 43.5 C 494.4 43.6 494.2 43.0 494.2 44.1 C 494.6 45.5 494.1 45.9 494.1 46.9 C 494.5 46.6 494.3 50.6 494.6 51.2 C 494.6 50.1 494.6 48.5 494.7 48.4 C 494.7 53.0 495.1 49.6 495.4 49.0 C 495.2 49.0 494.7 46.8 495.0 46.7 C 495.3 51.0 495.7 41.8 495.5 45.2 C 495.4 48.2 495.7 48.2 495.6 51.1 C 494.9 54.1 494.5 49.5 493.9 52.6 C 494.3 55.1 494.2 56.5 494.6 57.0 C 494.4 57.3 494.3 57.8 494.2 58.5 C 494.4 59.7 494.6 56.1 494.7 59.0 C 494.6 60.4 494.1 58.3 494.2 61.5 C 494.5 63.0 494.6 58.0 494.7 60.9 C 494.1 63.4 494.9 60.5 495.0 64.0 C 494.9 64.2 494.8 64.7 494.9 65.8 C 494.7 65.9 494.4 65.2 494.3 66.4 C 495.0 67.6 494.1 67.4 494.2 70.1 C 494.7 71.9 494.5 67.7 494.9 68.7 C 494.4 71.3 494.9 73.4 494.9 74.5 C 494.5 71.8 494.6 77.9 494.2 77.8 C 494.7 77.5 494.5 78.6 494.9 82.2 C 494.1 81.9 494.6 86.0 494.1 86.4 C 494.3 87.0 494.4 88.1 494.6 88.7 C 494.6 87.6 494.6 86.5 494.9 87.0 C 494.9 87.9 494.9 88.9 494.9 89.9 C 494.5 91.3 493.7 86.5 493.8 93.0 C 494.3 92.6 494.4 95.4 494.6 97.3 C 495.0 97.5 494.6 94.8 494.9 94.7 C 495.2 97.1 494.8 99.1 494.6 100.2 C 494.8 104.1 494.5 108.3 494.7 113.8 C 494.4 114.8 494.4 109.1 494.2 112.5 C 494.2 114.0 494.5 113.5 494.5 115.5 C 492.8 112.5 494.1 129.8 493.4 130.4 C 493.8 131.2 493.6 135.7 494.1 135.5 C 493.7 132.2 494.2 130.4 494.5 129.0 C 494.2 126.0 494.1 131.4 493.9 128.7 C 494.2 128.6 494.0 124.5 494.3 125.1 C 494.4 129.2 494.7 123.2 495.1 126.5 C 495.0 130.3 495.5 138.2 495.0 136.1 C 495.1 136.2 495.1 134.5 495.0 134.2 C 494.8 138.4 495.1 141.1 495.4 143.1 C 495.1 144.8 495.6 152.8 495.4 150.7 C 495.0 151.2 495.5 146.2 495.1 146.8 C 495.0 154.6 495.3 155.0 495.0 160.1 C 495.5 158.6 495.7 165.9 495.5 165.2 C 495.1 165.0 494.8 166.4 495.2 169.8 C 494.8 169.2 494.7 170.8 494.6 172.4 C 495.0 173.4 494.9 171.2 495.2 171.7 C 495.2 173.3 495.2 175.0 495.2 176.6 C 495.1 176.6 494.9 176.2 494.9 177.3 C 495.1 179.2 495.5 185.8 495.2 185.2 C 494.7 182.2 494.8 189.4 494.5 184.8 C 494.5 186.0 494.3 186.1 494.3 187.7 C 494.5 187.8 494.7 187.8 494.9 187.9 C 494.9 191.5 494.2 189.4 494.2 192.4 C 494.4 192.8 494.4 194.1 494.6 194.6 C 494.6 193.3 494.4 193.2 494.5 191.6 C 495.1 193.6 494.8 188.6 495.2 189.0 C 495.3 192.4 494.9 192.3 494.7 193.6 C 495.0 197.9 494.9 195.9 494.7 200.3 C 494.9 200.4 494.9 199.2 495.1 199.5 C 495.0 204.9 494.2 204.0 494.5 207.9 C 494.4 207.1 494.1 203.5 494.1 205.9 C 494.3 208.5 494.7 209.4 494.7 212.8 C 494.6 212.9 494.4 212.6 494.3 213.7 C 494.5 215.1 494.8 215.4 495.0 216.7 C 494.8 216.9 494.9 218.8 495.0 219.6 C 494.7 220.7 494.6 219.0 494.5 220.5 C 494.5 223.3 495.4 225.1 495.2 227.4 C 494.7 227.1 494.9 229.8 495.0 232.2 C 494.5 232.4 494.6 237.4 494.5 240.6 C 494.9 240.0 494.7 243.3 495.1 242.7 C 495.1 241.1 495.2 240.3 495.4 240.0 C 495.4 243.7 494.6 244.6 495.2 247.6 C 495.0 248.9 494.7 250.7 494.6 253.2 C 494.8 253.5 495.0 248.8 495.1 251.4 C 495.0 251.6 495.0 252.4 495.1 253.3 C 494.7 252.8 494.6 254.8 494.3 256.0 C 494.7 258.3 494.1 262.9 494.6 260.8 C 494.7 264.4 494.0 261.9 494.0 264.6 C 494.5 263.4 494.6 268.0 494.9 265.8 C 495.0 269.4 494.3 269.0 494.1 267.5 C 494.0 270.8 494.3 271.7 494.1 273.3 C 494.5 271.8 494.7 277.0 494.5 274.3 C 494.1 273.4 494.3 277.4 494.1 278.1 C 494.4 276.9 494.4 278.7 494.6 276.3 C 494.7 278.9 494.8 282.6 494.3 284.9 C 494.6 288.1 494.6 291.1 494.2 289.7 C 494.3 292.7 494.3 291.6 494.2 294.5 C 494.3 294.6 494.4 293.7 494.5 293.5 C 494.5 297.7 494.2 296.8 494.2 302.2 C 493.7 301.5 493.7 305.0 493.4 306.0 C 493.5 303.8 493.6 302.0 493.7 300.2 C 493.5 299.8 493.4 301.6 493.3 300.2 C 493.4 300.0 493.5 299.2 493.6 298.3 C 493.2 301.8 492.9 293.7 493.3 296.3 C 493.2 296.3 493.1 296.5 493.2 297.2 C 493.6 296.6 493.4 296.6 493.8 297.3 C 493.7 295.5 494.2 294.2 493.8 293.5 C 493.6 293.5 493.7 295.2 493.6 295.4 C 493.3 290.9 494.1 294.2 493.9 290.7 C 493.5 289.8 493.4 291.6 493.2 292.4 C 493.1 289.2 493.2 286.5 493.4 285.7 C 493.3 282.8 493.1 285.8 492.9 283.7 C 493.1 282.7 493.4 282.9 493.4 280.9 C 493.2 278.7 493.1 282.1 493.0 279.9 C 493.3 277.6 493.6 281.6 493.7 278.0 C 493.1 278.8 493.8 274.8 493.4 275.1 C 493.5 277.1 492.9 277.0 493.3 276.1 C 493.8 271.5 492.4 267.9 493.3 263.5 C 493.2 263.4 493.1 262.7 493.0 262.5 C 492.8 265.9 492.7 271.1 492.1 271.9 C 492.3 274.8 492.6 274.4 492.8 274.9 C 492.3 278.2 492.2 277.9 491.6 275.8 C 491.5 270.2 491.8 267.9 492.0 264.2 C 491.7 262.2 491.8 264.4 491.6 265.1 C 492.0 253.7 490.8 262.2 491.0 258.1 C 491.2 258.3 491.3 257.4 491.3 256.3 C 491.2 256.3 491.2 254.6 491.1 254.3 C 491.1 255.0 491.0 255.4 490.8 255.1 C 490.7 252.3 491.1 253.5 491.3 253.4 C 491.3 255.5 491.4 257.0 491.6 257.3 C 491.4 254.4 491.8 252.3 491.3 250.4 C 491.9 247.9 492.5 252.1 492.9 250.8 C 493.2 251.4 491.9 248.8 491.7 246.7 C 491.8 243.2 491.3 243.0 491.3 239.7 C 491.8 239.0 491.5 243.0 491.9 242.8 C 491.9 241.9 492.0 241.7 492.0 240.9 C 491.9 238.6 491.6 238.7 491.5 236.8 C 491.9 236.0 491.6 235.4 491.5 234.0 C 491.7 231.9 491.8 235.3 491.9 233.1 C 492.0 230.8 491.4 228.9 491.5 228.1 C 491.6 228.0 491.8 228.4 491.9 227.3 C 491.6 224.5 491.6 223.8 491.3 227.1 C 491.4 224.1 491.2 222.8 490.8 223.1 C 490.8 227.6 490.8 228.8 490.3 230.7 C 490.7 231.7 490.4 232.9 490.3 234.6 C 491.0 233.8 490.3 236.6 490.7 237.7 C 490.8 236.5 490.8 235.4 491.0 234.8 C 490.9 239.6 490.8 239.5 491.5 243.7 C 491.3 243.6 491.2 244.1 491.1 244.5 C 490.9 243.2 491.0 239.7 490.7 239.6 C 490.2 242.2 491.0 243.3 490.4 246.3 C 490.7 247.7 490.9 243.9 490.9 246.5 C 490.7 247.6 490.5 249.2 490.3 251.1 C 490.4 253.2 490.6 254.3 490.7 256.1 C 490.5 256.2 490.4 256.4 490.4 258.0 C 490.6 257.9 490.7 256.4 490.8 258.1 C 490.3 263.1 490.0 266.4 490.2 271.6 C 490.3 269.8 490.7 265.8 490.7 267.8 C 490.4 270.0 490.9 273.3 490.6 275.6 C 490.4 276.3 490.7 272.8 490.0 273.5 C 490.1 275.8 490.0 277.2 489.9 278.3 C 490.2 278.4 490.1 281.0 490.4 280.4 C 490.5 278.5 490.0 277.9 490.2 277.4 C 491.3 279.2 489.8 284.5 489.8 288.1 C 490.0 290.5 490.2 286.3 490.3 289.1 C 490.5 290.8 489.5 291.7 489.4 289.0 C 489.6 287.2 489.1 286.4 489.5 286.0 C 489.5 285.3 489.5 284.1 489.4 284.1 C 489.4 285.5 489.1 285.1 489.0 286.0 C 489.1 284.1 488.3 283.7 488.7 282.0 C 488.8 283.2 488.9 283.6 489.0 284.1 C 488.9 278.8 489.2 277.2 489.4 274.3 C 489.1 275.9 489.2 274.2 488.9 274.2 C 489.0 276.5 488.7 280.8 488.6 278.1 C 489.1 276.5 487.9 274.8 488.3 273.2 C 488.4 274.5 488.6 274.4 488.7 275.2 C 488.8 273.2 489.1 273.3 489.1 271.3 C 488.5 264.8 489.6 260.2 488.7 249.8 C 488.7 246.2 488.9 253.1 489.3 252.9 C 489.3 251.8 489.4 251.6 489.4 250.9 C 488.9 250.7 489.4 249.1 489.0 247.8 C 489.4 248.1 489.0 243.3 489.4 241.1 C 489.2 240.9 489.0 241.2 489.0 240.0 C 489.5 233.0 488.8 219.8 489.3 214.7 C 488.9 214.7 488.9 212.4 488.7 211.6 C 488.8 208.2 489.1 209.8 488.7 204.7 C 488.7 202.2 489.0 205.3 489.1 205.8 C 488.9 198.3 489.3 192.0 488.9 187.1 C 488.7 184.7 489.2 187.3 489.3 182.5 C 488.7 182.1 489.5 174.9 488.9 173.5 C 488.8 170.5 489.6 165.6 489.0 167.7 C 489.0 163.6 489.5 166.6 489.5 165.0 C 489.5 162.2 488.5 165.3 488.5 162.5 C 488.9 163.0 488.7 160.6 489.1 159.0 C 489.1 161.1 489.2 162.6 489.4 163.0 C 489.1 161.0 489.5 161.2 489.4 158.1 C 489.1 155.7 488.8 149.0 489.4 147.4 C 489.2 147.2 489.1 147.7 489.0 148.1 C 488.9 146.2 489.4 144.1 488.9 144.1 C 488.9 139.7 489.3 138.1 488.9 135.4 C 488.7 133.4 489.3 136.3 489.3 130.6 C 488.9 130.3 488.9 120.4 489.3 118.0 C 488.7 117.5 489.2 117.3 489.3 116.1 C 489.1 115.8 488.9 115.9 488.9 114.8 C 489.0 114.7 489.0 113.8 488.9 112.8 C 489.5 113.9 488.7 109.1 489.1 109.1 C 489.2 110.0 489.5 110.2 489.5 109.4 C 489.1 108.8 489.8 105.2 489.4 105.4 C 489.3 106.1 489.4 109.0 489.0 108.0 C 488.8 104.1 489.4 105.9 489.4 103.4 C 489.2 103.5 489.1 104.9 489.0 103.1 C 489.1 100.5 489.1 103.0 489.4 101.5 C 489.3 100.0 489.0 97.2 489.0 96.3 C 489.0 96.5 489.2 95.9 489.3 95.5 C 489.4 90.6 489.0 78.8 489.5 74.3 C 489.3 73.7 489.3 72.6 489.0 72.8 C 489.2 70.0 489.1 70.1 489.3 67.2 C 489.1 67.1 488.9 66.9 488.7 66.8 C 488.5 62.7 489.3 66.9 489.3 64.2 C 488.4 63.2 489.5 62.9 489.5 60.6 C 489.4 60.1 489.3 58.9 489.0 59.1 C 489.0 55.4 489.6 56.1 489.4 52.6 C 489.3 53.4 488.1 52.9 487.7 52.2 C 487.9 51.8 488.0 50.9 488.1 49.5 C 488.5 51.6 490.0 51.9 489.5 46.8 C 489.6 49.5 489.5 50.3 489.1 49.5 C 489.1 45.9 489.4 44.9 489.4 41.9 C 489.0 41.0 488.9 43.2 488.5 42.0 C 488.5 41.3 488.4 40.8 488.2 40.9 C 488.3 37.7 488.6 37.8 488.4 34.1 C 488.6 34.3 488.6 35.1 488.5 36.2 C 488.8 36.3 489.1 36.6 489.1 38.7 C 488.9 38.8 488.5 37.2 488.6 40.2 C 488.8 40.4 489.1 40.6 489.3 40.8 C 489.3 38.6 489.6 33.8 489.4 33.1 C 489.2 34.0 489.2 35.7 488.7 34.4 C 488.9 30.8 489.3 30.2 489.5 27.3 C 489.4 21.9 489.5 12.5 488.9 13.1 C 489.0 10.0 489.1 11.2 489.1 8.4 C 488.7 8.8 489.0 5.0 488.6 4.9 C 488.7 8.6 488.6 7.4 488.7 11.0 C 488.5 10.6 488.3 9.9 488.2 8.5 C 488.5 8.5 488.5 7.1 488.5 4.8 C 488.4 5.1 488.0 6.8 488.0 4.3 C 488.1 4.2 488.1 3.7 488.1 2.5 C 488.3 2.7 488.5 2.9 488.7 3.1 C 488.9 4.6 489.0 6.3 489.1 7.4 C 489.1 6.5 489.2 6.4 489.3 5.6 C 489.0 4.8 489.3 1.0 489.0 0.4 C 489.0 2.1 488.8 2.9 488.7 1.1 C 488.8 0.9 488.9 -1.0 488.8 -2.2 C 489.0 -2.2 489.1 -2.3 489.2 -2.3 C 489.1 -2.3 488.9 -2.3 488.7 -2.3 C 488.5 0.3 488.5 -0.8 488.1 0.5 C 488.1 -1.3 488.1 -2.1 488.2 -2.8 C 489.4 -2.7 490.5 -2.6 492.9 -2.7 C 493.3 -2.4 493.6 -2.0 492.6 -1.9 C 496.3 -1.1 502.5 -1.9 504.8 -1.8 C 503.2 -1.8 501.9 -1.3 504.3 -1.2 C 504.2 -1.4 506.0 -1.4 506.1 -1.5 C 506.3 -2.3 503.9 -2.6 501.7 -3.1 C 503.7 -3.0 503.9 -3.2 505.7 -3.2 C 506.6 -2.9 505.2 -2.3 507.5 -2.3 C 507.5 -2.9 511.7 -2.3 512.1 -2.8 C 510.6 -2.8 509.3 -3.0 510.9 -3.1 C 510.9 -2.8 514.0 -2.9 514.3 -2.7 C 511.8 -2.5 511.4 -2.1 509.7 -2.2 C 511.8 -2.1 508.4 -1.8 511.9 -1.8 C 513.3 -2.0 513.8 -2.4 517.6 -2.4 C 519.0 -2.3 518.1 -1.9 519.9 -1.9 C 519.2 -2.3 523.2 -2.4 520.9 -2.0 C 522.3 -2.0 523.1 -2.0 524.0 -1.9 C 521.8 -2.3 531.1 -2.8 529.4 -3.1 C 529.7 -2.5 530.5 -2.0 531.1 -1.9 C 532.7 -2.3 535.1 -2.0 540.2 -2.0 C 539.8 -2.5 541.0 -2.1 543.1 -2.1 C 543.4 -2.4 541.5 -2.5 542.9 -2.5 C 545.5 -2.3 545.6 -2.3 546.2 -2.1 C 548.0 -2.2 549.3 -2.1 550.3 -2.0 C 550.3 -2.2 549.7 -2.3 549.1 -2.4 C 556.1 -2.0 559.5 -2.5 565.4 -2.4 C 562.9 -2.6 562.5 -2.0 564.5 -2.0 C 565.7 -2.1 566.7 -2.2 567.4 -2.3 C 565.9 -2.7 566.6 -2.4 569.5 -2.4 C 572.0 -2.6 568.3 -3.0 570.3 -3.1 C 572.6 -2.8 571.3 -2.7 572.5 -2.5 C 573.5 -2.5 574.6 -2.5 575.6 -2.5 C 573.7 -2.8 575.7 -2.9 577.5 -3.1 C 576.3 -2.6 577.1 -2.5 580.7 -2.7 C 581.1 -2.4 579.2 -2.3 580.7 -2.3 C 581.5 -2.2 584.2 -2.8 586.7 -2.4 C 585.9 -2.4 585.5 -2.3 585.7 -2.1 C 588.4 -2.4 590.5 -1.9 592.9 -1.8 C 590.5 -2.1 591.8 -2.4 590.8 -2.7 C 593.2 -2.3 596.1 -2.8 597.9 -2.3 C 594.5 -2.4 597.8 -1.5 599.9 -1.5 C 600.5 -1.9 596.8 -1.8 597.9 -2.3 C 599.1 -2.6 601.8 -2.0 603.0 -2.4 C 602.8 -2.6 601.4 -2.3 601.0 -2.5 C 602.9 -2.6 600.4 -2.7 602.0 -2.8 C 603.0 -2.4 604.2 -2.9 605.2 -2.9 C 606.4 -2.8 609.0 -2.2 610.2 -2.5 C 610.2 -2.7 608.4 -2.7 608.2 -2.8 C 613.9 -3.0 615.4 -2.4 620.5 -2.9 C 621.0 -2.7 622.0 -2.6 623.5 -2.5 C 623.4 -2.8 624.4 -2.9 625.6 -2.9 C 627.7 -2.7 629.8 -2.5 632.5 -2.4 C 631.9 -2.1 630.6 -1.9 634.3 -1.9 C 634.6 -2.0 633.0 -2.1 634.4 -2.1 C 634.4 -2.1 635.2 -2.0 635.5 -2.1 C 635.5 -2.2 635.6 -2.3 635.6 -2.4 C 634.5 -2.4 633.5 -2.4 632.5 -2.4 C 632.7 -2.6 632.5 -2.8 631.8 -2.9 C 636.3 -3.1 635.7 -2.3 638.7 -2.7 C 638.9 -2.0 639.8 -1.9 637.2 -1.5 C 639.8 -1.6 641.7 -1.8 642.5 -2.1 C 639.4 -2.1 640.7 -2.6 639.9 -2.8 C 641.8 -2.8 642.0 -3.0 643.0 -3.0 C 645.1 -2.8 640.2 -2.3 644.7 -2.3 C 641.6 -2.8 647.7 -2.7 649.9 -2.5 C 649.6 -2.7 648.8 -2.7 650.1 -2.9 C 656.3 -3.2 655.0 -1.8 659.0 -2.5 C 658.5 -2.3 660.2 -2.3 660.8 -2.1 C 657.8 -2.0 656.9 -1.9 655.6 -1.9 C 655.7 -1.7 656.6 -1.7 657.4 -1.6 C 657.6 -1.9 658.4 -1.9 659.6 -1.7 C 660.6 -2.0 660.7 -2.6 663.4 -2.9 C 663.4 -2.8 663.0 -2.5 664.2 -2.5 C 665.5 -2.9 662.8 -1.8 667.8 -2.0 C 667.1 -2.1 666.7 -2.3 667.3 -2.6 C 669.9 -2.8 669.2 -2.6 672.5 -2.8 C 673.2 -2.1 669.7 -2.0 668.5 -1.6 C 670.8 -1.7 672.9 -2.1 674.8 -1.9 C 673.3 -2.1 675.3 -2.4 677.4 -2.5 C 679.1 -2.4 676.7 -1.9 678.9 -1.9 C 680.7 -2.0 681.9 -2.3 680.5 -2.5 C 684.1 -2.4 683.6 -2.8 686.8 -2.8 C 686.6 -2.5 685.7 -2.5 684.6 -2.6 C 684.7 -2.5 684.1 -2.3 685.3 -2.3 C 686.9 -2.5 689.5 -2.6 691.8 -2.7 C 691.9 -1.7 692.0 -0.7 692.1 0.0 C 691.3 5.1 692.2 9.4 691.9 14.1 C 691.5 12.7 691.9 20.0 691.4 22.5 C 691.5 23.8 692.4 27.3 692.1 26.0 C 691.5 26.8 691.7 29.3 691.5 31.5 C 691.7 31.3 691.8 31.2 691.9 31.1 C 692.0 35.6 691.6 36.8 691.3 38.5 C 691.6 43.7 691.0 50.1 691.4 56.3 C 691.0 58.3 691.1 59.7 690.8 63.7 C 691.2 63.4 691.2 66.5 691.2 69.4 C 691.5 68.5 691.4 71.3 691.7 71.1 C 691.7 68.5 692.2 69.2 692.3 67.7 C 691.9 71.5 692.7 72.8 692.3 75.7 C 692.1 72.4 691.6 71.6 691.0 71.5 C 691.1 75.5 691.0 77.7 690.6 78.7 C 690.9 78.8 691.1 78.2 691.3 77.2 C 691.3 78.6 691.3 80.0 691.3 81.2 C 691.1 81.7 690.9 79.9 690.9 81.4 C 691.0 82.3 691.2 83.3 691.3 84.2 C 690.9 85.6 691.0 82.8 690.8 82.5 C 690.6 87.9 691.4 85.2 691.5 88.1 C 691.3 89.0 690.8 89.0 690.8 91.4 C 691.0 92.3 691.4 92.4 691.4 95.1 C 691.3 96.9 690.8 95.3 690.8 97.3 C 690.9 97.5 690.8 98.4 690.8 99.3 C 691.0 99.1 691.1 100.0 691.2 101.1 C 691.0 101.5 691.1 103.4 691.2 104.1 C 690.9 104.4 690.5 107.6 690.8 108.2 C 690.9 108.2 690.9 106.4 691.0 106.2 C 691.0 108.4 691.0 110.0 691.2 111.1 C 690.2 112.1 691.0 115.5 690.5 120.2 C 690.8 122.9 691.2 119.4 691.4 122.9 C 691.1 125.1 691.0 122.5 690.6 123.1 C 690.6 123.7 690.3 127.1 690.6 127.1 C 690.8 127.0 690.8 125.3 690.9 125.1 C 691.2 127.6 690.8 127.6 690.6 129.1 C 691.0 128.8 691.0 130.5 691.3 130.9 C 691.5 138.0 690.8 138.0 690.5 141.0 C 690.7 140.9 690.6 142.7 690.8 142.9 C 690.6 140.9 691.0 138.1 691.0 140.9 C 690.8 140.4 691.0 144.6 691.1 144.8 C 691.4 144.3 691.3 141.7 691.7 142.7 C 691.8 146.5 691.0 145.0 691.4 147.8 C 691.2 148.1 691.1 146.5 691.0 145.8 C 691.0 147.0 691.0 148.6 690.9 148.8 C 690.8 147.4 690.5 147.4 690.2 146.9 C 690.6 148.8 690.2 152.3 690.8 149.8 C 690.6 153.8 690.9 157.5 691.3 154.8 C 691.4 158.0 690.8 156.2 691.2 158.8 C 690.7 158.4 690.5 157.6 690.1 159.8 C 690.4 160.2 690.4 161.9 690.8 161.7 C 690.8 166.4 690.3 167.8 690.0 169.7 C 690.6 168.0 690.1 170.3 690.5 172.6 C 690.3 174.0 689.8 172.7 690.0 176.5 C 690.5 172.4 690.1 181.3 690.8 179.5 C 690.5 184.4 690.5 184.3 690.4 189.4 C 690.1 188.9 689.9 187.6 689.8 185.4 C 690.2 187.0 690.2 181.1 690.0 181.5 C 689.9 181.5 689.8 181.5 689.7 181.5 C 689.8 185.2 689.7 187.7 689.5 189.3 C 689.7 190.1 689.9 191.9 690.4 191.4 C 689.8 194.8 690.6 198.7 690.1 200.3 C 690.1 199.0 690.1 197.8 689.8 198.2 C 690.0 199.7 690.0 201.4 690.4 201.3 C 690.5 198.4 690.5 197.8 690.2 196.3 C 690.6 197.6 690.8 193.5 690.9 196.4 C 690.3 196.2 691.2 202.4 690.8 200.4 C 690.5 197.2 690.4 203.9 690.1 204.1 C 690.1 204.1 690.1 204.1 690.1 204.1 Z M 489.1 272.3 C 489.3 275.3 489.7 271.7 489.7 269.5 C 489.5 270.2 489.4 270.4 489.1 270.4 C 489.2 271.2 489.3 272.1 489.1 272.3 C 489.1 272.3 489.1 272.3 489.1 272.3 Z M 494.9 242.6 C 494.4 241.6 494.7 246.4 494.6 248.4 C 494.7 247.8 494.8 247.2 494.9 248.4 C 495.2 246.5 494.5 245.5 494.9 242.6 C 494.9 242.6 494.9 242.6 494.9 242.6 Z M 493.4 135.2 C 493.5 136.0 493.6 137.9 493.4 138.0 C 493.4 139.1 493.7 139.0 493.8 139.2 C 493.9 141.5 493.2 138.3 493.4 141.9 C 494.2 143.7 494.3 136.5 493.4 135.2 C 493.4 135.2 493.4 135.2 493.4 135.2 Z M 684.3 166.7 C 684.0 168.1 683.7 164.9 683.4 165.8 C 683.7 171.1 684.1 167.0 684.0 174.3 C 684.1 173.9 684.2 173.3 684.4 173.4 C 684.2 170.0 684.0 169.7 684.7 170.5 C 684.7 169.0 683.8 168.6 684.3 166.7 C 684.3 166.7 684.3 166.7 684.3 166.7 Z M 682.6 234.7 C 682.7 234.2 682.8 233.7 683.0 233.8 C 682.8 231.5 682.7 232.0 682.9 229.1 C 682.3 229.2 682.3 232.1 682.6 234.7 C 682.6 234.7 682.6 234.7 682.6 234.7 Z M 601.3 332.3 C 600.7 332.3 600.0 332.3 599.4 332.3 C 600.0 332.5 598.5 333.1 601.7 332.9 C 601.8 332.8 601.3 332.8 600.7 332.8 C 601.2 332.7 602.7 332.7 602.3 332.4 C 601.5 332.4 601.4 332.4 601.3 332.3 C 601.3 332.3 601.3 332.3 601.3 332.3 Z M 526.6 335.9 C 530.3 335.5 521.0 334.6 526.6 335.9 C 526.6 335.9 526.6 335.9 526.6 335.9 C 526.6 335.9 526.6 335.9 526.6 335.9 Z M 535.4 340.5 C 535.5 340.6 536.3 340.6 536.3 340.5 C 539.6 340.6 536.5 340.8 538.3 341.0 C 540.9 340.7 536.9 340.3 540.1 340.1 C 539.4 339.8 537.3 340.5 535.4 340.5 C 535.4 340.5 535.4 340.5 535.4 340.5 Z M 654.8 -2.3 C 651.9 -2.2 650.9 -1.8 650.2 -1.4 C 652.0 -1.4 653.6 -1.3 654.0 -1.1 C 657.7 -1.3 651.9 -1.4 651.3 -1.5 C 651.9 -1.8 654.5 -1.9 654.8 -2.3 C 654.8 -2.3 654.8 -2.3 654.8 -2.3 Z M 645.6 -2.2 C 644.3 -2.0 642.5 -1.8 642.2 -1.5 C 644.0 -1.6 644.1 -1.4 644.1 -1.2 C 645.8 -1.5 644.0 -1.7 645.6 -2.2 C 645.6 -2.2 645.6 -2.2 645.6 -2.2 Z M 662.5 -1.8 C 661.2 -1.7 661.5 -1.4 661.2 -1.2 C 663.1 -1.3 663.2 -1.1 665.1 -1.1 C 665.2 -1.2 665.3 -1.4 665.4 -1.5 C 663.9 -1.5 663.6 -1.4 662.3 -1.4 C 662.4 -1.5 662.4 -1.6 662.5 -1.8 C 662.5 -1.8 662.5 -1.8 662.5 -1.8 Z M 636.3 -1.6 C 631.0 -1.7 628.3 -1.0 624.7 -0.5 C 628.6 -0.5 632.3 -1.4 634.9 -1.1 C 638.3 -1.2 634.0 -1.4 634.1 -1.5 C 634.3 -1.6 635.5 -1.6 636.3 -1.6 C 636.3 -1.6 636.3 -1.6 636.3 -1.6 Z M 589.8 -1.6 C 588.7 -1.9 586.8 -1.3 583.7 -1.4 C 584.3 -1.3 584.8 -1.2 584.8 -1.0 C 589.1 -0.9 586.6 -1.6 589.8 -1.6 C 589.8 -1.6 589.8 -1.6 589.8 -1.6 Z M 564.7 -1.4 C 562.0 -1.3 566.1 -1.1 564.8 -0.9 C 567.7 -0.9 570.9 -0.8 570.7 -1.2 C 567.6 -1.0 566.9 -1.0 564.7 -1.4 C 564.7 -1.4 564.7 -1.4 564.7 -1.4 Z M 546.5 -1.4 C 543.7 -1.2 548.0 -0.9 546.9 -0.5 C 548.1 -0.5 547.7 -0.7 547.7 -0.9 C 548.6 -0.8 549.4 -0.7 550.8 -0.7 C 549.7 -1.0 546.3 -0.9 546.5 -1.4 C 546.5 -1.4 546.5 -1.4 546.5 -1.4 Z M 690.3 35.4 C 690.2 33.7 689.7 34.5 689.9 30.8 C 689.8 36.4 688.7 34.2 688.8 41.3 C 689.0 40.1 689.2 40.7 689.0 41.2 C 689.2 43.8 689.2 38.5 689.6 40.8 C 689.6 38.8 689.1 40.3 689.1 38.3 C 689.5 35.9 689.7 34.5 690.3 35.4 C 690.3 35.4 690.3 35.4 690.3 35.4 Z M 688.5 41.6 C 688.3 43.7 689.1 43.1 688.7 44.4 C 688.7 45.4 688.9 45.0 689.0 45.2 C 689.0 44.4 689.0 44.3 689.1 44.1 C 689.0 42.5 688.9 40.9 688.5 41.6 C 688.5 41.6 688.5 41.6 688.5 41.6 Z M 688.5 23.1 C 688.6 26.2 688.4 27.4 688.7 28.8 C 688.1 30.4 689.0 30.8 688.5 32.9 C 688.6 36.0 688.7 33.5 689.0 32.5 C 689.1 35.5 688.6 33.6 688.7 36.6 C 689.2 36.8 689.0 32.9 689.5 33.0 C 689.5 30.6 689.2 30.8 689.1 29.4 C 689.1 28.2 689.3 28.4 689.5 28.1 C 689.4 25.4 689.7 25.4 689.6 23.1 C 689.3 22.8 689.1 23.9 689.2 26.4 C 689.1 23.9 688.8 23.0 689.0 19.8 C 689.4 21.6 689.5 11.6 688.8 13.0 C 688.8 15.8 689.1 14.7 689.2 15.6 C 688.9 19.4 688.9 21.4 688.5 23.1 C 688.5 23.1 688.5 23.1 688.5 23.1 Z M 662.7 -0.5 C 661.8 -0.5 661.1 -0.6 659.7 -0.6 C 659.9 -0.9 661.6 -0.9 660.1 -1.1 C 658.0 -1.2 657.4 -1.0 656.0 -1.0 C 656.7 -0.8 660.9 -0.4 658.4 -0.2 C 659.0 -0.0 660.4 0.0 662.2 0.1 C 660.5 -0.5 665.2 0.0 667.2 0.1 C 667.5 -0.5 670.6 0.2 672.4 -0.2 C 671.5 -0.6 667.1 -0.2 665.4 -0.2 C 666.3 -0.3 661.1 -1.1 662.7 -0.5 C 662.7 -0.5 662.7 -0.5 662.7 -0.5 Z M 688.7 49.3 C 688.8 49.8 688.9 51.9 689.0 50.1 C 689.1 50.9 688.9 52.9 689.5 51.7 C 689.5 52.7 689.5 53.7 689.5 54.6 C 689.3 54.4 689.4 51.7 689.0 53.0 C 689.2 54.9 689.0 54.2 689.0 56.9 C 688.6 55.7 688.6 57.3 688.1 56.6 C 688.3 57.2 688.3 59.6 688.6 59.2 C 688.5 62.9 688.0 58.5 688.1 63.4 C 687.7 63.5 687.8 60.0 687.9 58.6 C 687.5 58.2 687.8 64.8 687.7 68.5 C 688.0 65.1 688.4 67.4 688.7 68.8 C 688.6 70.0 688.4 69.0 688.2 71.1 C 688.2 72.7 688.4 73.5 688.2 74.1 C 688.2 75.4 688.5 74.6 688.7 74.7 C 688.7 77.0 688.1 75.6 688.2 78.9 C 688.8 76.1 688.9 78.9 688.7 83.5 C 688.9 83.1 688.9 81.7 689.1 81.4 C 689.4 81.9 688.9 84.8 688.7 85.5 C 688.8 87.1 689.0 85.9 689.0 84.4 C 689.1 85.3 689.2 86.2 689.4 87.2 C 689.4 82.3 689.3 74.6 689.9 65.2 C 689.6 67.2 689.5 65.2 689.6 62.4 C 689.8 61.9 689.9 63.0 689.9 64.3 C 690.4 60.8 689.3 61.7 689.6 56.6 C 689.7 53.8 689.9 59.4 690.1 56.2 C 690.0 54.5 689.7 53.5 690.1 52.3 C 690.0 49.2 689.5 48.7 689.5 43.8 C 689.3 46.8 688.4 48.7 688.6 51.4 C 688.7 51.3 688.7 50.0 688.7 49.3 C 688.7 49.3 688.7 49.3 688.7 49.3 Z M 644.0 -1.0 C 642.2 -1.0 641.2 -0.8 640.9 -1.0 C 637.9 -0.9 641.1 -0.5 641.7 -0.5 C 643.1 -0.6 643.7 -0.7 644.0 -1.0 C 644.0 -1.0 644.0 -1.0 644.0 -1.0 Z M 490.0 145.8 C 489.9 149.4 490.4 148.9 490.4 151.9 C 490.6 149.6 490.9 149.2 490.8 145.2 C 490.5 144.9 490.2 144.7 490.0 145.8 C 490.0 145.8 490.0 145.8 490.0 145.8 Z M 653.8 -0.7 C 656.5 -1.2 650.6 -0.2 650.8 -0.6 C 647.8 -0.3 653.3 -0.4 650.4 0.1 C 653.0 -0.2 654.2 0.2 657.4 -0.1 C 657.4 -0.4 655.0 -0.4 652.6 -0.3 C 652.4 -0.5 653.7 -0.6 653.8 -0.7 C 653.8 -0.7 653.8 -0.7 653.8 -0.7 Z M 491.1 108.4 C 490.8 105.7 490.4 110.3 490.2 111.7 C 490.7 112.2 490.6 111.4 491.1 108.4 C 491.1 108.4 491.1 108.4 491.1 108.4 Z M 490.7 171.4 C 491.2 173.1 490.7 167.1 491.2 168.8 C 491.3 167.1 491.1 166.8 491.0 166.6 C 491.1 165.9 491.0 163.1 491.3 164.0 C 491.7 163.7 491.3 168.3 491.7 167.0 C 491.8 168.7 491.6 168.7 491.6 169.9 C 491.6 167.1 491.2 168.2 491.1 171.6 C 491.4 171.8 491.3 170.2 491.6 171.9 C 491.4 172.0 491.1 173.6 490.6 173.3 C 490.6 176.3 491.3 174.9 491.2 178.4 C 491.5 178.3 491.5 176.0 491.6 174.7 C 492.0 175.3 491.3 178.4 491.9 177.8 C 491.5 178.4 491.4 180.4 491.0 180.3 C 490.8 177.5 490.5 175.5 490.3 173.2 C 490.1 175.1 491.0 178.6 490.6 182.0 C 490.9 181.8 490.9 183.9 491.2 183.4 C 491.1 186.2 490.6 184.6 490.6 184.0 C 490.3 184.7 490.5 190.2 490.8 190.0 C 490.5 190.2 490.6 196.9 491.1 196.8 C 490.8 198.7 491.4 202.0 490.8 202.6 C 491.0 203.8 491.0 206.1 491.0 208.5 C 491.4 209.4 491.2 205.0 491.5 204.9 C 491.8 204.2 491.4 209.4 491.7 208.8 C 491.8 208.9 491.9 208.9 492.0 208.9 C 491.9 206.9 491.8 204.9 491.6 202.9 C 491.7 201.5 491.8 203.4 492.0 203.1 C 491.8 201.7 491.3 195.2 492.0 195.3 C 491.8 191.1 491.9 188.2 491.6 186.4 C 491.6 183.9 491.8 187.9 492.1 186.6 C 491.6 179.1 492.2 170.5 491.6 164.1 C 491.7 162.8 491.9 163.5 492.1 163.4 C 491.9 154.9 491.3 161.7 491.5 155.3 C 491.8 155.5 491.8 158.5 492.1 158.6 C 492.1 156.3 491.9 155.6 492.0 152.6 C 491.8 152.5 491.7 152.4 491.5 152.3 C 491.5 149.9 492.0 151.1 492.1 149.9 C 492.0 146.7 491.8 147.3 492.3 146.1 C 492.1 143.0 491.9 140.1 492.1 137.2 C 491.9 135.1 491.2 138.5 491.2 141.6 C 491.1 141.3 491.1 140.5 491.0 140.4 C 491.3 137.0 492.1 136.9 492.1 131.4 C 491.7 135.3 491.9 129.1 492.3 128.6 C 492.2 126.3 491.7 127.7 491.7 129.2 C 491.6 128.8 491.7 127.5 491.9 127.4 C 491.3 126.7 491.0 131.9 491.2 137.6 C 490.5 134.6 491.3 141.6 490.4 138.2 C 490.6 142.8 491.1 139.2 491.0 144.3 C 491.2 143.9 491.3 143.0 491.5 142.7 C 491.6 146.6 491.0 145.1 491.1 149.3 C 491.4 150.1 491.3 147.4 491.6 147.6 C 491.2 151.8 491.1 153.2 490.7 155.9 C 490.9 156.6 491.3 156.0 491.1 160.9 C 491.0 160.9 490.9 160.8 490.8 160.8 C 490.9 158.5 490.2 157.5 490.2 163.4 C 490.5 163.9 490.4 162.1 490.4 160.6 C 490.7 161.4 490.8 163.3 490.8 165.6 C 490.8 166.7 490.6 168.0 490.6 166.4 C 490.2 167.2 490.9 168.4 490.7 171.4 C 490.7 171.4 490.7 171.4 490.7 171.4 Z M 594.8 -0.7 C 594.0 -0.7 593.2 -0.6 591.8 -0.6 C 591.1 -0.2 593.8 -0.3 593.8 -0.1 C 595.9 -0.1 594.3 -0.5 594.8 -0.7 C 594.8 -0.7 594.8 -0.7 594.8 -0.7 Z M 622.7 -0.5 C 622.6 -0.8 621.0 -0.3 618.7 -0.5 C 617.9 -0.1 620.7 -0.2 620.6 0.1 C 623.3 0.2 620.1 -0.6 622.7 -0.5 C 622.7 -0.5 622.7 -0.5 622.7 -0.5 Z M 610.7 -0.5 C 609.7 -0.8 609.6 -0.3 611.8 -0.3 C 611.5 -0.1 611.0 0.1 609.6 0.2 C 611.0 0.6 612.1 -0.1 614.6 0.1 C 613.8 -0.2 612.4 -0.3 610.7 -0.5 C 610.7 -0.5 610.7 -0.5 610.7 -0.5 Z M 606.7 -0.5 C 605.2 -0.2 604.3 -0.6 601.8 -0.3 C 602.3 -0.1 607.9 -0.2 608.8 -0.3 C 609.7 -0.6 603.7 -0.6 606.7 -0.5 C 606.7 -0.5 606.7 -0.5 606.7 -0.5 Z M 491.6 70.0 C 491.6 71.0 491.8 70.9 491.9 71.2 C 491.3 73.7 491.4 78.0 490.8 74.2 C 491.2 77.6 490.7 80.2 490.6 82.8 C 490.5 85.0 490.9 84.2 491.0 86.0 C 490.9 88.8 490.8 84.3 490.6 84.7 C 490.3 85.1 491.0 86.5 490.7 89.7 C 491.4 89.2 490.6 92.6 491.3 92.0 C 491.1 93.8 491.3 94.5 491.3 97.0 C 491.6 96.9 491.6 94.5 491.9 94.4 C 492.3 93.5 491.5 92.8 491.6 95.2 C 491.2 93.6 491.8 90.6 491.5 89.3 C 491.9 88.4 491.6 92.5 492.0 91.6 C 491.9 90.7 491.9 89.8 491.7 89.5 C 491.8 88.1 491.9 87.3 492.1 86.9 C 492.1 87.7 492.1 87.8 492.0 87.7 C 492.0 89.5 492.6 86.4 492.6 90.2 C 492.8 89.6 492.8 88.0 493.0 88.5 C 493.3 87.5 491.9 87.7 492.4 84.1 C 492.0 81.3 492.0 89.9 491.2 87.1 C 491.3 81.8 491.9 85.3 492.0 81.0 C 491.8 80.9 491.6 80.8 491.6 79.7 C 491.5 79.7 491.5 81.4 491.5 82.5 C 491.3 82.2 491.4 80.6 491.3 79.5 C 491.2 79.6 491.2 80.4 491.1 80.3 C 491.2 76.7 492.1 77.7 492.3 81.2 C 492.6 81.4 492.6 76.8 492.4 75.4 C 492.1 76.4 492.1 75.1 491.7 75.9 C 491.7 76.8 491.9 76.8 492.0 77.1 C 491.9 78.7 491.8 77.0 491.6 76.8 C 491.7 74.9 492.0 75.2 491.7 73.0 C 491.8 73.6 491.9 74.1 492.1 74.3 C 492.1 73.3 492.1 72.3 492.1 71.4 C 491.9 71.3 491.9 70.0 491.6 70.0 C 491.6 70.0 491.6 70.0 491.6 70.0 Z M 490.6 119.8 C 490.5 122.9 490.8 121.4 490.8 119.9 C 490.9 120.7 491.0 121.9 491.1 123.0 C 491.2 122.2 491.1 121.3 491.2 118.3 C 491.7 121.3 492.5 119.0 492.4 114.1 C 491.6 112.2 491.5 116.2 491.1 114.3 C 491.3 118.0 491.1 119.7 490.6 119.8 C 490.6 119.8 490.6 119.8 490.6 119.8 Z M 641.6 -0.3 C 639.6 -0.3 637.6 -0.3 635.7 -0.3 C 635.7 0.0 641.7 0.3 641.6 -0.3 C 641.6 -0.3 641.6 -0.3 641.6 -0.3 Z M 688.8 91.3 C 688.9 92.1 688.8 92.2 688.7 92.4 C 688.8 95.2 689.0 90.9 689.4 92.1 C 689.4 91.0 689.4 90.1 689.4 89.1 C 689.2 89.0 689.0 93.3 688.8 90.3 C 688.7 90.6 688.8 91.3 688.8 91.3 C 688.8 91.3 688.8 91.3 688.8 91.3 Z M 596.8 -0.2 C 594.9 -0.1 596.1 0.5 591.7 0.3 C 593.3 0.6 594.2 0.5 596.7 0.4 C 596.8 0.2 596.8 0.0 596.8 -0.2 C 596.8 -0.2 596.8 -0.2 596.8 -0.2 Z M 491.0 54.9 C 490.6 57.0 491.5 58.4 491.2 62.9 C 491.7 60.9 491.1 57.8 491.0 54.9 C 491.0 54.9 491.0 54.9 491.0 54.9 Z M 491.6 216.5 C 491.7 215.2 491.8 217.0 492.0 214.7 C 491.9 213.3 491.6 212.7 491.6 210.7 C 491.2 213.3 491.6 218.3 491.0 220.1 C 491.0 222.5 491.5 222.5 491.7 223.3 C 491.7 222.2 491.8 221.6 491.9 221.5 C 491.3 219.8 492.2 218.5 491.6 216.5 C 491.6 216.5 491.6 216.5 491.6 216.5 Z M 491.2 107.6 C 491.4 105.9 491.6 109.1 491.9 109.9 C 491.8 111.2 491.5 110.5 491.3 110.6 C 491.4 112.3 491.6 112.9 491.9 112.8 C 492.0 109.7 492.0 105.7 492.5 108.5 C 492.6 105.4 492.1 106.8 492.0 105.2 C 492.3 103.7 492.4 105.3 492.8 105.7 C 492.7 104.9 492.2 102.2 492.8 102.8 C 492.2 97.8 491.6 99.4 491.0 102.5 C 491.4 105.9 491.5 102.4 491.2 107.6 C 491.2 107.6 491.2 107.6 491.2 107.6 Z M 507.9 0.6 C 507.5 0.4 505.8 0.5 505.6 0.3 C 503.8 0.7 502.4 1.1 500.8 1.5 C 501.5 1.8 503.9 1.5 502.5 1.2 C 503.6 1.5 505.6 1.6 507.0 1.9 C 509.0 1.9 509.0 1.1 509.8 1.7 C 511.5 1.5 510.4 1.5 513.6 1.6 C 508.3 1.2 515.2 1.4 515.1 1.0 C 512.2 0.9 509.7 0.9 510.4 1.4 C 508.2 1.2 505.8 1.1 505.0 0.7 C 505.1 0.6 506.7 0.6 507.9 0.6 C 507.9 0.6 507.9 0.6 507.9 0.6 Z M 497.2 1.7 C 497.9 1.7 498.6 1.6 499.9 1.6 C 499.0 1.5 498.6 1.3 498.5 1.1 C 496.0 1.1 495.6 1.4 494.4 1.0 C 492.2 0.9 495.2 1.5 492.4 1.4 C 492.4 1.5 492.4 1.7 492.4 1.9 C 492.4 1.9 492.5 1.7 492.5 1.4 C 493.1 1.5 494.0 1.5 494.1 1.6 C 494.1 1.3 495.5 1.3 497.2 1.7 C 497.2 1.7 497.2 1.7 497.2 1.7 Z M 492.0 26.7 C 492.0 29.2 492.2 25.5 492.5 27.1 C 492.5 26.4 492.6 21.7 492.9 22.7 C 493.4 21.8 492.4 15.9 493.0 17.0 C 493.0 15.8 492.8 16.0 492.6 15.7 C 492.8 19.2 492.4 18.9 492.4 16.3 C 492.2 16.6 492.3 18.7 492.3 20.1 C 492.5 20.5 492.5 19.2 492.8 19.6 C 492.6 22.4 492.2 24.2 492.0 26.7 C 492.0 26.7 492.0 26.7 492.0 26.7 Z M 688.1 197.8 C 688.1 195.5 688.0 194.1 687.9 192.9 C 687.7 193.6 687.9 194.7 687.9 195.9 C 687.7 196.1 687.7 195.1 687.7 193.9 C 687.3 194.9 687.7 199.1 688.1 197.8 C 688.1 197.8 688.1 197.8 688.1 197.8 Z M 688.1 178.3 C 688.1 176.2 688.0 174.7 687.8 174.4 C 687.6 175.3 687.9 175.0 687.9 176.4 C 687.8 177.3 687.7 177.8 687.5 178.3 C 687.5 179.3 687.7 179.1 687.8 179.4 C 687.8 180.1 687.7 180.2 687.7 180.3 C 688.0 183.0 687.6 177.2 688.1 178.3 C 688.1 178.3 688.1 178.3 688.1 178.3 Z M 492.3 10.5 C 492.4 9.8 492.7 9.4 492.6 7.0 C 492.4 7.2 492.4 5.3 492.4 3.8 C 492.1 5.8 492.2 7.0 492.3 10.5 C 492.3 10.5 492.3 10.5 492.3 10.5 Z M 687.8 56.7 C 688.2 53.6 687.5 54.3 687.8 49.9 C 687.7 50.0 687.5 50.1 687.4 50.2 C 687.7 52.5 687.5 53.8 687.8 56.7 C 687.8 56.7 687.8 56.7 687.8 56.7 Z M 567.9 338.4 C 568.1 338.1 565.1 338.3 564.8 338.0 C 564.5 338.6 562.6 337.6 557.0 337.7 C 556.8 337.6 557.2 337.5 557.9 337.5 C 553.3 337.4 559.4 337.9 560.1 338.3 C 563.6 338.2 564.3 338.5 567.9 338.4 C 567.9 338.4 567.9 338.4 567.9 338.4 Z M 492.8 187.9 C 492.7 187.7 492.7 188.3 492.6 188.8 C 492.6 189.5 492.6 190.1 492.6 190.7 C 493.2 190.7 493.4 187.6 493.9 190.3 C 494.0 189.5 493.9 189.4 493.8 189.3 C 492.7 184.1 494.6 181.3 493.8 174.9 C 493.8 173.9 493.7 174.0 493.6 173.8 C 493.6 174.6 493.5 174.6 493.4 174.7 C 494.0 175.7 493.4 180.9 493.2 178.4 C 493.0 178.5 493.1 179.3 493.2 179.3 C 493.2 180.0 493.2 180.7 493.2 181.3 C 493.3 181.0 493.4 179.7 493.6 179.5 C 493.4 182.6 493.3 186.3 492.8 184.1 C 492.8 186.0 493.0 186.7 493.2 188.1 C 493.1 189.3 492.8 189.2 492.8 187.9 C 492.8 187.9 492.8 187.9 492.8 187.9 Z M 492.9 213.1 C 492.8 216.0 493.3 215.1 493.2 218.0 C 493.5 216.3 493.0 213.7 493.3 211.3 C 493.1 211.6 493.1 212.9 492.9 213.1 C 492.9 213.1 492.9 213.1 492.9 213.1 Z M 493.4 157.4 C 493.9 158.2 493.9 155.6 493.9 152.7 C 493.5 151.9 493.4 154.4 493.4 157.4 C 493.4 157.4 493.4 157.4 493.4 157.4 Z M 493.4 169.9 C 493.6 172.8 493.5 166.3 493.9 168.2 C 493.9 166.8 493.9 165.4 494.1 165.4 C 494.0 164.3 493.8 164.2 493.8 162.4 C 493.6 162.3 493.7 165.5 493.4 165.1 C 493.7 167.4 493.7 167.7 493.4 169.9 C 493.4 169.9 493.4 169.9 493.4 169.9 Z M 493.4 171.8 C 493.6 173.7 494.2 171.7 494.2 169.3 C 493.9 170.0 493.6 170.4 493.4 171.8 C 493.4 171.8 493.4 171.8 493.4 171.8 Z M 550.1 2.5 C 548.8 2.6 550.0 2.9 548.4 2.9 C 548.5 3.1 554.2 3.1 549.4 3.2 C 551.4 3.6 552.1 3.0 554.2 3.1 C 553.5 2.9 552.9 2.8 554.1 2.8 C 554.7 2.4 549.6 2.9 550.1 2.5 C 550.1 2.5 550.1 2.5 550.1 2.5 Z M 544.3 2.5 C 543.2 2.5 543.8 2.7 544.4 2.7 C 544.3 2.8 542.7 2.8 541.5 2.8 C 541.4 2.6 543.9 3.4 544.0 3.7 C 548.7 3.4 544.7 3.0 544.3 2.5 C 544.3 2.5 544.3 2.5 544.3 2.5 Z M 539.7 2.8 C 536.3 2.4 531.9 2.5 530.0 2.9 C 532.6 3.5 538.4 3.3 539.7 2.8 C 539.7 2.8 539.7 2.8 539.7 2.8 Z M 571.5 2.9 C 565.6 2.4 554.4 3.1 564.9 3.4 C 564.4 3.2 571.1 3.0 574.4 3.2 C 574.5 3.0 578.1 2.7 578.3 2.9 C 580.8 2.6 570.1 2.6 571.5 2.9 C 571.5 2.9 571.5 2.9 571.5 2.9 Z M 526.7 3.7 C 528.2 3.5 525.6 2.8 528.3 3.1 C 529.6 3.0 527.8 2.9 528.0 2.7 C 525.0 2.7 519.2 3.1 518.3 2.7 C 516.9 2.8 516.6 3.1 513.8 3.1 C 513.9 3.2 523.8 2.7 526.5 3.4 C 526.5 3.6 522.8 3.7 526.7 3.7 C 526.7 3.7 526.7 3.7 526.7 3.7 Z M 685.5 58.3 C 685.8 58.4 685.6 54.5 686.0 55.1 C 685.5 53.2 685.8 51.0 685.5 48.8 C 685.6 47.9 686.2 47.8 686.2 44.4 C 685.9 44.5 686.0 46.1 685.7 44.7 C 685.7 41.7 686.1 42.2 686.0 38.7 C 685.3 39.8 685.9 31.3 685.2 32.6 C 685.2 34.5 685.6 34.1 685.5 37.3 C 685.4 38.3 685.2 38.0 685.2 39.3 C 684.8 38.7 685.4 36.7 685.1 35.6 C 684.8 36.1 684.8 38.4 684.6 38.9 C 684.6 40.3 684.7 38.4 684.9 38.6 C 685.0 42.3 684.0 39.1 684.2 43.0 C 684.5 41.9 684.6 41.9 684.9 42.4 C 684.8 44.2 685.0 48.9 684.6 46.6 C 684.3 47.0 684.7 49.7 684.9 49.2 C 685.0 50.7 684.8 51.0 684.7 51.2 C 684.8 55.2 685.2 55.5 685.6 54.4 C 686.0 55.0 685.3 56.0 685.5 58.3 C 685.5 58.3 685.5 58.3 685.5 58.3 Z M 602.3 3.0 C 604.6 2.8 599.8 3.2 597.5 3.0 C 600.2 3.1 599.3 3.7 602.2 3.7 C 601.2 3.5 601.4 3.4 603.3 3.4 C 603.8 3.2 599.6 3.1 602.3 3.0 C 602.3 3.0 602.3 3.0 602.3 3.0 Z M 508.0 3.0 C 506.7 2.8 501.9 3.0 499.2 2.9 C 500.3 3.5 505.8 2.7 507.3 3.3 C 508.7 3.3 506.2 3.1 508.0 3.0 C 508.0 3.0 508.0 3.0 508.0 3.0 Z M 686.0 21.4 C 686.0 20.4 685.9 21.0 685.9 21.5 C 685.7 21.4 685.7 19.2 685.7 17.8 C 685.4 20.2 685.3 17.6 684.9 18.5 C 685.0 17.3 684.9 16.8 684.8 16.7 C 685.5 16.0 684.4 11.1 684.3 17.2 C 684.7 15.7 684.7 16.2 684.8 18.6 C 684.5 21.6 684.9 23.4 684.4 24.7 C 684.5 26.4 684.7 26.9 684.7 29.2 C 684.4 30.1 684.2 32.3 683.6 31.0 C 683.6 35.2 684.6 31.6 684.7 35.0 C 684.4 38.5 684.2 33.7 683.9 34.7 C 683.9 35.6 683.7 35.5 683.6 35.9 C 683.7 37.0 684.0 36.7 684.0 35.5 C 684.2 35.8 684.5 38.9 684.0 38.3 C 684.2 40.1 685.2 34.4 684.8 32.0 C 684.8 30.5 685.5 29.8 685.5 31.5 C 685.8 30.6 684.9 28.2 685.7 28.4 C 685.7 27.0 685.7 25.8 685.7 24.5 C 685.6 24.8 685.6 25.6 685.5 25.7 C 685.5 24.5 685.5 23.2 685.5 21.8 C 685.7 22.8 685.8 22.7 686.0 21.4 C 686.0 21.4 686.0 21.4 686.0 21.4 Z M 520.6 3.2 C 518.2 3.2 517.8 3.4 516.0 3.4 C 516.9 3.7 522.0 3.6 520.6 3.2 C 520.6 3.2 520.6 3.2 520.6 3.2 Z M 684.3 75.3 C 684.4 75.0 684.4 73.3 684.6 73.2 C 684.7 76.1 684.9 72.7 685.6 74.6 C 685.2 71.0 684.3 70.2 684.0 75.5 C 684.1 79.2 684.2 71.6 684.3 75.3 C 684.3 75.3 684.3 75.3 684.3 75.3 Z M 684.6 63.7 C 684.4 61.5 684.2 67.4 684.0 68.8 C 683.9 68.9 683.8 69.0 683.6 69.1 C 684.2 71.9 684.4 67.5 685.2 70.0 C 685.4 66.1 685.5 64.4 685.3 61.3 C 685.2 61.6 685.3 62.3 685.3 62.2 C 685.3 64.7 684.7 63.4 684.9 60.6 C 684.7 61.5 684.7 63.8 684.7 65.5 C 684.8 65.0 684.9 64.4 685.1 64.4 C 685.1 66.4 684.8 65.8 684.8 67.3 C 684.6 67.4 684.3 63.9 684.6 63.7 C 684.6 63.7 684.6 63.7 684.6 63.7 Z M 685.2 252.0 C 685.1 250.0 684.6 253.7 684.0 253.2 C 684.0 255.2 684.1 255.8 684.2 257.1 C 684.4 256.6 684.5 254.4 684.7 253.6 C 685.2 254.2 684.6 256.5 684.9 257.5 C 685.5 259.0 684.7 252.6 685.2 252.0 C 685.2 252.0 685.2 252.0 685.2 252.0 Z M 658.5 3.8 C 657.5 3.8 658.0 4.0 658.4 4.0 C 658.1 4.1 656.5 4.1 656.6 4.0 C 655.0 4.0 657.2 4.2 655.5 4.2 C 654.9 4.5 658.2 4.2 658.3 4.1 C 660.5 4.1 658.5 4.6 658.9 4.7 C 660.7 4.7 660.3 4.4 662.9 4.5 C 661.5 4.3 660.2 4.0 658.5 3.8 C 658.5 3.8 658.5 3.8 658.5 3.8 Z M 685.1 81.5 C 685.2 81.8 684.5 79.6 684.8 76.9 C 684.8 73.6 684.4 79.2 684.4 76.2 C 684.3 78.8 684.6 81.7 684.7 85.6 C 684.9 86.4 684.8 80.1 684.9 83.6 C 685.1 83.3 685.0 82.5 684.9 82.5 C 684.9 81.8 685.0 81.7 685.1 81.5 C 685.1 81.5 685.1 81.5 685.1 81.5 Z M 684.2 78.2 C 684.0 78.5 684.1 79.3 684.2 79.2 C 684.1 80.4 683.8 80.6 683.8 79.4 C 683.3 81.3 684.1 80.7 683.9 84.1 C 684.2 82.5 684.5 81.8 684.2 84.9 C 684.5 87.1 684.4 79.2 684.2 78.2 C 684.2 78.2 684.2 78.2 684.2 78.2 Z M 684.9 221.2 C 684.8 221.5 684.8 223.5 684.8 225.0 C 684.5 223.1 684.7 215.4 684.9 214.5 C 684.9 213.7 684.8 212.8 684.9 212.6 C 684.8 212.6 684.6 210.5 684.6 211.5 C 684.4 211.3 684.5 209.7 684.3 209.6 C 684.4 206.8 684.6 210.5 684.8 209.7 C 684.4 206.2 684.7 207.0 684.8 203.0 C 684.4 203.6 684.6 208.1 684.0 207.6 C 684.5 210.9 684.2 214.2 683.8 216.1 C 684.4 213.3 684.7 224.5 684.5 229.7 C 684.3 229.4 684.4 231.3 684.1 233.3 C 683.8 234.7 684.6 234.6 684.4 231.6 C 684.7 231.8 684.5 235.6 684.5 237.3 C 684.8 235.4 684.9 236.6 685.1 235.7 C 685.1 231.9 685.0 235.2 684.7 234.5 C 684.7 233.5 684.7 232.6 684.7 231.6 C 685.3 236.9 684.8 224.4 684.8 228.8 C 684.8 224.9 685.2 225.0 684.9 221.2 C 684.9 221.2 684.9 221.2 684.9 221.2 Z M 685.1 131.3 C 685.0 130.7 684.7 127.7 685.1 127.5 C 684.8 123.7 684.4 127.2 684.4 122.9 C 684.3 123.2 684.3 124.8 684.2 124.9 C 684.3 126.5 684.4 128.2 684.8 127.6 C 684.8 129.6 684.9 130.1 684.9 131.4 C 684.8 131.0 684.7 130.2 684.7 128.6 C 684.3 128.4 684.1 129.1 684.2 131.6 C 684.5 132.6 684.8 131.8 685.1 131.3 C 685.1 131.3 685.1 131.3 685.1 131.3 Z M 684.6 121.9 C 684.7 121.4 684.8 120.8 684.9 120.8 C 685.4 119.3 684.4 120.4 684.4 119.0 C 684.4 117.9 684.7 118.2 684.8 118.0 C 684.7 116.3 684.7 115.1 684.8 114.2 C 684.6 111.6 684.5 117.3 684.3 118.2 C 684.3 120.0 684.6 119.3 684.6 121.9 C 684.6 121.9 684.6 121.9 684.6 121.9 Z M 684.9 93.1 C 685.3 92.4 684.7 91.7 684.8 90.3 C 684.4 91.4 684.7 94.1 684.2 92.5 C 684.0 95.3 684.0 95.5 684.2 98.2 C 683.8 100.2 684.5 98.2 684.3 95.3 C 684.5 95.6 684.5 96.9 684.7 97.0 C 683.9 99.2 685.1 103.5 684.6 100.9 C 684.6 100.0 684.8 99.4 684.9 98.8 C 684.6 98.3 684.8 91.7 684.9 93.1 C 684.9 93.1 684.9 93.1 684.9 93.1 Z M 677.9 4.6 C 681.4 4.5 681.7 4.5 684.6 4.6 C 684.6 4.9 684.6 5.2 684.6 5.5 C 684.4 5.8 684.3 5.6 684.3 4.9 C 684.1 5.9 684.2 7.0 684.3 8.6 C 684.4 8.3 684.4 7.6 684.3 7.7 C 684.6 4.3 684.6 6.9 684.9 7.0 C 685.0 6.0 685.0 5.0 685.0 4.1 C 682.5 4.2 680.2 4.5 679.3 4.1 C 677.8 4.2 679.4 4.3 677.9 4.6 C 677.9 4.6 677.9 4.6 677.9 4.6 Z M 570.5 335.1 C 570.0 335.3 568.4 335.3 568.7 335.5 C 570.1 335.5 571.1 335.3 572.5 335.3 C 569.7 335.2 569.9 334.6 566.4 334.6 C 567.6 334.8 567.5 335.2 570.5 335.1 C 570.5 335.1 570.5 335.1 570.5 335.1 Z M 684.8 102.7 C 684.6 102.9 684.4 103.1 684.4 101.9 C 684.1 101.7 684.3 104.7 684.0 104.9 C 684.1 105.9 684.3 105.4 684.3 106.7 C 684.5 106.2 684.4 103.7 684.8 104.6 C 684.8 105.4 684.8 105.5 684.7 105.7 C 684.9 107.5 685.0 104.5 684.8 102.7 C 684.8 102.7 684.8 102.7 684.8 102.7 Z M 684.8 261.3 C 684.8 259.9 684.6 261.1 684.6 262.1 C 684.1 259.1 683.9 263.5 683.5 263.4 C 683.8 262.4 683.6 258.5 683.8 257.9 C 683.7 256.8 683.3 257.9 683.3 254.8 C 682.9 255.0 683.2 258.5 683.5 257.8 C 683.0 258.3 683.6 261.9 683.1 261.3 C 683.0 265.5 683.3 266.7 683.8 267.4 C 683.6 263.1 684.3 265.6 684.2 261.9 C 684.3 262.0 684.3 263.1 684.3 263.9 C 684.6 263.7 684.6 262.2 684.8 261.3 C 684.8 261.3 684.8 261.3 684.8 261.3 Z M 684.8 162.0 C 684.8 159.8 684.5 159.9 684.2 160.0 C 684.3 160.9 684.3 162.2 684.3 163.8 C 684.5 163.5 684.4 160.9 684.8 162.0 C 684.8 162.0 684.8 162.0 684.8 162.0 Z M 684.3 245.7 C 684.4 245.6 684.4 244.9 684.3 244.8 C 684.3 242.4 684.5 241.9 684.7 241.2 C 684.6 239.9 684.4 240.2 684.2 240.0 C 684.5 242.4 684.0 241.7 684.0 244.7 C 684.2 244.6 684.3 245.0 684.3 245.7 C 684.3 245.7 684.3 245.7 684.3 245.7 Z M 684.6 182.0 C 684.5 180.9 684.4 181.4 684.4 182.0 C 684.0 180.6 684.4 176.8 684.2 175.3 C 683.8 175.1 683.9 179.9 683.8 174.3 C 683.5 175.3 683.7 180.3 683.6 182.8 C 683.3 182.2 683.3 178.8 682.9 179.0 C 683.1 182.0 683.3 185.2 683.9 185.7 C 683.9 181.5 684.3 183.0 684.6 182.0 C 684.6 182.0 684.6 182.0 684.6 182.0 Z M 684.3 186.7 C 684.5 186.3 684.2 185.5 684.3 183.9 C 683.8 186.2 684.0 187.6 683.9 192.4 C 684.0 192.4 684.1 192.4 684.2 192.4 C 684.2 193.4 684.2 194.4 684.2 195.3 C 684.6 191.2 684.3 190.1 684.2 185.7 C 684.3 185.6 684.3 186.1 684.3 186.7 C 684.3 186.7 684.3 186.7 684.3 186.7 Z M 684.3 59.1 C 684.1 60.5 683.8 61.8 683.8 64.2 C 684.1 63.7 684.3 62.2 684.3 59.1 C 684.3 59.1 684.3 59.1 684.3 59.1 Z M 684.0 249.4 C 684.3 252.1 684.0 246.9 683.6 248.3 C 683.5 250.3 683.4 252.4 683.0 252.7 C 683.5 256.8 683.5 248.7 684.0 249.4 C 684.0 249.4 684.0 249.4 684.0 249.4 Z M 683.1 232.0 C 683.2 230.9 683.7 231.2 683.4 232.1 C 683.4 234.8 683.7 229.9 683.6 234.1 C 683.8 232.4 684.0 228.5 683.8 226.5 C 683.4 226.5 683.6 230.2 683.2 230.1 C 683.1 230.3 683.1 229.7 683.1 229.2 C 682.9 229.5 683.2 230.4 683.1 232.0 C 683.1 232.0 683.1 232.0 683.1 232.0 Z M 683.8 218.0 C 683.6 219.5 683.4 221.3 683.4 224.6 C 683.6 222.5 684.0 221.4 683.8 218.0 C 683.8 218.0 683.8 218.0 683.8 218.0 Z M 620.3 333.8 C 622.6 333.8 620.2 333.4 619.9 333.3 C 617.6 333.3 617.9 333.6 615.2 333.5 C 616.3 333.9 618.5 333.4 620.3 333.8 C 620.3 333.8 620.3 333.8 620.3 333.8 Z M 611.6 333.6 C 611.1 333.3 607.9 333.5 607.6 333.2 C 606.1 334.0 602.4 332.7 602.8 333.3 C 602.1 333.3 601.3 333.2 599.9 333.2 C 603.0 333.9 608.7 333.6 611.6 333.6 C 611.6 333.6 611.6 333.6 611.6 333.6 Z M 683.0 201.7 C 683.1 199.2 682.4 202.3 682.5 199.7 C 682.3 199.5 682.2 204.4 682.1 201.5 C 681.8 205.3 682.9 201.4 683.0 201.7 C 683.0 201.7 683.0 201.7 683.0 201.7 Z M 682.6 155.5 C 682.9 155.6 682.7 152.1 682.7 150.7 C 682.6 150.8 682.6 151.9 682.6 152.6 C 682.5 152.2 682.4 151.8 682.3 150.8 C 682.0 151.6 682.6 154.1 682.6 155.5 C 682.6 155.5 682.6 155.5 682.6 155.5 Z M 689.8 208.0 C 689.4 209.5 689.1 211.5 689.6 212.8 C 689.3 214.5 689.2 211.6 689.0 213.6 C 689.2 216.4 688.8 215.0 689.0 219.5 C 688.5 218.5 688.5 221.8 688.2 222.3 C 688.1 220.4 688.6 218.3 688.2 217.3 C 688.2 218.8 687.8 217.9 688.1 217.3 C 688.3 214.4 688.6 221.0 688.8 217.5 C 688.3 216.3 689.2 211.3 689.2 207.9 C 689.5 209.3 689.7 205.4 689.8 208.0 C 689.8 208.0 689.8 208.0 689.8 208.0 Z M 689.0 225.4 C 689.0 227.8 688.2 228.7 688.2 228.1 C 688.4 228.1 688.4 225.4 688.2 225.1 C 688.2 225.8 688.2 226.3 688.1 226.1 C 688.1 221.8 688.5 223.4 688.7 222.4 C 688.9 224.9 688.6 225.4 688.8 226.4 C 688.8 225.8 688.9 225.2 689.0 225.4 C 689.0 225.4 689.0 225.4 689.0 225.4 Z M 682.5 273.2 C 682.7 272.9 682.4 272.2 682.3 271.2 C 682.9 271.4 682.1 266.1 682.5 265.7 C 682.7 266.9 682.7 269.4 682.9 270.6 C 682.9 269.3 683.0 269.1 682.9 267.7 C 683.2 268.2 683.2 271.0 683.5 271.9 C 683.3 272.0 683.6 273.5 683.4 273.8 C 683.2 269.9 682.5 275.3 682.5 273.2 C 682.5 273.2 682.5 273.2 682.5 273.2 Z M 682.5 180.0 C 682.1 179.6 681.1 183.5 680.6 179.9 C 681.0 179.1 681.3 178.6 681.8 178.9 C 681.6 176.6 681.9 175.6 681.6 174.3 C 682.7 170.0 681.4 177.5 682.5 180.0 C 682.5 180.0 682.5 180.0 682.5 180.0 Z M 682.1 164.8 C 682.4 165.7 682.4 163.5 682.7 163.9 C 682.5 165.7 682.8 171.6 682.6 169.6 C 682.5 167.7 682.1 167.7 682.1 164.8 C 682.1 164.8 682.1 164.8 682.1 164.8 Z M 494.6 46.4 C 494.3 43.1 495.0 42.1 495.2 44.1 C 494.8 42.9 495.1 47.9 494.6 46.4 C 494.6 46.4 494.6 46.4 494.6 46.4 Z M 561.3 -2.7 C 558.2 -2.9 556.6 -2.7 556.1 -3.1 C 558.9 -3.2 558.7 -2.9 561.2 -2.9 C 561.3 -3.1 562.8 -3.3 563.1 -3.1 C 561.8 -3.0 562.1 -2.8 561.3 -2.7 C 561.3 -2.7 561.3 -2.7 561.3 -2.7 Z M 691.3 104.0 C 691.5 103.7 691.6 102.5 691.8 102.9 C 691.7 106.0 692.0 109.2 692.2 111.7 C 692.1 111.7 691.9 111.8 691.7 111.9 C 691.8 107.0 691.5 105.9 691.3 104.0 C 691.3 104.0 691.3 104.0 691.3 104.0 Z M 692.1 97.7 C 691.9 97.3 691.4 99.2 691.4 97.0 C 691.7 97.0 692.2 93.0 692.2 94.7 C 691.9 95.4 691.9 96.4 692.1 97.7 C 692.1 97.7 692.1 97.7 692.1 97.7 Z M 690.0 264.1 C 690.0 266.6 690.4 263.3 690.5 263.5 C 690.5 265.2 690.5 267.6 690.3 268.2 C 690.3 266.5 689.7 264.9 690.0 264.1 C 690.0 264.1 690.0 264.1 690.0 264.1 Z M 689.1 227.4 C 689.0 222.3 689.7 224.8 689.9 219.8 C 690.1 221.9 690.1 226.4 690.4 227.9 C 690.2 227.6 690.1 228.8 689.9 228.6 C 689.9 226.8 690.0 226.6 690.0 224.7 C 689.6 225.3 689.8 225.3 689.4 224.5 C 689.4 225.9 689.4 226.8 689.5 227.5 C 689.3 227.1 689.2 228.9 689.1 227.4 C 689.1 227.4 689.1 227.4 689.1 227.4 Z M 689.0 262.6 C 689.1 264.7 688.5 266.1 688.6 264.4 C 688.8 264.2 688.5 262.7 688.7 262.5 C 688.8 265.4 688.9 260.3 689.2 261.8 C 689.2 263.5 689.4 264.2 689.6 263.9 C 689.6 265.1 689.6 266.8 689.5 266.8 C 689.5 266.0 689.5 264.9 689.4 264.8 C 689.4 265.4 689.3 266.0 689.2 265.7 C 689.2 264.0 689.1 263.2 689.0 262.6 C 689.0 262.6 689.0 262.6 689.0 262.6 Z M 689.0 249.0 C 688.9 251.6 688.6 251.7 688.3 252.5 C 688.5 249.0 689.0 248.7 689.2 246.1 C 689.1 249.0 689.6 252.2 689.4 253.1 C 689.2 251.7 689.2 249.3 689.0 249.0 C 689.0 249.0 689.0 249.0 689.0 249.0 Z M 492.0 296.1 C 492.2 293.8 492.5 292.0 492.6 289.4 C 492.2 288.5 491.5 293.2 491.7 291.2 C 491.7 288.5 492.2 290.4 492.3 288.3 C 491.7 290.3 491.7 279.1 492.3 278.7 C 492.2 280.4 492.4 281.0 492.6 280.7 C 492.6 285.2 492.9 287.0 493.0 290.4 C 492.5 292.8 492.4 300.0 492.9 303.9 C 492.2 306.4 493.0 311.1 492.4 314.5 C 492.6 315.5 492.8 311.6 492.9 314.5 C 492.5 316.4 492.3 314.9 492.1 317.4 C 492.3 317.6 492.6 317.1 492.6 318.4 C 492.4 318.2 492.4 319.8 492.3 320.4 C 492.3 315.1 491.7 320.6 491.6 316.4 C 491.8 314.8 492.3 318.3 492.3 313.6 C 492.1 311.8 492.0 310.2 491.6 310.6 C 491.6 309.3 491.5 308.5 491.5 307.6 C 492.0 309.5 491.3 301.0 491.9 304.8 C 491.9 305.1 491.8 307.8 492.0 309.7 C 492.4 308.0 492.2 305.9 492.0 302.9 C 492.3 301.7 492.4 303.5 492.5 302.0 C 492.2 299.6 491.9 302.8 491.7 300.9 C 491.7 301.7 491.7 302.8 491.6 302.8 C 492.0 298.8 491.6 297.1 491.6 295.1 C 491.9 296.5 491.9 292.7 492.0 296.1 C 492.0 296.1 492.0 296.1 492.0 296.1 Z M 492.5 331.0 C 492.5 332.0 492.5 332.9 492.5 334.0 C 492.1 334.1 492.1 330.4 491.7 332.9 C 491.8 328.7 492.2 333.1 492.5 331.0 C 492.5 331.0 492.5 331.0 492.5 331.0 Z M 493.9 311.8 C 494.4 310.4 493.4 311.1 493.4 309.8 C 493.5 312.1 493.6 314.3 493.2 314.6 C 493.3 311.8 493.3 310.6 493.2 307.8 C 493.7 310.6 493.6 304.8 494.1 304.0 C 494.2 306.2 494.4 307.9 494.3 310.8 C 494.2 310.3 494.0 314.5 493.9 311.8 C 493.9 311.8 493.9 311.8 493.9 311.8 Z M 494.5 319.5 C 494.2 320.1 494.4 324.3 493.9 323.4 C 494.0 320.8 493.9 319.9 493.6 320.4 C 493.5 318.5 493.7 318.3 493.7 316.6 C 494.2 315.6 494.1 318.6 494.3 319.5 C 494.3 319.0 494.4 318.4 494.5 319.5 C 494.5 319.5 494.5 319.5 494.5 319.5 Z M 548.1 333.8 C 549.1 334.3 545.1 334.1 544.4 334.0 C 545.6 334.4 545.0 334.5 542.7 334.6 C 543.5 334.1 540.0 334.3 537.7 333.7 C 537.3 334.1 540.1 334.2 536.8 334.4 C 534.3 334.2 532.1 334.4 528.3 334.5 C 527.4 334.1 529.1 334.0 530.1 333.8 C 527.5 333.9 528.2 333.6 526.2 333.6 C 526.6 333.8 525.1 333.9 524.4 333.7 C 527.7 333.6 519.9 333.2 523.4 333.1 C 523.6 333.2 524.4 333.1 525.2 333.1 C 524.4 333.6 529.0 333.4 530.0 333.7 C 531.7 332.8 536.7 333.1 542.4 333.4 C 542.8 333.7 541.1 333.8 542.5 333.8 C 542.6 333.7 544.5 333.7 545.3 333.6 C 545.2 333.8 546.0 333.9 547.2 334.0 C 547.3 333.9 547.4 333.8 548.1 333.8 C 548.1 333.8 548.1 333.8 548.1 333.8 Z M 496.3 139.7 C 497.0 140.3 496.6 133.9 496.4 132.1 C 497.1 132.8 496.9 143.5 496.3 139.7 C 496.3 139.7 496.3 139.7 496.3 139.7 Z M 496.8 177.2 C 496.8 175.7 496.4 176.6 496.4 175.2 C 496.8 175.3 496.0 171.3 496.4 171.4 C 496.8 173.3 496.8 174.4 496.8 177.2 C 496.8 177.2 496.8 177.2 496.8 177.2 Z M 496.7 211.6 C 496.6 208.8 496.5 213.1 496.3 212.4 C 496.3 210.0 496.3 207.5 496.7 207.8 C 496.5 209.9 497.0 211.5 496.7 211.6 C 496.7 211.6 496.7 211.6 496.7 211.6 Z M 497.2 160.3 C 497.3 158.1 497.9 162.2 497.6 162.4 C 497.5 159.8 497.2 163.9 497.3 166.1 C 496.8 165.7 497.0 164.8 496.5 165.6 C 496.3 162.2 497.0 165.3 496.9 163.0 C 496.7 161.2 496.8 163.0 496.4 162.7 C 496.4 161.8 496.4 160.8 496.4 159.9 C 496.6 160.0 496.9 160.1 497.1 160.2 C 497.1 161.4 497.1 162.5 497.3 162.2 C 497.3 161.3 497.2 161.1 497.2 160.3 C 497.2 160.3 497.2 160.3 497.2 160.3 Z M 498.8 333.1 C 497.3 333.1 498.6 333.3 499.7 333.3 C 500.0 333.1 500.9 332.4 502.6 332.8 C 498.9 333.1 503.7 333.4 501.7 333.6 C 500.8 333.2 498.6 333.7 496.9 333.6 C 496.1 333.3 498.0 332.7 498.8 333.1 C 498.8 333.1 498.8 333.1 498.8 333.1 Z M 505.4 333.3 C 505.2 333.2 504.6 333.2 503.5 333.2 C 504.7 332.9 503.0 332.8 504.5 332.7 C 504.3 332.9 509.3 332.9 506.3 333.1 C 503.8 332.8 507.1 333.3 508.3 333.3 C 507.0 333.3 504.7 333.8 504.4 333.5 C 505.1 333.4 505.6 333.4 505.4 333.3 C 505.4 333.3 505.4 333.3 505.4 333.3 Z M 566.7 332.8 C 566.9 332.5 565.3 332.5 564.7 332.4 C 569.5 332.5 573.6 332.5 576.0 332.5 C 573.8 332.6 574.0 332.9 575.3 333.1 C 572.9 332.9 572.4 333.1 571.5 332.9 C 573.4 332.6 569.6 332.8 566.7 332.8 C 566.7 332.8 566.7 332.8 566.7 332.8 Z M 566.7 332.8 " fill="#FF456F"></path><image xlink:href="../../37C02888-B3FD-41C4-B412-4DD037FD7C68/assets/6AF06B0151F9FF8A7FB66D62E231BA11.png" width="200.00" height="200.00" transform="matrix(0.65, 0.00, -0.00, -0.65, 19.0, 146.2)"></image></g></svg>