<?xml version="1.0" encoding="UTF-8" standalone="no"?><svg xmlns="http://www.w3.org/2000/svg" xmlns:xlink="http://www.w3.org/1999/xlink" clip-rule="evenodd" stroke-miterlimit="10" viewBox="0 0 288 115"><desc>SVG generated by Keynote</desc><defs></defs><g transform="matrix(1.00, 0.00, -0.00, -1.00, 0.0, 115.0)"><path d="M 286.6 42.0 C 286.5 41.4 286.4 40.8 286.4 39.7 C 286.3 40.2 286.2 40.6 286.0 40.6 C 286.1 41.4 286.2 42.6 286.2 44.4 C 286.3 44.3 286.3 43.4 286.3 42.8 C 286.3 42.1 286.5 42.2 286.6 42.0 C 286.6 42.0 286.6 42.0 286.6 42.0 Z M 121.9 3.1 C 123.4 3.2 121.7 2.7 121.2 2.7 C 121.1 2.8 121.1 2.9 120.5 2.9 C 120.3 2.5 121.5 2.4 122.5 2.3 C 126.5 2.5 123.7 3.1 121.9 3.1 C 121.9 3.1 121.9 3.1 121.9 3.1 Z M 2.9 73.9 C 2.8 77.0 3.3 73.8 3.4 73.4 C 3.5 74.9 4.1 73.9 4.2 75.8 C 4.0 76.1 3.8 76.7 3.7 77.0 C 3.6 76.2 3.7 75.0 3.5 74.8 C 3.5 75.9 3.6 77.5 3.4 77.6 C 3.3 75.2 3.0 77.1 2.7 77.4 C 2.8 75.3 2.4 74.5 2.9 73.9 C 2.9 73.9 2.9 73.9 2.9 73.9 Z M 129.4 111.1 C 128.5 111.1 127.8 111.1 127.9 110.9 C 128.8 110.9 129.5 110.9 130.0 111.0 C 130.1 110.8 129.7 110.6 130.5 110.6 C 131.6 110.9 131.4 111.4 131.0 111.6 C 130.8 111.3 127.7 111.5 129.4 111.1 C 129.4 111.1 129.4 111.1 129.4 111.1 Z M 206.8 110.5 C 209.6 110.7 206.6 109.9 209.3 110.1 C 209.5 110.4 210.2 110.9 208.5 110.9 C 208.2 110.7 207.2 110.7 206.8 110.5 C 206.8 110.5 206.8 110.5 206.8 110.5 Z M 15.7 6.4 C 15.4 6.1 13.6 6.2 13.8 5.8 C 14.7 5.8 15.6 5.8 16.5 5.8 C 17.0 6.1 16.8 6.3 15.7 6.4 C 15.7 6.4 15.7 6.4 15.7 6.4 Z M 6.6 95.8 C 6.2 98.9 6.8 102.3 6.5 101.3 C 6.0 102.5 5.3 99.0 5.7 99.1 C 6.2 98.8 6.6 93.3 6.6 95.8 C 6.6 95.8 6.6 95.8 6.6 95.8 Z M 107.5 9.9 C 104.2 9.6 105.2 10.7 103.0 10.1 C 103.7 10.1 104.0 10.0 104.2 9.9 C 103.7 9.8 102.9 9.9 102.8 9.7 C 104.3 9.7 106.1 9.5 107.5 9.9 C 107.5 9.9 107.5 9.9 107.5 9.9 Z M 285.6 93.4 C 285.7 94.0 285.7 94.4 285.9 94.4 C 285.8 96.7 286.1 96.9 285.9 98.2 C 285.4 97.8 285.6 96.0 285.6 94.2 C 285.6 94.1 285.5 93.5 285.6 93.4 C 285.6 93.4 285.6 93.4 285.6 93.4 Z M 240.7 110.7 C 241.1 111.1 242.4 111.1 240.5 111.3 C 237.8 110.8 239.6 110.5 241.7 110.2 C 241.6 110.0 241.4 109.9 241.3 109.7 C 240.3 109.7 239.7 109.6 239.1 109.6 C 239.2 110.2 236.7 109.1 233.5 109.4 C 234.9 109.2 232.8 108.7 235.1 108.9 C 234.2 108.6 235.8 108.6 235.3 108.3 C 234.5 108.5 232.1 108.4 233.1 108.9 C 231.9 108.9 230.9 108.9 230.2 108.8 C 229.0 108.4 232.4 108.7 231.1 108.3 C 230.5 108.3 230.3 108.2 229.7 108.1 C 229.7 108.3 230.1 108.5 229.4 108.5 C 227.0 108.4 229.4 108.1 226.2 108.0 C 226.2 108.3 227.2 108.3 227.3 108.5 C 226.1 108.8 225.9 108.4 224.7 108.7 C 224.2 108.4 225.4 108.3 224.4 108.3 C 224.0 108.9 221.2 107.9 219.7 108.4 C 221.7 109.2 219.2 108.2 218.1 109.0 C 217.5 108.8 218.4 108.3 216.8 108.3 C 218.1 109.3 211.8 109.0 217.4 109.8 C 214.7 109.8 214.5 110.6 216.6 110.7 C 211.9 110.5 213.8 111.1 212.1 111.1 C 210.3 111.1 212.9 110.9 211.7 110.6 C 213.6 110.6 213.0 110.4 214.5 110.6 C 214.3 110.4 214.6 110.3 214.9 110.2 C 213.2 110.5 210.6 109.9 211.6 109.4 C 212.6 109.5 212.0 109.9 213.3 110.0 C 212.4 109.4 214.7 110.1 214.5 109.7 C 213.3 109.2 215.6 108.7 213.0 108.7 C 213.2 108.9 213.3 109.1 213.5 109.3 C 212.8 109.3 212.1 109.3 211.5 109.3 C 210.6 108.9 210.9 108.6 210.2 108.5 C 209.0 108.5 208.5 108.6 208.3 108.8 C 209.8 108.9 211.7 109.2 209.4 109.3 C 209.7 108.5 206.0 109.1 207.5 108.7 C 204.8 108.4 204.0 109.0 203.4 108.5 C 202.1 108.5 203.2 109.0 201.6 108.9 C 198.8 108.6 199.7 109.1 196.0 108.8 C 196.1 109.4 195.6 108.7 194.5 108.7 C 194.7 108.9 194.8 109.1 195.0 109.3 C 193.5 109.0 190.7 108.8 188.1 109.2 C 187.3 109.1 187.6 108.7 185.8 108.8 C 184.1 109.3 181.3 108.7 179.3 109.3 C 178.9 109.0 177.2 109.0 176.5 109.2 C 176.0 109.0 176.9 108.5 175.3 108.5 C 174.6 108.9 176.4 109.0 174.4 109.2 C 174.4 108.8 172.6 109.5 172.3 109.0 C 172.9 108.9 173.5 108.8 174.1 108.7 C 173.2 108.7 173.3 108.4 172.5 108.4 C 173.0 108.9 171.1 108.5 170.5 108.4 C 170.7 108.6 170.6 108.8 170.1 108.9 C 168.9 108.9 168.0 108.9 167.5 109.0 C 165.8 108.9 168.1 108.7 166.6 108.7 C 166.4 109.7 164.2 108.5 161.4 109.2 C 160.5 108.9 159.1 108.7 157.0 108.7 C 156.9 109.0 159.0 108.8 159.2 109.0 C 156.2 108.9 159.9 109.3 158.0 109.3 C 153.6 109.1 150.8 109.1 146.1 108.8 C 146.3 109.1 142.9 109.3 142.9 109.2 C 143.8 109.1 140.7 108.7 139.2 108.7 C 139.2 109.3 137.2 109.9 137.2 110.2 C 136.5 109.9 136.6 109.9 136.1 109.3 C 133.5 109.1 132.4 109.7 130.5 109.0 C 130.8 109.4 129.6 109.5 128.7 109.6 C 128.8 109.3 129.3 109.0 129.7 108.8 C 128.4 108.8 128.1 108.6 126.9 108.7 C 126.2 109.8 123.6 108.4 123.1 109.4 C 121.2 109.5 121.4 109.0 119.6 109.0 C 119.7 109.3 119.6 109.4 119.1 109.6 C 120.3 109.5 121.0 109.1 121.8 109.6 C 119.2 109.7 127.3 110.7 123.2 111.1 C 122.9 110.9 123.2 110.6 122.3 110.6 C 119.9 110.8 121.5 111.2 122.5 111.1 C 120.9 111.3 119.1 111.2 120.6 111.6 C 116.8 111.8 119.1 111.4 117.7 111.3 C 111.0 111.6 102.4 111.7 92.9 111.3 C 92.7 111.8 87.6 111.3 85.9 111.0 C 83.4 111.4 80.6 111.5 79.7 111.0 C 79.3 111.5 76.4 110.7 76.2 111.1 C 77.4 111.1 78.2 111.3 77.0 111.4 C 73.1 111.2 67.4 111.0 65.3 111.4 C 63.8 110.9 61.4 111.0 59.7 111.3 C 59.4 111.0 60.7 110.9 59.6 110.9 C 59.4 111.1 55.8 111.4 54.9 111.1 C 56.0 111.2 57.1 110.6 55.5 110.6 C 55.5 110.9 53.7 110.8 54.2 111.1 C 51.9 110.9 50.6 111.2 48.7 111.0 C 50.2 110.9 51.1 110.8 51.3 110.5 C 50.0 110.7 49.0 110.8 47.9 110.5 C 48.3 111.1 46.1 110.7 43.9 111.0 C 43.3 110.8 42.8 110.6 41.0 110.6 C 40.2 110.9 43.8 111.0 41.8 111.1 C 41.8 110.9 39.9 110.7 40.4 111.1 C 38.0 110.9 36.8 111.2 34.9 110.9 C 37.3 111.0 35.4 110.4 34.8 110.3 C 34.3 110.4 33.5 110.3 33.5 110.5 C 33.5 110.6 34.7 110.6 34.9 110.7 C 33.2 110.6 32.7 111.2 32.1 110.9 C 32.8 110.9 33.0 110.6 32.1 110.6 C 31.9 111.2 27.0 110.8 28.7 110.5 C 28.7 110.6 30.5 110.6 30.7 110.5 C 30.2 110.3 27.4 110.5 28.0 110.1 C 29.6 110.0 29.4 110.3 31.4 110.2 C 31.6 109.9 32.7 109.9 33.4 109.7 C 30.3 109.7 29.7 110.2 29.3 109.7 C 27.9 109.7 28.8 110.2 26.6 110.1 C 23.4 109.9 26.0 109.6 25.2 109.4 C 22.4 109.7 23.3 110.2 24.5 110.6 C 22.3 110.6 21.6 110.8 19.0 110.7 C 19.1 110.5 19.5 110.3 20.4 110.2 C 20.5 110.3 22.7 110.6 22.5 110.3 C 22.2 109.8 20.4 109.5 17.6 109.4 C 18.3 110.0 18.4 109.7 15.6 109.7 C 16.0 110.3 14.2 109.6 14.2 110.0 C 14.3 110.1 15.3 110.1 16.2 110.1 C 16.2 110.3 15.8 110.5 14.9 110.6 C 14.3 110.4 13.8 110.6 12.2 110.5 C 12.0 110.1 13.2 110.1 13.5 109.8 C 12.6 109.9 12.4 110.0 11.4 110.1 C 10.6 109.7 10.7 109.2 10.7 108.7 C 11.8 108.5 13.5 108.5 12.1 108.3 C 16.1 108.2 11.9 108.8 13.5 108.9 C 15.1 108.4 14.2 109.1 16.9 109.0 C 17.7 109.0 17.9 108.9 18.3 108.8 C 18.1 108.7 16.5 108.3 18.2 108.3 C 18.7 108.5 19.6 108.7 21.0 108.8 C 21.0 108.6 18.1 108.4 21.0 108.4 C 22.4 108.4 21.1 109.0 23.1 108.9 C 23.1 108.8 23.6 108.8 23.7 108.6 C 20.9 108.7 24.2 108.3 22.4 108.1 C 24.7 107.9 22.8 108.6 24.4 108.5 C 24.4 108.3 27.1 108.7 27.1 108.3 C 26.1 108.5 24.1 108.4 24.3 108.0 C 26.2 108.1 34.4 107.7 31.2 108.4 C 32.4 108.1 38.4 107.6 38.0 107.9 C 36.2 107.8 36.3 108.1 36.0 108.4 C 39.4 107.9 41.1 108.3 44.8 107.7 C 40.7 107.7 43.7 107.0 41.3 106.7 C 40.2 106.7 38.8 106.7 38.5 106.8 C 39.0 107.2 40.7 107.0 41.3 106.8 C 41.3 107.2 41.4 107.5 41.4 107.9 C 36.9 107.5 34.6 107.9 32.5 107.7 C 34.3 107.7 29.1 107.2 31.1 107.1 C 32.0 107.4 34.1 107.4 35.9 107.5 C 35.9 107.4 35.9 107.2 35.9 107.1 C 36.7 107.1 37.8 107.1 37.9 107.0 C 35.4 107.1 34.1 106.6 32.4 107.0 C 32.4 106.9 32.4 106.8 32.4 106.7 C 32.0 106.7 31.6 106.7 31.7 106.6 C 32.5 106.6 33.7 106.6 33.8 106.4 C 32.0 106.3 31.6 106.0 29.6 105.9 C 30.1 105.5 27.4 104.9 30.3 104.8 C 30.8 105.2 32.4 105.3 32.3 105.5 C 33.2 105.7 34.9 105.6 35.7 105.4 C 34.8 105.1 33.1 105.0 32.9 104.6 C 34.3 104.6 35.4 104.4 36.3 104.8 C 33.4 105.0 37.9 105.1 39.1 105.5 C 38.7 105.3 38.1 105.2 37.6 105.0 C 39.9 105.0 41.0 105.3 41.0 104.8 C 43.7 104.6 43.2 105.0 45.1 105.0 C 43.8 104.5 46.3 104.8 45.0 104.2 C 48.1 104.1 46.0 104.7 47.1 104.8 C 48.1 104.7 48.2 104.5 49.1 104.5 C 50.6 104.8 53.5 104.8 53.9 105.3 C 55.2 105.2 55.4 105.4 56.6 105.4 C 57.0 105.3 57.3 105.1 57.9 105.0 C 58.1 105.1 59.1 105.3 59.3 105.1 C 55.7 104.5 56.7 104.5 53.0 104.1 C 52.8 104.3 52.3 104.3 53.1 104.5 C 50.6 104.6 49.8 104.3 47.7 104.4 C 47.4 104.0 46.8 103.5 44.9 103.8 C 45.3 103.4 44.8 103.3 45.5 103.2 C 46.6 103.4 48.1 103.6 49.6 103.7 C 49.7 103.6 49.4 103.3 50.2 103.3 C 51.0 103.5 52.1 103.6 53.0 103.4 C 53.0 103.6 52.7 103.7 52.3 103.8 C 55.7 104.0 54.4 103.4 57.0 103.7 C 56.6 103.4 54.9 103.5 56.3 103.2 C 58.5 103.1 59.1 103.3 60.3 103.5 C 60.5 103.4 60.3 103.2 61.0 103.2 C 62.6 103.5 57.5 104.0 60.5 104.5 C 60.6 104.1 63.5 104.2 63.9 104.5 C 63.0 104.8 61.3 104.4 61.2 104.6 C 66.4 104.7 61.5 105.2 66.8 105.4 C 66.8 105.2 66.7 105.1 66.7 104.9 C 64.6 104.9 64.4 104.6 64.5 104.2 C 62.7 104.2 61.8 103.7 60.4 104.0 C 60.8 103.2 61.9 103.9 63.8 104.0 C 63.6 103.6 61.9 103.5 61.6 103.2 C 66.0 103.5 66.8 103.0 71.0 103.6 C 69.9 103.1 73.3 103.5 73.0 103.2 C 69.4 103.3 70.6 102.2 70.0 102.0 C 67.7 102.1 68.9 102.8 67.6 103.1 C 66.8 102.7 67.1 102.4 67.3 101.9 C 69.4 102.0 69.1 102.0 70.7 101.8 C 72.1 102.1 73.5 102.8 71.6 103.1 C 72.0 103.0 74.7 102.8 75.0 103.1 C 72.3 103.0 75.3 103.3 73.8 103.5 C 75.8 103.7 79.3 103.2 81.8 103.6 C 81.6 103.3 82.5 103.3 82.3 103.1 C 80.0 103.5 79.3 102.6 76.9 102.5 C 77.9 102.5 77.2 102.3 76.8 102.2 C 79.1 102.4 80.4 102.0 82.2 102.4 C 82.1 102.3 82.1 102.2 82.0 102.0 C 85.0 102.3 84.6 102.2 86.7 101.9 C 87.6 102.1 86.6 102.8 86.4 103.2 C 87.4 103.0 91.3 103.1 88.9 102.7 C 91.2 102.7 90.8 103.2 93.1 103.2 C 93.0 102.8 90.9 102.8 91.5 102.3 C 93.6 102.2 92.6 102.8 94.2 102.4 C 94.4 102.8 94.5 103.1 96.4 103.1 C 95.0 102.8 96.5 102.9 97.0 102.7 C 96.1 102.6 95.3 102.5 94.9 102.4 C 98.2 102.5 98.9 102.5 101.5 102.4 C 100.7 102.9 102.2 103.0 100.5 103.2 C 102.1 102.9 104.3 103.4 105.2 103.2 C 104.1 103.0 102.4 103.0 101.6 102.8 C 106.9 102.7 109.6 102.2 114.3 102.8 C 113.6 102.8 112.4 102.8 112.4 102.9 C 112.9 103.0 113.7 102.9 113.8 103.1 C 112.2 103.0 110.6 103.0 109.8 103.2 C 108.3 103.0 110.5 102.9 109.0 102.8 C 108.8 103.1 105.9 102.8 107.2 103.3 C 109.6 103.0 112.1 103.4 113.5 104.0 C 115.6 103.2 113.4 103.3 115.6 102.5 C 115.6 102.8 116.3 102.9 117.1 102.9 C 116.1 102.4 119.3 102.7 119.6 102.7 C 118.6 102.9 114.2 103.2 116.7 103.7 C 115.3 102.7 122.0 104.0 120.5 103.2 C 123.3 103.1 122.5 103.7 123.9 103.2 C 124.0 103.3 123.9 103.6 124.7 103.6 C 125.5 103.6 125.7 103.4 126.0 103.3 C 121.9 103.1 122.9 102.6 120.2 102.5 C 120.7 102.5 121.1 102.5 120.9 102.4 C 120.9 102.3 120.9 102.2 121.5 102.3 C 121.9 102.8 123.5 102.2 124.3 102.5 C 123.5 102.6 122.7 102.6 123.1 102.8 C 126.4 102.7 126.0 103.2 130.7 103.4 C 129.2 103.2 131.0 103.1 132.5 103.1 C 134.8 103.1 134.2 103.7 136.9 103.7 C 136.1 102.7 139.7 103.8 142.6 103.2 C 142.6 103.7 146.9 103.9 147.5 103.4 C 147.7 103.6 149.2 103.6 150.2 103.6 C 150.6 103.8 149.4 103.9 150.4 104.0 C 151.3 103.9 150.2 103.5 151.5 103.4 C 153.0 103.6 152.9 104.0 155.1 104.0 C 154.9 103.6 153.8 103.7 154.8 103.4 C 156.8 103.6 158.5 103.6 156.7 103.2 C 159.4 103.1 158.5 103.9 161.1 103.8 C 160.2 103.6 160.2 103.5 161.5 103.4 C 162.7 103.8 162.8 103.9 163.3 104.1 C 163.9 103.7 163.6 103.7 165.8 103.8 C 165.7 103.7 165.6 103.5 165.5 103.3 C 166.5 103.3 167.9 103.3 168.3 103.4 C 166.4 103.4 167.1 103.7 166.5 103.8 C 168.3 103.9 172.1 104.3 169.1 103.8 C 171.6 103.6 170.7 104.2 172.6 104.1 C 171.1 103.7 172.5 104.0 174.6 104.0 C 174.1 103.4 175.9 103.9 177.2 103.8 C 176.8 103.5 177.0 103.3 178.2 103.3 C 178.3 103.5 179.1 103.6 180.4 103.6 C 180.2 103.4 177.3 103.2 180.1 103.2 C 181.5 103.4 181.8 103.8 183.9 103.8 C 184.7 104.2 182.2 104.1 183.0 104.5 C 184.4 104.1 185.2 104.4 187.7 104.5 C 186.2 103.7 192.0 103.5 188.9 103.2 C 189.7 103.2 190.5 102.7 191.4 103.1 C 190.6 103.1 192.5 103.5 192.5 103.6 C 193.6 103.5 196.5 103.7 196.4 103.4 C 193.9 103.5 193.6 103.2 192.7 102.9 C 196.2 102.7 199.6 102.9 199.7 103.3 C 199.6 103.2 200.1 103.2 200.1 103.1 C 198.9 103.1 197.6 102.5 199.0 102.4 C 199.0 102.8 200.2 102.9 201.4 103.1 C 201.2 102.7 206.5 103.2 205.2 102.7 C 203.5 103.0 201.5 102.4 202.8 102.1 C 204.3 102.5 207.1 102.7 206.8 103.1 C 207.4 102.9 208.0 102.8 208.5 102.7 C 208.8 102.3 207.4 102.3 207.4 102.0 C 208.4 102.0 209.8 102.0 210.1 102.1 C 207.5 102.2 211.7 102.4 209.2 102.7 C 210.8 102.6 211.4 102.9 212.8 102.9 C 212.7 102.8 213.2 102.8 213.2 102.7 C 212.2 102.9 210.9 102.7 210.9 102.3 C 213.2 102.2 213.2 102.7 215.2 102.7 C 215.6 102.4 217.9 101.8 219.5 102.1 C 216.8 102.1 219.9 102.3 218.5 102.5 C 215.8 102.3 215.5 102.7 214.9 103.1 C 216.1 103.3 218.2 103.4 218.1 102.9 C 216.8 102.9 216.9 103.1 216.3 103.2 C 216.2 102.9 216.4 102.8 217.3 102.7 C 218.6 103.0 220.8 102.6 219.6 103.2 C 221.1 102.9 223.3 103.4 224.9 103.1 C 222.9 103.0 221.3 102.9 220.5 102.5 C 222.0 102.4 224.0 102.8 223.8 102.5 C 223.3 102.2 220.8 102.3 220.1 102.0 C 221.8 101.6 225.9 102.7 222.6 101.9 C 223.9 102.0 225.5 102.0 226.1 102.1 C 224.8 102.2 226.7 102.7 227.4 102.8 C 228.6 102.8 229.5 102.7 229.9 102.5 C 228.1 102.7 226.2 102.2 227.5 102.1 C 228.0 102.4 228.2 102.1 228.7 102.0 C 229.0 102.3 231.0 102.1 231.6 102.3 C 231.3 102.1 230.3 102.1 230.0 101.9 C 231.1 101.8 232.4 101.2 233.8 101.8 C 233.1 101.8 231.9 101.7 232.0 101.9 C 235.9 102.5 237.4 102.9 241.8 103.2 C 241.3 103.2 241.1 103.3 241.3 103.4 C 244.0 103.5 245.9 103.7 245.8 104.0 C 247.3 103.9 248.0 103.7 248.6 103.4 C 246.8 103.2 246.5 103.6 245.2 103.3 C 245.8 103.2 243.2 102.5 242.3 102.3 C 239.7 102.7 239.0 102.0 236.3 102.3 C 236.8 101.9 234.0 102.2 234.5 101.8 C 237.8 102.4 240.0 101.9 244.2 102.2 C 243.9 102.5 243.7 102.8 245.5 102.9 C 248.2 103.1 246.5 102.6 248.7 102.7 C 249.8 103.0 248.6 103.1 249.8 103.2 C 250.4 103.0 252.4 103.1 253.4 103.5 C 250.6 103.4 254.2 103.8 252.5 104.0 C 253.4 104.0 254.0 104.0 254.7 104.1 C 251.6 103.6 256.8 103.5 254.5 103.2 C 258.0 103.0 255.7 104.2 258.7 104.1 C 256.9 103.8 258.7 103.6 261.0 103.7 C 262.0 104.1 264.3 104.2 266.3 104.4 C 265.0 104.1 264.3 104.1 265.8 103.8 C 264.7 103.7 263.2 103.7 262.5 103.8 C 262.3 103.7 261.9 103.6 261.4 103.4 C 263.5 103.4 262.4 103.2 263.0 103.1 C 263.9 103.2 265.5 103.2 266.1 103.4 C 266.0 103.3 266.5 103.3 266.5 103.2 C 263.7 103.1 266.4 102.6 264.6 102.5 C 263.4 102.6 264.5 103.0 262.9 102.9 C 260.9 102.4 263.7 102.4 264.1 102.0 C 262.5 101.7 261.4 102.2 260.5 101.8 C 261.8 101.3 264.8 101.6 267.1 101.8 C 266.5 101.2 271.0 101.9 270.6 101.2 C 271.1 101.4 271.7 101.5 272.3 101.6 C 272.6 101.2 273.8 101.8 274.5 101.8 C 274.3 101.5 273.9 101.4 273.3 101.2 C 273.9 101.3 274.4 101.3 274.8 101.3 C 274.9 99.9 274.9 99.0 274.7 96.5 C 275.0 96.3 275.2 95.9 275.5 96.0 C 275.5 96.7 275.6 97.5 275.8 98.0 C 275.8 94.0 274.7 95.7 275.4 93.4 C 275.1 93.4 274.7 94.9 274.6 93.4 C 275.1 91.2 274.6 87.3 275.7 88.2 C 276.1 86.1 275.4 84.1 275.9 83.3 C 275.9 82.6 275.7 82.3 275.6 81.9 C 275.4 82.5 275.2 83.3 275.0 84.0 C 275.2 85.5 274.8 85.8 275.4 84.9 C 275.4 86.9 275.1 87.3 275.0 88.2 C 274.7 85.3 275.0 83.0 274.4 82.5 C 274.7 81.7 275.0 81.2 275.2 80.5 C 274.9 80.1 274.8 76.9 275.2 76.8 C 275.1 78.9 275.6 81.4 275.9 79.6 C 275.6 74.2 276.3 71.5 275.9 66.6 C 276.1 66.6 276.4 67.0 276.4 66.1 C 276.2 66.1 276.0 65.9 275.9 65.4 C 275.9 63.9 276.1 63.1 276.0 61.1 C 276.4 61.3 276.7 61.0 276.8 59.9 C 276.4 59.2 275.6 57.2 275.7 56.1 C 275.8 57.3 276.3 55.7 276.3 54.9 C 275.7 55.6 276.7 49.2 276.1 51.1 C 276.1 48.6 276.3 47.4 276.5 47.3 C 276.5 46.4 276.3 45.8 276.3 44.9 C 276.8 44.2 276.4 39.9 276.7 39.1 C 276.5 40.7 277.1 40.8 277.1 39.6 C 276.7 38.9 276.4 35.0 276.5 34.2 C 276.7 34.3 277.1 34.5 277.2 36.4 C 277.3 33.0 276.6 33.3 276.3 32.4 C 276.8 32.2 276.4 31.0 276.3 30.5 C 276.5 29.3 276.4 30.5 276.8 30.2 C 276.8 29.0 277.1 28.5 277.1 26.9 C 276.6 27.6 276.8 25.8 276.9 25.1 C 276.6 25.1 276.5 24.3 276.4 23.0 C 277.1 24.4 277.1 14.3 276.7 17.1 C 276.3 15.5 277.1 14.7 277.1 12.3 C 277.0 12.2 276.9 12.0 276.9 11.8 C 276.3 11.9 275.9 11.9 276.7 12.1 C 276.7 12.1 276.7 12.1 276.7 12.1 C 276.7 12.1 276.7 12.1 276.7 12.1 C 274.5 12.2 276.3 11.6 273.6 11.8 C 274.2 12.3 271.2 11.7 271.1 12.4 C 270.7 11.6 267.8 12.6 266.2 12.0 C 266.1 12.1 265.5 12.1 265.3 12.2 C 264.8 12.4 267.5 12.5 265.6 12.6 C 263.6 12.3 265.0 12.2 264.9 12.0 C 258.6 12.2 251.4 12.0 245.1 11.8 C 245.7 12.0 245.6 12.2 244.2 12.2 C 242.9 11.4 235.0 11.8 233.7 12.1 C 233.3 11.6 229.1 12.1 228.6 11.8 C 229.3 11.9 231.1 11.5 229.5 11.4 C 228.1 12.0 227.0 11.6 225.2 12.0 C 224.7 11.4 219.7 12.0 222.3 11.2 C 221.4 11.2 220.9 11.1 220.4 11.0 C 220.1 11.5 219.2 11.5 220.7 11.7 C 216.6 11.4 215.3 11.8 212.2 11.4 C 211.5 11.7 214.0 11.9 211.9 12.0 C 212.0 11.9 212.0 11.8 212.1 11.7 C 211.3 11.7 211.0 11.9 210.8 11.7 C 211.0 11.5 212.1 11.5 212.4 11.0 C 210.7 11.2 209.8 10.7 209.1 11.0 C 211.3 11.1 209.4 11.8 208.2 11.4 C 209.6 11.2 203.0 11.5 200.8 11.7 C 200.0 11.2 203.1 11.6 203.0 11.3 C 199.1 11.4 199.5 11.2 198.8 11.7 C 196.8 11.6 196.1 11.3 193.6 11.6 C 192.2 11.4 194.5 11.2 193.1 11.2 C 192.1 11.3 191.6 11.5 190.3 11.6 C 187.0 10.7 178.2 12.1 174.5 10.8 C 176.1 11.1 173.9 11.3 171.8 11.3 C 171.7 11.2 172.0 10.9 171.2 10.9 C 171.3 11.2 170.5 11.3 169.1 11.3 C 169.0 11.2 169.3 10.9 168.5 10.9 C 167.8 11.4 166.2 10.9 165.1 11.2 C 164.7 10.7 167.6 11.0 167.8 10.7 C 164.4 10.4 163.8 10.8 161.2 10.7 C 162.6 10.6 160.3 10.3 159.9 10.1 C 160.4 10.6 158.3 10.8 159.8 11.0 C 158.8 11.0 157.3 11.1 157.1 10.9 C 157.7 10.9 158.5 10.9 158.5 10.8 C 157.3 10.9 155.8 10.4 155.1 10.8 C 156.0 10.8 156.5 11.0 156.5 11.2 C 156.1 11.3 155.7 11.5 155.1 11.6 C 157.0 10.6 151.5 11.0 151.1 11.3 C 150.7 10.7 150.3 10.7 150.5 10.4 C 148.2 10.3 148.5 10.8 147.1 10.9 C 147.5 10.5 148.0 10.1 145.8 9.9 C 146.3 10.4 143.7 10.3 144.5 10.9 C 139.0 11.1 137.8 10.5 134.4 10.5 C 134.4 10.7 135.4 10.7 134.5 10.8 C 132.9 10.7 131.5 10.5 130.4 10.3 C 129.6 10.6 130.8 10.7 129.8 10.8 C 127.3 10.4 127.8 9.9 125.6 9.6 C 123.0 9.9 123.9 9.7 122.4 10.1 C 123.1 10.2 124.0 10.3 123.1 10.4 C 121.4 10.0 120.6 9.6 120.2 9.5 C 121.4 9.5 122.3 9.5 122.9 9.6 C 123.3 9.4 124.9 9.4 123.5 9.1 C 125.3 9.2 127.2 9.3 129.7 9.2 C 128.8 8.8 131.8 9.1 130.9 8.7 C 128.2 8.8 127.5 8.5 124.8 8.6 C 125.5 9.0 122.7 8.8 122.1 8.7 C 122.2 9.0 120.3 8.9 120.8 9.2 C 118.8 9.3 118.8 9.0 116.8 9.1 C 116.6 8.9 116.9 8.7 116.1 8.7 C 115.4 9.1 114.6 8.6 114.0 8.6 C 114.5 9.0 111.5 8.8 111.4 9.1 C 112.2 9.1 113.3 9.1 113.5 9.2 C 110.2 9.2 112.9 9.6 113.6 9.9 C 113.5 9.7 114.5 9.2 114.8 9.5 C 112.2 9.8 118.9 10.2 116.3 10.0 C 114.2 9.9 114.4 10.2 112.3 10.1 C 109.6 9.4 112.5 9.0 109.9 8.4 C 108.4 8.8 107.3 8.7 107.3 9.1 C 106.9 8.9 106.5 8.8 105.9 8.7 C 105.3 8.9 108.0 9.1 106.0 9.2 C 105.0 9.1 106.0 8.6 103.8 8.7 C 103.0 9.0 106.6 9.1 104.7 9.2 C 102.4 8.6 105.2 9.4 102.8 9.5 C 102.5 9.4 102.1 9.3 101.3 9.4 C 101.1 9.2 101.4 8.9 100.5 8.8 C 100.3 9.5 99.5 8.6 97.8 8.7 C 96.9 9.2 99.7 8.9 99.3 9.4 C 97.1 8.9 96.1 9.4 95.3 9.4 C 96.8 9.0 92.6 9.1 92.3 8.7 C 93.0 9.2 92.0 8.9 89.8 9.4 C 89.4 8.6 87.0 9.1 86.1 8.6 C 85.9 8.8 85.3 8.9 85.1 9.1 C 85.8 9.1 86.6 9.1 86.5 9.4 C 85.8 9.4 85.2 9.4 84.4 9.4 C 83.2 9.0 85.7 8.2 81.3 8.3 C 82.0 8.8 80.2 8.9 79.0 9.1 C 79.3 9.5 80.8 9.1 81.1 9.4 C 79.7 9.7 78.0 9.3 76.9 9.1 C 74.4 9.3 71.2 9.0 67.5 9.2 C 66.5 8.9 70.5 8.9 67.9 8.7 C 66.9 8.7 67.6 9.0 66.1 9.0 C 66.4 7.2 55.7 8.6 54.5 7.9 C 54.3 8.3 50.9 8.1 51.6 8.6 C 53.5 8.2 55.4 8.7 56.6 9.0 C 58.5 8.7 54.5 8.6 56.2 8.4 C 56.6 8.7 59.2 8.5 59.2 8.8 C 56.3 8.9 61.0 9.2 59.0 9.6 C 56.3 9.5 51.3 10.0 52.2 9.5 C 52.3 9.6 53.5 9.6 53.5 9.5 C 50.3 9.3 48.8 9.6 47.7 9.9 C 46.1 9.6 41.2 10.1 42.4 9.9 C 41.6 9.5 45.6 10.0 44.9 9.6 C 39.2 9.5 39.3 9.8 35.4 9.5 C 36.9 10.0 32.1 10.2 32.4 10.0 C 32.1 9.6 30.7 9.3 28.8 9.7 C 28.8 9.3 27.5 9.2 26.2 9.1 C 26.0 9.5 27.5 9.4 27.5 9.7 C 26.4 9.7 25.2 9.7 24.1 9.7 C 23.9 9.6 23.9 9.4 23.1 9.4 C 22.1 9.6 17.9 10.0 18.1 9.7 C 19.5 9.2 14.6 9.3 17.3 9.0 C 16.5 9.0 16.3 8.8 15.2 8.8 C 15.3 9.0 15.5 9.2 15.7 9.4 C 13.2 9.4 13.8 8.7 11.7 8.7 C 11.7 8.9 10.8 8.9 10.7 9.1 C 11.5 9.1 11.4 8.9 12.6 9.0 C 12.0 9.6 15.2 9.3 15.4 9.7 C 13.1 9.8 12.7 9.4 11.5 9.2 C 9.7 9.4 9.7 9.4 8.8 9.3 C 8.8 9.7 8.8 10.2 8.7 11.2 C 8.9 11.3 8.9 10.5 9.1 10.9 C 9.0 14.6 8.2 13.4 8.5 16.3 C 8.4 15.7 8.1 13.0 8.1 14.6 C 8.3 16.6 8.7 17.5 8.7 19.9 C 8.6 19.9 8.4 19.5 8.3 20.3 C 8.5 21.4 8.8 21.8 9.0 22.8 C 8.8 22.8 8.9 24.2 9.0 24.8 C 8.7 25.4 8.6 24.2 8.5 25.1 C 8.5 27.1 9.4 28.9 9.2 30.4 C 8.7 29.9 8.9 31.9 9.0 33.6 C 8.5 33.5 8.6 37.1 8.5 39.3 C 8.9 39.0 8.7 41.3 9.1 41.0 C 9.1 39.9 9.2 39.4 9.4 39.3 C 9.4 41.9 8.6 42.1 9.2 44.5 C 9.0 45.3 8.7 46.4 8.6 48.1 C 8.8 48.5 9.0 45.2 9.1 47.1 C 9.0 47.2 9.0 47.8 9.1 48.4 C 8.7 47.9 8.6 49.3 8.3 50.0 C 8.7 51.8 8.1 54.8 8.6 53.5 C 8.7 56.1 8.0 54.0 8.0 55.9 C 8.5 55.2 8.6 58.6 8.9 57.1 C 9.0 59.7 8.3 59.2 8.1 58.0 C 8.0 60.3 8.3 61.0 8.1 62.1 C 8.5 61.2 8.7 64.9 8.5 62.9 C 8.1 62.1 8.3 65.0 8.1 65.5 C 8.4 64.7 8.4 66.0 8.6 64.4 C 8.7 66.2 8.8 68.8 8.3 70.3 C 8.6 72.7 8.6 74.8 8.2 73.6 C 8.3 75.8 8.3 75.0 8.2 77.1 C 8.3 77.1 8.4 76.5 8.5 76.4 C 8.5 79.3 8.2 78.7 8.2 82.5 C 7.7 81.9 7.7 84.4 7.4 85.0 C 7.5 83.4 7.6 82.2 7.7 81.0 C 7.5 80.6 7.4 81.9 7.3 80.9 C 7.4 80.8 7.5 80.2 7.6 79.6 C 7.2 82.0 6.9 76.2 7.3 78.1 C 7.2 78.1 7.1 78.2 7.2 78.8 C 7.6 78.4 7.4 78.4 7.8 78.9 C 7.7 77.6 8.2 76.8 7.8 76.2 C 7.6 76.2 7.7 77.4 7.6 77.5 C 7.3 74.3 8.1 76.8 7.9 74.3 C 7.5 73.6 7.4 74.8 7.2 75.4 C 7.1 73.1 7.2 71.1 7.4 70.6 C 7.3 68.5 7.1 70.7 6.9 69.1 C 7.1 68.5 7.4 68.6 7.4 67.3 C 7.2 65.6 7.1 68.0 7.0 66.4 C 7.3 64.9 7.6 67.8 7.7 65.3 C 7.1 65.6 7.8 63.1 7.4 63.1 C 7.5 64.6 6.9 64.4 7.3 63.8 C 7.8 60.7 6.4 57.7 7.3 54.9 C 7.2 54.8 7.1 54.3 7.0 54.1 C 6.8 56.4 6.7 60.1 6.1 60.5 C 6.3 62.5 6.6 62.4 6.8 62.8 C 6.3 65.0 6.2 64.7 5.6 63.1 C 5.5 59.0 5.8 57.5 6.0 54.9 C 5.7 53.4 5.8 55.0 5.6 55.4 C 6.0 47.5 4.8 53.0 5.0 50.2 C 5.2 50.4 5.3 49.8 5.3 49.0 C 5.2 48.9 5.2 47.7 5.1 47.4 C 5.1 48.0 5.0 48.2 4.8 48.0 C 4.7 45.8 5.1 46.9 5.3 46.9 C 5.3 48.5 5.4 49.5 5.6 49.8 C 5.4 47.7 5.8 46.4 5.3 44.8 C 5.9 43.3 6.5 46.5 6.9 45.8 C 7.2 46.3 5.9 43.9 5.7 42.3 C 5.8 39.8 5.3 39.4 5.3 37.1 C 5.8 36.8 5.5 39.6 5.9 39.6 C 5.9 38.9 6.0 38.8 6.0 38.2 C 5.9 36.6 5.6 36.5 5.5 35.1 C 5.9 34.7 5.6 34.1 5.5 33.1 C 5.7 31.7 5.8 34.2 5.9 32.6 C 6.0 31.0 5.4 29.4 5.5 28.9 C 5.6 28.9 5.8 29.3 5.9 28.5 C 5.6 26.3 5.6 25.8 5.3 28.1 C 5.4 26.0 5.2 24.9 4.8 24.9 C 4.8 28.1 4.8 29.0 4.3 30.1 C 4.7 31.0 4.4 31.8 4.3 32.9 C 5.0 32.7 4.3 34.4 4.7 35.3 C 4.8 34.5 4.8 33.8 5.0 33.4 C 4.9 36.8 4.8 36.7 5.5 40.0 C 5.3 39.9 5.2 40.1 5.1 40.4 C 4.9 39.4 5.0 37.0 4.7 36.7 C 4.2 38.3 5.0 39.5 4.4 41.4 C 4.7 42.6 4.9 39.9 4.9 41.8 C 4.7 42.5 4.5 43.5 4.3 44.9 C 4.4 46.4 4.6 47.3 4.7 48.6 C 4.5 48.6 4.4 48.7 4.4 49.9 C 4.6 49.9 4.7 48.8 4.8 50.1 C 4.3 53.5 4.0 55.8 4.2 59.6 C 4.3 58.4 4.7 55.6 4.7 57.1 C 4.4 58.6 4.9 61.1 4.6 62.6 C 4.4 63.1 4.7 60.6 4.0 60.9 C 4.1 62.6 4.0 63.6 3.9 64.4 C 4.2 64.5 4.1 66.4 4.4 66.1 C 4.5 64.7 4.0 64.1 4.2 63.8 C 5.3 65.4 3.8 68.8 3.8 71.5 C 4.0 73.2 4.2 70.3 4.3 72.3 C 4.5 73.6 3.5 74.0 3.4 72.0 C 3.6 70.8 3.1 70.0 3.5 69.9 C 3.5 69.3 3.5 68.5 3.4 68.5 C 3.4 69.4 3.1 69.1 3.0 69.7 C 3.1 68.4 2.3 67.9 2.7 66.8 C 2.8 67.6 2.9 67.9 3.0 68.3 C 2.9 64.5 3.2 63.4 3.4 61.3 C 3.1 62.4 3.2 61.2 2.9 61.1 C 3.0 62.8 2.7 65.9 2.6 63.9 C 3.1 62.8 1.9 61.2 2.3 60.2 C 2.4 61.2 2.6 61.1 2.7 61.8 C 2.8 60.3 3.1 60.5 3.1 59.1 C 2.5 54.1 3.6 51.1 2.7 43.2 C 2.7 40.6 2.9 45.7 3.3 45.7 C 3.3 44.9 3.4 44.8 3.4 44.3 C 2.9 44.0 3.4 43.0 3.0 41.9 C 3.4 42.3 3.0 38.6 3.4 37.2 C 3.2 37.0 3.0 37.1 3.0 36.2 C 3.5 31.4 2.8 21.4 3.3 17.9 C 2.9 17.7 2.9 16.0 2.7 15.3 C 2.8 12.9 3.1 14.3 2.7 10.3 C 2.7 8.4 3.0 10.9 3.1 11.4 C 3.0 8.5 3.1 5.9 3.1 3.6 C 5.3 3.6 7.2 3.6 8.6 3.4 C 10.2 3.2 8.9 3.7 12.5 3.8 C 12.0 3.2 18.3 4.0 18.4 3.4 C 20.5 3.3 25.0 4.1 22.8 3.5 C 25.6 3.5 24.2 4.0 25.4 4.0 C 27.3 4.0 23.9 3.0 25.9 3.0 C 26.0 3.4 27.6 3.2 29.2 3.6 C 27.6 3.6 26.6 3.6 26.6 3.9 C 27.8 3.6 28.0 4.0 30.1 3.9 C 31.6 3.6 36.0 3.3 37.8 3.9 C 37.8 3.7 37.3 3.6 36.9 3.5 C 38.2 3.4 40.2 3.9 39.6 3.4 C 42.7 3.3 44.4 3.8 45.9 3.4 C 47.2 3.2 45.7 3.8 49.7 3.8 C 49.5 3.4 56.7 3.4 58.8 3.8 C 58.6 3.2 59.3 3.7 60.2 3.8 C 60.2 3.6 59.9 3.4 60.7 3.4 C 61.0 3.5 61.5 3.4 62.1 3.4 C 62.0 4.0 64.6 3.2 65.1 3.6 C 64.5 3.7 64.6 4.0 65.3 4.0 C 65.2 3.6 68.5 4.3 68.0 3.9 C 67.3 3.7 65.4 3.8 65.7 3.5 C 68.4 3.3 67.6 3.9 69.4 3.9 C 69.2 3.7 68.1 3.6 69.2 3.5 C 71.2 3.6 69.4 3.6 70.8 3.9 C 71.8 3.8 73.5 3.5 74.2 3.5 C 74.0 3.5 74.7 3.7 75.0 3.8 C 78.7 3.9 86.7 3.5 90.5 4.0 C 90.7 3.8 91.4 3.8 91.1 3.5 C 93.3 3.7 93.1 3.6 95.3 3.8 C 95.3 3.6 95.2 3.4 95.1 3.2 C 97.9 3.0 95.6 3.8 97.5 3.8 C 97.4 2.9 98.6 4.0 100.3 4.0 C 100.5 3.8 101.3 3.8 100.9 3.5 C 103.6 3.5 103.6 4.1 105.9 3.9 C 105.3 3.8 104.6 2.6 104.8 2.2 C 105.2 2.4 106.0 2.5 107.0 2.6 C 105.9 3.0 107.0 4.5 110.2 4.0 C 108.4 4.1 107.6 4.0 108.0 3.6 C 110.5 3.6 111.4 3.9 113.6 3.9 C 113.9 3.5 112.3 3.4 112.8 3.0 C 113.3 3.0 113.6 2.9 113.4 2.7 C 115.7 2.8 115.9 3.1 118.4 2.9 C 118.4 3.1 117.9 3.1 117.0 3.0 C 117.2 3.3 117.2 3.6 115.7 3.6 C 115.5 3.4 116.3 3.0 114.2 3.1 C 114.2 3.3 114.2 3.5 114.3 3.8 C 115.9 3.8 119.6 4.1 119.9 3.9 C 119.1 3.7 117.9 3.6 118.4 3.2 C 121.1 3.3 122.0 3.8 124.2 4.0 C 128.0 3.9 134.8 4.0 133.9 3.4 C 136.3 3.5 135.4 3.6 137.5 3.6 C 136.9 3.2 139.8 3.5 139.6 3.1 C 137.1 3.2 137.8 3.1 135.3 3.2 C 135.4 3.0 135.8 2.8 136.8 2.7 C 136.9 3.0 138.0 3.0 139.6 3.0 C 139.3 2.9 137.8 2.5 139.6 2.5 C 139.7 2.6 140.1 2.6 141.0 2.6 C 141.0 2.8 141.0 3.0 141.0 3.2 C 140.0 3.4 138.9 3.5 138.2 3.6 C 138.9 3.6 139.0 3.7 139.6 3.8 C 140.0 3.5 142.9 3.8 143.1 3.5 C 142.0 3.5 141.2 3.3 142.4 3.2 C 142.6 3.3 144.6 3.4 145.2 3.2 C 142.8 3.0 143.7 3.0 142.4 2.6 C 145.3 2.5 144.8 3.0 148.1 2.9 C 148.1 3.2 148.1 3.5 147.3 3.6 C 149.3 4.4 154.1 3.7 155.7 3.8 C 154.6 3.7 153.4 4.2 155.0 4.3 C 155.0 4.1 156.2 4.2 156.4 4.0 C 157.1 3.3 155.7 2.9 154.4 2.5 C 155.8 2.5 156.0 2.3 157.3 2.3 C 157.7 2.6 156.3 3.2 157.9 3.2 C 158.3 2.6 160.9 3.2 161.5 2.7 C 160.4 2.8 159.6 2.5 160.8 2.5 C 160.6 2.8 162.9 2.6 162.9 2.9 C 161.0 3.0 160.5 3.4 159.3 3.4 C 160.8 3.4 158.2 3.7 160.6 3.8 C 161.8 3.5 162.4 3.1 165.0 3.1 C 165.9 3.2 165.0 3.6 166.3 3.6 C 166.0 3.2 168.8 3.2 167.1 3.5 C 168.0 3.5 168.6 3.6 169.1 3.6 C 167.8 3.3 174.6 2.7 173.6 2.5 C 173.5 3.0 173.7 3.5 174.0 3.6 C 175.4 3.2 176.9 3.5 180.4 3.5 C 180.4 3.0 181.0 3.5 182.5 3.4 C 182.9 3.2 181.6 3.0 182.6 3.0 C 184.3 3.2 184.4 3.2 184.7 3.4 C 185.9 3.4 186.8 3.4 187.4 3.5 C 187.6 3.3 187.2 3.2 186.9 3.1 C 191.5 3.6 194.1 3.0 198.1 3.1 C 196.5 2.9 195.9 3.6 197.3 3.5 C 198.2 3.4 198.9 3.4 199.5 3.2 C 198.6 2.9 199.0 3.1 201.0 3.1 C 202.8 3.0 200.5 2.5 201.9 2.5 C 203.3 2.7 202.4 2.9 203.1 3.0 C 203.8 3.0 204.6 3.0 205.3 3.0 C 204.1 2.8 205.6 2.6 206.9 2.5 C 205.8 2.9 206.3 3.0 208.9 2.9 C 209.0 3.1 207.7 3.2 208.7 3.3 C 209.2 3.3 211.4 2.7 212.9 3.1 C 212.4 3.2 212.1 3.2 212.1 3.4 C 214.1 3.1 215.3 3.6 216.9 3.8 C 215.4 3.4 216.4 3.1 215.9 2.9 C 217.3 3.2 219.6 2.8 220.6 3.3 C 218.3 3.1 220.1 4.0 221.6 4.0 C 222.2 3.6 219.6 3.7 220.6 3.3 C 221.6 2.9 223.2 3.5 224.2 3.1 C 224.2 2.9 223.1 3.2 222.9 3.0 C 224.2 3.0 222.6 2.8 223.7 2.7 C 224.2 3.2 225.3 2.6 225.9 2.6 C 226.8 2.7 228.3 3.3 229.2 3.0 C 229.3 2.8 228.1 2.9 228.0 2.7 C 232.0 2.5 232.8 3.1 236.6 2.6 C 236.9 2.8 237.5 2.9 238.5 3.0 C 238.5 2.8 239.2 2.7 240.1 2.6 C 241.5 2.8 242.9 3.0 244.7 3.1 C 244.1 3.5 243.1 3.6 245.7 3.6 C 245.9 3.5 244.9 3.4 245.9 3.4 C 245.8 3.5 246.4 3.5 246.6 3.4 C 246.7 3.3 246.8 3.2 246.8 3.1 C 246.1 3.1 245.4 3.1 244.7 3.1 C 244.9 2.9 244.9 2.7 244.4 2.6 C 247.6 2.4 246.8 3.2 249.1 2.9 C 249.0 3.5 249.5 3.6 247.5 4.0 C 249.4 3.9 250.8 3.7 251.5 3.4 C 249.4 3.4 250.4 3.0 249.9 2.7 C 251.3 2.8 251.5 2.6 252.2 2.5 C 253.6 2.8 250.0 3.2 253.1 3.3 C 251.1 2.8 255.3 2.9 256.8 3.0 C 256.6 2.8 256.1 2.8 257.1 2.6 C 261.5 2.4 260.0 3.7 263.1 3.0 C 262.7 3.3 263.8 3.3 264.2 3.4 C 262.1 3.5 261.4 3.6 260.5 3.7 C 260.5 3.8 261.1 3.9 261.6 3.9 C 261.9 3.7 262.4 3.6 263.2 3.8 C 264.0 3.5 264.3 3.0 266.3 2.6 C 266.3 2.8 265.9 3.0 266.7 3.0 C 267.7 2.7 265.5 3.7 269.0 3.5 C 268.5 3.4 268.4 3.2 268.9 2.9 C 270.7 2.7 270.2 2.9 272.6 2.8 C 272.8 3.4 270.3 3.5 269.4 3.9 C 271.0 3.8 272.6 3.4 273.8 3.7 C 272.9 3.5 274.4 3.1 275.8 3.0 C 277.0 3.1 275.2 3.6 276.7 3.7 C 277.9 3.5 278.9 3.2 278.0 3.0 C 280.4 3.2 280.3 2.7 282.4 2.8 C 282.2 3.0 281.6 3.0 280.9 2.9 C 280.9 3.0 280.4 3.2 281.2 3.3 C 282.4 3.0 284.2 3.0 285.9 2.8 C 286.0 3.6 286.0 4.3 286.1 4.8 C 285.4 8.9 286.3 12.0 286.0 15.6 C 285.6 14.5 285.9 20.1 285.5 22.0 C 285.6 23.0 286.5 25.6 286.1 24.6 C 285.5 25.3 285.8 27.1 285.6 28.8 C 285.7 28.7 285.9 28.6 286.0 28.5 C 286.1 31.9 285.7 32.8 285.3 34.1 C 285.6 38.1 285.0 42.7 285.5 47.6 C 285.0 48.9 285.1 50.0 284.8 52.9 C 285.2 52.8 285.2 55.1 285.2 57.3 C 285.6 56.8 285.5 58.8 285.7 58.8 C 285.8 56.9 286.2 57.6 286.4 56.5 C 286.0 59.2 286.8 60.6 286.4 62.6 C 286.2 60.0 285.7 59.2 285.1 58.8 C 285.2 61.9 285.0 63.5 284.7 64.0 C 285.0 64.3 285.2 63.9 285.3 63.3 C 285.3 64.3 285.3 65.3 285.3 66.3 C 285.1 66.5 285.0 65.1 285.0 66.2 C 285.1 67.0 285.2 67.8 285.3 68.5 C 284.9 69.3 285.0 67.3 284.8 67.0 C 284.6 70.9 285.5 69.4 285.6 71.6 C 285.3 72.1 284.9 71.9 284.8 73.6 C 285.1 74.5 285.4 74.8 285.5 76.8 C 285.4 78.1 284.9 76.5 284.8 78.1 C 285.0 78.3 284.9 79.0 284.8 79.6 C 285.1 79.6 285.2 80.3 285.2 81.2 C 285.0 81.3 285.1 82.8 285.2 83.5 C 285.0 83.5 284.5 85.6 284.8 86.2 C 285.0 86.3 284.9 85.0 285.1 84.9 C 285.0 86.6 285.1 87.8 285.2 88.7 C 284.3 88.7 285.0 91.9 284.6 94.9 C 284.9 97.3 285.2 95.0 285.5 97.9 C 285.2 99.2 285.1 97.2 284.7 97.3 C 284.7 97.7 284.4 99.9 284.7 100.2 C 284.9 100.4 284.8 99.0 285.0 99.0 C 285.3 101.2 284.9 100.8 284.7 101.7 C 285.0 101.9 285.1 103.2 285.3 103.7 C 285.6 109.4 284.9 108.6 284.6 110.5 C 284.6 110.6 284.7 110.9 284.7 111.2 C 284.4 111.3 284.0 111.3 284.0 111.4 C 284.3 111.3 284.5 111.3 284.8 111.3 C 284.8 110.0 285.0 109.2 285.1 111.0 C 285.0 110.8 285.0 111.1 285.0 111.5 C 284.2 111.5 283.1 111.7 283.0 111.7 C 283.6 112.0 285.3 111.9 285.0 112.3 C 282.5 112.4 282.8 111.6 281.2 112.0 C 280.7 111.8 281.9 111.7 282.2 111.6 C 281.4 111.6 280.3 111.6 280.0 111.5 C 280.9 111.4 280.6 111.1 280.8 110.8 C 279.8 111.2 277.0 110.8 279.2 111.4 C 276.3 111.2 274.0 111.5 276.2 111.9 C 274.1 112.0 274.8 111.4 273.3 111.8 C 273.2 111.3 273.5 111.1 271.7 110.7 C 271.6 111.0 270.5 111.0 270.9 111.4 C 267.6 111.4 266.3 110.9 264.6 110.6 C 266.4 111.2 264.3 110.7 263.1 111.1 C 261.9 110.9 262.4 110.4 259.9 110.6 C 263.3 111.1 256.6 110.7 258.5 111.4 C 254.8 111.1 254.9 111.1 251.2 111.0 C 251.3 110.7 252.0 110.5 253.5 110.4 C 252.8 110.8 256.8 110.8 256.4 110.6 C 256.3 110.5 256.2 110.4 256.1 110.3 C 253.6 110.4 251.7 110.3 250.4 110.0 C 250.1 110.3 249.0 110.5 249.9 111.0 C 246.9 110.4 244.9 111.2 243.4 110.7 C 244.2 110.7 245.0 110.7 244.6 110.4 C 243.7 110.6 242.5 110.6 242.9 111.0 C 245.1 111.1 245.5 111.1 246.3 110.8 C 245.7 111.2 248.7 111.4 246.8 111.5 C 246.4 110.9 243.0 111.8 243.9 111.3 C 246.0 111.1 241.2 111.0 240.7 110.7 C 240.7 110.7 240.7 110.7 240.7 110.7 Z M 3.1 59.8 C 3.3 62.0 3.7 59.6 3.7 57.9 C 3.5 58.4 3.4 58.5 3.1 58.4 C 3.2 59.0 3.3 59.7 3.1 59.8 C 3.1 59.8 3.1 59.8 3.1 59.8 Z M 8.9 40.9 C 8.4 39.9 8.7 43.4 8.6 44.8 C 8.7 44.4 8.8 44.1 8.9 44.9 C 9.2 43.7 8.5 42.7 8.9 40.9 C 8.9 40.9 8.9 40.9 8.9 40.9 Z M 51.1 7.9 C 50.6 8.0 49.4 8.1 49.1 7.9 C 48.3 7.9 48.7 8.2 48.7 8.3 C 47.1 8.4 48.7 7.7 46.3 7.9 C 46.0 8.7 51.2 8.8 51.1 7.9 C 51.1 7.9 51.1 7.9 51.1 7.9 Z M 261.4 104.9 C 260.2 104.6 262.2 104.3 261.2 104.0 C 257.8 104.3 261.1 104.7 255.8 104.6 C 256.2 104.7 256.7 104.8 256.8 105.0 C 259.1 104.8 259.0 104.6 259.1 105.3 C 260.2 105.3 259.7 104.4 261.4 104.9 C 261.4 104.9 261.4 104.9 261.4 104.9 Z M 211.6 103.2 C 212.1 103.3 212.5 103.4 212.6 103.6 C 214.0 103.4 213.6 103.3 215.8 103.5 C 215.1 102.9 213.2 102.9 211.6 103.2 C 211.6 103.2 211.6 103.2 211.6 103.2 Z M 84.1 102.3 C 83.7 102.3 83.2 102.3 82.8 102.3 C 83.2 102.5 82.1 103.1 84.3 102.9 C 84.4 102.8 84.0 102.8 83.6 102.8 C 84.0 102.7 85.1 102.7 84.8 102.4 C 84.2 102.4 84.2 102.4 84.1 102.3 C 84.1 102.3 84.1 102.3 84.1 102.3 Z M 31.0 105.9 C 33.6 105.5 27.1 104.6 31.0 105.9 C 31.0 105.9 31.0 105.9 31.0 105.9 C 31.0 105.9 31.0 105.9 31.0 105.9 Z M 37.0 110.5 C 37.1 110.6 37.7 110.6 37.6 110.5 C 39.9 110.6 37.7 110.8 39.0 111.0 C 40.8 110.7 38.0 110.3 40.3 110.1 C 39.9 109.8 38.3 110.5 37.0 110.5 C 37.0 110.5 37.0 110.5 37.0 110.5 Z M 260.1 3.2 C 258.1 3.4 257.2 3.7 256.5 4.2 C 257.8 4.2 258.9 4.2 259.1 4.4 C 261.8 4.2 257.7 4.1 257.4 4.0 C 257.9 3.7 259.8 3.6 260.1 3.2 C 260.1 3.2 260.1 3.2 260.1 3.2 Z M 253.7 3.4 C 252.7 3.6 251.4 3.7 251.0 4.0 C 252.3 4.0 252.3 4.1 252.3 4.3 C 253.5 4.1 252.4 3.8 253.7 3.4 C 253.7 3.4 253.7 3.4 253.7 3.4 Z M 265.3 3.8 C 264.3 3.8 264.4 4.1 264.1 4.3 C 265.5 4.3 265.5 4.4 266.8 4.4 C 266.9 4.3 267.1 4.2 267.2 4.0 C 266.1 4.0 265.9 4.1 264.9 4.1 C 265.0 4.0 265.2 3.9 265.3 3.8 C 265.3 3.8 265.3 3.8 265.3 3.8 Z M 247.0 3.9 C 243.3 3.8 241.2 4.5 238.4 5.1 C 241.1 5.0 244.1 4.2 245.8 4.4 C 248.2 4.3 245.3 4.2 245.4 4.0 C 245.6 3.9 246.4 3.9 247.0 3.9 C 247.0 3.9 247.0 3.9 247.0 3.9 Z M 214.7 3.9 C 214.1 3.6 212.4 4.3 210.3 4.2 C 210.7 4.3 211.0 4.4 210.9 4.5 C 213.8 4.7 212.4 3.9 214.7 3.9 C 214.7 3.9 214.7 3.9 214.7 3.9 Z M 197.1 4.2 C 195.2 4.2 197.9 4.4 196.9 4.7 C 198.9 4.7 201.1 4.7 201.2 4.3 C 198.9 4.5 198.4 4.5 197.1 4.2 C 197.1 4.2 197.1 4.2 197.1 4.2 Z M 184.4 4.2 C 182.3 4.3 185.2 4.7 184.2 5.1 C 185.0 5.0 184.9 4.8 185.0 4.7 C 185.6 4.7 186.1 4.8 187.0 4.8 C 186.4 4.5 184.0 4.6 184.4 4.2 C 184.4 4.2 184.4 4.2 184.4 4.2 Z M 284.3 31.6 C 284.2 30.3 283.8 30.9 283.9 28.1 C 283.9 32.3 282.7 30.6 282.9 35.8 C 283.1 34.9 283.2 35.4 283.0 35.8 C 283.3 37.7 283.3 33.8 283.7 35.5 C 283.7 34.0 283.2 35.1 283.2 33.6 C 283.6 31.9 283.8 30.9 284.3 31.6 C 284.3 31.6 284.3 31.6 284.3 31.6 Z M 282.5 36.0 C 282.4 37.5 283.2 37.2 282.8 38.0 C 282.8 38.7 282.9 38.5 283.0 38.6 C 283.0 38.1 283.1 38.0 283.2 37.9 C 283.0 36.7 282.9 35.5 282.5 36.0 C 282.5 36.0 282.5 36.0 282.5 36.0 Z M 282.5 22.5 C 282.7 24.8 282.4 25.7 282.8 26.6 C 282.2 27.8 283.0 28.1 282.5 29.6 C 282.6 31.9 282.8 30.1 283.0 29.3 C 283.2 31.6 282.6 30.1 282.8 32.3 C 283.2 32.5 283.1 29.7 283.6 29.8 C 283.6 28.0 283.3 28.2 283.2 27.1 C 283.2 26.2 283.4 26.4 283.6 26.2 C 283.4 24.2 283.7 24.1 283.7 22.5 C 283.3 22.3 283.2 23.1 283.3 24.9 C 283.1 23.1 282.8 22.4 283.0 20.1 C 283.4 21.4 283.6 14.0 282.9 15.1 C 282.8 17.1 283.2 16.3 283.3 17.0 C 282.9 19.8 283.0 21.3 282.5 22.5 C 282.5 22.5 282.5 22.5 282.5 22.5 Z M 264.9 5.1 C 264.3 5.0 263.9 4.9 262.9 4.9 C 263.1 4.6 264.3 4.7 263.3 4.4 C 261.9 4.4 261.4 4.5 260.4 4.5 C 260.8 4.7 263.6 5.1 261.8 5.3 C 262.1 5.5 263.1 5.6 264.4 5.6 C 263.4 5.0 266.5 5.6 267.9 5.6 C 268.3 5.0 270.2 5.7 271.6 5.3 C 271.1 5.0 267.9 5.3 266.7 5.3 C 267.4 5.3 264.0 4.4 264.9 5.1 C 264.9 5.1 264.9 5.1 264.9 5.1 Z M 282.8 41.6 C 282.9 42.0 283.0 43.6 283.0 42.3 C 283.2 42.9 283.0 44.3 283.6 43.5 C 283.6 44.3 283.6 45.0 283.6 45.7 C 283.4 45.5 283.4 43.5 283.0 44.4 C 283.3 45.8 283.0 45.3 283.0 47.2 C 282.7 46.3 282.6 47.4 282.1 46.7 C 282.3 47.2 282.3 49.0 282.6 48.8 C 282.6 51.5 282.1 48.1 282.1 51.7 C 281.8 51.7 281.8 49.1 282.0 48.2 C 281.6 47.8 281.9 52.6 281.7 55.2 C 282.1 52.9 282.4 54.7 282.8 55.9 C 282.7 56.7 282.5 55.9 282.3 57.3 C 282.2 58.5 282.5 59.1 282.3 59.5 C 282.3 60.4 282.6 60.0 282.8 60.2 C 282.7 61.8 282.2 60.5 282.3 63.0 C 282.8 61.2 282.9 63.3 282.8 66.6 C 282.9 66.4 283.0 65.3 283.2 65.2 C 283.4 65.8 282.9 67.6 282.8 68.0 C 282.9 69.2 283.1 68.5 283.0 67.4 C 283.2 68.1 283.3 68.8 283.4 69.6 C 283.5 66.0 283.4 60.3 283.9 53.7 C 283.6 55.0 283.5 53.5 283.7 51.5 C 283.9 51.2 283.9 52.0 283.9 53.0 C 284.4 50.6 283.4 50.8 283.7 47.2 C 283.8 45.2 284.0 49.3 284.2 47.1 C 284.1 45.7 283.8 44.9 284.2 44.1 C 284.0 41.8 283.5 41.4 283.6 37.7 C 283.3 39.9 282.4 41.1 282.6 43.1 C 282.8 43.1 282.8 42.2 282.8 41.6 C 282.8 41.6 282.8 41.6 282.8 41.6 Z M 252.1 4.5 C 250.9 4.5 250.1 4.8 250.0 4.5 C 247.8 4.7 249.9 5.0 250.2 5.1 C 251.3 5.0 251.7 4.8 252.1 4.5 C 252.1 4.5 252.1 4.5 252.1 4.5 Z M 39.8 4.5 C 37.0 4.4 37.9 4.9 35.8 4.9 C 37.6 5.1 38.3 5.4 41.0 5.3 C 40.9 5.0 40.7 4.7 39.8 4.5 C 39.8 4.5 39.8 4.5 39.8 4.5 Z M 258.8 4.8 C 260.9 4.4 256.4 5.3 256.7 4.9 C 254.5 5.2 258.3 5.2 256.1 5.6 C 258.0 5.3 258.8 5.7 261.0 5.5 C 261.2 5.2 259.5 5.2 257.8 5.2 C 257.8 5.0 258.7 5.0 258.8 4.8 C 258.8 4.8 258.8 4.8 258.8 4.8 Z M 67.6 5.6 C 69.2 5.3 65.5 4.9 64.3 4.7 C 64.5 5.2 65.0 5.1 67.6 5.6 C 67.6 5.6 67.6 5.6 67.6 5.6 Z M 22.2 5.2 C 21.6 5.7 25.3 5.2 24.7 5.7 C 26.0 5.8 26.0 5.6 25.9 5.5 C 26.6 5.6 28.5 5.5 28.2 5.8 C 28.9 6.2 25.1 5.8 26.6 6.2 C 25.5 6.3 25.2 6.1 24.4 6.1 C 26.4 6.1 25.1 5.7 22.5 5.6 C 22.8 5.9 23.9 5.8 23.0 6.1 C 22.7 5.9 21.1 5.6 20.7 5.1 C 18.5 5.1 20.4 5.8 17.8 5.7 C 18.3 6.0 19.9 6.0 20.9 6.1 C 21.1 6.5 17.9 5.8 19.1 6.4 C 18.2 6.0 16.6 5.9 16.2 5.5 C 18.0 5.3 19.0 5.0 20.5 4.8 C 18.7 4.6 17.4 5.5 14.5 5.1 C 15.0 5.4 13.4 5.4 14.3 5.7 C 12.2 5.6 12.7 5.1 13.0 5.1 C 12.2 4.8 8.5 5.0 9.1 5.3 C 8.6 5.1 5.8 5.1 4.8 5.3 C 4.9 5.8 5.0 6.1 5.1 6.2 C 4.8 7.3 5.4 10.1 4.8 10.1 C 5.0 11.1 5.0 12.7 5.0 14.5 C 5.4 15.4 5.2 12.1 5.5 12.2 C 5.8 12.0 5.4 15.4 5.7 15.2 C 5.8 15.3 5.9 15.4 6.0 15.4 C 5.9 13.9 5.8 12.4 5.6 10.9 C 5.7 9.9 5.8 11.3 6.0 11.3 C 5.8 10.4 5.5 7.3 5.7 6.2 C 6.2 6.2 6.6 6.3 6.8 6.5 C 9.5 6.3 11.7 6.4 12.7 6.1 C 14.4 6.1 11.9 6.3 13.2 6.6 C 17.8 6.1 24.7 6.7 28.5 6.1 C 29.4 6.1 29.4 6.4 29.7 6.6 C 35.3 6.4 29.8 5.8 34.6 6.0 C 34.9 6.3 32.6 6.3 33.1 6.6 C 34.7 6.6 34.9 6.4 37.1 6.5 C 37.0 6.3 36.9 6.2 36.7 6.0 C 38.5 6.0 38.2 6.5 39.2 6.6 C 41.4 6.5 40.6 6.3 42.1 6.8 C 44.0 6.6 45.9 6.4 48.2 6.6 C 49.4 6.3 46.3 5.7 44.1 5.7 C 44.1 5.6 44.7 5.6 44.6 5.5 C 47.4 5.8 48.4 6.6 52.3 6.6 C 49.1 6.2 53.7 6.4 54.5 6.8 C 56.1 6.7 54.5 6.2 53.5 6.2 C 53.6 6.1 54.7 6.2 54.9 6.4 C 54.7 5.8 50.7 5.5 46.9 5.7 C 48.3 5.0 44.1 5.8 45.6 4.9 C 42.5 5.1 45.6 5.6 41.9 5.5 C 42.3 5.7 43.1 5.8 43.6 6.0 C 40.9 6.1 41.3 5.5 38.4 5.6 C 38.2 5.9 40.1 5.8 40.3 6.1 C 36.8 5.7 35.7 5.6 33.3 5.2 C 33.1 5.4 33.9 5.8 30.1 5.6 C 30.1 5.5 30.0 5.4 29.9 5.3 C 31.7 5.4 31.5 4.7 27.3 4.7 C 27.2 4.9 28.5 4.9 29.6 4.9 C 29.3 5.2 28.1 5.3 26.5 5.3 C 25.6 5.3 24.5 5.1 25.6 5.1 C 24.6 4.7 24.6 5.4 22.2 5.2 C 22.2 5.2 22.2 5.2 22.2 5.2 Z M 217.7 4.8 C 217.1 4.9 216.5 4.9 215.5 4.9 C 214.9 5.3 216.8 5.2 216.7 5.5 C 218.1 5.5 217.2 5.0 217.7 4.8 C 217.7 4.8 217.7 4.8 217.7 4.8 Z M 237.0 5.1 C 237.1 4.7 235.7 5.2 234.2 5.1 C 233.5 5.4 235.5 5.3 235.3 5.6 C 237.1 5.7 235.2 5.0 237.0 5.1 C 237.0 5.1 237.0 5.1 237.0 5.1 Z M 228.7 5.1 C 228.1 4.7 227.8 5.3 229.3 5.2 C 229.1 5.4 228.6 5.6 227.6 5.7 C 228.4 6.1 229.5 5.4 231.1 5.6 C 230.7 5.4 229.8 5.2 228.7 5.1 C 228.7 5.1 228.7 5.1 228.7 5.1 Z M 225.9 5.1 C 224.7 5.3 224.2 5.0 222.4 5.2 C 222.6 5.5 226.6 5.3 227.2 5.2 C 228.0 4.9 223.9 4.9 225.9 5.1 C 225.9 5.1 225.9 5.1 225.9 5.1 Z M 95.5 6.1 C 94.8 6.1 95.0 6.3 94.9 6.4 C 92.5 5.8 89.6 5.9 91.7 5.3 C 89.6 5.7 87.3 5.2 85.4 5.1 C 83.8 5.0 84.7 5.4 83.5 5.5 C 81.4 5.4 84.5 5.3 84.0 5.1 C 83.4 4.8 83.1 5.5 80.6 5.2 C 81.6 5.9 78.4 5.1 79.5 5.8 C 78.1 5.6 77.8 5.8 76.0 5.8 C 76.3 6.1 78.0 6.1 78.4 6.4 C 79.4 6.8 79.1 6.0 77.6 6.1 C 78.3 5.7 81.0 6.3 81.6 6.0 C 82.7 6.4 79.4 6.1 80.5 6.5 C 81.1 6.4 81.7 6.4 81.7 6.2 C 82.8 6.3 83.5 6.4 84.0 6.6 C 83.4 6.6 83.3 6.6 83.2 6.5 C 82.0 6.5 84.8 7.1 82.1 7.1 C 82.7 7.3 83.8 7.3 83.7 7.5 C 84.6 7.8 83.2 6.4 86.2 6.9 C 87.8 6.5 81.7 6.5 82.9 5.7 C 86.8 5.8 84.9 6.4 88.0 6.5 C 87.9 6.3 87.8 6.1 88.6 6.1 C 88.4 5.9 87.3 6.0 86.5 6.0 C 86.5 5.8 87.7 5.9 88.5 5.8 C 88.3 5.7 87.7 5.7 87.6 5.6 C 90.3 5.7 90.4 6.6 88.1 6.8 C 88.3 7.1 91.5 7.1 92.3 6.9 C 91.3 6.6 92.3 6.6 91.4 6.2 C 90.7 6.2 90.9 6.4 90.8 6.5 C 89.5 6.4 90.6 6.3 90.6 6.1 C 92.1 6.2 92.1 6.5 93.4 6.2 C 93.1 6.3 92.8 6.4 92.9 6.6 C 93.6 6.6 94.3 6.6 95.0 6.6 C 94.8 6.4 95.7 6.3 95.5 6.1 C 95.5 6.1 95.5 6.1 95.5 6.1 Z M 58.9 5.1 C 56.6 5.0 58.0 5.3 59.1 5.3 C 58.7 5.4 57.9 5.5 57.2 5.6 C 57.9 5.7 58.5 5.6 60.7 5.7 C 59.1 6.2 61.5 7.0 64.9 6.9 C 65.5 6.1 62.5 6.0 63.4 5.6 C 61.0 5.8 59.5 5.6 58.9 5.1 C 58.9 5.1 58.9 5.1 58.9 5.1 Z M 250.1 5.2 C 248.8 5.2 247.4 5.2 246.0 5.2 C 245.9 5.6 250.0 5.8 250.1 5.2 C 250.1 5.2 250.1 5.2 250.1 5.2 Z M 282.9 72.3 C 282.9 72.9 282.9 73.0 282.8 73.0 C 282.9 75.2 283.1 72.2 283.4 73.2 C 283.4 72.5 283.4 71.7 283.4 71.0 C 283.3 70.9 283.0 73.9 282.9 71.6 C 282.8 71.7 282.8 72.3 282.9 72.3 C 282.9 72.3 282.9 72.3 282.9 72.3 Z M 218.8 5.3 C 217.5 5.5 218.0 6.0 215.0 5.8 C 216.0 6.1 216.7 6.0 218.5 6.0 C 218.6 5.8 218.7 5.5 218.8 5.3 C 218.8 5.3 218.8 5.3 218.8 5.3 Z M 105.7 5.5 C 103.8 5.0 103.6 6.0 100.2 5.7 C 102.0 6.2 103.7 5.6 105.7 5.5 C 105.7 5.5 105.7 5.5 105.7 5.5 Z M 5.6 20.6 C 5.7 19.7 5.8 21.1 6.0 19.6 C 5.9 18.5 5.6 17.9 5.6 16.4 C 5.2 18.0 5.6 21.9 5.0 22.8 C 5.0 24.6 5.5 24.8 5.7 25.6 C 5.7 24.7 5.8 24.4 5.9 24.3 C 5.3 22.8 6.2 22.4 5.6 20.6 C 5.6 20.6 5.6 20.6 5.6 20.6 Z M 68.3 5.7 C 69.7 5.9 67.6 6.1 67.3 6.4 C 66.4 6.3 66.5 6.0 66.3 5.8 C 65.1 5.9 64.9 6.1 65.2 6.4 C 67.6 6.5 70.4 6.5 69.0 7.0 C 71.3 7.1 69.8 6.6 70.8 6.5 C 72.2 6.8 71.1 6.9 71.2 7.3 C 71.7 7.2 73.2 6.7 73.3 7.3 C 76.3 6.7 74.5 6.1 71.7 5.5 C 69.7 5.9 72.3 6.0 68.3 5.7 C 68.3 5.7 68.3 5.7 68.3 5.7 Z M 156.3 6.1 C 156.1 6.0 154.9 6.0 154.9 5.8 C 153.4 6.2 152.1 6.6 150.7 7.0 C 151.0 7.4 152.8 7.0 152.1 6.8 C 152.6 7.0 154.0 7.2 154.8 7.4 C 156.1 7.5 156.7 6.6 156.8 7.3 C 158.2 7.0 157.4 7.0 159.6 7.1 C 156.1 6.7 160.8 6.9 161.1 6.5 C 159.1 6.5 157.3 6.5 157.5 6.9 C 156.1 6.7 154.5 6.6 154.2 6.2 C 154.3 6.1 155.5 6.1 156.3 6.1 C 156.3 6.1 156.3 6.1 156.3 6.1 Z M 148.0 7.3 C 148.5 7.2 149.0 7.1 150.0 7.1 C 149.4 7.0 149.2 6.9 149.3 6.6 C 147.6 6.6 147.2 6.9 146.6 6.5 C 145.0 6.4 147.0 7.1 144.5 6.9 C 144.7 7.0 145.9 7.0 145.9 7.2 C 146.1 6.9 147.1 6.8 148.0 7.3 C 148.0 7.3 148.0 7.3 148.0 7.3 Z M 126.6 6.5 C 124.8 6.5 127.6 6.7 126.7 7.0 C 127.1 7.0 130.6 7.1 130.1 7.4 C 131.2 7.9 134.6 6.9 134.3 7.5 C 135.1 7.5 134.8 7.3 134.9 7.1 C 132.5 7.3 132.5 6.9 134.2 6.9 C 134.0 6.7 132.5 6.8 131.5 6.8 C 131.4 7.0 132.3 7.0 132.2 7.3 C 130.1 7.1 128.5 6.7 126.6 6.5 C 126.6 6.5 126.6 6.5 126.6 6.5 Z M 243.1 108.7 C 244.7 108.7 245.7 108.6 246.4 108.5 C 245.7 108.3 245.1 108.5 244.3 108.5 C 243.9 108.3 244.7 108.3 245.5 108.3 C 244.4 107.9 241.8 108.3 243.1 108.7 C 243.1 108.7 243.1 108.7 243.1 108.7 Z M 256.8 108.7 C 258.3 108.7 259.3 108.6 259.3 108.4 C 258.4 108.2 259.0 108.5 258.0 108.5 C 257.3 108.4 256.8 108.3 256.3 108.1 C 255.6 108.1 255.9 108.3 255.8 108.4 C 255.3 108.4 255.2 108.3 255.0 108.3 C 253.5 108.6 257.2 108.2 256.8 108.7 C 256.8 108.7 256.8 108.7 256.8 108.7 Z M 138.3 6.8 C 138.9 6.9 139.4 7.2 141.1 7.1 C 140.7 6.9 142.1 6.9 143.1 6.9 C 141.5 6.6 140.7 6.7 138.3 6.8 C 138.3 6.8 138.3 6.8 138.3 6.8 Z M 281.9 46.8 C 282.2 44.6 281.6 45.0 281.9 41.9 C 281.7 41.9 281.6 42.0 281.5 42.0 C 281.8 43.7 281.6 44.6 281.9 46.8 C 281.9 46.8 281.9 46.8 281.9 46.8 Z M 59.9 108.4 C 60.1 108.1 58.0 108.3 57.8 108.0 C 57.5 108.6 56.2 107.6 52.3 107.7 C 52.2 107.6 52.5 107.5 53.0 107.5 C 49.7 107.4 54.0 107.9 54.4 108.3 C 56.9 108.2 57.4 108.5 59.9 108.4 C 59.9 108.4 59.9 108.4 59.9 108.4 Z M 13.0 7.3 C 13.1 7.2 12.6 7.2 12.2 7.1 C 11.8 7.1 11.3 7.1 10.9 7.1 C 11.5 7.7 14.0 7.9 12.8 8.4 C 13.4 8.5 13.4 8.4 13.4 8.3 C 15.6 7.2 19.9 9.1 23.6 8.3 C 24.2 8.3 24.0 8.2 24.0 8.1 C 23.5 8.1 23.3 8.0 23.2 7.9 C 23.2 8.5 18.7 7.9 20.3 7.7 C 20.0 7.5 19.5 7.6 19.6 7.7 C 19.1 7.7 18.7 7.7 18.2 7.7 C 18.6 7.8 19.6 7.9 19.9 8.1 C 17.6 7.9 14.8 7.8 15.8 7.3 C 14.5 7.3 14.2 7.5 13.4 7.7 C 12.5 7.6 12.2 7.3 13.0 7.3 C 13.0 7.3 13.0 7.3 13.0 7.3 Z M 6.9 18.9 C 6.8 21.0 7.3 20.6 7.2 22.6 C 7.5 21.6 7.0 19.5 7.3 18.0 C 7.1 18.1 7.1 19.0 6.9 18.9 C 6.9 18.9 6.9 18.9 6.9 18.9 Z M 35.4 7.9 C 35.4 8.4 37.3 8.4 39.3 8.4 C 39.3 8.0 37.5 7.9 35.4 7.9 C 35.4 7.9 35.4 7.9 35.4 7.9 Z M 26.6 7.9 C 24.7 8.1 29.2 8.0 28.4 8.4 C 29.4 8.4 30.3 8.4 30.5 8.6 C 31.2 8.5 31.0 8.3 32.4 8.3 C 32.1 8.1 30.0 8.2 30.0 7.9 C 28.7 8.2 28.4 8.2 26.6 7.9 C 26.6 7.9 26.6 7.9 26.6 7.9 Z M 25.3 7.9 C 24.1 8.1 26.3 8.7 27.9 8.7 C 27.1 8.4 26.4 8.1 25.3 7.9 C 25.3 7.9 25.3 7.9 25.3 7.9 Z M 184.6 8.1 C 183.7 8.1 184.3 8.4 183.2 8.4 C 183.1 8.6 187.2 8.6 183.8 8.7 C 184.9 9.2 185.8 8.5 187.3 8.6 C 186.8 8.5 186.5 8.3 187.3 8.3 C 187.9 8.0 184.1 8.4 184.6 8.1 C 184.6 8.1 184.6 8.1 184.6 8.1 Z M 180.6 8.1 C 179.8 8.1 180.2 8.2 180.6 8.2 C 180.4 8.3 179.3 8.3 178.5 8.3 C 178.4 8.1 179.8 8.9 179.6 9.2 C 183.1 8.9 180.6 8.5 180.6 8.1 C 180.6 8.1 180.6 8.1 180.6 8.1 Z M 177.1 8.3 C 175.0 8.0 171.8 8.1 170.3 8.4 C 171.8 9.0 176.0 8.8 177.1 8.3 C 177.1 8.3 177.1 8.3 177.1 8.3 Z M 199.5 8.4 C 195.6 8.0 187.4 8.6 194.5 9.0 C 194.4 8.7 199.2 8.5 201.4 8.7 C 201.6 8.5 204.3 8.2 204.2 8.4 C 206.2 8.1 198.7 8.1 199.5 8.4 C 199.5 8.4 199.5 8.4 199.5 8.4 Z M 167.4 9.2 C 168.6 9.0 167.3 8.3 168.9 8.6 C 169.9 8.5 168.7 8.4 169.0 8.2 C 166.9 8.2 162.5 8.6 162.2 8.2 C 161.1 8.3 160.7 8.6 158.8 8.6 C 158.7 8.8 166.0 8.2 167.5 9.0 C 167.3 9.1 164.7 9.2 167.4 9.2 C 167.4 9.2 167.4 9.2 167.4 9.2 Z M 279.5 47.3 C 279.9 47.4 279.6 44.7 280.0 45.1 C 279.6 43.8 279.9 42.2 279.5 40.6 C 279.6 40.1 280.2 40.1 280.3 37.7 C 280.0 37.7 280.0 38.9 279.8 37.9 C 279.7 35.7 280.2 36.1 280.0 33.7 C 279.4 34.4 279.9 28.5 279.3 29.4 C 279.3 30.7 279.6 30.4 279.5 32.6 C 279.5 33.4 279.3 33.2 279.3 34.1 C 278.9 33.6 279.5 32.2 279.1 31.5 C 278.9 31.8 278.9 33.4 278.6 33.7 C 278.7 34.7 278.8 33.4 279.0 33.5 C 279.1 36.1 278.1 33.8 278.2 36.5 C 278.6 35.8 278.6 35.8 279.0 36.2 C 278.8 37.4 279.1 40.7 278.6 39.0 C 278.3 39.3 278.8 41.2 279.0 40.8 C 279.1 41.9 278.9 42.1 278.7 42.2 C 278.9 45.0 279.2 45.3 279.7 44.6 C 280.0 45.1 279.4 45.6 279.5 47.3 C 279.5 47.3 279.5 47.3 279.5 47.3 Z M 221.1 8.6 C 222.9 8.3 219.3 8.7 217.8 8.6 C 219.6 8.6 218.7 9.2 220.8 9.2 C 220.1 9.1 220.3 9.0 221.6 9.0 C 222.1 8.8 219.2 8.6 221.1 8.6 C 221.1 8.6 221.1 8.6 221.1 8.6 Z M 154.7 8.6 C 154.0 8.3 150.4 8.5 148.6 8.4 C 148.9 9.0 153.4 8.2 154.0 8.8 C 155.0 8.8 153.4 8.6 154.7 8.6 C 154.7 8.6 154.7 8.6 154.7 8.6 Z M 280.0 21.5 C 280.0 20.8 279.9 21.3 279.9 21.6 C 279.7 21.5 279.8 20.0 279.8 19.0 C 279.5 20.7 279.4 19.0 279.0 19.6 C 279.0 18.8 279.0 18.5 278.9 18.4 C 279.6 17.8 278.5 14.6 278.4 18.9 C 278.8 17.8 278.7 18.1 278.9 19.7 C 278.6 21.8 278.9 23.0 278.5 24.0 C 278.5 25.2 278.8 25.5 278.7 27.1 C 278.4 27.7 278.3 29.2 277.7 28.4 C 277.7 31.2 278.6 28.7 278.7 31.0 C 278.5 33.4 278.3 30.2 278.0 30.8 C 278.0 31.4 277.8 31.4 277.7 31.6 C 277.7 32.4 278.1 32.2 278.1 31.4 C 278.2 31.6 278.6 33.7 278.1 33.3 C 278.3 34.5 279.3 30.6 278.9 29.0 C 278.8 27.9 279.6 27.4 279.5 28.6 C 279.9 28.0 279.0 26.3 279.8 26.4 C 279.8 25.5 279.8 24.6 279.8 23.7 C 279.7 23.9 279.7 24.5 279.5 24.5 C 279.5 23.7 279.5 22.8 279.5 21.9 C 279.7 22.5 279.9 22.4 280.0 21.5 C 280.0 21.5 280.0 21.5 280.0 21.5 Z M 163.5 8.7 C 161.8 8.7 161.4 8.9 160.0 9.0 C 160.5 9.3 164.2 9.1 163.5 8.7 C 163.5 8.7 163.5 8.7 163.5 8.7 Z M 278.4 58.7 C 278.5 58.5 278.4 57.3 278.6 57.3 C 278.8 59.4 279.0 57.1 279.7 58.7 C 279.3 56.0 278.4 55.2 278.1 58.7 C 278.2 61.2 278.3 56.1 278.4 58.7 C 278.4 58.7 278.4 58.7 278.4 58.7 Z M 278.6 50.8 C 278.4 49.2 278.2 53.2 278.1 54.1 C 278.0 54.1 277.8 54.1 277.7 54.1 C 278.3 56.3 278.5 53.3 279.3 55.3 C 279.5 52.7 279.6 51.6 279.4 49.3 C 279.2 49.5 279.3 50.0 279.4 50.0 C 279.3 51.7 278.8 50.6 279.0 48.8 C 278.8 49.3 278.8 50.9 278.7 52.1 C 278.8 51.7 279.0 51.3 279.1 51.4 C 279.2 52.8 278.9 52.3 278.9 53.4 C 278.7 53.4 278.4 50.9 278.6 50.8 C 278.6 50.8 278.6 50.8 278.6 50.8 Z M 202.1 105.8 C 203.4 105.7 200.2 105.2 199.9 104.6 C 198.5 104.6 198.2 104.7 197.3 104.8 C 198.0 105.0 199.6 105.0 200.4 105.3 C 200.5 105.8 198.2 105.2 197.9 105.5 C 197.4 106.1 201.2 105.3 202.1 105.8 C 202.1 105.8 202.1 105.8 202.1 105.8 Z M 260.5 9.4 C 259.7 9.4 260.0 9.5 260.3 9.5 C 260.1 9.6 258.9 9.6 259.0 9.5 C 257.9 9.5 259.4 9.7 258.2 9.7 C 257.7 10.0 260.1 9.7 260.2 9.6 C 261.8 9.6 260.2 10.1 260.4 10.3 C 261.7 10.3 261.6 9.9 263.3 10.0 C 262.4 9.8 261.6 9.5 260.5 9.4 C 260.5 9.4 260.5 9.4 260.5 9.4 Z M 279.1 63.3 C 279.3 63.6 278.5 61.7 278.9 60.0 C 278.9 57.7 278.4 61.4 278.5 59.3 C 278.4 61.0 278.7 63.2 278.7 65.9 C 279.0 66.6 278.8 62.2 279.0 64.6 C 279.2 64.5 279.1 63.9 279.0 63.9 C 279.0 63.4 279.1 63.3 279.1 63.3 C 279.1 63.3 279.1 63.3 279.1 63.3 Z M 278.2 60.6 C 278.1 60.7 278.1 61.3 278.2 61.3 C 278.2 62.1 277.8 62.1 277.8 61.2 C 277.4 62.3 278.2 62.3 278.0 64.5 C 278.3 63.6 278.5 63.1 278.2 65.1 C 278.6 66.9 278.5 61.4 278.2 60.6 C 278.2 60.6 278.2 60.6 278.2 60.6 Z M 223.5 105.5 C 223.2 105.4 221.8 105.4 220.7 105.4 C 221.8 105.1 227.4 105.3 228.3 105.5 C 228.8 105.5 229.3 105.4 229.6 105.5 C 229.5 105.4 230.8 105.2 230.0 105.1 C 230.0 105.0 231.2 105.1 231.1 104.9 C 233.2 105.0 230.7 105.2 231.5 105.4 C 233.6 105.0 233.4 105.3 236.2 105.4 C 235.5 105.0 232.4 105.1 232.2 104.6 C 230.4 105.1 227.7 104.8 226.0 104.4 C 228.6 105.0 220.9 105.3 217.1 105.1 C 217.1 104.9 215.8 105.0 214.1 104.7 C 212.8 104.4 213.8 105.2 215.7 105.0 C 215.8 105.3 212.9 105.1 211.8 105.1 C 213.3 105.4 212.6 105.5 213.5 105.7 C 216.1 105.7 213.6 105.6 213.9 105.3 C 214.5 105.3 215.2 105.3 215.9 105.3 C 212.8 105.9 221.1 105.4 218.0 105.4 C 220.7 105.4 221.1 105.8 223.5 105.5 C 223.5 105.5 223.5 105.5 223.5 105.5 Z M 279.1 97.8 C 279.1 97.3 278.8 95.0 279.1 95.2 C 278.8 92.2 278.5 94.3 278.5 91.3 C 278.3 91.4 278.4 92.6 278.2 92.5 C 278.4 93.7 278.5 95.0 278.9 95.0 C 278.8 96.3 279.0 96.8 279.0 97.7 C 278.8 97.2 278.7 96.6 278.7 95.5 C 278.4 95.0 278.2 95.3 278.2 97.1 C 278.6 98.1 278.9 97.8 279.1 97.8 C 279.1 97.8 279.1 97.8 279.1 97.8 Z M 278.6 90.8 C 278.7 90.5 278.8 90.2 279.0 90.4 C 279.4 89.7 278.5 89.7 278.5 88.7 C 278.5 88.0 278.7 88.4 278.9 88.3 C 278.8 87.1 278.7 86.2 278.9 85.7 C 278.7 83.8 278.5 87.5 278.4 88.0 C 278.4 89.3 278.7 89.1 278.6 90.8 C 278.6 90.8 278.6 90.8 278.6 90.8 Z M 279.0 71.2 C 279.4 71.0 278.8 70.1 278.9 69.2 C 278.5 69.8 278.7 71.8 278.2 70.3 C 278.1 72.2 278.1 72.3 278.2 74.3 C 277.9 75.4 278.6 74.5 278.4 72.4 C 278.5 72.7 278.6 73.6 278.7 73.8 C 278.0 74.8 279.2 78.6 278.6 76.3 C 278.7 75.8 278.9 75.5 279.0 75.2 C 278.7 74.6 278.8 70.2 279.0 71.2 C 279.0 71.2 279.0 71.2 279.0 71.2 Z M 273.9 10.1 C 276.4 10.1 276.7 10.0 278.6 10.1 C 278.6 10.3 278.6 10.5 278.6 10.8 C 278.5 11.0 278.4 10.9 278.4 10.4 C 278.2 11.1 278.3 11.9 278.4 12.9 C 278.5 12.7 278.4 12.2 278.4 12.3 C 278.6 9.9 278.6 11.7 279.0 11.7 C 279.1 10.9 279.1 10.3 279.1 9.7 C 277.3 9.7 275.6 10.0 275.1 9.6 C 274.0 9.7 275.1 9.8 273.9 10.1 C 273.9 10.1 273.9 10.1 273.9 10.1 Z M 62.0 105.1 C 61.6 105.3 60.5 105.3 60.8 105.5 C 61.7 105.5 62.4 105.3 63.4 105.3 C 61.5 105.2 61.6 104.6 59.2 104.6 C 60.0 104.8 59.9 105.2 62.0 105.1 C 62.0 105.1 62.0 105.1 62.0 105.1 Z M 278.9 77.8 C 278.7 77.8 278.5 77.8 278.5 77.0 C 278.2 76.6 278.3 78.8 278.1 78.7 C 278.1 79.4 278.4 79.3 278.4 80.2 C 278.6 80.0 278.5 78.2 278.9 79.1 C 278.9 79.7 278.8 79.7 278.7 79.7 C 278.9 81.2 279.0 79.1 278.9 77.8 C 278.9 77.8 278.9 77.8 278.9 77.8 Z M 195.1 105.4 C 196.0 105.4 194.9 105.2 194.2 105.1 C 195.9 104.7 192.6 104.5 192.2 104.1 C 193.3 104.4 195.8 104.2 196.3 104.4 C 197.1 104.3 195.9 103.9 198.0 103.8 C 197.5 103.5 195.4 103.8 196.2 104.1 C 195.2 103.6 193.3 104.2 193.2 103.7 C 190.1 103.6 189.6 103.9 189.7 104.4 C 192.5 104.2 191.4 104.9 193.9 104.8 C 194.0 104.9 193.2 104.9 192.7 104.9 C 193.1 105.1 194.3 105.2 195.1 105.4 C 195.1 105.4 195.1 105.4 195.1 105.4 Z M 265.3 105.4 C 266.8 105.4 266.4 105.1 266.0 104.8 C 265.5 104.9 264.7 104.9 263.5 104.9 C 263.9 105.1 265.7 105.0 265.3 105.4 C 265.3 105.4 265.3 105.4 265.3 105.4 Z M 205.5 104.9 C 205.8 105.0 206.2 105.0 206.2 104.9 C 207.9 104.9 208.4 105.1 209.2 105.3 C 210.0 105.2 209.5 104.9 209.4 104.8 C 208.1 105.1 208.0 104.6 206.0 104.6 C 206.2 104.8 206.0 104.9 205.5 104.9 C 205.5 104.9 205.5 104.9 205.5 104.9 Z M 250.9 105.1 C 251.7 105.1 251.2 105.0 250.8 105.0 C 251.3 104.6 254.4 105.0 255.3 104.8 C 255.1 104.4 251.7 104.5 255.6 104.4 C 254.6 104.1 251.3 104.3 249.4 104.2 C 249.5 103.9 251.9 103.9 251.4 103.5 C 249.5 103.7 247.4 103.9 247.6 104.5 C 250.7 104.5 249.9 104.9 250.9 105.1 C 250.9 105.1 250.9 105.1 250.9 105.1 Z M 247.3 104.9 C 247.7 105.1 248.1 104.8 249.3 104.9 C 247.2 104.4 246.4 104.6 242.9 104.5 C 243.0 104.6 243.0 104.7 243.1 104.8 C 242.5 104.8 241.7 104.8 241.1 104.8 C 244.4 105.2 244.9 104.9 247.8 104.8 C 248.1 104.9 247.7 104.9 247.3 104.9 C 247.3 104.9 247.3 104.9 247.3 104.9 Z M 278.4 47.5 C 278.1 48.5 277.9 49.3 277.8 50.9 C 278.2 50.7 278.4 49.7 278.4 47.5 C 278.4 47.5 278.4 47.5 278.4 47.5 Z M 202.6 104.6 C 201.0 104.9 204.4 104.6 203.0 104.2 C 201.5 104.1 199.8 104.0 199.2 103.6 C 196.9 104.1 202.6 104.1 202.6 104.6 C 202.6 104.6 202.6 104.6 202.6 104.6 Z M 214.0 103.7 C 214.8 103.8 215.3 104.3 214.2 104.0 C 212.3 104.0 216.1 104.3 213.1 104.2 C 214.5 104.4 217.5 104.6 218.6 104.4 C 218.3 104.0 215.8 104.2 215.5 103.8 C 215.3 103.7 215.7 103.7 216.0 103.7 C 215.6 103.5 215.2 103.8 214.0 103.7 C 214.0 103.7 214.0 103.7 214.0 103.7 Z M 224.6 104.4 C 223.3 104.2 221.9 104.0 219.6 104.0 C 221.3 104.2 222.4 104.6 224.6 104.4 C 224.6 104.4 224.6 104.4 224.6 104.4 Z M 97.3 103.8 C 99.0 103.8 97.4 103.4 97.2 103.3 C 95.5 103.3 95.7 103.6 93.8 103.5 C 94.6 103.9 96.2 103.4 97.3 103.8 C 97.3 103.8 97.3 103.8 97.3 103.8 Z M 91.2 103.6 C 91.0 103.3 88.7 103.5 88.4 103.2 C 87.3 104.0 84.9 102.7 85.1 103.3 C 84.5 103.3 84.0 103.2 83.0 103.2 C 85.1 103.9 89.2 103.6 91.2 103.6 C 91.2 103.6 91.2 103.6 91.2 103.6 Z M 235.4 103.6 C 237.3 103.7 234.4 103.0 236.3 103.1 C 236.3 102.9 232.7 102.8 234.7 102.7 C 231.7 102.4 235.5 103.5 235.4 103.6 C 235.4 103.6 235.4 103.6 235.4 103.6 Z M 267.9 103.2 C 268.0 103.5 270.3 103.3 271.3 103.3 C 271.2 103.2 270.4 103.2 269.9 103.2 C 270.0 103.1 270.3 103.0 271.0 102.9 C 270.1 102.6 268.8 103.2 267.9 103.2 C 267.9 103.2 267.9 103.2 267.9 103.2 Z M 237.7 110.3 C 236.2 110.0 234.5 109.7 234.1 110.2 C 232.7 109.9 234.6 109.8 232.9 109.6 C 231.2 109.8 231.8 109.4 228.8 109.6 C 229.0 109.1 226.8 109.1 226.1 108.8 C 227.3 108.7 229.3 109.2 229.6 108.8 C 228.5 108.8 228.8 108.4 229.5 108.7 C 231.7 108.9 227.3 109.2 230.1 109.4 C 230.4 108.9 234.8 109.8 237.2 109.8 C 236.5 110.1 239.4 110.3 237.7 110.3 C 237.7 110.3 237.7 110.3 237.7 110.3 Z M 224.7 109.6 C 223.0 109.6 221.5 108.8 222.0 108.8 C 222.2 109.0 224.0 109.0 224.1 108.8 C 223.6 108.8 223.2 108.8 223.3 108.7 C 226.4 108.7 225.6 109.0 226.5 109.3 C 225.0 109.5 224.3 109.2 223.9 109.4 C 224.3 109.4 224.7 109.5 224.7 109.6 C 224.7 109.6 224.7 109.6 224.7 109.6 Z M 184.1 103.1 C 184.6 103.3 184.8 103.0 185.4 102.9 C 185.9 103.5 188.8 102.7 189.4 103.1 C 188.8 103.3 187.0 103.3 186.4 103.5 C 187.3 103.5 187.6 103.6 188.4 103.5 C 188.4 103.8 186.5 103.8 186.1 104.1 C 185.8 103.9 185.1 104.2 184.7 104.0 C 187.1 103.7 182.6 103.1 184.1 103.1 C 184.1 103.1 184.1 103.1 184.1 103.1 Z M 250.3 103.1 C 250.2 102.7 246.5 101.7 248.7 101.2 C 249.6 101.6 250.2 101.9 250.5 102.4 C 251.9 102.2 252.9 102.5 253.5 102.2 C 257.7 103.3 251.1 102.0 250.3 103.1 C 250.3 103.1 250.3 103.1 250.3 103.1 Z M 260.7 102.7 C 260.5 103.0 262.0 103.0 262.0 103.3 C 260.4 103.1 256.6 103.4 257.8 103.2 C 259.1 103.1 258.7 102.7 260.7 102.7 C 260.7 102.7 260.7 102.7 260.7 102.7 Z M 114.8 9.1 C 116.9 8.8 118.1 9.5 116.9 9.7 C 117.4 9.3 114.1 9.6 114.8 9.1 C 114.8 9.1 114.8 9.1 114.8 9.1 Z M 195.4 2.9 C 193.4 2.6 192.2 2.8 192.0 2.5 C 194.1 2.3 193.8 2.6 195.5 2.6 C 195.7 2.4 196.8 2.3 196.9 2.5 C 196.0 2.5 196.1 2.7 195.4 2.9 C 195.4 2.9 195.4 2.9 195.4 2.9 Z M 285.4 83.5 C 285.6 83.4 285.6 82.5 285.9 83.0 C 285.7 85.2 286.0 88.0 286.3 90.1 C 286.1 90.0 285.9 89.8 285.8 89.8 C 285.9 86.2 285.6 85.1 285.4 83.5 C 285.4 83.5 285.4 83.5 285.4 83.5 Z M 286.2 79.3 C 286.0 78.9 285.5 79.9 285.5 78.3 C 285.8 78.5 286.2 75.8 286.3 77.1 C 286.0 77.5 286.0 78.2 286.2 79.3 C 286.2 79.3 286.2 79.3 286.2 79.3 Z M 198.7 110.6 C 197.0 110.6 199.7 111.0 199.7 111.1 C 198.5 111.1 196.8 111.1 196.1 110.9 C 197.3 110.9 197.8 110.3 198.7 110.6 C 198.7 110.6 198.7 110.6 198.7 110.6 Z M 223.4 109.7 C 226.9 109.6 225.9 110.3 229.5 110.5 C 228.3 110.7 225.1 110.7 224.4 111.0 C 224.4 110.8 223.5 110.7 223.3 110.5 C 224.6 110.5 224.9 110.6 226.2 110.6 C 225.4 110.2 225.5 110.4 225.7 110.0 C 224.7 110.0 224.2 110.0 223.7 110.1 C 223.8 109.9 222.4 109.8 223.4 109.7 C 223.4 109.7 223.4 109.7 223.4 109.7 Z M 198.6 109.6 C 197.3 109.7 195.7 109.1 197.0 109.2 C 197.3 109.4 198.1 109.1 198.5 109.3 C 196.5 109.4 200.2 109.5 199.5 109.8 C 198.3 109.8 198.0 110.0 198.4 110.2 C 197.6 110.2 196.4 110.2 196.3 110.1 C 196.8 110.1 197.6 110.1 197.5 110.0 C 197.1 110.0 196.7 109.9 196.7 109.8 C 198.0 109.8 198.4 109.7 198.6 109.6 C 198.6 109.6 198.6 109.6 198.6 109.6 Z M 208.2 109.6 C 206.3 109.5 205.9 109.2 205.0 108.9 C 207.6 109.0 208.4 109.6 210.5 109.8 C 208.3 109.7 206.6 110.2 205.7 110.0 C 206.6 109.8 208.3 109.8 208.2 109.6 C 208.2 109.6 208.2 109.6 208.2 109.6 Z M 6.0 77.7 C 6.2 76.1 6.5 74.9 6.6 73.1 C 6.2 72.4 5.5 75.5 5.7 74.2 C 5.7 72.2 6.2 73.7 6.3 72.2 C 5.7 73.5 5.7 65.5 6.3 65.4 C 6.2 66.6 6.4 67.0 6.6 66.9 C 6.6 70.1 6.9 71.5 7.0 73.9 C 6.5 75.5 6.4 80.6 6.9 83.4 C 6.2 85.1 7.0 88.5 6.4 90.9 C 6.6 91.6 6.8 88.9 6.9 91.0 C 6.5 92.3 6.3 91.2 6.1 93.0 C 6.3 93.1 6.6 92.8 6.6 93.7 C 6.4 93.5 6.4 94.7 6.3 95.1 C 6.3 91.3 5.7 95.2 5.6 92.2 C 5.8 91.0 6.3 93.6 6.3 90.2 C 6.1 89.0 6.0 87.8 5.6 88.0 C 5.6 87.1 5.5 86.5 5.5 85.9 C 6.0 87.3 5.3 81.1 5.9 83.9 C 5.9 84.1 5.8 86.0 6.0 87.4 C 6.4 86.3 6.2 84.7 6.0 82.5 C 6.3 81.8 6.4 83.0 6.5 82.0 C 6.2 80.2 5.9 82.5 5.7 81.1 C 5.7 81.7 5.7 82.5 5.6 82.5 C 6.0 79.6 5.6 78.4 5.6 76.9 C 5.9 78.0 5.9 75.3 6.0 77.7 C 6.0 77.7 6.0 77.7 6.0 77.7 Z M 6.5 102.7 C 6.5 103.4 6.5 104.0 6.5 104.8 C 6.1 104.9 6.1 102.2 5.7 104.0 C 5.8 101.0 6.2 104.2 6.5 102.7 C 6.5 102.7 6.5 102.7 6.5 102.7 Z M 7.9 89.2 C 8.4 88.3 7.4 88.6 7.4 87.7 C 7.5 89.4 7.6 90.9 7.2 91.0 C 7.3 89.1 7.3 88.3 7.2 86.2 C 7.7 88.3 7.6 84.2 8.1 83.7 C 8.2 85.3 8.4 86.5 8.3 88.5 C 8.2 88.2 8.0 91.1 7.9 89.2 C 7.9 89.2 7.9 89.2 7.9 89.2 Z M 8.5 94.7 C 8.2 95.0 8.4 98.0 7.9 97.3 C 8.0 95.5 7.9 94.9 7.6 95.2 C 7.5 93.9 7.7 93.7 7.7 92.5 C 8.2 91.9 8.1 94.0 8.3 94.7 C 8.3 94.3 8.4 93.9 8.5 94.7 C 8.5 94.7 8.5 94.7 8.5 94.7 Z M 46.3 103.8 C 46.9 104.3 44.2 104.1 43.6 104.0 C 44.5 104.4 44.1 104.5 42.4 104.6 C 43.0 104.1 40.5 104.3 38.9 103.7 C 38.6 104.1 40.6 104.2 38.3 104.4 C 36.5 104.2 35.0 104.4 32.3 104.5 C 31.6 104.1 32.8 104.0 33.5 103.8 C 31.7 103.9 32.2 103.6 30.8 103.6 C 31.1 103.8 30.0 103.9 29.5 103.7 C 31.9 103.6 26.3 103.2 28.8 103.1 C 29.0 103.2 29.5 103.1 30.1 103.1 C 29.5 103.6 32.8 103.4 33.5 103.7 C 34.7 102.8 38.2 103.1 42.2 103.4 C 42.5 103.7 41.3 103.8 42.3 103.8 C 42.4 103.7 43.7 103.7 44.3 103.6 C 44.3 103.8 44.8 103.9 45.7 104.0 C 45.7 103.9 45.8 103.8 46.3 103.8 C 46.3 103.8 46.3 103.8 46.3 103.8 Z M 51.1 10.8 C 51.5 11.5 55.5 11.1 56.5 10.9 C 56.8 11.6 49.2 11.4 51.1 10.8 C 51.1 10.8 51.1 10.8 51.1 10.8 Z M 25.6 11.3 C 26.7 11.3 25.6 10.9 26.5 10.9 C 26.9 11.3 28.8 10.5 29.2 10.9 C 28.3 11.3 27.4 11.2 25.6 11.3 C 25.6 11.3 25.6 11.3 25.6 11.3 Z M 10.7 20.3 C 10.6 18.3 10.5 21.2 10.3 20.6 C 10.3 19.0 10.3 17.2 10.7 17.7 C 10.5 19.0 11.0 20.5 10.7 20.3 C 10.7 20.3 10.7 20.3 10.7 20.3 Z M 37.8 11.7 C 39.5 11.8 37.3 12.4 36.8 12.1 C 38.5 12.0 35.4 11.7 34.0 11.8 C 33.6 11.3 34.4 11.5 33.3 11.0 C 35.5 10.8 34.1 11.5 35.6 11.4 C 36.5 11.2 35.4 11.3 35.2 10.9 C 35.9 10.9 36.5 10.9 37.2 10.9 C 37.3 11.1 37.5 11.3 37.7 11.6 C 36.9 11.6 36.2 11.6 36.6 11.8 C 37.3 11.8 37.3 11.7 37.8 11.7 C 37.8 11.7 37.8 11.7 37.8 11.7 Z M 11.4 103.1 C 10.3 103.1 11.3 103.3 12.1 103.3 C 12.2 103.1 12.9 102.4 14.1 102.8 C 11.5 103.1 14.9 103.4 13.4 103.6 C 12.8 103.2 11.3 103.7 10.0 103.6 C 9.5 103.3 10.8 102.7 11.4 103.1 C 11.4 103.1 11.4 103.1 11.4 103.1 Z M 16.1 103.3 C 16.0 103.2 15.5 103.2 14.7 103.2 C 15.6 102.9 14.4 102.8 15.4 102.7 C 15.3 102.9 18.8 102.9 16.7 103.1 C 14.9 102.8 17.3 103.3 18.1 103.3 C 17.2 103.3 15.6 103.8 15.4 103.5 C 15.8 103.4 16.2 103.4 16.1 103.3 C 16.1 103.3 16.1 103.3 16.1 103.3 Z M 59.5 102.8 C 59.7 102.5 58.5 102.5 58.1 102.4 C 61.5 102.5 64.5 102.5 66.2 102.5 C 64.6 102.6 64.7 102.9 65.6 103.1 C 63.9 102.9 63.6 103.1 62.9 102.9 C 64.3 102.6 61.6 102.8 59.5 102.8 C 59.5 102.8 59.5 102.8 59.5 102.8 Z M 59.5 102.8 " fill="#FF456F"></path></g></svg>