<?xml version="1.0" encoding="UTF-8" standalone="no"?><svg xmlns="http://www.w3.org/2000/svg" xmlns:xlink="http://www.w3.org/1999/xlink" clip-rule="evenodd" stroke-miterlimit="10" viewBox="0 0 1024 768"><desc>SVG generated by Keynote</desc><defs></defs><g transform="matrix(1.00, 0.00, -0.00, -1.00, 0.0, 768.0)"><path d="M 0.0 768.0 L 1024.0 768.0 L 1024.0 0.0 L 0.0 0.0 Z M 0.0 768.0 " fill="#000000"></path><g opacity="0.55"><g><clipPath id="clip0x600001ea2820"><path d="M 0.0 0.0 L 1024.0 0.0 L 1024.0 768.0 L 0.0 768.0 Z M 0.0 0.0 "></path></clipPath><g clip-path="url(#clip0x600001ea2820)"><image xlink:href="../../E5FA70CD-84BA-4537-8508-BE95F83C3449/assets/2B43FC45D3229EF4A1262C11396650E2.png" width="1025.00" height="768.00" transform="matrix(1.00, 0.00, -0.00, -1.00, 0.0, 767.6)"></image></g></g></g><text xml:space="preserve" font-family="ProximaNova-Semibold,Proxima Nova" font-weight="bold" font-size="40.0" fill="#FEFFFF" transform="matrix(1.00, 0.00, -0.00, -1.00, 155.3, 65.5)">F</text><text xml:space="preserve" font-family="ProximaNova-Semibold,Proxima Nova" font-weight="bold" font-size="40.0" fill="#FEFFFF" transform="matrix(1.00, 0.00, -0.00, -1.00, 177.8, 65.5)">i</text><text xml:space="preserve" font-family="ProximaNova-Semibold,Proxima Nova" font-weight="bold" font-size="40.0" fill="#FEFFFF" transform="matrix(1.00, 0.00, -0.00, -1.00, 187.4, 65.5)">e</text><text xml:space="preserve" font-family="ProximaNova-Semibold,Proxima Nova" font-weight="bold" font-size="40.0" fill="#FEFFFF" transform="matrix(1.00, 0.00, -0.00, -1.00, 209.7, 65.5)">l</text><text xml:space="preserve" font-family="ProximaNova-Semibold,Proxima Nova" font-weight="bold" font-size="40.0" fill="#FEFFFF" transform="matrix(1.00, 0.00, -0.00, -1.00, 219.4, 65.5)">d</text><text xml:space="preserve" font-family="ProximaNova-Semibold,Proxima Nova" font-weight="bold" font-size="40.0" fill="#FEFFFF" transform="matrix(1.00, 0.00, -0.00, -1.00, 242.6, 65.5)"> </text><text xml:space="preserve" font-family="ProximaNova-Semibold,Proxima Nova" font-weight="bold" font-size="40.0" fill="#FEFFFF" transform="matrix(1.00, 0.00, -0.00, -1.00, 252.9, 65.5)">W</text><text xml:space="preserve" font-family="ProximaNova-Semibold,Proxima Nova" font-weight="bold" font-size="40.0" fill="#FEFFFF" transform="matrix(1.00, 0.00, -0.00, -1.00, 289.0, 65.5)">i</text><text xml:space="preserve" font-family="ProximaNova-Semibold,Proxima Nova" font-weight="bold" font-size="40.0" fill="#FEFFFF" transform="matrix(1.00, 0.00, -0.00, -1.00, 298.7, 65.5)">d</text><text xml:space="preserve" font-family="ProximaNova-Semibold,Proxima Nova" font-weight="bold" font-size="40.0" fill="#FEFFFF" transform="matrix(1.00, 0.00, -0.00, -1.00, 321.9, 65.5)">g</text><text xml:space="preserve" font-family="ProximaNova-Semibold,Proxima Nova" font-weight="bold" font-size="40.0" fill="#FEFFFF" transform="matrix(1.00, 0.00, -0.00, -1.00, 345.2, 65.5)">e</text><text xml:space="preserve" font-family="ProximaNova-Semibold,Proxima Nova" font-weight="bold" font-size="40.0" fill="#FEFFFF" transform="matrix(1.00, 0.00, -0.00, -1.00, 367.4, 65.5)">t</text><path d="M 698.6 430.0 C 698.5 429.4 698.4 428.8 698.4 427.7 C 698.3 428.2 698.2 428.6 698.0 428.6 C 698.1 429.4 698.2 430.6 698.2 432.4 C 698.3 432.3 698.3 431.4 698.3 430.8 C 698.3 430.1 698.5 430.2 698.6 430.0 C 698.6 430.0 698.6 430.0 698.6 430.0 Z M 533.9 391.1 C 535.4 391.2 533.7 390.7 533.2 390.7 C 533.1 390.8 533.1 390.9 532.5 390.9 C 532.3 390.5 533.5 390.4 534.5 390.3 C 538.5 390.5 535.7 391.1 533.9 391.1 C 533.9 391.1 533.9 391.1 533.9 391.1 Z M 414.9 461.9 C 414.8 465.0 415.3 461.8 415.4 461.4 C 415.5 462.9 416.1 461.9 416.2 463.8 C 416.0 464.1 415.8 464.7 415.7 465.0 C 415.6 464.2 415.7 463.0 415.5 462.8 C 415.5 463.9 415.6 465.5 415.4 465.6 C 415.3 463.2 415.0 465.1 414.7 465.4 C 414.8 463.3 414.4 462.5 414.9 461.9 C 414.9 461.9 414.9 461.9 414.9 461.9 Z M 541.4 499.1 C 540.5 499.1 539.8 499.1 539.9 498.9 C 540.8 498.9 541.5 498.9 542.0 499.0 C 542.1 498.8 541.7 498.6 542.5 498.6 C 543.6 498.9 543.4 499.4 543.0 499.6 C 542.8 499.3 539.7 499.5 541.4 499.1 C 541.4 499.1 541.4 499.1 541.4 499.1 Z M 618.8 498.5 C 621.6 498.7 618.6 497.9 621.3 498.1 C 621.5 498.4 622.2 498.9 620.5 498.9 C 620.2 498.7 619.2 498.7 618.8 498.5 C 618.8 498.5 618.8 498.5 618.8 498.5 Z M 427.7 394.4 C 427.4 394.1 425.6 394.2 425.8 393.8 C 426.7 393.8 427.6 393.8 428.5 393.8 C 429.0 394.1 428.8 394.3 427.7 394.4 C 427.7 394.4 427.7 394.4 427.7 394.4 Z M 418.6 483.8 C 418.2 486.9 418.8 490.3 418.5 489.3 C 418.0 490.5 417.3 487.0 417.7 487.1 C 418.2 486.8 418.6 481.3 418.6 483.8 C 418.6 483.8 418.6 483.8 418.6 483.8 Z M 519.5 397.9 C 516.2 397.6 517.2 398.7 515.0 398.1 C 515.7 398.1 516.0 398.0 516.2 397.9 C 515.7 397.8 514.9 397.9 514.8 397.7 C 516.3 397.7 518.1 397.5 519.5 397.9 C 519.5 397.9 519.5 397.9 519.5 397.9 Z M 697.6 481.4 C 697.7 482.0 697.7 482.4 697.9 482.4 C 697.8 484.7 698.1 484.9 697.9 486.2 C 697.4 485.8 697.6 484.0 697.6 482.2 C 697.6 482.1 697.5 481.5 697.6 481.4 C 697.6 481.4 697.6 481.4 697.6 481.4 Z M 652.7 498.7 C 653.1 499.1 654.4 499.1 652.5 499.3 C 649.8 498.8 651.6 498.5 653.7 498.2 C 653.6 498.0 653.4 497.9 653.3 497.7 C 652.3 497.7 651.7 497.6 651.1 497.6 C 651.2 498.2 648.7 497.1 645.5 497.4 C 646.9 497.2 644.8 496.7 647.1 496.9 C 646.2 496.6 647.8 496.6 647.3 496.3 C 646.5 496.5 644.1 496.4 645.1 496.9 C 643.9 496.9 642.9 496.9 642.2 496.8 C 641.0 496.4 644.4 496.7 643.1 496.3 C 642.5 496.3 642.3 496.2 641.7 496.1 C 641.7 496.3 642.1 496.5 641.4 496.5 C 639.0 496.4 641.4 496.1 638.2 496.0 C 638.2 496.3 639.2 496.3 639.3 496.5 C 638.1 496.8 637.9 496.4 636.7 496.7 C 636.2 496.4 637.4 496.3 636.4 496.3 C 636.0 496.9 633.2 495.9 631.7 496.4 C 633.6 497.2 631.2 496.2 630.1 497.0 C 629.5 496.8 630.4 496.3 628.8 496.3 C 630.1 497.3 623.8 497.0 629.4 497.8 C 626.7 497.8 626.5 498.6 628.6 498.7 C 623.9 498.5 625.8 499.1 624.1 499.1 C 622.3 499.1 624.9 498.9 623.7 498.6 C 625.6 498.6 625.0 498.4 626.5 498.6 C 626.3 498.4 626.6 498.3 626.9 498.2 C 625.2 498.5 622.6 497.9 623.6 497.4 C 624.6 497.5 624.0 497.9 625.3 498.0 C 624.4 497.4 626.7 498.1 626.5 497.7 C 625.3 497.2 627.6 496.7 625.0 496.7 C 625.2 496.9 625.3 497.1 625.5 497.3 C 624.8 497.3 624.1 497.3 623.5 497.3 C 622.6 496.9 622.9 496.6 622.2 496.5 C 621.0 496.5 620.5 496.6 620.3 496.8 C 621.8 496.9 623.7 497.2 621.4 497.3 C 621.7 496.5 618.0 497.1 619.5 496.7 C 616.8 496.4 616.0 497.0 615.4 496.5 C 614.1 496.5 615.2 497.0 613.6 496.9 C 610.8 496.6 611.7 497.1 608.0 496.8 C 608.1 497.4 607.6 496.7 606.5 496.7 C 606.7 496.9 606.8 497.1 607.0 497.3 C 605.5 497.0 602.7 496.8 600.1 497.2 C 599.3 497.1 599.6 496.7 597.8 496.8 C 596.1 497.3 593.3 496.7 591.3 497.3 C 590.9 497.0 589.2 497.0 588.5 497.2 C 588.0 497.0 588.9 496.5 587.3 496.5 C 586.6 496.9 588.4 497.0 586.4 497.2 C 586.4 496.8 584.6 497.5 584.3 497.0 C 584.9 496.9 585.5 496.8 586.1 496.7 C 585.2 496.7 585.3 496.4 584.5 496.4 C 585.0 496.9 583.1 496.5 582.5 496.4 C 582.7 496.6 582.6 496.8 582.1 496.9 C 580.9 496.9 580.0 496.9 579.5 497.0 C 577.8 496.9 580.1 496.7 578.6 496.7 C 578.4 497.7 576.2 496.5 573.4 497.2 C 572.5 496.9 571.1 496.7 569.0 496.7 C 568.9 497.0 571.0 496.8 571.2 497.0 C 568.2 496.9 571.9 497.3 570.0 497.3 C 565.6 497.1 562.8 497.1 558.1 496.8 C 558.3 497.1 554.9 497.3 554.9 497.2 C 555.8 497.1 552.7 496.7 551.2 496.7 C 551.2 497.3 549.2 497.9 549.2 498.2 C 548.5 497.9 548.6 497.9 548.1 497.3 C 545.5 497.1 544.4 497.7 542.5 497.0 C 542.8 497.4 541.6 497.5 540.7 497.6 C 540.8 497.3 541.3 497.0 541.7 496.8 C 540.4 496.8 540.1 496.6 538.9 496.7 C 538.2 497.8 535.6 496.4 535.1 497.4 C 533.2 497.5 533.4 497.0 531.6 497.0 C 531.7 497.3 531.6 497.4 531.1 497.6 C 532.3 497.5 533.0 497.1 533.8 497.6 C 531.2 497.7 539.3 498.7 535.2 499.1 C 534.9 498.9 535.2 498.6 534.3 498.6 C 531.9 498.8 533.5 499.2 534.5 499.1 C 532.9 499.3 531.1 499.2 532.6 499.6 C 528.8 499.8 531.1 499.4 529.7 499.3 C 523.0 499.6 514.4 499.7 504.9 499.3 C 504.7 499.8 499.6 499.3 497.9 499.0 C 495.4 499.4 492.6 499.5 491.7 499.0 C 491.3 499.5 488.4 498.7 488.2 499.1 C 489.4 499.1 490.2 499.3 489.0 499.4 C 485.1 499.2 479.4 499.0 477.3 499.4 C 475.8 498.9 473.4 499.0 471.7 499.3 C 471.4 499.0 472.7 498.9 471.6 498.9 C 471.4 499.1 467.8 499.4 466.9 499.1 C 468.0 499.2 469.1 498.6 467.5 498.6 C 467.5 498.9 465.7 498.8 466.2 499.1 C 463.9 498.9 462.6 499.2 460.7 499.0 C 462.2 498.9 463.1 498.8 463.3 498.5 C 462.0 498.7 461.0 498.8 459.9 498.5 C 460.3 499.1 458.1 498.7 455.9 499.0 C 455.3 498.8 454.8 498.6 453.0 498.6 C 452.2 498.9 455.8 499.0 453.8 499.1 C 453.8 498.9 451.9 498.7 452.4 499.1 C 450.0 498.9 448.8 499.2 446.9 498.9 C 449.3 499.0 447.4 498.4 446.8 498.3 C 446.3 498.4 445.5 498.3 445.5 498.5 C 445.5 498.6 446.7 498.6 446.9 498.7 C 445.2 498.6 444.7 499.2 444.1 498.9 C 444.8 498.9 445.0 498.6 444.1 498.6 C 443.9 499.2 439.0 498.8 440.7 498.5 C 440.7 498.6 442.5 498.6 442.7 498.5 C 442.2 498.3 439.4 498.5 440.0 498.1 C 441.6 498.0 441.4 498.3 443.4 498.2 C 443.6 497.9 444.7 497.9 445.4 497.7 C 442.3 497.7 441.7 498.2 441.3 497.7 C 439.9 497.7 440.8 498.2 438.6 498.1 C 435.4 497.9 438.0 497.6 437.2 497.4 C 434.4 497.7 435.3 498.2 436.5 498.6 C 434.3 498.6 433.6 498.8 431.0 498.7 C 431.1 498.5 431.5 498.3 432.4 498.2 C 432.5 498.3 434.7 498.6 434.5 498.3 C 434.2 497.8 432.4 497.5 429.6 497.4 C 430.3 498.0 430.4 497.7 427.6 497.7 C 428.0 498.3 426.2 497.6 426.2 498.0 C 426.3 498.1 427.3 498.1 428.2 498.1 C 428.2 498.3 427.8 498.5 426.9 498.6 C 426.3 498.4 425.8 498.6 424.2 498.5 C 424.0 498.1 425.2 498.1 425.5 497.8 C 424.6 497.9 424.4 498.0 423.4 498.1 C 422.6 497.7 422.7 497.2 422.7 496.7 C 423.8 496.5 425.5 496.5 424.1 496.3 C 428.1 496.2 423.9 496.8 425.5 496.9 C 427.1 496.4 426.2 497.1 428.9 497.0 C 429.7 497.0 429.9 496.9 430.3 496.8 C 430.1 496.7 428.5 496.3 430.2 496.3 C 430.7 496.5 431.6 496.7 433.0 496.8 C 433.0 496.6 430.1 496.4 433.0 496.4 C 434.4 496.4 433.1 497.0 435.1 496.9 C 435.1 496.8 435.6 496.8 435.7 496.6 C 432.9 496.7 436.2 496.3 434.4 496.1 C 436.7 495.9 434.8 496.6 436.4 496.5 C 436.4 496.3 439.1 496.7 439.1 496.3 C 438.1 496.5 436.1 496.4 436.3 496.0 C 438.2 496.1 446.4 495.7 443.2 496.4 C 444.4 496.1 450.4 495.6 450.0 495.9 C 448.2 495.8 448.3 496.1 448.0 496.4 C 451.4 495.9 453.1 496.3 456.8 495.7 C 452.7 495.7 455.7 495.0 453.3 494.7 C 452.2 494.7 450.8 494.7 450.5 494.8 C 451.0 495.2 452.7 495.0 453.3 494.8 C 453.3 495.2 453.4 495.5 453.4 495.9 C 448.9 495.5 446.6 495.9 444.5 495.7 C 446.3 495.7 441.1 495.2 443.1 495.1 C 444.0 495.4 446.1 495.4 447.9 495.5 C 447.9 495.4 447.9 495.2 447.9 495.1 C 448.7 495.1 449.8 495.1 449.9 495.0 C 447.4 495.1 446.1 494.6 444.4 495.0 C 444.4 494.9 444.4 494.8 444.4 494.7 C 444.0 494.7 443.6 494.7 443.7 494.6 C 444.5 494.6 445.7 494.6 445.8 494.4 C 444.0 494.3 443.6 494.0 441.6 493.9 C 442.1 493.5 439.4 492.9 442.3 492.8 C 442.8 493.2 444.4 493.3 444.3 493.5 C 445.2 493.7 446.9 493.6 447.7 493.4 C 446.8 493.1 445.1 493.0 444.9 492.6 C 446.3 492.6 447.4 492.4 448.3 492.8 C 445.4 493.0 449.9 493.1 451.1 493.5 C 450.7 493.3 450.1 493.2 449.6 493.0 C 451.9 493.0 453.0 493.3 453.0 492.8 C 455.7 492.6 455.2 493.0 457.1 493.0 C 455.8 492.5 458.3 492.8 457.0 492.2 C 460.1 492.1 458.0 492.7 459.1 492.8 C 460.1 492.7 460.2 492.5 461.1 492.5 C 462.6 492.8 465.5 492.8 465.9 493.3 C 467.2 493.2 467.4 493.4 468.6 493.4 C 469.0 493.3 469.3 493.1 469.9 493.0 C 470.1 493.1 471.1 493.3 471.3 493.1 C 467.7 492.5 468.7 492.5 465.0 492.1 C 464.8 492.3 464.3 492.3 465.1 492.5 C 462.6 492.6 461.8 492.3 459.7 492.4 C 459.4 492.0 458.8 491.5 456.9 491.8 C 457.3 491.4 456.8 491.3 457.5 491.2 C 458.6 491.4 460.1 491.6 461.6 491.7 C 461.7 491.6 461.4 491.3 462.2 491.3 C 463.0 491.5 464.1 491.6 465.0 491.4 C 465.0 491.6 464.7 491.7 464.3 491.8 C 467.7 492.0 466.4 491.4 469.0 491.7 C 468.6 491.4 466.9 491.5 468.3 491.2 C 470.5 491.1 471.1 491.3 472.3 491.5 C 472.5 491.4 472.3 491.2 473.0 491.2 C 474.6 491.5 469.5 492.0 472.5 492.5 C 472.6 492.1 475.5 492.2 475.9 492.5 C 475.0 492.8 473.3 492.4 473.2 492.6 C 478.4 492.7 473.5 493.2 478.8 493.4 C 478.8 493.2 478.7 493.1 478.7 492.9 C 476.6 492.9 476.4 492.6 476.5 492.2 C 474.7 492.2 473.8 491.7 472.4 492.0 C 472.8 491.2 473.9 491.9 475.8 492.0 C 475.6 491.6 473.9 491.5 473.6 491.2 C 478.0 491.5 478.8 491.0 483.0 491.6 C 481.9 491.1 485.3 491.5 485.0 491.2 C 481.4 491.3 482.6 490.2 482.0 490.0 C 479.7 490.1 480.9 490.8 479.6 491.1 C 478.8 490.7 479.1 490.4 479.3 489.9 C 481.4 490.0 481.1 490.0 482.7 489.8 C 484.1 490.1 485.5 490.8 483.6 491.1 C 484.0 491.0 486.7 490.8 487.0 491.1 C 484.3 491.0 487.3 491.3 485.8 491.5 C 487.8 491.7 491.3 491.2 493.8 491.6 C 493.6 491.3 494.5 491.3 494.3 491.1 C 492.0 491.5 491.3 490.6 488.9 490.5 C 489.9 490.5 489.2 490.3 488.8 490.2 C 491.1 490.4 492.4 490.0 494.2 490.4 C 494.1 490.3 494.1 490.2 494.0 490.0 C 497.0 490.3 496.6 490.2 498.7 489.9 C 499.6 490.1 498.6 490.8 498.4 491.2 C 499.4 491.0 503.3 491.1 500.9 490.7 C 503.2 490.7 502.8 491.2 505.1 491.2 C 505.0 490.8 502.9 490.8 503.5 490.3 C 505.6 490.2 504.6 490.8 506.2 490.4 C 506.4 490.8 506.5 491.1 508.4 491.1 C 507.0 490.8 508.5 490.9 509.0 490.7 C 508.1 490.6 507.3 490.5 506.9 490.4 C 510.2 490.5 510.9 490.5 513.5 490.4 C 512.7 490.9 514.2 491.0 512.5 491.2 C 514.1 490.9 516.3 491.4 517.2 491.2 C 516.1 491.0 514.4 491.0 513.6 490.8 C 518.9 490.7 521.6 490.2 526.3 490.8 C 525.6 490.8 524.4 490.8 524.4 490.9 C 524.9 491.0 525.7 490.9 525.8 491.1 C 524.2 491.0 522.6 491.0 521.8 491.2 C 520.3 491.0 522.5 490.9 521.0 490.8 C 520.8 491.1 517.9 490.8 519.2 491.3 C 521.6 491.0 524.1 491.4 525.5 492.0 C 527.6 491.2 525.4 491.3 527.6 490.5 C 527.6 490.8 528.3 490.9 529.1 490.9 C 528.1 490.4 531.3 490.7 531.6 490.7 C 530.6 490.9 526.2 491.2 528.7 491.7 C 527.3 490.7 534.0 492.0 532.5 491.2 C 535.3 491.1 534.5 491.7 535.9 491.2 C 536.0 491.3 535.9 491.6 536.7 491.6 C 537.5 491.6 537.7 491.4 538.0 491.3 C 533.9 491.1 534.9 490.6 532.2 490.5 C 532.7 490.5 533.1 490.5 532.9 490.4 C 532.9 490.3 532.9 490.2 533.5 490.3 C 533.9 490.8 535.5 490.2 536.3 490.5 C 535.5 490.6 534.7 490.6 535.1 490.8 C 538.4 490.7 538.0 491.2 542.7 491.4 C 541.2 491.2 543.0 491.1 544.5 491.1 C 546.8 491.1 546.2 491.7 548.9 491.7 C 548.1 490.7 551.7 491.8 554.6 491.2 C 554.6 491.7 558.9 491.9 559.5 491.4 C 559.7 491.6 561.2 491.6 562.2 491.6 C 562.6 491.8 561.4 491.9 562.4 492.0 C 563.3 491.9 562.2 491.5 563.5 491.4 C 565.0 491.6 564.9 492.0 567.1 492.0 C 566.9 491.6 565.8 491.7 566.8 491.4 C 568.8 491.6 570.5 491.6 568.7 491.2 C 571.4 491.1 570.5 491.9 573.1 491.8 C 572.2 491.6 572.2 491.5 573.5 491.4 C 574.7 491.8 574.8 491.9 575.3 492.1 C 575.9 491.7 575.6 491.7 577.8 491.8 C 577.7 491.7 577.6 491.5 577.5 491.3 C 578.5 491.3 579.9 491.3 580.3 491.4 C 578.4 491.4 579.1 491.7 578.5 491.8 C 580.3 491.9 584.1 492.3 581.1 491.8 C 583.6 491.6 582.7 492.2 584.6 492.1 C 583.1 491.7 584.5 492.0 586.6 492.0 C 586.1 491.4 587.9 491.9 589.2 491.8 C 588.8 491.5 589.0 491.3 590.2 491.3 C 590.3 491.5 591.1 491.6 592.4 491.6 C 592.2 491.4 589.3 491.2 592.1 491.2 C 593.5 491.4 593.8 491.8 595.9 491.8 C 596.7 492.2 594.2 492.1 595.0 492.5 C 596.4 492.1 597.2 492.4 599.7 492.5 C 598.2 491.7 604.0 491.5 600.9 491.2 C 601.7 491.2 602.5 490.7 603.4 491.1 C 602.6 491.1 604.5 491.5 604.5 491.6 C 605.6 491.5 608.5 491.7 608.4 491.4 C 605.9 491.5 605.6 491.2 604.7 490.9 C 608.2 490.7 611.6 490.9 611.7 491.3 C 611.6 491.2 612.1 491.2 612.1 491.1 C 610.9 491.1 609.6 490.5 611.0 490.4 C 611.0 490.8 612.2 490.9 613.4 491.1 C 613.2 490.7 618.5 491.2 617.2 490.7 C 615.5 491.0 613.5 490.4 614.8 490.1 C 616.3 490.5 619.1 490.7 618.8 491.1 C 619.4 490.9 620.0 490.8 620.5 490.7 C 620.8 490.3 619.4 490.3 619.4 490.0 C 620.4 490.0 621.8 490.0 622.1 490.1 C 619.5 490.2 623.7 490.4 621.2 490.7 C 622.8 490.6 623.4 490.9 624.8 490.9 C 624.7 490.8 625.2 490.8 625.2 490.7 C 624.2 490.9 622.9 490.7 622.9 490.3 C 625.2 490.2 625.2 490.7 627.2 490.7 C 627.6 490.4 629.9 489.8 631.5 490.1 C 628.8 490.1 631.9 490.3 630.5 490.5 C 627.8 490.3 627.5 490.7 626.9 491.1 C 628.1 491.3 630.2 491.4 630.1 490.9 C 628.8 490.9 628.9 491.1 628.3 491.2 C 628.2 490.9 628.4 490.8 629.3 490.7 C 630.6 491.0 632.8 490.6 631.6 491.2 C 633.1 490.9 635.3 491.4 636.9 491.1 C 634.9 491.0 633.3 490.9 632.5 490.5 C 634.0 490.4 636.0 490.8 635.8 490.5 C 635.3 490.2 632.8 490.3 632.1 490.0 C 633.8 489.6 637.9 490.7 634.6 489.9 C 635.9 490.0 637.5 490.0 638.1 490.1 C 636.8 490.2 638.7 490.7 639.4 490.8 C 640.6 490.8 641.5 490.7 641.9 490.5 C 640.1 490.7 638.2 490.2 639.5 490.1 C 640.0 490.4 640.2 490.1 640.7 490.0 C 641.0 490.3 643.0 490.1 643.6 490.3 C 643.3 490.1 642.3 490.1 642.0 489.9 C 643.1 489.8 644.4 489.2 645.8 489.8 C 645.1 489.8 643.9 489.7 644.0 489.9 C 647.9 490.5 649.4 490.9 653.8 491.2 C 653.3 491.2 653.1 491.3 653.3 491.4 C 656.0 491.5 657.9 491.7 657.8 492.0 C 659.3 491.9 660.0 491.7 660.6 491.4 C 658.8 491.2 658.5 491.6 657.2 491.3 C 657.8 491.2 655.2 490.5 654.3 490.3 C 651.7 490.7 651.0 490.0 648.3 490.3 C 648.8 489.9 646.0 490.2 646.5 489.8 C 649.8 490.4 652.0 489.9 656.2 490.2 C 655.9 490.5 655.7 490.8 657.5 490.9 C 660.2 491.1 658.5 490.6 660.7 490.7 C 661.8 491.0 660.6 491.1 661.8 491.2 C 662.4 491.0 664.4 491.1 665.4 491.5 C 662.6 491.4 666.2 491.8 664.5 492.0 C 665.4 492.0 666.0 492.0 666.7 492.1 C 663.6 491.6 668.8 491.5 666.5 491.2 C 670.0 491.0 667.7 492.2 670.7 492.1 C 668.9 491.8 670.7 491.6 673.0 491.7 C 674.0 492.1 676.3 492.2 678.3 492.4 C 677.0 492.1 676.3 492.1 677.8 491.8 C 676.7 491.7 675.2 491.7 674.5 491.8 C 674.3 491.7 673.9 491.6 673.4 491.4 C 675.5 491.4 674.4 491.2 675.0 491.1 C 675.9 491.2 677.5 491.2 678.1 491.4 C 678.0 491.3 678.5 491.3 678.5 491.2 C 675.7 491.1 678.4 490.6 676.6 490.5 C 675.4 490.6 676.5 491.0 674.9 490.9 C 672.9 490.4 675.7 490.4 676.1 490.0 C 674.5 489.7 673.4 490.2 672.5 489.8 C 673.8 489.3 676.8 489.6 679.1 489.8 C 678.5 489.2 683.0 489.9 682.6 489.2 C 683.1 489.4 683.7 489.5 684.3 489.6 C 684.6 489.2 685.8 489.8 686.5 489.8 C 686.3 489.5 685.9 489.4 685.3 489.2 C 685.9 489.3 686.4 489.3 686.8 489.3 C 686.9 487.9 686.9 487.0 686.7 484.5 C 687.0 484.3 687.2 483.9 687.5 484.0 C 687.5 484.7 687.6 485.5 687.8 486.0 C 687.8 482.0 686.7 483.7 687.4 481.4 C 687.1 481.4 686.7 482.9 686.6 481.4 C 687.1 479.2 686.6 475.3 687.7 476.2 C 688.1 474.1 687.4 472.1 687.9 471.3 C 687.9 470.6 687.7 470.3 687.6 469.9 C 687.4 470.5 687.2 471.3 687.0 472.0 C 687.2 473.5 686.8 473.8 687.4 472.9 C 687.4 474.9 687.1 475.3 687.0 476.2 C 686.7 473.3 687.0 471.0 686.4 470.5 C 686.7 469.7 687.0 469.2 687.2 468.5 C 686.9 468.1 686.8 464.9 687.2 464.8 C 687.1 466.9 687.6 469.4 687.9 467.6 C 687.6 462.2 688.3 459.5 687.9 454.6 C 688.1 454.6 688.4 455.0 688.4 454.1 C 688.2 454.1 688.0 453.9 687.9 453.4 C 687.9 451.9 688.1 451.1 688.0 449.1 C 688.4 449.3 688.7 449.0 688.8 447.9 C 688.4 447.2 687.6 445.2 687.7 444.1 C 687.8 445.3 688.3 443.7 688.3 442.9 C 687.7 443.6 688.7 437.2 688.1 439.1 C 688.1 436.6 688.3 435.4 688.5 435.3 C 688.5 434.4 688.3 433.8 688.3 432.9 C 688.8 432.2 688.4 427.9 688.7 427.1 C 688.5 428.7 689.1 428.8 689.1 427.6 C 688.7 426.9 688.4 423.0 688.5 422.2 C 688.7 422.3 689.1 422.5 689.2 424.4 C 689.3 421.0 688.6 421.3 688.3 420.4 C 688.8 420.2 688.4 419.0 688.3 418.5 C 688.5 417.3 688.4 418.5 688.8 418.2 C 688.8 417.0 689.1 416.5 689.1 414.9 C 688.6 415.6 688.8 413.8 688.9 413.1 C 688.6 413.1 688.5 412.3 688.4 411.0 C 689.1 412.4 689.1 402.3 688.7 405.1 C 688.3 403.5 689.1 402.7 689.1 400.3 C 689.0 400.2 688.9 400.0 688.9 399.8 C 688.3 399.9 687.9 399.9 688.7 400.1 C 688.7 400.1 688.7 400.1 688.7 400.1 C 688.7 400.1 688.7 400.1 688.7 400.1 C 686.5 400.2 688.3 399.6 685.6 399.8 C 686.2 400.3 683.2 399.7 683.1 400.4 C 682.7 399.6 679.8 400.6 678.2 400.0 C 678.1 400.1 677.5 400.1 677.3 400.2 C 676.8 400.4 679.5 400.5 677.6 400.6 C 675.6 400.3 677.0 400.2 676.9 400.0 C 670.6 400.2 663.4 400.0 657.1 399.8 C 657.7 400.0 657.6 400.2 656.2 400.2 C 654.9 399.4 647.0 399.8 645.7 400.1 C 645.3 399.6 641.1 400.1 640.6 399.8 C 641.3 399.9 643.1 399.5 641.5 399.4 C 640.1 400.0 639.0 399.6 637.2 400.0 C 636.7 399.4 631.7 400.0 634.3 399.2 C 633.4 399.2 632.9 399.1 632.4 399.0 C 632.1 399.5 631.2 399.5 632.7 399.7 C 628.6 399.4 627.3 399.8 624.2 399.4 C 623.5 399.7 626.0 399.9 623.9 400.0 C 624.0 399.9 624.0 399.8 624.1 399.7 C 623.3 399.7 623.0 399.9 622.8 399.7 C 623.0 399.5 624.1 399.5 624.4 399.0 C 622.7 399.2 621.8 398.7 621.1 399.0 C 623.3 399.1 621.4 399.8 620.2 399.4 C 621.6 399.2 615.0 399.5 612.8 399.7 C 612.0 399.2 615.1 399.6 615.0 399.3 C 611.1 399.4 611.5 399.2 610.8 399.7 C 608.8 399.6 608.1 399.3 605.6 399.6 C 604.2 399.4 606.5 399.2 605.1 399.2 C 604.1 399.3 603.6 399.5 602.3 399.6 C 599.0 398.7 590.2 400.1 586.5 398.8 C 588.1 399.1 585.9 399.3 583.8 399.3 C 583.7 399.2 584.0 398.9 583.2 398.9 C 583.3 399.2 582.5 399.3 581.1 399.3 C 581.0 399.2 581.3 398.9 580.5 398.9 C 579.8 399.4 578.2 398.9 577.1 399.2 C 576.7 398.7 579.6 399.0 579.8 398.7 C 576.4 398.4 575.8 398.8 573.2 398.7 C 574.6 398.6 572.3 398.3 571.9 398.1 C 572.4 398.6 570.3 398.8 571.8 399.0 C 570.8 399.0 569.3 399.1 569.1 398.9 C 569.7 398.9 570.5 398.9 570.5 398.8 C 569.3 398.9 567.8 398.4 567.1 398.8 C 568.0 398.8 568.5 399.0 568.5 399.2 C 568.1 399.3 567.7 399.5 567.1 399.6 C 569.0 398.6 563.5 399.0 563.1 399.3 C 562.7 398.7 562.3 398.7 562.5 398.4 C 560.2 398.3 560.5 398.8 559.1 398.9 C 559.5 398.5 560.0 398.1 557.8 397.9 C 558.3 398.4 555.7 398.3 556.5 398.9 C 551.0 399.1 549.8 398.5 546.4 398.5 C 546.4 398.7 547.4 398.7 546.5 398.8 C 544.9 398.7 543.5 398.5 542.4 398.3 C 541.6 398.6 542.8 398.7 541.8 398.8 C 539.3 398.4 539.8 397.9 537.6 397.6 C 535.0 397.9 535.9 397.7 534.4 398.1 C 535.1 398.2 536.0 398.3 535.1 398.4 C 533.4 398.0 532.6 397.6 532.2 397.5 C 533.4 397.5 534.3 397.5 534.9 397.6 C 535.3 397.4 536.9 397.4 535.5 397.1 C 537.3 397.2 539.2 397.3 541.7 397.2 C 540.8 396.8 543.8 397.1 542.9 396.7 C 540.2 396.8 539.5 396.5 536.8 396.6 C 537.5 397.0 534.7 396.8 534.1 396.7 C 534.2 397.0 532.3 396.9 532.8 397.2 C 530.8 397.3 530.8 397.0 528.8 397.1 C 528.6 396.9 528.9 396.7 528.1 396.7 C 527.4 397.1 526.6 396.6 526.0 396.6 C 526.5 397.0 523.5 396.8 523.4 397.1 C 524.2 397.1 525.3 397.1 525.5 397.2 C 522.2 397.2 524.9 397.6 525.6 397.9 C 525.5 397.7 526.5 397.2 526.8 397.5 C 524.2 397.8 530.9 398.2 528.3 398.0 C 526.2 397.9 526.4 398.2 524.3 398.1 C 521.6 397.4 524.5 397.0 521.9 396.4 C 520.4 396.8 519.3 396.7 519.3 397.1 C 518.9 396.9 518.5 396.8 517.9 396.7 C 517.3 396.9 520.0 397.1 518.0 397.2 C 517.0 397.1 518.0 396.6 515.8 396.7 C 515.0 397.0 518.6 397.1 516.7 397.2 C 514.4 396.6 517.2 397.4 514.8 397.5 C 514.5 397.4 514.1 397.3 513.3 397.4 C 513.1 397.2 513.4 396.9 512.5 396.8 C 512.3 397.5 511.5 396.6 509.8 396.7 C 508.9 397.2 511.7 396.9 511.3 397.4 C 509.1 396.9 508.1 397.4 507.3 397.4 C 508.8 397.0 504.6 397.1 504.3 396.7 C 505.0 397.2 504.0 396.9 501.8 397.4 C 501.4 396.6 499.0 397.1 498.1 396.6 C 497.9 396.8 497.3 396.9 497.1 397.1 C 497.8 397.1 498.6 397.1 498.5 397.4 C 497.8 397.4 497.2 397.4 496.4 397.4 C 495.2 397.0 497.7 396.2 493.3 396.3 C 494.0 396.8 492.2 396.9 491.0 397.1 C 491.3 397.5 492.8 397.1 493.1 397.4 C 491.7 397.7 490.0 397.3 488.9 397.1 C 486.4 397.3 483.2 397.0 479.5 397.2 C 478.5 396.9 482.5 396.9 479.9 396.7 C 478.9 396.7 479.6 397.0 478.1 397.0 C 478.4 395.2 467.7 396.6 466.5 395.9 C 466.3 396.3 462.9 396.1 463.6 396.6 C 465.5 396.2 467.4 396.7 468.6 397.0 C 470.5 396.7 466.5 396.6 468.2 396.4 C 468.6 396.7 471.2 396.5 471.2 396.8 C 468.3 396.9 473.0 397.2 471.0 397.6 C 468.3 397.5 463.3 398.0 464.2 397.5 C 464.3 397.6 465.5 397.6 465.5 397.5 C 462.3 397.3 460.8 397.6 459.7 397.9 C 458.1 397.6 453.2 398.1 454.4 397.9 C 453.6 397.5 457.6 398.0 456.9 397.6 C 451.2 397.5 451.3 397.8 447.4 397.5 C 448.9 398.0 444.1 398.2 444.4 398.0 C 444.1 397.6 442.7 397.3 440.8 397.7 C 440.8 397.3 439.5 397.2 438.2 397.1 C 438.0 397.5 439.5 397.4 439.5 397.7 C 438.4 397.7 437.2 397.7 436.1 397.7 C 435.9 397.6 435.9 397.4 435.1 397.4 C 434.1 397.6 429.9 398.0 430.1 397.7 C 431.5 397.2 426.6 397.3 429.3 397.0 C 428.5 397.0 428.3 396.8 427.2 396.8 C 427.3 397.0 427.5 397.2 427.7 397.4 C 425.2 397.4 425.8 396.7 423.7 396.7 C 423.7 396.9 422.8 396.9 422.7 397.1 C 423.5 397.1 423.4 396.9 424.6 397.0 C 424.0 397.6 427.2 397.3 427.4 397.7 C 425.1 397.8 424.7 397.4 423.5 397.2 C 421.7 397.4 421.7 397.4 420.8 397.3 C 420.8 397.7 420.8 398.2 420.7 399.2 C 420.9 399.3 420.9 398.5 421.1 398.9 C 421.0 402.6 420.2 401.4 420.5 404.3 C 420.4 403.7 420.1 401.0 420.1 402.6 C 420.3 404.6 420.7 405.5 420.7 407.9 C 420.6 407.9 420.4 407.5 420.3 408.3 C 420.5 409.4 420.8 409.8 421.0 410.8 C 420.8 410.8 420.9 412.2 421.0 412.8 C 420.7 413.4 420.6 412.2 420.5 413.1 C 420.5 415.1 421.4 416.9 421.2 418.4 C 420.7 417.9 420.9 419.9 421.0 421.6 C 420.5 421.5 420.6 425.1 420.5 427.3 C 420.9 427.0 420.7 429.3 421.1 429.0 C 421.1 427.9 421.2 427.4 421.4 427.3 C 421.4 429.9 420.6 430.1 421.2 432.5 C 421.0 433.3 420.7 434.4 420.6 436.1 C 420.8 436.5 421.0 433.2 421.1 435.1 C 421.0 435.2 421.0 435.8 421.1 436.4 C 420.7 435.9 420.6 437.3 420.3 438.0 C 420.7 439.8 420.1 442.8 420.6 441.5 C 420.7 444.1 420.0 442.0 420.0 443.9 C 420.5 443.2 420.6 446.6 420.9 445.1 C 421.0 447.7 420.3 447.2 420.1 446.0 C 420.0 448.3 420.3 449.0 420.1 450.1 C 420.5 449.2 420.7 452.9 420.5 450.9 C 420.1 450.1 420.3 453.0 420.1 453.5 C 420.4 452.7 420.4 454.0 420.6 452.4 C 420.7 454.2 420.8 456.8 420.3 458.3 C 420.6 460.7 420.6 462.8 420.2 461.6 C 420.3 463.8 420.3 463.0 420.2 465.1 C 420.3 465.1 420.4 464.5 420.5 464.4 C 420.5 467.3 420.2 466.7 420.2 470.5 C 419.7 469.9 419.7 472.4 419.4 473.0 C 419.5 471.4 419.6 470.2 419.7 469.0 C 419.5 468.6 419.4 469.9 419.3 468.9 C 419.4 468.8 419.5 468.2 419.6 467.6 C 419.2 470.0 418.9 464.2 419.3 466.1 C 419.2 466.1 419.1 466.2 419.2 466.8 C 419.6 466.4 419.4 466.4 419.8 466.9 C 419.7 465.6 420.2 464.8 419.8 464.2 C 419.6 464.2 419.7 465.4 419.6 465.5 C 419.3 462.3 420.1 464.8 419.9 462.3 C 419.5 461.6 419.4 462.8 419.2 463.4 C 419.1 461.1 419.2 459.1 419.4 458.6 C 419.3 456.5 419.1 458.7 418.9 457.1 C 419.1 456.5 419.4 456.6 419.4 455.3 C 419.2 453.6 419.1 456.0 419.0 454.4 C 419.3 452.9 419.6 455.8 419.7 453.3 C 419.1 453.6 419.8 451.1 419.4 451.1 C 419.5 452.6 418.9 452.4 419.3 451.8 C 419.8 448.7 418.4 445.7 419.3 442.9 C 419.2 442.8 419.1 442.3 419.0 442.1 C 418.8 444.4 418.7 448.1 418.1 448.5 C 418.3 450.5 418.6 450.4 418.8 450.8 C 418.3 453.0 418.2 452.7 417.6 451.1 C 417.5 447.0 417.8 445.5 418.0 442.9 C 417.7 441.4 417.8 443.0 417.6 443.4 C 418.0 435.5 416.8 441.0 417.0 438.2 C 417.2 438.4 417.3 437.8 417.3 437.0 C 417.2 436.9 417.2 435.7 417.1 435.4 C 417.1 436.0 417.0 436.2 416.8 436.0 C 416.7 433.8 417.1 434.9 417.3 434.9 C 417.3 436.5 417.4 437.5 417.6 437.8 C 417.4 435.7 417.8 434.4 417.3 432.8 C 417.9 431.3 418.5 434.5 418.9 433.8 C 419.2 434.3 417.9 431.9 417.7 430.3 C 417.8 427.8 417.3 427.4 417.3 425.1 C 417.8 424.8 417.5 427.6 417.9 427.6 C 417.9 426.9 418.0 426.8 418.0 426.2 C 417.9 424.6 417.6 424.5 417.5 423.1 C 417.9 422.7 417.6 422.1 417.5 421.1 C 417.7 419.7 417.8 422.2 417.9 420.6 C 418.0 419.0 417.4 417.4 417.5 416.9 C 417.6 416.9 417.8 417.3 417.9 416.5 C 417.6 414.3 417.6 413.8 417.3 416.1 C 417.4 414.0 417.2 412.9 416.8 412.9 C 416.8 416.1 416.8 417.0 416.3 418.1 C 416.7 419.0 416.4 419.8 416.3 420.9 C 417.0 420.7 416.3 422.4 416.7 423.3 C 416.8 422.5 416.8 421.8 417.0 421.4 C 416.9 424.8 416.8 424.7 417.5 428.0 C 417.3 427.9 417.2 428.1 417.1 428.4 C 416.9 427.4 417.0 425.0 416.7 424.7 C 416.2 426.3 417.0 427.5 416.4 429.4 C 416.7 430.6 416.9 427.9 416.9 429.8 C 416.7 430.5 416.5 431.5 416.3 432.9 C 416.4 434.4 416.6 435.3 416.7 436.6 C 416.5 436.6 416.4 436.7 416.4 437.9 C 416.6 437.9 416.7 436.8 416.8 438.1 C 416.3 441.5 416.0 443.8 416.2 447.6 C 416.3 446.4 416.7 443.6 416.7 445.1 C 416.4 446.6 416.9 449.1 416.6 450.6 C 416.4 451.1 416.7 448.6 416.0 448.9 C 416.1 450.6 416.0 451.6 415.9 452.4 C 416.2 452.5 416.1 454.4 416.4 454.1 C 416.5 452.7 416.0 452.1 416.2 451.8 C 417.3 453.4 415.8 456.8 415.8 459.5 C 416.0 461.2 416.2 458.3 416.3 460.3 C 416.5 461.6 415.5 462.0 415.4 460.0 C 415.6 458.8 415.1 458.0 415.5 457.9 C 415.5 457.3 415.5 456.5 415.4 456.5 C 415.4 457.4 415.1 457.1 415.0 457.7 C 415.1 456.4 414.3 455.9 414.7 454.8 C 414.8 455.6 414.9 455.9 415.0 456.3 C 414.9 452.5 415.2 451.4 415.4 449.3 C 415.1 450.4 415.2 449.2 414.9 449.1 C 415.0 450.8 414.7 453.9 414.6 451.9 C 415.1 450.8 413.9 449.2 414.3 448.2 C 414.4 449.2 414.6 449.1 414.7 449.8 C 414.8 448.3 415.1 448.5 415.1 447.1 C 414.5 442.1 415.6 439.1 414.7 431.2 C 414.7 428.6 414.9 433.7 415.3 433.7 C 415.3 432.9 415.4 432.8 415.4 432.3 C 414.9 432.0 415.4 431.0 415.0 429.9 C 415.4 430.3 415.0 426.6 415.4 425.2 C 415.2 425.0 415.0 425.1 415.0 424.2 C 415.5 419.4 414.8 409.4 415.3 405.9 C 414.9 405.7 414.9 404.0 414.7 403.3 C 414.8 400.9 415.1 402.3 414.7 398.3 C 414.7 396.4 415.0 398.9 415.1 399.4 C 415.0 396.5 415.1 393.9 415.1 391.6 C 417.3 391.6 419.2 391.6 420.6 391.4 C 422.2 391.2 420.9 391.7 424.5 391.8 C 424.0 391.2 430.3 392.0 430.4 391.4 C 432.5 391.3 437.0 392.1 434.8 391.5 C 437.6 391.5 436.2 392.0 437.4 392.0 C 439.3 392.0 435.9 391.0 437.9 391.0 C 438.0 391.4 439.6 391.2 441.2 391.6 C 439.6 391.6 438.6 391.6 438.6 391.9 C 439.8 391.6 440.0 392.0 442.1 391.9 C 443.6 391.6 448.0 391.3 449.8 391.9 C 449.8 391.7 449.3 391.6 448.9 391.5 C 450.2 391.4 452.2 391.9 451.6 391.4 C 454.7 391.3 456.4 391.8 457.9 391.4 C 459.2 391.2 457.7 391.8 461.7 391.8 C 461.5 391.4 468.7 391.4 470.8 391.8 C 470.6 391.2 471.3 391.7 472.2 391.8 C 472.2 391.6 471.9 391.4 472.7 391.4 C 473.0 391.5 473.5 391.4 474.1 391.4 C 474.0 392.0 476.6 391.2 477.1 391.6 C 476.5 391.7 476.6 392.0 477.3 392.0 C 477.2 391.6 480.5 392.3 480.0 391.9 C 479.3 391.7 477.4 391.8 477.7 391.5 C 480.4 391.3 479.6 391.9 481.4 391.9 C 481.2 391.7 480.1 391.6 481.2 391.5 C 483.2 391.6 481.4 391.6 482.8 391.9 C 483.8 391.8 485.5 391.5 486.2 391.5 C 486.0 391.5 486.7 391.7 487.0 391.8 C 490.7 391.9 498.7 391.5 502.5 392.0 C 502.7 391.8 503.4 391.8 503.1 391.5 C 505.3 391.7 505.1 391.6 507.3 391.8 C 507.3 391.6 507.2 391.4 507.1 391.2 C 509.9 391.0 507.6 391.8 509.5 391.8 C 509.4 390.9 510.6 392.0 512.3 392.0 C 512.5 391.8 513.3 391.8 512.9 391.5 C 515.6 391.5 515.6 392.1 517.9 391.9 C 517.3 391.8 516.6 390.6 516.8 390.2 C 517.2 390.4 518.0 390.5 519.0 390.6 C 517.9 391.0 519.0 392.5 522.2 392.0 C 520.4 392.1 519.6 392.0 520.0 391.6 C 522.5 391.6 523.4 391.9 525.6 391.9 C 525.9 391.5 524.3 391.4 524.8 391.0 C 525.3 391.0 525.6 390.9 525.4 390.7 C 527.7 390.8 527.9 391.1 530.4 390.9 C 530.4 391.1 529.9 391.1 529.0 391.0 C 529.2 391.3 529.2 391.6 527.7 391.6 C 527.5 391.4 528.3 391.0 526.2 391.1 C 526.2 391.3 526.2 391.5 526.3 391.8 C 527.9 391.8 531.6 392.1 531.9 391.9 C 531.1 391.7 529.9 391.6 530.4 391.2 C 533.1 391.3 534.0 391.8 536.2 392.0 C 540.0 391.9 546.8 392.0 545.9 391.4 C 548.3 391.5 547.4 391.6 549.5 391.6 C 548.9 391.2 551.8 391.5 551.6 391.1 C 549.1 391.2 549.8 391.1 547.4 391.2 C 547.4 391.0 547.8 390.8 548.8 390.7 C 548.9 391.0 550.0 391.0 551.6 391.0 C 551.3 390.9 549.8 390.5 551.6 390.5 C 551.7 390.6 552.1 390.6 553.0 390.6 C 553.0 390.8 553.0 391.0 553.0 391.2 C 552.0 391.4 550.9 391.5 550.2 391.6 C 550.9 391.6 551.0 391.7 551.6 391.8 C 552.0 391.5 554.9 391.8 555.1 391.5 C 554.0 391.5 553.2 391.3 554.4 391.2 C 554.6 391.3 556.6 391.4 557.2 391.2 C 554.8 391.0 555.7 391.0 554.4 390.6 C 557.3 390.5 556.8 391.0 560.1 390.9 C 560.1 391.2 560.1 391.5 559.3 391.6 C 561.3 392.4 566.1 391.7 567.7 391.8 C 566.6 391.7 565.4 392.2 567.0 392.3 C 567.0 392.1 568.2 392.2 568.4 392.0 C 569.1 391.3 567.7 390.9 566.4 390.5 C 567.8 390.5 568.0 390.3 569.3 390.3 C 569.7 390.6 568.3 391.2 569.9 391.2 C 570.3 390.6 572.9 391.2 573.5 390.7 C 572.4 390.8 571.6 390.5 572.8 390.5 C 572.6 390.8 574.9 390.6 574.9 390.9 C 573.0 391.0 572.5 391.4 571.3 391.4 C 572.8 391.4 570.2 391.7 572.6 391.8 C 573.8 391.5 574.4 391.1 577.0 391.1 C 577.9 391.2 577.0 391.6 578.3 391.6 C 578.0 391.2 580.8 391.2 579.1 391.5 C 580.0 391.5 580.6 391.6 581.1 391.6 C 579.8 391.3 586.6 390.7 585.6 390.5 C 585.5 391.0 585.7 391.5 586.0 391.6 C 587.4 391.2 588.9 391.5 592.4 391.5 C 592.4 391.0 593.0 391.5 594.5 391.4 C 594.9 391.2 593.6 391.0 594.6 391.0 C 596.3 391.2 596.4 391.2 596.7 391.4 C 597.9 391.4 598.8 391.4 599.4 391.5 C 599.6 391.3 599.2 391.2 598.9 391.1 C 603.5 391.6 606.1 391.0 610.1 391.1 C 608.5 390.9 607.9 391.6 609.3 391.5 C 610.2 391.4 610.9 391.4 611.5 391.2 C 610.6 390.9 611.0 391.1 613.0 391.1 C 614.8 391.0 612.5 390.5 613.9 390.5 C 615.3 390.7 614.4 390.9 615.1 391.0 C 615.8 391.0 616.6 391.0 617.3 391.0 C 616.1 390.8 617.6 390.6 618.9 390.5 C 617.8 390.9 618.3 391.0 620.9 390.9 C 621.0 391.1 619.7 391.2 620.7 391.3 C 621.2 391.3 623.4 390.7 624.9 391.1 C 624.4 391.2 624.1 391.2 624.1 391.4 C 626.1 391.1 627.3 391.6 628.9 391.8 C 627.4 391.4 628.4 391.1 627.9 390.9 C 629.3 391.2 631.6 390.8 632.6 391.3 C 630.3 391.1 632.1 392.0 633.6 392.0 C 634.2 391.6 631.6 391.7 632.6 391.3 C 633.6 390.9 635.2 391.5 636.2 391.1 C 636.2 390.9 635.1 391.2 634.9 391.0 C 636.2 391.0 634.6 390.8 635.7 390.7 C 636.2 391.2 637.3 390.6 637.9 390.6 C 638.8 390.7 640.3 391.3 641.2 391.0 C 641.3 390.8 640.1 390.9 640.0 390.7 C 644.0 390.5 644.8 391.1 648.6 390.6 C 648.9 390.8 649.5 390.9 650.5 391.0 C 650.5 390.8 651.2 390.7 652.1 390.6 C 653.5 390.8 654.9 391.0 656.7 391.1 C 656.1 391.5 655.1 391.6 657.7 391.6 C 657.9 391.5 656.9 391.4 657.9 391.4 C 657.8 391.5 658.4 391.5 658.6 391.4 C 658.7 391.3 658.8 391.2 658.8 391.1 C 658.1 391.1 657.4 391.1 656.7 391.1 C 656.9 390.9 656.9 390.7 656.4 390.6 C 659.6 390.4 658.8 391.2 661.1 390.9 C 661.0 391.5 661.5 391.6 659.5 392.0 C 661.4 391.9 662.8 391.7 663.5 391.4 C 661.4 391.4 662.4 391.0 661.9 390.7 C 663.3 390.8 663.5 390.6 664.2 390.5 C 665.6 390.8 662.0 391.2 665.1 391.3 C 663.1 390.8 667.3 390.9 668.8 391.0 C 668.6 390.8 668.1 390.8 669.1 390.6 C 673.5 390.4 672.0 391.7 675.1 391.0 C 674.7 391.3 675.8 391.3 676.2 391.4 C 674.1 391.5 673.4 391.6 672.5 391.7 C 672.5 391.8 673.1 391.9 673.6 391.9 C 673.9 391.7 674.4 391.6 675.2 391.8 C 676.0 391.5 676.3 391.0 678.3 390.6 C 678.3 390.8 677.9 391.0 678.7 391.0 C 679.7 390.7 677.5 391.7 681.0 391.5 C 680.5 391.4 680.4 391.2 680.9 390.9 C 682.7 390.7 682.2 390.9 684.6 390.8 C 684.8 391.4 682.3 391.5 681.4 391.9 C 683.0 391.8 684.6 391.4 685.8 391.7 C 684.9 391.5 686.4 391.1 687.8 391.0 C 689.0 391.1 687.2 391.6 688.7 391.7 C 689.9 391.5 690.9 391.2 690.0 391.0 C 692.4 391.2 692.3 390.7 694.4 390.8 C 694.2 391.0 693.6 391.0 692.9 390.9 C 692.9 391.0 692.4 391.2 693.2 391.3 C 694.4 391.0 696.2 391.0 697.9 390.8 C 698.0 391.6 698.0 392.3 698.1 392.8 C 697.4 396.9 698.3 400.0 698.0 403.6 C 697.6 402.5 697.9 408.1 697.5 410.0 C 697.6 411.0 698.5 413.6 698.1 412.6 C 697.5 413.3 697.8 415.1 697.6 416.8 C 697.7 416.7 697.9 416.6 698.0 416.5 C 698.1 419.9 697.7 420.8 697.3 422.1 C 697.6 426.1 697.0 430.7 697.5 435.6 C 697.0 436.9 697.1 438.0 696.8 440.9 C 697.2 440.8 697.2 443.1 697.2 445.3 C 697.6 444.8 697.5 446.8 697.7 446.8 C 697.8 444.9 698.2 445.6 698.4 444.5 C 698.0 447.2 698.8 448.6 698.4 450.6 C 698.2 448.0 697.7 447.2 697.1 446.8 C 697.2 449.9 697.0 451.5 696.7 452.0 C 697.0 452.3 697.2 451.9 697.3 451.3 C 697.3 452.3 697.3 453.3 697.3 454.3 C 697.1 454.5 697.0 453.1 697.0 454.2 C 697.1 455.0 697.2 455.8 697.3 456.5 C 696.9 457.3 697.0 455.3 696.8 455.0 C 696.6 458.9 697.5 457.4 697.6 459.6 C 697.3 460.1 696.9 459.9 696.8 461.6 C 697.1 462.5 697.4 462.8 697.5 464.8 C 697.4 466.1 696.9 464.5 696.8 466.1 C 697.0 466.3 696.9 467.0 696.8 467.6 C 697.1 467.6 697.2 468.3 697.2 469.2 C 697.0 469.3 697.1 470.8 697.2 471.5 C 697.0 471.5 696.5 473.6 696.8 474.2 C 697.0 474.3 696.9 473.0 697.1 472.9 C 697.0 474.6 697.1 475.8 697.2 476.7 C 696.3 476.7 697.0 479.9 696.6 482.9 C 696.9 485.3 697.2 483.0 697.5 485.9 C 697.2 487.2 697.1 485.2 696.7 485.3 C 696.7 485.7 696.4 487.9 696.7 488.2 C 696.9 488.4 696.8 487.0 697.0 487.0 C 697.3 489.2 696.9 488.8 696.7 489.7 C 697.0 489.9 697.1 491.2 697.3 491.7 C 697.6 497.4 696.9 496.6 696.6 498.5 C 696.6 498.6 696.7 498.9 696.7 499.2 C 696.4 499.3 696.0 499.3 696.0 499.4 C 696.3 499.3 696.5 499.3 696.8 499.3 C 696.8 498.0 697.0 497.2 697.1 499.0 C 697.0 498.8 697.0 499.1 697.0 499.5 C 696.2 499.5 695.1 499.7 695.0 499.7 C 695.6 500.0 697.3 499.9 697.0 500.3 C 694.5 500.4 694.8 499.6 693.2 500.0 C 692.7 499.8 693.9 499.7 694.2 499.6 C 693.4 499.6 692.3 499.6 692.0 499.5 C 692.9 499.4 692.6 499.1 692.8 498.8 C 691.8 499.2 689.0 498.8 691.2 499.4 C 688.3 499.2 686.0 499.5 688.2 499.9 C 686.1 500.0 686.8 499.4 685.3 499.8 C 685.2 499.3 685.5 499.1 683.7 498.7 C 683.6 499.0 682.5 499.0 682.9 499.4 C 679.6 499.4 678.3 498.9 676.6 498.6 C 678.4 499.2 676.3 498.7 675.1 499.1 C 673.9 498.9 674.4 498.4 671.9 498.6 C 675.3 499.1 668.6 498.7 670.5 499.4 C 666.8 499.1 666.9 499.1 663.2 499.0 C 663.3 498.7 664.0 498.5 665.5 498.4 C 664.8 498.8 668.8 498.8 668.4 498.6 C 668.3 498.5 668.2 498.4 668.1 498.3 C 665.6 498.4 663.7 498.3 662.4 498.0 C 662.1 498.3 661.0 498.5 661.9 499.0 C 658.9 498.4 656.9 499.2 655.4 498.7 C 656.2 498.7 657.0 498.7 656.6 498.4 C 655.7 498.6 654.5 498.6 654.9 499.0 C 657.1 499.1 657.5 499.1 658.3 498.8 C 657.7 499.2 660.7 499.4 658.8 499.5 C 658.4 498.9 655.0 499.8 655.9 499.3 C 658.0 499.1 653.2 499.0 652.7 498.7 C 652.7 498.7 652.7 498.7 652.7 498.7 Z M 415.1 447.8 C 415.3 450.0 415.7 447.6 415.7 445.9 C 415.5 446.4 415.4 446.5 415.1 446.4 C 415.2 447.0 415.3 447.7 415.1 447.8 C 415.1 447.8 415.1 447.8 415.1 447.8 Z M 420.9 428.9 C 420.4 427.9 420.7 431.4 420.6 432.8 C 420.7 432.4 420.8 432.1 420.9 432.9 C 421.2 431.7 420.5 430.7 420.9 428.9 C 420.9 428.9 420.9 428.9 420.9 428.9 Z M 463.1 395.9 C 462.6 396.0 461.4 396.1 461.1 395.9 C 460.3 395.9 460.7 396.2 460.7 396.3 C 459.1 396.4 460.7 395.7 458.3 395.9 C 458.0 396.7 463.2 396.8 463.1 395.9 C 463.1 395.9 463.1 395.9 463.1 395.9 Z M 673.4 492.9 C 672.2 492.6 674.2 492.3 673.2 492.0 C 669.8 492.3 673.1 492.7 667.8 492.6 C 668.2 492.7 668.7 492.8 668.8 493.0 C 671.1 492.8 671.0 492.6 671.1 493.3 C 672.2 493.3 671.7 492.4 673.4 492.9 C 673.4 492.9 673.4 492.9 673.4 492.9 Z M 623.6 491.2 C 624.1 491.3 624.5 491.4 624.6 491.6 C 626.0 491.4 625.6 491.3 627.8 491.5 C 627.1 490.9 625.2 490.9 623.6 491.2 C 623.6 491.2 623.6 491.2 623.6 491.2 Z M 496.1 490.3 C 495.7 490.3 495.2 490.3 494.8 490.3 C 495.2 490.5 494.1 491.1 496.3 490.9 C 496.4 490.8 496.0 490.8 495.6 490.8 C 496.0 490.7 497.1 490.7 496.8 490.4 C 496.2 490.4 496.2 490.4 496.1 490.3 C 496.1 490.3 496.1 490.3 496.1 490.3 Z M 443.0 493.9 C 445.6 493.5 439.1 492.6 443.0 493.9 C 443.0 493.9 443.0 493.9 443.0 493.9 C 443.0 493.9 443.0 493.9 443.0 493.9 Z M 449.0 498.5 C 449.1 498.6 449.7 498.6 449.6 498.5 C 451.9 498.6 449.7 498.8 451.0 499.0 C 452.8 498.7 450.0 498.3 452.3 498.1 C 451.9 497.8 450.3 498.5 449.0 498.5 C 449.0 498.5 449.0 498.5 449.0 498.5 Z M 672.1 391.2 C 670.1 391.4 669.2 391.7 668.5 392.2 C 669.8 392.2 670.9 392.2 671.1 392.4 C 673.8 392.2 669.7 392.1 669.4 392.0 C 669.9 391.7 671.8 391.6 672.1 391.2 C 672.1 391.2 672.1 391.2 672.1 391.2 Z M 665.7 391.4 C 664.7 391.6 663.4 391.7 663.0 392.0 C 664.3 392.0 664.3 392.1 664.3 392.3 C 665.5 392.1 664.4 391.8 665.7 391.4 C 665.7 391.4 665.7 391.4 665.7 391.4 Z M 677.3 391.8 C 676.3 391.8 676.4 392.1 676.1 392.3 C 677.5 392.3 677.5 392.4 678.8 392.4 C 678.9 392.3 679.1 392.2 679.2 392.0 C 678.1 392.0 677.9 392.1 676.9 392.1 C 677.0 392.0 677.2 391.9 677.3 391.8 C 677.3 391.8 677.3 391.8 677.3 391.8 Z M 659.0 391.9 C 655.3 391.8 653.2 392.5 650.4 393.1 C 653.1 393.0 656.1 392.2 657.8 392.4 C 660.2 392.3 657.3 392.2 657.4 392.0 C 657.6 391.9 658.4 391.9 659.0 391.9 C 659.0 391.9 659.0 391.9 659.0 391.9 Z M 626.7 391.9 C 626.1 391.6 624.4 392.3 622.3 392.2 C 622.7 392.3 623.0 392.4 622.9 392.5 C 625.8 392.7 624.4 391.9 626.7 391.9 C 626.7 391.9 626.7 391.9 626.7 391.9 Z M 609.1 392.2 C 607.2 392.2 609.9 392.4 608.9 392.7 C 610.9 392.7 613.1 392.7 613.2 392.3 C 610.9 392.5 610.4 392.5 609.1 392.2 C 609.1 392.2 609.1 392.2 609.1 392.2 Z M 596.4 392.2 C 594.3 392.3 597.2 392.7 596.2 393.1 C 597.0 393.0 596.9 392.8 597.0 392.7 C 597.6 392.7 598.1 392.8 599.0 392.8 C 598.4 392.5 596.0 392.6 596.4 392.2 C 596.4 392.2 596.4 392.2 596.4 392.2 Z M 696.3 419.6 C 696.2 418.3 695.8 418.9 695.9 416.1 C 695.9 420.3 694.7 418.6 694.9 423.8 C 695.1 422.9 695.2 423.4 695.0 423.8 C 695.3 425.7 695.3 421.8 695.7 423.5 C 695.7 422.0 695.2 423.1 695.2 421.6 C 695.6 419.9 695.8 418.9 696.3 419.6 C 696.3 419.6 696.3 419.6 696.3 419.6 Z M 694.5 424.0 C 694.4 425.5 695.2 425.2 694.8 426.0 C 694.8 426.7 694.9 426.5 695.0 426.6 C 695.0 426.1 695.1 426.0 695.2 425.9 C 695.0 424.7 694.9 423.5 694.5 424.0 C 694.5 424.0 694.5 424.0 694.5 424.0 Z M 694.5 410.5 C 694.7 412.8 694.4 413.7 694.8 414.6 C 694.2 415.8 695.0 416.1 694.5 417.6 C 694.6 419.9 694.8 418.1 695.0 417.3 C 695.2 419.6 694.6 418.1 694.8 420.3 C 695.2 420.5 695.1 417.7 695.6 417.8 C 695.6 416.0 695.3 416.2 695.2 415.1 C 695.2 414.2 695.4 414.4 695.6 414.2 C 695.4 412.2 695.7 412.1 695.7 410.5 C 695.3 410.3 695.2 411.1 695.3 412.9 C 695.1 411.1 694.8 410.4 695.0 408.1 C 695.4 409.4 695.6 402.0 694.9 403.1 C 694.8 405.1 695.2 404.3 695.3 405.0 C 694.9 407.8 695.0 409.3 694.5 410.5 C 694.5 410.5 694.5 410.5 694.5 410.5 Z M 676.9 393.1 C 676.3 393.0 675.9 392.9 674.9 392.9 C 675.1 392.6 676.3 392.7 675.3 392.4 C 673.9 392.4 673.4 392.5 672.4 392.5 C 672.8 392.7 675.6 393.1 673.8 393.3 C 674.1 393.5 675.1 393.6 676.4 393.6 C 675.4 393.0 678.5 393.6 679.9 393.6 C 680.3 393.0 682.2 393.7 683.6 393.3 C 683.1 393.0 679.9 393.3 678.7 393.3 C 679.4 393.3 676.0 392.4 676.9 393.1 C 676.9 393.1 676.9 393.1 676.9 393.1 Z M 694.8 429.6 C 694.9 430.0 695.0 431.6 695.0 430.3 C 695.2 430.9 695.0 432.3 695.6 431.5 C 695.6 432.3 695.6 433.0 695.6 433.7 C 695.4 433.5 695.4 431.5 695.0 432.4 C 695.3 433.8 695.0 433.3 695.0 435.2 C 694.7 434.3 694.6 435.4 694.1 434.7 C 694.3 435.2 694.3 437.0 694.6 436.8 C 694.6 439.5 694.1 436.1 694.1 439.7 C 693.8 439.7 693.8 437.1 694.0 436.2 C 693.6 435.8 693.9 440.6 693.7 443.2 C 694.1 440.9 694.4 442.7 694.8 443.9 C 694.7 444.7 694.5 443.9 694.3 445.3 C 694.2 446.5 694.5 447.1 694.3 447.5 C 694.3 448.4 694.6 448.0 694.8 448.2 C 694.7 449.8 694.2 448.5 694.3 451.0 C 694.8 449.2 694.9 451.3 694.8 454.6 C 694.9 454.4 695.0 453.3 695.2 453.2 C 695.4 453.8 694.9 455.6 694.8 456.0 C 694.9 457.2 695.1 456.5 695.0 455.4 C 695.2 456.1 695.3 456.8 695.4 457.6 C 695.5 454.0 695.4 448.3 695.9 441.7 C 695.6 443.0 695.5 441.5 695.7 439.5 C 695.9 439.2 695.9 440.0 695.9 441.0 C 696.4 438.6 695.4 438.8 695.7 435.2 C 695.8 433.2 696.0 437.3 696.2 435.1 C 696.1 433.7 695.8 432.9 696.2 432.1 C 696.0 429.8 695.5 429.4 695.6 425.7 C 695.3 427.9 694.4 429.1 694.6 431.1 C 694.8 431.1 694.8 430.2 694.8 429.6 C 694.8 429.6 694.8 429.6 694.8 429.6 Z M 664.1 392.5 C 662.9 392.5 662.1 392.8 662.0 392.5 C 659.8 392.7 661.9 393.0 662.2 393.1 C 663.3 393.0 663.7 392.8 664.1 392.5 C 664.1 392.5 664.1 392.5 664.1 392.5 Z M 451.8 392.5 C 449.0 392.4 449.9 392.9 447.8 392.9 C 449.6 393.1 450.3 393.4 453.0 393.3 C 452.9 393.0 452.7 392.7 451.8 392.5 C 451.8 392.5 451.8 392.5 451.8 392.5 Z M 670.8 392.8 C 672.9 392.4 668.4 393.3 668.7 392.9 C 666.5 393.2 670.3 393.2 668.1 393.6 C 670.0 393.3 670.8 393.7 673.0 393.5 C 673.2 393.2 671.5 393.2 669.8 393.2 C 669.8 393.0 670.7 393.0 670.8 392.8 C 670.8 392.8 670.8 392.8 670.8 392.8 Z M 479.6 393.6 C 481.2 393.3 477.5 392.9 476.3 392.7 C 476.5 393.2 477.0 393.1 479.6 393.6 C 479.6 393.6 479.6 393.6 479.6 393.6 Z M 434.2 393.2 C 433.6 393.7 437.3 393.2 436.7 393.7 C 438.0 393.8 438.0 393.6 437.9 393.5 C 438.6 393.6 440.5 393.5 440.2 393.8 C 440.9 394.2 437.1 393.8 438.6 394.2 C 437.5 394.3 437.2 394.1 436.4 394.1 C 438.4 394.1 437.1 393.7 434.5 393.6 C 434.8 393.9 435.9 393.8 435.0 394.1 C 434.7 393.9 433.1 393.6 432.7 393.1 C 430.5 393.1 432.4 393.8 429.8 393.7 C 430.3 394.0 431.9 394.0 432.9 394.1 C 433.1 394.5 429.9 393.8 431.1 394.4 C 430.2 394.0 428.6 393.9 428.2 393.5 C 430.0 393.3 431.0 393.0 432.5 392.8 C 430.7 392.6 429.4 393.5 426.5 393.1 C 427.0 393.4 425.4 393.4 426.3 393.7 C 424.2 393.6 424.7 393.1 425.0 393.1 C 424.2 392.8 420.5 393.0 421.1 393.3 C 420.6 393.1 417.8 393.1 416.8 393.3 C 416.9 393.8 417.0 394.1 417.1 394.2 C 416.8 395.3 417.4 398.1 416.8 398.1 C 417.0 399.1 417.0 400.7 417.0 402.5 C 417.4 403.4 417.2 400.1 417.5 400.2 C 417.8 400.0 417.4 403.4 417.7 403.2 C 417.8 403.3 417.9 403.4 418.0 403.4 C 417.9 401.9 417.8 400.4 417.6 398.9 C 417.7 397.9 417.8 399.3 418.0 399.3 C 417.8 398.4 417.5 395.3 417.7 394.2 C 418.2 394.2 418.6 394.3 418.8 394.5 C 421.5 394.3 423.7 394.4 424.7 394.1 C 426.4 394.1 423.9 394.3 425.2 394.6 C 429.8 394.1 436.7 394.7 440.5 394.1 C 441.4 394.1 441.4 394.4 441.7 394.6 C 447.3 394.4 441.8 393.8 446.6 394.0 C 446.9 394.3 444.6 394.3 445.1 394.6 C 446.7 394.6 446.9 394.4 449.1 394.5 C 449.0 394.3 448.9 394.2 448.7 394.0 C 450.5 394.0 450.2 394.5 451.2 394.6 C 453.4 394.5 452.6 394.3 454.1 394.8 C 456.0 394.6 457.9 394.4 460.2 394.6 C 461.4 394.3 458.3 393.7 456.1 393.7 C 456.1 393.6 456.7 393.6 456.6 393.5 C 459.4 393.8 460.4 394.6 464.3 394.6 C 461.1 394.2 465.7 394.4 466.5 394.8 C 468.1 394.7 466.5 394.2 465.5 394.2 C 465.6 394.1 466.7 394.2 466.9 394.4 C 466.7 393.8 462.7 393.5 458.9 393.7 C 460.3 393.0 456.1 393.8 457.6 392.9 C 454.5 393.1 457.6 393.6 453.9 393.5 C 454.3 393.7 455.1 393.8 455.6 394.0 C 452.9 394.1 453.3 393.5 450.4 393.6 C 450.2 393.9 452.1 393.8 452.3 394.1 C 448.8 393.7 447.7 393.6 445.3 393.2 C 445.1 393.4 445.9 393.8 442.1 393.6 C 442.1 393.5 442.0 393.4 441.9 393.3 C 443.7 393.4 443.5 392.7 439.3 392.7 C 439.2 392.9 440.5 392.9 441.6 392.9 C 441.3 393.2 440.1 393.3 438.5 393.3 C 437.6 393.3 436.5 393.1 437.6 393.1 C 436.6 392.7 436.6 393.4 434.2 393.2 C 434.2 393.2 434.2 393.2 434.2 393.2 Z M 629.7 392.8 C 629.1 392.9 628.5 392.9 627.5 392.9 C 626.9 393.3 628.8 393.2 628.7 393.5 C 630.1 393.5 629.2 393.0 629.7 392.8 C 629.7 392.8 629.7 392.8 629.7 392.8 Z M 649.0 393.1 C 649.1 392.7 647.7 393.2 646.2 393.1 C 645.5 393.4 647.5 393.3 647.3 393.6 C 649.1 393.7 647.2 393.0 649.0 393.1 C 649.0 393.1 649.0 393.1 649.0 393.1 Z M 640.7 393.1 C 640.1 392.7 639.8 393.3 641.3 393.2 C 641.1 393.4 640.6 393.6 639.6 393.7 C 640.4 394.1 641.5 393.4 643.1 393.6 C 642.7 393.4 641.8 393.2 640.7 393.1 C 640.7 393.1 640.7 393.1 640.7 393.1 Z M 637.9 393.1 C 636.7 393.3 636.2 393.0 634.4 393.2 C 634.6 393.5 638.6 393.3 639.2 393.2 C 640.0 392.9 635.9 392.9 637.9 393.1 C 637.9 393.1 637.9 393.1 637.9 393.1 Z M 507.5 394.1 C 506.8 394.1 507.0 394.3 506.9 394.4 C 504.5 393.8 501.6 393.9 503.7 393.3 C 501.6 393.7 499.3 393.2 497.4 393.1 C 495.8 393.0 496.7 393.4 495.5 393.5 C 493.4 393.4 496.5 393.3 496.0 393.1 C 495.4 392.8 495.1 393.5 492.6 393.2 C 493.6 393.9 490.4 393.1 491.5 393.8 C 490.1 393.6 489.8 393.8 488.0 393.8 C 488.3 394.1 490.0 394.1 490.4 394.4 C 491.4 394.8 491.1 394.0 489.6 394.1 C 490.3 393.7 493.0 394.3 493.6 394.0 C 494.7 394.4 491.4 394.1 492.5 394.5 C 493.1 394.4 493.7 394.4 493.7 394.2 C 494.8 394.3 495.5 394.4 496.0 394.6 C 495.4 394.6 495.3 394.6 495.2 394.5 C 494.0 394.5 496.8 395.1 494.1 395.1 C 494.7 395.3 495.8 395.3 495.7 395.5 C 496.6 395.8 495.2 394.4 498.2 394.9 C 499.8 394.5 493.7 394.5 494.9 393.7 C 498.8 393.8 496.9 394.4 500.0 394.5 C 499.9 394.3 499.8 394.1 500.6 394.1 C 500.4 393.9 499.3 394.0 498.5 394.0 C 498.5 393.8 499.7 393.9 500.5 393.8 C 500.3 393.7 499.7 393.7 499.6 393.6 C 502.3 393.7 502.4 394.6 500.1 394.8 C 500.3 395.1 503.5 395.1 504.3 394.9 C 503.3 394.6 504.3 394.6 503.4 394.2 C 502.7 394.2 502.9 394.4 502.8 394.5 C 501.5 394.4 502.6 394.3 502.6 394.1 C 504.1 394.2 504.1 394.5 505.4 394.2 C 505.1 394.3 504.8 394.4 504.9 394.6 C 505.6 394.6 506.3 394.6 507.0 394.6 C 506.8 394.4 507.7 394.3 507.5 394.1 C 507.5 394.1 507.5 394.1 507.5 394.1 Z M 470.9 393.1 C 468.6 393.0 470.0 393.3 471.1 393.3 C 470.7 393.4 469.9 393.5 469.2 393.6 C 469.9 393.7 470.5 393.6 472.7 393.7 C 471.1 394.2 473.5 395.0 476.9 394.9 C 477.5 394.1 474.5 394.0 475.4 393.6 C 473.0 393.8 471.5 393.6 470.9 393.1 C 470.9 393.1 470.9 393.1 470.9 393.1 Z M 662.1 393.2 C 660.8 393.2 659.4 393.2 658.0 393.2 C 657.9 393.6 662.0 393.8 662.1 393.2 C 662.1 393.2 662.1 393.2 662.1 393.2 Z M 694.9 460.3 C 694.9 460.9 694.9 461.0 694.8 461.0 C 694.9 463.2 695.1 460.2 695.4 461.2 C 695.4 460.5 695.4 459.7 695.4 459.0 C 695.3 458.9 695.0 461.9 694.9 459.6 C 694.8 459.7 694.8 460.3 694.9 460.3 C 694.9 460.3 694.9 460.3 694.9 460.3 Z M 630.8 393.3 C 629.5 393.5 630.0 394.0 627.0 393.8 C 628.0 394.1 628.7 394.0 630.5 394.0 C 630.6 393.8 630.7 393.5 630.8 393.3 C 630.8 393.3 630.8 393.3 630.8 393.3 Z M 517.7 393.5 C 515.8 393.0 515.6 394.0 512.2 393.7 C 514.0 394.2 515.7 393.6 517.7 393.5 C 517.7 393.5 517.7 393.5 517.7 393.5 Z M 417.6 408.6 C 417.7 407.7 417.8 409.1 418.0 407.6 C 417.9 406.5 417.6 405.9 417.6 404.4 C 417.2 406.0 417.6 409.9 417.0 410.8 C 417.0 412.6 417.5 412.8 417.7 413.6 C 417.7 412.7 417.8 412.4 417.9 412.3 C 417.3 410.8 418.2 410.4 417.6 408.6 C 417.6 408.6 417.6 408.6 417.6 408.6 Z M 480.3 393.7 C 481.7 393.9 479.6 394.1 479.3 394.4 C 478.4 394.3 478.5 394.0 478.3 393.8 C 477.1 393.9 476.9 394.1 477.2 394.4 C 479.6 394.5 482.4 394.5 481.0 395.0 C 483.3 395.1 481.8 394.6 482.8 394.5 C 484.2 394.8 483.1 394.9 483.2 395.3 C 483.7 395.2 485.2 394.7 485.3 395.3 C 488.3 394.7 486.5 394.1 483.7 393.5 C 481.7 393.9 484.3 394.0 480.3 393.7 C 480.3 393.7 480.3 393.7 480.3 393.7 Z M 568.3 394.1 C 568.1 394.0 566.9 394.0 566.9 393.8 C 565.4 394.2 564.1 394.6 562.7 395.0 C 563.0 395.4 564.8 395.0 564.1 394.8 C 564.6 395.0 566.0 395.2 566.8 395.4 C 568.1 395.5 568.7 394.6 568.8 395.3 C 570.2 395.0 569.4 395.0 571.6 395.1 C 568.1 394.7 572.8 394.9 573.1 394.5 C 571.1 394.5 569.3 394.5 569.5 394.9 C 568.1 394.7 566.5 394.6 566.2 394.2 C 566.3 394.1 567.5 394.1 568.3 394.1 C 568.3 394.1 568.3 394.1 568.3 394.1 Z M 560.0 395.3 C 560.5 395.2 561.0 395.1 562.0 395.1 C 561.4 395.0 561.2 394.9 561.3 394.6 C 559.6 394.6 559.2 394.9 558.6 394.5 C 557.0 394.4 559.0 395.1 556.5 394.9 C 556.7 395.0 557.9 395.0 557.9 395.2 C 558.1 394.9 559.1 394.8 560.0 395.3 C 560.0 395.3 560.0 395.3 560.0 395.3 Z M 538.6 394.5 C 536.8 394.5 539.6 394.7 538.7 395.0 C 539.1 395.0 542.6 395.1 542.1 395.4 C 543.2 395.9 546.6 394.9 546.3 395.5 C 547.1 395.5 546.8 395.3 546.9 395.1 C 544.5 395.3 544.5 394.9 546.2 394.9 C 546.0 394.7 544.5 394.8 543.5 394.8 C 543.4 395.0 544.3 395.0 544.2 395.3 C 542.1 395.1 540.5 394.7 538.6 394.5 C 538.6 394.5 538.6 394.5 538.6 394.5 Z M 655.1 496.7 C 656.7 496.7 657.7 496.6 658.4 496.5 C 657.7 496.3 657.1 496.5 656.3 496.5 C 655.9 496.3 656.7 496.3 657.5 496.3 C 656.4 495.9 653.8 496.3 655.1 496.7 C 655.1 496.7 655.1 496.7 655.1 496.7 Z M 668.8 496.7 C 670.3 496.7 671.3 496.6 671.3 496.4 C 670.4 496.2 671.0 496.5 670.0 496.5 C 669.3 496.4 668.8 496.3 668.3 496.1 C 667.6 496.1 667.9 496.3 667.8 496.4 C 667.3 496.4 667.2 496.3 667.0 496.3 C 665.5 496.6 669.2 496.2 668.8 496.7 C 668.8 496.7 668.8 496.7 668.8 496.7 Z M 550.3 394.8 C 550.9 394.9 551.4 395.2 553.1 395.1 C 552.7 394.9 554.1 394.9 555.1 394.9 C 553.5 394.6 552.7 394.7 550.3 394.8 C 550.3 394.8 550.3 394.8 550.3 394.8 Z M 693.9 434.8 C 694.2 432.6 693.6 433.0 693.9 429.9 C 693.7 429.9 693.6 430.0 693.5 430.0 C 693.8 431.7 693.6 432.6 693.9 434.8 C 693.9 434.8 693.9 434.8 693.9 434.8 Z M 471.9 496.4 C 472.1 496.1 470.0 496.3 469.8 496.0 C 469.5 496.6 468.2 495.6 464.3 495.7 C 464.2 495.6 464.5 495.5 465.0 495.5 C 461.7 495.4 466.0 495.9 466.4 496.3 C 468.9 496.2 469.4 496.5 471.9 496.4 C 471.9 496.4 471.9 496.4 471.9 496.4 Z M 425.0 395.3 C 425.1 395.2 424.6 395.2 424.2 395.1 C 423.8 395.1 423.3 395.1 422.9 395.1 C 423.5 395.7 426.0 395.9 424.8 396.4 C 425.4 396.5 425.4 396.4 425.4 396.3 C 427.6 395.2 431.9 397.1 435.6 396.3 C 436.2 396.3 436.0 396.2 436.0 396.1 C 435.5 396.1 435.3 396.0 435.2 395.9 C 435.2 396.5 430.7 395.9 432.3 395.7 C 432.0 395.5 431.5 395.6 431.6 395.7 C 431.1 395.7 430.7 395.7 430.2 395.7 C 430.6 395.8 431.6 395.9 431.9 396.1 C 429.6 395.9 426.8 395.8 427.8 395.3 C 426.5 395.3 426.2 395.5 425.4 395.7 C 424.5 395.6 424.2 395.3 425.0 395.3 C 425.0 395.3 425.0 395.3 425.0 395.3 Z M 418.9 406.9 C 418.8 409.0 419.3 408.6 419.2 410.6 C 419.5 409.6 419.0 407.5 419.3 406.0 C 419.1 406.1 419.1 407.0 418.9 406.9 C 418.9 406.9 418.9 406.9 418.9 406.9 Z M 447.4 395.9 C 447.4 396.4 449.3 396.4 451.3 396.4 C 451.3 396.0 449.5 395.9 447.4 395.9 C 447.4 395.9 447.4 395.9 447.4 395.9 Z M 438.6 395.9 C 436.7 396.1 441.2 396.0 440.4 396.4 C 441.4 396.4 442.3 396.4 442.5 396.6 C 443.2 396.5 443.0 396.3 444.4 396.3 C 444.1 396.1 442.0 396.2 442.0 395.9 C 440.7 396.2 440.4 396.2 438.6 395.9 C 438.6 395.9 438.6 395.9 438.6 395.9 Z M 437.3 395.9 C 436.1 396.1 438.3 396.7 439.9 396.7 C 439.1 396.4 438.4 396.1 437.3 395.9 C 437.3 395.9 437.3 395.9 437.3 395.9 Z M 596.6 396.1 C 595.7 396.1 596.3 396.4 595.2 396.4 C 595.1 396.6 599.2 396.6 595.8 396.7 C 596.9 397.2 597.8 396.5 599.3 396.6 C 598.8 396.5 598.5 396.3 599.3 396.3 C 599.9 396.0 596.1 396.4 596.6 396.1 C 596.6 396.1 596.6 396.1 596.6 396.1 Z M 592.6 396.1 C 591.8 396.1 592.2 396.2 592.6 396.2 C 592.4 396.3 591.3 396.3 590.5 396.3 C 590.4 396.1 591.8 396.9 591.6 397.2 C 595.1 396.9 592.6 396.5 592.6 396.1 C 592.6 396.1 592.6 396.1 592.6 396.1 Z M 589.1 396.3 C 587.0 396.0 583.8 396.1 582.3 396.4 C 583.8 397.0 588.0 396.8 589.1 396.3 C 589.1 396.3 589.1 396.3 589.1 396.3 Z M 611.5 396.4 C 607.6 396.0 599.4 396.6 606.5 397.0 C 606.4 396.7 611.2 396.5 613.4 396.7 C 613.6 396.5 616.3 396.2 616.2 396.4 C 618.2 396.1 610.7 396.1 611.5 396.4 C 611.5 396.4 611.5 396.4 611.5 396.4 Z M 579.4 397.2 C 580.6 397.0 579.3 396.3 580.9 396.6 C 581.9 396.5 580.7 396.4 581.0 396.2 C 578.9 396.2 574.5 396.6 574.2 396.2 C 573.1 396.3 572.7 396.6 570.8 396.6 C 570.7 396.8 578.0 396.2 579.5 397.0 C 579.3 397.1 576.7 397.2 579.4 397.2 C 579.4 397.2 579.4 397.2 579.4 397.2 Z M 691.5 435.3 C 691.9 435.4 691.6 432.7 692.0 433.1 C 691.6 431.8 691.9 430.2 691.5 428.6 C 691.6 428.1 692.2 428.1 692.3 425.7 C 692.0 425.7 692.0 426.9 691.8 425.9 C 691.7 423.7 692.2 424.1 692.0 421.7 C 691.4 422.4 691.9 416.5 691.3 417.4 C 691.3 418.7 691.6 418.4 691.5 420.6 C 691.5 421.4 691.3 421.2 691.3 422.1 C 690.9 421.6 691.5 420.2 691.1 419.5 C 690.9 419.8 690.9 421.4 690.6 421.7 C 690.7 422.7 690.8 421.4 691.0 421.5 C 691.1 424.1 690.1 421.8 690.2 424.5 C 690.6 423.8 690.6 423.8 691.0 424.2 C 690.8 425.4 691.1 428.7 690.6 427.0 C 690.3 427.3 690.8 429.2 691.0 428.8 C 691.1 429.9 690.9 430.1 690.7 430.2 C 690.9 433.0 691.2 433.3 691.7 432.6 C 692.0 433.1 691.4 433.6 691.5 435.3 C 691.5 435.3 691.5 435.3 691.5 435.3 Z M 633.1 396.6 C 634.9 396.3 631.3 396.7 629.8 396.6 C 631.6 396.6 630.7 397.2 632.8 397.2 C 632.1 397.1 632.3 397.0 633.6 397.0 C 634.1 396.8 631.2 396.6 633.1 396.6 C 633.1 396.6 633.1 396.6 633.1 396.6 Z M 566.7 396.6 C 566.0 396.3 562.4 396.5 560.6 396.4 C 560.9 397.0 565.4 396.2 566.0 396.8 C 567.0 396.8 565.4 396.6 566.7 396.6 C 566.7 396.6 566.7 396.6 566.7 396.6 Z M 692.0 409.5 C 692.0 408.8 691.9 409.3 691.9 409.6 C 691.7 409.5 691.8 408.0 691.8 407.0 C 691.5 408.7 691.4 407.0 691.0 407.6 C 691.0 406.8 691.0 406.5 690.9 406.4 C 691.6 405.8 690.5 402.6 690.4 406.9 C 690.8 405.8 690.7 406.1 690.9 407.7 C 690.6 409.8 690.9 411.0 690.5 412.0 C 690.5 413.2 690.8 413.5 690.7 415.1 C 690.4 415.7 690.3 417.2 689.7 416.4 C 689.7 419.2 690.6 416.7 690.7 419.0 C 690.5 421.4 690.3 418.2 690.0 418.8 C 690.0 419.4 689.8 419.4 689.7 419.6 C 689.7 420.4 690.1 420.2 690.1 419.4 C 690.2 419.6 690.6 421.7 690.1 421.3 C 690.3 422.5 691.3 418.6 690.9 417.0 C 690.8 415.9 691.6 415.4 691.5 416.6 C 691.9 416.0 691.0 414.3 691.8 414.4 C 691.8 413.5 691.8 412.6 691.8 411.7 C 691.7 411.9 691.7 412.5 691.5 412.5 C 691.5 411.7 691.5 410.8 691.5 409.9 C 691.7 410.5 691.9 410.4 692.0 409.5 C 692.0 409.5 692.0 409.5 692.0 409.5 Z M 575.5 396.7 C 573.8 396.7 573.4 396.9 572.0 397.0 C 572.5 397.3 576.2 397.1 575.5 396.7 C 575.5 396.7 575.5 396.7 575.5 396.7 Z M 690.4 446.7 C 690.5 446.5 690.4 445.3 690.6 445.3 C 690.8 447.4 691.0 445.1 691.7 446.7 C 691.3 444.0 690.4 443.2 690.1 446.7 C 690.2 449.2 690.3 444.1 690.4 446.7 C 690.4 446.7 690.4 446.7 690.4 446.7 Z M 690.6 438.8 C 690.4 437.2 690.2 441.2 690.1 442.1 C 690.0 442.1 689.8 442.1 689.7 442.1 C 690.3 444.3 690.5 441.3 691.3 443.3 C 691.5 440.7 691.6 439.6 691.4 437.3 C 691.2 437.5 691.3 438.0 691.4 438.0 C 691.3 439.7 690.8 438.6 691.0 436.8 C 690.8 437.3 690.8 438.9 690.7 440.1 C 690.8 439.7 691.0 439.3 691.1 439.4 C 691.2 440.8 690.9 440.3 690.9 441.4 C 690.7 441.4 690.4 438.9 690.6 438.8 C 690.6 438.8 690.6 438.8 690.6 438.8 Z M 614.1 493.8 C 615.4 493.7 612.2 493.2 611.9 492.6 C 610.5 492.6 610.2 492.7 609.3 492.8 C 610.0 493.0 611.6 493.0 612.4 493.3 C 612.5 493.8 610.2 493.2 609.9 493.5 C 609.4 494.1 613.2 493.3 614.1 493.8 C 614.1 493.8 614.1 493.8 614.1 493.8 Z M 672.5 397.4 C 671.7 397.4 672.0 397.5 672.3 397.5 C 672.1 397.6 670.9 397.6 671.0 397.5 C 669.9 397.5 671.4 397.7 670.2 397.7 C 669.7 398.0 672.1 397.7 672.2 397.6 C 673.8 397.6 672.2 398.1 672.4 398.3 C 673.7 398.3 673.6 397.9 675.3 398.0 C 674.4 397.8 673.6 397.5 672.5 397.4 C 672.5 397.4 672.5 397.4 672.5 397.4 Z M 691.1 451.3 C 691.3 451.6 690.5 449.7 690.9 448.0 C 690.9 445.7 690.4 449.4 690.5 447.3 C 690.4 449.0 690.7 451.2 690.7 453.9 C 691.0 454.6 690.8 450.2 691.0 452.6 C 691.2 452.5 691.1 451.9 691.0 451.9 C 691.0 451.4 691.1 451.3 691.1 451.3 C 691.1 451.3 691.1 451.3 691.1 451.3 Z M 690.2 448.6 C 690.1 448.7 690.1 449.3 690.2 449.3 C 690.2 450.1 689.8 450.1 689.8 449.2 C 689.4 450.3 690.2 450.3 690.0 452.5 C 690.3 451.6 690.5 451.1 690.2 453.1 C 690.6 454.9 690.5 449.4 690.2 448.6 C 690.2 448.6 690.2 448.6 690.2 448.6 Z M 635.5 493.5 C 635.2 493.4 633.8 493.4 632.7 493.4 C 633.8 493.1 639.4 493.3 640.3 493.5 C 640.8 493.5 641.3 493.4 641.6 493.5 C 641.5 493.4 642.8 493.2 642.0 493.1 C 642.0 493.0 643.2 493.1 643.1 492.9 C 645.2 493.0 642.7 493.2 643.5 493.4 C 645.6 493.0 645.4 493.3 648.2 493.4 C 647.5 493.0 644.4 493.1 644.2 492.6 C 642.4 493.1 639.7 492.8 638.0 492.4 C 640.6 493.0 632.9 493.3 629.1 493.1 C 629.1 492.9 627.8 493.0 626.1 492.7 C 624.8 492.4 625.8 493.2 627.7 493.0 C 627.8 493.3 624.9 493.1 623.8 493.1 C 625.3 493.4 624.6 493.5 625.5 493.7 C 628.1 493.7 625.6 493.6 625.9 493.3 C 626.5 493.3 627.2 493.3 627.9 493.3 C 624.8 493.9 633.1 493.4 630.0 493.4 C 632.7 493.4 633.1 493.8 635.5 493.5 C 635.5 493.5 635.5 493.5 635.5 493.5 Z M 691.1 485.8 C 691.1 485.3 690.8 483.0 691.1 483.2 C 690.8 480.2 690.5 482.3 690.5 479.3 C 690.3 479.4 690.4 480.6 690.2 480.5 C 690.4 481.7 690.5 483.0 690.9 483.0 C 690.8 484.3 691.0 484.8 691.0 485.7 C 690.8 485.2 690.7 484.6 690.7 483.5 C 690.4 483.0 690.2 483.3 690.2 485.1 C 690.6 486.1 690.9 485.8 691.1 485.8 C 691.1 485.8 691.1 485.8 691.1 485.8 Z M 690.6 478.8 C 690.7 478.5 690.8 478.2 691.0 478.4 C 691.4 477.7 690.5 477.7 690.5 476.7 C 690.5 476.0 690.7 476.4 690.9 476.3 C 690.8 475.1 690.7 474.2 690.9 473.7 C 690.7 471.8 690.5 475.5 690.4 476.0 C 690.4 477.3 690.7 477.1 690.6 478.8 C 690.6 478.8 690.6 478.8 690.6 478.8 Z M 691.0 459.2 C 691.4 459.0 690.8 458.1 690.9 457.2 C 690.5 457.8 690.7 459.8 690.2 458.3 C 690.1 460.2 690.1 460.3 690.2 462.3 C 689.9 463.4 690.6 462.5 690.4 460.4 C 690.5 460.7 690.6 461.6 690.7 461.8 C 690.0 462.8 691.2 466.6 690.6 464.3 C 690.7 463.8 690.9 463.5 691.0 463.2 C 690.7 462.6 690.8 458.2 691.0 459.2 C 691.0 459.2 691.0 459.2 691.0 459.2 Z M 685.9 398.1 C 688.4 398.1 688.7 398.0 690.6 398.1 C 690.6 398.3 690.6 398.5 690.6 398.8 C 690.5 399.0 690.4 398.9 690.4 398.4 C 690.2 399.1 690.3 399.9 690.4 400.9 C 690.5 400.7 690.4 400.2 690.4 400.3 C 690.6 397.9 690.6 399.7 691.0 399.7 C 691.1 398.9 691.1 398.3 691.1 397.7 C 689.3 397.7 687.6 398.0 687.1 397.6 C 686.0 397.7 687.1 397.8 685.9 398.1 C 685.9 398.1 685.9 398.1 685.9 398.1 Z M 474.0 493.1 C 473.6 493.3 472.5 493.3 472.8 493.5 C 473.7 493.5 474.4 493.3 475.4 493.3 C 473.5 493.2 473.6 492.6 471.2 492.6 C 472.0 492.8 471.9 493.2 474.0 493.1 C 474.0 493.1 474.0 493.1 474.0 493.1 Z M 690.9 465.8 C 690.7 465.8 690.5 465.8 690.5 465.0 C 690.2 464.6 690.3 466.8 690.1 466.7 C 690.1 467.4 690.4 467.3 690.4 468.2 C 690.6 468.0 690.5 466.2 690.9 467.1 C 690.9 467.7 690.8 467.7 690.7 467.7 C 690.9 469.2 691.0 467.1 690.9 465.8 C 690.9 465.8 690.9 465.8 690.9 465.8 Z M 607.1 493.4 C 608.0 493.4 606.9 493.2 606.2 493.1 C 607.9 492.7 604.6 492.5 604.2 492.1 C 605.3 492.4 607.8 492.2 608.3 492.4 C 609.1 492.3 607.9 491.9 610.0 491.8 C 609.5 491.5 607.4 491.8 608.2 492.1 C 607.2 491.6 605.3 492.2 605.2 491.7 C 602.1 491.6 601.6 491.9 601.7 492.4 C 604.5 492.2 603.4 492.9 605.9 492.8 C 606.0 492.9 605.2 492.9 604.7 492.9 C 605.1 493.1 606.3 493.2 607.1 493.4 C 607.1 493.4 607.1 493.4 607.1 493.4 Z M 677.3 493.4 C 678.8 493.4 678.4 493.1 678.0 492.8 C 677.5 492.9 676.7 492.9 675.5 492.9 C 675.9 493.1 677.7 493.0 677.3 493.4 C 677.3 493.4 677.3 493.4 677.3 493.4 Z M 617.5 492.9 C 617.8 493.0 618.2 493.0 618.2 492.9 C 619.9 492.9 620.4 493.1 621.2 493.3 C 622.0 493.2 621.5 492.9 621.4 492.8 C 620.1 493.1 620.0 492.6 618.0 492.6 C 618.2 492.8 618.0 492.9 617.5 492.9 C 617.5 492.9 617.5 492.9 617.5 492.9 Z M 662.9 493.1 C 663.7 493.1 663.2 493.0 662.8 493.0 C 663.3 492.6 666.4 493.0 667.3 492.8 C 667.1 492.4 663.7 492.5 667.6 492.4 C 666.6 492.1 663.3 492.3 661.4 492.2 C 661.5 491.9 663.9 491.9 663.4 491.5 C 661.5 491.7 659.4 491.9 659.6 492.5 C 662.7 492.5 661.9 492.9 662.9 493.1 C 662.9 493.1 662.9 493.1 662.9 493.1 Z M 659.3 492.9 C 659.7 493.1 660.1 492.8 661.3 492.9 C 659.2 492.4 658.4 492.6 654.9 492.5 C 655.0 492.6 655.0 492.7 655.1 492.8 C 654.5 492.8 653.7 492.8 653.1 492.8 C 656.4 493.2 656.9 492.9 659.8 492.8 C 660.1 492.9 659.7 492.9 659.3 492.9 C 659.3 492.9 659.3 492.9 659.3 492.9 Z M 690.4 435.5 C 690.1 436.5 689.9 437.3 689.8 438.9 C 690.2 438.7 690.4 437.7 690.4 435.5 C 690.4 435.5 690.4 435.5 690.4 435.5 Z M 614.6 492.6 C 613.0 492.9 616.4 492.6 615.0 492.2 C 613.5 492.1 611.8 492.0 611.2 491.6 C 608.9 492.1 614.6 492.1 614.6 492.6 C 614.6 492.6 614.6 492.6 614.6 492.6 Z M 626.0 491.7 C 626.8 491.8 627.3 492.3 626.2 492.0 C 624.3 492.0 628.1 492.3 625.1 492.2 C 626.5 492.4 629.5 492.6 630.6 492.4 C 630.3 492.0 627.8 492.2 627.5 491.8 C 627.3 491.7 627.7 491.7 628.0 491.7 C 627.6 491.5 627.2 491.8 626.0 491.7 C 626.0 491.7 626.0 491.7 626.0 491.7 Z M 636.6 492.4 C 635.3 492.2 633.9 492.0 631.6 492.0 C 633.3 492.2 634.4 492.6 636.6 492.4 C 636.6 492.4 636.6 492.4 636.6 492.4 Z M 509.3 491.8 C 511.0 491.8 509.4 491.4 509.2 491.3 C 507.5 491.3 507.7 491.6 505.8 491.5 C 506.6 491.9 508.2 491.4 509.3 491.8 C 509.3 491.8 509.3 491.8 509.3 491.8 Z M 503.2 491.6 C 503.0 491.3 500.7 491.5 500.4 491.2 C 499.3 492.0 496.9 490.7 497.1 491.3 C 496.5 491.3 496.0 491.2 495.0 491.2 C 497.1 491.9 501.2 491.6 503.2 491.6 C 503.2 491.6 503.2 491.6 503.2 491.6 Z M 647.4 491.6 C 649.3 491.7 646.4 491.0 648.3 491.1 C 648.3 490.9 644.7 490.8 646.7 490.7 C 643.7 490.4 647.5 491.5 647.4 491.6 C 647.4 491.6 647.4 491.6 647.4 491.6 Z M 679.9 491.2 C 680.0 491.5 682.3 491.3 683.3 491.3 C 683.2 491.2 682.4 491.2 681.9 491.2 C 682.0 491.1 682.3 491.0 683.0 490.9 C 682.1 490.6 680.8 491.2 679.9 491.2 C 679.9 491.2 679.9 491.2 679.9 491.2 Z M 649.7 498.3 C 648.2 498.0 646.5 497.7 646.1 498.2 C 644.7 497.9 646.6 497.8 644.9 497.6 C 643.2 497.8 643.8 497.4 640.8 497.6 C 641.0 497.1 638.8 497.1 638.1 496.8 C 639.3 496.7 641.3 497.2 641.6 496.8 C 640.5 496.8 640.8 496.4 641.5 496.7 C 643.7 496.9 639.3 497.2 642.1 497.4 C 642.4 496.9 646.8 497.8 649.2 497.8 C 648.5 498.1 651.4 498.3 649.7 498.3 C 649.7 498.3 649.7 498.3 649.7 498.3 Z M 636.7 497.6 C 635.0 497.6 633.5 496.8 634.0 496.8 C 634.2 497.0 636.0 497.0 636.1 496.8 C 635.6 496.8 635.2 496.8 635.3 496.7 C 638.4 496.7 637.6 497.0 638.5 497.3 C 637.0 497.5 636.3 497.2 635.9 497.4 C 636.3 497.4 636.7 497.5 636.7 497.6 C 636.7 497.6 636.7 497.6 636.7 497.6 Z M 596.1 491.1 C 596.6 491.3 596.8 491.0 597.4 490.9 C 597.9 491.5 600.8 490.7 601.4 491.1 C 600.8 491.3 599.0 491.3 598.4 491.5 C 599.3 491.5 599.6 491.6 600.4 491.5 C 600.4 491.8 598.5 491.8 598.1 492.1 C 597.8 491.9 597.1 492.2 596.7 492.0 C 599.1 491.7 594.6 491.1 596.1 491.1 C 596.1 491.1 596.1 491.1 596.1 491.1 Z M 662.3 491.1 C 662.2 490.7 658.5 489.7 660.7 489.2 C 661.6 489.6 662.2 489.9 662.5 490.4 C 663.9 490.2 664.9 490.5 665.5 490.2 C 669.7 491.3 663.1 490.0 662.3 491.1 C 662.3 491.1 662.3 491.1 662.3 491.1 Z M 672.7 490.7 C 672.5 491.0 674.0 491.0 674.0 491.3 C 672.4 491.1 668.6 491.4 669.8 491.2 C 671.1 491.1 670.7 490.7 672.7 490.7 C 672.7 490.7 672.7 490.7 672.7 490.7 Z M 526.8 397.1 C 528.9 396.8 530.1 397.5 528.9 397.7 C 529.4 397.3 526.1 397.6 526.8 397.1 C 526.8 397.1 526.8 397.1 526.8 397.1 Z M 607.4 390.9 C 605.4 390.6 604.2 390.8 604.0 390.5 C 606.1 390.3 605.8 390.6 607.5 390.6 C 607.7 390.4 608.8 390.3 608.9 390.5 C 608.0 390.5 608.1 390.7 607.4 390.9 C 607.4 390.9 607.4 390.9 607.4 390.9 Z M 697.4 471.5 C 697.6 471.4 697.6 470.5 697.9 471.0 C 697.7 473.2 698.0 476.0 698.3 478.1 C 698.1 478.0 697.9 477.8 697.8 477.8 C 697.9 474.2 697.6 473.1 697.4 471.5 C 697.4 471.5 697.4 471.5 697.4 471.5 Z M 698.2 467.3 C 698.0 466.9 697.5 467.9 697.5 466.3 C 697.8 466.5 698.2 463.8 698.3 465.1 C 698.0 465.5 698.0 466.2 698.2 467.3 C 698.2 467.3 698.2 467.3 698.2 467.3 Z M 610.7 498.6 C 609.0 498.6 611.7 499.0 611.7 499.1 C 610.5 499.1 608.8 499.1 608.1 498.9 C 609.4 498.9 609.8 498.3 610.7 498.6 C 610.7 498.6 610.7 498.6 610.7 498.6 Z M 635.4 497.7 C 638.9 497.6 637.9 498.3 641.5 498.5 C 640.3 498.7 637.1 498.7 636.4 499.0 C 636.4 498.8 635.5 498.7 635.3 498.5 C 636.6 498.5 636.9 498.6 638.2 498.6 C 637.4 498.2 637.5 498.4 637.7 498.0 C 636.7 498.0 636.2 498.0 635.7 498.1 C 635.8 497.9 634.4 497.8 635.4 497.7 C 635.4 497.7 635.4 497.7 635.4 497.7 Z M 610.6 497.6 C 609.3 497.7 607.7 497.1 609.0 497.2 C 609.3 497.4 610.1 497.1 610.5 497.3 C 608.5 497.4 612.2 497.5 611.5 497.8 C 610.3 497.8 610.0 498.0 610.4 498.2 C 609.6 498.2 608.4 498.2 608.3 498.1 C 608.8 498.1 609.6 498.1 609.5 498.0 C 609.1 498.0 608.7 497.9 608.7 497.8 C 610.0 497.8 610.4 497.7 610.6 497.6 C 610.6 497.6 610.6 497.6 610.6 497.6 Z M 620.2 497.6 C 618.3 497.5 617.9 497.2 617.0 496.9 C 619.6 497.0 620.4 497.6 622.5 497.8 C 620.3 497.7 618.6 498.2 617.7 498.0 C 618.6 497.8 620.3 497.8 620.2 497.6 C 620.2 497.6 620.2 497.6 620.2 497.6 Z M 418.0 465.7 C 418.2 464.1 418.5 462.9 418.6 461.1 C 418.2 460.4 417.5 463.5 417.7 462.2 C 417.7 460.2 418.2 461.7 418.3 460.2 C 417.7 461.5 417.7 453.5 418.3 453.4 C 418.2 454.6 418.4 455.0 418.6 454.9 C 418.6 458.1 418.9 459.5 419.0 461.9 C 418.5 463.5 418.4 468.6 418.9 471.4 C 418.2 473.1 419.0 476.5 418.4 478.9 C 418.6 479.6 418.8 476.9 418.9 479.0 C 418.5 480.3 418.3 479.2 418.1 481.0 C 418.3 481.1 418.6 480.8 418.6 481.7 C 418.4 481.5 418.4 482.7 418.3 483.1 C 418.3 479.3 417.7 483.2 417.6 480.2 C 417.8 479.0 418.3 481.6 418.3 478.2 C 418.1 477.0 418.0 475.8 417.6 476.0 C 417.6 475.1 417.5 474.5 417.5 473.9 C 418.0 475.3 417.3 469.1 417.9 471.9 C 417.9 472.1 417.8 474.0 418.0 475.4 C 418.4 474.3 418.2 472.7 418.0 470.5 C 418.3 469.8 418.4 471.0 418.5 470.0 C 418.2 468.2 417.9 470.5 417.7 469.1 C 417.7 469.7 417.7 470.5 417.6 470.5 C 418.0 467.6 417.6 466.4 417.6 464.9 C 417.9 466.0 417.9 463.3 418.0 465.7 C 418.0 465.7 418.0 465.7 418.0 465.7 Z M 418.5 490.7 C 418.5 491.4 418.5 492.0 418.5 492.8 C 418.1 492.9 418.1 490.2 417.7 492.0 C 417.8 489.0 418.2 492.2 418.5 490.7 C 418.5 490.7 418.5 490.7 418.5 490.7 Z M 419.9 477.2 C 420.4 476.3 419.4 476.6 419.4 475.7 C 419.5 477.4 419.6 478.9 419.2 479.0 C 419.3 477.1 419.3 476.3 419.2 474.2 C 419.7 476.3 419.6 472.2 420.1 471.7 C 420.2 473.3 420.4 474.5 420.3 476.5 C 420.2 476.2 420.0 479.1 419.9 477.2 C 419.9 477.2 419.9 477.2 419.9 477.2 Z M 420.5 482.7 C 420.2 483.0 420.4 486.0 419.9 485.3 C 420.0 483.5 419.9 482.9 419.6 483.2 C 419.5 481.9 419.7 481.7 419.7 480.5 C 420.2 479.9 420.1 482.0 420.3 482.7 C 420.3 482.3 420.4 481.9 420.5 482.7 C 420.5 482.7 420.5 482.7 420.5 482.7 Z M 458.3 491.8 C 458.9 492.3 456.2 492.1 455.6 492.0 C 456.5 492.4 456.1 492.5 454.4 492.6 C 455.0 492.1 452.5 492.3 450.9 491.7 C 450.6 492.1 452.6 492.2 450.3 492.4 C 448.5 492.2 447.0 492.4 444.3 492.5 C 443.6 492.1 444.8 492.0 445.5 491.8 C 443.7 491.9 444.2 491.6 442.8 491.6 C 443.1 491.8 442.0 491.9 441.5 491.7 C 443.9 491.6 438.3 491.2 440.8 491.1 C 441.0 491.2 441.5 491.1 442.1 491.1 C 441.5 491.6 444.8 491.4 445.5 491.7 C 446.7 490.8 450.2 491.1 454.2 491.4 C 454.5 491.7 453.3 491.8 454.3 491.8 C 454.4 491.7 455.7 491.7 456.3 491.6 C 456.3 491.8 456.8 491.9 457.7 492.0 C 457.7 491.9 457.8 491.8 458.3 491.8 C 458.3 491.8 458.3 491.8 458.3 491.8 Z M 463.1 398.8 C 463.5 399.5 467.5 399.1 468.5 398.9 C 468.8 399.6 461.2 399.4 463.1 398.8 C 463.1 398.8 463.1 398.8 463.1 398.8 Z M 437.6 399.3 C 438.7 399.3 437.6 398.9 438.5 398.9 C 438.9 399.3 440.8 398.5 441.2 398.9 C 440.3 399.3 439.4 399.2 437.6 399.3 C 437.6 399.3 437.6 399.3 437.6 399.3 Z M 422.7 408.3 C 422.6 406.3 422.5 409.2 422.3 408.6 C 422.3 407.0 422.3 405.2 422.7 405.7 C 422.5 407.0 423.0 408.5 422.7 408.3 C 422.7 408.3 422.7 408.3 422.7 408.3 Z M 449.8 399.7 C 451.5 399.8 449.3 400.4 448.8 400.1 C 450.5 400.0 447.4 399.7 446.0 399.8 C 445.6 399.3 446.4 399.5 445.3 399.0 C 447.5 398.8 446.1 399.5 447.6 399.4 C 448.5 399.2 447.4 399.3 447.2 398.9 C 447.9 398.9 448.5 398.9 449.2 398.9 C 449.3 399.1 449.5 399.3 449.7 399.6 C 448.9 399.6 448.2 399.6 448.6 399.8 C 449.3 399.8 449.3 399.7 449.8 399.7 C 449.8 399.7 449.8 399.7 449.8 399.7 Z M 423.4 491.1 C 422.3 491.1 423.3 491.3 424.1 491.3 C 424.2 491.1 424.9 490.4 426.1 490.8 C 423.5 491.1 426.9 491.4 425.4 491.6 C 424.8 491.2 423.3 491.7 422.0 491.6 C 421.5 491.3 422.8 490.7 423.4 491.1 C 423.4 491.1 423.4 491.1 423.4 491.1 Z M 428.1 491.3 C 428.0 491.2 427.5 491.2 426.7 491.2 C 427.6 490.9 426.4 490.8 427.4 490.7 C 427.3 490.9 430.8 490.9 428.7 491.1 C 426.9 490.8 429.3 491.3 430.1 491.3 C 429.2 491.3 427.6 491.8 427.4 491.5 C 427.8 491.4 428.2 491.4 428.1 491.3 C 428.1 491.3 428.1 491.3 428.1 491.3 Z M 471.5 490.8 C 471.7 490.5 470.5 490.5 470.1 490.4 C 473.5 490.5 476.5 490.5 478.2 490.5 C 476.6 490.6 476.7 490.9 477.6 491.1 C 475.9 490.9 475.6 491.1 474.9 490.9 C 476.3 490.6 473.6 490.8 471.5 490.8 C 471.5 490.8 471.5 490.8 471.5 490.8 Z M 471.5 490.8 " fill="#FF456F"></path><image xlink:href="../../E5FA70CD-84BA-4537-8508-BE95F83C3449/assets/5CA6C980502C0525BDA70E40A0090CF0.png" width="200.00" height="200.00" transform="matrix(0.65, 0.00, -0.00, -0.65, 19.0, 146.2)"></image></g></svg>