<?xml version="1.0" encoding="UTF-8" standalone="no"?><svg xmlns="http://www.w3.org/2000/svg" xmlns:xlink="http://www.w3.org/1999/xlink" clip-rule="evenodd" stroke-miterlimit="10" viewBox="0 0 229 636"><desc>SVG generated by Keynote</desc><defs></defs><g transform="matrix(1.00, 0.00, -0.00, -1.00, 0.0, 636.0)"><path d="M 227.5 82.5 C 227.5 81.4 227.4 80.0 227.4 77.9 C 227.3 78.9 227.2 79.7 227.0 79.7 C 227.1 81.5 227.2 83.8 227.2 87.5 C 227.3 87.3 227.3 85.5 227.3 84.2 C 227.3 82.7 227.4 82.9 227.5 82.5 C 227.5 82.5 227.5 82.5 227.5 82.5 Z M 2.5 144.6 C 2.6 141.5 2.2 144.6 2.2 145.8 C 2.2 146.0 2.3 146.2 2.3 147.4 C 2.0 147.4 1.9 144.7 1.8 142.5 C 1.9 134.1 2.6 140.9 2.5 144.6 C 2.5 144.6 2.5 144.6 2.5 144.6 Z M 2.8 557.1 C 2.8 563.9 3.2 556.7 3.3 555.7 C 3.4 558.8 4.1 556.4 4.1 560.4 C 3.9 561.1 3.8 562.6 3.6 563.4 C 3.6 561.6 3.6 559.0 3.5 558.7 C 3.4 561.1 3.5 564.4 3.3 564.8 C 3.2 559.6 2.9 563.9 2.7 564.8 C 2.7 560.1 2.4 558.6 2.8 557.1 C 2.8 557.1 2.8 557.1 2.8 557.1 Z M 225.6 576.1 C 225.6 578.0 225.6 579.7 225.3 579.0 C 225.3 576.9 225.4 575.6 225.5 574.4 C 225.3 574.0 225.1 574.5 225.1 572.6 C 225.4 570.8 225.9 572.2 226.1 573.5 C 225.8 573.3 225.9 580.4 225.6 576.1 C 225.6 576.1 225.6 576.1 225.6 576.1 Z M 224.9 401.0 C 225.1 395.2 224.4 400.5 224.6 394.7 C 224.9 395.0 225.3 394.2 225.3 398.1 C 225.1 398.3 225.1 400.6 224.9 401.0 C 224.9 401.0 224.9 401.0 224.9 401.0 Z M 5.8 384.4 C 5.5 384.3 5.6 388.5 5.3 387.3 C 5.3 385.2 5.3 383.3 5.3 381.2 C 5.6 380.9 5.8 381.7 5.8 384.4 C 5.8 384.4 5.8 384.4 5.8 384.4 Z M 6.6 603.5 C 6.1 610.5 6.7 618.0 6.4 615.7 C 5.9 618.4 5.2 610.8 5.7 611.1 C 6.1 610.3 6.5 598.0 6.6 603.5 C 6.6 603.5 6.6 603.5 6.6 603.5 Z M 9.3 184.9 C 9.0 191.9 10.1 191.2 9.6 195.6 C 9.5 193.9 9.4 193.1 9.3 192.4 C 9.3 193.6 9.3 195.4 9.2 195.3 C 9.1 191.9 9.0 187.6 9.3 184.9 C 9.3 184.9 9.3 184.9 9.3 184.9 Z M 226.6 188.7 C 226.7 189.9 226.7 190.5 226.9 190.3 C 226.8 195.2 227.1 194.9 226.9 198.0 C 226.4 198.4 226.5 194.2 226.6 190.4 C 226.6 190.3 226.5 189.1 226.6 188.7 C 226.6 188.7 226.6 188.7 226.6 188.7 Z M 225.2 325.4 C 225.5 325.3 225.6 322.4 225.7 326.9 C 225.3 332.0 224.9 327.5 224.7 322.2 C 224.5 322.2 224.3 322.2 224.2 322.2 C 224.2 324.3 224.1 325.7 224.0 326.9 C 224.6 327.8 223.5 331.2 223.9 339.2 C 223.6 335.4 223.2 339.4 223.4 334.5 C 223.0 335.8 223.1 332.4 222.7 333.0 C 222.9 335.1 222.9 340.3 223.4 339.1 C 223.4 341.8 223.4 343.9 223.3 345.3 C 222.8 347.2 223.2 340.3 222.7 342.2 C 222.7 343.7 222.6 344.0 222.6 345.2 C 222.8 345.5 223.0 345.0 223.0 346.8 C 222.8 351.7 222.5 345.8 222.5 352.8 C 222.7 353.3 222.8 351.2 223.0 351.4 C 223.2 354.6 222.9 354.4 223.1 357.5 C 222.9 358.1 222.8 355.3 222.7 357.5 C 223.3 359.5 222.4 363.9 222.9 368.3 C 223.7 365.4 222.7 369.0 223.5 373.0 C 223.3 373.9 222.8 371.0 222.7 374.4 C 223.8 373.4 223.5 387.1 224.3 376.2 C 224.3 382.0 225.1 384.2 225.2 379.5 C 225.0 389.7 225.5 386.5 225.6 390.5 C 225.6 394.4 225.4 388.3 225.1 390.3 C 225.1 386.1 224.9 387.1 225.1 384.2 C 224.9 384.1 224.8 383.3 224.7 382.4 C 225.0 386.7 224.4 391.5 223.9 388.4 C 224.0 386.3 224.4 388.4 224.4 385.5 C 223.8 386.4 224.5 382.5 224.2 382.3 C 223.6 384.2 223.2 378.1 223.1 383.7 C 223.3 383.8 223.6 383.8 223.8 383.9 C 223.8 385.4 223.8 386.9 223.8 388.4 C 223.4 389.6 223.1 388.5 223.0 389.9 C 223.0 392.4 223.1 393.8 223.2 394.6 C 223.3 391.4 223.7 387.8 223.8 393.0 C 223.0 390.9 223.6 400.3 223.1 396.0 C 222.9 401.6 223.5 404.7 223.0 405.1 C 223.0 408.1 223.4 406.3 223.4 409.9 C 223.0 415.5 223.6 414.6 223.3 422.1 C 223.9 423.2 223.1 422.8 223.1 425.2 C 223.3 425.3 223.6 425.4 223.8 425.4 C 223.4 428.0 223.2 434.1 223.6 440.7 C 223.5 442.3 223.2 441.0 223.3 445.2 C 223.8 449.9 223.2 455.0 223.8 460.7 C 223.5 461.0 223.5 464.8 223.6 466.8 C 223.5 467.6 223.0 464.7 223.0 468.1 C 223.4 470.6 223.5 466.6 223.6 471.4 C 223.2 470.8 224.0 476.1 223.5 476.0 C 223.4 474.5 223.3 472.7 223.1 471.2 C 223.1 473.3 222.9 472.6 222.9 474.2 C 223.4 474.2 222.9 477.7 222.9 478.8 C 223.1 478.8 223.3 479.3 223.4 480.6 C 223.4 483.3 223.4 485.4 223.5 486.8 C 223.3 490.2 223.2 484.7 223.1 488.1 C 224.1 490.3 223.0 493.1 223.6 500.7 C 223.3 502.1 223.2 505.0 223.1 509.7 C 223.4 510.3 223.3 505.2 223.5 505.2 C 223.4 511.9 223.8 504.2 223.8 508.6 C 223.6 518.0 223.6 524.3 223.2 534.3 C 223.5 534.4 223.8 542.5 223.6 542.2 C 223.6 540.1 223.1 546.2 223.1 549.5 C 223.8 550.9 224.4 556.4 224.7 557.0 C 224.4 557.9 224.3 557.6 223.8 557.8 C 223.6 563.3 224.2 566.8 223.5 569.9 C 223.8 569.8 223.9 572.6 224.0 574.9 C 223.7 574.1 223.5 572.5 223.2 571.1 C 223.3 574.2 223.1 574.5 223.1 577.2 C 224.2 580.8 222.8 584.1 223.9 587.1 C 223.9 591.5 223.5 590.4 223.5 594.4 C 223.7 594.5 223.9 595.1 224.0 596.4 C 223.9 593.6 223.6 591.4 224.0 590.2 C 224.1 596.4 225.1 579.9 225.6 590.1 C 225.4 590.2 225.1 589.1 225.1 591.1 C 225.2 596.9 225.6 593.9 225.6 591.6 C 225.8 595.5 225.6 599.3 226.1 596.7 C 226.2 605.5 225.9 599.7 225.7 602.6 C 225.9 611.6 226.0 621.8 226.0 632.7 C 217.7 632.7 208.9 632.6 199.7 632.4 C 199.4 632.9 187.7 632.5 183.8 632.2 C 178.2 632.6 172.1 632.7 169.9 632.2 C 169.1 632.6 162.4 631.9 162.1 632.3 C 164.6 632.2 166.4 632.5 163.9 632.5 C 155.1 632.3 142.1 632.2 137.3 632.5 C 134.0 632.0 128.4 632.2 124.8 632.4 C 124.0 632.2 127.0 632.1 124.6 632.0 C 123.9 632.3 116.0 632.6 113.9 632.3 C 116.4 632.3 118.8 631.8 115.2 631.8 C 115.3 632.0 111.0 631.9 112.2 632.3 C 107.0 632.1 104.1 632.4 99.7 632.2 C 103.2 632.1 105.3 631.9 105.7 631.6 C 102.8 631.8 100.6 632.0 98.0 631.6 C 98.9 632.2 93.9 631.9 89.0 632.2 C 87.5 632.0 86.4 631.7 82.5 631.8 C 80.6 632.1 88.8 632.2 84.3 632.3 C 84.2 632.1 79.9 631.9 81.1 632.3 C 75.7 632.1 73.0 632.4 68.6 632.0 C 74.1 632.2 69.8 631.6 68.4 631.5 C 67.2 631.5 65.4 631.5 65.5 631.6 C 65.5 631.8 68.2 631.8 68.6 631.9 C 64.7 631.7 63.8 632.4 62.4 632.0 C 64.0 632.0 64.3 631.8 62.3 631.8 C 62.0 632.4 50.8 631.9 54.6 631.6 C 54.6 631.8 58.8 631.8 59.2 631.6 C 58.0 631.4 51.7 631.7 53.0 631.2 C 56.6 631.2 56.3 631.5 60.7 631.4 C 61.1 631.1 63.6 631.0 65.2 630.8 C 58.3 630.9 56.9 631.3 55.9 630.8 C 52.9 630.9 54.8 631.4 49.8 631.2 C 42.7 631.1 48.5 630.7 46.7 630.6 C 40.4 630.8 42.4 631.4 45.2 631.8 C 40.2 631.7 38.7 632.0 32.8 631.9 C 33.1 631.7 33.8 631.5 35.9 631.4 C 36.1 631.5 41.1 631.8 40.6 631.5 C 40.1 630.9 36.0 630.7 29.6 630.6 C 31.2 631.2 31.3 630.8 25.0 630.9 C 26.1 631.4 22.0 630.7 21.8 631.1 C 22.1 631.3 24.4 631.3 26.5 631.2 C 26.4 631.5 25.6 631.7 23.5 631.8 C 22.2 631.6 21.1 631.8 17.3 631.6 C 17.0 631.3 19.7 631.2 20.3 631.0 C 18.2 631.0 17.7 631.2 15.6 631.2 C 13.8 630.9 13.9 630.4 14.1 629.8 C 16.5 629.7 20.2 629.7 17.2 629.4 C 26.2 629.4 16.8 630.0 20.3 630.1 C 24.0 629.5 21.9 630.3 27.9 630.2 C 29.7 630.2 30.3 630.1 31.1 629.9 C 30.6 629.9 27.1 629.4 31.0 629.4 C 31.9 629.7 34.1 629.9 37.2 629.9 C 37.2 629.7 30.7 629.5 37.2 629.6 C 40.3 629.6 37.5 630.1 41.9 630.1 C 41.9 629.9 43.1 629.9 43.4 629.8 C 37.1 629.9 44.5 629.5 40.3 629.3 C 45.6 629.1 41.2 629.7 44.8 629.7 C 44.9 629.4 50.9 629.9 50.9 629.4 C 48.7 629.6 44.2 629.6 44.7 629.2 C 48.8 629.2 67.4 628.9 60.3 629.5 C 62.9 629.3 76.3 628.8 75.4 629.0 C 71.3 629.0 71.6 629.3 71.1 629.5 C 78.5 629.1 82.6 629.4 90.7 628.9 C 81.6 628.8 88.2 628.2 82.8 627.9 C 80.4 627.9 77.1 627.8 76.5 628.0 C 77.7 628.4 81.4 628.2 82.8 628.0 C 82.9 628.3 83.0 628.7 83.2 629.0 C 73.0 628.6 67.8 629.0 63.1 628.9 C 67.1 628.8 55.3 628.4 59.9 628.2 C 61.9 628.5 66.7 628.5 70.8 628.6 C 70.7 628.5 70.7 628.4 70.7 628.2 C 72.5 628.2 75.0 628.3 75.1 628.1 C 69.6 628.2 66.5 627.8 62.9 628.1 C 62.9 628.0 62.8 627.9 62.8 627.9 C 61.9 627.9 61.0 627.8 61.3 627.7 C 63.1 627.7 65.6 627.8 65.9 627.6 C 61.8 627.5 61.0 627.1 56.5 627.1 C 57.5 626.6 51.4 626.1 57.9 625.9 C 59.0 626.3 62.6 626.5 62.5 626.7 C 64.5 626.9 68.3 626.7 70.2 626.6 C 68.2 626.3 64.3 626.2 63.9 625.8 C 67.0 625.7 69.4 625.6 71.5 625.9 C 65.0 626.1 75.1 626.3 77.8 626.7 C 77.0 626.5 75.4 626.4 74.5 626.2 C 79.5 626.2 82.0 626.5 82.1 625.9 C 88.0 625.7 86.9 626.2 91.2 626.2 C 88.2 625.6 93.9 625.9 90.9 625.4 C 97.9 625.3 93.1 625.9 95.6 625.9 C 97.8 625.9 98.0 625.7 100.1 625.6 C 103.5 625.9 109.9 625.9 111.1 626.4 C 113.9 626.4 114.4 626.6 117.2 626.6 C 117.9 626.4 118.7 626.3 119.9 626.2 C 120.5 626.3 122.6 626.5 123.1 626.3 C 115.0 625.7 117.2 625.7 108.9 625.3 C 108.4 625.4 107.2 625.5 109.1 625.6 C 103.5 625.7 101.8 625.5 96.9 625.5 C 96.2 625.2 95.0 624.6 90.7 625.0 C 91.6 624.6 90.3 624.5 92.1 624.4 C 94.5 624.6 97.8 624.7 101.2 624.9 C 101.4 624.7 100.8 624.5 102.5 624.5 C 104.2 624.7 106.7 624.8 108.7 624.6 C 108.8 624.8 108.1 624.9 107.3 625.0 C 114.8 625.1 111.9 624.6 117.8 624.9 C 116.8 624.6 113.1 624.6 116.1 624.4 C 121.1 624.2 122.4 624.5 125.1 624.6 C 125.5 624.5 125.1 624.4 126.6 624.4 C 130.4 624.6 119.0 625.1 125.7 625.7 C 125.9 625.2 132.3 625.4 133.4 625.7 C 131.5 626.0 127.5 625.5 127.4 625.8 C 138.9 625.8 128.0 626.4 140.0 626.6 C 139.9 626.4 139.7 626.2 139.6 626.0 C 135.0 626.1 134.6 625.8 134.7 625.4 C 130.5 625.4 128.6 624.9 125.4 625.1 C 126.3 624.4 128.8 625.1 133.1 625.1 C 132.7 624.7 128.8 624.7 128.1 624.4 C 137.9 624.7 139.6 624.1 149.2 624.7 C 146.7 624.3 154.3 624.7 153.5 624.4 C 145.5 624.4 148.1 623.3 146.7 623.2 C 141.5 623.2 144.3 624.0 141.4 624.2 C 139.7 623.8 140.3 623.6 140.7 623.1 C 145.4 623.2 144.7 623.1 148.2 622.9 C 151.4 623.3 154.6 624.0 150.5 624.2 C 151.3 624.2 157.3 623.9 158.0 624.2 C 152.1 624.2 158.7 624.4 155.3 624.6 C 160.0 624.9 167.7 624.4 173.4 624.7 C 172.8 624.5 174.8 624.5 174.5 624.2 C 169.2 624.6 167.5 623.7 162.1 623.7 C 164.4 623.7 162.9 623.4 161.8 623.3 C 167.2 623.5 169.9 623.2 174.0 623.6 C 173.9 623.4 173.8 623.3 173.6 623.2 C 180.3 623.5 179.3 623.4 184.0 623.1 C 186.1 623.3 184.1 624.0 183.7 624.4 C 185.9 624.2 194.6 624.3 189.2 623.8 C 194.3 623.8 193.5 624.4 198.6 624.4 C 198.4 624.0 193.6 624.0 194.8 623.4 C 199.6 623.4 197.3 623.9 200.9 623.6 C 201.4 623.9 201.8 624.2 205.9 624.2 C 202.7 623.9 206.2 624.1 207.2 623.8 C 205.2 623.8 203.5 623.7 202.4 623.6 C 209.8 623.7 211.3 623.7 216.9 623.6 C 216.9 623.5 216.9 623.3 216.9 623.2 C 216.9 623.4 216.9 623.5 217.0 623.7 C 215.9 624.0 218.8 624.2 215.1 624.4 C 215.9 624.3 216.7 624.3 217.6 624.3 C 217.6 621.1 217.8 618.1 217.7 616.3 C 217.5 618.5 217.5 622.3 217.3 623.6 C 217.1 611.4 216.7 604.7 217.3 594.9 C 217.3 596.7 217.2 599.2 217.4 599.6 C 217.4 598.5 217.4 596.5 217.5 596.6 C 217.5 600.3 217.5 603.8 217.7 605.9 C 217.5 608.9 217.3 603.7 217.3 607.0 C 217.5 607.8 217.3 613.9 217.8 612.0 C 217.4 605.9 217.8 600.9 218.4 598.9 C 217.7 593.0 217.8 598.0 217.0 591.6 C 217.2 592.0 217.3 590.7 217.4 589.0 C 216.8 590.3 217.1 583.5 217.1 582.8 C 217.4 585.6 217.7 595.9 218.2 591.2 C 217.2 592.6 218.4 579.8 217.7 581.8 C 217.6 575.2 218.1 578.0 217.7 574.1 C 217.8 574.1 218.0 574.7 218.0 573.0 C 218.0 571.2 217.9 570.5 217.8 569.7 C 217.6 578.4 217.0 575.4 217.0 581.2 C 217.0 580.2 217.0 579.3 216.9 579.5 C 216.8 579.4 216.7 579.2 216.7 577.9 C 217.3 577.9 216.6 573.1 217.0 572.1 C 217.0 573.9 217.0 575.6 217.3 575.3 C 217.2 567.7 217.7 569.4 217.9 559.3 C 217.7 562.2 217.6 558.0 217.5 554.4 C 217.6 549.5 218.2 551.9 218.2 545.8 C 217.2 545.6 218.3 539.5 217.7 531.9 C 218.2 533.0 218.4 523.7 217.9 521.5 C 218.1 521.3 218.0 517.9 218.0 515.5 C 218.3 515.1 218.4 517.9 218.4 515.8 C 218.4 513.7 217.9 515.3 217.9 512.5 C 218.0 509.3 218.5 510.2 218.4 505.3 C 218.1 504.9 218.2 507.6 217.9 505.0 C 218.1 500.8 218.1 497.0 217.7 500.3 C 217.6 493.9 218.3 497.4 218.3 491.5 C 218.1 493.2 218.0 492.9 217.9 489.8 C 218.2 487.8 218.4 487.7 218.6 487.1 C 218.2 485.1 218.2 485.7 218.3 480.9 C 218.1 480.8 217.9 480.7 217.8 480.6 C 217.8 478.4 217.7 475.1 217.9 474.7 C 217.8 478.7 218.2 477.7 218.3 479.4 C 218.4 475.3 218.8 467.6 218.3 473.4 C 218.1 467.5 218.7 470.6 218.6 466.0 C 218.1 468.6 218.5 466.1 218.4 461.4 C 217.9 461.5 218.4 458.2 218.3 455.3 C 218.0 455.6 217.8 454.7 217.8 452.1 C 218.0 452.3 218.1 450.6 218.0 447.6 C 217.9 447.5 217.6 453.8 217.7 447.5 C 217.8 444.6 218.3 444.8 218.3 440.1 C 218.7 439.2 218.5 444.4 219.0 443.4 C 218.6 439.4 218.9 438.4 219.0 432.8 C 218.2 434.7 218.0 421.2 217.7 427.7 C 217.7 425.8 217.1 423.0 217.5 421.7 C 217.6 423.8 218.0 420.2 218.0 420.4 C 218.0 417.7 218.2 411.6 217.9 411.4 C 218.0 417.1 217.6 417.0 217.4 418.7 C 217.2 410.2 217.3 402.9 217.8 403.7 C 217.7 403.6 217.6 402.4 217.5 402.1 C 217.6 405.1 216.9 406.8 216.9 403.4 C 217.3 404.3 217.4 401.8 217.5 399.2 C 217.1 398.9 217.7 388.0 217.1 390.0 C 217.5 394.5 216.8 397.8 216.6 394.4 C 217.0 391.7 217.2 385.7 217.5 387.1 C 217.4 385.5 217.3 384.0 217.1 382.5 C 216.8 381.1 216.8 384.5 216.5 383.8 C 216.5 381.6 216.4 378.2 216.6 377.8 C 216.7 383.8 216.8 374.8 217.1 381.0 C 217.1 377.2 217.3 376.4 217.4 373.4 C 217.3 373.4 217.2 372.2 217.1 371.9 C 217.4 374.6 217.1 377.2 216.7 376.4 C 216.7 370.9 217.1 371.9 217.1 367.4 C 216.8 366.0 216.3 359.8 216.6 356.7 C 216.6 362.7 216.8 356.3 217.0 359.8 C 216.7 365.2 217.2 366.8 217.5 368.9 C 217.7 366.6 217.9 362.0 217.4 361.4 C 217.3 364.3 217.6 364.3 217.7 366.0 C 217.4 365.8 217.2 364.9 217.1 362.8 C 217.4 360.3 217.1 354.7 217.7 358.5 C 217.4 354.6 217.8 350.4 217.5 346.4 C 217.5 350.8 217.3 354.0 217.0 355.3 C 216.8 351.6 217.3 348.0 217.0 347.8 C 216.7 348.2 216.8 354.1 216.5 355.2 C 216.1 350.5 217.2 343.4 216.4 349.2 C 216.4 346.6 216.4 342.9 216.6 341.8 C 216.7 345.0 217.2 341.5 217.3 340.2 C 217.2 337.4 217.2 335.2 217.0 334.2 C 217.2 338.4 216.6 341.6 216.6 338.7 C 216.8 338.0 216.6 337.1 216.5 335.7 C 216.7 335.5 216.6 330.6 216.7 329.7 C 216.6 330.0 216.5 332.2 216.4 332.7 C 216.2 329.9 215.7 325.8 216.2 323.7 C 216.2 325.5 216.2 328.0 216.4 328.1 C 216.9 320.4 217.4 317.9 217.7 308.6 C 217.7 309.8 217.8 310.4 217.9 310.1 C 218.0 304.2 218.2 300.3 218.4 301.1 C 218.4 297.4 218.1 295.5 217.9 293.6 C 217.7 297.4 218.1 298.7 217.8 301.1 C 217.7 299.6 217.0 304.1 216.7 305.7 C 217.1 312.1 216.5 312.6 216.7 319.2 C 216.3 317.3 216.6 324.0 216.2 322.1 C 216.8 316.0 216.4 310.1 216.6 301.2 C 216.9 302.3 217.2 303.3 217.4 299.6 C 217.6 293.9 217.0 296.7 217.1 292.0 C 217.5 290.1 217.5 292.9 217.7 290.5 C 217.5 288.9 217.5 284.5 217.9 283.0 C 217.9 289.2 218.2 281.8 218.4 285.9 C 218.4 283.8 218.5 282.6 218.6 281.3 C 218.1 287.4 218.0 275.3 217.7 279.9 C 217.4 271.6 218.6 279.2 218.6 272.3 C 218.3 275.7 218.1 271.3 218.2 266.3 C 218.6 264.9 218.7 259.7 218.8 255.6 C 218.5 257.8 218.5 259.5 218.3 255.7 C 218.1 257.8 218.1 261.3 218.3 263.2 C 218.1 263.2 218.0 264.0 217.9 264.9 C 217.8 259.9 217.6 262.0 217.5 260.4 C 217.7 258.9 217.7 255.2 217.9 254.3 C 217.8 254.3 217.8 253.0 217.7 252.9 C 217.6 259.2 217.1 251.9 217.0 255.9 C 217.0 258.7 217.4 256.9 217.4 260.4 C 216.9 263.9 216.9 257.7 216.5 256.0 C 216.2 259.0 216.7 262.4 216.2 263.6 C 215.8 259.8 216.1 253.6 216.2 248.6 C 215.7 249.0 216.4 240.2 215.7 239.7 C 215.9 238.9 216.0 238.0 216.1 236.6 C 215.7 235.3 216.2 233.5 216.2 232.1 C 216.0 232.0 215.8 232.5 215.7 233.7 C 215.9 227.5 215.9 226.0 215.7 218.8 C 215.9 217.5 216.2 216.1 216.5 215.4 C 216.5 217.2 216.6 218.8 216.7 219.9 C 216.8 209.9 215.7 216.7 216.4 209.5 C 216.1 209.9 215.7 214.8 215.6 211.2 C 216.1 204.8 215.6 196.0 216.7 195.9 C 217.1 190.1 216.4 186.6 216.9 183.8 C 216.8 182.0 216.7 181.5 216.6 180.8 C 216.4 182.7 216.2 185.0 216.0 187.1 C 216.1 190.4 215.8 192.0 216.4 188.5 C 216.4 193.5 216.1 194.9 216.0 197.6 C 215.7 190.9 216.0 184.4 215.4 184.4 C 215.7 182.0 215.9 180.1 216.2 178.1 C 215.9 177.5 215.8 169.8 216.2 169.0 C 216.1 174.3 216.6 179.5 216.9 174.7 C 216.6 161.9 217.3 154.3 216.9 143.1 C 217.1 142.7 217.3 143.4 217.4 141.4 C 217.2 141.5 217.0 141.2 216.9 140.0 C 216.9 136.5 217.1 134.4 217.0 129.6 C 217.4 129.6 217.7 128.7 217.8 126.0 C 217.4 124.8 216.6 120.4 216.7 117.5 C 216.8 120.5 217.2 116.3 217.3 114.3 C 216.7 116.4 217.7 100.4 217.1 105.2 C 217.1 99.1 217.3 96.3 217.5 96.0 C 217.4 93.8 217.3 92.3 217.3 90.2 C 217.8 88.4 217.4 78.0 217.7 76.3 C 217.4 80.2 218.1 80.4 218.0 77.5 C 217.7 75.7 217.4 66.2 217.5 64.4 C 217.7 64.9 218.1 65.3 218.2 69.9 C 218.2 61.9 217.6 62.4 217.3 60.1 C 217.8 59.9 217.3 56.6 217.3 55.5 C 217.5 52.8 217.4 55.5 217.8 55.1 C 217.8 52.2 218.1 51.0 218.0 47.3 C 217.6 48.7 217.8 44.4 217.9 42.9 C 217.6 42.5 217.4 40.6 217.4 37.3 C 218.1 41.2 218.1 17.5 217.7 23.5 C 217.3 19.2 218.1 18.4 218.0 12.6 C 218.0 12.3 217.9 11.7 217.9 11.2 C 216.7 11.3 215.8 11.3 217.7 11.5 C 217.7 11.5 217.7 11.5 217.7 11.5 C 217.7 11.5 217.7 11.5 217.7 11.5 C 213.0 11.6 216.2 11.0 210.4 11.2 C 212.4 11.7 204.9 11.1 205.6 11.7 C 203.8 11.0 198.4 12.0 194.2 11.3 C 194.1 11.5 192.8 11.5 192.4 11.6 C 191.5 11.8 197.9 11.9 193.7 12.0 C 188.9 11.7 191.7 11.6 191.1 11.3 C 177.5 11.5 161.2 11.3 146.8 11.2 C 148.5 11.4 148.3 11.5 145.3 11.6 C 141.3 10.8 124.4 11.2 121.7 11.5 C 120.2 11.0 111.5 11.5 109.9 11.2 C 111.7 11.3 115.0 10.8 111.4 10.8 C 109.1 11.3 106.0 11.0 102.6 11.3 C 100.8 10.8 90.4 11.4 95.0 10.6 C 92.9 10.6 91.8 10.5 90.6 10.4 C 90.5 10.9 88.4 10.8 92.2 11.1 C 82.4 10.7 80.2 11.2 72.7 10.8 C 71.5 11.1 77.4 11.3 72.9 11.3 C 72.9 11.3 72.9 11.2 72.8 11.1 C 71.2 11.1 70.7 11.3 69.9 11.1 C 70.1 10.9 72.6 10.9 72.6 10.4 C 69.0 10.6 66.3 10.0 65.2 10.4 C 70.3 10.5 67.1 11.2 63.9 10.8 C 66.5 10.6 52.2 10.8 47.7 11.1 C 45.1 10.6 52.7 11.0 52.0 10.7 C 43.3 10.8 43.9 10.6 43.2 11.1 C 38.5 11.0 36.6 10.7 31.3 10.9 C 28.0 10.8 32.9 10.6 29.5 10.6 C 27.6 10.7 26.9 10.9 23.9 10.9 C 20.5 10.6 15.8 10.6 10.7 10.7 C 10.8 19.0 11.0 28.5 10.2 33.4 C 10.5 30.0 10.8 35.1 10.7 40.0 C 10.6 40.1 10.4 39.3 10.3 41.1 C 10.6 41.0 10.8 42.8 10.7 46.0 C 10.6 46.2 10.4 45.4 10.3 47.1 C 10.8 48.9 10.4 52.5 10.6 55.1 C 10.2 55.7 10.4 49.3 10.1 48.5 C 9.8 56.1 10.3 57.9 10.1 63.7 C 10.1 60.5 9.7 65.5 9.6 66.3 C 10.0 65.4 10.2 70.3 10.5 67.1 C 10.5 69.3 10.5 72.8 10.4 73.1 C 10.3 71.9 10.3 70.0 10.2 69.9 C 10.3 72.8 9.8 75.9 10.2 77.6 C 10.3 75.7 10.4 74.6 10.6 74.8 C 10.8 75.7 10.9 76.7 11.0 78.3 C 10.0 73.1 10.5 86.1 10.7 87.1 C 10.1 87.7 10.1 88.4 9.8 87.8 C 9.8 93.1 10.2 92.7 10.4 95.9 C 9.9 94.6 9.5 93.3 9.3 98.0 C 9.8 97.4 9.8 103.3 10.4 102.0 C 10.5 114.7 9.9 116.9 10.0 124.5 C 10.1 124.8 10.2 122.4 10.2 124.7 C 10.1 128.2 9.9 131.2 9.7 133.4 C 10.0 135.5 10.1 132.9 10.2 135.2 C 9.8 140.6 9.4 138.9 9.1 143.5 C 9.4 149.9 9.1 147.5 9.6 151.5 C 9.6 149.9 9.8 148.0 9.8 150.2 C 9.5 153.6 9.0 154.8 8.9 155.6 C 8.9 152.9 9.0 150.9 9.1 149.6 C 8.8 148.5 8.8 144.8 8.5 147.7 C 8.6 143.9 8.7 139.7 8.7 134.0 C 8.2 135.6 8.6 129.0 8.1 130.6 C 8.2 136.9 7.9 138.2 8.0 144.2 C 8.5 143.2 8.2 149.3 8.1 150.4 C 8.4 150.6 8.3 154.7 8.7 153.9 C 8.8 158.6 8.4 158.2 8.5 162.9 C 8.4 163.1 8.2 162.3 8.1 164.1 C 8.6 166.0 8.0 167.1 8.0 168.6 C 8.4 167.9 8.2 174.4 8.5 175.1 C 8.5 173.3 8.5 170.8 8.7 170.6 C 8.6 178.0 9.0 172.3 9.3 171.1 C 9.1 171.2 8.6 168.1 8.9 167.8 C 9.2 174.3 9.6 159.5 9.4 165.1 C 9.3 169.7 9.7 169.7 9.6 174.4 C 8.9 179.5 8.5 172.5 7.9 177.7 C 8.2 181.4 8.1 183.7 8.5 184.3 C 8.4 184.9 8.2 185.7 8.1 187.0 C 8.4 188.6 8.6 182.8 8.7 187.4 C 8.6 189.7 8.0 186.6 8.1 191.6 C 8.5 193.9 8.5 185.9 8.7 190.5 C 8.0 194.8 8.8 189.6 8.9 195.1 C 8.8 195.5 8.8 196.4 8.8 198.2 C 8.6 198.3 8.3 197.4 8.3 199.3 C 8.9 200.8 8.0 201.2 8.1 205.3 C 8.6 207.9 8.4 201.3 8.8 202.8 C 8.3 207.0 8.9 210.1 8.8 211.8 C 8.4 207.9 8.5 217.4 8.1 217.5 C 8.6 216.8 8.4 218.7 8.8 224.2 C 8.0 224.0 8.6 230.3 8.0 231.2 C 8.2 232.1 8.3 233.7 8.5 234.5 C 8.5 232.8 8.6 231.0 8.8 231.7 C 8.8 233.2 8.8 234.7 8.8 236.3 C 8.5 238.7 7.6 231.6 7.7 241.8 C 8.3 240.9 8.3 245.3 8.5 248.2 C 9.0 248.2 8.5 244.2 8.8 243.9 C 9.1 247.5 8.7 250.9 8.5 252.8 C 8.7 258.9 8.5 265.7 8.7 274.3 C 8.3 276.1 8.3 267.0 8.1 272.5 C 8.1 274.9 8.5 273.9 8.4 277.1 C 6.7 273.2 8.1 299.9 7.4 301.1 C 7.7 302.4 7.5 309.6 8.0 309.1 C 7.6 304.0 8.2 300.8 8.4 298.6 C 8.2 293.8 8.0 302.5 7.9 298.3 C 8.1 298.0 7.9 291.6 8.3 292.4 C 8.3 299.0 8.7 289.2 9.1 294.3 C 9.0 300.3 9.4 312.6 8.9 309.5 C 9.1 309.6 9.1 306.9 8.9 306.6 C 8.7 313.3 9.0 317.5 9.3 320.4 C 9.0 323.4 9.6 335.8 9.3 332.6 C 9.0 333.5 9.4 325.4 9.1 326.4 C 8.9 338.9 9.2 339.4 8.9 347.6 C 9.4 345.1 9.6 356.6 9.4 355.5 C 9.0 355.4 8.7 357.7 9.2 363.0 C 8.8 362.1 8.6 364.7 8.5 367.3 C 8.9 368.7 8.9 365.2 9.2 366.0 C 9.2 368.5 9.2 371.2 9.2 373.7 C 9.0 373.8 8.8 373.2 8.8 375.0 C 9.0 377.9 9.4 388.3 9.2 387.3 C 8.7 382.8 8.7 394.2 8.4 387.0 C 8.4 389.0 8.2 389.1 8.3 391.6 C 8.4 391.7 8.6 391.7 8.8 391.8 C 8.8 397.5 8.2 394.4 8.1 399.1 C 8.3 399.7 8.4 401.7 8.5 402.4 C 8.5 400.5 8.4 400.3 8.4 397.7 C 9.0 400.8 8.8 392.8 9.2 393.4 C 9.2 398.8 8.9 398.7 8.7 400.8 C 8.9 407.6 8.8 404.4 8.7 411.5 C 8.8 411.6 8.8 409.7 9.1 410.2 C 8.9 418.7 8.1 417.6 8.4 423.6 C 8.4 422.3 8.1 416.8 8.0 420.5 C 8.2 424.6 8.6 425.9 8.7 431.3 C 8.5 431.5 8.3 431.0 8.3 432.8 C 8.4 435.1 8.8 435.3 8.9 437.5 C 8.7 437.8 8.8 440.9 8.9 442.1 C 8.6 443.9 8.5 441.2 8.4 443.5 C 8.4 448.0 9.3 450.7 9.2 454.3 C 8.7 454.0 8.8 458.2 8.9 462.0 C 8.4 462.4 8.5 470.3 8.4 475.5 C 8.8 474.4 8.7 479.7 9.1 478.7 C 9.0 476.1 9.1 474.8 9.3 474.3 C 9.4 480.2 8.5 481.8 9.2 486.4 C 8.9 488.6 8.7 491.3 8.5 495.3 C 8.8 495.8 8.9 488.3 9.1 492.5 C 8.9 492.7 9.0 494.1 9.1 495.4 C 8.6 494.8 8.5 498.0 8.3 499.9 C 8.6 503.5 8.0 510.8 8.5 507.5 C 8.6 513.2 7.9 509.3 7.9 513.6 C 8.4 511.5 8.5 519.0 8.8 515.3 C 8.9 521.1 8.2 520.5 8.0 518.1 C 7.9 523.5 8.3 524.7 8.0 527.4 C 8.4 524.9 8.6 533.1 8.4 528.9 C 8.0 527.5 8.2 533.8 8.0 534.9 C 8.3 533.1 8.3 535.9 8.5 532.1 C 8.6 536.1 8.7 542.0 8.3 545.7 C 8.5 550.8 8.5 555.5 8.1 553.3 C 8.2 558.0 8.2 556.2 8.1 561.0 C 8.3 561.0 8.3 559.7 8.4 559.4 C 8.4 565.9 8.1 564.6 8.1 573.2 C 7.6 572.1 7.7 577.6 7.4 579.2 C 7.4 575.7 7.5 572.8 7.6 570.0 C 7.4 569.4 7.3 572.2 7.2 570.0 C 7.4 569.7 7.4 568.4 7.5 567.0 C 7.1 572.5 6.8 559.8 7.2 563.9 C 7.1 563.9 7.1 564.2 7.1 565.4 C 7.5 564.4 7.4 564.3 7.8 565.4 C 7.6 562.6 8.1 560.4 7.8 559.3 C 7.6 559.4 7.6 562.1 7.5 562.4 C 7.2 555.4 8.0 560.4 7.9 554.9 C 7.4 553.6 7.3 556.4 7.1 557.8 C 7.1 552.7 7.1 548.4 7.4 547.1 C 7.2 542.4 7.0 547.3 6.8 544.0 C 7.0 542.4 7.3 542.6 7.4 539.5 C 7.2 536.0 7.0 541.4 7.0 537.9 C 7.2 534.2 7.5 540.5 7.6 534.9 C 7.0 536.1 7.7 529.8 7.4 530.2 C 7.4 533.5 6.8 533.4 7.2 531.8 C 7.8 524.5 6.3 519.0 7.2 511.9 C 7.1 511.9 7.1 510.7 7.0 510.3 C 6.7 515.8 6.7 524.0 6.1 525.4 C 6.2 529.9 6.6 529.4 6.7 530.1 C 6.2 535.3 6.1 534.8 5.5 531.6 C 5.4 522.8 5.8 519.1 5.9 513.3 C 5.6 510.1 5.8 513.6 5.5 514.7 C 6.0 496.7 4.8 510.2 4.9 503.8 C 5.1 504.0 5.2 502.7 5.3 500.9 C 5.1 500.9 5.2 498.2 5.0 497.7 C 5.0 498.9 4.9 499.5 4.8 499.2 C 4.6 494.6 5.0 496.5 5.3 496.3 C 5.2 499.7 5.3 502.0 5.5 502.5 C 5.3 497.9 5.7 494.6 5.3 491.6 C 5.8 487.6 6.4 494.1 6.8 492.0 C 7.1 492.8 5.8 488.9 5.7 485.6 C 5.7 480.1 5.3 479.8 5.3 474.7 C 5.7 473.5 5.4 479.9 5.8 479.5 C 5.8 478.0 5.9 477.7 5.9 476.4 C 5.9 472.8 5.5 473.0 5.4 470.2 C 5.8 468.8 5.6 467.8 5.4 465.7 C 5.6 462.3 5.7 467.7 5.8 464.1 C 5.9 460.4 5.3 457.6 5.4 456.4 C 5.6 456.1 5.8 456.8 5.8 455.0 C 5.5 450.6 5.5 449.6 5.3 454.9 C 5.3 450.1 5.2 448.0 4.7 448.6 C 4.7 455.8 4.8 457.6 4.2 460.7 C 4.7 462.2 4.3 464.2 4.2 466.9 C 4.9 465.4 4.3 470.0 4.6 471.6 C 4.7 469.8 4.8 468.0 4.9 467.0 C 4.8 474.6 4.8 474.5 5.4 480.9 C 5.2 480.9 5.1 481.6 5.0 482.3 C 4.8 480.3 5.0 474.8 4.6 474.6 C 4.1 478.8 4.9 480.5 4.4 485.3 C 4.7 487.5 4.8 481.4 4.9 485.4 C 4.6 487.3 4.4 489.8 4.2 492.9 C 4.3 496.2 4.5 497.9 4.6 500.6 C 4.5 500.9 4.3 501.2 4.4 503.7 C 4.5 503.6 4.7 501.1 4.8 503.8 C 4.2 511.8 3.9 517.1 4.1 525.2 C 4.2 522.4 4.7 516.0 4.6 519.2 C 4.4 522.7 4.9 527.7 4.5 531.4 C 4.4 532.6 4.6 527.0 4.0 528.2 C 4.0 531.8 4.0 534.0 3.8 535.8 C 4.1 535.9 4.0 540.0 4.4 539.0 C 4.4 536.1 3.9 535.1 4.1 534.4 C 5.2 537.1 3.7 545.5 3.7 551.2 C 3.9 555.0 4.1 548.4 4.2 552.8 C 4.4 555.5 3.5 556.9 3.3 552.7 C 3.5 549.9 3.0 548.6 3.5 548.1 C 3.4 546.8 3.5 545.1 3.3 545.0 C 3.3 547.1 3.0 546.6 2.9 548.0 C 3.0 545.0 2.2 544.4 2.7 541.8 C 2.7 543.6 2.8 544.2 2.9 545.0 C 2.8 536.7 3.1 534.2 3.3 529.6 C 3.1 532.1 3.2 529.4 2.8 529.5 C 2.9 533.1 2.7 539.8 2.5 535.6 C 3.0 533.0 1.8 530.6 2.3 527.9 C 2.3 530.0 2.6 529.8 2.7 531.0 C 2.7 527.8 3.0 528.0 3.1 524.9 C 2.5 514.7 3.5 507.3 2.7 491.1 C 2.7 485.5 2.8 496.2 3.2 495.8 C 3.2 494.2 3.3 493.9 3.3 492.7 C 2.9 492.5 3.3 489.9 2.9 488.0 C 3.3 488.4 3.0 480.8 3.3 477.3 C 3.2 477.1 2.9 477.5 2.9 475.7 C 3.5 464.6 2.7 444.0 3.2 435.7 C 2.9 435.9 2.9 432.2 2.7 431.0 C 2.8 425.7 3.1 428.2 2.7 420.2 C 2.6 416.3 3.0 421.1 3.1 421.9 C 2.9 410.1 3.3 400.0 2.8 392.5 C 2.7 388.7 3.1 392.6 3.2 385.0 C 2.6 384.6 3.5 373.0 2.8 371.1 C 2.7 366.4 3.5 358.3 2.9 361.8 C 2.9 355.5 3.4 359.9 3.4 357.4 C 3.4 353.0 2.5 358.3 2.4 353.9 C 2.8 354.6 2.7 350.7 3.1 348.1 C 3.0 351.5 3.1 353.8 3.3 354.3 C 3.1 351.2 3.4 351.5 3.3 346.7 C 3.1 343.0 2.7 332.5 3.3 329.7 C 3.1 329.5 3.0 330.4 2.9 331.1 C 2.9 328.0 3.3 324.6 2.8 324.8 C 2.8 317.9 3.2 315.2 2.8 311.0 C 2.6 308.0 3.2 312.3 3.2 303.4 C 2.8 303.1 2.9 287.5 3.2 283.5 C 2.6 283.0 3.2 282.4 3.2 280.5 C 3.0 280.1 2.8 280.4 2.8 278.6 C 3.0 278.4 2.9 277.0 2.8 275.6 C 3.4 277.0 2.6 269.8 3.1 269.6 C 3.1 271.0 3.4 271.2 3.5 269.8 C 3.0 269.1 3.7 263.1 3.3 263.6 C 3.2 264.9 3.3 269.3 2.9 267.9 C 2.8 261.8 3.3 264.5 3.3 260.5 C 3.2 260.7 3.0 263.0 2.9 260.2 C 3.0 256.1 3.0 260.0 3.3 257.5 C 3.2 255.2 2.9 251.0 2.9 249.4 C 2.9 249.9 3.2 248.7 3.2 248.1 C 3.4 240.3 2.9 222.0 3.5 214.5 C 3.3 213.8 3.2 212.1 2.9 212.5 C 3.2 208.1 3.0 208.3 3.2 203.6 C 3.0 203.5 2.8 203.3 2.7 203.2 C 2.5 196.9 3.2 203.0 3.2 198.9 C 2.3 197.9 3.5 196.7 3.5 193.0 C 3.3 192.4 3.2 190.5 2.9 190.9 C 2.9 185.1 3.6 185.8 3.3 180.6 C 3.3 181.7 2.0 181.7 1.6 180.9 C 1.8 180.1 2.0 178.7 2.0 176.5 C 2.4 179.5 3.9 179.1 3.5 171.4 C 3.5 175.5 3.4 176.9 3.1 175.7 C 3.0 170.2 3.3 168.4 3.3 163.6 C 2.9 162.6 2.9 166.0 2.4 164.5 C 2.4 163.2 2.3 162.6 2.2 162.8 C 2.2 157.7 2.5 157.8 2.3 152.0 C 2.5 152.2 2.6 153.5 2.4 155.3 C 2.7 155.2 3.0 155.5 3.1 158.8 C 2.8 159.1 2.4 156.8 2.5 161.5 C 2.8 161.7 3.0 161.9 3.2 162.0 C 3.2 158.6 3.5 150.7 3.3 149.8 C 3.2 151.4 3.1 154.0 2.7 152.3 C 2.8 146.6 3.2 145.3 3.5 140.6 C 3.3 132.2 3.4 117.4 2.8 118.7 C 3.0 113.7 3.0 115.5 3.1 111.1 C 2.6 112.1 2.9 105.8 2.5 106.0 C 2.7 111.7 2.6 109.9 2.7 115.4 C 2.4 115.1 2.2 114.0 2.2 111.8 C 2.4 111.7 2.5 109.5 2.4 105.9 C 2.3 106.4 1.9 109.4 1.9 105.5 C 2.0 105.3 2.0 104.4 2.0 102.6 C 2.2 102.8 2.5 102.9 2.7 103.1 C 2.8 105.3 2.9 107.9 3.1 109.6 C 3.1 108.1 3.2 107.9 3.2 106.5 C 3.0 105.5 3.2 99.4 2.9 98.7 C 3.0 101.3 2.8 102.7 2.7 100.0 C 2.7 99.6 2.9 95.5 2.7 93.8 C 2.5 99.0 2.4 96.9 2.0 99.4 C 1.9 93.2 2.4 94.5 2.3 87.3 C 2.6 87.4 2.9 87.7 3.1 89.6 C 3.8 85.8 3.1 74.7 3.2 71.3 C 3.1 73.7 3.7 76.8 3.7 73.3 C 3.5 73.1 3.6 70.5 3.5 69.9 C 2.7 68.0 2.3 70.8 1.9 73.2 C 1.9 70.3 1.7 69.6 1.8 66.9 C 2.0 66.2 2.6 69.6 2.7 66.2 C 2.0 64.9 2.6 59.7 2.2 58.1 C 2.2 60.5 2.0 62.0 1.9 59.3 C 2.2 60.1 2.0 55.0 2.3 55.0 C 2.5 59.3 2.8 60.6 2.8 63.2 C 2.8 60.0 3.2 65.9 3.2 60.5 C 2.9 57.9 2.5 56.3 2.6 50.6 C 2.6 48.6 3.1 50.9 3.1 48.1 C 2.7 48.5 2.6 42.3 2.9 46.3 C 2.9 44.2 3.0 43.1 3.1 42.0 C 2.7 44.6 2.2 29.5 1.9 31.5 C 2.5 32.1 2.9 31.8 3.1 31.2 C 2.6 27.9 3.0 24.9 2.9 17.1 C 2.4 16.9 2.9 15.8 2.8 12.5 C 2.6 11.6 2.5 14.4 2.4 12.1 C 2.6 8.5 2.6 8.4 2.8 7.8 C 2.8 5.7 2.8 4.1 2.9 2.8 C 3.3 2.8 3.7 2.9 4.1 2.9 C 4.1 2.7 3.4 2.6 2.6 2.6 C 2.6 2.7 2.6 2.8 2.6 2.9 C 2.6 2.8 2.6 2.6 2.6 2.5 C 13.5 2.9 18.6 2.4 27.8 2.5 C 23.7 2.3 23.5 2.9 26.5 2.9 C 28.4 2.8 30.0 2.8 31.0 2.6 C 28.5 2.3 29.6 2.5 34.2 2.5 C 38.1 2.3 32.2 1.9 35.3 1.8 C 38.9 2.1 37.0 2.3 39.0 2.4 C 40.5 2.4 42.2 2.4 43.8 2.4 C 40.7 2.1 43.9 2.0 46.6 1.8 C 44.9 2.3 46.2 2.4 51.7 2.2 C 52.5 2.5 49.6 2.6 51.9 2.6 C 53.2 2.7 57.3 2.1 61.4 2.5 C 60.2 2.5 59.6 2.6 60.0 2.8 C 64.0 2.5 67.6 3.0 71.3 3.2 C 67.5 2.8 69.4 2.5 67.7 2.3 C 71.6 2.6 76.0 2.2 79.1 2.6 C 73.6 2.5 79.2 3.4 82.6 3.4 C 83.3 3.0 77.5 3.1 79.1 2.6 C 80.9 2.3 85.3 2.9 87.0 2.5 C 86.7 2.3 84.6 2.6 83.9 2.4 C 86.8 2.4 82.9 2.2 85.4 2.1 C 87.0 2.6 88.6 2.0 90.2 2.0 C 92.3 2.1 96.6 2.7 98.3 2.4 C 98.2 2.2 95.4 2.3 95.1 2.1 C 103.9 1.9 106.6 2.5 114.4 2.0 C 115.3 2.2 116.9 2.3 119.2 2.4 C 119.1 2.2 120.5 2.0 122.4 2.0 C 125.8 2.2 129.3 2.4 133.6 2.5 C 132.8 2.8 130.7 3.0 136.6 3.0 C 137.0 2.9 134.5 2.8 136.7 2.8 C 136.7 2.8 138.1 2.9 138.4 2.8 C 138.4 2.7 138.4 2.6 138.5 2.5 C 136.7 2.5 135.2 2.5 133.6 2.5 C 133.8 2.3 133.4 2.1 132.1 2.0 C 139.2 1.8 138.6 2.6 143.2 2.3 C 143.8 2.9 145.4 3.0 141.4 3.4 C 145.4 3.3 148.3 3.1 149.5 2.8 C 144.6 2.8 146.3 2.3 145.0 2.1 C 148.1 2.2 148.2 1.9 149.8 1.9 C 153.3 2.2 145.8 2.6 152.8 2.6 C 147.6 2.2 157.3 2.2 160.9 2.4 C 160.3 2.2 159.1 2.2 161.0 2.0 C 170.7 1.7 169.3 3.1 175.3 2.4 C 174.7 2.6 177.3 2.6 178.3 2.8 C 173.6 2.9 172.3 3.0 170.2 3.0 C 170.5 3.2 171.8 3.2 173.2 3.3 C 173.3 3.1 174.6 3.0 176.5 3.2 C 178.1 2.9 177.9 2.3 181.9 2.0 C 182.1 2.2 181.5 2.4 183.4 2.4 C 185.3 2.1 181.6 3.1 189.5 2.9 C 188.2 2.8 187.5 2.6 188.3 2.3 C 192.2 2.1 191.3 2.3 196.4 2.1 C 197.8 2.8 192.4 2.9 190.7 3.3 C 194.2 3.2 197.4 2.8 200.6 3.0 C 198.1 2.8 201.0 2.5 204.2 2.4 C 206.9 2.5 203.6 3.0 206.9 3.0 C 209.7 2.9 211.4 2.6 209.1 2.4 C 214.9 2.5 213.9 2.1 218.8 2.1 C 218.8 2.4 217.3 2.4 215.6 2.3 C 215.8 2.4 214.9 2.6 216.8 2.7 C 219.2 2.4 223.2 2.3 226.9 2.2 C 227.0 3.9 227.0 5.4 227.1 6.6 C 226.4 14.1 227.3 21.3 227.0 28.5 C 226.6 26.0 226.9 37.7 226.5 41.4 C 226.6 43.4 227.4 49.2 227.1 47.0 C 226.5 48.1 226.8 52.1 226.6 55.4 C 226.7 55.3 226.9 55.1 227.0 55.0 C 227.1 62.0 226.7 63.8 226.3 66.3 C 226.6 74.6 226.0 84.2 226.5 94.2 C 226.0 97.1 226.1 99.3 225.8 105.5 C 226.2 105.1 226.2 110.0 226.2 114.5 C 226.6 113.2 226.5 117.5 226.7 117.3 C 226.8 113.2 227.2 114.5 227.4 112.2 C 227.0 117.9 227.8 120.2 227.4 124.7 C 227.2 119.5 226.7 118.1 226.1 117.8 C 226.2 124.0 226.0 127.5 225.7 128.9 C 226.0 129.2 226.2 128.3 226.3 126.8 C 226.3 128.9 226.3 131.1 226.3 133.0 C 226.1 133.8 226.0 131.0 225.9 133.3 C 226.1 134.7 226.2 136.3 226.3 137.7 C 225.9 139.8 226.0 135.5 225.8 135.0 C 225.6 143.4 226.5 139.3 226.6 143.8 C 226.3 145.1 225.9 145.1 225.8 148.9 C 226.1 150.3 226.4 150.5 226.5 154.7 C 226.4 157.5 225.9 154.9 225.8 158.1 C 226.0 158.5 225.9 159.9 225.8 161.3 C 226.0 161.0 226.2 162.3 226.2 164.1 C 226.0 164.6 226.1 167.6 226.2 168.8 C 226.0 169.2 225.5 174.2 225.8 175.2 C 226.0 175.1 225.9 172.4 226.1 172.0 C 226.0 175.5 226.1 177.9 226.2 179.7 C 225.3 181.1 226.0 186.6 225.6 193.8 C 225.9 198.1 226.2 192.7 226.5 198.2 C 226.2 201.6 226.1 197.6 225.7 198.5 C 225.7 199.4 225.4 204.6 225.7 204.7 C 225.9 204.6 225.8 201.9 226.0 201.5 C 226.3 205.5 225.8 205.5 225.7 207.8 C 226.0 207.4 226.1 210.1 226.3 210.6 C 226.6 221.7 225.9 221.8 225.6 226.4 C 225.7 226.4 225.7 229.1 225.8 229.4 C 225.7 226.2 226.0 221.9 226.1 226.3 C 225.9 225.6 226.1 232.0 226.2 232.4 C 226.4 231.6 226.3 227.6 226.7 229.1 C 226.9 235.0 226.1 232.8 226.5 237.1 C 226.2 237.6 226.2 235.0 226.1 234.0 C 226.1 235.8 226.1 238.4 225.9 238.7 C 225.8 236.5 225.5 236.5 225.3 235.7 C 225.6 238.6 225.3 244.1 225.8 240.2 C 225.7 246.5 226.0 252.3 226.3 248.0 C 226.4 253.0 225.9 250.2 226.2 254.2 C 225.8 253.7 225.5 252.5 225.2 255.9 C 225.4 256.5 225.5 259.2 225.8 258.8 C 225.8 266.2 225.4 268.4 225.0 271.5 C 225.7 268.7 225.2 272.4 225.6 275.9 C 225.4 278.2 224.9 276.2 225.0 282.2 C 225.6 275.6 225.2 289.7 225.8 286.8 C 225.5 294.5 225.5 294.3 225.4 302.3 C 225.1 301.6 225.0 299.6 224.9 296.2 C 225.3 298.6 225.3 289.4 225.0 290.0 C 224.9 290.0 224.9 290.0 224.8 290.0 C 224.8 295.9 224.7 299.8 224.5 302.4 C 224.8 303.6 225.0 306.3 225.4 305.4 C 224.9 310.9 225.6 316.8 225.2 319.4 C 225.1 317.4 225.1 315.6 224.9 316.2 C 225.0 318.5 225.1 321.2 225.4 320.9 C 225.5 316.4 225.6 315.5 225.3 313.2 C 225.6 315.2 225.8 308.7 225.9 313.2 C 225.3 313.0 226.2 322.4 225.8 319.4 C 225.6 314.4 225.5 325.0 225.2 325.4 C 225.2 325.4 225.2 325.4 225.2 325.4 Z M 3.1 526.4 C 3.3 531.1 3.6 525.4 3.6 522.0 C 3.5 523.0 3.3 523.4 3.1 523.4 C 3.1 524.8 3.2 526.1 3.1 526.4 C 3.1 526.4 3.1 526.4 3.1 526.4 Z M 8.8 478.6 C 8.3 477.0 8.6 484.6 8.5 487.7 C 8.6 486.9 8.8 485.9 8.8 487.8 C 9.1 484.6 8.4 483.3 8.8 478.6 C 8.8 478.6 8.8 478.6 8.8 478.6 Z M 7.4 308.7 C 7.4 310.0 7.6 313.0 7.4 313.2 C 7.4 315.0 7.6 314.7 7.7 315.0 C 7.8 318.6 7.2 313.8 7.4 319.5 C 8.1 321.9 8.3 310.4 7.4 308.7 C 7.4 308.7 7.4 308.7 7.4 308.7 Z M 219.4 267.6 C 219.1 269.8 218.8 264.7 218.4 266.3 C 218.7 274.6 219.2 268.0 219.1 279.7 C 219.2 279.0 219.3 278.1 219.5 278.2 C 219.3 272.8 219.0 272.4 219.7 273.6 C 219.7 271.1 218.9 270.6 219.4 267.6 C 219.4 267.6 219.4 267.6 219.4 267.6 Z M 217.7 376.6 C 217.8 375.7 217.9 375.0 218.0 375.0 C 217.9 371.4 217.8 372.2 217.9 367.5 C 217.3 368.0 217.4 372.5 217.7 376.6 C 217.7 376.6 217.7 376.6 217.7 376.6 Z M 178.4 623.4 C 177.4 623.4 176.3 623.4 175.3 623.4 C 176.2 623.7 173.9 624.2 178.9 624.1 C 179.1 624.0 178.2 624.0 177.3 624.0 C 178.1 623.8 180.6 623.8 179.9 623.6 C 178.6 623.6 178.4 623.5 178.4 623.4 C 178.4 623.4 178.4 623.4 178.4 623.4 Z M 59.7 627.1 C 65.5 626.7 50.8 625.7 59.7 627.1 C 59.7 627.1 59.7 627.1 59.7 627.1 C 59.7 627.1 59.7 627.1 59.7 627.1 Z M 73.3 631.6 C 73.5 631.8 74.9 631.7 74.8 631.6 C 80.0 631.8 75.1 631.9 78.0 632.2 C 82.0 631.8 75.7 631.5 80.9 631.2 C 79.8 631.0 76.4 631.6 73.3 631.6 C 73.3 631.6 73.3 631.6 73.3 631.6 Z M 168.7 2.6 C 164.3 2.7 162.9 3.1 161.9 3.5 C 164.9 3.6 167.3 3.6 168.2 3.8 C 173.8 3.6 164.6 3.5 163.7 3.4 C 164.5 3.1 168.5 3.0 168.7 2.6 C 168.7 2.6 168.7 2.6 168.7 2.6 Z M 154.3 2.8 C 152.4 2.9 149.5 3.1 149.3 3.4 C 152.1 3.3 152.3 3.5 152.4 3.7 C 155.0 3.4 152.0 3.2 154.3 2.8 C 154.3 2.8 154.3 2.8 154.3 2.8 Z M 181.2 3.1 C 179.2 3.2 179.8 3.5 179.4 3.7 C 182.3 3.6 182.7 3.8 185.6 3.8 C 185.7 3.7 185.8 3.5 185.9 3.4 C 183.4 3.4 183.2 3.5 181.0 3.5 C 181.1 3.4 181.1 3.3 181.2 3.1 C 181.2 3.1 181.2 3.1 181.2 3.1 Z M 139.8 3.3 C 131.5 3.2 127.7 3.9 122.2 4.4 C 128.2 4.4 133.7 3.6 138.0 3.8 C 143.3 3.7 136.4 3.5 136.6 3.4 C 136.7 3.3 138.6 3.3 139.8 3.3 C 139.8 3.3 139.8 3.3 139.8 3.3 Z M 66.6 3.3 C 64.7 3.0 61.9 3.6 57.1 3.5 C 58.1 3.6 58.9 3.7 59.0 3.9 C 65.8 4.1 61.5 3.3 66.6 3.3 C 66.6 3.3 66.6 3.3 66.6 3.3 Z M 27.0 3.5 C 22.9 3.6 29.4 3.8 27.4 4.1 C 32.1 4.1 37.0 4.1 36.6 3.7 C 31.8 3.9 30.7 3.9 27.0 3.5 C 27.0 3.5 27.0 3.5 27.0 3.5 Z M 3.6 8.6 C 3.8 13.3 4.1 7.1 4.5 9.5 C 4.5 7.7 4.3 7.9 4.1 7.6 C 4.2 6.6 4.2 5.6 4.2 4.2 C 4.6 4.2 5.0 4.2 5.4 4.2 C 5.1 4.1 4.6 4.1 4.1 4.1 C 4.0 6.0 3.9 9.4 3.6 8.6 C 3.6 8.6 3.6 8.6 3.6 8.6 Z M 225.3 60.9 C 225.2 58.3 224.8 59.4 224.9 53.6 C 224.9 62.4 223.7 58.5 223.9 69.8 C 224.1 67.8 224.2 68.9 224.0 69.7 C 224.3 73.8 224.3 65.4 224.7 69.1 C 224.6 66.0 224.2 68.2 224.2 65.1 C 224.6 61.4 224.8 59.3 225.3 60.9 C 225.3 60.9 225.3 60.9 225.3 60.9 Z M 223.5 70.1 C 223.4 73.3 224.2 72.7 223.8 74.5 C 223.8 76.0 223.9 75.6 224.0 75.8 C 224.0 74.6 224.1 74.4 224.2 74.2 C 224.0 71.6 223.9 69.0 223.5 70.1 C 223.5 70.1 223.5 70.1 223.5 70.1 Z M 223.5 40.8 C 223.7 45.9 223.4 47.7 223.8 49.9 C 223.2 52.2 224.0 53.2 223.5 56.3 C 223.6 61.3 223.8 57.4 224.0 55.8 C 224.2 60.7 223.6 57.4 223.8 62.2 C 224.2 62.7 224.1 56.5 224.6 56.9 C 224.6 53.1 224.3 53.4 224.2 51.1 C 224.2 49.3 224.4 49.7 224.6 49.2 C 224.4 45.0 224.7 45.0 224.7 41.5 C 224.3 40.9 224.2 42.5 224.3 46.5 C 224.1 42.4 223.8 40.9 224.0 35.9 C 224.4 39.0 224.6 23.4 223.9 25.2 C 223.8 29.5 224.2 27.9 224.3 29.5 C 223.9 35.2 224.0 38.5 223.5 40.8 C 223.5 40.8 223.5 40.8 223.5 40.8 Z M 182.1 4.4 C 180.8 4.4 179.6 4.3 177.4 4.3 C 177.5 4.0 180.2 4.1 177.7 3.8 C 174.4 3.7 173.5 3.9 171.3 3.9 C 172.5 4.1 179.3 4.5 175.5 4.7 C 176.5 4.9 178.8 5.0 181.7 5.0 C 178.6 4.4 186.4 4.9 189.6 5.0 C 189.7 4.4 195.0 5.1 197.6 4.7 C 196.0 4.4 189.3 4.7 186.6 4.7 C 188.0 4.6 179.3 3.8 182.1 4.4 C 182.1 4.4 182.1 4.4 182.1 4.4 Z M 223.8 82.2 C 223.9 83.0 224.0 86.4 224.0 83.6 C 224.2 84.9 223.9 87.9 224.6 86.2 C 224.6 87.9 224.6 89.4 224.6 90.9 C 224.4 90.5 224.4 86.2 224.0 88.1 C 224.3 91.1 224.0 90.1 224.0 94.3 C 223.7 92.3 223.6 94.7 223.1 93.4 C 223.3 94.5 223.3 98.2 223.6 97.7 C 223.6 103.6 223.1 96.4 223.1 104.2 C 222.8 104.3 222.8 98.7 223.0 96.7 C 222.6 95.9 222.9 106.4 222.7 112.1 C 223.1 106.8 223.4 110.6 223.8 112.9 C 223.6 114.8 223.5 113.1 223.3 116.4 C 223.2 119.0 223.5 120.2 223.3 121.1 C 223.3 123.1 223.6 122.0 223.8 122.2 C 223.7 125.9 223.2 123.5 223.3 128.7 C 223.8 124.5 223.9 128.9 223.8 136.0 C 223.9 135.5 224.0 133.2 224.2 132.8 C 224.4 133.7 223.9 138.0 223.8 139.2 C 223.9 141.7 224.1 139.9 224.0 137.5 C 224.2 139.0 224.3 140.4 224.4 142.0 C 224.5 134.3 224.4 122.2 224.9 107.6 C 224.6 110.6 224.5 107.5 224.7 103.2 C 224.9 102.4 224.9 104.2 224.9 106.1 C 225.4 100.8 224.4 101.9 224.7 94.0 C 224.8 89.7 225.0 98.4 225.2 93.6 C 225.1 90.8 224.8 89.1 225.2 87.4 C 225.0 82.6 224.5 81.6 224.6 73.9 C 224.3 78.4 223.4 81.1 223.6 85.4 C 223.8 85.3 223.7 83.4 223.8 82.2 C 223.8 82.2 223.8 82.2 223.8 82.2 Z M 152.4 3.9 C 149.6 3.9 148.1 4.1 147.6 3.9 C 142.8 4.1 148.1 4.4 149.0 4.4 C 151.1 4.4 152.0 4.2 152.4 3.9 C 152.4 3.9 152.4 3.9 152.4 3.9 Z M 4.0 326.9 C 3.9 332.7 4.4 331.7 4.4 336.4 C 4.5 332.7 4.8 332.0 4.8 325.8 C 4.4 325.3 4.1 325.2 4.0 326.9 C 4.0 326.9 4.0 326.9 4.0 326.9 Z M 168.0 4.2 C 172.0 3.8 163.1 4.7 163.3 4.3 C 158.7 4.6 167.3 4.5 163.0 5.0 C 166.9 4.7 169.1 5.1 173.9 4.8 C 173.9 4.5 170.1 4.5 166.3 4.6 C 165.9 4.4 167.9 4.3 168.0 4.2 C 168.0 4.2 168.0 4.2 168.0 4.2 Z M 5.0 267.6 C 4.7 263.4 4.3 270.9 4.1 273.2 C 4.6 273.7 4.6 272.4 5.0 267.6 C 5.0 267.6 5.0 267.6 5.0 267.6 Z M 4.6 367.2 C 5.1 369.6 4.6 360.3 5.1 362.8 C 5.2 360.1 5.0 359.7 4.9 359.5 C 5.0 358.2 4.9 353.8 5.3 355.2 C 5.6 354.6 5.2 362.0 5.7 359.8 C 5.7 362.4 5.5 362.5 5.5 364.4 C 5.6 359.9 5.1 361.9 5.0 367.3 C 5.4 367.5 5.3 364.9 5.5 367.6 C 5.4 367.8 5.1 370.5 4.5 370.1 C 4.5 374.9 5.2 372.3 5.2 378.0 C 5.4 377.7 5.4 374.1 5.5 372.0 C 6.0 372.8 5.2 377.9 5.8 376.8 C 5.5 377.8 5.3 381.1 4.9 381.0 C 4.7 376.6 4.5 373.7 4.2 370.0 C 4.0 373.2 4.9 378.4 4.5 383.9 C 4.8 383.4 4.8 386.8 5.2 385.8 C 5.1 390.2 4.6 387.9 4.5 387.0 C 4.2 388.1 4.4 396.9 4.8 396.4 C 4.4 396.9 4.5 407.4 5.0 407.1 C 4.7 410.1 5.3 415.1 4.8 416.3 C 4.9 418.1 4.9 421.7 4.9 425.6 C 5.3 426.8 5.1 420.0 5.4 419.6 C 5.8 418.6 5.3 426.8 5.7 425.9 C 5.8 425.9 5.8 425.9 5.9 425.9 C 5.8 422.8 5.7 419.6 5.5 416.6 C 5.6 414.3 5.7 417.2 5.9 416.7 C 5.7 414.5 5.2 404.5 5.9 404.4 C 5.7 397.8 5.9 393.2 5.5 390.4 C 5.6 386.5 5.8 392.7 6.1 390.6 C 5.5 378.9 6.2 365.1 5.5 355.3 C 5.6 353.2 5.9 354.1 6.1 353.9 C 5.8 340.6 5.2 351.6 5.4 341.4 C 5.8 341.5 5.7 346.4 6.1 346.3 C 6.1 342.7 5.8 341.7 5.9 337.0 C 5.8 336.9 5.6 336.8 5.4 336.7 C 5.4 332.8 5.9 334.6 6.1 332.5 C 5.9 327.6 5.7 328.6 6.2 326.5 C 6.0 321.8 5.9 317.2 6.1 312.5 C 5.8 309.3 5.2 314.9 5.2 319.9 C 5.0 319.5 5.0 318.1 4.9 318.1 C 5.2 312.6 6.0 312.1 6.1 303.4 C 5.6 309.8 5.9 299.9 6.2 298.9 C 6.2 295.3 5.6 297.7 5.7 300.1 C 5.5 299.6 5.7 297.4 5.8 297.2 C 5.2 296.4 4.9 304.6 5.2 313.6 C 4.5 309.2 5.2 319.9 4.4 314.8 C 4.5 322.1 5.0 316.2 4.9 324.2 C 5.1 323.6 5.2 322.1 5.4 321.5 C 5.5 327.6 4.9 325.6 5.0 332.1 C 5.4 333.3 5.3 329.0 5.5 329.2 C 5.2 336.0 5.0 338.2 4.6 342.6 C 4.9 343.6 5.3 342.6 5.0 350.4 C 4.9 350.4 4.8 350.4 4.8 350.3 C 4.8 346.6 4.1 345.4 4.1 354.7 C 4.4 355.4 4.4 352.5 4.4 350.2 C 4.6 351.3 4.7 354.3 4.8 358.0 C 4.7 359.7 4.5 361.7 4.5 359.3 C 4.1 360.7 4.8 362.3 4.6 367.2 C 4.6 367.2 4.6 367.2 4.6 367.2 Z M 74.8 4.2 C 73.6 4.3 72.4 4.3 70.1 4.3 C 69.2 4.7 73.4 4.6 73.5 4.8 C 76.9 4.9 74.1 4.4 74.8 4.2 C 74.8 4.2 74.8 4.2 74.8 4.2 Z M 119.0 4.4 C 118.7 4.1 116.4 4.6 112.7 4.4 C 111.6 4.8 115.9 4.7 115.9 5.0 C 120.2 5.1 114.9 4.3 119.0 4.4 C 119.0 4.4 119.0 4.4 119.0 4.4 Z M 100.1 4.4 C 98.4 4.1 98.4 4.6 101.8 4.6 C 101.5 4.8 100.8 5.0 98.7 5.1 C 101.0 5.5 102.5 4.8 106.4 5.0 C 105.0 4.7 102.9 4.6 100.1 4.4 C 100.1 4.4 100.1 4.4 100.1 4.4 Z M 93.8 4.4 C 91.6 4.7 89.9 4.4 86.0 4.6 C 87.0 4.9 95.7 4.7 97.1 4.6 C 98.4 4.3 89.0 4.3 93.8 4.4 C 93.8 4.4 93.8 4.4 93.8 4.4 Z M 5.5 206.7 C 5.5 208.2 5.7 208.0 5.8 208.3 C 5.2 212.7 5.3 219.4 4.8 213.8 C 5.1 218.9 4.6 223.2 4.5 227.4 C 4.5 230.9 4.9 229.4 4.9 232.2 C 4.8 236.7 4.7 229.7 4.5 230.5 C 4.2 231.2 4.9 233.0 4.6 238.2 C 5.3 237.2 4.6 242.8 5.3 241.6 C 5.0 244.4 5.3 245.5 5.3 249.4 C 5.5 249.1 5.5 245.3 5.8 245.1 C 6.2 243.4 5.4 242.7 5.5 246.4 C 5.1 244.1 5.7 239.0 5.4 237.2 C 5.8 235.5 5.5 242.2 5.9 240.5 C 5.9 239.1 5.8 237.8 5.7 237.4 C 5.7 235.2 5.9 233.8 6.1 233.0 C 6.1 234.3 6.0 234.4 5.9 234.4 C 5.9 237.2 6.6 232.0 6.6 237.9 C 6.7 237.0 6.7 234.4 7.0 235.0 C 7.2 233.4 5.9 234.4 6.3 228.5 C 5.9 224.2 5.9 237.8 5.1 233.9 C 5.3 225.5 5.8 230.6 5.9 223.8 C 5.7 223.7 5.6 223.7 5.5 221.9 C 5.4 222.1 5.4 224.7 5.4 226.4 C 5.3 226.0 5.3 223.5 5.3 221.7 C 5.2 222.0 5.2 223.3 5.0 223.2 C 5.2 217.5 6.0 218.6 6.2 224.0 C 6.5 224.0 6.5 216.9 6.3 214.8 C 6.0 216.5 6.1 214.5 5.7 215.9 C 5.7 217.4 5.8 217.2 5.9 217.7 C 5.8 220.3 5.7 217.7 5.5 217.4 C 5.6 214.3 5.9 214.7 5.7 211.4 C 5.8 212.2 5.9 213.0 6.1 213.1 C 6.1 211.6 6.1 210.0 6.1 208.5 C 5.8 208.5 5.8 206.5 5.5 206.7 C 5.5 206.7 5.5 206.7 5.5 206.7 Z M 4.5 285.7 C 4.4 290.8 4.8 288.2 4.8 285.9 C 4.9 287.0 5.0 288.8 5.0 290.6 C 5.2 289.2 5.1 287.8 5.2 283.1 C 5.7 287.6 6.4 283.6 6.3 276.0 C 5.6 273.3 5.5 279.7 5.0 276.9 C 5.3 282.6 5.0 285.4 4.5 285.7 C 4.5 285.7 4.5 285.7 4.5 285.7 Z M 148.9 4.6 C 145.8 4.6 142.6 4.6 139.6 4.6 C 139.8 5.0 149.5 5.2 148.9 4.6 C 148.9 4.6 148.9 4.6 148.9 4.6 Z M 223.9 148.3 C 223.9 149.6 223.8 149.8 223.8 150.0 C 223.9 154.4 224.1 147.7 224.4 149.6 C 224.4 148.0 224.4 146.5 224.4 145.0 C 224.3 144.8 224.0 151.5 223.9 146.8 C 223.8 147.1 223.8 148.3 223.9 148.3 C 223.9 148.3 223.9 148.3 223.9 148.3 Z M 78.2 4.7 C 75.4 4.9 77.4 5.4 70.5 5.2 C 73.0 5.5 74.5 5.4 78.4 5.4 C 78.4 5.1 78.3 4.9 78.2 4.7 C 78.2 4.7 78.2 4.7 78.2 4.7 Z M 4.9 183.2 C 4.5 186.8 5.4 188.5 5.1 195.6 C 5.7 192.3 5.0 187.6 4.9 183.2 C 4.9 183.2 4.9 183.2 4.9 183.2 Z M 5.5 438.1 C 5.7 435.9 5.7 438.7 5.9 435.0 C 5.8 432.9 5.6 432.0 5.5 428.8 C 5.1 433.0 5.5 440.9 4.9 443.8 C 5.0 447.6 5.4 447.4 5.7 448.7 C 5.6 446.9 5.7 446.0 5.8 445.8 C 5.2 443.4 6.2 440.9 5.5 438.1 C 5.5 438.1 5.5 438.1 5.5 438.1 Z M 5.1 266.2 C 5.4 263.5 5.5 268.3 5.8 269.6 C 5.7 271.6 5.5 270.7 5.3 270.9 C 5.3 273.6 5.5 274.5 5.8 274.2 C 5.9 269.2 5.9 262.9 6.4 266.9 C 6.6 262.1 6.0 264.5 5.9 262.0 C 6.2 259.5 6.3 262.1 6.7 262.5 C 6.6 261.2 6.2 257.2 6.7 257.8 C 6.2 250.2 5.5 253.1 4.9 258.3 C 5.3 263.4 5.5 257.9 5.1 266.2 C 5.1 266.2 5.1 266.2 5.1 266.2 Z M 5.5 71.8 C 5.4 72.1 5.4 74.8 5.3 74.7 C 5.6 78.3 6.1 81.5 6.4 84.8 C 6.8 84.5 6.5 80.0 6.2 81.6 C 6.5 80.5 6.6 77.6 6.8 76.0 C 6.9 73.0 6.1 71.2 6.7 71.3 C 6.5 68.1 6.5 69.9 6.6 65.1 C 6.2 72.5 6.4 62.2 5.9 61.4 C 5.9 65.8 5.9 69.7 6.3 69.5 C 6.2 72.6 6.0 76.1 5.7 76.5 C 5.5 76.1 5.6 73.6 5.5 71.8 C 5.5 71.8 5.5 71.8 5.5 71.8 Z M 6.7 91.1 C 6.6 89.9 6.6 88.6 6.6 86.6 C 6.5 87.6 6.3 87.9 6.1 87.6 C 6.1 91.5 6.3 92.6 5.9 93.6 C 5.9 97.1 6.5 93.2 6.3 98.6 C 6.5 98.2 6.4 95.5 6.6 95.7 C 6.3 95.0 6.2 92.7 6.7 91.1 C 6.7 91.1 6.7 91.1 6.7 91.1 Z M 5.9 137.9 C 6.0 142.0 6.2 136.0 6.4 138.4 C 6.4 137.3 6.5 129.7 6.8 131.1 C 7.4 129.2 6.3 120.6 7.0 121.9 C 6.9 120.1 6.7 120.5 6.6 120.1 C 6.7 125.6 6.4 125.3 6.3 121.4 C 6.1 121.8 6.2 125.2 6.2 127.4 C 6.4 127.9 6.5 125.8 6.7 126.3 C 6.5 130.8 6.2 134.0 5.9 137.9 C 5.9 137.9 5.9 137.9 5.9 137.9 Z M 223.1 316.1 C 223.2 312.5 223.1 310.2 223.0 308.4 C 222.8 309.5 223.0 311.3 223.0 313.1 C 222.8 313.5 222.8 311.9 222.7 309.9 C 222.4 311.7 222.7 318.2 223.1 316.1 C 223.1 316.1 223.1 316.1 223.1 316.1 Z M 223.1 285.4 C 223.2 281.9 223.1 279.7 222.9 279.3 C 222.6 280.6 223.0 280.2 223.0 282.4 C 222.9 283.8 222.8 284.7 222.6 285.4 C 222.6 286.9 222.8 286.6 222.9 287.1 C 222.9 288.2 222.8 288.4 222.7 288.6 C 223.1 292.7 222.7 283.6 223.1 285.4 C 223.1 285.4 223.1 285.4 223.1 285.4 Z M 6.2 112.2 C 6.4 111.0 6.6 110.1 6.6 106.4 C 6.3 106.9 6.3 103.9 6.3 101.5 C 6.0 104.9 6.2 106.8 6.2 112.2 C 6.2 112.2 6.2 112.2 6.2 112.2 Z M 222.9 93.6 C 223.2 88.7 222.5 89.7 222.9 82.9 C 222.7 83.0 222.6 83.1 222.5 83.2 C 222.8 86.9 222.6 88.9 222.9 93.6 C 222.9 93.6 222.9 93.6 222.9 93.6 Z M 124.9 629.6 C 125.2 629.3 120.5 629.4 120.0 629.2 C 119.5 629.8 116.5 628.7 107.6 628.9 C 107.4 628.8 108.0 628.7 109.2 628.6 C 101.8 628.5 111.5 629.1 112.5 629.4 C 118.2 629.3 119.2 629.6 124.9 629.6 C 124.9 629.6 124.9 629.6 124.9 629.6 Z M 6.7 392.5 C 6.6 392.2 6.6 393.0 6.6 393.9 C 6.6 395.0 6.6 396.0 6.6 396.9 C 7.1 396.8 7.3 391.8 7.9 395.9 C 7.9 394.6 7.8 394.4 7.8 394.4 C 6.6 386.5 8.5 381.4 7.8 371.5 C 7.7 370.0 7.6 370.2 7.5 369.9 C 7.5 371.1 7.4 371.2 7.4 371.3 C 7.9 372.7 7.3 381.2 7.1 377.3 C 6.9 377.5 7.0 378.8 7.1 378.8 C 7.1 379.8 7.1 380.9 7.1 381.9 C 7.3 381.4 7.3 379.3 7.5 378.9 C 7.3 383.8 7.2 389.7 6.7 386.4 C 6.7 389.4 7.0 390.5 7.1 392.6 C 7.1 394.6 6.7 394.4 6.7 392.5 C 6.7 392.5 6.7 392.5 6.7 392.5 Z M 6.8 432.2 C 6.7 436.9 7.2 435.3 7.1 440.0 C 7.4 437.2 6.9 433.3 7.2 429.3 C 7.1 429.9 7.0 432.0 6.8 432.2 C 6.8 432.2 6.8 432.2 6.8 432.2 Z M 7.4 343.9 C 7.8 345.0 7.9 340.8 7.9 336.4 C 7.4 335.3 7.4 339.3 7.4 343.9 C 7.4 343.9 7.4 343.9 7.4 343.9 Z M 7.4 363.7 C 7.5 368.2 7.5 358.1 7.9 360.8 C 7.9 358.7 7.9 356.5 8.0 356.4 C 7.9 354.7 7.7 354.6 7.7 351.7 C 7.5 351.7 7.7 356.7 7.4 356.1 C 7.6 359.6 7.6 360.2 7.4 363.7 C 7.4 363.7 7.4 363.7 7.4 363.7 Z M 7.4 366.7 C 7.5 369.7 8.1 366.3 8.1 362.5 C 7.9 363.8 7.6 364.5 7.4 366.7 C 7.4 366.7 7.4 366.7 7.4 366.7 Z M 7.5 9.5 C 7.5 11.6 7.9 10.3 7.9 12.8 C 8.1 13.0 8.1 3.9 8.1 11.6 C 8.4 10.5 8.3 9.4 8.2 8.2 C 9.3 8.1 10.4 7.9 12.2 8.0 C 11.1 7.8 10.1 7.7 12.0 7.7 C 12.4 7.5 9.7 7.6 7.6 7.6 C 7.6 9.0 7.6 10.0 7.5 9.5 C 7.5 9.5 7.5 9.5 7.5 9.5 Z M 7.5 18.5 C 7.5 20.4 7.6 19.6 7.6 18.7 C 7.8 19.1 7.7 21.6 7.7 23.4 C 7.6 23.4 8.3 20.7 8.7 21.2 C 8.4 13.2 7.9 18.7 7.5 18.5 C 7.5 18.5 7.5 18.5 7.5 18.5 Z M 7.7 26.4 C 7.4 31.1 7.5 38.2 7.9 41.8 C 8.4 38.8 8.3 29.3 7.7 26.4 C 7.7 26.4 7.7 26.4 7.7 26.4 Z M 39.5 7.8 C 30.0 7.3 12.6 8.0 29.2 8.3 C 28.4 8.1 38.9 7.9 44.3 8.1 C 44.3 7.9 49.9 7.6 50.2 7.8 C 54.1 7.5 37.2 7.5 39.5 7.8 C 39.5 7.8 39.5 7.8 39.5 7.8 Z M 8.7 48.7 C 8.5 46.0 7.8 48.6 8.0 45.0 C 8.0 42.7 7.8 45.4 7.6 44.6 C 7.6 49.4 8.1 59.4 7.6 59.9 C 7.8 62.4 8.0 63.4 8.0 67.9 C 8.2 68.2 7.6 51.3 8.4 48.4 C 8.6 48.9 8.6 54.9 8.7 48.7 C 8.7 48.7 8.7 48.7 8.7 48.7 Z M 220.5 95.3 C 220.9 95.5 220.6 89.3 221.0 90.3 C 220.6 87.3 220.9 83.8 220.5 80.2 C 220.6 78.9 221.2 78.9 221.3 73.5 C 220.9 73.6 221.0 76.2 220.8 73.9 C 220.7 69.0 221.2 70.0 221.0 64.5 C 220.4 65.9 220.9 52.7 220.3 54.4 C 220.3 57.3 220.6 56.9 220.5 61.9 C 220.5 63.6 220.3 63.0 220.3 65.1 C 219.9 63.9 220.5 60.9 220.1 59.1 C 219.9 59.8 219.9 63.5 219.6 64.1 C 219.7 66.3 219.8 63.4 220.0 63.8 C 220.1 69.7 219.1 64.1 219.2 70.5 C 219.6 68.9 219.6 68.9 220.0 69.9 C 219.8 72.6 220.1 80.2 219.6 76.3 C 219.3 76.9 219.7 81.4 220.0 80.6 C 220.0 83.1 219.9 83.5 219.7 83.7 C 219.9 90.1 220.2 90.8 220.7 89.1 C 221.0 90.2 220.4 91.6 220.5 95.3 C 220.5 95.3 220.5 95.3 220.5 95.3 Z M 88.4 8.0 C 91.9 7.7 84.4 8.1 80.8 8.0 C 85.1 8.0 83.9 8.6 88.5 8.6 C 86.9 8.4 87.1 8.3 90.1 8.3 C 90.8 8.2 84.1 8.0 88.4 8.0 C 88.4 8.0 88.4 8.0 88.4 8.0 Z M 8.0 77.1 C 7.7 78.5 8.0 86.6 7.9 90.7 C 8.5 90.4 7.6 79.6 8.3 78.8 C 8.2 76.4 8.0 79.9 8.0 77.1 C 8.0 77.1 8.0 77.1 8.0 77.1 Z M 221.0 36.9 C 221.0 35.3 220.9 36.3 220.9 37.1 C 220.7 36.8 220.8 33.4 220.8 31.1 C 220.5 34.7 220.4 30.7 220.0 31.8 C 220.0 30.0 220.0 29.2 219.9 29.0 C 220.6 28.1 219.5 19.7 219.4 29.4 C 219.8 27.3 219.7 28.1 219.9 31.9 C 219.6 36.5 219.9 39.6 219.5 41.5 C 219.5 44.2 219.8 45.1 219.7 48.8 C 219.4 49.9 219.3 53.5 218.7 51.2 C 218.7 57.8 219.6 52.6 219.7 58.0 C 219.5 63.3 219.3 55.7 219.0 57.1 C 219.0 58.5 218.8 58.3 218.7 58.8 C 218.7 60.7 219.1 60.4 219.1 58.5 C 219.2 59.0 219.5 64.0 219.1 62.9 C 219.3 65.9 220.3 57.2 219.9 53.3 C 219.8 50.8 220.6 50.1 220.5 52.7 C 220.9 51.5 220.0 47.2 220.8 47.9 C 220.8 45.8 220.8 43.9 220.8 41.8 C 220.7 42.2 220.7 43.4 220.5 43.5 C 220.5 41.6 220.5 39.5 220.5 37.4 C 220.7 39.0 220.8 38.9 221.0 36.9 C 221.0 36.9 221.0 36.9 221.0 36.9 Z M 8.1 57.3 C 8.1 61.1 8.3 62.2 8.4 65.2 C 8.7 64.3 8.5 55.8 8.1 57.3 C 8.1 57.3 8.1 57.3 8.1 57.3 Z M 219.4 122.0 C 219.5 121.5 219.4 118.9 219.6 118.8 C 219.8 123.4 219.9 118.0 220.7 121.2 C 220.3 115.3 219.4 113.9 219.1 122.2 C 219.2 128.1 219.3 116.0 219.4 122.0 C 219.4 122.0 219.4 122.0 219.4 122.0 Z M 219.6 103.5 C 219.4 100.0 219.2 109.4 219.1 111.6 C 219.0 111.7 218.8 111.7 218.7 111.8 C 219.3 116.6 219.5 109.5 220.3 113.7 C 220.5 107.7 220.6 105.1 220.4 100.0 C 220.2 100.4 220.3 101.5 220.4 101.5 C 220.3 105.4 219.8 103.1 220.0 98.8 C 219.8 100.1 219.8 103.8 219.7 106.5 C 219.8 105.7 219.9 104.8 220.1 104.8 C 220.2 108.0 219.9 107.0 219.9 109.4 C 219.7 109.5 219.4 103.8 219.6 103.5 C 219.6 103.5 219.6 103.5 219.6 103.5 Z M 220.3 402.9 C 220.2 399.7 219.7 406.0 219.1 405.5 C 219.0 408.7 219.2 409.5 219.2 411.6 C 219.5 410.6 219.5 407.1 219.7 405.7 C 220.3 406.4 219.6 410.4 220.0 411.8 C 220.6 413.9 219.8 404.1 220.3 402.9 C 220.3 402.9 220.3 402.9 220.3 402.9 Z M 177.9 8.7 C 176.2 8.8 177.1 8.9 177.8 8.9 C 177.4 9.0 174.8 9.0 174.8 8.9 C 172.5 8.9 176.0 9.1 173.2 9.1 C 172.5 9.4 177.5 9.1 177.7 9.0 C 181.1 9.0 178.2 9.5 178.9 9.6 C 181.9 9.6 181.1 9.3 185.1 9.4 C 182.8 9.2 180.7 8.9 177.9 8.7 C 177.9 8.7 177.9 8.7 177.9 8.7 Z M 220.1 132.1 C 220.3 132.6 219.5 128.9 219.9 124.7 C 219.9 119.3 219.4 128.2 219.5 123.4 C 219.4 127.5 219.7 132.2 219.7 138.4 C 220.0 139.7 219.8 129.7 220.0 135.3 C 220.2 134.9 220.1 133.6 220.0 133.6 C 220.0 132.5 220.0 132.3 220.1 132.1 C 220.1 132.1 220.1 132.1 220.1 132.1 Z M 219.2 126.6 C 219.1 126.9 219.1 128.2 219.2 128.2 C 219.2 130.1 218.8 130.3 218.8 128.4 C 218.4 131.2 219.2 130.6 219.0 135.9 C 219.3 133.5 219.5 132.3 219.2 137.2 C 219.6 140.8 219.5 128.2 219.2 126.6 C 219.2 126.6 219.2 126.6 219.2 126.6 Z M 220.0 354.2 C 219.8 354.6 219.9 357.9 219.9 360.2 C 219.5 357.2 219.7 345.0 220.0 343.5 C 219.9 342.2 219.8 340.8 220.0 340.4 C 219.9 340.5 219.7 337.1 219.6 338.9 C 219.5 338.6 219.5 335.9 219.3 335.9 C 219.4 331.3 219.6 337.3 219.9 335.9 C 219.5 330.4 219.8 331.6 219.9 325.3 C 219.5 326.3 219.6 333.4 219.1 332.8 C 219.5 337.8 219.2 343.3 218.8 346.4 C 219.4 341.7 219.7 359.5 219.6 367.8 C 219.4 367.4 219.4 370.4 219.2 373.8 C 218.8 376.0 219.7 375.5 219.5 370.8 C 219.8 371.0 219.5 377.2 219.6 379.9 C 219.8 376.8 220.0 378.6 220.1 377.0 C 220.1 371.1 220.0 376.4 219.7 375.3 C 219.7 373.8 219.7 372.4 219.7 370.7 C 220.4 378.9 219.8 359.2 219.9 366.3 C 219.8 360.1 220.3 360.0 220.0 354.2 C 220.0 354.2 220.0 354.2 220.0 354.2 Z M 220.1 211.3 C 220.1 210.2 219.8 205.4 220.1 205.2 C 219.8 199.1 219.5 204.7 219.5 197.7 C 219.3 198.2 219.4 200.9 219.2 200.9 C 219.3 203.5 219.5 206.2 219.9 205.3 C 219.8 208.4 220.0 209.2 220.0 211.3 C 219.8 210.6 219.7 209.5 219.7 206.8 C 219.4 206.5 219.2 207.6 219.2 211.6 C 219.6 213.2 219.9 211.9 220.1 211.3 C 220.1 211.3 220.1 211.3 220.1 211.3 Z M 219.6 196.2 C 219.7 195.4 219.8 194.5 220.0 194.6 C 220.4 192.2 219.5 193.9 219.5 191.7 C 219.5 189.9 219.7 190.4 219.9 190.0 C 219.8 187.4 219.7 185.3 219.9 183.9 C 219.7 179.9 219.5 188.8 219.4 190.2 C 219.4 193.2 219.7 192.0 219.6 196.2 C 219.6 196.2 219.6 196.2 219.6 196.2 Z M 220.0 150.4 C 220.4 149.4 219.8 148.1 219.9 146.0 C 219.5 147.7 219.7 152.0 219.2 149.3 C 219.1 153.8 219.1 154.1 219.2 158.5 C 218.9 161.5 219.6 158.5 219.4 153.8 C 219.5 154.3 219.6 156.4 219.7 156.6 C 219.0 160.0 220.2 167.0 219.6 162.7 C 219.7 161.4 219.8 160.4 220.0 159.6 C 219.7 158.7 219.8 148.2 220.0 150.4 C 220.0 150.4 220.0 150.4 220.0 150.4 Z M 209.1 9.5 C 214.6 9.4 215.1 9.4 219.6 9.5 C 219.6 10.0 219.6 10.4 219.6 11.0 C 219.5 11.3 219.4 10.9 219.3 9.8 C 219.2 11.3 219.3 13.1 219.3 15.7 C 219.5 15.4 219.4 14.1 219.3 14.2 C 219.6 9.1 219.6 13.2 220.0 13.6 C 220.1 11.9 220.1 10.4 220.1 9.1 C 216.1 9.1 212.6 9.4 211.0 9.0 C 208.7 9.1 211.3 9.2 209.1 9.5 C 209.1 9.5 209.1 9.5 209.1 9.5 Z M 129.2 626.3 C 128.4 626.4 125.8 626.4 126.4 626.7 C 128.6 626.6 130.2 626.5 132.3 626.4 C 128.0 626.3 128.3 625.8 122.8 625.8 C 124.7 626.0 124.5 626.4 129.2 626.3 C 129.2 626.3 129.2 626.3 129.2 626.3 Z M 219.9 165.7 C 219.7 165.9 219.5 166.2 219.5 164.4 C 219.2 164.0 219.3 168.8 219.1 169.1 C 219.1 170.7 219.3 170.0 219.4 172.0 C 219.6 171.2 219.5 167.2 219.9 168.7 C 219.9 170.0 219.8 170.2 219.7 170.4 C 219.9 173.4 220.0 168.6 219.9 165.7 C 219.9 165.7 219.9 165.7 219.9 165.7 Z M 219.9 417.9 C 219.8 415.8 219.6 417.8 219.6 419.4 C 219.2 414.9 219.0 421.9 218.6 422.0 C 218.9 420.2 218.7 414.1 218.8 413.1 C 218.7 411.3 218.4 413.3 218.3 408.4 C 218.0 408.9 218.3 414.3 218.6 413.0 C 218.1 414.2 218.7 419.5 218.2 418.9 C 218.1 425.7 218.4 427.4 218.8 428.2 C 218.6 421.5 219.3 425.1 219.2 419.3 C 219.3 419.3 219.3 421.1 219.4 422.3 C 219.6 421.9 219.7 419.4 219.9 417.9 C 219.9 417.9 219.9 417.9 219.9 417.9 Z M 219.9 259.9 C 219.9 256.5 219.5 256.7 219.2 257.0 C 219.3 258.3 219.4 260.3 219.4 263.0 C 219.6 262.4 219.5 258.2 219.9 259.9 C 219.9 259.9 219.9 259.9 219.9 259.9 Z M 219.4 393.5 C 219.5 393.2 219.4 392.0 219.4 392.0 C 219.3 388.1 219.5 387.3 219.7 386.0 C 219.7 383.9 219.4 384.6 219.2 384.4 C 219.5 388.0 219.0 387.2 219.1 391.9 C 219.2 391.6 219.3 392.3 219.4 393.5 C 219.4 393.5 219.4 393.5 219.4 393.5 Z M 219.6 291.8 C 219.6 290.0 219.5 290.9 219.5 291.8 C 219.0 289.8 219.4 283.5 219.2 281.2 C 218.9 280.9 219.0 288.6 218.8 279.8 C 218.5 281.4 218.8 289.4 218.7 293.4 C 218.3 292.5 218.4 287.1 217.9 287.4 C 218.2 292.1 218.4 297.2 219.0 297.9 C 219.0 291.1 219.4 293.5 219.6 291.8 C 219.6 291.8 219.6 291.8 219.6 291.8 Z M 219.4 299.4 C 219.5 298.8 219.3 297.5 219.4 294.9 C 218.9 298.7 219.1 300.9 219.0 308.6 C 219.0 308.6 219.1 308.6 219.2 308.6 C 219.2 310.0 219.2 311.7 219.2 313.1 C 219.7 306.5 219.4 304.9 219.2 297.9 C 219.3 297.6 219.3 298.5 219.4 299.4 C 219.4 299.4 219.4 299.4 219.4 299.4 Z M 219.4 96.2 C 219.1 98.4 218.9 100.3 218.8 104.1 C 219.2 103.5 219.4 101.2 219.4 96.2 C 219.4 96.2 219.4 96.2 219.4 96.2 Z M 219.1 399.4 C 219.3 403.6 219.1 395.5 218.7 397.9 C 218.5 401.1 218.4 404.6 218.1 405.2 C 218.6 411.4 218.6 398.6 219.1 399.4 C 219.1 399.4 219.1 399.4 219.1 399.4 Z M 218.2 372.1 C 218.2 370.3 218.8 370.4 218.4 372.1 C 218.4 376.4 218.8 368.5 218.7 375.1 C 218.9 372.4 219.1 366.0 218.8 363.1 C 218.5 363.2 218.6 368.9 218.3 369.0 C 218.2 369.3 218.2 368.4 218.2 367.5 C 218.0 368.1 218.2 369.4 218.2 372.1 C 218.2 372.1 218.2 372.1 218.2 372.1 Z M 218.8 349.5 C 218.6 352.0 218.4 354.9 218.4 360.0 C 218.7 356.7 219.1 354.8 218.8 349.5 C 218.8 349.5 218.8 349.5 218.8 349.5 Z M 208.3 625.0 C 211.9 625.0 208.3 624.6 207.8 624.5 C 204.1 624.4 204.6 624.7 200.3 624.6 C 202.0 625.1 205.5 624.6 208.3 625.0 C 208.3 625.0 208.3 625.0 208.3 625.0 Z M 194.5 624.7 C 193.9 624.5 188.7 624.6 188.2 624.4 C 185.8 625.1 180.1 623.9 180.7 624.5 C 179.5 624.4 178.2 624.3 176.0 624.4 C 180.8 625.0 190.0 624.8 194.5 624.7 C 194.5 624.7 194.5 624.7 194.5 624.7 Z M 218.0 323.6 C 218.1 319.6 217.4 324.8 217.5 320.7 C 217.3 320.4 217.3 328.3 217.1 323.6 C 216.9 329.8 217.9 323.2 218.0 323.6 C 218.0 323.6 218.0 323.6 218.0 323.6 Z M 217.7 249.8 C 217.9 250.0 217.7 244.5 217.8 242.2 C 217.7 242.3 217.7 244.0 217.7 245.2 C 217.5 244.6 217.4 243.9 217.4 242.3 C 217.1 243.6 217.6 247.6 217.7 249.8 C 217.7 249.8 217.7 249.8 217.7 249.8 Z M 224.8 331.6 C 224.4 334.1 224.1 337.4 224.7 339.2 C 224.4 341.9 224.2 337.4 224.0 340.7 C 224.2 345.1 223.8 342.9 224.0 350.0 C 223.5 348.6 223.6 353.7 223.3 354.6 C 223.2 351.7 223.6 348.2 223.3 346.8 C 223.3 349.2 222.9 347.8 223.1 346.8 C 223.4 342.1 223.6 352.5 223.9 346.8 C 223.4 345.1 224.3 337.0 224.3 331.5 C 224.6 333.7 224.8 327.5 224.8 331.6 C 224.8 331.6 224.8 331.6 224.8 331.6 Z M 224.0 359.2 C 224.0 362.9 223.2 364.7 223.3 363.7 C 223.4 363.7 223.4 359.5 223.3 359.1 C 223.2 360.1 223.2 361.0 223.1 360.7 C 223.2 353.8 223.5 356.2 223.8 354.6 C 223.9 358.4 223.7 359.4 223.9 360.8 C 223.9 359.9 223.9 359.0 224.0 359.2 C 224.0 359.2 224.0 359.2 224.0 359.2 Z M 217.5 438.3 C 217.8 437.6 217.5 436.7 217.4 435.2 C 218.0 435.1 217.2 427.1 217.5 426.2 C 217.7 428.1 217.7 432.0 217.9 433.9 C 218.0 431.8 218.1 431.4 217.9 429.3 C 218.3 429.9 218.3 434.3 218.6 435.6 C 218.3 435.9 218.6 438.1 218.4 438.6 C 218.2 432.7 217.5 441.7 217.5 438.3 C 217.5 438.3 217.5 438.3 217.5 438.3 Z M 217.5 289.1 C 217.1 288.5 216.2 295.0 215.7 289.2 C 216.0 287.9 216.4 287.1 216.9 287.5 C 216.6 283.9 217.0 282.2 216.6 280.0 C 217.8 273.0 216.5 285.3 217.5 289.1 C 217.5 289.1 217.5 289.1 217.5 289.1 Z M 217.1 264.9 C 217.5 266.1 217.5 262.7 217.8 263.3 C 217.5 266.3 217.9 275.6 217.7 272.4 C 217.5 269.3 217.1 269.4 217.1 264.9 C 217.1 264.9 217.1 264.9 217.1 264.9 Z M 8.5 167.5 C 8.2 162.4 9.0 160.4 9.2 163.4 C 8.7 161.9 9.0 169.5 8.5 167.5 C 8.5 167.5 8.5 167.5 8.5 167.5 Z M 21.2 2.2 C 16.2 2.0 13.8 2.2 12.8 1.8 C 17.3 1.7 17.1 2.0 20.9 2.0 C 21.1 1.8 23.3 1.7 24.0 1.8 C 21.8 1.9 22.5 2.1 21.2 2.2 C 21.2 2.2 21.2 2.2 21.2 2.2 Z M 226.4 168.7 C 226.5 168.2 226.6 166.3 226.9 166.9 C 226.7 171.7 227.0 176.9 227.3 180.7 C 227.1 180.8 226.9 180.9 226.8 180.9 C 226.9 173.5 226.6 171.6 226.4 168.7 C 226.4 168.7 226.4 168.7 226.4 168.7 Z M 227.2 158.9 C 227.0 158.3 226.5 161.1 226.5 157.7 C 226.8 157.8 227.2 151.6 227.3 154.3 C 227.0 155.4 227.0 156.9 227.2 158.9 C 227.2 158.9 227.2 158.9 227.2 158.9 Z M 225.1 419.6 C 225.1 423.3 225.4 418.0 225.6 418.2 C 225.5 420.9 225.5 424.7 225.3 425.8 C 225.4 423.1 224.7 421.0 225.1 419.6 C 225.1 419.6 225.1 419.6 225.1 419.6 Z M 224.2 362.3 C 224.1 354.4 224.8 357.9 224.9 350.1 C 225.2 353.3 225.1 360.4 225.5 362.5 C 225.2 362.2 225.2 364.1 224.9 363.9 C 224.9 361.1 225.1 360.7 225.1 357.8 C 224.7 358.8 224.8 358.8 224.4 357.7 C 224.4 359.8 224.5 361.2 224.6 362.4 C 224.3 361.8 224.2 364.6 224.2 362.3 C 224.2 362.3 224.2 362.3 224.2 362.3 Z M 224.0 417.7 C 224.2 420.9 223.6 423.4 223.6 420.7 C 223.9 420.4 223.6 418.2 223.8 417.6 C 223.9 422.2 224.0 414.1 224.3 416.3 C 224.3 419.0 224.4 419.9 224.7 419.4 C 224.7 421.2 224.7 424.0 224.6 424.1 C 224.5 422.8 224.6 421.0 224.4 421.0 C 224.4 421.9 224.4 422.8 224.3 422.5 C 224.3 419.8 224.2 418.5 224.0 417.7 C 224.0 417.7 224.0 417.7 224.0 417.7 Z M 224.0 396.2 C 224.0 400.4 223.6 400.8 223.4 402.2 C 223.5 396.6 224.0 395.8 224.3 391.7 C 224.2 396.3 224.7 401.1 224.4 402.5 C 224.3 400.4 224.3 396.6 224.0 396.2 C 224.0 396.2 224.0 396.2 224.0 396.2 Z M 5.9 563.6 C 6.1 560.0 6.4 557.1 6.6 553.1 C 6.2 551.7 5.4 559.1 5.7 556.0 C 5.6 551.8 6.2 554.7 6.2 551.4 C 5.6 554.6 5.6 536.8 6.2 536.2 C 6.2 538.8 6.3 539.8 6.6 539.2 C 6.5 546.4 6.9 549.2 7.0 554.6 C 6.5 558.4 6.3 569.8 6.8 575.9 C 6.1 579.9 6.9 587.3 6.3 592.7 C 6.6 594.2 6.8 588.1 6.8 592.8 C 6.4 595.7 6.3 593.3 6.1 597.3 C 6.3 597.7 6.5 596.8 6.6 598.9 C 6.3 598.6 6.3 601.1 6.2 602.0 C 6.2 593.6 5.6 602.4 5.5 595.8 C 5.7 593.1 6.2 598.7 6.2 591.2 C 6.1 588.5 5.9 586.0 5.5 586.6 C 5.5 584.5 5.5 583.3 5.4 581.9 C 5.9 584.8 5.3 571.5 5.8 577.5 C 5.8 577.9 5.8 582.1 5.9 585.1 C 6.4 582.4 6.1 579.1 5.9 574.3 C 6.3 572.4 6.3 575.3 6.4 572.9 C 6.2 569.1 5.9 574.2 5.7 571.3 C 5.6 572.5 5.7 574.3 5.5 574.3 C 5.9 567.9 5.5 565.3 5.5 562.1 C 5.8 564.3 5.9 558.4 5.9 563.6 C 5.9 563.6 5.9 563.6 5.9 563.6 Z M 6.4 618.8 C 6.4 620.3 6.4 621.8 6.4 623.5 C 6.1 623.8 6.0 617.8 5.7 621.8 C 5.7 615.1 6.2 622.1 6.4 618.8 C 6.4 618.8 6.4 618.8 6.4 618.8 Z M 7.9 588.4 C 8.3 586.2 7.4 587.3 7.4 585.2 C 7.4 588.9 7.6 592.4 7.1 592.8 C 7.2 588.5 7.2 586.5 7.1 582.0 C 7.7 586.4 7.6 577.3 8.0 576.0 C 8.1 579.4 8.3 582.1 8.3 586.7 C 8.1 586.0 7.9 592.7 7.9 588.4 C 7.9 588.4 7.9 588.4 7.9 588.4 Z M 8.4 600.6 C 8.1 601.5 8.4 608.2 7.9 606.7 C 8.0 602.6 7.8 601.2 7.5 602.0 C 7.5 599.1 7.6 598.6 7.6 595.9 C 8.1 594.3 8.0 599.1 8.3 600.6 C 8.3 599.7 8.4 598.8 8.4 600.6 C 8.4 600.6 8.4 600.6 8.4 600.6 Z M 93.8 625.0 C 95.3 625.5 89.0 625.2 87.8 625.1 C 89.7 625.5 88.9 625.6 85.1 625.8 C 86.4 625.2 80.9 625.4 77.3 624.9 C 76.6 625.3 81.0 625.4 75.9 625.5 C 71.9 625.4 68.4 625.6 62.4 625.7 C 61.0 625.2 63.6 625.2 65.2 625.0 C 61.1 625.1 62.2 624.7 59.1 624.7 C 59.7 625.0 57.3 625.1 56.2 624.9 C 61.4 624.7 49.0 624.4 54.6 624.2 C 54.9 624.4 56.2 624.3 57.5 624.2 C 56.2 624.8 63.4 624.6 65.1 624.9 C 67.8 624.0 75.6 624.3 84.7 624.6 C 85.4 624.8 82.6 624.9 84.8 625.0 C 85.1 624.8 88.0 624.9 89.3 624.7 C 89.2 625.0 90.4 625.1 92.4 625.1 C 92.5 625.1 92.6 625.0 93.8 625.0 C 93.8 625.0 93.8 625.0 93.8 625.0 Z M 10.2 314.7 C 10.9 315.3 10.5 305.3 10.3 302.6 C 11.1 303.4 10.9 320.5 10.2 314.7 C 10.2 314.7 10.2 314.7 10.2 314.7 Z M 10.7 374.2 C 10.7 371.7 10.4 373.3 10.3 371.0 C 10.7 371.1 9.9 364.9 10.3 365.0 C 10.7 367.9 10.7 369.7 10.7 374.2 C 10.7 374.2 10.7 374.2 10.7 374.2 Z M 10.6 428.9 C 10.5 424.5 10.4 431.3 10.2 430.3 C 10.2 426.5 10.2 422.5 10.6 422.9 C 10.4 426.2 10.9 428.6 10.6 428.9 C 10.6 428.9 10.6 428.9 10.6 428.9 Z M 11.1 347.1 C 11.3 343.5 11.8 349.8 11.5 350.2 C 11.4 346.2 11.2 352.7 11.3 356.2 C 10.8 355.8 10.9 354.4 10.5 355.8 C 10.3 350.4 10.9 355.1 10.9 351.4 C 10.6 348.8 10.7 351.5 10.3 351.2 C 10.3 349.7 10.3 348.2 10.3 346.7 C 10.6 346.8 10.8 346.9 11.0 347.0 C 11.0 348.8 11.0 350.6 11.3 350.1 C 11.3 348.6 11.2 348.3 11.1 347.1 C 11.1 347.1 11.1 347.1 11.1 347.1 Z M 15.5 624.2 C 13.2 624.3 15.2 624.4 17.0 624.5 C 17.4 624.3 18.9 623.6 21.5 624.0 C 15.7 624.3 23.3 624.5 20.1 624.7 C 18.8 624.4 15.3 624.8 12.5 624.7 C 11.3 624.4 14.2 623.9 15.5 624.2 C 15.5 624.2 15.5 624.2 15.5 624.2 Z M 26.1 624.5 C 25.8 624.4 24.8 624.3 23.0 624.4 C 24.9 624.0 22.2 624.0 24.6 623.8 C 24.3 624.0 32.2 624.1 27.5 624.2 C 23.4 624.0 28.7 624.5 30.6 624.5 C 28.6 624.5 24.9 624.9 24.5 624.6 C 25.5 624.6 26.4 624.6 26.1 624.5 C 26.1 624.5 26.1 624.5 26.1 624.5 Z M 123.3 624.0 C 123.7 623.7 121.1 623.7 120.2 623.6 C 127.8 623.6 134.3 623.6 138.2 623.7 C 134.7 623.7 134.9 624.0 137.0 624.2 C 133.1 624.1 132.4 624.3 131.0 624.1 C 134.0 623.8 128.0 624.0 123.3 624.0 C 123.3 624.0 123.3 624.0 123.3 624.0 Z M 123.3 624.0 " fill="#FF456F"></path></g></svg>