<?xml version="1.0" encoding="UTF-8" standalone="no"?><svg xmlns="http://www.w3.org/2000/svg" xmlns:xlink="http://www.w3.org/1999/xlink" clip-rule="evenodd" stroke-miterlimit="10" viewBox="0 0 1024 768"><desc>SVG generated by Keynote</desc><defs></defs><g transform="matrix(1.00, 0.00, -0.00, -1.00, 0.0, 768.0)"><path d="M 0.0 768.0 L 1024.0 768.0 L 1024.0 0.0 L 0.0 0.0 Z M 0.0 768.0 " fill="#000000"></path><g opacity="0.55"><g><clipPath id="clip0x600001eacea0"><path d="M 0.0 0.0 L 1024.0 0.0 L 1024.0 768.0 L 0.0 768.0 Z M 0.0 0.0 "></path></clipPath><g clip-path="url(#clip0x600001eacea0)"><image xlink:href="../../3AE6EEF6-7A89-4AC7-866E-057BD00E8788/assets/27AC378FDD398F27C479C0A461816847.png" width="1023.00" height="765.00" transform="matrix(1.00, 0.00, -0.00, -1.00, -0.5, 769.5)"></image></g></g></g><path d="M 473.5 224.5 C 473.5 223.4 473.4 222.0 473.4 219.9 C 473.3 220.9 473.2 221.7 473.0 221.7 C 473.1 223.5 473.2 225.8 473.2 229.5 C 473.3 229.3 473.3 227.5 473.3 226.2 C 473.3 224.7 473.4 224.9 473.5 224.5 C 473.5 224.5 473.5 224.5 473.5 224.5 Z M 248.5 286.6 C 248.6 283.5 248.2 286.6 248.2 287.8 C 248.2 288.0 248.3 288.2 248.3 289.4 C 248.0 289.4 247.9 286.7 247.8 284.5 C 247.9 276.1 248.6 282.9 248.5 286.6 C 248.5 286.6 248.5 286.6 248.5 286.6 Z M 248.8 699.1 C 248.8 705.9 249.2 698.7 249.3 697.7 C 249.4 700.8 250.1 698.4 250.1 702.4 C 249.9 703.1 249.8 704.6 249.6 705.4 C 249.6 703.6 249.6 701.0 249.5 700.7 C 249.4 703.1 249.5 706.4 249.3 706.8 C 249.2 701.6 248.9 705.9 248.7 706.8 C 248.7 702.1 248.4 700.6 248.8 699.1 C 248.8 699.1 248.8 699.1 248.8 699.1 Z M 471.6 718.1 C 471.6 720.0 471.6 721.7 471.3 721.0 C 471.3 718.9 471.4 717.6 471.5 716.4 C 471.3 716.0 471.1 716.5 471.1 714.6 C 471.4 712.8 471.9 714.2 472.1 715.5 C 471.8 715.3 471.9 722.4 471.6 718.1 C 471.6 718.1 471.6 718.1 471.6 718.1 Z M 470.9 543.0 C 471.1 537.2 470.4 542.5 470.6 536.7 C 470.9 537.0 471.3 536.2 471.3 540.1 C 471.1 540.3 471.1 542.6 470.9 543.0 C 470.9 543.0 470.9 543.0 470.9 543.0 Z M 251.8 526.4 C 251.5 526.3 251.6 530.5 251.3 529.3 C 251.3 527.2 251.3 525.3 251.3 523.2 C 251.6 522.9 251.8 523.7 251.8 526.4 C 251.8 526.4 251.8 526.4 251.8 526.4 Z M 252.6 745.5 C 252.1 752.5 252.7 760.0 252.4 757.7 C 251.9 760.4 251.2 752.8 251.7 753.1 C 252.1 752.3 252.5 740.0 252.6 745.5 C 252.6 745.5 252.6 745.5 252.6 745.5 Z M 255.3 326.9 C 255.0 333.9 256.1 333.2 255.6 337.6 C 255.5 335.9 255.4 335.1 255.3 334.4 C 255.3 335.6 255.3 337.4 255.2 337.3 C 255.1 333.9 255.0 329.6 255.3 326.9 C 255.3 326.9 255.3 326.9 255.3 326.9 Z M 472.6 330.7 C 472.7 331.9 472.7 332.5 472.9 332.3 C 472.8 337.2 473.1 336.9 472.9 340.0 C 472.4 340.4 472.5 336.2 472.6 332.4 C 472.6 332.3 472.5 331.1 472.6 330.7 C 472.6 330.7 472.6 330.7 472.6 330.7 Z M 471.2 467.4 C 471.5 467.3 471.6 464.4 471.7 468.9 C 471.3 474.0 470.9 469.5 470.7 464.2 C 470.5 464.2 470.3 464.2 470.2 464.2 C 470.2 466.3 470.1 467.7 470.0 468.9 C 470.6 469.8 469.5 473.2 469.9 481.2 C 469.6 477.4 469.2 481.4 469.4 476.5 C 469.0 477.8 469.1 474.4 468.7 475.0 C 468.9 477.1 468.9 482.3 469.4 481.1 C 469.4 483.8 469.4 485.9 469.3 487.3 C 468.8 489.2 469.2 482.3 468.7 484.2 C 468.7 485.7 468.6 486.0 468.6 487.2 C 468.8 487.5 469.0 487.0 469.0 488.8 C 468.8 493.7 468.5 487.8 468.5 494.8 C 468.7 495.3 468.8 493.2 469.0 493.4 C 469.2 496.6 468.9 496.4 469.1 499.5 C 468.9 500.1 468.8 497.3 468.7 499.5 C 469.3 501.5 468.4 505.9 468.9 510.3 C 469.7 507.4 468.7 511.0 469.5 515.0 C 469.3 515.9 468.8 513.0 468.7 516.4 C 469.8 515.4 469.5 529.1 470.3 518.2 C 470.3 524.0 471.1 526.2 471.2 521.5 C 471.0 531.7 471.5 528.5 471.6 532.5 C 471.6 536.4 471.4 530.3 471.1 532.3 C 471.1 528.1 470.9 529.1 471.1 526.2 C 470.9 526.1 470.8 525.3 470.7 524.4 C 471.0 528.7 470.4 533.5 469.9 530.4 C 470.0 528.3 470.4 530.4 470.4 527.5 C 469.8 528.4 470.5 524.5 470.2 524.3 C 469.6 526.2 469.2 520.1 469.1 525.7 C 469.3 525.8 469.6 525.8 469.8 525.9 C 469.8 527.4 469.8 528.9 469.8 530.4 C 469.4 531.6 469.1 530.5 469.0 531.9 C 469.0 534.4 469.1 535.8 469.2 536.6 C 469.3 533.4 469.7 529.8 469.8 535.0 C 469.0 532.9 469.6 542.3 469.1 538.0 C 468.9 543.6 469.5 546.7 469.0 547.1 C 469.0 550.1 469.4 548.3 469.4 551.9 C 469.0 557.5 469.6 556.6 469.3 564.1 C 469.9 565.2 469.1 564.8 469.1 567.2 C 469.3 567.3 469.6 567.4 469.8 567.4 C 469.4 570.0 469.2 576.1 469.6 582.7 C 469.5 584.3 469.2 583.0 469.3 587.2 C 469.8 591.9 469.2 597.0 469.8 602.7 C 469.5 603.0 469.5 606.8 469.6 608.8 C 469.5 609.6 469.0 606.7 469.0 610.1 C 469.4 612.6 469.5 608.6 469.6 613.4 C 469.2 612.8 470.0 618.1 469.5 618.0 C 469.4 616.5 469.3 614.7 469.1 613.2 C 469.1 615.3 468.9 614.6 468.9 616.2 C 469.4 616.2 468.9 619.7 468.9 620.8 C 469.1 620.8 469.3 621.3 469.4 622.6 C 469.4 625.3 469.4 627.4 469.5 628.8 C 469.3 632.2 469.2 626.7 469.1 630.1 C 470.1 632.3 469.0 635.1 469.6 642.7 C 469.3 644.1 469.2 647.0 469.1 651.7 C 469.4 652.3 469.3 647.2 469.5 647.2 C 469.4 653.9 469.8 646.2 469.8 650.6 C 469.6 660.0 469.6 666.3 469.2 676.3 C 469.5 676.4 469.8 684.5 469.6 684.2 C 469.6 682.1 469.1 688.2 469.1 691.5 C 469.8 692.9 470.4 698.4 470.7 699.0 C 470.4 699.9 470.3 699.6 469.8 699.8 C 469.6 705.3 470.2 708.8 469.5 711.9 C 469.8 711.8 469.9 714.6 470.0 716.9 C 469.7 716.1 469.5 714.5 469.2 713.1 C 469.3 716.2 469.1 716.5 469.1 719.2 C 470.2 722.8 468.8 726.1 469.9 729.1 C 469.9 733.5 469.5 732.4 469.5 736.4 C 469.7 736.5 469.9 737.1 470.0 738.4 C 469.9 735.6 469.6 733.4 470.0 732.2 C 470.1 738.4 471.1 721.9 471.6 732.1 C 471.4 732.2 471.1 731.1 471.1 733.1 C 471.2 738.9 471.6 735.9 471.6 733.6 C 471.8 737.5 471.6 741.3 472.1 738.7 C 472.2 747.5 471.9 741.7 471.7 744.6 C 471.9 753.6 472.0 763.8 472.0 774.7 C 463.7 774.7 454.9 774.6 445.7 774.4 C 445.4 774.9 433.7 774.5 429.8 774.2 C 424.2 774.6 418.1 774.7 415.9 774.2 C 415.1 774.6 408.4 773.9 408.1 774.3 C 410.6 774.2 412.4 774.5 409.9 774.5 C 401.1 774.3 388.1 774.2 383.3 774.5 C 380.0 774.0 374.4 774.2 370.8 774.4 C 370.0 774.2 373.0 774.1 370.6 774.0 C 369.9 774.3 362.0 774.6 359.9 774.3 C 362.4 774.3 364.8 773.8 361.2 773.8 C 361.3 774.0 357.0 773.9 358.2 774.3 C 353.0 774.1 350.1 774.4 345.7 774.2 C 349.2 774.1 351.3 773.9 351.7 773.6 C 348.8 773.8 346.6 774.0 344.0 773.6 C 344.9 774.2 339.9 773.9 335.0 774.2 C 333.5 774.0 332.4 773.7 328.5 773.8 C 326.6 774.1 334.8 774.2 330.3 774.3 C 330.2 774.1 325.9 773.9 327.1 774.3 C 321.7 774.1 319.0 774.4 314.6 774.0 C 320.1 774.2 315.8 773.6 314.4 773.5 C 313.2 773.5 311.4 773.5 311.5 773.6 C 311.5 773.8 314.2 773.8 314.6 773.9 C 310.7 773.7 309.8 774.4 308.4 774.0 C 310.0 774.0 310.3 773.8 308.3 773.8 C 308.0 774.4 296.8 773.9 300.6 773.6 C 300.6 773.8 304.8 773.8 305.2 773.6 C 304.0 773.4 297.7 773.7 299.0 773.2 C 302.6 773.2 302.3 773.5 306.7 773.4 C 307.1 773.1 309.6 773.0 311.2 772.8 C 304.3 772.9 302.9 773.3 301.9 772.8 C 298.9 772.9 300.8 773.4 295.8 773.2 C 288.7 773.1 294.5 772.7 292.7 772.6 C 286.4 772.8 288.4 773.4 291.2 773.8 C 286.2 773.7 284.7 774.0 278.8 773.9 C 279.1 773.7 279.8 773.5 281.9 773.4 C 282.1 773.5 287.1 773.8 286.6 773.5 C 286.1 772.9 282.0 772.7 275.6 772.6 C 277.2 773.2 277.3 772.8 271.0 772.9 C 272.1 773.4 268.0 772.7 267.8 773.1 C 268.1 773.3 270.4 773.3 272.5 773.2 C 272.4 773.5 271.6 773.7 269.5 773.8 C 268.2 773.6 267.1 773.8 263.3 773.6 C 263.0 773.3 265.7 773.2 266.3 773.0 C 264.2 773.0 263.7 773.2 261.6 773.2 C 259.8 772.9 259.9 772.4 260.1 771.8 C 262.5 771.7 266.2 771.7 263.2 771.4 C 272.2 771.4 262.8 772.0 266.3 772.1 C 270.0 771.5 267.9 772.3 273.9 772.2 C 275.7 772.2 276.3 772.1 277.1 771.9 C 276.6 771.9 273.1 771.4 277.0 771.4 C 277.9 771.7 280.1 771.9 283.2 771.9 C 283.2 771.7 276.7 771.5 283.2 771.6 C 286.3 771.6 283.5 772.1 287.9 772.1 C 287.9 771.9 289.1 771.9 289.4 771.8 C 283.1 771.9 290.5 771.5 286.3 771.3 C 291.6 771.1 287.2 771.7 290.8 771.7 C 290.9 771.4 296.9 771.9 296.9 771.4 C 294.7 771.6 290.2 771.6 290.7 771.2 C 294.8 771.2 313.4 770.9 306.3 771.5 C 308.9 771.3 322.3 770.8 321.4 771.0 C 317.3 771.0 317.6 771.3 317.1 771.5 C 324.5 771.1 328.6 771.4 336.7 770.9 C 327.6 770.8 334.2 770.2 328.8 769.9 C 326.4 769.9 323.1 769.8 322.5 770.0 C 323.7 770.4 327.4 770.2 328.8 770.0 C 328.9 770.3 329.0 770.7 329.2 771.0 C 319.0 770.6 313.8 771.0 309.1 770.9 C 313.1 770.8 301.3 770.4 305.9 770.2 C 307.9 770.5 312.7 770.5 316.8 770.6 C 316.7 770.5 316.7 770.4 316.7 770.2 C 318.5 770.2 321.0 770.3 321.1 770.1 C 315.6 770.2 312.5 769.8 308.9 770.1 C 308.9 770.0 308.8 769.9 308.8 769.9 C 307.9 769.9 307.0 769.8 307.3 769.7 C 309.1 769.7 311.6 769.8 311.9 769.6 C 307.8 769.5 307.0 769.1 302.5 769.1 C 303.5 768.6 297.4 768.1 303.9 767.9 C 305.0 768.3 308.6 768.5 308.5 768.7 C 310.5 768.9 314.3 768.7 316.2 768.6 C 314.2 768.3 310.3 768.2 309.9 767.8 C 313.0 767.7 315.4 767.6 317.5 767.9 C 311.0 768.1 321.1 768.3 323.8 768.7 C 323.0 768.5 321.4 768.4 320.5 768.2 C 325.5 768.2 328.0 768.5 328.1 767.9 C 334.0 767.7 332.9 768.2 337.2 768.2 C 334.2 767.6 339.9 767.9 336.9 767.4 C 343.9 767.3 339.1 767.9 341.6 767.9 C 343.8 767.9 344.0 767.7 346.1 767.6 C 349.5 767.9 355.9 767.9 357.1 768.4 C 359.9 768.4 360.4 768.6 363.2 768.6 C 363.9 768.4 364.7 768.3 365.9 768.2 C 366.5 768.3 368.6 768.5 369.1 768.3 C 361.0 767.7 363.2 767.7 354.9 767.3 C 354.4 767.4 353.2 767.5 355.1 767.6 C 349.5 767.7 347.8 767.5 342.9 767.5 C 342.2 767.2 341.0 766.6 336.7 767.0 C 337.6 766.6 336.3 766.5 338.1 766.4 C 340.5 766.6 343.8 766.7 347.2 766.9 C 347.4 766.7 346.8 766.5 348.5 766.5 C 350.2 766.7 352.7 766.8 354.7 766.6 C 354.8 766.8 354.1 766.9 353.3 767.0 C 360.8 767.1 357.9 766.6 363.8 766.9 C 362.8 766.6 359.1 766.6 362.1 766.4 C 367.1 766.2 368.4 766.5 371.1 766.6 C 371.5 766.5 371.1 766.4 372.6 766.4 C 376.4 766.6 365.0 767.1 371.7 767.7 C 371.9 767.2 378.3 767.4 379.4 767.7 C 377.5 768.0 373.5 767.5 373.4 767.8 C 384.9 767.8 374.0 768.4 386.0 768.6 C 385.9 768.4 385.7 768.2 385.6 768.0 C 381.0 768.1 380.6 767.8 380.7 767.4 C 376.5 767.4 374.6 766.9 371.4 767.1 C 372.3 766.4 374.8 767.1 379.1 767.1 C 378.7 766.7 374.8 766.7 374.1 766.4 C 383.9 766.7 385.6 766.1 395.2 766.7 C 392.7 766.3 400.3 766.7 399.5 766.4 C 391.5 766.4 394.1 765.3 392.7 765.2 C 387.5 765.2 390.3 766.0 387.4 766.2 C 385.7 765.8 386.3 765.6 386.7 765.1 C 391.4 765.2 390.7 765.1 394.2 764.9 C 397.4 765.3 400.6 766.0 396.5 766.2 C 397.3 766.2 403.3 765.9 404.0 766.2 C 398.1 766.2 404.7 766.4 401.3 766.6 C 406.0 766.9 413.7 766.4 419.4 766.7 C 418.8 766.5 420.8 766.5 420.5 766.2 C 415.2 766.6 413.5 765.7 408.1 765.7 C 410.4 765.7 408.9 765.4 407.8 765.3 C 413.2 765.5 415.9 765.2 420.0 765.6 C 419.9 765.4 419.8 765.3 419.6 765.2 C 426.3 765.5 425.3 765.4 430.0 765.1 C 432.1 765.3 430.1 766.0 429.7 766.4 C 431.9 766.2 440.6 766.3 435.2 765.8 C 440.3 765.8 439.5 766.4 444.6 766.4 C 444.4 766.0 439.6 766.0 440.8 765.4 C 445.6 765.4 443.3 765.9 446.9 765.6 C 447.4 765.9 447.8 766.2 451.9 766.2 C 448.7 765.9 452.2 766.1 453.2 765.8 C 451.2 765.8 449.5 765.7 448.4 765.6 C 455.8 765.7 457.3 765.7 462.9 765.6 C 462.9 765.5 462.9 765.3 462.9 765.2 C 462.9 765.4 462.9 765.5 463.0 765.7 C 461.9 766.0 464.8 766.2 461.1 766.4 C 461.9 766.3 462.7 766.3 463.6 766.3 C 463.6 763.1 463.8 760.1 463.7 758.3 C 463.5 760.5 463.5 764.3 463.3 765.6 C 463.1 753.4 462.7 746.7 463.3 736.9 C 463.3 738.7 463.2 741.2 463.4 741.6 C 463.4 740.5 463.4 738.5 463.5 738.6 C 463.5 742.3 463.5 745.8 463.7 747.9 C 463.5 750.9 463.3 745.7 463.3 749.0 C 463.5 749.8 463.3 755.9 463.8 754.0 C 463.4 747.9 463.8 742.9 464.4 740.9 C 463.7 735.0 463.8 740.0 463.0 733.6 C 463.2 734.0 463.3 732.7 463.4 731.0 C 462.8 732.3 463.1 725.5 463.1 724.8 C 463.4 727.6 463.7 737.9 464.2 733.2 C 463.2 734.6 464.4 721.8 463.7 723.8 C 463.6 717.2 464.1 720.0 463.7 716.1 C 463.8 716.1 464.0 716.7 464.0 715.0 C 464.0 713.2 463.9 712.5 463.8 711.7 C 463.6 720.4 463.0 717.4 463.0 723.2 C 463.0 722.2 463.0 721.3 462.9 721.5 C 462.8 721.4 462.7 721.2 462.7 719.9 C 463.3 719.9 462.6 715.1 463.0 714.1 C 463.0 715.9 463.0 717.6 463.3 717.3 C 463.2 709.7 463.7 711.4 463.9 701.3 C 463.7 704.2 463.6 700.0 463.5 696.4 C 463.6 691.5 464.2 693.9 464.2 687.8 C 463.2 687.6 464.3 681.5 463.7 673.9 C 464.2 675.0 464.4 665.7 463.9 663.5 C 464.1 663.3 464.0 659.9 464.0 657.5 C 464.3 657.1 464.4 659.9 464.4 657.8 C 464.4 655.7 463.9 657.3 463.9 654.5 C 464.0 651.3 464.5 652.2 464.4 647.3 C 464.1 646.9 464.2 649.6 463.9 647.0 C 464.1 642.8 464.1 639.0 463.7 642.3 C 463.6 635.9 464.3 639.4 464.3 633.5 C 464.1 635.2 464.0 634.9 463.9 631.8 C 464.2 629.8 464.4 629.7 464.6 629.1 C 464.2 627.1 464.2 627.7 464.3 622.9 C 464.1 622.8 463.9 622.7 463.8 622.6 C 463.8 620.4 463.7 617.1 463.9 616.7 C 463.8 620.7 464.2 619.7 464.3 621.4 C 464.4 617.3 464.8 609.6 464.3 615.4 C 464.1 609.5 464.7 612.6 464.6 608.0 C 464.1 610.6 464.5 608.1 464.4 603.4 C 463.9 603.5 464.4 600.2 464.3 597.3 C 464.0 597.6 463.8 596.7 463.8 594.1 C 464.0 594.3 464.1 592.6 464.0 589.6 C 463.9 589.5 463.6 595.8 463.7 589.5 C 463.8 586.6 464.3 586.8 464.3 582.1 C 464.7 581.2 464.5 586.4 465.0 585.4 C 464.6 581.4 464.9 580.4 465.0 574.8 C 464.2 576.7 464.0 563.2 463.7 569.7 C 463.7 567.8 463.1 565.0 463.5 563.7 C 463.6 565.8 464.0 562.2 464.0 562.4 C 464.0 559.7 464.2 553.6 463.9 553.4 C 464.0 559.1 463.6 559.0 463.4 560.7 C 463.2 552.2 463.3 544.9 463.8 545.7 C 463.7 545.6 463.6 544.4 463.5 544.1 C 463.6 547.1 462.9 548.8 462.9 545.4 C 463.3 546.3 463.4 543.8 463.5 541.2 C 463.1 540.9 463.7 530.0 463.1 532.0 C 463.5 536.5 462.8 539.8 462.6 536.4 C 463.0 533.7 463.2 527.7 463.5 529.1 C 463.4 527.5 463.3 526.0 463.1 524.5 C 462.8 523.1 462.8 526.5 462.5 525.8 C 462.5 523.6 462.4 520.2 462.6 519.8 C 462.7 525.8 462.8 516.8 463.1 523.0 C 463.1 519.2 463.3 518.4 463.4 515.4 C 463.3 515.4 463.2 514.2 463.1 513.9 C 463.4 516.6 463.1 519.2 462.7 518.4 C 462.7 512.9 463.1 513.9 463.1 509.4 C 462.8 508.0 462.3 501.8 462.6 498.7 C 462.6 504.7 462.8 498.3 463.0 501.8 C 462.7 507.2 463.2 508.8 463.5 510.9 C 463.7 508.6 463.9 504.0 463.4 503.4 C 463.3 506.3 463.6 506.3 463.7 508.0 C 463.4 507.8 463.2 506.9 463.1 504.8 C 463.4 502.3 463.1 496.7 463.7 500.5 C 463.4 496.6 463.8 492.4 463.5 488.4 C 463.5 492.8 463.3 496.0 463.0 497.3 C 462.8 493.6 463.3 490.0 463.0 489.8 C 462.7 490.2 462.8 496.1 462.5 497.2 C 462.1 492.5 463.2 485.4 462.4 491.2 C 462.4 488.6 462.4 484.9 462.6 483.8 C 462.7 487.0 463.2 483.5 463.3 482.2 C 463.2 479.4 463.2 477.2 463.0 476.2 C 463.2 480.4 462.6 483.6 462.6 480.7 C 462.8 480.0 462.6 479.1 462.5 477.7 C 462.7 477.5 462.6 472.6 462.7 471.7 C 462.6 472.0 462.5 474.2 462.4 474.7 C 462.2 471.9 461.7 467.8 462.2 465.7 C 462.2 467.5 462.2 470.0 462.4 470.1 C 462.9 462.4 463.4 459.9 463.7 450.6 C 463.7 451.8 463.8 452.4 463.9 452.1 C 464.0 446.2 464.2 442.3 464.4 443.1 C 464.4 439.4 464.1 437.5 463.9 435.6 C 463.7 439.4 464.1 440.7 463.8 443.1 C 463.7 441.6 463.0 446.1 462.7 447.7 C 463.1 454.1 462.5 454.6 462.7 461.2 C 462.3 459.3 462.6 466.0 462.2 464.1 C 462.8 458.0 462.4 452.1 462.6 443.2 C 462.9 444.3 463.2 445.3 463.4 441.6 C 463.6 435.9 463.0 438.7 463.1 434.0 C 463.5 432.1 463.5 434.9 463.7 432.5 C 463.5 430.9 463.5 426.5 463.9 425.0 C 463.9 431.2 464.2 423.8 464.4 427.9 C 464.4 425.8 464.5 424.6 464.6 423.3 C 464.1 429.4 464.0 417.3 463.7 421.9 C 463.4 413.6 464.6 421.2 464.6 414.3 C 464.3 417.7 464.1 413.3 464.2 408.3 C 464.6 406.9 464.7 401.7 464.8 397.6 C 464.5 399.8 464.5 401.5 464.3 397.7 C 464.1 399.8 464.1 403.3 464.3 405.2 C 464.1 405.2 464.0 406.0 463.9 406.9 C 463.8 401.9 463.6 404.0 463.5 402.4 C 463.7 400.9 463.7 397.2 463.9 396.3 C 463.8 396.3 463.8 395.0 463.7 394.9 C 463.6 401.2 463.1 393.9 463.0 397.9 C 463.0 400.7 463.4 398.9 463.4 402.4 C 462.9 405.9 462.9 399.7 462.5 398.0 C 462.2 401.0 462.7 404.4 462.2 405.6 C 461.8 401.8 462.1 395.6 462.2 390.6 C 461.7 391.0 462.4 382.2 461.7 381.7 C 461.9 380.9 462.0 380.0 462.1 378.6 C 461.7 377.3 462.2 375.5 462.2 374.1 C 462.0 374.0 461.8 374.5 461.7 375.7 C 461.9 369.5 461.9 368.0 461.7 360.8 C 461.9 359.5 462.2 358.1 462.5 357.4 C 462.5 359.2 462.6 360.8 462.7 361.9 C 462.8 351.9 461.7 358.7 462.4 351.5 C 462.1 351.9 461.7 356.8 461.6 353.2 C 462.1 346.8 461.6 338.0 462.7 337.9 C 463.1 332.1 462.4 328.6 462.9 325.8 C 462.8 324.0 462.7 323.5 462.6 322.8 C 462.4 324.7 462.2 327.0 462.0 329.1 C 462.1 332.4 461.8 334.0 462.4 330.5 C 462.4 335.5 462.1 336.9 462.0 339.6 C 461.7 332.9 462.0 326.4 461.4 326.4 C 461.7 324.0 461.9 322.1 462.2 320.1 C 461.9 319.5 461.8 311.8 462.2 311.0 C 462.1 316.3 462.6 321.5 462.9 316.7 C 462.6 303.9 463.3 296.3 462.9 285.1 C 463.1 284.7 463.3 285.4 463.4 283.4 C 463.2 283.5 463.0 283.2 462.9 282.0 C 462.9 278.5 463.1 276.4 463.0 271.6 C 463.4 271.6 463.7 270.7 463.8 268.0 C 463.4 266.8 462.6 262.4 462.7 259.5 C 462.8 262.5 463.2 258.3 463.3 256.3 C 462.7 258.4 463.7 242.4 463.1 247.2 C 463.1 241.1 463.3 238.3 463.5 238.0 C 463.4 235.8 463.3 234.3 463.3 232.2 C 463.8 230.4 463.4 220.0 463.7 218.3 C 463.4 222.2 464.1 222.4 464.0 219.5 C 463.7 217.7 463.4 208.2 463.5 206.4 C 463.7 206.9 464.1 207.3 464.2 211.9 C 464.2 203.9 463.6 204.4 463.3 202.1 C 463.8 201.9 463.3 198.6 463.3 197.5 C 463.5 194.8 463.4 197.5 463.8 197.1 C 463.8 194.2 464.1 193.0 464.0 189.3 C 463.6 190.7 463.8 186.4 463.9 184.9 C 463.6 184.5 463.4 182.6 463.4 179.3 C 464.1 183.2 464.1 159.5 463.7 165.5 C 463.3 161.2 464.1 160.4 464.0 154.6 C 464.0 154.3 463.9 153.7 463.9 153.2 C 462.7 153.3 461.8 153.3 463.7 153.5 C 463.7 153.5 463.7 153.5 463.7 153.5 C 463.7 153.5 463.7 153.5 463.7 153.5 C 459.0 153.6 462.2 153.0 456.4 153.2 C 458.4 153.7 450.9 153.1 451.6 153.7 C 449.8 153.0 444.4 154.0 440.2 153.3 C 440.1 153.5 438.8 153.5 438.4 153.6 C 437.5 153.8 443.9 153.9 439.7 154.0 C 434.9 153.7 437.7 153.6 437.1 153.3 C 423.5 153.5 407.2 153.3 392.8 153.2 C 394.5 153.4 394.3 153.5 391.3 153.6 C 387.3 152.8 370.4 153.2 367.7 153.5 C 366.2 153.0 357.5 153.5 355.9 153.2 C 357.7 153.3 361.0 152.8 357.4 152.8 C 355.1 153.3 352.0 153.0 348.6 153.3 C 346.8 152.8 336.4 153.4 341.0 152.6 C 338.9 152.6 337.8 152.5 336.6 152.4 C 336.5 152.9 334.4 152.8 338.2 153.1 C 328.4 152.7 326.2 153.2 318.7 152.8 C 317.5 153.1 323.4 153.3 318.9 153.3 C 318.9 153.3 318.9 153.2 318.8 153.1 C 317.2 153.1 316.7 153.3 315.9 153.1 C 316.1 152.9 318.6 152.9 318.6 152.4 C 315.0 152.6 312.3 152.0 311.2 152.4 C 316.3 152.5 313.1 153.2 309.9 152.8 C 312.5 152.6 298.2 152.8 293.7 153.1 C 291.1 152.6 298.7 153.0 298.0 152.7 C 289.3 152.8 289.9 152.6 289.2 153.1 C 284.5 153.0 282.6 152.7 277.3 152.9 C 274.0 152.8 278.9 152.6 275.5 152.6 C 273.6 152.7 272.9 152.9 269.9 152.9 C 266.5 152.6 261.8 152.6 256.7 152.7 C 256.8 161.0 257.0 170.5 256.2 175.4 C 256.5 172.0 256.8 177.1 256.7 182.0 C 256.6 182.1 256.4 181.3 256.3 183.1 C 256.6 183.0 256.8 184.8 256.7 188.0 C 256.6 188.2 256.4 187.4 256.3 189.1 C 256.8 190.9 256.4 194.5 256.6 197.1 C 256.2 197.7 256.4 191.3 256.1 190.5 C 255.8 198.1 256.3 199.9 256.1 205.7 C 256.1 202.5 255.7 207.5 255.6 208.3 C 256.0 207.4 256.2 212.3 256.5 209.1 C 256.5 211.3 256.5 214.8 256.4 215.1 C 256.3 213.9 256.3 212.0 256.2 211.9 C 256.3 214.8 255.8 217.9 256.2 219.6 C 256.3 217.7 256.4 216.6 256.6 216.8 C 256.8 217.7 256.9 218.7 257.0 220.3 C 256.0 215.1 256.5 228.1 256.7 229.1 C 256.1 229.7 256.1 230.4 255.8 229.8 C 255.8 235.1 256.2 234.7 256.4 237.9 C 255.9 236.6 255.5 235.3 255.3 240.0 C 255.8 239.4 255.8 245.3 256.4 244.0 C 256.5 256.7 255.9 258.9 256.0 266.5 C 256.1 266.8 256.2 264.4 256.2 266.7 C 256.1 270.2 255.9 273.2 255.7 275.4 C 256.0 277.5 256.1 274.9 256.2 277.2 C 255.8 282.6 255.4 280.9 255.1 285.5 C 255.4 291.9 255.1 289.5 255.6 293.5 C 255.6 291.9 255.8 290.0 255.8 292.2 C 255.5 295.6 255.0 296.8 254.9 297.6 C 254.9 294.9 255.0 292.9 255.1 291.6 C 254.8 290.5 254.8 286.8 254.5 289.7 C 254.6 285.9 254.7 281.7 254.7 276.0 C 254.2 277.6 254.6 271.0 254.1 272.6 C 254.2 278.9 253.9 280.2 254.0 286.2 C 254.5 285.2 254.2 291.3 254.1 292.4 C 254.4 292.6 254.3 296.7 254.7 295.9 C 254.8 300.6 254.4 300.2 254.5 304.9 C 254.4 305.1 254.2 304.3 254.1 306.1 C 254.6 308.0 254.0 309.1 254.0 310.6 C 254.4 309.9 254.2 316.4 254.5 317.1 C 254.5 315.3 254.5 312.8 254.7 312.6 C 254.6 320.0 255.0 314.3 255.3 313.1 C 255.1 313.2 254.6 310.1 254.9 309.8 C 255.2 316.3 255.6 301.5 255.4 307.1 C 255.3 311.7 255.7 311.7 255.6 316.4 C 254.9 321.5 254.5 314.5 253.9 319.7 C 254.2 323.4 254.1 325.7 254.5 326.3 C 254.4 326.9 254.2 327.7 254.1 329.0 C 254.4 330.6 254.6 324.8 254.7 329.4 C 254.6 331.7 254.0 328.6 254.1 333.6 C 254.5 335.9 254.5 327.9 254.7 332.5 C 254.0 336.8 254.8 331.6 254.9 337.1 C 254.8 337.5 254.8 338.4 254.8 340.2 C 254.6 340.3 254.3 339.4 254.3 341.3 C 254.9 342.8 254.0 343.2 254.1 347.3 C 254.6 349.9 254.4 343.3 254.8 344.8 C 254.3 349.0 254.9 352.1 254.8 353.8 C 254.4 349.9 254.5 359.4 254.1 359.5 C 254.6 358.8 254.4 360.7 254.8 366.2 C 254.0 366.0 254.6 372.3 254.0 373.2 C 254.2 374.1 254.3 375.7 254.5 376.5 C 254.5 374.8 254.6 373.0 254.8 373.7 C 254.8 375.2 254.8 376.7 254.8 378.3 C 254.5 380.7 253.6 373.6 253.7 383.8 C 254.3 382.9 254.3 387.3 254.5 390.2 C 255.0 390.2 254.5 386.2 254.8 385.9 C 255.1 389.5 254.7 392.9 254.5 394.8 C 254.7 400.9 254.5 407.7 254.7 416.3 C 254.3 418.1 254.3 409.0 254.1 414.5 C 254.1 416.9 254.5 415.9 254.4 419.1 C 252.7 415.2 254.1 441.9 253.4 443.1 C 253.7 444.4 253.5 451.6 254.0 451.1 C 253.6 446.0 254.2 442.8 254.4 440.6 C 254.2 435.8 254.0 444.5 253.9 440.3 C 254.1 440.0 253.9 433.6 254.3 434.4 C 254.3 441.0 254.7 431.2 255.1 436.3 C 255.0 442.3 255.4 454.6 254.9 451.5 C 255.1 451.6 255.1 448.9 254.9 448.6 C 254.7 455.3 255.0 459.5 255.3 462.4 C 255.0 465.4 255.6 477.8 255.3 474.6 C 255.0 475.5 255.4 467.4 255.1 468.4 C 254.9 480.9 255.2 481.4 254.9 489.6 C 255.4 487.1 255.6 498.6 255.4 497.5 C 255.0 497.4 254.7 499.7 255.2 505.0 C 254.8 504.1 254.6 506.7 254.5 509.3 C 254.9 510.7 254.9 507.2 255.2 508.0 C 255.2 510.5 255.2 513.2 255.2 515.7 C 255.0 515.8 254.8 515.2 254.8 517.0 C 255.0 519.9 255.4 530.3 255.2 529.3 C 254.7 524.8 254.7 536.2 254.4 529.0 C 254.4 531.0 254.2 531.1 254.3 533.6 C 254.4 533.7 254.6 533.7 254.8 533.8 C 254.8 539.5 254.2 536.4 254.1 541.1 C 254.3 541.7 254.4 543.7 254.5 544.4 C 254.5 542.5 254.4 542.3 254.4 539.7 C 255.0 542.8 254.8 534.8 255.2 535.4 C 255.2 540.8 254.9 540.7 254.7 542.8 C 254.9 549.6 254.8 546.4 254.7 553.5 C 254.8 553.6 254.8 551.7 255.1 552.2 C 254.9 560.7 254.1 559.6 254.4 565.6 C 254.4 564.3 254.1 558.8 254.0 562.5 C 254.2 566.6 254.6 567.9 254.7 573.3 C 254.5 573.5 254.3 573.0 254.3 574.8 C 254.4 577.1 254.8 577.3 254.9 579.5 C 254.7 579.8 254.8 582.9 254.9 584.1 C 254.6 585.9 254.5 583.2 254.4 585.5 C 254.4 590.0 255.3 592.7 255.2 596.3 C 254.7 596.0 254.8 600.2 254.9 604.0 C 254.4 604.4 254.5 612.3 254.4 617.5 C 254.8 616.4 254.7 621.7 255.1 620.7 C 255.0 618.1 255.1 616.8 255.3 616.3 C 255.4 622.2 254.5 623.8 255.2 628.4 C 254.9 630.6 254.7 633.3 254.5 637.3 C 254.8 637.8 254.9 630.3 255.1 634.5 C 254.9 634.7 255.0 636.1 255.1 637.4 C 254.6 636.8 254.5 640.0 254.3 641.9 C 254.6 645.5 254.0 652.8 254.5 649.5 C 254.6 655.2 253.9 651.3 253.9 655.6 C 254.4 653.5 254.5 661.0 254.8 657.3 C 254.9 663.1 254.2 662.5 254.0 660.1 C 253.9 665.5 254.3 666.7 254.0 669.4 C 254.4 666.9 254.6 675.1 254.4 670.9 C 254.0 669.5 254.2 675.8 254.0 676.9 C 254.3 675.1 254.3 677.9 254.5 674.1 C 254.6 678.1 254.7 684.0 254.3 687.7 C 254.5 692.8 254.5 697.5 254.1 695.3 C 254.2 700.0 254.2 698.2 254.1 703.0 C 254.3 703.0 254.3 701.7 254.4 701.4 C 254.4 707.9 254.1 706.6 254.1 715.2 C 253.6 714.1 253.7 719.6 253.4 721.2 C 253.4 717.7 253.5 714.8 253.6 712.0 C 253.4 711.4 253.3 714.2 253.2 712.0 C 253.4 711.7 253.4 710.4 253.5 709.0 C 253.1 714.5 252.8 701.8 253.2 705.9 C 253.1 705.9 253.1 706.2 253.1 707.4 C 253.5 706.4 253.4 706.3 253.8 707.4 C 253.6 704.6 254.1 702.4 253.8 701.3 C 253.6 701.4 253.6 704.1 253.5 704.4 C 253.2 697.4 254.0 702.4 253.9 696.9 C 253.4 695.6 253.3 698.4 253.1 699.8 C 253.1 694.7 253.1 690.4 253.4 689.1 C 253.2 684.4 253.0 689.3 252.8 686.0 C 253.0 684.4 253.3 684.6 253.4 681.5 C 253.2 678.0 253.0 683.4 253.0 679.9 C 253.2 676.2 253.5 682.5 253.6 676.9 C 253.0 678.1 253.7 671.8 253.4 672.2 C 253.4 675.5 252.8 675.4 253.2 673.8 C 253.8 666.5 252.3 661.0 253.2 653.9 C 253.1 653.9 253.1 652.7 253.0 652.3 C 252.7 657.8 252.7 666.0 252.1 667.4 C 252.2 671.9 252.6 671.4 252.7 672.1 C 252.2 677.3 252.1 676.8 251.5 673.6 C 251.4 664.8 251.8 661.1 251.9 655.3 C 251.6 652.1 251.8 655.6 251.5 656.7 C 252.0 638.7 250.8 652.2 250.9 645.8 C 251.1 646.0 251.2 644.7 251.3 642.9 C 251.1 642.9 251.2 640.2 251.0 639.7 C 251.0 640.9 250.9 641.5 250.8 641.2 C 250.6 636.6 251.0 638.5 251.3 638.3 C 251.2 641.7 251.3 644.0 251.5 644.5 C 251.3 639.9 251.7 636.6 251.3 633.6 C 251.8 629.6 252.4 636.1 252.8 634.0 C 253.1 634.8 251.8 630.9 251.7 627.6 C 251.7 622.1 251.3 621.8 251.3 616.7 C 251.7 615.5 251.4 621.9 251.8 621.5 C 251.8 620.0 251.9 619.7 251.9 618.4 C 251.9 614.8 251.5 615.0 251.4 612.2 C 251.8 610.8 251.6 609.8 251.4 607.7 C 251.6 604.3 251.7 609.7 251.8 606.1 C 251.9 602.4 251.3 599.6 251.4 598.4 C 251.6 598.1 251.8 598.8 251.8 597.0 C 251.5 592.6 251.5 591.6 251.3 596.9 C 251.3 592.1 251.2 590.0 250.7 590.6 C 250.7 597.8 250.8 599.6 250.2 602.7 C 250.7 604.2 250.3 606.2 250.2 608.9 C 250.9 607.4 250.3 612.0 250.6 613.6 C 250.7 611.8 250.8 610.0 250.9 609.0 C 250.8 616.6 250.8 616.5 251.4 622.9 C 251.2 622.9 251.1 623.6 251.0 624.3 C 250.8 622.3 251.0 616.8 250.6 616.6 C 250.1 620.8 250.9 622.5 250.4 627.3 C 250.7 629.5 250.8 623.4 250.9 627.4 C 250.6 629.3 250.4 631.8 250.2 634.9 C 250.3 638.2 250.5 639.9 250.6 642.6 C 250.5 642.9 250.3 643.2 250.4 645.7 C 250.5 645.6 250.7 643.1 250.8 645.8 C 250.2 653.8 249.9 659.1 250.1 667.2 C 250.2 664.4 250.7 658.0 250.6 661.2 C 250.4 664.7 250.9 669.7 250.5 673.4 C 250.4 674.6 250.6 669.0 250.0 670.2 C 250.0 673.8 250.0 676.0 249.8 677.8 C 250.1 677.9 250.0 682.0 250.4 681.0 C 250.4 678.1 249.9 677.1 250.1 676.4 C 251.2 679.1 249.7 687.5 249.7 693.2 C 249.9 697.0 250.1 690.4 250.2 694.8 C 250.4 697.5 249.5 698.9 249.3 694.7 C 249.5 691.9 249.0 690.6 249.5 690.1 C 249.4 688.8 249.5 687.1 249.3 687.0 C 249.3 689.1 249.0 688.6 248.9 690.0 C 249.0 687.0 248.2 686.4 248.7 683.8 C 248.7 685.6 248.8 686.2 248.9 687.0 C 248.8 678.7 249.1 676.2 249.3 671.6 C 249.1 674.1 249.2 671.4 248.8 671.5 C 248.9 675.1 248.7 681.8 248.5 677.6 C 249.0 675.0 247.8 672.6 248.3 669.9 C 248.3 672.0 248.6 671.8 248.7 673.0 C 248.7 669.8 249.0 670.0 249.1 666.9 C 248.5 656.7 249.5 649.3 248.7 633.1 C 248.7 627.5 248.8 638.2 249.2 637.8 C 249.2 636.2 249.3 635.9 249.3 634.7 C 248.9 634.5 249.3 631.9 248.9 630.0 C 249.3 630.4 249.0 622.8 249.3 619.3 C 249.2 619.1 248.9 619.5 248.9 617.7 C 249.5 606.6 248.7 586.0 249.2 577.7 C 248.9 577.9 248.9 574.2 248.7 573.0 C 248.8 567.7 249.1 570.2 248.7 562.2 C 248.6 558.3 249.0 563.1 249.1 563.9 C 248.9 552.1 249.3 542.0 248.8 534.5 C 248.7 530.7 249.1 534.6 249.2 527.0 C 248.6 526.6 249.5 515.0 248.8 513.1 C 248.7 508.4 249.5 500.3 248.9 503.8 C 248.9 497.5 249.4 501.9 249.4 499.4 C 249.4 495.0 248.5 500.3 248.4 495.9 C 248.8 496.6 248.7 492.7 249.1 490.1 C 249.0 493.5 249.1 495.8 249.3 496.3 C 249.1 493.2 249.4 493.5 249.3 488.7 C 249.1 485.0 248.7 474.5 249.3 471.7 C 249.1 471.5 249.0 472.4 248.9 473.1 C 248.9 470.0 249.3 466.6 248.8 466.8 C 248.8 459.9 249.2 457.2 248.8 453.0 C 248.6 450.0 249.2 454.3 249.2 445.4 C 248.8 445.1 248.9 429.5 249.2 425.5 C 248.6 425.0 249.2 424.4 249.2 422.5 C 249.0 422.1 248.8 422.4 248.8 420.6 C 249.0 420.4 248.9 419.0 248.8 417.6 C 249.4 419.0 248.6 411.8 249.1 411.6 C 249.1 413.0 249.4 413.2 249.5 411.8 C 249.0 411.1 249.7 405.1 249.3 405.6 C 249.2 406.9 249.3 411.3 248.9 409.9 C 248.8 403.8 249.3 406.5 249.3 402.5 C 249.2 402.7 249.0 405.0 248.9 402.2 C 249.0 398.1 249.0 402.0 249.3 399.5 C 249.2 397.2 248.9 393.0 248.9 391.4 C 248.9 391.9 249.2 390.7 249.2 390.1 C 249.4 382.3 248.9 364.0 249.5 356.5 C 249.3 355.8 249.2 354.1 248.9 354.5 C 249.2 350.1 249.0 350.3 249.2 345.6 C 249.0 345.5 248.8 345.3 248.7 345.2 C 248.5 338.9 249.2 345.0 249.2 340.9 C 248.3 339.9 249.5 338.7 249.5 335.0 C 249.3 334.4 249.2 332.5 248.9 332.9 C 248.9 327.1 249.6 327.8 249.3 322.6 C 249.3 323.7 248.0 323.7 247.6 322.9 C 247.8 322.1 248.0 320.7 248.0 318.5 C 248.4 321.5 249.9 321.1 249.5 313.4 C 249.5 317.5 249.4 318.9 249.1 317.7 C 249.0 312.2 249.3 310.4 249.3 305.6 C 248.9 304.6 248.9 308.0 248.4 306.5 C 248.4 305.2 248.3 304.6 248.2 304.8 C 248.2 299.7 248.5 299.8 248.3 294.0 C 248.5 294.2 248.6 295.5 248.4 297.3 C 248.7 297.2 249.0 297.5 249.1 300.8 C 248.8 301.1 248.4 298.8 248.5 303.5 C 248.8 303.7 249.0 303.9 249.2 304.0 C 249.2 300.6 249.5 292.7 249.3 291.8 C 249.2 293.4 249.1 296.0 248.7 294.3 C 248.8 288.6 249.2 287.3 249.5 282.6 C 249.3 274.2 249.4 259.4 248.8 260.7 C 249.0 255.7 249.0 257.5 249.1 253.1 C 248.6 254.1 248.9 247.8 248.5 248.0 C 248.7 253.7 248.6 251.9 248.7 257.4 C 248.4 257.1 248.2 256.0 248.2 253.8 C 248.4 253.7 248.5 251.5 248.4 247.9 C 248.3 248.4 247.9 251.4 247.9 247.5 C 248.0 247.3 248.0 246.4 248.0 244.6 C 248.2 244.8 248.5 244.9 248.7 245.1 C 248.8 247.3 248.9 249.9 249.1 251.6 C 249.1 250.1 249.2 249.9 249.2 248.5 C 249.0 247.5 249.2 241.4 248.9 240.7 C 249.0 243.3 248.8 244.7 248.7 242.0 C 248.7 241.6 248.9 237.5 248.7 235.8 C 248.5 241.0 248.4 238.9 248.0 241.4 C 247.9 235.2 248.4 236.5 248.3 229.3 C 248.6 229.4 248.9 229.7 249.1 231.6 C 249.8 227.8 249.1 216.7 249.2 213.3 C 249.1 215.7 249.7 218.8 249.7 215.3 C 249.5 215.1 249.6 212.5 249.5 211.9 C 248.7 210.0 248.3 212.8 247.9 215.2 C 247.9 212.3 247.7 211.6 247.8 208.9 C 248.0 208.2 248.6 211.6 248.7 208.2 C 248.0 206.9 248.6 201.7 248.2 200.1 C 248.2 202.5 248.0 204.0 247.9 201.3 C 248.2 202.1 248.0 197.0 248.3 197.0 C 248.5 201.3 248.8 202.6 248.8 205.2 C 248.8 202.0 249.2 207.9 249.2 202.5 C 248.9 199.9 248.5 198.3 248.6 192.6 C 248.6 190.6 249.1 192.9 249.1 190.1 C 248.7 190.5 248.6 184.3 248.9 188.3 C 248.9 186.2 249.0 185.1 249.1 184.0 C 248.7 186.6 248.2 171.5 247.9 173.5 C 248.5 174.1 248.9 173.8 249.1 173.2 C 248.6 169.9 249.0 166.9 248.9 159.1 C 248.4 158.9 248.9 157.8 248.8 154.5 C 248.6 153.6 248.5 156.4 248.4 154.1 C 248.6 150.5 248.6 150.4 248.8 149.8 C 248.8 147.7 248.8 146.1 248.9 144.8 C 249.3 144.8 249.7 144.9 250.1 144.9 C 250.1 144.7 249.4 144.6 248.6 144.6 C 248.6 144.7 248.6 144.8 248.6 144.9 C 248.6 144.8 248.6 144.6 248.6 144.5 C 259.5 144.9 264.6 144.4 273.8 144.5 C 269.7 144.3 269.5 144.9 272.5 144.9 C 274.4 144.8 276.0 144.8 277.0 144.6 C 274.5 144.3 275.6 144.5 280.2 144.5 C 284.1 144.3 278.2 143.9 281.3 143.8 C 284.9 144.1 283.0 144.3 285.0 144.4 C 286.5 144.4 288.2 144.4 289.8 144.4 C 286.7 144.1 289.9 144.0 292.6 143.8 C 290.9 144.3 292.2 144.4 297.7 144.2 C 298.5 144.5 295.6 144.6 297.9 144.6 C 299.2 144.7 303.3 144.1 307.4 144.5 C 306.2 144.5 305.6 144.6 306.0 144.8 C 310.0 144.5 313.6 145.0 317.3 145.2 C 313.5 144.8 315.4 144.5 313.7 144.3 C 317.6 144.6 322.0 144.2 325.1 144.6 C 319.6 144.5 325.2 145.4 328.6 145.4 C 329.3 145.0 323.5 145.1 325.1 144.6 C 326.9 144.3 331.3 144.9 333.0 144.5 C 332.7 144.3 330.6 144.6 329.9 144.4 C 332.8 144.4 328.9 144.2 331.4 144.1 C 333.0 144.6 334.6 144.0 336.2 144.0 C 338.3 144.1 342.6 144.7 344.3 144.4 C 344.2 144.2 341.4 144.3 341.1 144.1 C 349.9 143.9 352.6 144.5 360.4 144.0 C 361.3 144.2 362.9 144.3 365.2 144.4 C 365.1 144.2 366.5 144.0 368.4 144.0 C 371.8 144.2 375.3 144.4 379.6 144.5 C 378.8 144.8 376.7 145.0 382.6 145.0 C 383.0 144.9 380.5 144.8 382.7 144.8 C 382.7 144.8 384.1 144.9 384.4 144.8 C 384.4 144.7 384.4 144.6 384.5 144.5 C 382.7 144.5 381.2 144.5 379.6 144.5 C 379.8 144.3 379.4 144.1 378.1 144.0 C 385.2 143.8 384.6 144.6 389.2 144.3 C 389.8 144.9 391.4 145.0 387.4 145.4 C 391.4 145.3 394.3 145.1 395.5 144.8 C 390.6 144.8 392.3 144.3 391.0 144.1 C 394.1 144.2 394.2 143.9 395.8 143.9 C 399.3 144.2 391.8 144.6 398.8 144.6 C 393.6 144.2 403.3 144.2 406.9 144.4 C 406.3 144.2 405.1 144.2 407.0 144.0 C 416.7 143.7 415.3 145.1 421.3 144.4 C 420.7 144.6 423.3 144.6 424.3 144.8 C 419.6 144.9 418.3 145.0 416.2 145.0 C 416.5 145.2 417.8 145.2 419.2 145.3 C 419.3 145.1 420.6 145.0 422.5 145.2 C 424.1 144.9 423.9 144.3 427.9 144.0 C 428.1 144.2 427.5 144.4 429.4 144.4 C 431.3 144.1 427.6 145.1 435.5 144.9 C 434.2 144.8 433.5 144.6 434.3 144.3 C 438.2 144.1 437.3 144.3 442.4 144.1 C 443.8 144.8 438.4 144.9 436.7 145.3 C 440.2 145.2 443.4 144.8 446.6 145.0 C 444.1 144.8 447.0 144.5 450.2 144.4 C 452.9 144.5 449.6 145.0 452.9 145.0 C 455.7 144.9 457.4 144.6 455.1 144.4 C 460.9 144.5 459.9 144.1 464.8 144.1 C 464.8 144.4 463.3 144.4 461.6 144.3 C 461.8 144.4 460.9 144.6 462.8 144.7 C 465.2 144.4 469.2 144.3 472.9 144.2 C 473.0 145.9 473.0 147.4 473.1 148.6 C 472.4 156.1 473.3 163.3 473.0 170.5 C 472.6 168.0 472.9 179.7 472.5 183.4 C 472.6 185.4 473.4 191.2 473.1 189.0 C 472.5 190.1 472.8 194.1 472.6 197.4 C 472.7 197.3 472.9 197.1 473.0 197.0 C 473.1 204.0 472.7 205.8 472.3 208.3 C 472.6 216.6 472.0 226.2 472.5 236.2 C 472.0 239.1 472.1 241.3 471.8 247.5 C 472.2 247.1 472.2 252.0 472.2 256.5 C 472.6 255.2 472.5 259.5 472.7 259.3 C 472.8 255.2 473.2 256.5 473.4 254.2 C 473.0 259.9 473.8 262.2 473.4 266.7 C 473.2 261.5 472.7 260.1 472.1 259.8 C 472.2 266.0 472.0 269.5 471.7 270.9 C 472.0 271.2 472.2 270.3 472.3 268.8 C 472.3 270.9 472.3 273.1 472.3 275.0 C 472.1 275.8 472.0 273.0 471.9 275.3 C 472.1 276.7 472.2 278.3 472.3 279.7 C 471.9 281.8 472.0 277.5 471.8 277.0 C 471.6 285.4 472.5 281.3 472.6 285.8 C 472.3 287.1 471.9 287.1 471.8 290.9 C 472.1 292.3 472.4 292.5 472.5 296.7 C 472.4 299.5 471.9 296.9 471.8 300.1 C 472.0 300.5 471.9 301.9 471.8 303.3 C 472.0 303.0 472.2 304.3 472.2 306.1 C 472.0 306.6 472.1 309.6 472.2 310.8 C 472.0 311.2 471.5 316.2 471.8 317.2 C 472.0 317.1 471.9 314.4 472.1 314.0 C 472.0 317.5 472.1 319.9 472.2 321.7 C 471.3 323.1 472.0 328.6 471.6 335.8 C 471.9 340.1 472.2 334.7 472.5 340.2 C 472.2 343.6 472.1 339.6 471.7 340.5 C 471.7 341.4 471.4 346.6 471.7 346.7 C 471.9 346.6 471.8 343.9 472.0 343.5 C 472.3 347.5 471.8 347.5 471.7 349.8 C 472.0 349.4 472.1 352.1 472.3 352.6 C 472.6 363.7 471.9 363.8 471.6 368.4 C 471.7 368.4 471.7 371.1 471.8 371.4 C 471.7 368.2 472.0 363.9 472.1 368.3 C 471.9 367.6 472.1 374.0 472.2 374.4 C 472.4 373.6 472.3 369.6 472.7 371.1 C 472.9 377.0 472.1 374.8 472.5 379.1 C 472.2 379.6 472.2 377.0 472.1 376.0 C 472.1 377.8 472.1 380.4 471.9 380.7 C 471.8 378.5 471.5 378.5 471.3 377.7 C 471.6 380.6 471.3 386.1 471.8 382.2 C 471.7 388.5 472.0 394.3 472.3 390.0 C 472.4 395.0 471.9 392.2 472.2 396.2 C 471.8 395.7 471.5 394.5 471.2 397.9 C 471.4 398.5 471.5 401.2 471.8 400.8 C 471.8 408.2 471.4 410.4 471.0 413.5 C 471.7 410.7 471.2 414.4 471.6 417.9 C 471.4 420.2 470.9 418.2 471.0 424.2 C 471.6 417.6 471.2 431.7 471.8 428.8 C 471.5 436.5 471.5 436.3 471.4 444.3 C 471.1 443.6 471.0 441.6 470.9 438.2 C 471.3 440.6 471.3 431.4 471.0 432.0 C 470.9 432.0 470.9 432.0 470.8 432.0 C 470.8 437.9 470.7 441.8 470.5 444.4 C 470.8 445.6 471.0 448.3 471.4 447.4 C 470.9 452.9 471.6 458.8 471.2 461.4 C 471.1 459.4 471.1 457.6 470.9 458.2 C 471.0 460.5 471.1 463.2 471.4 462.9 C 471.5 458.4 471.6 457.5 471.3 455.2 C 471.6 457.2 471.8 450.7 471.9 455.2 C 471.3 455.0 472.2 464.4 471.8 461.4 C 471.6 456.4 471.5 467.0 471.2 467.4 C 471.2 467.4 471.2 467.4 471.2 467.4 Z M 249.1 668.4 C 249.3 673.1 249.6 667.4 249.6 664.0 C 249.5 665.0 249.3 665.4 249.1 665.4 C 249.1 666.8 249.2 668.1 249.1 668.4 C 249.1 668.4 249.1 668.4 249.1 668.4 Z M 254.8 620.6 C 254.3 619.0 254.6 626.6 254.5 629.7 C 254.6 628.9 254.8 627.9 254.8 629.8 C 255.1 626.6 254.4 625.3 254.8 620.6 C 254.8 620.6 254.8 620.6 254.8 620.6 Z M 253.4 450.7 C 253.4 452.0 253.6 455.0 253.4 455.2 C 253.4 457.0 253.6 456.7 253.7 457.0 C 253.8 460.6 253.2 455.8 253.4 461.5 C 254.1 463.9 254.3 452.4 253.4 450.7 C 253.4 450.7 253.4 450.7 253.4 450.7 Z M 465.4 409.6 C 465.1 411.8 464.8 406.7 464.4 408.3 C 464.7 416.6 465.2 410.0 465.1 421.7 C 465.2 421.0 465.3 420.1 465.5 420.2 C 465.3 414.8 465.0 414.4 465.7 415.6 C 465.7 413.1 464.9 412.6 465.4 409.6 C 465.4 409.6 465.4 409.6 465.4 409.6 Z M 463.7 518.6 C 463.8 517.7 463.9 517.0 464.0 517.0 C 463.9 513.4 463.8 514.2 463.9 509.5 C 463.3 510.0 463.4 514.5 463.7 518.6 C 463.7 518.6 463.7 518.6 463.7 518.6 Z M 424.4 765.4 C 423.4 765.4 422.3 765.4 421.3 765.4 C 422.2 765.7 419.9 766.2 424.9 766.1 C 425.1 766.0 424.2 766.0 423.3 766.0 C 424.1 765.8 426.6 765.8 425.9 765.6 C 424.6 765.6 424.4 765.5 424.4 765.4 C 424.4 765.4 424.4 765.4 424.4 765.4 Z M 305.7 769.1 C 311.5 768.7 296.8 767.7 305.7 769.1 C 305.7 769.1 305.7 769.1 305.7 769.1 C 305.7 769.1 305.7 769.1 305.7 769.1 Z M 319.3 773.6 C 319.5 773.8 320.9 773.7 320.8 773.6 C 326.0 773.8 321.1 773.9 324.0 774.2 C 328.0 773.8 321.7 773.5 326.9 773.2 C 325.8 773.0 322.4 773.6 319.3 773.6 C 319.3 773.6 319.3 773.6 319.3 773.6 Z M 414.7 144.6 C 410.3 144.7 408.9 145.1 407.9 145.5 C 410.9 145.6 413.3 145.6 414.2 145.8 C 419.8 145.6 410.6 145.5 409.7 145.4 C 410.5 145.1 414.5 145.0 414.7 144.6 C 414.7 144.6 414.7 144.6 414.7 144.6 Z M 400.3 144.8 C 398.4 144.9 395.5 145.1 395.3 145.4 C 398.1 145.3 398.3 145.5 398.4 145.7 C 401.0 145.4 398.0 145.2 400.3 144.8 C 400.3 144.8 400.3 144.8 400.3 144.8 Z M 427.2 145.1 C 425.2 145.2 425.8 145.5 425.4 145.7 C 428.3 145.6 428.7 145.8 431.6 145.8 C 431.7 145.7 431.8 145.5 431.9 145.4 C 429.4 145.4 429.2 145.5 427.0 145.5 C 427.1 145.4 427.1 145.3 427.2 145.1 C 427.2 145.1 427.2 145.1 427.2 145.1 Z M 385.8 145.3 C 377.5 145.2 373.7 145.9 368.2 146.4 C 374.2 146.4 379.7 145.6 384.0 145.8 C 389.3 145.7 382.4 145.5 382.6 145.4 C 382.7 145.3 384.6 145.3 385.8 145.3 C 385.8 145.3 385.8 145.3 385.8 145.3 Z M 312.6 145.3 C 310.7 145.0 307.9 145.6 303.1 145.5 C 304.1 145.6 304.9 145.7 305.0 145.9 C 311.8 146.1 307.5 145.3 312.6 145.3 C 312.6 145.3 312.6 145.3 312.6 145.3 Z M 273.0 145.5 C 268.9 145.6 275.4 145.8 273.4 146.1 C 278.1 146.1 283.0 146.1 282.6 145.7 C 277.8 145.9 276.7 145.9 273.0 145.5 C 273.0 145.5 273.0 145.5 273.0 145.5 Z M 249.6 150.6 C 249.8 155.3 250.1 149.1 250.5 151.5 C 250.5 149.7 250.3 149.9 250.1 149.6 C 250.2 148.6 250.2 147.6 250.2 146.2 C 250.6 146.2 251.0 146.2 251.4 146.2 C 251.1 146.1 250.6 146.1 250.1 146.1 C 250.0 148.0 249.9 151.4 249.6 150.6 C 249.6 150.6 249.6 150.6 249.6 150.6 Z M 471.3 202.9 C 471.2 200.3 470.8 201.4 470.9 195.6 C 470.9 204.4 469.7 200.5 469.9 211.8 C 470.1 209.8 470.2 210.9 470.0 211.7 C 470.3 215.8 470.3 207.4 470.7 211.1 C 470.6 208.0 470.2 210.2 470.2 207.1 C 470.6 203.4 470.8 201.3 471.3 202.9 C 471.3 202.9 471.3 202.9 471.3 202.9 Z M 469.5 212.1 C 469.4 215.3 470.2 214.7 469.8 216.5 C 469.8 218.0 469.9 217.6 470.0 217.8 C 470.0 216.6 470.1 216.4 470.2 216.2 C 470.0 213.6 469.9 211.0 469.5 212.1 C 469.5 212.1 469.5 212.1 469.5 212.1 Z M 469.5 182.8 C 469.7 187.9 469.4 189.7 469.8 191.9 C 469.2 194.2 470.0 195.2 469.5 198.3 C 469.6 203.3 469.8 199.4 470.0 197.8 C 470.2 202.7 469.6 199.4 469.8 204.2 C 470.2 204.7 470.1 198.5 470.6 198.9 C 470.6 195.1 470.3 195.4 470.2 193.1 C 470.2 191.3 470.4 191.7 470.6 191.2 C 470.4 187.0 470.7 187.0 470.7 183.5 C 470.3 182.9 470.2 184.5 470.3 188.5 C 470.1 184.4 469.8 182.9 470.0 177.9 C 470.4 181.0 470.6 165.4 469.9 167.2 C 469.8 171.5 470.2 169.9 470.3 171.5 C 469.9 177.2 470.0 180.5 469.5 182.8 C 469.5 182.8 469.5 182.8 469.5 182.8 Z M 428.1 146.4 C 426.8 146.4 425.6 146.3 423.4 146.3 C 423.5 146.0 426.2 146.1 423.7 145.8 C 420.4 145.7 419.5 145.9 417.3 145.9 C 418.5 146.1 425.3 146.5 421.5 146.7 C 422.5 146.9 424.8 147.0 427.7 147.0 C 424.6 146.4 432.4 146.9 435.6 147.0 C 435.7 146.4 441.0 147.1 443.6 146.7 C 442.0 146.4 435.3 146.7 432.6 146.7 C 434.0 146.6 425.3 145.8 428.1 146.4 C 428.1 146.4 428.1 146.4 428.1 146.4 Z M 469.8 224.2 C 469.9 225.0 470.0 228.4 470.0 225.6 C 470.2 226.9 469.9 229.9 470.6 228.2 C 470.6 229.9 470.6 231.4 470.6 232.9 C 470.4 232.5 470.4 228.2 470.0 230.1 C 470.3 233.1 470.0 232.1 470.0 236.3 C 469.7 234.3 469.6 236.7 469.1 235.4 C 469.3 236.5 469.3 240.2 469.6 239.7 C 469.6 245.6 469.1 238.4 469.1 246.2 C 468.8 246.3 468.8 240.7 469.0 238.7 C 468.6 237.9 468.9 248.4 468.7 254.1 C 469.1 248.8 469.4 252.6 469.8 254.9 C 469.6 256.8 469.5 255.1 469.3 258.4 C 469.2 261.0 469.5 262.2 469.3 263.1 C 469.3 265.1 469.6 264.0 469.8 264.2 C 469.7 267.9 469.2 265.5 469.3 270.7 C 469.8 266.5 469.9 270.9 469.8 278.0 C 469.9 277.5 470.0 275.2 470.2 274.8 C 470.4 275.7 469.9 280.0 469.8 281.2 C 469.9 283.7 470.1 281.9 470.0 279.5 C 470.2 281.0 470.3 282.4 470.4 284.0 C 470.5 276.3 470.4 264.2 470.9 249.6 C 470.6 252.6 470.5 249.5 470.7 245.2 C 470.9 244.4 470.9 246.2 470.9 248.1 C 471.4 242.8 470.4 243.9 470.7 236.0 C 470.8 231.7 471.0 240.4 471.2 235.6 C 471.1 232.8 470.8 231.1 471.2 229.4 C 471.0 224.6 470.5 223.6 470.6 215.9 C 470.3 220.4 469.4 223.1 469.6 227.4 C 469.8 227.3 469.7 225.4 469.8 224.2 C 469.8 224.2 469.8 224.2 469.8 224.2 Z M 398.4 145.9 C 395.6 145.9 394.1 146.1 393.6 145.9 C 388.8 146.1 394.1 146.4 395.0 146.4 C 397.1 146.4 398.0 146.2 398.4 145.9 C 398.4 145.9 398.4 145.9 398.4 145.9 Z M 250.0 468.9 C 249.9 474.7 250.4 473.7 250.4 478.4 C 250.5 474.7 250.8 474.0 250.8 467.8 C 250.4 467.3 250.1 467.2 250.0 468.9 C 250.0 468.9 250.0 468.9 250.0 468.9 Z M 414.0 146.2 C 418.0 145.8 409.1 146.7 409.3 146.3 C 404.7 146.6 413.3 146.5 409.0 147.0 C 412.9 146.7 415.1 147.1 419.9 146.8 C 419.9 146.5 416.1 146.5 412.3 146.6 C 411.9 146.4 413.9 146.3 414.0 146.2 C 414.0 146.2 414.0 146.2 414.0 146.2 Z M 251.0 409.6 C 250.7 405.4 250.3 412.9 250.1 415.2 C 250.6 415.7 250.6 414.4 251.0 409.6 C 251.0 409.6 251.0 409.6 251.0 409.6 Z M 250.6 509.2 C 251.1 511.6 250.6 502.3 251.1 504.8 C 251.2 502.1 251.0 501.7 250.9 501.5 C 251.0 500.2 250.9 495.8 251.3 497.2 C 251.6 496.6 251.2 504.0 251.7 501.8 C 251.7 504.4 251.5 504.5 251.5 506.4 C 251.6 501.9 251.1 503.9 251.0 509.3 C 251.4 509.5 251.3 506.9 251.5 509.6 C 251.4 509.8 251.1 512.5 250.5 512.1 C 250.5 516.9 251.2 514.3 251.2 520.0 C 251.4 519.7 251.4 516.1 251.5 514.0 C 252.0 514.8 251.2 519.9 251.8 518.8 C 251.5 519.8 251.3 523.1 250.9 523.0 C 250.7 518.6 250.5 515.7 250.2 512.0 C 250.0 515.2 250.9 520.4 250.5 525.9 C 250.8 525.4 250.8 528.8 251.2 527.8 C 251.1 532.2 250.6 529.9 250.5 529.0 C 250.2 530.1 250.4 538.9 250.8 538.4 C 250.4 538.9 250.5 549.4 251.0 549.1 C 250.7 552.1 251.3 557.1 250.8 558.3 C 250.9 560.1 250.9 563.7 250.9 567.6 C 251.3 568.8 251.1 562.0 251.4 561.6 C 251.8 560.6 251.3 568.8 251.7 567.9 C 251.8 567.9 251.8 567.9 251.9 567.9 C 251.8 564.8 251.7 561.6 251.5 558.6 C 251.6 556.3 251.7 559.2 251.9 558.7 C 251.7 556.5 251.2 546.5 251.9 546.4 C 251.7 539.8 251.9 535.2 251.5 532.4 C 251.6 528.5 251.8 534.7 252.1 532.6 C 251.5 520.9 252.2 507.1 251.5 497.3 C 251.6 495.2 251.9 496.1 252.1 495.9 C 251.8 482.6 251.2 493.6 251.4 483.4 C 251.8 483.5 251.7 488.4 252.1 488.3 C 252.1 484.7 251.8 483.7 251.9 479.0 C 251.8 478.9 251.6 478.8 251.4 478.7 C 251.4 474.8 251.9 476.6 252.1 474.5 C 251.9 469.6 251.7 470.6 252.2 468.5 C 252.0 463.8 251.9 459.2 252.1 454.5 C 251.8 451.3 251.2 456.9 251.2 461.9 C 251.0 461.5 251.0 460.1 250.9 460.1 C 251.2 454.6 252.0 454.1 252.1 445.4 C 251.6 451.8 251.9 441.9 252.2 440.9 C 252.2 437.3 251.6 439.7 251.7 442.1 C 251.5 441.6 251.7 439.4 251.8 439.2 C 251.2 438.4 250.9 446.6 251.2 455.6 C 250.5 451.2 251.2 461.9 250.4 456.8 C 250.5 464.1 251.0 458.2 250.9 466.2 C 251.1 465.6 251.2 464.1 251.4 463.5 C 251.5 469.6 250.9 467.6 251.0 474.1 C 251.4 475.3 251.3 471.0 251.5 471.2 C 251.2 478.0 251.0 480.2 250.6 484.6 C 250.9 485.6 251.3 484.6 251.0 492.4 C 250.9 492.4 250.8 492.4 250.8 492.3 C 250.8 488.6 250.1 487.4 250.1 496.7 C 250.4 497.4 250.4 494.5 250.4 492.2 C 250.6 493.3 250.7 496.3 250.8 500.0 C 250.7 501.7 250.5 503.7 250.5 501.3 C 250.1 502.7 250.8 504.3 250.6 509.2 C 250.6 509.2 250.6 509.2 250.6 509.2 Z M 320.8 146.2 C 319.6 146.3 318.4 146.3 316.1 146.3 C 315.2 146.7 319.4 146.6 319.5 146.8 C 322.9 146.9 320.1 146.4 320.8 146.2 C 320.8 146.2 320.8 146.2 320.8 146.2 Z M 365.0 146.4 C 364.7 146.1 362.4 146.6 358.7 146.4 C 357.6 146.8 361.9 146.7 361.9 147.0 C 366.2 147.1 360.9 146.3 365.0 146.4 C 365.0 146.4 365.0 146.4 365.0 146.4 Z M 346.1 146.4 C 344.4 146.1 344.4 146.6 347.8 146.6 C 347.5 146.8 346.8 147.0 344.7 147.1 C 347.0 147.5 348.5 146.8 352.4 147.0 C 351.0 146.7 348.9 146.6 346.1 146.4 C 346.1 146.4 346.1 146.4 346.1 146.4 Z M 339.8 146.4 C 337.6 146.7 335.9 146.4 332.0 146.6 C 333.0 146.9 341.7 146.7 343.1 146.6 C 344.4 146.3 335.0 146.3 339.8 146.4 C 339.8 146.4 339.8 146.4 339.8 146.4 Z M 251.5 348.7 C 251.5 350.2 251.7 350.0 251.8 350.3 C 251.2 354.7 251.3 361.4 250.8 355.8 C 251.1 360.9 250.6 365.2 250.5 369.4 C 250.5 372.9 250.9 371.4 250.9 374.2 C 250.8 378.7 250.7 371.7 250.5 372.5 C 250.2 373.2 250.9 375.0 250.6 380.2 C 251.3 379.2 250.6 384.8 251.3 383.6 C 251.0 386.4 251.3 387.5 251.3 391.4 C 251.5 391.1 251.5 387.3 251.8 387.1 C 252.2 385.4 251.4 384.7 251.5 388.4 C 251.1 386.1 251.7 381.0 251.4 379.2 C 251.8 377.5 251.5 384.2 251.9 382.5 C 251.9 381.1 251.8 379.8 251.7 379.4 C 251.7 377.2 251.9 375.8 252.1 375.0 C 252.1 376.3 252.0 376.4 251.9 376.4 C 251.9 379.2 252.6 374.0 252.6 379.9 C 252.7 379.0 252.7 376.4 253.0 377.0 C 253.2 375.4 251.9 376.4 252.3 370.5 C 251.9 366.2 251.9 379.8 251.1 375.9 C 251.3 367.5 251.8 372.6 251.9 365.8 C 251.7 365.7 251.6 365.7 251.5 363.9 C 251.4 364.1 251.4 366.7 251.4 368.4 C 251.3 368.0 251.3 365.5 251.3 363.7 C 251.2 364.0 251.2 365.3 251.0 365.2 C 251.2 359.5 252.0 360.6 252.2 366.0 C 252.5 366.0 252.5 358.9 252.3 356.8 C 252.0 358.5 252.1 356.5 251.7 357.9 C 251.7 359.4 251.8 359.2 251.9 359.7 C 251.8 362.3 251.7 359.7 251.5 359.4 C 251.6 356.3 251.9 356.7 251.7 353.4 C 251.8 354.2 251.9 355.0 252.1 355.1 C 252.1 353.6 252.1 352.0 252.1 350.5 C 251.8 350.5 251.8 348.5 251.5 348.7 C 251.5 348.7 251.5 348.7 251.5 348.7 Z M 250.5 427.7 C 250.4 432.8 250.8 430.2 250.8 427.9 C 250.9 429.0 251.0 430.8 251.0 432.6 C 251.2 431.2 251.1 429.8 251.2 425.1 C 251.7 429.6 252.4 425.6 252.3 418.0 C 251.6 415.3 251.5 421.7 251.0 418.9 C 251.3 424.6 251.0 427.4 250.5 427.7 C 250.5 427.7 250.5 427.7 250.5 427.7 Z M 394.9 146.6 C 391.8 146.6 388.6 146.6 385.6 146.6 C 385.8 147.0 395.5 147.2 394.9 146.6 C 394.9 146.6 394.9 146.6 394.9 146.6 Z M 469.9 290.3 C 469.9 291.6 469.8 291.8 469.8 292.0 C 469.9 296.4 470.1 289.7 470.4 291.6 C 470.4 290.0 470.4 288.5 470.4 287.0 C 470.3 286.8 470.0 293.5 469.9 288.8 C 469.8 289.1 469.8 290.3 469.9 290.3 C 469.9 290.3 469.9 290.3 469.9 290.3 Z M 324.2 146.7 C 321.4 146.9 323.4 147.4 316.5 147.2 C 319.0 147.5 320.5 147.4 324.4 147.4 C 324.4 147.1 324.3 146.9 324.2 146.7 C 324.2 146.7 324.2 146.7 324.2 146.7 Z M 250.9 325.2 C 250.5 328.8 251.4 330.5 251.1 337.6 C 251.7 334.3 251.0 329.6 250.9 325.2 C 250.9 325.2 250.9 325.2 250.9 325.2 Z M 251.5 580.1 C 251.7 577.9 251.7 580.7 251.9 577.0 C 251.8 574.9 251.6 574.0 251.5 570.8 C 251.1 575.0 251.5 582.9 250.9 585.8 C 251.0 589.6 251.4 589.4 251.7 590.7 C 251.6 588.9 251.7 588.0 251.8 587.8 C 251.2 585.4 252.2 582.9 251.5 580.1 C 251.5 580.1 251.5 580.1 251.5 580.1 Z M 251.1 408.2 C 251.4 405.5 251.5 410.3 251.8 411.6 C 251.7 413.6 251.5 412.7 251.3 412.9 C 251.3 415.6 251.5 416.5 251.8 416.2 C 251.9 411.2 251.9 404.9 252.4 408.9 C 252.6 404.1 252.0 406.5 251.9 404.0 C 252.2 401.5 252.3 404.1 252.7 404.5 C 252.6 403.2 252.2 399.2 252.7 399.8 C 252.2 392.2 251.5 395.1 250.9 400.3 C 251.3 405.4 251.5 399.9 251.1 408.2 C 251.1 408.2 251.1 408.2 251.1 408.2 Z M 251.5 213.8 C 251.4 214.1 251.4 216.8 251.3 216.7 C 251.6 220.3 252.1 223.5 252.4 226.8 C 252.8 226.5 252.5 222.0 252.2 223.6 C 252.5 222.5 252.6 219.6 252.8 218.0 C 252.9 215.0 252.1 213.2 252.7 213.3 C 252.5 210.1 252.5 211.9 252.6 207.1 C 252.2 214.5 252.4 204.2 251.9 203.4 C 251.9 207.8 251.9 211.7 252.3 211.5 C 252.2 214.6 252.0 218.1 251.7 218.5 C 251.5 218.1 251.6 215.6 251.5 213.8 C 251.5 213.8 251.5 213.8 251.5 213.8 Z M 252.7 233.1 C 252.6 231.9 252.6 230.6 252.6 228.6 C 252.5 229.6 252.3 229.9 252.1 229.6 C 252.1 233.5 252.3 234.6 251.9 235.6 C 251.9 239.1 252.5 235.2 252.3 240.6 C 252.5 240.2 252.4 237.5 252.6 237.7 C 252.3 237.0 252.2 234.7 252.7 233.1 C 252.7 233.1 252.7 233.1 252.7 233.1 Z M 251.9 279.9 C 252.0 284.0 252.2 278.0 252.4 280.4 C 252.4 279.3 252.5 271.7 252.8 273.1 C 253.4 271.2 252.3 262.6 253.0 263.9 C 252.9 262.1 252.7 262.5 252.6 262.1 C 252.7 267.6 252.4 267.3 252.3 263.4 C 252.1 263.8 252.2 267.2 252.2 269.4 C 252.4 269.9 252.5 267.8 252.7 268.3 C 252.5 272.8 252.2 276.0 251.9 279.9 C 251.9 279.9 251.9 279.9 251.9 279.9 Z M 469.1 458.1 C 469.2 454.5 469.1 452.2 469.0 450.4 C 468.8 451.5 469.0 453.3 469.0 455.1 C 468.8 455.5 468.8 453.9 468.7 451.9 C 468.4 453.7 468.7 460.2 469.1 458.1 C 469.1 458.1 469.1 458.1 469.1 458.1 Z M 469.1 427.4 C 469.2 423.9 469.1 421.7 468.9 421.3 C 468.6 422.6 469.0 422.2 469.0 424.4 C 468.9 425.8 468.8 426.7 468.6 427.4 C 468.6 428.9 468.8 428.6 468.9 429.1 C 468.9 430.2 468.8 430.4 468.7 430.6 C 469.1 434.7 468.7 425.6 469.1 427.4 C 469.1 427.4 469.1 427.4 469.1 427.4 Z M 252.2 254.2 C 252.4 253.0 252.6 252.1 252.6 248.4 C 252.3 248.9 252.3 245.9 252.3 243.5 C 252.0 246.9 252.2 248.8 252.2 254.2 C 252.2 254.2 252.2 254.2 252.2 254.2 Z M 468.9 235.6 C 469.2 230.7 468.5 231.7 468.9 224.9 C 468.7 225.0 468.6 225.1 468.5 225.2 C 468.8 228.9 468.6 230.9 468.9 235.6 C 468.9 235.6 468.9 235.6 468.9 235.6 Z M 370.9 771.6 C 371.2 771.3 366.5 771.4 366.0 771.2 C 365.5 771.8 362.5 770.7 353.6 770.9 C 353.4 770.8 354.0 770.7 355.2 770.6 C 347.8 770.5 357.5 771.1 358.5 771.4 C 364.2 771.3 365.2 771.6 370.9 771.6 C 370.9 771.6 370.9 771.6 370.9 771.6 Z M 252.7 534.5 C 252.6 534.2 252.6 535.0 252.6 535.9 C 252.6 537.0 252.6 538.0 252.6 538.9 C 253.1 538.8 253.3 533.8 253.9 537.9 C 253.9 536.6 253.8 536.4 253.8 536.4 C 252.6 528.5 254.5 523.4 253.8 513.5 C 253.7 512.0 253.6 512.2 253.5 511.9 C 253.5 513.1 253.4 513.2 253.4 513.3 C 253.9 514.7 253.3 523.2 253.1 519.3 C 252.9 519.5 253.0 520.8 253.1 520.8 C 253.1 521.8 253.1 522.9 253.1 523.9 C 253.3 523.4 253.3 521.3 253.5 520.9 C 253.3 525.8 253.2 531.7 252.7 528.4 C 252.7 531.4 253.0 532.5 253.1 534.6 C 253.1 536.6 252.7 536.4 252.7 534.5 C 252.7 534.5 252.7 534.5 252.7 534.5 Z M 252.8 574.2 C 252.7 578.9 253.2 577.3 253.1 582.0 C 253.4 579.2 252.9 575.3 253.2 571.3 C 253.1 571.9 253.0 574.0 252.8 574.2 C 252.8 574.2 252.8 574.2 252.8 574.2 Z M 253.4 485.9 C 253.8 487.0 253.9 482.8 253.9 478.4 C 253.4 477.3 253.4 481.3 253.4 485.9 C 253.4 485.9 253.4 485.9 253.4 485.9 Z M 253.4 505.7 C 253.5 510.2 253.5 500.1 253.9 502.8 C 253.9 500.7 253.9 498.5 254.0 498.4 C 253.9 496.7 253.7 496.6 253.7 493.7 C 253.5 493.7 253.7 498.7 253.4 498.1 C 253.6 501.6 253.6 502.2 253.4 505.7 C 253.4 505.7 253.4 505.7 253.4 505.7 Z M 253.4 508.7 C 253.5 511.7 254.1 508.3 254.1 504.5 C 253.9 505.8 253.6 506.5 253.4 508.7 C 253.4 508.7 253.4 508.7 253.4 508.7 Z M 253.5 151.5 C 253.5 153.6 253.9 152.3 253.9 154.8 C 254.1 155.0 254.1 145.9 254.1 153.6 C 254.4 152.5 254.3 151.4 254.2 150.2 C 255.3 150.1 256.4 149.9 258.2 150.0 C 257.1 149.8 256.1 149.7 258.0 149.7 C 258.4 149.5 255.7 149.6 253.6 149.6 C 253.6 151.0 253.6 152.0 253.5 151.5 C 253.5 151.5 253.5 151.5 253.5 151.5 Z M 253.5 160.5 C 253.5 162.4 253.6 161.6 253.6 160.7 C 253.8 161.1 253.7 163.6 253.7 165.4 C 253.6 165.4 254.3 162.7 254.7 163.2 C 254.4 155.2 253.9 160.7 253.5 160.5 C 253.5 160.5 253.5 160.5 253.5 160.5 Z M 253.7 168.4 C 253.4 173.1 253.5 180.2 253.9 183.8 C 254.4 180.8 254.3 171.3 253.7 168.4 C 253.7 168.4 253.7 168.4 253.7 168.4 Z M 285.5 149.8 C 276.0 149.3 258.6 150.0 275.2 150.3 C 274.4 150.1 284.9 149.9 290.3 150.1 C 290.3 149.9 295.9 149.6 296.2 149.8 C 300.1 149.5 283.2 149.5 285.5 149.8 C 285.5 149.8 285.5 149.8 285.5 149.8 Z M 254.7 190.7 C 254.5 188.0 253.8 190.6 254.0 187.0 C 254.0 184.7 253.8 187.4 253.6 186.6 C 253.6 191.4 254.1 201.4 253.6 201.9 C 253.8 204.4 254.0 205.4 254.0 209.9 C 254.2 210.2 253.6 193.3 254.4 190.4 C 254.6 190.9 254.6 196.9 254.7 190.7 C 254.7 190.7 254.7 190.7 254.7 190.7 Z M 466.5 237.3 C 466.9 237.5 466.6 231.3 467.0 232.3 C 466.6 229.3 466.9 225.8 466.5 222.2 C 466.6 220.9 467.2 220.9 467.3 215.5 C 466.9 215.6 467.0 218.2 466.8 215.9 C 466.7 211.0 467.2 212.0 467.0 206.5 C 466.4 207.9 466.9 194.7 466.3 196.4 C 466.3 199.3 466.6 198.9 466.5 203.9 C 466.5 205.6 466.3 205.0 466.3 207.1 C 465.9 205.9 466.5 202.9 466.1 201.1 C 465.9 201.8 465.9 205.5 465.6 206.1 C 465.7 208.3 465.8 205.4 466.0 205.8 C 466.1 211.7 465.1 206.1 465.2 212.5 C 465.6 210.9 465.6 210.9 466.0 211.9 C 465.8 214.6 466.1 222.2 465.6 218.3 C 465.3 218.9 465.7 223.4 466.0 222.6 C 466.0 225.1 465.9 225.5 465.7 225.7 C 465.9 232.1 466.2 232.8 466.7 231.1 C 467.0 232.2 466.4 233.6 466.5 237.3 C 466.5 237.3 466.5 237.3 466.5 237.3 Z M 334.4 150.0 C 337.9 149.7 330.4 150.1 326.8 150.0 C 331.1 150.0 329.9 150.6 334.5 150.6 C 332.9 150.4 333.1 150.3 336.1 150.3 C 336.8 150.2 330.1 150.0 334.4 150.0 C 334.4 150.0 334.4 150.0 334.4 150.0 Z M 254.0 219.1 C 253.7 220.5 254.0 228.6 253.9 232.7 C 254.5 232.4 253.6 221.6 254.3 220.8 C 254.2 218.4 254.0 221.9 254.0 219.1 C 254.0 219.1 254.0 219.1 254.0 219.1 Z M 467.0 178.9 C 467.0 177.3 466.9 178.3 466.9 179.1 C 466.7 178.8 466.8 175.4 466.8 173.1 C 466.5 176.7 466.4 172.7 466.0 173.8 C 466.0 172.0 466.0 171.2 465.9 171.0 C 466.6 170.1 465.5 161.7 465.4 171.4 C 465.8 169.3 465.7 170.1 465.9 173.9 C 465.6 178.5 465.9 181.6 465.5 183.5 C 465.5 186.2 465.8 187.1 465.7 190.8 C 465.4 191.9 465.3 195.5 464.7 193.2 C 464.7 199.8 465.6 194.6 465.7 200.0 C 465.5 205.3 465.3 197.7 465.0 199.1 C 465.0 200.5 464.8 200.3 464.7 200.8 C 464.7 202.7 465.1 202.4 465.1 200.5 C 465.2 201.0 465.5 206.0 465.1 204.9 C 465.3 207.9 466.3 199.2 465.9 195.3 C 465.8 192.8 466.6 192.1 466.5 194.7 C 466.9 193.5 466.0 189.2 466.8 189.9 C 466.8 187.8 466.8 185.9 466.8 183.8 C 466.7 184.2 466.7 185.4 466.5 185.5 C 466.5 183.6 466.5 181.5 466.5 179.4 C 466.7 181.0 466.8 180.9 467.0 178.9 C 467.0 178.9 467.0 178.9 467.0 178.9 Z M 254.1 199.3 C 254.1 203.1 254.3 204.2 254.4 207.2 C 254.7 206.3 254.5 197.8 254.1 199.3 C 254.1 199.3 254.1 199.3 254.1 199.3 Z M 465.4 264.0 C 465.5 263.5 465.4 260.9 465.6 260.8 C 465.8 265.4 465.9 260.0 466.7 263.2 C 466.3 257.3 465.4 255.9 465.1 264.2 C 465.2 270.1 465.3 258.0 465.4 264.0 C 465.4 264.0 465.4 264.0 465.4 264.0 Z M 465.6 245.5 C 465.4 242.0 465.2 251.4 465.1 253.6 C 465.0 253.7 464.8 253.7 464.7 253.8 C 465.3 258.6 465.5 251.5 466.3 255.7 C 466.5 249.7 466.6 247.1 466.4 242.0 C 466.2 242.4 466.3 243.5 466.4 243.5 C 466.3 247.4 465.8 245.1 466.0 240.8 C 465.8 242.1 465.8 245.8 465.7 248.5 C 465.8 247.7 465.9 246.8 466.1 246.8 C 466.2 250.0 465.9 249.0 465.9 251.4 C 465.7 251.5 465.4 245.8 465.6 245.5 C 465.6 245.5 465.6 245.5 465.6 245.5 Z M 466.3 544.9 C 466.2 541.7 465.7 548.0 465.1 547.5 C 465.0 550.7 465.2 551.5 465.2 553.6 C 465.5 552.6 465.5 549.1 465.7 547.7 C 466.3 548.4 465.6 552.4 466.0 553.8 C 466.6 555.9 465.8 546.1 466.3 544.9 C 466.3 544.9 466.3 544.9 466.3 544.9 Z M 423.9 150.7 C 422.2 150.8 423.1 150.9 423.8 150.9 C 423.4 151.0 420.8 151.0 420.8 150.9 C 418.5 150.9 422.0 151.1 419.2 151.1 C 418.5 151.4 423.5 151.1 423.7 151.0 C 427.1 151.0 424.2 151.5 424.9 151.6 C 427.9 151.6 427.1 151.3 431.1 151.4 C 428.8 151.2 426.7 150.9 423.9 150.7 C 423.9 150.7 423.9 150.7 423.9 150.7 Z M 466.1 274.1 C 466.3 274.6 465.5 270.9 465.9 266.7 C 465.9 261.3 465.4 270.2 465.5 265.4 C 465.4 269.5 465.7 274.2 465.7 280.4 C 466.0 281.7 465.8 271.7 466.0 277.3 C 466.2 276.9 466.1 275.6 466.0 275.6 C 466.0 274.5 466.0 274.3 466.1 274.1 C 466.1 274.1 466.1 274.1 466.1 274.1 Z M 465.2 268.6 C 465.1 268.9 465.1 270.2 465.2 270.2 C 465.2 272.1 464.8 272.3 464.8 270.4 C 464.4 273.2 465.2 272.6 465.0 277.9 C 465.3 275.5 465.5 274.3 465.2 279.2 C 465.6 282.8 465.5 270.2 465.2 268.6 C 465.2 268.6 465.2 268.6 465.2 268.6 Z M 466.0 496.2 C 465.8 496.6 465.9 499.9 465.9 502.2 C 465.5 499.2 465.7 487.0 466.0 485.5 C 465.9 484.2 465.8 482.8 466.0 482.4 C 465.9 482.5 465.7 479.1 465.6 480.9 C 465.5 480.6 465.5 477.9 465.3 477.9 C 465.4 473.3 465.6 479.3 465.9 477.9 C 465.5 472.4 465.8 473.6 465.9 467.3 C 465.5 468.3 465.6 475.4 465.1 474.8 C 465.5 479.8 465.2 485.3 464.8 488.4 C 465.4 483.7 465.7 501.5 465.6 509.8 C 465.4 509.4 465.4 512.4 465.2 515.8 C 464.8 518.0 465.7 517.5 465.5 512.8 C 465.8 513.0 465.5 519.2 465.6 521.9 C 465.8 518.8 466.0 520.6 466.1 519.0 C 466.1 513.1 466.0 518.4 465.7 517.3 C 465.7 515.8 465.7 514.4 465.7 512.7 C 466.4 520.9 465.8 501.2 465.9 508.3 C 465.8 502.1 466.3 502.0 466.0 496.2 C 466.0 496.2 466.0 496.2 466.0 496.2 Z M 466.1 353.3 C 466.1 352.2 465.8 347.4 466.1 347.2 C 465.8 341.1 465.5 346.7 465.5 339.7 C 465.3 340.2 465.4 342.9 465.2 342.9 C 465.3 345.5 465.5 348.2 465.9 347.3 C 465.8 350.4 466.0 351.2 466.0 353.3 C 465.8 352.6 465.7 351.5 465.7 348.8 C 465.4 348.5 465.2 349.6 465.2 353.6 C 465.6 355.2 465.9 353.9 466.1 353.3 C 466.1 353.3 466.1 353.3 466.1 353.3 Z M 465.6 338.2 C 465.7 337.4 465.8 336.5 466.0 336.6 C 466.4 334.2 465.5 335.9 465.5 333.7 C 465.5 331.9 465.7 332.4 465.9 332.0 C 465.8 329.4 465.7 327.3 465.9 325.9 C 465.7 321.9 465.5 330.8 465.4 332.2 C 465.4 335.2 465.7 334.0 465.6 338.2 C 465.6 338.2 465.6 338.2 465.6 338.2 Z M 466.0 292.4 C 466.4 291.4 465.8 290.1 465.9 288.0 C 465.5 289.7 465.7 294.0 465.2 291.3 C 465.1 295.8 465.1 296.1 465.2 300.5 C 464.9 303.5 465.6 300.5 465.4 295.8 C 465.5 296.3 465.6 298.4 465.7 298.6 C 465.0 302.0 466.2 309.0 465.6 304.7 C 465.7 303.4 465.8 302.4 466.0 301.6 C 465.7 300.7 465.8 290.2 466.0 292.4 C 466.0 292.4 466.0 292.4 466.0 292.4 Z M 455.1 151.5 C 460.6 151.4 461.1 151.4 465.6 151.5 C 465.6 152.0 465.6 152.4 465.6 153.0 C 465.5 153.3 465.4 152.9 465.3 151.8 C 465.2 153.3 465.3 155.1 465.3 157.7 C 465.5 157.4 465.4 156.1 465.3 156.2 C 465.6 151.1 465.6 155.2 466.0 155.6 C 466.1 153.9 466.1 152.4 466.1 151.1 C 462.1 151.1 458.6 151.4 457.0 151.0 C 454.7 151.1 457.3 151.2 455.1 151.5 C 455.1 151.5 455.1 151.5 455.1 151.5 Z M 375.2 768.3 C 374.4 768.4 371.8 768.4 372.4 768.7 C 374.6 768.6 376.2 768.5 378.3 768.4 C 374.0 768.3 374.3 767.8 368.8 767.8 C 370.7 768.0 370.5 768.4 375.2 768.3 C 375.2 768.3 375.2 768.3 375.2 768.3 Z M 465.9 307.7 C 465.7 307.9 465.5 308.2 465.5 306.4 C 465.2 306.0 465.3 310.8 465.1 311.1 C 465.1 312.7 465.3 312.0 465.4 314.0 C 465.6 313.2 465.5 309.2 465.9 310.7 C 465.9 312.0 465.8 312.2 465.7 312.4 C 465.9 315.4 466.0 310.6 465.9 307.7 C 465.9 307.7 465.9 307.7 465.9 307.7 Z M 465.9 559.9 C 465.8 557.8 465.6 559.8 465.6 561.4 C 465.2 556.9 465.0 563.9 464.6 564.0 C 464.9 562.2 464.7 556.1 464.8 555.1 C 464.7 553.3 464.4 555.3 464.3 550.4 C 464.0 550.9 464.3 556.3 464.6 555.0 C 464.1 556.2 464.7 561.5 464.2 560.9 C 464.1 567.7 464.4 569.4 464.8 570.2 C 464.6 563.5 465.3 567.1 465.2 561.3 C 465.3 561.3 465.3 563.1 465.4 564.3 C 465.6 563.9 465.7 561.4 465.9 559.9 C 465.9 559.9 465.9 559.9 465.9 559.9 Z M 465.9 401.9 C 465.9 398.5 465.5 398.7 465.2 399.0 C 465.3 400.3 465.4 402.3 465.4 405.0 C 465.6 404.4 465.5 400.2 465.9 401.9 C 465.9 401.9 465.9 401.9 465.9 401.9 Z M 465.4 535.5 C 465.5 535.2 465.4 534.0 465.4 534.0 C 465.3 530.1 465.5 529.3 465.7 528.0 C 465.7 525.9 465.4 526.6 465.2 526.4 C 465.5 530.0 465.0 529.2 465.1 533.9 C 465.2 533.6 465.3 534.3 465.4 535.5 C 465.4 535.5 465.4 535.5 465.4 535.5 Z M 465.6 433.8 C 465.6 432.0 465.5 432.9 465.5 433.8 C 465.0 431.8 465.4 425.5 465.2 423.2 C 464.9 422.9 465.0 430.6 464.8 421.8 C 464.5 423.4 464.8 431.4 464.7 435.4 C 464.3 434.5 464.4 429.1 463.9 429.4 C 464.2 434.1 464.4 439.2 465.0 439.9 C 465.0 433.1 465.4 435.5 465.6 433.8 C 465.6 433.8 465.6 433.8 465.6 433.8 Z M 465.4 441.4 C 465.5 440.8 465.3 439.5 465.4 436.9 C 464.9 440.7 465.1 442.9 465.0 450.6 C 465.0 450.6 465.1 450.6 465.2 450.6 C 465.2 452.0 465.2 453.7 465.2 455.1 C 465.7 448.5 465.4 446.9 465.2 439.9 C 465.3 439.6 465.3 440.5 465.4 441.4 C 465.4 441.4 465.4 441.4 465.4 441.4 Z M 465.4 238.2 C 465.1 240.4 464.9 242.3 464.8 246.1 C 465.2 245.5 465.4 243.2 465.4 238.2 C 465.4 238.2 465.4 238.2 465.4 238.2 Z M 465.1 541.4 C 465.3 545.6 465.1 537.5 464.7 539.9 C 464.5 543.1 464.4 546.6 464.1 547.2 C 464.6 553.4 464.6 540.6 465.1 541.4 C 465.1 541.4 465.1 541.4 465.1 541.4 Z M 464.2 514.1 C 464.2 512.3 464.8 512.4 464.4 514.1 C 464.4 518.4 464.8 510.5 464.7 517.1 C 464.9 514.4 465.1 508.0 464.8 505.1 C 464.5 505.2 464.6 510.9 464.3 511.0 C 464.2 511.3 464.2 510.4 464.2 509.5 C 464.0 510.1 464.2 511.4 464.2 514.1 C 464.2 514.1 464.2 514.1 464.2 514.1 Z M 464.8 491.5 C 464.6 494.0 464.4 496.9 464.4 502.0 C 464.7 498.7 465.1 496.8 464.8 491.5 C 464.8 491.5 464.8 491.5 464.8 491.5 Z M 454.3 767.0 C 457.9 767.0 454.3 766.6 453.8 766.5 C 450.1 766.4 450.6 766.7 446.3 766.6 C 448.0 767.1 451.5 766.6 454.3 767.0 C 454.3 767.0 454.3 767.0 454.3 767.0 Z M 440.5 766.7 C 439.9 766.5 434.7 766.6 434.2 766.4 C 431.8 767.1 426.1 765.9 426.7 766.5 C 425.5 766.4 424.2 766.3 422.0 766.4 C 426.8 767.0 436.0 766.8 440.5 766.7 C 440.5 766.7 440.5 766.7 440.5 766.7 Z M 464.0 465.6 C 464.1 461.6 463.4 466.8 463.5 462.7 C 463.3 462.4 463.3 470.3 463.1 465.6 C 462.9 471.8 463.9 465.2 464.0 465.6 C 464.0 465.6 464.0 465.6 464.0 465.6 Z M 463.7 391.8 C 463.9 392.0 463.7 386.5 463.8 384.2 C 463.7 384.3 463.7 386.0 463.7 387.2 C 463.5 386.6 463.4 385.9 463.4 384.3 C 463.1 385.6 463.6 389.6 463.7 391.8 C 463.7 391.8 463.7 391.8 463.7 391.8 Z M 470.8 473.6 C 470.4 476.1 470.1 479.4 470.7 481.2 C 470.4 483.9 470.2 479.4 470.0 482.7 C 470.2 487.1 469.8 484.9 470.0 492.0 C 469.5 490.6 469.6 495.7 469.3 496.6 C 469.2 493.7 469.6 490.2 469.3 488.8 C 469.3 491.2 468.9 489.8 469.1 488.8 C 469.4 484.1 469.6 494.5 469.9 488.8 C 469.4 487.1 470.3 479.0 470.3 473.5 C 470.6 475.7 470.8 469.5 470.8 473.6 C 470.8 473.6 470.8 473.6 470.8 473.6 Z M 470.0 501.2 C 470.0 504.9 469.2 506.7 469.3 505.7 C 469.4 505.7 469.4 501.5 469.3 501.1 C 469.2 502.1 469.2 503.0 469.1 502.7 C 469.2 495.8 469.5 498.2 469.8 496.6 C 469.9 500.4 469.7 501.4 469.9 502.8 C 469.9 501.9 469.9 501.0 470.0 501.2 C 470.0 501.2 470.0 501.2 470.0 501.2 Z M 463.5 580.3 C 463.8 579.6 463.5 578.7 463.4 577.2 C 464.0 577.1 463.2 569.1 463.5 568.2 C 463.7 570.1 463.7 574.0 463.9 575.9 C 464.0 573.8 464.1 573.4 463.9 571.3 C 464.3 571.9 464.3 576.3 464.6 577.6 C 464.3 577.9 464.6 580.1 464.4 580.6 C 464.2 574.7 463.5 583.7 463.5 580.3 C 463.5 580.3 463.5 580.3 463.5 580.3 Z M 463.5 431.1 C 463.1 430.5 462.2 437.0 461.7 431.2 C 462.0 429.9 462.4 429.1 462.9 429.5 C 462.6 425.9 463.0 424.2 462.6 422.0 C 463.8 415.0 462.5 427.3 463.5 431.1 C 463.5 431.1 463.5 431.1 463.5 431.1 Z M 463.1 406.9 C 463.5 408.1 463.5 404.7 463.8 405.3 C 463.5 408.3 463.9 417.6 463.7 414.4 C 463.5 411.3 463.1 411.4 463.1 406.9 C 463.1 406.9 463.1 406.9 463.1 406.9 Z M 254.5 309.5 C 254.2 304.4 255.0 302.4 255.2 305.4 C 254.7 303.9 255.0 311.5 254.5 309.5 C 254.5 309.5 254.5 309.5 254.5 309.5 Z M 267.2 144.2 C 262.2 144.0 259.8 144.2 258.8 143.8 C 263.3 143.7 263.1 144.0 266.9 144.0 C 267.1 143.8 269.3 143.7 270.0 143.8 C 267.8 143.9 268.5 144.1 267.2 144.2 C 267.2 144.2 267.2 144.2 267.2 144.2 Z M 472.4 310.7 C 472.5 310.2 472.6 308.3 472.9 308.9 C 472.7 313.7 473.0 318.9 473.3 322.7 C 473.1 322.8 472.9 322.9 472.8 322.9 C 472.9 315.5 472.6 313.6 472.4 310.7 C 472.4 310.7 472.4 310.7 472.4 310.7 Z M 473.2 300.9 C 473.0 300.3 472.5 303.1 472.5 299.7 C 472.8 299.8 473.2 293.6 473.3 296.3 C 473.0 297.4 473.0 298.9 473.2 300.9 C 473.2 300.9 473.2 300.9 473.2 300.9 Z M 471.1 561.6 C 471.1 565.3 471.4 560.0 471.6 560.2 C 471.5 562.9 471.5 566.7 471.3 567.8 C 471.4 565.1 470.7 563.0 471.1 561.6 C 471.1 561.6 471.1 561.6 471.1 561.6 Z M 470.2 504.3 C 470.1 496.4 470.8 499.9 470.9 492.1 C 471.2 495.3 471.1 502.4 471.5 504.5 C 471.2 504.2 471.2 506.1 470.9 505.9 C 470.9 503.1 471.1 502.7 471.1 499.8 C 470.7 500.8 470.8 500.8 470.4 499.7 C 470.4 501.8 470.5 503.2 470.6 504.4 C 470.3 503.8 470.2 506.6 470.2 504.3 C 470.2 504.3 470.2 504.3 470.2 504.3 Z M 470.0 559.7 C 470.2 562.9 469.6 565.4 469.6 562.7 C 469.9 562.4 469.6 560.2 469.8 559.6 C 469.9 564.2 470.0 556.1 470.3 558.3 C 470.3 561.0 470.4 562.0 470.7 561.4 C 470.7 563.2 470.7 566.0 470.6 566.1 C 470.5 564.8 470.6 563.0 470.4 563.0 C 470.4 563.9 470.4 564.8 470.3 564.5 C 470.3 561.8 470.2 560.5 470.0 559.7 C 470.0 559.7 470.0 559.7 470.0 559.7 Z M 470.0 538.2 C 470.0 542.4 469.6 542.8 469.4 544.2 C 469.5 538.6 470.0 537.8 470.3 533.7 C 470.2 538.3 470.7 543.1 470.4 544.5 C 470.3 542.4 470.3 538.6 470.0 538.2 C 470.0 538.2 470.0 538.2 470.0 538.2 Z M 251.9 705.6 C 252.1 702.0 252.4 699.1 252.6 695.1 C 252.2 693.7 251.4 701.1 251.7 698.0 C 251.6 693.8 252.2 696.7 252.2 693.4 C 251.6 696.6 251.6 678.8 252.2 678.2 C 252.2 680.8 252.3 681.8 252.6 681.2 C 252.5 688.4 252.9 691.2 253.0 696.6 C 252.5 700.4 252.3 711.8 252.8 717.9 C 252.1 721.9 252.9 729.3 252.3 734.7 C 252.6 736.2 252.8 730.1 252.8 734.8 C 252.4 737.7 252.3 735.3 252.1 739.3 C 252.3 739.7 252.5 738.8 252.6 740.9 C 252.3 740.6 252.3 743.1 252.2 744.0 C 252.2 735.6 251.6 744.4 251.5 737.8 C 251.7 735.1 252.2 740.7 252.2 733.2 C 252.1 730.5 251.9 728.0 251.5 728.6 C 251.5 726.5 251.5 725.3 251.4 723.9 C 251.9 726.8 251.3 713.5 251.8 719.5 C 251.8 719.9 251.8 724.1 251.9 727.1 C 252.4 724.4 252.1 721.1 251.9 716.3 C 252.3 714.4 252.3 717.3 252.4 714.9 C 252.2 711.1 251.9 716.2 251.7 713.3 C 251.6 714.5 251.7 716.3 251.5 716.3 C 251.9 709.9 251.5 707.3 251.5 704.1 C 251.8 706.3 251.9 700.4 251.9 705.6 C 251.9 705.6 251.9 705.6 251.9 705.6 Z M 252.4 760.8 C 252.4 762.3 252.4 763.8 252.4 765.5 C 252.1 765.8 252.0 759.8 251.7 763.8 C 251.7 757.1 252.2 764.1 252.4 760.8 C 252.4 760.8 252.4 760.8 252.4 760.8 Z M 253.9 730.4 C 254.3 728.2 253.4 729.3 253.4 727.2 C 253.4 730.9 253.6 734.4 253.1 734.8 C 253.2 730.5 253.2 728.5 253.1 724.0 C 253.7 728.4 253.6 719.3 254.0 718.0 C 254.1 721.4 254.3 724.1 254.3 728.7 C 254.1 728.0 253.9 734.7 253.9 730.4 C 253.9 730.4 253.9 730.4 253.9 730.4 Z M 254.4 742.6 C 254.1 743.5 254.4 750.2 253.9 748.7 C 254.0 744.6 253.8 743.2 253.5 744.0 C 253.5 741.1 253.6 740.6 253.6 737.9 C 254.1 736.3 254.0 741.1 254.3 742.6 C 254.3 741.7 254.4 740.8 254.4 742.6 C 254.4 742.6 254.4 742.6 254.4 742.6 Z M 339.8 767.0 C 341.3 767.5 335.0 767.2 333.8 767.1 C 335.7 767.5 334.9 767.6 331.1 767.8 C 332.4 767.2 326.9 767.4 323.3 766.9 C 322.6 767.3 327.0 767.4 321.9 767.5 C 317.9 767.4 314.4 767.6 308.4 767.7 C 307.0 767.2 309.6 767.2 311.2 767.0 C 307.1 767.1 308.2 766.7 305.1 766.7 C 305.7 767.0 303.3 767.1 302.2 766.9 C 307.4 766.7 295.0 766.4 300.6 766.2 C 300.9 766.4 302.2 766.3 303.5 766.2 C 302.2 766.8 309.4 766.6 311.1 766.9 C 313.8 766.0 321.6 766.3 330.7 766.6 C 331.4 766.8 328.6 766.9 330.8 767.0 C 331.1 766.8 334.0 766.9 335.3 766.7 C 335.2 767.0 336.4 767.1 338.4 767.1 C 338.5 767.1 338.6 767.0 339.8 767.0 C 339.8 767.0 339.8 767.0 339.8 767.0 Z M 256.2 456.7 C 256.9 457.3 256.5 447.3 256.3 444.6 C 257.1 445.4 256.9 462.5 256.2 456.7 C 256.2 456.7 256.2 456.7 256.2 456.7 Z M 256.7 516.2 C 256.7 513.7 256.4 515.3 256.3 513.0 C 256.7 513.1 255.9 506.9 256.3 507.0 C 256.7 509.9 256.7 511.7 256.7 516.2 C 256.7 516.2 256.7 516.2 256.7 516.2 Z M 256.6 570.9 C 256.5 566.5 256.4 573.3 256.2 572.3 C 256.2 568.5 256.2 564.5 256.6 564.9 C 256.4 568.2 256.9 570.6 256.6 570.9 C 256.6 570.9 256.6 570.9 256.6 570.9 Z M 257.1 489.1 C 257.3 485.5 257.8 491.8 257.5 492.2 C 257.4 488.2 257.2 494.7 257.3 498.2 C 256.8 497.8 256.9 496.4 256.5 497.8 C 256.3 492.4 256.9 497.1 256.9 493.4 C 256.6 490.8 256.7 493.5 256.3 493.2 C 256.3 491.7 256.3 490.2 256.3 488.7 C 256.6 488.8 256.8 488.9 257.0 489.0 C 257.0 490.8 257.0 492.6 257.3 492.1 C 257.3 490.6 257.2 490.3 257.1 489.1 C 257.1 489.1 257.1 489.1 257.1 489.1 Z M 261.5 766.2 C 259.2 766.3 261.2 766.4 263.0 766.5 C 263.4 766.3 264.9 765.6 267.5 766.0 C 261.7 766.3 269.3 766.5 266.1 766.7 C 264.8 766.4 261.3 766.8 258.5 766.7 C 257.3 766.4 260.2 765.9 261.5 766.2 C 261.5 766.2 261.5 766.2 261.5 766.2 Z M 272.1 766.5 C 271.8 766.4 270.8 766.3 269.0 766.4 C 270.9 766.0 268.2 766.0 270.6 765.8 C 270.3 766.0 278.2 766.1 273.5 766.2 C 269.4 766.0 274.7 766.5 276.6 766.5 C 274.6 766.5 270.9 766.9 270.5 766.6 C 271.5 766.6 272.4 766.6 272.1 766.5 C 272.1 766.5 272.1 766.5 272.1 766.5 Z M 369.3 766.0 C 369.7 765.7 367.1 765.7 366.2 765.6 C 373.8 765.6 380.3 765.6 384.2 765.7 C 380.7 765.7 380.9 766.0 383.0 766.2 C 379.1 766.1 378.4 766.3 377.0 766.1 C 380.0 765.8 374.0 766.0 369.3 766.0 C 369.3 766.0 369.3 766.0 369.3 766.0 Z M 369.3 766.0 " fill="#FF456F"></path><text xml:space="preserve" font-family="ProximaNova-Semibold,Proxima Nova" font-weight="bold" font-size="40.0" fill="#FEFFFF" transform="matrix(1.00, 0.00, -0.00, -1.00, 155.3, 65.5)">E</text><text xml:space="preserve" font-family="ProximaNova-Semibold,Proxima Nova" font-weight="bold" font-size="40.0" fill="#FEFFFF" transform="matrix(1.00, 0.00, -0.00, -1.00, 178.4, 65.5)">n</text><text xml:space="preserve" font-family="ProximaNova-Semibold,Proxima Nova" font-weight="bold" font-size="40.0" fill="#FEFFFF" transform="matrix(1.00, 0.00, -0.00, -1.00, 201.1, 65.5)">t</text><text xml:space="preserve" font-family="ProximaNova-Semibold,Proxima Nova" font-weight="bold" font-size="40.0" fill="#FEFFFF" transform="matrix(1.00, 0.00, -0.00, -1.00, 213.8, 65.5)">i</text><text xml:space="preserve" font-family="ProximaNova-Semibold,Proxima Nova" font-weight="bold" font-size="40.0" fill="#FEFFFF" transform="matrix(1.00, 0.00, -0.00, -1.00, 223.5, 65.5)">t</text><text xml:space="preserve" font-family="ProximaNova-Semibold,Proxima Nova" font-weight="bold" font-size="40.0" fill="#FEFFFF" transform="matrix(1.00, 0.00, -0.00, -1.00, 236.2, 65.5)">y</text><text xml:space="preserve" font-family="ProximaNova-Semibold,Proxima Nova" font-weight="bold" font-size="40.0" fill="#FEFFFF" transform="matrix(1.00, 0.00, -0.00, -1.00, 256.4, 65.5)"> </text><text xml:space="preserve" font-family="ProximaNova-Semibold,Proxima Nova" font-weight="bold" font-size="40.0" fill="#FEFFFF" transform="matrix(1.00, 0.00, -0.00, -1.00, 266.7, 65.5)">T</text><text xml:space="preserve" font-family="ProximaNova-Semibold,Proxima Nova" font-weight="bold" font-size="40.0" fill="#FEFFFF" transform="matrix(1.00, 0.00, -0.00, -1.00, 288.2, 65.5)">y</text><text xml:space="preserve" font-family="ProximaNova-Semibold,Proxima Nova" font-weight="bold" font-size="40.0" fill="#FEFFFF" transform="matrix(1.00, 0.00, -0.00, -1.00, 308.3, 65.5)">p</text><text xml:space="preserve" font-family="ProximaNova-Semibold,Proxima Nova" font-weight="bold" font-size="40.0" fill="#FEFFFF" transform="matrix(1.00, 0.00, -0.00, -1.00, 331.4, 65.5)">e</text><text xml:space="preserve" font-family="ProximaNova-Semibold,Proxima Nova" font-weight="bold" font-size="40.0" fill="#FEFFFF" transform="matrix(1.00, 0.00, -0.00, -1.00, 353.7, 65.5)">s</text><image xlink:href="../../3AE6EEF6-7A89-4AC7-866E-057BD00E8788/assets/E69A34F04C695549BD99697370DE91EF.png" width="200.00" height="200.00" transform="matrix(0.65, 0.00, -0.00, -0.65, 19.0, 146.2)"></image></g></svg>