<?xml version="1.0" encoding="UTF-8" standalone="no"?><svg xmlns="http://www.w3.org/2000/svg" xmlns:xlink="http://www.w3.org/1999/xlink" clip-rule="evenodd" stroke-miterlimit="10" viewBox="0 0 756 203"><desc>SVG generated by Keynote</desc><defs></defs><g transform="matrix(1.00, 0.00, -0.00, -1.00, 0.0, 203.0)"><path d="M 754.0 95.9 C 753.9 94.5 753.9 92.9 753.9 90.5 C 753.8 91.5 753.7 92.4 753.5 92.3 C 753.6 94.4 753.7 97.2 753.6 101.4 C 753.7 101.2 753.7 99.1 753.7 97.7 C 753.8 95.9 753.9 96.3 754.0 95.9 C 754.0 95.9 754.0 95.9 754.0 95.9 Z M 353.5 2.7 C 357.0 2.7 353.1 2.3 351.8 2.3 C 351.6 2.4 351.4 2.4 350.1 2.4 C 349.7 2.1 352.7 2.0 355.1 1.9 C 364.7 2.1 357.7 2.7 353.5 2.7 C 353.5 2.7 353.5 2.7 353.5 2.7 Z M 3.1 115.2 C 3.1 122.8 3.5 114.8 3.7 113.7 C 3.8 117.3 4.4 114.7 4.4 119.3 C 4.2 120.0 4.1 121.7 3.9 122.5 C 3.9 120.4 3.9 117.6 3.8 117.2 C 3.8 119.9 3.8 123.6 3.7 124.1 C 3.6 118.1 3.3 122.9 3.0 123.8 C 3.1 118.6 2.7 116.7 3.1 115.2 C 3.1 115.2 3.1 115.2 3.1 115.2 Z M 308.9 199.8 C 306.7 199.8 304.9 199.8 305.3 199.5 C 307.6 199.5 309.2 199.6 310.5 199.7 C 310.8 199.5 310.1 199.3 312.0 199.3 C 314.5 199.6 313.5 200.1 312.5 200.3 C 312.2 200.0 304.6 200.1 308.9 199.8 C 308.9 199.8 308.9 199.8 308.9 199.8 Z M 501.4 199.1 C 508.1 199.3 501.4 198.6 508.0 198.7 C 508.1 199.1 509.3 199.5 505.0 199.5 C 504.6 199.3 502.1 199.3 501.4 199.1 C 501.4 199.1 501.4 199.1 501.4 199.1 Z M 89.2 5.9 C 89.0 5.7 84.4 5.8 85.3 5.4 C 87.6 5.4 89.8 5.4 92.1 5.4 C 92.8 5.7 92.1 5.9 89.2 5.9 C 89.2 5.9 89.2 5.9 89.2 5.9 Z M 6.9 168.1 C 6.5 175.9 7.1 184.3 6.7 181.8 C 6.3 184.7 5.6 176.1 6.0 176.5 C 6.4 175.7 6.9 161.9 6.9 168.1 C 6.9 168.1 6.9 168.1 6.9 168.1 Z M 315.0 9.4 C 306.8 9.1 308.7 10.2 303.3 9.7 C 305.1 9.7 305.9 9.6 306.6 9.4 C 305.3 9.4 303.3 9.4 303.3 9.3 C 307.0 9.3 311.6 9.1 315.0 9.4 C 315.0 9.4 315.0 9.4 315.0 9.4 Z M 736.8 200.8 C 735.5 200.9 734.9 200.9 735.2 201.1 C 729.8 201.0 730.3 201.3 726.7 201.1 C 726.0 200.6 730.7 200.7 735.0 200.8 C 735.0 200.8 736.3 200.7 736.8 200.8 C 736.8 200.8 736.8 200.8 736.8 200.8 Z M 585.1 199.4 C 585.6 199.7 588.8 199.8 583.9 199.9 C 577.9 199.5 582.6 199.1 588.2 198.9 C 588.1 198.7 588.0 198.5 587.8 198.4 C 585.5 198.4 584.0 198.3 582.6 198.2 C 582.0 198.8 577.4 197.7 568.9 198.1 C 572.8 197.8 568.0 197.4 573.6 197.6 C 571.8 197.2 575.7 197.2 574.8 196.9 C 572.6 197.1 566.8 197.1 568.5 197.6 C 565.5 197.6 563.1 197.6 561.6 197.4 C 559.1 197.0 567.0 197.4 564.5 196.9 C 562.8 196.9 562.4 196.8 561.1 196.8 C 560.9 197.0 561.7 197.2 559.7 197.2 C 554.1 197.0 560.3 196.7 552.5 196.7 C 552.2 196.9 554.6 197.0 554.6 197.2 C 551.2 197.4 551.2 197.1 547.9 197.3 C 547.0 197.1 550.1 197.0 547.6 196.9 C 545.8 197.5 540.2 196.6 535.7 197.1 C 539.6 197.9 534.8 196.9 531.0 197.7 C 529.9 197.5 532.7 196.9 528.8 196.9 C 530.9 198.0 515.4 197.7 528.3 198.5 C 521.8 198.5 520.2 199.3 525.4 199.4 C 513.9 199.2 518.0 199.7 513.7 199.8 C 509.3 199.8 515.9 199.6 513.3 199.3 C 518.0 199.3 516.7 199.1 520.2 199.3 C 520.0 199.1 520.8 199.0 521.7 198.9 C 517.2 199.2 511.4 198.6 514.4 198.1 C 516.7 198.2 514.9 198.6 518.0 198.6 C 516.5 198.0 521.4 198.7 521.4 198.4 C 518.8 197.8 525.2 197.4 518.8 197.3 C 519.0 197.5 519.1 197.8 519.3 198.0 C 517.6 198.0 515.9 198.0 514.3 198.0 C 512.5 197.6 513.5 197.3 511.9 197.2 C 509.1 197.2 507.7 197.3 506.9 197.4 C 510.5 197.5 514.9 197.9 509.1 198.0 C 510.8 197.2 500.9 197.8 505.2 197.3 C 498.7 197.1 496.0 197.7 495.0 197.2 C 491.7 197.2 494.1 197.6 490.1 197.6 C 483.6 197.2 485.1 197.8 476.4 197.4 C 475.8 198.1 475.5 197.3 472.8 197.3 C 473.0 197.5 473.1 197.8 473.3 198.0 C 470.1 197.6 463.1 197.4 456.2 197.8 C 454.3 197.7 455.5 197.4 450.9 197.4 C 446.2 198.0 439.9 197.4 434.2 198.0 C 433.6 197.7 429.4 197.7 427.3 197.8 C 426.2 197.7 429.0 197.2 425.2 197.2 C 422.9 197.6 427.4 197.7 422.2 197.8 C 422.5 197.4 417.4 198.2 417.0 197.7 C 418.6 197.6 420.3 197.4 421.9 197.3 C 419.6 197.3 420.1 197.1 418.3 197.1 C 418.9 197.6 414.5 197.1 413.1 197.1 C 413.4 197.3 413.0 197.5 411.8 197.6 C 408.8 197.6 406.5 197.6 405.0 197.7 C 401.1 197.5 407.0 197.4 403.2 197.3 C 401.9 198.3 397.5 197.2 389.8 197.8 C 387.8 197.5 384.4 197.4 379.3 197.3 C 378.9 197.6 384.3 197.5 384.6 197.7 C 377.1 197.6 386.1 198.0 381.3 198.0 C 370.5 197.8 363.6 197.8 352.1 197.4 C 352.4 197.7 343.7 198.0 343.8 197.8 C 346.1 197.8 338.8 197.3 335.1 197.3 C 334.4 198.0 329.0 198.6 328.8 198.9 C 327.4 198.6 327.7 198.5 326.8 198.0 C 320.4 197.8 317.3 198.4 313.1 197.7 C 313.5 198.0 310.6 198.1 308.1 198.2 C 308.7 197.9 310.1 197.7 311.3 197.4 C 308.0 197.5 307.4 197.3 304.4 197.3 C 301.9 198.4 296.4 197.0 294.4 198.1 C 289.6 198.1 290.3 197.7 285.8 197.7 C 286.1 197.9 285.6 198.1 284.4 198.2 C 287.3 198.1 289.3 197.8 291.2 198.2 C 284.6 198.3 304.1 199.3 293.4 199.8 C 293.0 199.6 293.9 199.3 291.6 199.3 C 285.5 199.4 289.3 199.8 291.8 199.8 C 287.7 200.0 283.3 199.8 286.8 200.3 C 277.4 200.4 283.2 200.1 279.8 199.9 C 263.0 200.2 241.7 200.4 218.4 199.9 C 217.7 200.4 205.2 200.0 201.2 199.7 C 194.8 200.1 188.0 200.2 185.9 199.7 C 184.8 200.1 177.8 199.4 177.2 199.8 C 180.1 199.7 181.9 200.0 179.1 200.0 C 169.6 199.8 155.4 199.7 150.0 200.0 C 146.6 199.5 140.4 199.7 136.3 199.9 C 135.6 199.7 138.9 199.6 136.2 199.5 C 135.4 199.8 126.7 200.1 124.5 199.8 C 127.1 199.8 130.0 199.3 126.0 199.3 C 126.1 199.5 121.4 199.4 122.6 199.8 C 116.9 199.6 113.6 199.9 109.0 199.7 C 112.8 199.6 115.1 199.4 115.7 199.1 C 112.4 199.3 109.9 199.5 107.2 199.1 C 108.0 199.7 102.6 199.4 97.1 199.7 C 95.6 199.5 94.4 199.2 90.1 199.3 C 88.0 199.6 97.0 199.7 92.0 199.8 C 92.0 199.6 87.3 199.4 88.5 199.8 C 82.7 199.6 79.5 199.9 74.8 199.5 C 80.8 199.7 76.3 199.1 74.8 199.0 C 73.5 199.0 71.5 199.0 71.5 199.1 C 71.5 199.3 74.5 199.3 74.8 199.4 C 70.6 199.2 69.5 199.9 68.0 199.5 C 69.8 199.5 70.1 199.3 68.0 199.3 C 67.5 199.9 55.3 199.4 59.5 199.1 C 59.5 199.3 64.2 199.3 64.6 199.1 C 63.3 198.9 56.3 199.2 57.8 198.7 C 61.8 198.7 61.5 199.0 66.3 198.9 C 66.8 198.6 69.6 198.5 71.4 198.3 C 63.8 198.4 62.1 198.8 61.1 198.3 C 57.8 198.4 59.8 198.9 54.3 198.7 C 46.5 198.6 52.9 198.2 50.9 198.1 C 44.0 198.3 46.2 198.9 49.2 199.3 C 43.7 199.2 42.0 199.5 35.5 199.4 C 35.9 199.2 36.7 199.0 39.0 198.9 C 39.2 199.0 44.7 199.3 44.2 199.0 C 43.7 198.4 39.2 198.2 32.2 198.1 C 33.9 198.7 34.0 198.3 27.0 198.4 C 28.2 198.9 23.7 198.2 23.5 198.6 C 23.9 198.8 26.4 198.8 28.7 198.7 C 28.5 199.0 27.7 199.2 25.4 199.3 C 23.9 199.1 22.7 199.3 18.6 199.1 C 18.2 198.8 21.2 198.7 21.9 198.5 C 19.6 198.5 19.1 198.7 16.7 198.7 C 14.7 198.4 14.9 197.9 15.1 197.3 C 17.7 197.2 21.9 197.2 18.5 196.9 C 28.5 196.9 18.0 197.5 21.9 197.6 C 26.0 197.0 23.7 197.8 30.3 197.7 C 32.3 197.7 33.0 197.6 33.8 197.4 C 33.3 197.4 29.5 196.9 33.8 196.9 C 34.8 197.2 37.1 197.4 40.6 197.4 C 40.6 197.2 33.5 197.0 40.6 197.1 C 44.1 197.1 41.0 197.6 45.8 197.6 C 45.8 197.4 47.1 197.4 47.4 197.3 C 40.4 197.4 48.7 197.0 44.1 196.8 C 50.0 196.6 45.1 197.2 49.1 197.2 C 49.2 196.9 55.7 197.4 55.9 196.9 C 53.4 197.1 48.4 197.1 49.0 196.7 C 53.5 196.7 74.2 196.4 66.1 197.0 C 69.1 196.8 84.1 196.3 83.0 196.5 C 78.5 196.5 78.7 196.8 78.1 197.0 C 86.5 196.6 90.8 196.9 100.1 196.4 C 89.9 196.3 97.5 195.7 91.5 195.4 C 88.9 195.4 85.2 195.3 84.6 195.5 C 85.8 195.9 89.9 195.7 91.5 195.5 C 91.6 195.8 91.6 196.2 91.6 196.5 C 80.5 196.1 74.6 196.5 69.4 196.4 C 73.9 196.3 60.9 195.9 66.0 195.7 C 68.2 196.0 73.5 196.0 78.0 196.1 C 78.0 196.0 78.0 195.9 78.0 195.7 C 79.9 195.7 82.8 195.8 82.9 195.6 C 76.8 195.7 73.5 195.3 69.3 195.6 C 69.3 195.5 69.3 195.4 69.3 195.4 C 68.3 195.4 67.3 195.3 67.7 195.2 C 69.6 195.2 72.5 195.3 72.8 195.1 C 68.3 195.0 67.4 194.6 62.5 194.6 C 63.6 194.1 57.0 193.6 64.2 193.4 C 65.4 193.8 69.4 194.0 69.2 194.2 C 71.4 194.4 75.7 194.2 77.8 194.1 C 75.6 193.8 71.3 193.7 71.0 193.3 C 74.4 193.2 77.2 193.1 79.4 193.4 C 72.2 193.6 83.4 193.8 86.2 194.2 C 85.4 194.0 83.7 193.9 82.7 193.7 C 88.3 193.7 91.0 194.0 91.3 193.4 C 98.0 193.2 96.6 193.7 101.4 193.7 C 98.2 193.1 104.5 193.4 101.3 192.9 C 109.2 192.8 103.7 193.4 106.5 193.4 C 108.9 193.4 109.2 193.2 111.5 193.1 C 115.2 193.4 122.5 193.4 123.5 193.9 C 126.7 193.9 127.2 194.1 130.3 194.1 C 131.1 193.9 132.1 193.8 133.6 193.7 C 134.1 193.8 136.4 194.0 137.1 193.8 C 128.2 193.2 130.7 193.2 121.5 192.8 C 120.9 192.9 119.6 193.0 121.6 193.1 C 115.4 193.2 113.5 193.0 108.1 193.0 C 107.4 192.7 106.1 192.1 101.2 192.5 C 102.3 192.1 101.0 192.0 103.0 191.9 C 105.6 192.1 109.3 192.2 113.1 192.4 C 113.4 192.2 112.7 192.0 114.7 192.0 C 116.5 192.2 119.3 192.3 121.6 192.1 C 121.6 192.3 120.8 192.4 119.9 192.5 C 128.3 192.6 125.2 192.1 131.7 192.4 C 130.7 192.1 126.6 192.1 130.0 191.9 C 135.7 191.7 137.1 192.0 140.1 192.1 C 140.5 192.0 140.2 191.9 141.8 191.9 C 146.0 192.1 132.9 192.6 140.3 193.2 C 140.7 192.7 147.8 192.9 148.8 193.2 C 146.6 193.5 142.4 193.0 142.1 193.3 C 155.0 193.3 142.5 193.9 155.8 194.1 C 155.7 193.9 155.7 193.7 155.7 193.5 C 150.4 193.6 150.2 193.3 150.4 192.9 C 145.8 192.9 143.9 192.4 140.2 192.6 C 141.5 191.9 143.9 192.6 148.7 192.6 C 148.5 192.2 144.2 192.2 143.5 191.9 C 154.4 192.2 156.6 191.6 167.1 192.2 C 164.5 191.8 172.9 192.2 172.1 191.9 C 163.1 191.9 166.6 190.8 165.1 190.7 C 159.2 190.7 162.0 191.5 158.6 191.7 C 156.9 191.3 157.7 191.1 158.4 190.6 C 163.7 190.7 162.8 190.6 166.9 190.4 C 170.4 190.8 173.5 191.5 168.8 191.7 C 169.8 191.7 176.7 191.4 177.2 191.7 C 170.6 191.7 177.9 191.9 174.0 192.1 C 179.2 192.4 188.1 191.9 194.3 192.2 C 193.7 192.0 196.0 192.0 195.8 191.7 C 189.7 192.1 188.3 191.2 182.2 191.2 C 184.8 191.2 183.3 190.9 182.1 190.8 C 188.1 191.0 191.3 190.7 195.7 191.1 C 195.6 190.9 195.6 190.8 195.6 190.7 C 202.9 191.0 201.9 190.9 207.4 190.6 C 209.6 190.8 206.8 191.5 206.1 191.9 C 208.7 191.7 218.4 191.8 212.7 191.3 C 218.4 191.3 217.1 191.9 222.9 191.9 C 222.9 191.5 217.5 191.5 219.3 190.9 C 224.7 190.9 221.8 191.4 226.1 191.1 C 226.4 191.4 226.6 191.7 231.2 191.7 C 227.8 191.4 231.7 191.6 232.9 191.3 C 230.8 191.3 228.9 191.2 227.7 191.1 C 236.2 191.2 237.8 191.2 244.5 191.1 C 242.2 191.5 246.0 191.6 241.5 191.9 C 245.7 191.6 251.1 192.1 253.3 191.9 C 250.7 191.7 246.4 191.7 244.6 191.5 C 258.1 191.3 265.0 190.9 276.7 191.5 C 274.8 191.5 272.0 191.4 271.7 191.6 C 273.0 191.6 275.1 191.6 275.2 191.7 C 271.1 191.7 267.1 191.7 265.0 191.9 C 261.3 191.7 267.1 191.5 263.2 191.5 C 262.7 191.7 255.5 191.5 258.3 192.0 C 264.6 191.6 270.9 192.0 273.9 192.6 C 279.5 191.9 274.0 191.9 280.1 191.2 C 280.0 191.4 281.5 191.5 283.5 191.6 C 281.4 191.0 289.4 191.3 290.2 191.3 C 287.3 191.6 276.2 191.9 282.2 192.4 C 279.2 191.4 295.3 192.6 292.0 191.8 C 299.3 191.8 296.8 192.3 300.6 191.8 C 300.8 192.0 300.4 192.2 302.4 192.2 C 304.4 192.2 305.0 192.1 305.8 192.0 C 295.6 191.8 298.4 191.2 291.8 191.2 C 292.9 191.2 293.9 191.2 293.5 191.1 C 293.5 191.0 293.7 190.9 295.1 190.9 C 295.8 191.5 300.4 190.8 302.0 191.2 C 300.0 191.2 298.1 191.2 298.8 191.5 C 307.2 191.4 305.9 191.9 317.5 192.1 C 313.9 191.9 318.5 191.8 322.5 191.7 C 328.1 191.8 326.2 192.4 332.9 192.4 C 331.8 191.4 340.1 192.5 347.9 191.8 C 347.3 192.4 357.9 192.6 359.9 192.1 C 360.3 192.3 364.0 192.2 366.7 192.2 C 367.4 192.5 364.4 192.6 366.9 192.6 C 369.1 192.6 366.8 192.1 369.9 192.1 C 373.6 192.2 373.1 192.7 378.6 192.6 C 378.6 192.3 375.6 192.4 378.3 192.1 C 383.2 192.3 387.4 192.2 383.3 191.8 C 390.3 191.8 387.3 192.5 393.8 192.5 C 391.8 192.3 391.9 192.2 395.3 192.1 C 397.9 192.4 398.2 192.6 399.1 192.8 C 400.9 192.4 400.2 192.4 405.7 192.5 C 405.6 192.3 405.5 192.1 405.4 192.0 C 407.9 192.0 411.5 191.9 412.2 192.1 C 407.6 192.0 409.1 192.4 407.4 192.5 C 412.0 192.6 421.1 193.0 414.1 192.5 C 420.4 192.3 417.6 192.9 422.7 192.8 C 419.3 192.3 422.5 192.7 427.7 192.6 C 426.9 192.1 431.1 192.6 434.4 192.5 C 433.7 192.2 434.4 192.0 437.4 192.0 C 437.4 192.2 439.4 192.3 442.6 192.2 C 442.5 192.0 435.3 191.8 442.4 191.8 C 445.8 192.0 446.1 192.5 451.4 192.5 C 452.8 192.9 446.7 192.7 448.3 193.1 C 452.4 192.8 453.9 193.1 460.2 193.1 C 457.2 192.4 472.1 192.2 464.5 191.8 C 466.6 191.9 469.3 191.3 471.1 191.7 C 468.9 191.8 473.2 192.1 473.1 192.2 C 476.0 192.2 483.1 192.4 483.1 192.1 C 476.7 192.2 476.5 191.8 474.4 191.6 C 483.6 191.4 491.9 191.5 491.6 192.0 C 491.5 191.8 492.8 191.8 493.1 191.7 C 489.8 191.8 487.2 191.1 491.0 191.1 C 490.4 191.5 493.3 191.6 496.3 191.7 C 496.3 191.3 509.0 191.9 506.3 191.3 C 501.6 191.7 497.2 191.0 500.8 190.8 C 504.2 191.2 511.1 191.4 509.8 191.7 C 511.6 191.6 513.1 191.5 514.7 191.3 C 515.9 191.0 512.2 191.0 512.6 190.7 C 515.1 190.7 518.8 190.6 519.4 190.8 C 512.7 190.8 523.0 191.0 516.3 191.3 C 520.6 191.3 521.7 191.5 525.1 191.6 C 525.0 191.5 526.3 191.4 526.5 191.3 C 523.7 191.6 520.6 191.3 521.2 190.9 C 527.2 190.9 526.5 191.3 531.6 191.3 C 532.9 191.0 539.4 190.5 543.1 190.8 C 536.3 190.8 543.7 191.0 539.9 191.2 C 533.7 190.9 532.3 191.4 530.3 191.7 C 533.1 191.9 538.3 192.1 538.6 191.6 C 535.3 191.5 535.4 191.8 533.7 191.8 C 533.6 191.6 534.5 191.4 536.7 191.3 C 539.7 191.6 545.8 191.3 542.1 191.8 C 546.2 191.6 551.2 192.0 555.5 191.7 C 550.5 191.7 546.8 191.5 545.0 191.2 C 549.0 191.0 553.5 191.5 553.4 191.2 C 552.7 190.8 546.2 191.0 544.7 190.7 C 549.6 190.3 558.5 191.4 551.3 190.5 C 554.3 190.6 558.4 190.6 559.9 190.8 C 556.3 190.8 560.6 191.4 562.2 191.5 C 565.3 191.4 567.7 191.4 568.7 191.2 C 564.1 191.4 560.1 190.8 563.3 190.8 C 564.3 191.0 565.1 190.7 566.5 190.7 C 567.0 190.9 572.3 190.8 573.5 190.9 C 573.0 190.7 570.5 190.7 569.9 190.5 C 572.9 190.4 577.1 189.9 579.8 190.4 C 577.9 190.4 575.0 190.4 575.0 190.5 C 584.1 191.1 587.3 191.6 597.9 191.8 C 596.6 191.9 596.0 192.0 596.5 192.1 C 603.1 192.1 607.5 192.4 606.9 192.6 C 611.0 192.6 612.9 192.3 614.9 192.1 C 610.4 191.9 609.3 192.3 606.4 192.0 C 608.0 191.9 602.5 191.2 600.5 190.9 C 593.5 191.3 592.5 190.7 585.3 190.9 C 587.1 190.5 579.8 190.8 581.6 190.4 C 589.0 191.0 595.2 190.6 605.5 190.8 C 604.4 191.1 603.5 191.4 607.7 191.6 C 614.3 191.8 610.7 191.2 616.1 191.3 C 618.5 191.7 615.4 191.7 618.2 191.9 C 619.8 191.7 624.8 191.7 626.8 192.1 C 619.8 192.1 628.4 192.4 623.9 192.6 C 626.2 192.6 627.6 192.7 629.1 192.8 C 622.0 192.3 635.4 192.2 630.0 191.9 C 639.2 191.6 631.5 192.8 639.2 192.8 C 635.2 192.5 639.9 192.3 645.6 192.4 C 647.5 192.8 653.3 192.9 658.1 193.0 C 655.3 192.7 653.5 192.7 657.6 192.5 C 655.1 192.3 651.2 192.3 649.2 192.5 C 649.0 192.3 648.1 192.2 647.0 192.1 C 652.6 192.0 650.1 191.8 651.8 191.7 C 653.6 191.9 657.7 191.9 658.9 192.1 C 658.8 192.0 660.2 192.0 660.3 191.8 C 653.2 191.8 661.0 191.3 656.4 191.2 C 653.3 191.2 655.7 191.6 651.7 191.6 C 647.5 191.1 654.4 191.1 656.0 190.7 C 652.4 190.4 648.9 190.9 647.4 190.4 C 651.2 190.0 658.4 190.3 664.1 190.4 C 663.3 189.9 673.6 190.5 673.9 189.9 C 674.8 190.1 675.9 190.2 677.5 190.3 C 678.8 189.9 681.1 190.4 682.7 190.4 C 682.7 190.2 682.0 190.0 680.6 189.9 C 687.7 190.1 689.3 190.1 697.3 189.9 C 698.9 190.1 700.6 190.4 701.5 190.7 C 699.6 190.7 697.9 190.8 696.7 190.9 C 707.9 191.0 699.6 189.9 708.2 190.5 C 707.6 190.3 701.8 189.9 705.8 189.8 C 713.3 190.3 722.9 189.8 723.7 190.9 C 730.3 191.3 733.8 190.6 737.3 191.1 C 739.2 191.0 739.8 190.9 740.5 190.8 C 738.3 190.6 735.6 190.4 733.1 190.2 C 729.5 190.3 727.5 190.0 731.7 190.5 C 726.1 190.6 724.4 190.3 721.3 190.2 C 728.7 189.9 736.1 190.2 735.9 189.6 C 738.4 189.8 740.5 190.1 742.6 190.3 C 742.6 190.1 742.7 190.0 742.7 189.8 C 742.4 188.7 742.3 180.3 742.7 180.1 C 742.6 185.6 743.1 191.9 743.3 187.1 C 743.0 173.0 743.8 165.8 743.3 153.2 C 743.5 153.0 743.8 154.1 743.9 151.9 C 743.6 151.8 743.5 151.2 743.3 149.9 C 743.4 146.1 743.5 144.0 743.5 138.7 C 743.8 139.2 744.1 138.5 744.2 135.7 C 743.9 134.0 743.1 128.5 743.2 125.5 C 743.2 128.7 743.7 124.7 743.7 122.5 C 743.2 124.3 744.2 108.0 743.6 112.7 C 743.6 106.0 743.8 103.2 744.0 103.0 C 743.9 100.6 743.8 98.9 743.7 96.5 C 744.3 95.0 743.9 83.5 744.1 81.9 C 743.9 85.9 744.6 86.6 744.5 83.4 C 744.2 81.2 743.9 70.8 744.0 68.8 C 744.1 69.4 744.5 70.1 744.6 75.2 C 744.7 66.5 744.1 66.7 743.7 64.0 C 744.3 64.1 743.8 60.3 743.7 59.1 C 744.0 56.3 743.9 59.2 744.2 58.9 C 744.3 55.8 744.5 54.6 744.5 50.6 C 744.1 52.0 744.3 47.4 744.4 45.7 C 744.1 45.3 743.9 43.1 743.9 39.5 C 744.5 44.0 744.6 18.2 744.1 24.7 C 743.8 20.0 744.6 19.2 744.5 12.9 C 744.4 12.5 744.4 12.0 744.4 11.4 C 743.0 11.5 742.0 11.5 744.1 11.7 C 744.1 11.7 744.1 11.7 744.1 11.7 C 744.1 11.7 744.1 11.7 744.1 11.7 C 738.8 11.8 742.4 11.2 735.9 11.4 C 738.2 11.9 729.6 11.3 730.4 11.9 C 728.4 11.2 722.2 12.1 717.4 11.5 C 717.2 11.7 715.8 11.7 715.3 11.8 C 714.3 12.0 721.6 12.1 716.8 12.2 C 711.3 11.9 714.5 11.8 713.9 11.5 C 698.3 11.7 679.8 11.5 663.5 11.4 C 665.3 11.6 665.1 11.7 661.6 11.8 C 657.4 11.0 637.9 11.4 634.8 11.7 C 633.4 11.2 623.2 11.7 621.5 11.4 C 623.5 11.4 627.5 11.0 623.4 11.0 C 620.5 11.5 617.3 11.2 613.1 11.5 C 611.4 11.0 599.1 11.6 605.0 10.8 C 602.7 10.8 601.5 10.7 600.2 10.6 C 599.7 11.1 597.3 11.0 601.4 11.3 C 590.6 10.9 587.8 11.3 579.6 11.0 C 578.0 11.2 584.4 11.4 579.3 11.5 C 579.4 11.4 579.4 11.4 579.5 11.3 C 577.7 11.3 576.9 11.5 576.2 11.3 C 576.6 11.1 579.4 11.1 579.8 10.6 C 575.6 10.8 573.1 10.2 571.4 10.6 C 577.2 10.7 572.8 11.4 569.6 11.0 C 572.8 10.8 556.3 11.0 550.9 11.3 C 548.5 10.8 556.7 11.2 556.2 10.9 C 546.3 11.0 547.2 10.8 545.8 11.3 C 540.6 11.1 538.8 10.9 532.4 11.1 C 528.9 11.0 534.7 10.8 530.9 10.8 C 528.6 10.9 527.5 11.1 524.1 11.1 C 515.3 10.3 493.7 11.6 483.9 10.4 C 487.9 10.7 482.4 10.9 477.0 10.9 C 476.7 10.7 477.4 10.5 475.5 10.5 C 475.7 10.8 473.9 10.9 470.3 10.9 C 470.0 10.7 470.7 10.5 468.7 10.5 C 467.1 11.0 462.8 10.5 460.1 10.8 C 459.1 10.3 466.4 10.5 467.0 10.2 C 458.3 9.9 456.8 10.4 450.2 10.2 C 453.7 10.2 447.8 9.8 446.8 9.7 C 448.2 10.2 442.9 10.3 446.7 10.6 C 444.2 10.6 440.4 10.7 440.0 10.5 C 441.3 10.5 443.4 10.5 443.4 10.4 C 440.3 10.4 436.4 10.0 434.9 10.4 C 437.0 10.4 438.3 10.5 438.3 10.8 C 437.4 10.9 436.4 11.0 434.8 11.1 C 439.7 10.1 425.6 10.6 424.8 10.9 C 423.6 10.2 422.7 10.2 423.3 10.0 C 417.3 9.9 418.1 10.4 414.6 10.5 C 415.7 10.0 416.9 9.7 411.4 9.5 C 412.6 10.0 406.0 9.9 407.9 10.5 C 393.9 10.6 391.0 10.1 382.6 10.1 C 382.4 10.2 385.0 10.3 382.6 10.4 C 378.6 10.2 375.2 10.1 372.5 9.8 C 370.4 10.2 373.4 10.2 370.9 10.4 C 364.6 10.0 366.1 9.5 360.6 9.2 C 353.9 9.5 356.4 9.3 352.3 9.7 C 354.1 9.7 356.4 9.9 353.9 10.0 C 349.8 9.6 348.1 9.1 347.1 9.1 C 350.1 9.0 352.4 9.1 353.9 9.2 C 354.9 8.9 359.0 8.9 355.5 8.7 C 359.8 8.8 364.6 8.8 370.9 8.8 C 368.7 8.4 376.3 8.7 374.2 8.3 C 367.2 8.4 365.6 8.1 358.9 8.2 C 360.5 8.6 353.5 8.4 352.2 8.3 C 352.2 8.5 347.6 8.4 348.7 8.8 C 343.6 8.9 343.8 8.6 338.6 8.7 C 338.3 8.5 338.9 8.3 337.0 8.3 C 335.2 8.7 333.5 8.1 331.8 8.2 C 333.0 8.6 325.6 8.4 325.1 8.7 C 327.1 8.7 329.9 8.6 330.2 8.8 C 322.0 8.8 328.6 9.2 330.3 9.5 C 330.0 9.3 332.9 8.7 333.6 9.1 C 326.7 9.4 343.4 9.7 337.1 9.6 C 331.8 9.5 332.2 9.8 326.9 9.7 C 320.5 9.0 327.9 8.6 321.5 8.0 C 317.8 8.4 315.1 8.3 314.9 8.7 C 314.0 8.5 313.0 8.4 311.5 8.3 C 309.9 8.5 316.5 8.7 311.6 8.8 C 308.9 8.7 311.8 8.2 306.3 8.3 C 304.1 8.6 313.0 8.7 308.1 8.8 C 302.7 8.2 309.3 9.0 303.2 9.0 C 302.7 8.9 301.7 8.9 299.7 8.9 C 299.3 8.7 300.1 8.4 297.9 8.4 C 296.9 9.1 295.6 8.1 291.1 8.3 C 288.8 8.8 295.8 8.5 294.6 8.9 C 289.4 8.4 286.5 9.0 284.5 8.9 C 288.6 8.6 278.0 8.6 277.6 8.3 C 278.9 8.7 276.5 8.5 270.8 8.9 C 270.3 8.2 263.8 8.7 262.1 8.1 C 261.4 8.3 259.8 8.5 259.0 8.7 C 261.0 8.7 263.0 8.7 262.4 8.9 C 260.7 8.9 259.1 8.9 257.3 8.9 C 254.4 8.6 261.4 7.8 250.1 7.9 C 251.6 8.4 246.9 8.5 243.8 8.7 C 244.3 9.1 248.3 8.7 248.8 8.9 C 245.2 9.2 241.1 8.9 238.7 8.7 C 232.1 8.9 224.3 8.6 214.9 8.8 C 212.6 8.5 222.7 8.5 216.4 8.3 C 213.7 8.3 215.2 8.6 211.5 8.5 C 214.1 6.8 185.9 8.2 183.7 7.5 C 182.7 7.8 174.5 7.6 175.6 8.1 C 180.9 7.8 184.9 8.3 187.7 8.5 C 192.7 8.3 182.9 8.1 187.5 8.0 C 188.1 8.3 194.9 8.0 194.4 8.4 C 187.2 8.4 198.4 8.8 193.2 9.2 C 186.4 9.1 173.2 9.6 176.1 9.1 C 176.2 9.2 179.2 9.2 179.4 9.1 C 171.7 8.9 167.4 9.2 164.4 9.5 C 160.8 9.1 147.6 9.7 150.9 9.5 C 149.6 9.1 159.1 9.5 157.5 9.2 C 143.4 9.0 143.3 9.4 133.8 9.1 C 137.1 9.5 124.6 9.8 125.6 9.6 C 125.3 9.2 122.3 8.9 117.0 9.3 C 117.6 8.9 114.5 8.8 111.4 8.7 C 110.4 9.0 114.2 9.0 113.7 9.3 C 110.9 9.3 108.0 9.3 105.2 9.3 C 104.9 9.2 105.2 8.9 103.2 8.9 C 100.3 9.2 89.2 9.5 90.0 9.3 C 94.4 8.8 81.9 8.9 89.4 8.5 C 87.2 8.5 86.9 8.4 84.1 8.4 C 84.3 8.6 84.4 8.8 84.6 8.9 C 78.3 9.0 80.9 8.3 75.6 8.3 C 75.3 8.5 73.0 8.5 72.5 8.7 C 74.6 8.7 74.6 8.5 77.5 8.5 C 74.9 9.2 83.4 8.9 83.2 9.3 C 77.3 9.4 77.0 9.0 74.4 8.8 C 67.2 9.1 70.5 8.9 62.5 8.8 C 62.6 9.0 64.8 9.0 64.5 9.2 C 54.8 9.1 55.1 8.3 48.7 8.5 C 50.2 8.5 55.8 8.2 51.7 8.2 C 47.4 8.3 46.4 8.7 40.5 8.8 C 40.0 8.6 40.3 8.4 38.3 8.4 C 36.0 8.6 36.1 8.9 34.0 9.1 C 33.3 8.9 30.1 9.0 28.9 9.1 C 26.4 8.7 29.3 8.7 26.6 8.5 C 21.6 8.6 19.8 9.5 15.6 9.3 C 15.3 8.9 12.4 8.9 9.2 9.0 C 9.2 9.8 9.2 10.7 9.2 11.6 C 8.7 11.7 8.8 20.6 8.7 26.2 C 9.1 25.3 9.0 31.1 9.4 30.1 C 9.4 27.3 9.5 25.9 9.6 25.4 C 9.7 32.0 8.9 33.3 9.5 38.8 C 9.2 41.0 9.0 43.9 8.9 48.3 C 9.1 49.0 9.3 40.7 9.4 45.4 C 9.2 45.6 9.3 47.2 9.4 48.7 C 8.9 47.7 8.8 51.2 8.6 53.2 C 8.9 57.4 8.4 65.3 8.9 61.8 C 8.9 68.1 8.2 63.5 8.2 68.3 C 8.8 66.2 8.8 74.5 9.1 70.6 C 9.2 77.1 8.5 76.1 8.3 73.4 C 8.2 79.2 8.6 80.8 8.3 83.6 C 8.7 81.0 9.0 90.3 8.7 85.5 C 8.3 83.8 8.6 90.8 8.3 92.0 C 8.6 90.1 8.6 93.2 8.9 89.0 C 9.0 93.6 9.0 100.2 8.6 104.1 C 8.9 109.8 8.9 115.1 8.5 112.5 C 8.6 117.8 8.6 115.8 8.5 121.1 C 8.6 121.1 8.6 119.6 8.7 119.3 C 8.7 126.6 8.5 125.0 8.5 134.6 C 8.0 133.3 8.0 139.4 7.7 141.2 C 7.7 137.2 7.8 134.1 7.9 131.0 C 7.7 130.2 7.6 133.3 7.6 130.8 C 7.7 130.5 7.8 129.1 7.8 127.6 C 7.4 133.6 7.1 119.4 7.6 124.0 C 7.5 124.0 7.4 124.3 7.4 125.6 C 7.8 124.6 7.7 124.6 8.1 125.9 C 8.0 122.7 8.5 120.4 8.1 119.1 C 7.9 119.2 8.0 122.2 7.8 122.5 C 7.6 114.6 8.3 120.3 8.2 114.2 C 7.8 112.6 7.7 115.7 7.4 117.1 C 7.4 111.5 7.4 106.7 7.7 105.3 C 7.5 100.1 7.4 105.5 7.2 101.7 C 7.3 100.0 7.7 100.3 7.7 96.8 C 7.5 92.9 7.4 98.8 7.3 95.0 C 7.6 91.0 7.9 98.1 7.9 91.8 C 7.3 93.0 8.0 86.2 7.7 86.5 C 7.8 90.2 7.2 89.9 7.6 88.3 C 8.1 80.3 6.6 73.6 7.6 66.0 C 7.4 65.9 7.4 64.6 7.3 64.2 C 7.0 70.2 7.0 79.3 6.4 80.6 C 6.5 85.7 6.9 85.2 7.0 86.2 C 6.5 91.7 6.5 91.2 5.9 87.3 C 5.8 77.4 6.1 73.4 6.3 67.0 C 6.0 63.3 6.1 67.2 5.9 68.4 C 6.3 48.4 5.1 63.0 5.2 55.8 C 5.4 56.2 5.5 54.7 5.6 52.8 C 5.4 52.6 5.5 49.7 5.3 49.0 C 5.3 50.4 5.2 51.0 5.1 50.5 C 4.9 45.4 5.4 47.7 5.6 47.6 C 5.6 51.4 5.6 54.0 5.9 54.6 C 5.7 49.5 6.0 45.9 5.6 42.4 C 6.2 38.1 6.7 45.8 7.2 43.6 C 7.5 44.7 6.2 39.6 6.0 35.8 C 6.0 29.6 5.6 29.1 5.6 23.4 C 6.0 22.3 5.8 29.3 6.1 29.1 C 6.1 27.4 6.2 27.1 6.2 25.7 C 6.2 21.6 5.8 21.6 5.7 18.3 C 6.1 17.0 5.9 15.8 5.7 13.3 C 5.9 9.6 6.0 15.8 6.1 11.8 C 6.2 9.5 6.0 7.4 5.9 5.7 C 7.0 5.6 7.8 5.5 8.4 5.5 C 8.9 5.7 8.4 5.9 10.4 5.9 C 15.0 5.6 16.1 5.6 9.9 5.4 C 15.3 5.5 17.5 5.3 16.2 4.9 C 10.2 4.8 7.6 4.9 4.9 4.7 C 4.8 5.4 4.7 6.1 4.6 6.9 C 5.0 8.9 4.7 10.9 4.6 13.8 C 5.2 12.6 4.6 17.4 4.9 19.4 C 5.0 17.5 5.1 15.5 5.2 14.5 C 5.2 23.0 5.1 22.8 5.7 30.4 C 5.5 30.2 5.4 31.0 5.3 31.7 C 5.2 29.4 5.3 23.3 4.9 22.8 C 4.5 27.3 5.2 29.6 4.7 34.7 C 5.0 37.3 5.2 30.6 5.2 35.1 C 4.9 37.1 4.7 39.8 4.6 43.2 C 4.6 47.0 4.8 49.0 5.0 52.1 C 4.8 52.3 4.6 52.6 4.7 55.5 C 4.8 55.4 5.0 52.6 5.1 55.7 C 4.6 64.5 4.2 70.3 4.4 79.6 C 4.6 76.5 5.0 69.5 5.0 73.0 C 4.7 76.9 5.2 82.7 4.8 86.7 C 4.7 88.0 5.0 81.8 4.3 82.9 C 4.3 87.0 4.3 89.5 4.2 91.4 C 4.4 91.6 4.3 96.3 4.7 95.3 C 4.7 91.9 4.3 90.6 4.4 89.9 C 5.5 93.4 4.1 102.4 4.0 108.8 C 4.2 113.1 4.4 105.8 4.6 110.7 C 4.7 113.8 3.8 115.1 3.7 110.3 C 3.8 107.2 3.3 105.6 3.8 105.1 C 3.7 103.7 3.8 101.7 3.7 101.7 C 3.6 104.0 3.4 103.4 3.3 104.9 C 3.3 101.5 2.5 100.6 3.0 97.8 C 3.0 99.8 3.1 100.6 3.3 101.5 C 3.1 92.1 3.5 89.4 3.7 84.2 C 3.4 86.9 3.5 83.9 3.1 83.9 C 3.2 88.0 3.0 95.6 2.9 90.7 C 3.4 88.0 2.1 84.7 2.6 81.9 C 2.6 84.3 2.9 84.1 3.0 85.5 C 3.0 82.0 3.4 82.3 3.4 78.8 C 2.8 67.0 3.9 59.1 3.0 40.3 C 3.0 34.0 3.2 46.2 3.5 45.9 C 3.5 44.1 3.6 43.8 3.6 42.5 C 3.2 41.9 3.7 39.3 3.3 36.9 C 3.7 37.6 3.3 28.8 3.6 25.0 C 3.5 24.7 3.3 25.0 3.3 23.0 C 3.5 17.8 3.5 10.6 3.4 3.3 C 13.2 3.2 23.0 3.1 28.6 3.3 C 28.0 3.0 32.2 3.0 33.2 2.8 C 39.3 2.9 36.9 3.2 45.3 2.8 C 49.6 2.7 44.7 3.1 43.9 3.2 C 56.9 3.0 68.6 3.4 76.4 2.9 C 80.5 2.8 76.7 3.2 85.3 3.3 C 85.0 2.7 99.1 3.6 100.4 2.9 C 105.6 2.8 115.5 3.6 110.9 3.1 C 117.9 3.0 113.6 3.6 116.5 3.6 C 121.3 3.5 114.3 2.6 119.1 2.5 C 118.9 3.0 123.0 2.8 126.4 3.2 C 122.6 3.2 120.1 3.2 119.7 3.5 C 122.9 3.2 123.0 3.5 128.3 3.5 C 132.2 3.2 143.5 2.9 147.2 3.5 C 147.3 3.3 146.2 3.2 145.3 3.1 C 148.6 3.0 152.9 3.5 152.1 2.9 C 159.8 2.9 163.4 3.4 167.5 2.9 C 170.8 2.8 166.6 3.3 176.5 3.3 C 176.5 3.0 193.9 3.0 198.8 3.3 C 198.7 2.8 199.9 3.3 202.1 3.3 C 202.4 3.2 201.8 3.0 203.8 2.9 C 204.2 3.1 205.7 3.0 207.2 2.9 C 206.3 3.6 213.4 2.8 214.1 3.2 C 212.7 3.2 212.8 3.5 214.3 3.6 C 214.6 3.1 222.1 3.8 221.1 3.5 C 219.6 3.3 214.7 3.4 215.9 3.1 C 222.6 2.9 220.1 3.4 224.7 3.5 C 224.2 3.3 221.5 3.2 224.5 3.1 C 229.2 3.2 224.9 3.1 228.0 3.5 C 230.5 3.4 234.9 3.1 236.6 3.1 C 236.1 3.1 237.7 3.3 238.3 3.3 C 247.3 3.5 267.3 3.0 276.1 3.6 C 276.8 3.4 278.6 3.3 277.8 3.1 C 283.1 3.3 282.7 3.2 288.1 3.3 C 288.1 3.2 288.0 3.0 288.0 2.8 C 294.8 2.6 288.8 3.4 293.3 3.3 C 293.6 2.4 296.1 3.6 300.3 3.6 C 300.7 3.4 302.7 3.3 302.0 3.1 C 308.5 3.1 308.3 3.7 314.0 3.5 C 312.6 3.4 311.4 2.2 312.0 1.8 C 313.0 2.0 314.7 2.1 317.3 2.2 C 314.3 2.6 316.2 4.1 324.4 3.6 C 319.9 3.7 318.2 3.5 319.1 3.2 C 325.3 3.2 327.5 3.4 332.9 3.5 C 333.7 3.1 329.8 3.0 331.1 2.6 C 332.5 2.5 333.1 2.4 332.8 2.3 C 338.5 2.4 338.7 2.7 344.9 2.4 C 344.9 2.7 343.6 2.7 341.4 2.5 C 341.7 2.9 341.8 3.2 338.1 3.2 C 337.5 3.0 339.7 2.5 334.5 2.7 C 334.5 2.9 334.5 3.1 334.6 3.3 C 338.4 3.4 347.5 3.6 348.3 3.5 C 346.5 3.3 343.4 3.2 344.9 2.8 C 351.5 2.9 353.3 3.4 358.7 3.6 C 368.1 3.5 384.7 3.6 382.7 2.9 C 388.4 3.1 386.4 3.1 391.4 3.2 C 389.9 2.8 397.1 3.0 396.6 2.7 C 390.4 2.8 392.2 2.7 386.2 2.8 C 386.4 2.6 387.4 2.4 389.7 2.3 C 390.1 2.5 392.6 2.6 396.6 2.6 C 396.0 2.5 392.3 2.1 396.6 2.0 C 397.0 2.1 398.0 2.2 400.0 2.2 C 400.0 2.4 400.0 2.6 400.0 2.8 C 397.6 2.9 394.8 3.0 393.1 3.2 C 394.7 3.2 395.1 3.3 396.6 3.3 C 397.6 3.1 404.6 3.3 405.1 3.1 C 402.3 3.1 400.5 2.9 403.5 2.8 C 404.0 2.9 408.7 3.0 410.4 2.8 C 404.3 2.6 406.7 2.6 403.5 2.2 C 410.4 2.1 409.4 2.6 417.3 2.4 C 417.4 2.7 417.4 3.1 415.4 3.2 C 420.3 4.0 432.1 3.2 436.0 3.3 C 433.3 3.3 430.2 3.8 434.2 3.9 C 434.2 3.7 437.3 3.7 437.8 3.6 C 439.2 2.8 435.8 2.5 432.8 2.0 C 436.0 2.1 436.7 1.9 439.7 1.9 C 440.7 2.2 437.4 2.8 441.3 2.8 C 442.2 2.2 448.5 2.7 449.9 2.3 C 447.2 2.3 445.4 2.1 448.3 2.0 C 447.7 2.3 453.3 2.2 453.4 2.4 C 448.9 2.6 447.6 3.0 444.8 2.9 C 448.3 3.0 442.0 3.3 448.0 3.3 C 450.8 3.1 452.2 2.7 458.6 2.7 C 460.9 2.8 458.6 3.2 461.8 3.2 C 461.1 2.8 468.0 2.7 463.7 3.1 C 466.0 3.1 467.4 3.1 468.7 3.2 C 465.4 2.8 481.9 2.3 479.4 2.0 C 479.3 2.6 480.0 3.1 480.8 3.2 C 484.1 2.7 487.7 3.1 496.4 3.1 C 496.2 2.6 497.8 3.0 501.5 3.0 C 502.2 2.7 499.1 2.6 501.6 2.6 C 505.7 2.7 505.9 2.8 506.7 3.0 C 509.7 2.9 512.0 3.0 513.5 3.1 C 513.7 2.9 512.8 2.8 512.0 2.7 C 523.4 3.1 529.6 2.6 539.5 2.7 C 535.4 2.5 534.3 3.1 537.7 3.1 C 539.7 3.0 541.6 2.9 542.8 2.8 C 540.6 2.4 541.5 2.7 546.4 2.7 C 550.8 2.5 545.0 2.1 548.4 2.0 C 552.0 2.3 549.7 2.4 551.7 2.6 C 553.3 2.6 555.2 2.6 556.9 2.6 C 553.8 2.3 557.4 2.2 560.5 2.0 C 558.1 2.5 559.4 2.6 565.5 2.4 C 566.1 2.7 562.8 2.8 565.3 2.8 C 566.6 2.9 571.6 2.3 575.6 2.7 C 574.2 2.7 573.5 2.8 573.8 3.0 C 578.5 2.7 581.7 3.2 585.7 3.3 C 581.8 3.0 584.2 2.7 582.6 2.4 C 586.5 2.8 591.6 2.3 594.5 2.8 C 588.7 2.7 593.9 3.6 597.6 3.6 C 598.6 3.2 592.4 3.3 594.5 2.8 C 596.7 2.5 600.9 3.1 603.1 2.7 C 603.0 2.5 600.4 2.8 599.9 2.6 C 603.1 2.5 599.0 2.4 601.7 2.3 C 603.1 2.7 605.3 2.2 607.0 2.2 C 609.1 2.3 613.3 2.9 615.3 2.6 C 615.4 2.4 612.4 2.4 612.1 2.3 C 621.7 2.1 624.2 2.6 632.9 2.2 C 633.8 2.4 635.4 2.5 637.8 2.6 C 637.8 2.3 639.4 2.2 641.5 2.2 C 645.0 2.4 648.6 2.6 653.2 2.7 C 652.1 3.0 649.8 3.2 656.2 3.2 C 656.6 3.1 654.0 3.0 656.3 3.0 C 656.3 3.0 657.7 3.1 658.2 3.0 C 658.3 2.9 658.3 2.8 658.4 2.7 C 656.5 2.7 654.9 2.7 653.2 2.7 C 653.5 2.5 653.1 2.3 651.9 2.2 C 659.6 2.0 658.5 2.8 663.6 2.4 C 664.0 3.1 665.5 3.2 661.1 3.6 C 665.5 3.5 668.7 3.3 670.1 3.0 C 664.9 3.0 666.9 2.5 665.6 2.3 C 668.9 2.3 669.1 2.1 670.8 2.1 C 674.5 2.3 666.2 2.8 673.7 2.8 C 668.4 2.3 678.8 2.4 682.5 2.6 C 682.0 2.4 680.7 2.4 682.8 2.2 C 693.3 1.9 691.3 3.3 698.0 2.6 C 697.2 2.8 700.1 2.8 701.1 3.0 C 696.0 3.1 694.6 3.2 692.4 3.2 C 692.6 3.4 694.0 3.4 695.5 3.5 C 695.7 3.2 697.1 3.2 699.1 3.4 C 700.8 3.1 700.8 2.5 705.2 2.2 C 705.4 2.3 704.7 2.6 706.7 2.6 C 708.8 2.2 704.6 3.3 713.1 3.1 C 711.7 3.0 711.1 2.7 712.0 2.5 C 716.2 2.3 715.2 2.5 720.7 2.3 C 722.1 3.0 716.3 3.1 714.4 3.5 C 718.2 3.4 721.6 3.0 725.1 3.2 C 722.4 3.0 725.6 2.7 729.0 2.6 C 732.0 2.7 728.3 3.2 731.9 3.2 C 734.9 3.1 736.7 2.8 734.2 2.6 C 740.5 2.7 739.4 2.3 744.7 2.3 C 744.7 2.6 743.1 2.6 741.2 2.5 C 741.4 2.6 740.5 2.8 742.5 2.8 C 745.1 2.6 749.5 2.5 753.4 2.4 C 753.4 4.3 753.5 6.1 753.6 7.5 C 752.8 16.0 753.7 24.6 753.5 32.9 C 753.0 29.9 753.4 43.5 752.9 47.6 C 753.1 50.0 753.9 57.1 753.6 54.4 C 753.0 55.4 753.2 60.0 753.1 63.8 C 753.2 63.7 753.3 63.7 753.5 63.6 C 753.5 71.7 753.1 73.6 752.8 76.3 C 753.1 86.0 752.5 96.7 752.9 108.6 C 752.5 111.5 752.6 114.1 752.3 121.0 C 752.7 120.9 752.7 126.5 752.7 131.7 C 753.0 130.6 752.9 135.5 753.2 135.6 C 753.2 130.8 753.7 132.7 753.8 130.3 C 753.4 136.5 754.3 140.0 753.8 144.8 C 753.6 138.5 753.1 136.4 752.5 135.3 C 752.7 142.7 752.5 146.4 752.2 147.7 C 752.5 148.3 752.7 147.6 752.8 146.1 C 752.8 148.5 752.8 151.0 752.8 153.2 C 752.6 153.8 752.5 150.4 752.4 153.0 C 752.5 154.8 752.7 156.8 752.8 158.6 C 752.4 160.5 752.5 155.7 752.3 154.9 C 752.1 164.3 752.9 160.6 753.1 166.0 C 752.8 167.2 752.4 166.5 752.3 170.8 C 752.6 172.8 752.9 173.5 752.9 178.4 C 752.9 181.5 752.3 177.8 752.3 181.4 C 752.4 182.1 752.4 183.6 752.3 185.1 C 752.5 185.1 752.6 186.7 752.7 188.9 C 752.5 189.2 752.6 192.8 752.7 194.3 C 752.5 194.4 752.2 197.9 752.2 199.9 C 751.8 199.9 751.5 200.0 751.3 200.0 C 751.4 200.1 751.8 200.1 752.4 200.1 C 752.4 199.2 752.5 197.9 752.5 197.8 C 752.5 198.7 752.5 199.5 752.5 200.3 C 749.9 200.3 748.0 200.3 746.5 200.4 C 744.5 199.5 738.9 200.2 730.6 199.8 C 726.0 200.1 732.2 200.4 726.3 200.7 C 722.4 200.4 726.8 200.3 725.5 199.9 C 724.5 199.8 718.6 199.6 718.7 199.9 C 718.9 200.1 721.8 200.0 722.3 200.2 C 718.1 200.5 717.9 200.0 715.2 199.9 C 715.9 200.2 712.9 200.3 712.5 200.5 C 700.4 200.8 699.9 200.1 694.6 199.8 C 694.8 199.9 691.7 199.9 691.5 200.0 C 694.9 199.9 699.9 200.2 695.1 200.3 C 695.7 200.1 688.8 200.3 688.4 200.4 C 689.4 200.6 693.8 200.5 692.4 200.9 C 686.0 201.1 687.9 200.3 683.5 200.7 C 682.7 200.4 685.6 200.4 686.6 200.3 C 684.6 200.3 681.8 200.3 681.3 200.1 C 683.7 200.0 683.4 199.7 684.2 199.5 C 681.2 199.8 674.9 199.5 679.5 200.0 C 672.6 199.9 666.3 200.2 671.3 200.5 C 665.9 200.6 668.6 200.1 664.4 200.4 C 664.7 200.0 665.8 199.7 661.8 199.4 C 661.4 199.6 658.4 199.7 659.1 200.0 C 650.9 200.0 648.2 199.6 644.6 199.2 C 648.1 199.8 643.7 199.4 640.0 199.8 C 637.4 199.6 639.3 199.1 632.8 199.2 C 640.4 199.8 624.5 199.4 628.2 200.0 C 619.5 199.7 619.7 199.7 610.8 199.6 C 611.4 199.3 613.4 199.2 617.2 199.1 C 614.8 199.5 625.0 199.5 624.1 199.2 C 624.0 199.1 624.0 199.1 623.9 199.0 C 617.5 199.0 613.0 198.9 610.0 198.7 C 608.9 199.0 606.1 199.2 607.4 199.6 C 600.9 199.1 595.0 199.8 591.8 199.4 C 593.9 199.3 595.9 199.3 595.1 199.1 C 592.7 199.2 589.7 199.3 590.3 199.6 C 595.4 199.7 596.4 199.8 598.7 199.5 C 596.8 199.8 604.1 200.0 599.2 200.1 C 598.9 199.5 589.3 200.4 592.3 200.0 C 597.6 199.8 585.9 199.7 585.1 199.4 C 585.1 199.4 585.1 199.4 585.1 199.4 Z M 3.4 80.5 C 3.6 85.9 4.0 79.6 3.9 75.7 C 3.8 76.8 3.6 77.2 3.4 77.1 C 3.5 78.7 3.6 80.2 3.4 80.5 C 3.4 80.5 3.4 80.5 3.4 80.5 Z M 9.1 29.9 C 8.6 27.8 8.9 36.5 8.9 39.9 C 9.0 39.0 9.1 37.9 9.1 40.1 C 9.5 36.8 8.8 34.8 9.1 29.9 C 9.1 29.9 9.1 29.9 9.1 29.9 Z M 175.2 7.5 C 174.0 7.6 170.7 7.7 170.3 7.5 C 168.3 7.5 168.9 7.7 168.7 7.9 C 164.7 7.9 169.3 7.3 163.3 7.5 C 161.4 8.3 174.4 8.4 175.2 7.5 C 175.2 7.5 175.2 7.5 175.2 7.5 Z M 645.0 193.5 C 642.3 193.3 647.8 193.0 645.8 192.6 C 636.7 192.9 644.4 193.4 631.2 193.3 C 632.1 193.4 633.2 193.5 633.2 193.7 C 639.2 193.5 639.4 193.2 638.5 193.9 C 641.3 193.9 641.3 193.1 645.0 193.5 C 645.0 193.5 645.0 193.5 645.0 193.5 Z M 521.8 191.9 C 522.9 192.0 523.8 192.1 523.9 192.2 C 527.7 192.1 526.8 192.0 532.2 192.1 C 531.1 191.5 526.1 191.6 521.8 191.9 C 521.8 191.9 521.8 191.9 521.8 191.9 Z M 200.7 190.9 C 199.6 190.9 198.4 190.9 197.3 190.9 C 198.2 191.2 195.2 191.7 200.9 191.6 C 201.2 191.5 200.2 191.5 199.2 191.5 C 200.2 191.3 203.0 191.3 202.4 191.1 C 200.9 191.1 200.7 191.0 200.7 190.9 C 200.7 190.9 200.7 190.9 200.7 190.9 Z M 66.0 194.6 C 72.5 194.2 56.3 193.2 66.0 194.6 C 66.0 194.6 66.0 194.6 66.0 194.6 C 66.0 194.6 66.0 194.6 66.0 194.6 Z M 80.1 199.1 C 80.3 199.3 81.8 199.2 81.8 199.1 C 87.4 199.3 82.0 199.4 85.2 199.7 C 89.6 199.3 82.8 199.0 88.6 198.7 C 87.4 198.5 83.4 199.1 80.1 199.1 C 80.1 199.1 80.1 199.1 80.1 199.1 Z M 690.9 2.8 C 686.1 2.9 684.4 3.3 683.2 3.7 C 686.4 3.7 689.0 3.8 689.9 4.0 C 696.1 3.8 686.1 3.7 685.2 3.6 C 686.1 3.3 690.5 3.2 690.9 2.8 C 690.9 2.8 690.9 2.8 690.9 2.8 Z M 675.3 2.9 C 673.2 3.1 670.0 3.3 669.6 3.6 C 672.7 3.5 672.9 3.7 672.9 3.8 C 675.8 3.6 672.6 3.4 675.3 2.9 C 675.3 2.9 675.3 2.9 675.3 2.9 Z M 704.2 3.3 C 702.0 3.4 702.6 3.7 702.0 3.9 C 705.2 3.8 705.6 4.0 708.8 4.0 C 708.9 3.9 709.0 3.7 709.1 3.6 C 706.5 3.6 706.2 3.7 703.8 3.7 C 704.0 3.6 704.1 3.5 704.2 3.3 C 704.2 3.3 704.2 3.3 704.2 3.3 Z M 659.5 3.5 C 650.5 3.4 646.0 4.1 639.7 4.6 C 646.3 4.6 652.7 3.7 657.3 4.0 C 663.0 3.9 655.6 3.7 655.9 3.6 C 656.1 3.5 658.1 3.5 659.5 3.5 C 659.5 3.5 659.5 3.5 659.5 3.5 Z M 580.4 3.5 C 578.7 3.2 575.0 3.8 569.9 3.7 C 570.8 3.8 571.6 3.9 571.5 4.1 C 578.8 4.2 574.9 3.5 580.4 3.5 C 580.4 3.5 580.4 3.5 580.4 3.5 Z M 537.4 3.7 C 532.9 3.8 539.6 3.9 537.2 4.2 C 542.2 4.2 547.5 4.3 547.5 3.8 C 542.1 4.1 540.9 4.1 537.4 3.7 C 537.4 3.7 537.4 3.7 537.4 3.7 Z M 506.4 3.7 C 501.3 3.9 508.4 4.2 506.1 4.6 C 508.1 4.6 507.7 4.4 507.9 4.2 C 509.4 4.3 510.7 4.4 513.0 4.4 C 511.5 4.1 505.6 4.2 506.4 3.7 C 506.4 3.7 506.4 3.7 506.4 3.7 Z M 751.8 69.4 C 751.7 66.4 751.3 67.4 751.4 60.8 C 751.4 70.8 750.2 65.7 750.4 78.6 C 750.5 76.5 750.7 77.8 750.5 78.6 C 750.8 83.5 750.7 73.9 751.1 78.4 C 751.1 74.8 750.7 77.0 750.6 73.4 C 751.0 69.5 751.2 67.2 751.8 69.4 C 751.8 69.4 751.8 69.4 751.8 69.4 Z M 750.0 78.7 C 749.9 82.3 750.6 82.1 750.2 83.9 C 750.2 85.6 750.4 85.2 750.5 85.6 C 750.5 84.2 750.6 84.0 750.6 83.8 C 750.5 80.8 750.4 77.7 750.0 78.7 C 750.0 78.7 750.0 78.7 750.0 78.7 Z M 750.0 45.6 C 750.2 51.5 749.9 53.3 750.2 56.0 C 749.7 58.3 750.5 59.8 750.0 63.1 C 750.1 68.8 750.3 64.5 750.5 62.9 C 750.7 68.5 750.1 64.4 750.2 70.0 C 750.7 70.8 750.6 63.7 751.0 64.4 C 751.0 60.1 750.7 60.2 750.6 57.5 C 750.7 55.5 750.9 56.1 751.0 55.7 C 750.9 50.7 751.2 50.9 751.1 46.8 C 750.8 46.0 750.7 47.8 750.8 52.4 C 750.6 47.7 750.3 45.8 750.5 40.2 C 750.9 43.9 751.0 26.2 750.4 28.1 C 750.3 32.9 750.6 31.3 750.8 33.0 C 750.4 39.4 750.5 43.1 750.0 45.6 C 750.0 45.6 750.0 45.6 750.0 45.6 Z M 704.9 4.6 C 703.4 4.6 702.2 4.5 699.8 4.5 C 700.0 4.1 702.9 4.2 700.3 4.0 C 696.6 3.9 695.7 4.1 693.3 4.1 C 694.5 4.3 701.8 4.7 697.6 4.9 C 698.7 5.1 701.1 5.1 704.3 5.2 C 701.1 4.6 709.5 5.1 712.9 5.2 C 713.1 4.6 718.8 5.3 721.7 4.9 C 720.0 4.5 712.7 4.9 709.7 4.9 C 711.2 4.8 701.9 4.0 704.9 4.6 C 704.9 4.6 704.9 4.6 704.9 4.6 Z M 750.2 92.6 C 750.4 93.6 750.4 97.5 750.5 94.4 C 750.7 95.9 750.4 99.2 751.0 97.8 C 751.0 99.7 751.0 101.4 751.0 103.1 C 750.8 102.4 750.9 97.6 750.5 99.5 C 750.7 103.1 750.5 101.7 750.5 106.5 C 750.1 103.9 750.1 106.7 749.6 104.8 C 749.8 106.1 749.8 110.4 750.1 110.1 C 750.0 116.7 749.6 108.2 749.6 116.9 C 749.3 116.7 749.3 110.5 749.5 108.3 C 749.1 107.1 749.3 119.1 749.2 125.4 C 749.5 119.8 749.9 124.4 750.2 127.4 C 750.1 129.4 749.9 127.3 749.7 130.8 C 749.7 133.7 749.9 135.3 749.7 136.1 C 749.8 138.4 750.0 137.5 750.2 137.9 C 750.2 142.0 749.6 138.7 749.7 144.7 C 750.3 140.5 750.4 145.7 750.2 153.6 C 750.4 153.2 750.4 150.6 750.6 150.4 C 750.9 151.7 750.4 156.0 750.2 157.2 C 750.3 160.1 750.5 158.3 750.5 155.6 C 750.6 157.4 750.8 159.2 750.9 161.1 C 750.9 152.4 750.8 138.5 751.4 122.6 C 751.1 125.6 751.0 122.0 751.1 117.2 C 751.4 116.5 751.4 118.6 751.4 120.8 C 751.9 115.2 750.9 115.4 751.1 106.7 C 751.3 101.9 751.4 112.1 751.7 106.7 C 751.6 103.5 751.2 101.2 751.7 99.7 C 751.5 94.0 751.0 92.5 751.0 83.8 C 750.8 88.7 749.9 91.1 750.1 96.1 C 750.2 96.1 750.2 93.9 750.2 92.6 C 750.2 92.6 750.2 92.6 750.2 92.6 Z M 672.7 4.1 C 669.7 4.1 668.0 4.3 667.5 4.1 C 662.2 4.2 667.9 4.6 668.8 4.6 C 671.2 4.5 672.2 4.4 672.7 4.1 C 672.7 4.1 672.7 4.1 672.7 4.1 Z M 151.1 4.1 C 144.6 4.0 146.2 4.5 141.0 4.5 C 145.3 4.6 146.5 5.0 153.3 4.9 C 153.4 4.6 153.2 4.3 151.1 4.1 C 151.1 4.1 151.1 4.1 151.1 4.1 Z M 689.6 4.4 C 694.1 3.9 684.1 4.9 684.4 4.5 C 679.4 4.8 688.8 4.7 683.9 5.1 C 688.3 4.9 690.5 5.3 695.9 5.0 C 695.9 4.7 691.8 4.7 687.6 4.8 C 687.2 4.6 689.4 4.5 689.6 4.4 C 689.6 4.4 689.6 4.4 689.6 4.4 Z M 218.5 5.2 C 222.9 4.8 214.0 4.4 211.3 4.2 C 211.3 4.8 212.6 4.7 218.5 5.2 C 218.5 5.2 218.5 5.2 218.5 5.2 Z M 107.0 4.8 C 104.8 5.3 114.7 4.8 112.5 5.3 C 115.5 5.3 115.8 5.2 115.8 5.0 C 117.4 5.2 122.2 5.1 121.1 5.4 C 122.1 5.7 113.4 5.3 116.4 5.8 C 113.6 5.8 113.3 5.7 111.1 5.7 C 116.1 5.7 113.5 5.3 107.2 5.2 C 107.5 5.5 110.3 5.4 107.6 5.7 C 107.2 5.5 103.8 5.2 103.5 4.6 C 98.2 4.7 101.9 5.3 95.5 5.3 C 96.2 5.6 100.2 5.5 102.6 5.7 C 102.3 6.1 95.7 5.3 97.7 5.9 C 96.1 5.6 92.3 5.4 91.8 5.0 C 96.5 4.9 99.5 4.6 103.3 4.4 C 99.5 4.1 94.8 5.0 88.2 4.6 C 89.1 5.0 85.2 4.9 86.8 5.3 C 81.8 5.2 83.7 4.7 84.7 4.6 C 83.1 4.4 73.6 4.6 74.5 4.9 C 73.6 4.6 62.0 4.7 62.9 5.2 C 59.1 4.8 54.3 5.5 52.3 4.9 C 50.4 5.1 46.4 5.0 42.1 5.0 C 41.3 5.5 48.6 5.2 49.4 5.6 C 51.0 5.9 41.3 5.5 42.8 5.8 C 42.9 5.9 42.9 6.0 43.0 6.1 C 46.4 5.9 49.8 5.8 53.0 5.7 C 55.5 5.7 52.5 5.8 53.3 6.1 C 55.5 5.8 66.0 5.3 67.0 6.1 C 74.1 5.9 79.4 6.0 82.1 5.7 C 86.5 5.7 79.8 5.9 82.6 6.2 C 94.9 5.7 111.1 6.3 121.3 5.7 C 123.6 5.7 123.0 6.0 123.5 6.2 C 137.9 5.9 125.1 5.4 136.7 5.6 C 136.9 5.9 131.4 5.8 132.0 6.2 C 135.9 6.2 136.8 6.0 142.2 6.1 C 142.1 5.9 142.0 5.7 141.9 5.6 C 146.2 5.6 144.8 6.0 147.3 6.2 C 152.7 6.1 151.2 5.8 154.2 6.3 C 159.2 6.1 164.1 6.0 169.6 6.2 C 172.9 5.9 165.9 5.3 160.4 5.3 C 160.6 5.2 162.1 5.2 162.1 5.0 C 168.6 5.4 170.0 6.1 179.7 6.2 C 172.1 5.8 183.4 6.0 184.9 6.3 C 188.9 6.3 185.6 5.8 183.0 5.8 C 183.4 5.6 186.0 5.8 186.4 5.9 C 186.6 5.3 177.1 5.0 167.4 5.3 C 171.5 4.6 160.4 5.3 165.1 4.5 C 157.2 4.6 164.3 5.1 155.2 5.0 C 156.2 5.2 157.9 5.4 158.9 5.6 C 152.1 5.6 153.7 5.1 146.6 5.2 C 145.7 5.5 150.3 5.4 150.4 5.7 C 142.4 5.3 139.8 5.2 134.3 4.8 C 133.5 5.0 135.1 5.4 126.1 5.2 C 126.0 5.1 126.0 5.0 125.9 4.9 C 130.1 5.0 130.6 4.2 120.3 4.3 C 119.8 4.5 123.0 4.5 125.7 4.5 C 124.7 4.8 121.4 4.9 117.4 4.9 C 115.4 4.8 112.9 4.7 115.6 4.6 C 113.6 4.3 112.6 5.0 107.0 4.8 C 107.0 4.8 107.0 4.8 107.0 4.8 Z M 588.4 4.4 C 587.1 4.4 585.7 4.5 583.2 4.5 C 581.8 4.9 586.5 4.8 586.4 5.0 C 590.1 5.0 587.5 4.6 588.4 4.4 C 588.4 4.4 588.4 4.4 588.4 4.4 Z M 636.2 4.6 C 636.1 4.3 633.3 4.8 629.4 4.6 C 628.0 5.0 632.7 4.9 632.5 5.2 C 637.1 5.2 631.8 4.5 636.2 4.6 C 636.2 4.6 636.2 4.6 636.2 4.6 Z M 615.7 4.6 C 614.1 4.3 613.7 4.8 617.4 4.8 C 616.9 5.0 616.0 5.2 613.6 5.3 C 615.8 5.7 617.9 5.0 622.2 5.2 C 620.8 4.9 618.6 4.8 615.7 4.6 C 615.7 4.6 615.7 4.6 615.7 4.6 Z M 608.8 4.6 C 606.2 4.9 604.7 4.5 600.2 4.8 C 601.1 5.0 610.7 4.9 612.3 4.8 C 614.0 4.5 603.8 4.5 608.8 4.6 C 608.8 4.6 608.8 4.6 608.8 4.6 Z M 287.0 5.7 C 285.4 5.7 285.7 5.8 285.4 5.9 C 279.9 5.3 272.6 5.5 278.3 4.9 C 272.9 5.3 267.6 4.7 262.9 4.6 C 258.9 4.6 261.0 5.0 257.8 5.0 C 252.8 5.0 260.4 4.8 259.4 4.6 C 258.3 4.3 257.0 5.0 250.9 4.8 C 252.8 5.5 245.7 4.7 247.8 5.4 C 244.4 5.2 243.4 5.4 239.1 5.4 C 239.7 5.7 243.9 5.7 244.5 5.9 C 246.8 6.3 246.7 5.6 242.7 5.7 C 244.9 5.3 251.1 5.9 252.8 5.5 C 255.1 6.0 247.4 5.6 249.7 6.1 C 251.2 6.0 252.6 5.9 252.9 5.8 C 255.4 5.9 257.1 6.0 258.2 6.2 C 256.7 6.2 256.5 6.1 256.5 6.1 C 253.3 6.1 259.9 6.7 253.2 6.7 C 254.4 6.8 257.3 6.9 256.8 7.1 C 258.9 7.4 256.5 6.0 263.4 6.5 C 267.8 6.1 252.7 6.1 256.2 5.3 C 265.8 5.4 260.6 6.0 268.3 6.1 C 268.3 5.9 268.0 5.7 270.0 5.7 C 269.7 5.5 266.8 5.6 264.8 5.5 C 265.1 5.4 268.0 5.4 270.0 5.4 C 269.6 5.3 268.1 5.3 268.0 5.2 C 274.6 5.3 274.2 6.1 268.4 6.3 C 268.7 6.7 276.6 6.6 278.7 6.4 C 276.5 6.1 278.8 6.2 276.9 5.8 C 275.2 5.8 275.6 6.0 275.1 6.1 C 272.1 6.0 274.9 5.8 275.0 5.7 C 278.5 5.7 278.5 6.1 281.9 5.8 C 281.1 5.9 280.3 6.0 280.3 6.2 C 282.0 6.2 283.8 6.2 285.5 6.2 C 285.3 6.0 287.4 5.9 287.0 5.7 C 287.0 5.7 287.0 5.7 287.0 5.7 Z M 197.7 4.6 C 192.0 4.5 195.2 4.9 197.9 4.9 C 196.8 5.0 194.8 5.1 192.8 5.2 C 194.6 5.3 196.0 5.2 201.4 5.3 C 197.0 5.8 202.1 6.5 210.6 6.5 C 212.7 5.7 205.5 5.6 208.2 5.2 C 202.1 5.4 198.6 5.1 197.7 4.6 C 197.7 4.6 197.7 4.6 197.7 4.6 Z M 668.7 4.8 C 665.4 4.8 661.9 4.8 658.5 4.8 C 658.6 5.1 669.0 5.4 668.7 4.8 C 668.7 4.8 668.7 4.8 668.7 4.8 Z M 750.4 167.6 C 750.4 169.2 750.3 169.3 750.2 169.4 C 750.4 174.6 750.6 167.2 750.9 169.8 C 750.9 168.0 750.9 166.3 750.9 164.5 C 750.7 164.1 750.5 171.4 750.4 165.9 C 750.2 166.1 750.3 167.6 750.4 167.6 C 750.4 167.6 750.4 167.6 750.4 167.6 Z M 591.6 4.9 C 588.4 5.0 590.1 5.6 582.7 5.4 C 585.2 5.7 586.9 5.6 591.3 5.5 C 591.4 5.3 591.5 5.1 591.6 4.9 C 591.6 4.9 591.6 4.9 591.6 4.9 Z M 312.6 5.0 C 308.1 4.6 307.2 5.5 298.9 5.3 C 303.2 5.8 307.8 5.2 312.6 5.0 C 312.6 5.0 312.6 5.0 312.6 5.0 Z M 29.0 5.7 C 31.6 5.8 28.5 5.9 32.9 6.1 C 35.1 5.9 35.9 5.7 39.3 5.7 C 34.1 5.3 25.8 5.7 21.7 5.0 C 17.6 5.1 18.3 5.5 17.3 5.8 C 19.3 5.8 20.3 5.8 20.8 5.9 C 22.7 5.4 26.6 6.3 29.0 5.7 C 29.0 5.7 29.0 5.7 29.0 5.7 Z M 220.2 5.3 C 223.5 5.5 218.2 5.7 217.2 5.9 C 214.8 5.9 215.5 5.6 215.1 5.4 C 212.1 5.4 211.4 5.6 212.0 5.9 C 217.7 6.0 224.7 6.1 220.8 6.6 C 226.3 6.7 223.1 6.2 225.7 6.1 C 228.8 6.3 226.0 6.4 226.0 6.8 C 227.3 6.8 231.3 6.3 231.2 6.8 C 239.1 6.3 235.2 5.7 228.8 5.0 C 223.5 5.4 229.9 5.6 220.2 5.3 C 220.2 5.3 220.2 5.3 220.2 5.3 Z M 437.4 5.7 C 437.0 5.5 434.0 5.6 434.0 5.4 C 430.3 5.8 427.0 6.2 423.7 6.6 C 424.3 6.9 429.0 6.6 427.0 6.3 C 428.5 6.6 431.8 6.7 433.8 7.0 C 437.2 7.0 438.5 6.2 438.9 6.8 C 442.3 6.6 440.3 6.6 445.7 6.7 C 437.2 6.3 448.8 6.5 449.4 6.1 C 444.4 6.0 440.0 6.0 440.6 6.5 C 437.0 6.3 433.0 6.2 432.3 5.8 C 432.6 5.7 435.4 5.7 437.4 5.7 C 437.4 5.7 437.4 5.7 437.4 5.7 Z M 416.8 6.8 C 418.2 6.8 419.5 6.7 421.8 6.7 C 420.5 6.6 420.0 6.4 420.2 6.2 C 415.9 6.2 414.9 6.4 413.4 6.1 C 409.4 6.0 414.4 6.7 408.2 6.5 C 408.7 6.6 411.7 6.5 411.7 6.7 C 412.2 6.4 414.7 6.4 416.8 6.8 C 416.8 6.8 416.8 6.8 416.8 6.8 Z M 364.0 6.1 C 359.5 6.1 366.3 6.3 364.0 6.6 C 365.2 6.5 373.7 6.6 372.5 7.0 C 375.0 7.5 383.6 6.4 382.8 7.1 C 384.8 7.1 384.1 6.9 384.5 6.7 C 378.5 6.8 378.5 6.5 382.8 6.4 C 382.1 6.3 378.5 6.3 376.0 6.3 C 375.6 6.6 378.0 6.6 377.6 6.8 C 372.5 6.6 368.7 6.3 364.0 6.1 C 364.0 6.1 364.0 6.1 364.0 6.1 Z M 593.8 197.3 C 597.8 197.4 600.3 197.3 602.2 197.2 C 600.8 197.0 599.0 197.2 597.0 197.2 C 596.4 197.0 598.2 196.9 600.3 196.9 C 598.0 196.6 591.2 196.9 593.8 197.3 C 593.8 197.3 593.8 197.3 593.8 197.3 Z M 627.8 197.3 C 631.7 197.4 634.1 197.3 634.4 197.1 C 632.7 196.8 633.5 197.2 631.0 197.2 C 629.5 197.1 628.3 196.9 627.4 196.8 C 625.7 196.8 626.2 197.0 625.8 197.1 C 624.5 197.1 624.2 197.0 624.0 196.9 C 619.7 197.3 629.4 196.9 627.8 197.3 C 627.8 197.3 627.8 197.3 627.8 197.3 Z M 392.9 6.3 C 394.4 6.5 395.6 6.7 399.7 6.7 C 398.9 6.4 402.2 6.5 404.9 6.5 C 400.9 6.1 398.9 6.3 392.9 6.3 C 392.9 6.3 392.9 6.3 392.9 6.3 Z M 749.3 104.8 C 749.7 99.5 749.0 100.1 749.3 92.7 C 749.2 92.7 749.1 92.7 748.9 92.7 C 749.3 97.2 749.0 99.2 749.3 104.8 C 749.3 104.8 749.3 104.8 749.3 104.8 Z M 137.6 197.1 C 138.1 196.8 132.8 196.9 132.4 196.7 C 131.5 197.3 128.7 196.2 118.8 196.4 C 118.6 196.3 119.3 196.2 120.6 196.1 C 112.4 196.0 123.0 196.6 124.0 196.9 C 130.3 196.8 131.3 197.1 137.6 197.1 C 137.6 197.1 137.6 197.1 137.6 197.1 Z M 81.2 6.8 C 81.5 6.7 80.5 6.7 79.5 6.7 C 78.3 6.7 77.1 6.7 76.2 6.7 C 76.9 7.2 82.7 7.5 78.9 8.0 C 80.4 8.0 80.5 8.0 80.4 7.9 C 87.8 6.7 95.7 8.6 105.9 7.9 C 107.6 7.9 107.1 7.7 107.4 7.6 C 106.1 7.6 105.8 7.6 105.6 7.5 C 104.7 8.0 94.5 7.4 98.6 7.2 C 98.2 7.1 96.9 7.2 97.0 7.2 C 95.8 7.2 94.7 7.2 93.5 7.2 C 94.3 7.4 96.6 7.4 97.3 7.6 C 91.7 7.5 84.9 7.3 88.0 6.9 C 84.8 6.9 83.8 7.1 81.6 7.2 C 79.4 7.2 79.1 6.8 81.2 6.8 C 81.2 6.8 81.2 6.8 81.2 6.8 Z M 37.2 7.0 C 31.8 6.9 34.2 7.3 28.8 7.2 C 32.4 7.6 36.1 7.1 40.9 7.4 C 40.0 7.2 37.7 7.2 37.2 7.0 C 37.2 7.0 37.2 7.0 37.2 7.0 Z M 136.1 7.5 C 135.4 8.0 140.1 8.0 145.1 8.0 C 145.8 7.5 141.3 7.5 136.1 7.5 C 136.1 7.5 136.1 7.5 136.1 7.5 Z M 114.1 7.5 C 109.2 7.6 120.5 7.6 117.9 8.0 C 120.2 8.0 122.7 8.0 123.0 8.1 C 124.7 8.1 124.6 7.8 127.9 7.9 C 127.6 7.6 122.2 7.8 122.5 7.5 C 118.9 7.7 118.2 7.7 114.1 7.5 C 114.1 7.5 114.1 7.5 114.1 7.5 Z M 110.8 7.5 C 107.5 7.6 112.2 8.3 116.3 8.3 C 114.6 8.0 113.4 7.7 110.8 7.5 C 110.8 7.5 110.8 7.5 110.8 7.5 Z M 508.4 7.6 C 506.1 7.7 507.8 8.0 504.9 8.0 C 504.9 8.2 515.0 8.2 506.5 8.3 C 509.5 8.7 511.4 8.0 515.1 8.2 C 514.0 8.0 513.1 7.9 515.2 7.9 C 516.5 7.5 507.1 8.0 508.4 7.6 C 508.4 7.6 508.4 7.6 508.4 7.6 Z M 498.3 7.6 C 496.3 7.6 497.2 7.8 498.2 7.8 C 497.9 7.9 495.1 7.9 493.1 7.9 C 493.0 7.7 496.5 8.5 496.2 8.8 C 504.9 8.5 498.5 8.0 498.3 7.6 C 498.3 7.6 498.3 7.6 498.3 7.6 Z M 489.7 7.9 C 484.2 7.5 476.4 7.6 472.7 8.0 C 476.5 8.6 486.9 8.4 489.7 7.9 C 489.7 7.9 489.7 7.9 489.7 7.9 Z M 545.7 8.0 C 535.8 7.5 515.5 8.2 533.5 8.5 C 533.0 8.3 545.0 8.1 550.7 8.3 C 550.9 8.1 557.5 7.8 557.6 8.0 C 562.2 7.7 543.5 7.7 545.7 8.0 C 545.7 8.0 545.7 8.0 545.7 8.0 Z M 465.7 8.8 C 468.5 8.6 465.1 7.9 469.3 8.2 C 471.8 8.1 468.7 8.0 469.4 7.8 C 464.1 7.8 453.3 8.2 452.4 7.8 C 449.7 7.9 448.8 8.2 443.8 8.2 C 443.6 8.3 462.0 7.8 465.7 8.5 C 465.4 8.7 458.8 8.8 465.7 8.8 C 465.7 8.8 465.7 8.8 465.7 8.8 Z M 747.0 104.7 C 747.3 105.2 747.1 98.1 747.5 99.6 C 747.0 95.8 747.3 92.2 747.0 87.9 C 747.1 86.6 747.7 87.0 747.8 81.0 C 747.4 81.0 747.5 83.9 747.2 81.2 C 747.2 75.7 747.7 77.1 747.5 70.9 C 746.9 72.1 747.4 57.7 746.7 59.3 C 746.8 62.6 747.1 62.3 747.0 67.8 C 747.0 69.6 746.7 68.8 746.7 71.1 C 746.4 69.6 746.9 66.6 746.6 64.5 C 746.3 65.1 746.3 69.1 746.1 69.7 C 746.1 72.1 746.2 69.0 746.5 69.6 C 746.6 76.1 745.6 69.4 745.7 76.5 C 746.1 74.9 746.1 74.9 746.5 76.3 C 746.3 79.1 746.5 87.7 746.1 83.0 C 745.8 83.6 746.2 88.7 746.5 88.0 C 746.5 90.8 746.4 91.1 746.2 91.3 C 746.4 98.5 746.7 99.5 747.1 98.0 C 747.5 99.4 746.8 100.4 747.0 104.7 C 747.0 104.7 747.0 104.7 747.0 104.7 Z M 599.9 8.1 C 604.0 7.8 595.3 8.3 591.4 8.1 C 596.2 8.2 594.4 8.8 599.5 8.8 C 597.8 8.6 598.2 8.5 601.5 8.5 C 602.4 8.3 595.0 8.2 599.9 8.1 C 599.9 8.1 599.9 8.1 599.9 8.1 Z M 433.6 8.1 C 431.8 7.8 423.0 8.1 418.4 8.0 C 419.1 8.6 430.5 7.7 431.9 8.4 C 434.5 8.4 430.4 8.2 433.6 8.1 C 433.6 8.1 433.6 8.1 433.6 8.1 Z M 747.5 40.3 C 747.5 38.5 747.4 39.6 747.4 40.4 C 747.2 40.0 747.3 36.3 747.2 33.7 C 747.0 37.7 746.9 33.2 746.5 34.3 C 746.5 32.3 746.4 31.4 746.3 31.1 C 747.1 30.4 745.9 20.9 745.8 31.5 C 746.2 29.3 746.2 30.1 746.3 34.4 C 746.0 39.3 746.4 42.8 745.9 44.7 C 746.0 47.8 746.2 48.8 746.2 52.9 C 745.9 54.0 745.7 57.8 745.2 55.1 C 745.2 62.3 746.1 57.0 746.2 63.0 C 746.0 68.8 745.8 60.3 745.4 61.7 C 745.4 63.2 745.3 62.9 745.2 63.4 C 745.2 65.5 745.6 65.4 745.6 63.3 C 745.7 63.9 746.0 69.6 745.6 68.1 C 745.8 71.4 746.8 62.4 746.3 57.9 C 746.3 55.1 747.1 54.7 747.0 57.6 C 747.3 56.4 746.5 51.3 747.2 52.3 C 747.2 50.0 747.2 47.9 747.2 45.6 C 747.1 46.0 747.1 47.3 747.0 47.4 C 747.0 45.3 747.0 43.0 747.0 40.7 C 747.2 42.5 747.3 42.4 747.5 40.3 C 747.5 40.3 747.5 40.3 747.5 40.3 Z M 455.7 8.3 C 451.4 8.3 450.4 8.5 447.1 8.5 C 448.3 8.8 457.6 8.7 455.7 8.3 C 455.7 8.3 455.7 8.3 455.7 8.3 Z M 745.8 133.0 C 746.0 132.6 745.9 129.7 746.1 129.7 C 746.2 135.0 746.4 129.2 747.1 133.5 C 746.8 126.6 745.9 124.1 745.6 133.0 C 745.6 139.4 745.8 126.4 745.8 133.0 C 745.8 133.0 745.8 133.0 745.8 133.0 Z M 746.1 113.0 C 745.9 108.9 745.7 119.1 745.6 121.3 C 745.4 121.3 745.3 121.3 745.2 121.2 C 745.8 127.0 746.0 119.4 746.7 124.8 C 746.9 118.3 747.1 115.5 746.9 109.8 C 746.7 110.1 746.8 111.4 746.9 111.4 C 746.8 115.7 746.3 112.7 746.5 108.1 C 746.3 109.4 746.3 113.5 746.2 116.4 C 746.3 115.6 746.4 114.6 746.6 114.8 C 746.7 118.4 746.3 117.1 746.3 119.7 C 746.2 119.6 745.8 113.1 746.1 113.0 C 746.1 113.0 746.1 113.0 746.1 113.0 Z M 494.9 194.5 C 498.3 194.4 490.8 193.9 490.8 193.3 C 487.1 193.2 486.4 193.4 484.1 193.4 C 485.4 193.7 489.4 193.7 491.2 193.9 C 490.9 194.4 485.9 193.8 484.6 194.2 C 482.8 194.8 493.1 194.0 494.9 194.5 C 494.9 194.5 494.9 194.5 494.9 194.5 Z M 699.3 8.9 C 697.5 8.9 698.4 9.1 699.2 9.1 C 698.7 9.2 695.8 9.2 695.9 9.1 C 693.2 9.1 697.2 9.3 694.0 9.3 C 693.1 9.6 698.8 9.3 699.1 9.2 C 702.9 9.2 699.5 9.7 700.3 9.8 C 703.6 9.8 702.8 9.5 707.3 9.6 C 704.7 9.3 702.4 9.1 699.3 8.9 C 699.3 8.9 699.3 8.9 699.3 8.9 Z M 746.6 144.9 C 746.8 145.7 746.0 140.7 746.3 136.5 C 746.3 130.6 745.9 139.9 745.9 134.7 C 745.9 139.1 746.2 144.6 746.2 151.4 C 746.5 153.2 746.3 142.0 746.5 148.3 C 746.6 148.0 746.5 146.5 746.5 146.5 C 746.4 145.2 746.5 145.0 746.6 144.9 C 746.6 144.9 746.6 144.9 746.6 144.9 Z M 745.7 137.9 C 745.5 138.1 745.6 139.6 745.7 139.6 C 745.7 141.7 745.3 141.6 745.3 139.5 C 744.8 142.0 745.7 142.2 745.4 147.8 C 745.8 145.5 746.0 144.5 745.7 149.5 C 746.1 153.9 745.9 139.9 745.7 137.9 C 745.7 137.9 745.7 137.9 745.7 137.9 Z M 548.9 194.2 C 548.3 194.0 544.7 194.1 542.0 194.1 C 545.1 193.7 558.9 193.9 560.8 194.2 C 562.2 194.1 563.6 194.0 564.2 194.2 C 564.0 194.1 567.6 193.9 565.6 193.8 C 565.8 193.7 568.8 193.7 568.7 193.5 C 573.9 193.6 567.4 193.8 569.1 194.1 C 574.9 193.7 573.8 194.0 581.0 194.1 C 579.5 193.7 571.7 193.8 572.0 193.3 C 566.7 193.7 560.4 193.4 556.6 193.0 C 562.3 193.6 542.7 193.9 533.4 193.8 C 533.6 193.5 530.3 193.6 526.4 193.4 C 523.4 193.0 524.9 193.9 529.8 193.7 C 529.9 194.0 522.8 193.7 519.9 193.8 C 523.5 194.0 521.6 194.2 523.5 194.3 C 530.1 194.3 524.1 194.2 525.1 193.9 C 526.7 193.9 528.4 193.9 530.2 193.9 C 521.7 194.6 543.1 194.0 535.2 194.1 C 542.1 194.0 542.6 194.4 548.9 194.2 C 548.9 194.2 548.9 194.2 548.9 194.2 Z M 708.3 194.3 C 709.4 194.3 714.6 194.0 715.1 194.3 C 721.7 194.0 715.3 193.7 723.0 193.7 C 722.4 193.5 719.5 193.6 719.3 193.4 C 716.5 193.5 713.6 193.7 714.8 194.1 C 711.3 194.0 710.4 194.2 708.2 194.2 C 708.8 194.0 710.1 193.9 713.0 193.9 C 713.2 193.6 711.8 193.4 707.4 193.4 C 705.8 193.8 707.4 194.1 708.3 194.3 C 708.3 194.3 708.3 194.3 708.3 194.3 Z M 724.8 193.8 C 725.7 193.9 726.8 194.0 726.8 194.2 C 729.7 194.6 727.3 193.7 729.8 193.7 C 731.8 193.7 731.3 193.9 731.8 194.1 C 734.7 194.0 737.0 193.9 738.6 194.1 C 743.0 193.9 733.0 193.7 731.3 193.5 C 728.0 193.5 729.5 193.9 724.8 193.8 C 724.8 193.8 724.8 193.8 724.8 193.8 Z M 746.5 164.9 C 746.8 164.4 746.3 162.2 746.3 160.0 C 746.0 161.4 746.2 166.4 745.7 162.8 C 745.6 167.6 745.6 167.9 745.7 172.8 C 745.3 175.6 746.0 173.3 745.8 167.9 C 746.0 168.7 746.0 171.0 746.2 171.4 C 745.4 174.1 746.7 183.6 746.1 178.0 C 746.2 176.6 746.3 175.8 746.5 175.1 C 746.1 173.7 746.3 162.4 746.5 164.9 C 746.5 164.9 746.5 164.9 746.5 164.9 Z M 734.2 9.7 C 740.5 9.6 741.0 9.6 746.1 9.7 C 746.1 10.2 746.1 10.7 746.1 11.3 C 745.9 11.6 745.8 11.2 745.8 10.0 C 745.7 11.6 745.7 13.6 745.8 16.5 C 746.0 16.2 745.9 14.8 745.8 14.8 C 746.1 9.2 746.1 13.7 746.5 14.2 C 746.5 12.4 746.6 10.8 746.5 9.2 C 742.1 9.3 738.2 9.6 736.4 9.2 C 733.8 9.3 736.7 9.4 734.2 9.7 C 734.2 9.7 734.2 9.7 734.2 9.7 Z M 143.8 193.8 C 142.9 193.9 140.1 193.9 140.6 194.2 C 143.1 194.1 144.9 194.0 147.3 193.9 C 142.5 193.8 143.1 193.3 137.0 193.3 C 139.0 193.5 138.6 193.9 143.8 193.8 C 143.8 193.8 143.8 193.8 143.8 193.8 Z M 746.3 181.7 C 746.2 181.7 746.0 181.7 745.9 179.7 C 745.6 178.8 745.8 184.3 745.6 184.2 C 745.6 186.0 745.8 185.6 745.8 187.8 C 746.0 187.2 745.9 182.8 746.3 184.9 C 746.4 186.4 746.3 186.5 746.2 186.6 C 746.4 190.2 746.5 185.0 746.3 181.7 C 746.3 181.7 746.3 181.7 746.3 181.7 Z M 477.8 194.1 C 480.0 194.0 477.6 193.8 475.8 193.8 C 480.5 193.4 472.4 193.2 471.8 192.8 C 474.2 193.1 480.8 192.9 482.0 193.0 C 484.0 192.9 481.4 192.6 486.8 192.5 C 485.9 192.2 480.2 192.5 481.9 192.8 C 480.1 192.3 474.7 192.9 474.9 192.4 C 467.2 192.3 465.6 192.6 465.2 193.0 C 472.5 192.8 469.2 193.5 475.5 193.4 C 475.6 193.5 473.6 193.5 472.3 193.5 C 473.0 193.8 475.8 193.9 477.8 194.1 C 477.8 194.1 477.8 194.1 477.8 194.1 Z M 653.9 194.1 C 657.6 194.1 657.2 193.7 656.7 193.4 C 655.4 193.5 653.1 193.6 650.1 193.5 C 650.9 193.8 655.5 193.7 653.9 194.1 C 653.9 194.1 653.9 194.1 653.9 194.1 Z M 504.5 193.5 C 504.9 193.7 506.2 193.6 506.1 193.5 C 510.4 193.5 511.6 193.7 513.2 193.9 C 515.5 193.9 514.4 193.6 514.5 193.4 C 510.7 193.7 511.2 193.2 506.0 193.3 C 506.4 193.4 505.8 193.5 504.5 193.5 C 504.5 193.5 504.5 193.5 504.5 193.5 Z M 618.1 193.8 C 620.1 193.8 619.0 193.7 618.0 193.7 C 620.0 193.2 627.2 193.6 629.7 193.4 C 629.7 193.1 621.2 193.2 631.0 193.0 C 628.9 192.7 620.2 193.0 615.7 192.9 C 616.4 192.5 622.5 192.6 621.8 192.1 C 616.8 192.4 611.2 192.6 610.8 193.2 C 618.4 193.2 616.1 193.5 618.1 193.8 C 618.1 193.8 618.1 193.8 618.1 193.8 Z M 609.5 193.5 C 610.3 193.7 611.6 193.5 614.4 193.5 C 609.9 193.1 607.6 193.3 598.9 193.2 C 599.0 193.2 599.1 193.3 599.1 193.4 C 597.5 193.4 595.7 193.4 594.0 193.4 C 601.8 193.9 603.4 193.5 611.0 193.4 C 611.4 193.5 610.5 193.5 609.5 193.5 C 609.5 193.5 609.5 193.5 609.5 193.5 Z M 745.8 104.7 C 745.6 106.9 745.4 108.8 745.3 112.9 C 745.7 112.6 745.9 110.2 745.8 104.7 C 745.8 104.7 745.8 104.7 745.8 104.7 Z M 497.6 193.3 C 493.1 193.5 502.0 193.3 498.9 192.9 C 495.2 192.7 491.2 192.6 490.1 192.2 C 483.7 192.8 498.0 192.8 497.6 193.3 C 497.6 193.3 497.6 193.3 497.6 193.3 Z M 527.3 192.4 C 529.3 192.4 529.7 193.0 527.5 192.6 C 522.7 192.6 531.8 193.0 524.3 192.9 C 527.6 193.1 534.8 193.3 538.0 193.0 C 537.6 192.7 531.2 192.8 530.8 192.5 C 530.4 192.4 531.4 192.4 532.4 192.4 C 531.6 192.2 530.3 192.4 527.3 192.4 C 527.3 192.4 527.3 192.4 527.3 192.4 Z M 553.1 193.0 C 550.2 192.8 546.7 192.6 541.0 192.6 C 545.0 192.9 547.4 193.3 553.1 193.0 C 553.1 193.0 553.1 193.0 553.1 193.0 Z M 233.3 192.5 C 237.4 192.5 233.6 192.1 233.1 192.0 C 229.0 191.9 229.4 192.2 224.6 192.1 C 226.2 192.6 230.5 192.1 233.3 192.5 C 233.3 192.5 233.3 192.5 233.3 192.5 Z M 218.0 192.2 C 217.5 192.0 211.6 192.1 211.2 191.9 C 207.9 192.6 202.3 191.4 202.6 192.0 C 201.3 191.9 200.0 191.8 197.5 191.9 C 202.5 192.5 212.9 192.3 218.0 192.2 C 218.0 192.2 218.0 192.2 218.0 192.2 Z M 581.4 192.2 C 585.9 192.3 579.6 191.6 584.3 191.7 C 584.5 191.5 575.5 191.5 580.7 191.3 C 573.6 191.1 581.8 192.1 581.4 192.2 C 581.4 192.2 581.4 192.2 581.4 192.2 Z M 663.8 191.9 C 663.7 192.1 669.8 191.9 672.3 192.0 C 672.2 191.9 670.2 191.9 668.9 191.9 C 669.4 191.7 670.2 191.6 671.9 191.6 C 670.4 191.3 666.2 191.8 663.8 191.9 C 663.8 191.9 663.8 191.9 663.8 191.9 Z M 578.0 199.0 C 574.9 198.6 571.0 198.3 569.4 198.9 C 566.2 198.5 571.1 198.4 567.3 198.2 C 562.6 198.4 564.6 198.0 557.0 198.2 C 558.1 197.7 552.5 197.8 551.3 197.4 C 554.4 197.4 558.7 197.8 559.9 197.4 C 557.2 197.5 558.5 197.1 559.8 197.3 C 565.1 197.6 553.9 197.8 560.4 198.1 C 561.8 197.6 571.6 198.5 577.6 198.5 C 575.5 198.8 582.5 199.0 578.0 199.0 C 578.0 199.0 578.0 199.0 578.0 199.0 Z M 546.9 198.2 C 542.7 198.2 540.0 197.4 541.1 197.4 C 541.3 197.6 545.9 197.6 546.3 197.4 C 545.1 197.4 544.1 197.4 544.4 197.3 C 552.0 197.4 549.6 197.7 551.6 198.0 C 547.6 198.1 546.3 197.9 544.9 198.1 C 545.9 198.1 546.9 198.1 546.9 198.2 C 546.9 198.2 546.9 198.2 546.9 198.2 Z M 452.5 191.7 C 453.5 192.0 454.3 191.7 455.9 191.6 C 456.6 192.2 464.7 191.4 466.0 191.7 C 464.2 191.9 459.8 191.9 457.9 192.1 C 460.2 192.2 460.8 192.3 463.0 192.1 C 462.7 192.5 457.8 192.5 456.6 192.8 C 456.0 192.5 453.9 192.8 453.1 192.6 C 459.6 192.4 448.8 191.7 452.5 191.7 C 452.5 191.7 452.5 191.7 452.5 191.7 Z M 619.7 191.7 C 620.0 191.3 612.0 190.4 618.2 189.9 C 619.9 190.2 621.1 190.6 621.0 191.1 C 624.9 190.8 627.0 191.2 629.1 190.8 C 637.9 192.0 623.1 190.7 619.7 191.7 C 619.7 191.7 619.7 191.7 619.7 191.7 Z M 646.5 191.3 C 645.4 191.7 649.1 191.7 648.7 192.0 C 645.2 191.7 635.0 192.1 638.4 191.9 C 641.8 191.7 641.4 191.3 646.5 191.3 C 646.5 191.3 646.5 191.3 646.5 191.3 Z M 333.5 8.7 C 338.9 8.4 341.8 9.1 338.7 9.3 C 340.0 8.9 331.8 9.1 333.5 8.7 C 333.5 8.7 333.5 8.7 333.5 8.7 Z M 532.7 2.4 C 527.8 2.2 524.8 2.4 524.3 2.0 C 529.2 1.9 528.6 2.2 532.8 2.2 C 533.2 2.0 535.8 1.8 536.3 2.0 C 533.9 2.1 534.3 2.3 532.7 2.4 C 532.7 2.4 532.7 2.4 532.7 2.4 Z M 752.8 194.4 C 753.0 194.1 753.1 192.0 753.4 193.2 C 753.3 195.7 753.3 198.4 753.4 201.1 C 750.7 201.2 748.1 201.3 745.9 201.5 C 745.8 201.3 745.6 201.1 745.4 201.0 C 749.0 201.0 751.4 201.0 753.2 200.9 C 753.1 198.3 753.0 196.5 752.8 194.4 C 752.8 194.4 752.8 194.4 752.8 194.4 Z M 753.6 184.3 C 753.4 183.2 753.0 185.8 753.0 182.0 C 753.3 182.4 753.7 175.9 753.8 179.1 C 753.5 179.9 753.5 181.7 753.6 184.3 C 753.6 184.3 753.6 184.3 753.6 184.3 Z M 481.1 199.3 C 476.9 199.3 483.1 199.6 483.1 199.8 C 480.0 199.7 475.9 199.7 474.4 199.5 C 477.4 199.6 479.2 198.9 481.1 199.3 C 481.1 199.3 481.1 199.3 481.1 199.3 Z M 543.5 198.4 C 552.2 198.3 548.9 199.0 557.7 199.1 C 554.4 199.4 546.5 199.3 544.4 199.7 C 544.5 199.4 542.4 199.4 542.4 199.1 C 545.5 199.1 546.1 199.3 549.3 199.3 C 547.8 198.9 547.9 199.0 548.8 198.6 C 546.5 198.6 545.0 198.7 543.7 198.7 C 544.2 198.5 541.0 198.4 543.5 198.4 C 543.5 198.4 543.5 198.4 543.5 198.4 Z M 482.1 198.2 C 478.6 198.3 475.3 197.8 478.3 197.8 C 479.0 198.1 481.1 197.8 481.9 198.0 C 477.0 198.1 486.0 198.2 483.9 198.5 C 480.9 198.5 480.0 198.6 480.8 198.9 C 478.8 198.9 475.8 198.9 475.6 198.7 C 476.9 198.7 478.9 198.7 478.8 198.6 C 477.8 198.6 476.8 198.6 477.1 198.5 C 480.1 198.5 481.3 198.4 482.1 198.2 C 482.1 198.2 482.1 198.2 482.1 198.2 Z M 505.8 198.2 C 501.1 198.2 500.4 197.8 498.6 197.6 C 505.0 197.7 506.3 198.2 511.1 198.5 C 505.9 198.4 501.1 198.9 499.3 198.6 C 501.5 198.5 505.7 198.5 505.8 198.2 C 505.8 198.2 505.8 198.2 505.8 198.2 Z M 6.3 123.3 C 6.5 119.4 6.7 116.2 6.9 111.8 C 6.5 110.1 5.7 118.1 6.0 114.7 C 5.9 110.0 6.5 113.4 6.5 109.7 C 6.0 113.2 6.0 93.2 6.5 92.7 C 6.5 95.7 6.6 96.8 6.9 96.3 C 6.9 104.2 7.2 107.6 7.3 113.6 C 6.8 117.7 6.7 130.3 7.2 137.3 C 6.4 141.6 7.3 150.0 6.6 156.0 C 6.9 157.8 7.1 151.0 7.2 156.2 C 6.7 159.4 6.6 156.7 6.4 161.2 C 6.6 161.5 6.9 160.6 6.9 162.9 C 6.6 162.6 6.6 165.4 6.5 166.4 C 6.6 157.0 6.0 166.8 5.9 159.4 C 6.1 156.4 6.5 162.7 6.5 154.4 C 6.4 151.3 6.3 148.4 5.9 149.0 C 5.9 146.7 5.8 145.3 5.7 143.8 C 6.2 147.1 5.6 132.0 6.1 138.9 C 6.1 139.4 6.1 144.1 6.3 147.4 C 6.7 144.5 6.4 140.8 6.3 135.4 C 6.6 133.3 6.7 136.5 6.8 133.9 C 6.5 129.6 6.2 135.2 6.0 132.0 C 6.0 133.3 6.0 135.3 5.9 135.3 C 6.3 128.2 5.8 125.2 5.9 121.5 C 6.1 124.1 6.2 117.5 6.3 123.3 C 6.3 123.3 6.3 123.3 6.3 123.3 Z M 6.8 185.3 C 6.8 186.9 6.8 188.6 6.8 190.4 C 6.4 190.8 6.3 184.1 6.0 188.6 C 6.1 181.0 6.5 188.9 6.8 185.3 C 6.8 185.3 6.8 185.3 6.8 185.3 Z M 8.2 151.4 C 8.6 149.0 7.7 150.1 7.7 147.8 C 7.8 152.0 7.9 155.8 7.4 156.2 C 7.6 151.4 7.6 149.3 7.4 144.2 C 8.0 149.2 7.9 139.1 8.3 137.7 C 8.4 141.5 8.6 144.6 8.6 149.7 C 8.4 148.8 8.3 156.2 8.2 151.4 C 8.2 151.4 8.2 151.4 8.2 151.4 Z M 8.7 165.1 C 8.5 166.0 8.7 173.5 8.2 171.8 C 8.3 167.3 8.2 165.6 7.8 166.6 C 7.8 163.3 8.0 162.8 7.9 159.8 C 8.4 158.1 8.4 163.4 8.6 165.0 C 8.6 164.1 8.7 163.1 8.7 165.1 C 8.7 165.1 8.7 165.1 8.7 165.1 Z M 104.7 192.5 C 106.2 193.0 99.3 192.7 98.0 192.6 C 100.0 193.0 99.0 193.1 94.7 193.3 C 96.3 192.7 90.1 192.9 86.2 192.4 C 85.3 192.8 90.2 192.9 84.5 193.0 C 80.0 192.9 76.1 193.1 69.3 193.2 C 67.8 192.7 70.7 192.7 72.5 192.5 C 67.9 192.6 69.2 192.2 65.8 192.2 C 66.4 192.5 63.7 192.6 62.5 192.4 C 68.4 192.2 54.5 191.9 60.8 191.7 C 61.1 191.9 62.6 191.8 64.1 191.7 C 62.5 192.3 70.7 192.1 72.5 192.4 C 75.8 191.5 84.5 191.8 94.6 192.1 C 95.3 192.3 92.2 192.4 94.6 192.5 C 94.9 192.3 98.2 192.4 99.7 192.2 C 99.6 192.5 100.9 192.6 103.1 192.6 C 103.2 192.6 103.4 192.5 104.7 192.5 C 104.7 192.5 104.7 192.5 104.7 192.5 Z M 171.9 10.4 C 171.9 11.0 182.6 10.7 185.4 10.5 C 185.3 11.2 166.2 11.0 171.9 10.4 C 171.9 10.4 171.9 10.4 171.9 10.4 Z M 106.5 10.9 C 109.3 10.9 107.0 10.5 109.5 10.5 C 109.9 10.9 115.8 10.1 116.2 10.5 C 113.4 10.9 111.4 10.8 106.5 10.9 C 106.5 10.9 106.5 10.9 106.5 10.9 Z M 45.6 10.7 C 50.4 10.7 42.8 10.5 43.6 10.4 C 47.9 10.4 52.3 10.4 52.3 10.7 C 48.4 10.6 46.4 11.1 45.6 10.7 C 45.6 10.7 45.6 10.7 45.6 10.7 Z M 137.0 11.3 C 141.1 11.4 134.8 11.9 133.9 11.7 C 138.3 11.5 130.7 11.3 127.0 11.4 C 126.9 10.9 128.6 11.0 126.5 10.6 C 132.3 10.4 127.8 11.1 131.9 11.0 C 134.5 10.7 131.6 10.8 131.5 10.5 C 133.1 10.5 134.8 10.5 136.4 10.5 C 136.6 10.7 136.7 10.9 136.9 11.1 C 134.9 11.2 132.9 11.2 133.8 11.4 C 135.4 11.4 135.7 11.3 137.0 11.3 C 137.0 11.3 137.0 11.3 137.0 11.3 Z M 16.8 191.7 C 14.2 191.8 16.5 191.9 18.5 192.0 C 19.0 191.8 20.6 191.1 23.6 191.5 C 17.0 191.8 25.6 192.0 21.9 192.2 C 20.4 191.9 16.5 192.3 13.4 192.2 C 12.0 191.9 15.3 191.4 16.8 191.7 C 16.8 191.7 16.8 191.7 16.8 191.7 Z M 28.7 192.0 C 28.4 191.9 27.2 191.8 25.2 191.9 C 27.4 191.5 24.4 191.5 27.0 191.3 C 26.7 191.5 35.6 191.6 30.3 191.7 C 25.7 191.5 31.6 192.0 33.8 192.0 C 31.5 192.0 27.4 192.4 26.9 192.1 C 28.0 192.1 29.0 192.1 28.7 192.0 C 28.7 192.0 28.7 192.0 28.7 192.0 Z M 138.3 191.5 C 138.9 191.2 136.0 191.2 134.9 191.1 C 143.5 191.1 150.9 191.1 155.2 191.2 C 151.3 191.2 151.3 191.5 153.7 191.7 C 149.4 191.6 148.4 191.8 146.9 191.6 C 150.4 191.3 143.6 191.5 138.3 191.5 C 138.3 191.5 138.3 191.5 138.3 191.5 Z M 138.3 191.5 " fill="#FF456F"></path></g></svg>