<?xml version="1.0" encoding="UTF-8" standalone="no"?><svg xmlns="http://www.w3.org/2000/svg" xmlns:xlink="http://www.w3.org/1999/xlink" clip-rule="evenodd" stroke-miterlimit="10" viewBox="0 0 1024 768"><desc>SVG generated by Keynote</desc><defs></defs><g transform="matrix(1.00, 0.00, -0.00, -1.00, 0.0, 768.0)"><path d="M 0.0 768.0 L 1024.0 768.0 L 1024.0 0.0 L 0.0 0.0 Z M 0.0 768.0 " fill="#000000"></path><g opacity="0.55"><g><clipPath id="clip0x600001ea69c0"><path d="M 0.0 0.0 L 1024.0 0.0 L 1024.0 768.0 L 0.0 768.0 Z M 0.0 0.0 "></path></clipPath><g clip-path="url(#clip0x600001ea69c0)"><image xlink:href="../../E767DA47-4E97-4627-A4CF-2DF10980D7A3/assets/E2D852350EE0BEB67EB840DA5D58DE03.png" width="1026.00" height="767.00" transform="matrix(1.00, 0.00, -0.00, -1.00, 0.0, 766.8)"></image></g></g></g><path d="M 780.0 244.9 C 779.9 243.5 779.9 241.9 779.9 239.5 C 779.8 240.5 779.7 241.4 779.5 241.3 C 779.6 243.4 779.7 246.2 779.6 250.4 C 779.7 250.2 779.7 248.1 779.7 246.7 C 779.8 244.9 779.9 245.3 780.0 244.9 C 780.0 244.9 780.0 244.9 780.0 244.9 Z M 379.5 151.7 C 383.0 151.7 379.1 151.3 377.8 151.3 C 377.6 151.4 377.4 151.4 376.1 151.4 C 375.7 151.1 378.7 151.0 381.1 150.9 C 390.7 151.1 383.7 151.7 379.5 151.7 C 379.5 151.7 379.5 151.7 379.5 151.7 Z M 29.1 264.2 C 29.1 271.8 29.5 263.8 29.7 262.7 C 29.8 266.3 30.4 263.7 30.4 268.3 C 30.2 269.0 30.1 270.7 29.9 271.5 C 29.9 269.4 29.9 266.6 29.8 266.2 C 29.8 268.9 29.8 272.6 29.7 273.1 C 29.6 267.1 29.3 271.9 29.0 272.8 C 29.1 267.6 28.7 265.7 29.1 264.2 C 29.1 264.2 29.1 264.2 29.1 264.2 Z M 334.9 348.8 C 332.7 348.8 330.9 348.8 331.3 348.5 C 333.6 348.5 335.2 348.6 336.5 348.7 C 336.8 348.5 336.1 348.3 338.0 348.3 C 340.5 348.6 339.5 349.1 338.5 349.3 C 338.2 349.0 330.6 349.1 334.9 348.8 C 334.9 348.8 334.9 348.8 334.9 348.8 Z M 527.4 348.1 C 534.1 348.3 527.4 347.6 534.0 347.7 C 534.1 348.1 535.3 348.5 531.0 348.5 C 530.6 348.3 528.1 348.3 527.4 348.1 C 527.4 348.1 527.4 348.1 527.4 348.1 Z M 115.2 154.9 C 115.0 154.7 110.4 154.8 111.3 154.4 C 113.6 154.4 115.8 154.4 118.1 154.4 C 118.8 154.7 118.1 154.9 115.2 154.9 C 115.2 154.9 115.2 154.9 115.2 154.9 Z M 32.9 317.1 C 32.5 324.9 33.1 333.3 32.7 330.8 C 32.3 333.7 31.6 325.1 32.0 325.5 C 32.4 324.7 32.9 310.9 32.9 317.1 C 32.9 317.1 32.9 317.1 32.9 317.1 Z M 341.0 158.4 C 332.8 158.1 334.7 159.2 329.3 158.7 C 331.1 158.7 331.9 158.6 332.6 158.4 C 331.3 158.4 329.3 158.4 329.3 158.3 C 333.0 158.3 337.6 158.1 341.0 158.4 C 341.0 158.4 341.0 158.4 341.0 158.4 Z M 762.8 349.8 C 761.5 349.9 760.9 349.9 761.2 350.1 C 755.8 350.0 756.3 350.3 752.7 350.1 C 752.0 349.6 756.7 349.7 761.0 349.8 C 761.0 349.8 762.3 349.7 762.8 349.8 C 762.8 349.8 762.8 349.8 762.8 349.8 Z M 611.1 348.4 C 611.6 348.7 614.8 348.8 609.9 348.9 C 603.9 348.5 608.6 348.1 614.2 347.9 C 614.1 347.7 614.0 347.5 613.8 347.4 C 611.5 347.4 610.0 347.3 608.6 347.2 C 608.0 347.8 603.4 346.7 594.9 347.1 C 598.8 346.8 594.0 346.4 599.6 346.6 C 597.8 346.2 601.7 346.2 600.8 345.9 C 598.6 346.1 592.8 346.1 594.5 346.6 C 591.5 346.6 589.1 346.6 587.6 346.4 C 585.1 346.0 593.0 346.4 590.5 345.9 C 588.8 345.9 588.4 345.8 587.1 345.8 C 586.9 346.0 587.7 346.2 585.7 346.2 C 580.1 346.0 586.3 345.7 578.5 345.7 C 578.2 345.9 580.6 346.0 580.6 346.2 C 577.2 346.4 577.2 346.1 573.9 346.3 C 573.0 346.1 576.1 346.0 573.6 345.9 C 571.8 346.5 566.2 345.6 561.7 346.1 C 565.6 346.9 560.8 345.9 557.0 346.7 C 555.9 346.5 558.7 345.9 554.8 345.9 C 556.9 347.0 541.4 346.7 554.3 347.5 C 547.8 347.5 546.2 348.3 551.4 348.4 C 539.9 348.2 544.0 348.7 539.7 348.8 C 535.3 348.8 541.9 348.6 539.3 348.3 C 544.0 348.3 542.7 348.1 546.2 348.3 C 546.0 348.1 546.8 348.0 547.7 347.9 C 543.2 348.2 537.4 347.6 540.4 347.1 C 542.7 347.2 540.9 347.6 544.0 347.6 C 542.5 347.0 547.4 347.7 547.4 347.4 C 544.8 346.8 551.2 346.4 544.8 346.3 C 545.0 346.5 545.1 346.8 545.3 347.0 C 543.6 347.0 541.9 347.0 540.3 347.0 C 538.5 346.6 539.5 346.3 537.9 346.2 C 535.1 346.2 533.7 346.3 532.9 346.4 C 536.5 346.5 540.9 346.9 535.1 347.0 C 536.8 346.2 526.9 346.8 531.2 346.3 C 524.7 346.1 522.0 346.7 521.0 346.2 C 517.7 346.2 520.1 346.6 516.1 346.6 C 509.6 346.2 511.1 346.8 502.4 346.4 C 501.8 347.1 501.5 346.3 498.8 346.3 C 499.0 346.5 499.1 346.8 499.3 347.0 C 496.1 346.6 489.1 346.4 482.2 346.8 C 480.3 346.7 481.5 346.4 476.9 346.4 C 472.2 347.0 465.9 346.4 460.2 347.0 C 459.6 346.7 455.4 346.7 453.3 346.8 C 452.2 346.7 455.0 346.2 451.2 346.2 C 448.9 346.6 453.4 346.7 448.2 346.8 C 448.5 346.4 443.4 347.2 443.0 346.7 C 444.6 346.6 446.3 346.4 447.9 346.3 C 445.6 346.3 446.1 346.1 444.3 346.1 C 444.9 346.6 440.5 346.1 439.1 346.1 C 439.4 346.3 439.0 346.5 437.8 346.6 C 434.8 346.6 432.5 346.6 431.0 346.7 C 427.1 346.5 433.0 346.4 429.2 346.3 C 427.9 347.3 423.5 346.2 415.8 346.8 C 413.8 346.5 410.4 346.4 405.3 346.3 C 404.9 346.6 410.3 346.5 410.6 346.7 C 403.1 346.6 412.1 347.0 407.3 347.0 C 396.5 346.8 389.6 346.8 378.1 346.4 C 378.4 346.7 369.7 347.0 369.8 346.8 C 372.1 346.8 364.8 346.3 361.1 346.3 C 360.4 347.0 355.0 347.6 354.8 347.9 C 353.4 347.6 353.7 347.5 352.8 347.0 C 346.4 346.8 343.3 347.4 339.1 346.7 C 339.5 347.0 336.6 347.1 334.1 347.2 C 334.7 346.9 336.1 346.7 337.3 346.4 C 334.0 346.5 333.4 346.3 330.4 346.3 C 327.9 347.4 322.4 346.0 320.4 347.1 C 315.6 347.1 316.3 346.7 311.8 346.7 C 312.1 346.9 311.6 347.1 310.4 347.2 C 313.3 347.1 315.3 346.8 317.2 347.2 C 310.6 347.3 330.1 348.3 319.4 348.8 C 319.0 348.6 319.9 348.3 317.6 348.3 C 311.5 348.4 315.3 348.8 317.8 348.8 C 313.7 349.0 309.3 348.8 312.8 349.3 C 303.4 349.4 309.2 349.1 305.8 348.9 C 289.0 349.2 267.7 349.4 244.4 348.9 C 243.7 349.4 231.2 349.0 227.2 348.7 C 220.8 349.1 214.0 349.2 211.9 348.7 C 210.8 349.1 203.8 348.4 203.2 348.8 C 206.1 348.7 207.9 349.0 205.1 349.0 C 195.6 348.8 181.4 348.7 176.0 349.0 C 172.6 348.5 166.4 348.7 162.3 348.9 C 161.6 348.7 164.9 348.6 162.2 348.5 C 161.4 348.8 152.7 349.1 150.5 348.8 C 153.1 348.8 156.0 348.3 152.0 348.3 C 152.1 348.5 147.4 348.4 148.6 348.8 C 142.9 348.6 139.6 348.9 135.0 348.7 C 138.8 348.6 141.1 348.4 141.7 348.1 C 138.4 348.3 135.9 348.5 133.2 348.1 C 134.0 348.7 128.6 348.4 123.1 348.7 C 121.6 348.5 120.4 348.2 116.1 348.3 C 114.0 348.6 123.0 348.7 118.0 348.8 C 118.0 348.6 113.3 348.4 114.5 348.8 C 108.7 348.6 105.5 348.9 100.8 348.5 C 106.8 348.7 102.3 348.1 100.8 348.0 C 99.5 348.0 97.5 348.0 97.5 348.1 C 97.5 348.3 100.5 348.3 100.8 348.4 C 96.6 348.2 95.5 348.9 94.0 348.5 C 95.8 348.5 96.1 348.3 94.0 348.3 C 93.5 348.9 81.3 348.4 85.5 348.1 C 85.5 348.3 90.2 348.3 90.6 348.1 C 89.3 347.9 82.3 348.2 83.8 347.7 C 87.8 347.7 87.5 348.0 92.3 347.9 C 92.8 347.6 95.6 347.5 97.4 347.3 C 89.8 347.4 88.1 347.8 87.1 347.3 C 83.8 347.4 85.8 347.9 80.3 347.7 C 72.5 347.6 78.9 347.2 76.9 347.1 C 70.0 347.3 72.2 347.9 75.2 348.3 C 69.7 348.2 68.0 348.5 61.5 348.4 C 61.9 348.2 62.7 348.0 65.0 347.9 C 65.2 348.0 70.7 348.3 70.2 348.0 C 69.7 347.4 65.2 347.2 58.2 347.1 C 59.9 347.7 60.0 347.3 53.0 347.4 C 54.2 347.9 49.7 347.2 49.5 347.6 C 49.9 347.8 52.4 347.8 54.7 347.7 C 54.5 348.0 53.7 348.2 51.4 348.3 C 49.9 348.1 48.7 348.3 44.6 348.1 C 44.2 347.8 47.2 347.7 47.9 347.5 C 45.6 347.5 45.1 347.7 42.7 347.7 C 40.7 347.4 40.9 346.9 41.1 346.3 C 43.7 346.2 47.9 346.2 44.5 345.9 C 54.5 345.9 44.0 346.5 47.9 346.6 C 52.0 346.0 49.7 346.8 56.3 346.7 C 58.3 346.7 59.0 346.6 59.8 346.4 C 59.3 346.4 55.5 345.9 59.8 345.9 C 60.8 346.2 63.1 346.4 66.6 346.4 C 66.6 346.2 59.5 346.0 66.6 346.1 C 70.1 346.1 67.0 346.6 71.8 346.6 C 71.8 346.4 73.1 346.4 73.4 346.3 C 66.4 346.4 74.7 346.0 70.1 345.8 C 76.0 345.6 71.1 346.2 75.1 346.2 C 75.2 345.9 81.7 346.4 81.9 345.9 C 79.4 346.1 74.4 346.1 75.0 345.7 C 79.5 345.7 100.2 345.4 92.1 346.0 C 95.1 345.8 110.1 345.3 109.0 345.5 C 104.5 345.5 104.7 345.8 104.1 346.0 C 112.5 345.6 116.8 345.9 126.1 345.4 C 115.9 345.3 123.5 344.7 117.5 344.4 C 114.9 344.4 111.2 344.3 110.6 344.5 C 111.8 344.9 115.9 344.7 117.5 344.5 C 117.6 344.8 117.6 345.2 117.6 345.5 C 106.5 345.1 100.6 345.5 95.4 345.4 C 99.9 345.3 86.9 344.9 92.0 344.7 C 94.2 345.0 99.5 345.0 104.0 345.1 C 104.0 345.0 104.0 344.9 104.0 344.7 C 105.9 344.7 108.8 344.8 108.9 344.6 C 102.8 344.7 99.5 344.3 95.3 344.6 C 95.3 344.5 95.3 344.4 95.3 344.4 C 94.3 344.4 93.3 344.3 93.7 344.2 C 95.6 344.2 98.5 344.3 98.8 344.1 C 94.3 344.0 93.4 343.6 88.5 343.6 C 89.6 343.1 83.0 342.6 90.2 342.4 C 91.4 342.8 95.4 343.0 95.2 343.2 C 97.4 343.4 101.7 343.2 103.8 343.1 C 101.6 342.8 97.3 342.7 97.0 342.3 C 100.4 342.2 103.2 342.1 105.4 342.4 C 98.2 342.6 109.4 342.8 112.2 343.2 C 111.4 343.0 109.7 342.9 108.7 342.7 C 114.3 342.7 117.0 343.0 117.3 342.4 C 124.0 342.2 122.6 342.7 127.4 342.7 C 124.2 342.1 130.5 342.4 127.3 341.9 C 135.2 341.8 129.7 342.4 132.5 342.4 C 134.9 342.4 135.2 342.2 137.5 342.1 C 141.2 342.4 148.5 342.4 149.5 342.9 C 152.7 342.9 153.2 343.1 156.3 343.1 C 157.1 342.9 158.1 342.8 159.6 342.7 C 160.1 342.8 162.4 343.0 163.1 342.8 C 154.2 342.2 156.7 342.2 147.5 341.8 C 146.9 341.9 145.6 342.0 147.6 342.1 C 141.4 342.2 139.5 342.0 134.1 342.0 C 133.4 341.7 132.1 341.1 127.2 341.5 C 128.3 341.1 127.0 341.0 129.0 340.9 C 131.6 341.1 135.3 341.2 139.1 341.4 C 139.4 341.2 138.7 341.0 140.7 341.0 C 142.5 341.2 145.3 341.3 147.6 341.1 C 147.6 341.3 146.8 341.4 145.9 341.5 C 154.3 341.6 151.2 341.1 157.7 341.4 C 156.7 341.1 152.6 341.1 156.0 340.9 C 161.7 340.7 163.1 341.0 166.1 341.1 C 166.5 341.0 166.2 340.9 167.8 340.9 C 172.0 341.1 158.9 341.6 166.3 342.2 C 166.7 341.7 173.8 341.9 174.8 342.2 C 172.6 342.5 168.4 342.0 168.1 342.3 C 181.0 342.3 168.5 342.9 181.8 343.1 C 181.7 342.9 181.7 342.7 181.7 342.5 C 176.4 342.6 176.2 342.3 176.4 341.9 C 171.8 341.9 169.9 341.4 166.2 341.6 C 167.5 340.9 169.9 341.6 174.7 341.6 C 174.5 341.2 170.2 341.2 169.5 340.9 C 180.4 341.2 182.6 340.6 193.1 341.2 C 190.5 340.8 198.9 341.2 198.1 340.9 C 189.1 340.9 192.6 339.8 191.1 339.7 C 185.2 339.7 188.0 340.5 184.6 340.7 C 182.9 340.3 183.7 340.1 184.4 339.6 C 189.7 339.7 188.8 339.6 192.9 339.4 C 196.4 339.8 199.5 340.5 194.8 340.7 C 195.8 340.7 202.7 340.4 203.2 340.7 C 196.6 340.7 203.9 340.9 200.0 341.1 C 205.2 341.4 214.1 340.9 220.3 341.2 C 219.7 341.0 222.0 341.0 221.8 340.7 C 215.7 341.1 214.3 340.2 208.2 340.2 C 210.8 340.2 209.3 339.9 208.1 339.8 C 214.1 340.0 217.3 339.7 221.7 340.1 C 221.6 339.9 221.6 339.8 221.6 339.7 C 228.9 340.0 227.9 339.9 233.4 339.6 C 235.6 339.8 232.8 340.5 232.1 340.9 C 234.7 340.7 244.4 340.8 238.7 340.3 C 244.4 340.3 243.1 340.9 248.9 340.9 C 248.9 340.5 243.5 340.5 245.3 339.9 C 250.7 339.9 247.8 340.4 252.1 340.1 C 252.4 340.4 252.6 340.7 257.2 340.7 C 253.8 340.4 257.7 340.6 258.9 340.3 C 256.8 340.3 254.9 340.2 253.7 340.1 C 262.2 340.2 263.8 340.2 270.5 340.1 C 268.2 340.5 272.0 340.6 267.5 340.9 C 271.7 340.6 277.1 341.1 279.3 340.9 C 276.7 340.7 272.4 340.7 270.6 340.5 C 284.1 340.3 291.0 339.9 302.7 340.5 C 300.8 340.5 298.0 340.4 297.7 340.6 C 299.0 340.6 301.1 340.6 301.2 340.7 C 297.1 340.7 293.1 340.7 291.0 340.9 C 287.3 340.7 293.1 340.5 289.2 340.5 C 288.7 340.7 281.5 340.5 284.3 341.0 C 290.6 340.6 296.9 341.0 299.9 341.6 C 305.5 340.9 300.0 340.9 306.1 340.2 C 306.0 340.4 307.5 340.5 309.5 340.6 C 307.4 340.0 315.4 340.3 316.2 340.3 C 313.3 340.6 302.2 340.9 308.2 341.4 C 305.2 340.4 321.3 341.6 318.0 340.8 C 325.3 340.8 322.8 341.3 326.6 340.8 C 326.8 341.0 326.4 341.2 328.4 341.2 C 330.4 341.2 331.0 341.1 331.8 341.0 C 321.6 340.8 324.4 340.2 317.8 340.2 C 318.9 340.2 319.9 340.2 319.5 340.1 C 319.5 340.0 319.7 339.9 321.1 339.9 C 321.8 340.5 326.4 339.8 328.0 340.2 C 326.0 340.2 324.1 340.2 324.8 340.5 C 333.2 340.4 331.9 340.9 343.5 341.1 C 339.9 340.9 344.5 340.8 348.5 340.7 C 354.1 340.8 352.2 341.4 358.9 341.4 C 357.8 340.4 366.1 341.5 373.9 340.8 C 373.3 341.4 383.9 341.6 385.9 341.1 C 386.3 341.3 390.0 341.2 392.7 341.2 C 393.4 341.5 390.4 341.6 392.9 341.6 C 395.1 341.6 392.8 341.1 395.9 341.1 C 399.6 341.2 399.1 341.7 404.6 341.6 C 404.6 341.3 401.6 341.4 404.3 341.1 C 409.2 341.3 413.4 341.2 409.3 340.8 C 416.3 340.8 413.3 341.5 419.8 341.5 C 417.8 341.3 417.9 341.2 421.3 341.1 C 423.9 341.4 424.2 341.6 425.1 341.8 C 426.9 341.4 426.2 341.4 431.7 341.5 C 431.6 341.3 431.5 341.1 431.4 341.0 C 433.9 341.0 437.5 340.9 438.2 341.1 C 433.6 341.0 435.1 341.4 433.4 341.5 C 438.0 341.6 447.1 342.0 440.1 341.5 C 446.4 341.3 443.6 341.9 448.7 341.8 C 445.3 341.3 448.5 341.7 453.7 341.6 C 452.9 341.1 457.1 341.6 460.4 341.5 C 459.7 341.2 460.4 341.0 463.4 341.0 C 463.4 341.2 465.4 341.3 468.6 341.2 C 468.5 341.0 461.3 340.8 468.4 340.8 C 471.8 341.0 472.1 341.5 477.4 341.5 C 478.8 341.9 472.7 341.7 474.3 342.1 C 478.4 341.8 479.9 342.1 486.2 342.1 C 483.2 341.4 498.1 341.2 490.5 340.8 C 492.6 340.9 495.3 340.3 497.1 340.7 C 494.9 340.8 499.2 341.1 499.1 341.2 C 502.0 341.2 509.1 341.4 509.1 341.1 C 502.7 341.2 502.5 340.8 500.4 340.6 C 509.6 340.4 517.9 340.5 517.6 341.0 C 517.5 340.8 518.8 340.8 519.1 340.7 C 515.8 340.8 513.2 340.1 517.0 340.1 C 516.4 340.5 519.3 340.6 522.3 340.7 C 522.3 340.3 535.0 340.9 532.3 340.3 C 527.6 340.7 523.2 340.0 526.8 339.8 C 530.2 340.2 537.1 340.4 535.8 340.7 C 537.6 340.6 539.1 340.5 540.7 340.3 C 541.9 340.0 538.2 340.0 538.6 339.7 C 541.1 339.7 544.8 339.6 545.4 339.8 C 538.7 339.8 549.0 340.0 542.3 340.3 C 546.6 340.3 547.7 340.5 551.1 340.6 C 551.0 340.5 552.3 340.4 552.5 340.3 C 549.7 340.6 546.6 340.3 547.2 339.9 C 553.2 339.9 552.5 340.3 557.6 340.3 C 558.9 340.0 565.4 339.5 569.1 339.8 C 562.3 339.8 569.7 340.0 565.9 340.2 C 559.7 339.9 558.3 340.4 556.3 340.7 C 559.1 340.9 564.3 341.1 564.6 340.6 C 561.3 340.5 561.4 340.8 559.7 340.8 C 559.6 340.6 560.5 340.4 562.7 340.3 C 565.7 340.6 571.8 340.3 568.1 340.8 C 572.2 340.6 577.2 341.0 581.5 340.7 C 576.5 340.7 572.8 340.5 571.0 340.2 C 575.0 340.0 579.5 340.5 579.4 340.2 C 578.7 339.8 572.2 340.0 570.7 339.7 C 575.6 339.3 584.5 340.4 577.3 339.5 C 580.3 339.6 584.4 339.6 585.9 339.8 C 582.3 339.8 586.6 340.4 588.2 340.5 C 591.3 340.4 593.7 340.4 594.7 340.2 C 590.1 340.4 586.1 339.8 589.3 339.8 C 590.3 340.0 591.1 339.7 592.5 339.7 C 593.0 339.9 598.3 339.8 599.5 339.9 C 599.0 339.7 596.5 339.7 595.9 339.5 C 598.9 339.4 603.1 338.9 605.8 339.4 C 603.9 339.4 601.0 339.4 601.0 339.5 C 610.1 340.1 613.3 340.6 623.9 340.8 C 622.6 340.9 622.0 341.0 622.5 341.1 C 629.1 341.1 633.5 341.4 632.9 341.6 C 637.0 341.6 638.9 341.3 640.9 341.1 C 636.4 340.9 635.3 341.3 632.4 341.0 C 634.0 340.9 628.5 340.2 626.5 339.9 C 619.5 340.3 618.5 339.7 611.3 339.9 C 613.1 339.5 605.8 339.8 607.6 339.4 C 615.0 340.0 621.2 339.6 631.5 339.8 C 630.4 340.1 629.5 340.4 633.7 340.6 C 640.3 340.8 636.7 340.2 642.1 340.3 C 644.5 340.7 641.4 340.7 644.2 340.9 C 645.8 340.7 650.8 340.7 652.8 341.1 C 645.8 341.1 654.4 341.4 649.9 341.6 C 652.2 341.6 653.6 341.7 655.1 341.8 C 648.0 341.3 661.4 341.2 656.0 340.9 C 665.2 340.6 657.5 341.8 665.2 341.8 C 661.2 341.5 665.9 341.3 671.6 341.4 C 673.5 341.8 679.3 341.9 684.1 342.0 C 681.3 341.7 679.5 341.7 683.6 341.5 C 681.1 341.3 677.2 341.3 675.2 341.5 C 675.0 341.3 674.1 341.2 673.0 341.1 C 678.6 341.0 676.1 340.8 677.8 340.7 C 679.6 340.9 683.7 340.9 684.9 341.1 C 684.8 341.0 686.2 341.0 686.3 340.8 C 679.2 340.8 687.0 340.3 682.4 340.2 C 679.3 340.2 681.7 340.6 677.7 340.6 C 673.5 340.1 680.4 340.1 682.0 339.7 C 678.4 339.4 674.9 339.9 673.4 339.4 C 677.2 339.0 684.4 339.3 690.1 339.4 C 689.3 338.9 699.6 339.5 699.9 338.9 C 700.8 339.1 701.9 339.2 703.5 339.3 C 704.8 338.9 707.1 339.4 708.7 339.4 C 708.7 339.2 708.0 339.0 706.6 338.9 C 713.7 339.1 715.3 339.1 723.3 338.9 C 724.9 339.1 726.6 339.4 727.5 339.7 C 725.6 339.7 723.9 339.8 722.7 339.9 C 733.9 340.0 725.6 338.9 734.2 339.5 C 733.6 339.3 727.8 338.9 731.8 338.8 C 739.3 339.3 748.9 338.8 749.7 339.9 C 756.3 340.3 759.8 339.6 763.3 340.1 C 765.2 340.0 765.8 339.9 766.5 339.8 C 764.3 339.6 761.6 339.4 759.1 339.2 C 755.5 339.3 753.5 339.0 757.7 339.5 C 752.1 339.6 750.4 339.3 747.3 339.2 C 754.7 338.9 762.1 339.2 761.9 338.6 C 764.4 338.8 766.5 339.1 768.6 339.3 C 768.6 339.1 768.7 339.0 768.7 338.8 C 768.4 337.7 768.3 329.3 768.7 329.1 C 768.6 334.6 769.1 340.9 769.3 336.1 C 769.0 322.0 769.8 314.8 769.3 302.2 C 769.5 302.0 769.8 303.1 769.9 300.9 C 769.6 300.8 769.5 300.2 769.3 298.9 C 769.4 295.1 769.5 293.0 769.5 287.7 C 769.8 288.2 770.1 287.5 770.2 284.7 C 769.9 283.0 769.1 277.5 769.2 274.5 C 769.2 277.7 769.7 273.7 769.7 271.5 C 769.2 273.3 770.2 257.0 769.6 261.7 C 769.6 255.0 769.8 252.2 770.0 252.0 C 769.9 249.6 769.8 247.9 769.7 245.5 C 770.3 244.0 769.9 232.5 770.1 230.9 C 769.9 234.9 770.6 235.6 770.5 232.4 C 770.2 230.2 769.9 219.8 770.0 217.8 C 770.1 218.4 770.5 219.1 770.6 224.2 C 770.7 215.5 770.1 215.7 769.7 213.0 C 770.3 213.1 769.8 209.3 769.7 208.1 C 770.0 205.3 769.9 208.2 770.2 207.9 C 770.3 204.8 770.5 203.6 770.5 199.6 C 770.1 201.0 770.3 196.4 770.4 194.7 C 770.1 194.3 769.9 192.1 769.9 188.5 C 770.5 193.0 770.6 167.2 770.1 173.7 C 769.8 169.0 770.6 168.2 770.5 161.9 C 770.4 161.5 770.4 161.0 770.4 160.4 C 769.0 160.5 768.0 160.5 770.1 160.7 C 770.1 160.7 770.1 160.7 770.1 160.7 C 770.1 160.7 770.1 160.7 770.1 160.7 C 764.8 160.8 768.4 160.2 761.9 160.4 C 764.2 160.9 755.6 160.3 756.4 160.9 C 754.4 160.2 748.2 161.1 743.4 160.5 C 743.2 160.7 741.8 160.7 741.3 160.8 C 740.3 161.0 747.6 161.1 742.8 161.2 C 737.3 160.9 740.5 160.8 739.9 160.5 C 724.3 160.7 705.8 160.5 689.5 160.4 C 691.3 160.6 691.1 160.7 687.6 160.8 C 683.4 160.0 663.9 160.4 660.8 160.7 C 659.4 160.2 649.2 160.7 647.5 160.4 C 649.5 160.4 653.5 160.0 649.4 160.0 C 646.5 160.5 643.3 160.2 639.1 160.5 C 637.4 160.0 625.1 160.6 631.0 159.8 C 628.7 159.8 627.5 159.7 626.2 159.6 C 625.7 160.1 623.3 160.0 627.4 160.3 C 616.6 159.9 613.8 160.3 605.6 160.0 C 604.0 160.2 610.4 160.4 605.3 160.5 C 605.4 160.4 605.4 160.4 605.5 160.3 C 603.7 160.3 602.9 160.5 602.2 160.3 C 602.6 160.1 605.4 160.1 605.8 159.6 C 601.6 159.8 599.1 159.2 597.4 159.6 C 603.2 159.7 598.8 160.4 595.6 160.0 C 598.8 159.8 582.3 160.0 576.9 160.3 C 574.5 159.8 582.7 160.2 582.2 159.9 C 572.3 160.0 573.2 159.8 571.8 160.3 C 566.6 160.1 564.8 159.9 558.4 160.1 C 554.9 160.0 560.7 159.8 556.9 159.8 C 554.6 159.9 553.5 160.1 550.1 160.1 C 541.3 159.3 519.7 160.6 509.9 159.4 C 513.9 159.7 508.4 159.9 503.0 159.9 C 502.7 159.7 503.4 159.5 501.5 159.5 C 501.7 159.8 499.9 159.9 496.3 159.9 C 496.0 159.7 496.7 159.5 494.7 159.5 C 493.1 160.0 488.8 159.5 486.1 159.8 C 485.1 159.3 492.4 159.5 493.0 159.2 C 484.3 158.9 482.8 159.4 476.2 159.2 C 479.7 159.2 473.8 158.8 472.8 158.7 C 474.2 159.2 468.9 159.3 472.7 159.6 C 470.2 159.6 466.4 159.7 466.0 159.5 C 467.3 159.5 469.4 159.5 469.4 159.4 C 466.3 159.4 462.4 159.0 460.9 159.4 C 463.0 159.4 464.3 159.5 464.3 159.8 C 463.4 159.9 462.4 160.0 460.8 160.1 C 465.7 159.1 451.6 159.6 450.8 159.9 C 449.6 159.2 448.7 159.2 449.3 159.0 C 443.3 158.9 444.1 159.4 440.6 159.5 C 441.7 159.0 442.9 158.7 437.4 158.5 C 438.6 159.0 432.0 158.9 433.9 159.5 C 419.9 159.6 417.0 159.1 408.6 159.1 C 408.4 159.2 411.0 159.3 408.6 159.4 C 404.6 159.2 401.2 159.1 398.5 158.8 C 396.4 159.2 399.4 159.2 396.9 159.4 C 390.6 159.0 392.1 158.5 386.6 158.2 C 379.9 158.5 382.4 158.3 378.3 158.7 C 380.1 158.7 382.4 158.9 379.9 159.0 C 375.8 158.6 374.1 158.1 373.1 158.1 C 376.1 158.0 378.4 158.1 379.9 158.2 C 380.9 157.9 385.0 157.9 381.5 157.7 C 385.8 157.8 390.6 157.8 396.9 157.8 C 394.7 157.4 402.3 157.7 400.2 157.3 C 393.2 157.4 391.6 157.1 384.9 157.2 C 386.5 157.6 379.5 157.4 378.2 157.3 C 378.2 157.5 373.6 157.4 374.7 157.8 C 369.6 157.9 369.8 157.6 364.6 157.7 C 364.3 157.5 364.9 157.3 363.0 157.3 C 361.2 157.7 359.5 157.1 357.8 157.2 C 359.0 157.6 351.6 157.4 351.1 157.7 C 353.1 157.7 355.9 157.6 356.2 157.8 C 348.0 157.8 354.6 158.2 356.3 158.5 C 356.0 158.3 358.9 157.7 359.6 158.1 C 352.7 158.4 369.4 158.7 363.1 158.6 C 357.8 158.5 358.2 158.8 352.9 158.7 C 346.5 158.0 353.9 157.6 347.5 157.0 C 343.8 157.4 341.1 157.3 340.9 157.7 C 340.0 157.5 339.0 157.4 337.5 157.3 C 335.9 157.5 342.5 157.7 337.6 157.8 C 334.9 157.7 337.8 157.2 332.3 157.3 C 330.1 157.6 339.0 157.7 334.1 157.8 C 328.7 157.2 335.3 158.0 329.2 158.0 C 328.7 157.9 327.7 157.9 325.7 157.9 C 325.3 157.7 326.1 157.4 323.9 157.4 C 322.9 158.1 321.6 157.1 317.1 157.3 C 314.8 157.8 321.8 157.5 320.6 157.9 C 315.4 157.4 312.5 158.0 310.5 157.9 C 314.6 157.6 304.0 157.6 303.6 157.3 C 304.9 157.7 302.5 157.5 296.8 157.9 C 296.3 157.2 289.8 157.7 288.1 157.1 C 287.4 157.3 285.8 157.5 285.0 157.7 C 287.0 157.7 289.0 157.7 288.4 157.9 C 286.7 157.9 285.1 157.9 283.3 157.9 C 280.4 157.6 287.4 156.8 276.1 156.9 C 277.6 157.4 272.9 157.5 269.8 157.7 C 270.3 158.1 274.3 157.7 274.8 157.9 C 271.2 158.2 267.1 157.9 264.7 157.7 C 258.1 157.9 250.3 157.6 240.9 157.8 C 238.6 157.5 248.7 157.5 242.4 157.3 C 239.7 157.3 241.2 157.6 237.5 157.5 C 240.1 155.8 211.9 157.2 209.7 156.5 C 208.7 156.8 200.5 156.6 201.6 157.1 C 206.9 156.8 210.9 157.3 213.7 157.5 C 218.7 157.3 208.9 157.1 213.5 157.0 C 214.1 157.3 220.9 157.0 220.4 157.4 C 213.2 157.4 224.4 157.8 219.2 158.2 C 212.4 158.1 199.2 158.6 202.1 158.1 C 202.2 158.2 205.2 158.2 205.4 158.1 C 197.7 157.9 193.4 158.2 190.4 158.5 C 186.8 158.1 173.6 158.7 176.9 158.5 C 175.6 158.1 185.1 158.5 183.5 158.2 C 169.4 158.0 169.3 158.4 159.8 158.1 C 163.1 158.5 150.6 158.8 151.6 158.6 C 151.3 158.2 148.3 157.9 143.0 158.3 C 143.6 157.9 140.5 157.8 137.4 157.7 C 136.4 158.0 140.2 158.0 139.7 158.3 C 136.9 158.3 134.0 158.3 131.2 158.3 C 130.9 158.2 131.2 157.9 129.2 157.9 C 126.3 158.2 115.2 158.5 116.0 158.3 C 120.4 157.8 107.9 157.9 115.4 157.5 C 113.2 157.5 112.9 157.4 110.1 157.4 C 110.3 157.6 110.4 157.8 110.6 157.9 C 104.3 158.0 106.9 157.3 101.6 157.3 C 101.3 157.5 99.0 157.5 98.5 157.7 C 100.6 157.7 100.6 157.5 103.5 157.5 C 100.9 158.2 109.4 157.9 109.2 158.3 C 103.3 158.4 103.0 158.0 100.4 157.8 C 93.2 158.1 96.5 157.9 88.5 157.8 C 88.6 158.0 90.8 158.0 90.5 158.2 C 80.8 158.1 81.1 157.3 74.7 157.5 C 76.2 157.5 81.8 157.2 77.7 157.2 C 73.4 157.3 72.4 157.7 66.5 157.8 C 66.0 157.6 66.3 157.4 64.3 157.4 C 62.0 157.6 62.1 157.9 60.0 158.1 C 59.3 157.9 56.1 158.0 54.9 158.1 C 52.4 157.7 55.3 157.7 52.6 157.5 C 47.6 157.6 45.8 158.5 41.6 158.3 C 41.3 157.9 38.4 157.9 35.2 158.0 C 35.2 158.8 35.2 159.7 35.2 160.6 C 34.7 160.7 34.8 169.6 34.7 175.2 C 35.1 174.3 35.0 180.1 35.4 179.1 C 35.4 176.3 35.5 174.9 35.6 174.4 C 35.7 181.0 34.9 182.3 35.5 187.8 C 35.2 190.0 35.0 192.9 34.9 197.3 C 35.1 198.0 35.3 189.7 35.4 194.4 C 35.2 194.6 35.3 196.2 35.4 197.7 C 34.9 196.7 34.8 200.2 34.6 202.2 C 34.9 206.4 34.4 214.3 34.9 210.8 C 34.9 217.1 34.2 212.5 34.2 217.3 C 34.8 215.2 34.8 223.5 35.1 219.6 C 35.2 226.1 34.5 225.1 34.3 222.4 C 34.2 228.2 34.6 229.8 34.3 232.6 C 34.7 230.0 35.0 239.3 34.7 234.5 C 34.3 232.8 34.6 239.8 34.3 241.0 C 34.6 239.1 34.6 242.2 34.9 238.0 C 35.0 242.6 35.0 249.2 34.6 253.1 C 34.9 258.8 34.9 264.1 34.5 261.5 C 34.6 266.8 34.6 264.8 34.5 270.1 C 34.6 270.1 34.6 268.6 34.7 268.3 C 34.7 275.6 34.5 274.0 34.5 283.6 C 34.0 282.3 34.0 288.4 33.7 290.2 C 33.7 286.2 33.8 283.1 33.9 280.0 C 33.7 279.2 33.6 282.3 33.6 279.8 C 33.7 279.5 33.8 278.1 33.8 276.6 C 33.4 282.6 33.1 268.4 33.6 273.0 C 33.5 273.0 33.4 273.3 33.4 274.6 C 33.8 273.6 33.7 273.6 34.1 274.9 C 34.0 271.7 34.5 269.4 34.1 268.1 C 33.9 268.2 34.0 271.2 33.8 271.5 C 33.6 263.6 34.3 269.3 34.2 263.2 C 33.8 261.6 33.7 264.7 33.4 266.1 C 33.4 260.5 33.4 255.7 33.7 254.3 C 33.5 249.1 33.4 254.5 33.2 250.7 C 33.3 249.0 33.7 249.3 33.7 245.8 C 33.5 241.9 33.4 247.8 33.3 244.0 C 33.6 240.0 33.9 247.1 33.9 240.8 C 33.3 242.0 34.0 235.2 33.7 235.5 C 33.8 239.2 33.2 238.9 33.6 237.3 C 34.1 229.3 32.6 222.6 33.6 215.0 C 33.4 214.9 33.4 213.6 33.3 213.2 C 33.0 219.2 33.0 228.3 32.4 229.6 C 32.5 234.7 32.9 234.2 33.0 235.2 C 32.5 240.7 32.5 240.2 31.9 236.3 C 31.8 226.4 32.1 222.4 32.3 216.0 C 32.0 212.3 32.1 216.2 31.9 217.4 C 32.3 197.4 31.1 212.0 31.2 204.8 C 31.4 205.2 31.5 203.7 31.6 201.8 C 31.4 201.6 31.5 198.7 31.3 198.0 C 31.3 199.4 31.2 200.0 31.1 199.5 C 30.9 194.4 31.4 196.7 31.6 196.6 C 31.6 200.4 31.6 203.0 31.9 203.6 C 31.7 198.5 32.0 194.9 31.6 191.4 C 32.2 187.1 32.7 194.8 33.2 192.6 C 33.5 193.7 32.2 188.6 32.0 184.8 C 32.0 178.6 31.6 178.1 31.6 172.4 C 32.0 171.3 31.8 178.3 32.1 178.1 C 32.1 176.4 32.2 176.1 32.2 174.7 C 32.2 170.6 31.8 170.6 31.7 167.3 C 32.1 166.0 31.9 164.8 31.7 162.3 C 31.9 158.6 32.0 164.8 32.1 160.8 C 32.2 158.5 32.0 156.4 31.9 154.7 C 33.0 154.6 33.8 154.5 34.4 154.5 C 34.9 154.7 34.4 154.9 36.4 154.9 C 41.0 154.6 42.1 154.6 35.9 154.4 C 41.3 154.5 43.5 154.3 42.2 153.9 C 36.2 153.8 33.6 153.9 30.9 153.7 C 30.8 154.4 30.7 155.1 30.6 155.9 C 31.0 157.9 30.7 159.9 30.6 162.8 C 31.2 161.6 30.6 166.4 30.9 168.4 C 31.0 166.5 31.1 164.5 31.2 163.5 C 31.2 172.0 31.1 171.8 31.7 179.4 C 31.5 179.2 31.4 180.0 31.3 180.7 C 31.2 178.4 31.3 172.3 30.9 171.8 C 30.5 176.3 31.2 178.6 30.7 183.7 C 31.0 186.3 31.2 179.6 31.2 184.1 C 30.9 186.1 30.7 188.8 30.6 192.2 C 30.6 196.0 30.8 198.0 31.0 201.1 C 30.8 201.3 30.6 201.6 30.7 204.5 C 30.8 204.4 31.0 201.6 31.1 204.7 C 30.6 213.5 30.2 219.3 30.4 228.6 C 30.6 225.5 31.0 218.5 31.0 222.0 C 30.7 225.9 31.2 231.7 30.8 235.7 C 30.7 237.0 31.0 230.8 30.3 231.9 C 30.3 236.0 30.3 238.5 30.2 240.4 C 30.4 240.6 30.3 245.3 30.7 244.3 C 30.7 240.9 30.3 239.6 30.4 238.9 C 31.5 242.4 30.1 251.4 30.0 257.8 C 30.2 262.1 30.4 254.8 30.6 259.7 C 30.7 262.8 29.8 264.1 29.7 259.3 C 29.8 256.2 29.3 254.6 29.8 254.1 C 29.7 252.7 29.8 250.7 29.7 250.7 C 29.6 253.0 29.4 252.4 29.3 253.9 C 29.3 250.5 28.5 249.6 29.0 246.8 C 29.0 248.8 29.1 249.6 29.3 250.5 C 29.1 241.1 29.5 238.4 29.7 233.2 C 29.4 235.9 29.5 232.9 29.1 232.9 C 29.2 237.0 29.0 244.6 28.9 239.7 C 29.4 237.0 28.1 233.7 28.6 230.9 C 28.6 233.3 28.9 233.1 29.0 234.5 C 29.0 231.0 29.4 231.3 29.4 227.8 C 28.8 216.0 29.9 208.1 29.0 189.3 C 29.0 183.0 29.2 195.2 29.5 194.9 C 29.5 193.1 29.6 192.8 29.6 191.5 C 29.2 190.9 29.7 188.3 29.3 185.9 C 29.7 186.6 29.3 177.8 29.6 174.0 C 29.5 173.7 29.3 174.0 29.3 172.0 C 29.5 166.8 29.5 159.6 29.4 152.3 C 39.2 152.2 49.0 152.1 54.6 152.3 C 54.0 152.0 58.2 152.0 59.2 151.8 C 65.3 151.9 62.9 152.2 71.3 151.8 C 75.6 151.7 70.7 152.1 69.9 152.2 C 82.9 152.0 94.6 152.4 102.4 151.9 C 106.5 151.8 102.7 152.2 111.3 152.3 C 111.0 151.7 125.1 152.6 126.4 151.9 C 131.6 151.8 141.5 152.6 136.9 152.1 C 143.9 152.0 139.6 152.6 142.5 152.6 C 147.3 152.5 140.3 151.6 145.1 151.5 C 144.9 152.0 149.0 151.8 152.4 152.2 C 148.6 152.2 146.1 152.2 145.7 152.5 C 148.9 152.2 149.0 152.5 154.3 152.5 C 158.2 152.2 169.5 151.9 173.2 152.5 C 173.3 152.3 172.2 152.2 171.3 152.1 C 174.6 152.0 178.9 152.5 178.1 151.9 C 185.8 151.9 189.4 152.4 193.5 151.9 C 196.8 151.8 192.6 152.3 202.5 152.3 C 202.5 152.0 219.9 152.0 224.8 152.3 C 224.7 151.8 225.9 152.3 228.1 152.3 C 228.4 152.2 227.8 152.0 229.8 151.9 C 230.2 152.1 231.7 152.0 233.2 151.9 C 232.3 152.6 239.4 151.8 240.1 152.2 C 238.7 152.2 238.8 152.5 240.3 152.6 C 240.6 152.1 248.1 152.8 247.1 152.5 C 245.6 152.3 240.7 152.4 241.9 152.1 C 248.6 151.9 246.1 152.4 250.7 152.5 C 250.2 152.3 247.5 152.2 250.5 152.1 C 255.2 152.2 250.9 152.1 254.0 152.5 C 256.5 152.4 260.9 152.1 262.6 152.1 C 262.1 152.1 263.7 152.3 264.3 152.3 C 273.3 152.5 293.3 152.0 302.1 152.6 C 302.8 152.4 304.6 152.3 303.8 152.1 C 309.1 152.3 308.7 152.2 314.1 152.3 C 314.1 152.2 314.0 152.0 314.0 151.8 C 320.8 151.6 314.8 152.4 319.3 152.3 C 319.6 151.4 322.1 152.6 326.3 152.6 C 326.7 152.4 328.7 152.3 328.0 152.1 C 334.5 152.1 334.3 152.7 340.0 152.5 C 338.6 152.4 337.4 151.2 338.0 150.8 C 339.0 151.0 340.7 151.1 343.3 151.2 C 340.3 151.6 342.2 153.1 350.4 152.6 C 345.9 152.7 344.2 152.5 345.1 152.2 C 351.3 152.2 353.5 152.4 358.9 152.5 C 359.7 152.1 355.8 152.0 357.1 151.6 C 358.5 151.5 359.1 151.4 358.8 151.3 C 364.5 151.4 364.7 151.7 370.9 151.4 C 370.9 151.7 369.6 151.7 367.4 151.5 C 367.7 151.9 367.8 152.2 364.1 152.2 C 363.5 152.0 365.7 151.5 360.5 151.7 C 360.5 151.9 360.5 152.1 360.6 152.3 C 364.4 152.4 373.5 152.6 374.3 152.5 C 372.5 152.3 369.4 152.2 370.9 151.8 C 377.5 151.9 379.3 152.4 384.7 152.6 C 394.1 152.5 410.7 152.6 408.7 151.9 C 414.4 152.1 412.4 152.1 417.4 152.2 C 415.9 151.8 423.1 152.0 422.6 151.7 C 416.4 151.8 418.2 151.7 412.2 151.8 C 412.4 151.6 413.4 151.4 415.7 151.3 C 416.1 151.5 418.6 151.6 422.6 151.6 C 422.0 151.5 418.3 151.1 422.6 151.0 C 423.0 151.1 424.0 151.2 426.0 151.2 C 426.0 151.4 426.0 151.6 426.0 151.8 C 423.6 151.9 420.8 152.0 419.1 152.2 C 420.7 152.2 421.1 152.3 422.6 152.3 C 423.6 152.1 430.6 152.3 431.1 152.1 C 428.3 152.1 426.5 151.9 429.5 151.8 C 430.0 151.9 434.7 152.0 436.4 151.8 C 430.3 151.6 432.7 151.6 429.5 151.2 C 436.4 151.1 435.4 151.6 443.3 151.4 C 443.4 151.7 443.4 152.1 441.4 152.2 C 446.3 153.0 458.1 152.2 462.0 152.3 C 459.3 152.3 456.2 152.8 460.2 152.9 C 460.2 152.7 463.3 152.7 463.8 152.6 C 465.2 151.8 461.8 151.5 458.8 151.0 C 462.0 151.1 462.7 150.9 465.7 150.9 C 466.7 151.2 463.4 151.8 467.3 151.8 C 468.2 151.2 474.5 151.7 475.9 151.3 C 473.2 151.3 471.4 151.1 474.3 151.0 C 473.7 151.3 479.3 151.2 479.4 151.4 C 474.9 151.6 473.6 152.0 470.8 151.9 C 474.3 152.0 468.0 152.3 474.0 152.3 C 476.8 152.1 478.2 151.7 484.6 151.7 C 486.9 151.8 484.6 152.2 487.8 152.2 C 487.1 151.8 494.0 151.7 489.7 152.1 C 492.0 152.1 493.4 152.1 494.7 152.2 C 491.4 151.8 507.9 151.3 505.4 151.0 C 505.3 151.6 506.0 152.1 506.8 152.2 C 510.1 151.7 513.7 152.1 522.4 152.1 C 522.2 151.6 523.8 152.0 527.5 152.0 C 528.2 151.7 525.1 151.6 527.6 151.6 C 531.7 151.7 531.9 151.8 532.7 152.0 C 535.7 151.9 538.0 152.0 539.5 152.1 C 539.7 151.9 538.8 151.8 538.0 151.7 C 549.4 152.1 555.6 151.6 565.5 151.7 C 561.4 151.5 560.3 152.1 563.7 152.1 C 565.7 152.0 567.6 151.9 568.8 151.8 C 566.6 151.4 567.5 151.7 572.4 151.7 C 576.8 151.5 571.0 151.1 574.4 151.0 C 578.0 151.3 575.7 151.4 577.7 151.6 C 579.3 151.6 581.2 151.6 582.9 151.6 C 579.8 151.3 583.4 151.2 586.5 151.0 C 584.1 151.5 585.4 151.6 591.5 151.4 C 592.1 151.7 588.8 151.8 591.3 151.8 C 592.6 151.9 597.6 151.3 601.6 151.7 C 600.2 151.7 599.5 151.8 599.8 152.0 C 604.5 151.7 607.7 152.2 611.7 152.3 C 607.8 152.0 610.2 151.7 608.6 151.4 C 612.5 151.8 617.6 151.3 620.5 151.8 C 614.7 151.7 619.9 152.6 623.6 152.6 C 624.6 152.2 618.4 152.3 620.5 151.8 C 622.7 151.5 626.9 152.1 629.1 151.7 C 629.0 151.5 626.4 151.8 625.9 151.6 C 629.1 151.5 625.0 151.4 627.7 151.3 C 629.1 151.7 631.3 151.2 633.0 151.2 C 635.1 151.3 639.3 151.9 641.3 151.6 C 641.4 151.4 638.4 151.4 638.1 151.3 C 647.7 151.1 650.2 151.6 658.9 151.2 C 659.8 151.4 661.4 151.5 663.8 151.6 C 663.8 151.3 665.4 151.2 667.5 151.2 C 671.0 151.4 674.6 151.6 679.2 151.7 C 678.1 152.0 675.8 152.2 682.2 152.2 C 682.6 152.1 680.0 152.0 682.3 152.0 C 682.3 152.0 683.7 152.1 684.2 152.0 C 684.3 151.9 684.3 151.8 684.4 151.7 C 682.5 151.7 680.9 151.7 679.2 151.7 C 679.5 151.5 679.1 151.3 677.9 151.2 C 685.6 151.0 684.5 151.8 689.6 151.4 C 690.0 152.1 691.5 152.2 687.1 152.6 C 691.5 152.5 694.7 152.3 696.1 152.0 C 690.9 152.0 692.9 151.5 691.6 151.3 C 694.9 151.3 695.1 151.1 696.8 151.1 C 700.5 151.3 692.2 151.8 699.7 151.8 C 694.4 151.3 704.8 151.4 708.5 151.6 C 708.0 151.4 706.7 151.4 708.8 151.2 C 719.3 150.9 717.3 152.3 724.0 151.6 C 723.2 151.8 726.1 151.8 727.1 152.0 C 722.0 152.1 720.6 152.2 718.4 152.2 C 718.6 152.4 720.0 152.4 721.5 152.5 C 721.7 152.2 723.1 152.2 725.1 152.4 C 726.8 152.1 726.8 151.5 731.2 151.2 C 731.4 151.3 730.7 151.6 732.7 151.6 C 734.8 151.2 730.6 152.3 739.1 152.1 C 737.7 152.0 737.1 151.7 738.0 151.5 C 742.2 151.3 741.2 151.5 746.7 151.3 C 748.1 152.0 742.3 152.1 740.4 152.5 C 744.2 152.4 747.6 152.0 751.1 152.2 C 748.4 152.0 751.6 151.7 755.0 151.6 C 758.0 151.7 754.3 152.2 757.9 152.2 C 760.9 152.1 762.7 151.8 760.2 151.6 C 766.5 151.7 765.4 151.3 770.7 151.3 C 770.7 151.6 769.1 151.6 767.2 151.5 C 767.4 151.6 766.5 151.8 768.5 151.8 C 771.1 151.6 775.5 151.5 779.4 151.4 C 779.4 153.3 779.5 155.1 779.6 156.5 C 778.8 165.0 779.7 173.6 779.5 181.9 C 779.0 178.9 779.4 192.5 778.9 196.6 C 779.1 199.0 779.9 206.1 779.6 203.4 C 779.0 204.4 779.2 209.0 779.1 212.8 C 779.2 212.7 779.3 212.7 779.5 212.6 C 779.5 220.7 779.1 222.6 778.8 225.3 C 779.1 235.0 778.5 245.7 778.9 257.6 C 778.5 260.5 778.6 263.1 778.3 270.0 C 778.7 269.9 778.7 275.5 778.7 280.7 C 779.0 279.6 778.9 284.5 779.2 284.6 C 779.2 279.8 779.7 281.7 779.8 279.3 C 779.4 285.5 780.3 289.0 779.8 293.8 C 779.6 287.5 779.1 285.4 778.5 284.3 C 778.7 291.7 778.5 295.4 778.2 296.7 C 778.5 297.3 778.7 296.6 778.8 295.1 C 778.8 297.5 778.8 300.0 778.8 302.2 C 778.6 302.8 778.5 299.4 778.4 302.0 C 778.5 303.8 778.7 305.8 778.8 307.6 C 778.4 309.5 778.5 304.7 778.3 303.9 C 778.1 313.3 778.9 309.6 779.1 315.0 C 778.8 316.2 778.4 315.5 778.3 319.8 C 778.6 321.8 778.9 322.5 778.9 327.4 C 778.9 330.5 778.3 326.8 778.3 330.4 C 778.4 331.1 778.4 332.6 778.3 334.1 C 778.5 334.1 778.6 335.7 778.7 337.9 C 778.5 338.2 778.6 341.8 778.7 343.3 C 778.5 343.4 778.2 346.9 778.2 348.9 C 777.8 348.9 777.5 349.0 777.3 349.0 C 777.4 349.1 777.8 349.1 778.4 349.1 C 778.4 348.2 778.5 346.9 778.5 346.8 C 778.5 347.7 778.5 348.5 778.5 349.3 C 775.9 349.3 774.0 349.3 772.5 349.4 C 770.5 348.5 764.9 349.2 756.6 348.8 C 752.0 349.1 758.2 349.4 752.3 349.7 C 748.4 349.4 752.8 349.3 751.5 348.9 C 750.5 348.8 744.6 348.6 744.7 348.9 C 744.9 349.1 747.8 349.0 748.3 349.2 C 744.1 349.5 743.9 349.0 741.2 348.9 C 741.9 349.2 738.9 349.3 738.5 349.5 C 726.4 349.8 725.9 349.1 720.6 348.8 C 720.8 348.9 717.7 348.9 717.5 349.0 C 720.9 348.9 725.9 349.2 721.1 349.3 C 721.7 349.1 714.8 349.3 714.4 349.4 C 715.4 349.6 719.8 349.5 718.4 349.9 C 712.0 350.1 713.9 349.3 709.5 349.7 C 708.7 349.4 711.6 349.4 712.6 349.3 C 710.6 349.3 707.8 349.3 707.3 349.1 C 709.7 349.0 709.4 348.7 710.2 348.5 C 707.2 348.8 700.9 348.5 705.5 349.0 C 698.6 348.9 692.3 349.2 697.3 349.5 C 691.9 349.6 694.6 349.1 690.4 349.4 C 690.7 349.0 691.8 348.7 687.8 348.4 C 687.4 348.6 684.4 348.7 685.1 349.0 C 676.9 349.0 674.2 348.6 670.6 348.2 C 674.1 348.8 669.7 348.4 666.0 348.8 C 663.4 348.6 665.3 348.1 658.8 348.2 C 666.4 348.8 650.5 348.4 654.2 349.0 C 645.5 348.7 645.7 348.7 636.8 348.6 C 637.4 348.3 639.4 348.2 643.2 348.1 C 640.8 348.5 651.0 348.5 650.1 348.2 C 650.0 348.1 650.0 348.1 649.9 348.0 C 643.5 348.0 639.0 347.9 636.0 347.7 C 634.9 348.0 632.1 348.2 633.4 348.6 C 626.9 348.1 621.0 348.8 617.8 348.4 C 619.9 348.3 621.9 348.3 621.1 348.1 C 618.7 348.2 615.7 348.3 616.3 348.6 C 621.4 348.7 622.4 348.8 624.7 348.5 C 622.8 348.8 630.1 349.0 625.2 349.1 C 624.9 348.5 615.3 349.4 618.3 349.0 C 623.6 348.8 611.9 348.7 611.1 348.4 C 611.1 348.4 611.1 348.4 611.1 348.4 Z M 29.4 229.5 C 29.6 234.9 30.0 228.6 29.9 224.7 C 29.8 225.8 29.6 226.2 29.4 226.1 C 29.5 227.7 29.6 229.2 29.4 229.5 C 29.4 229.5 29.4 229.5 29.4 229.5 Z M 35.1 178.9 C 34.6 176.8 34.9 185.5 34.9 188.9 C 35.0 188.0 35.1 186.9 35.1 189.1 C 35.5 185.8 34.8 183.8 35.1 178.9 C 35.1 178.9 35.1 178.9 35.1 178.9 Z M 201.2 156.5 C 200.0 156.6 196.7 156.7 196.3 156.5 C 194.3 156.5 194.9 156.7 194.7 156.9 C 190.7 156.9 195.3 156.3 189.3 156.5 C 187.4 157.3 200.4 157.4 201.2 156.5 C 201.2 156.5 201.2 156.5 201.2 156.5 Z M 671.0 342.5 C 668.3 342.3 673.8 342.0 671.8 341.6 C 662.7 341.9 670.4 342.4 657.2 342.3 C 658.1 342.4 659.2 342.5 659.2 342.7 C 665.2 342.5 665.4 342.2 664.5 342.9 C 667.3 342.9 667.3 342.1 671.0 342.5 C 671.0 342.5 671.0 342.5 671.0 342.5 Z M 547.8 340.9 C 548.9 341.0 549.8 341.1 549.9 341.2 C 553.7 341.1 552.8 341.0 558.2 341.1 C 557.1 340.5 552.1 340.6 547.8 340.9 C 547.8 340.9 547.8 340.9 547.8 340.9 Z M 226.7 339.9 C 225.6 339.9 224.4 339.9 223.3 339.9 C 224.2 340.2 221.2 340.7 226.9 340.6 C 227.2 340.5 226.2 340.5 225.2 340.5 C 226.2 340.3 229.0 340.3 228.4 340.1 C 226.9 340.1 226.7 340.0 226.7 339.9 C 226.7 339.9 226.7 339.9 226.7 339.9 Z M 92.0 343.6 C 98.5 343.2 82.3 342.2 92.0 343.6 C 92.0 343.6 92.0 343.6 92.0 343.6 C 92.0 343.6 92.0 343.6 92.0 343.6 Z M 106.1 348.1 C 106.3 348.3 107.8 348.2 107.8 348.1 C 113.4 348.3 108.0 348.4 111.2 348.7 C 115.6 348.3 108.8 348.0 114.6 347.7 C 113.4 347.5 109.4 348.1 106.1 348.1 C 106.1 348.1 106.1 348.1 106.1 348.1 Z M 716.9 151.8 C 712.1 151.9 710.4 152.3 709.2 152.7 C 712.4 152.7 715.0 152.8 715.9 153.0 C 722.1 152.8 712.1 152.7 711.2 152.6 C 712.1 152.3 716.5 152.2 716.9 151.8 C 716.9 151.8 716.9 151.8 716.9 151.8 Z M 701.3 151.9 C 699.2 152.1 696.0 152.3 695.6 152.6 C 698.7 152.5 698.9 152.7 698.9 152.8 C 701.8 152.6 698.6 152.4 701.3 151.9 C 701.3 151.9 701.3 151.9 701.3 151.9 Z M 730.2 152.3 C 728.0 152.4 728.6 152.7 728.0 152.9 C 731.2 152.8 731.6 153.0 734.8 153.0 C 734.9 152.9 735.0 152.7 735.1 152.6 C 732.5 152.6 732.2 152.7 729.8 152.7 C 730.0 152.6 730.1 152.5 730.2 152.3 C 730.2 152.3 730.2 152.3 730.2 152.3 Z M 685.5 152.5 C 676.5 152.4 672.0 153.1 665.7 153.6 C 672.3 153.6 678.7 152.7 683.3 153.0 C 689.0 152.9 681.6 152.7 681.9 152.6 C 682.1 152.5 684.1 152.5 685.5 152.5 C 685.5 152.5 685.5 152.5 685.5 152.5 Z M 606.4 152.5 C 604.7 152.2 601.0 152.8 595.9 152.7 C 596.8 152.8 597.6 152.9 597.5 153.1 C 604.8 153.2 600.9 152.5 606.4 152.5 C 606.4 152.5 606.4 152.5 606.4 152.5 Z M 563.4 152.7 C 558.9 152.8 565.6 152.9 563.2 153.2 C 568.2 153.2 573.5 153.3 573.5 152.8 C 568.1 153.1 566.9 153.1 563.4 152.7 C 563.4 152.7 563.4 152.7 563.4 152.7 Z M 532.4 152.7 C 527.3 152.9 534.4 153.2 532.1 153.6 C 534.1 153.6 533.7 153.4 533.9 153.2 C 535.4 153.3 536.7 153.4 539.0 153.4 C 537.5 153.1 531.6 153.2 532.4 152.7 C 532.4 152.7 532.4 152.7 532.4 152.7 Z M 777.8 218.4 C 777.7 215.4 777.3 216.4 777.4 209.8 C 777.4 219.8 776.2 214.7 776.4 227.6 C 776.5 225.5 776.7 226.8 776.5 227.6 C 776.8 232.5 776.7 222.9 777.1 227.4 C 777.1 223.8 776.7 226.0 776.6 222.4 C 777.0 218.5 777.2 216.2 777.8 218.4 C 777.8 218.4 777.8 218.4 777.8 218.4 Z M 776.0 227.7 C 775.9 231.3 776.6 231.1 776.2 232.9 C 776.2 234.6 776.4 234.2 776.5 234.6 C 776.5 233.2 776.6 233.0 776.6 232.8 C 776.5 229.8 776.4 226.7 776.0 227.7 C 776.0 227.7 776.0 227.7 776.0 227.7 Z M 776.0 194.6 C 776.2 200.5 775.9 202.3 776.2 205.0 C 775.7 207.3 776.5 208.8 776.0 212.1 C 776.1 217.8 776.3 213.5 776.5 211.9 C 776.7 217.5 776.1 213.4 776.2 219.0 C 776.7 219.8 776.6 212.7 777.0 213.4 C 777.0 209.1 776.7 209.2 776.6 206.5 C 776.7 204.5 776.9 205.1 777.0 204.7 C 776.9 199.7 777.2 199.9 777.1 195.8 C 776.8 195.0 776.7 196.8 776.8 201.4 C 776.6 196.7 776.3 194.8 776.5 189.2 C 776.9 192.9 777.0 175.2 776.4 177.1 C 776.3 181.9 776.6 180.3 776.8 182.0 C 776.4 188.4 776.5 192.1 776.0 194.6 C 776.0 194.6 776.0 194.6 776.0 194.6 Z M 730.9 153.6 C 729.4 153.6 728.2 153.5 725.8 153.5 C 726.0 153.1 728.9 153.2 726.3 153.0 C 722.6 152.9 721.7 153.1 719.3 153.1 C 720.5 153.3 727.8 153.7 723.6 153.9 C 724.7 154.1 727.1 154.1 730.3 154.2 C 727.1 153.6 735.5 154.1 738.9 154.2 C 739.1 153.6 744.8 154.3 747.7 153.9 C 746.0 153.5 738.7 153.9 735.7 153.9 C 737.2 153.8 727.9 153.0 730.9 153.6 C 730.9 153.6 730.9 153.6 730.9 153.6 Z M 776.2 241.6 C 776.4 242.6 776.4 246.5 776.5 243.4 C 776.7 244.9 776.4 248.2 777.0 246.8 C 777.0 248.7 777.0 250.4 777.0 252.1 C 776.8 251.4 776.9 246.6 776.5 248.5 C 776.7 252.1 776.5 250.7 776.5 255.5 C 776.1 252.9 776.1 255.7 775.6 253.8 C 775.8 255.1 775.8 259.4 776.1 259.1 C 776.0 265.7 775.6 257.2 775.6 265.9 C 775.3 265.7 775.3 259.5 775.5 257.3 C 775.1 256.1 775.3 268.1 775.2 274.4 C 775.5 268.8 775.9 273.4 776.2 276.4 C 776.1 278.4 775.9 276.3 775.7 279.8 C 775.7 282.7 775.9 284.3 775.7 285.1 C 775.8 287.4 776.0 286.5 776.2 286.9 C 776.2 291.0 775.6 287.7 775.7 293.7 C 776.3 289.5 776.4 294.7 776.2 302.6 C 776.4 302.2 776.4 299.6 776.6 299.4 C 776.9 300.7 776.4 305.0 776.2 306.2 C 776.3 309.1 776.5 307.3 776.5 304.6 C 776.6 306.4 776.8 308.2 776.9 310.1 C 776.9 301.4 776.8 287.5 777.4 271.6 C 777.1 274.6 777.0 271.0 777.1 266.2 C 777.4 265.5 777.4 267.6 777.4 269.8 C 777.9 264.2 776.9 264.4 777.1 255.7 C 777.3 250.9 777.4 261.1 777.7 255.7 C 777.6 252.5 777.2 250.2 777.7 248.7 C 777.5 243.0 777.0 241.5 777.0 232.8 C 776.8 237.7 775.9 240.1 776.1 245.1 C 776.2 245.1 776.2 242.9 776.2 241.6 C 776.2 241.6 776.2 241.6 776.2 241.6 Z M 698.7 153.1 C 695.7 153.1 694.0 153.3 693.5 153.1 C 688.2 153.2 693.9 153.6 694.8 153.6 C 697.2 153.5 698.2 153.4 698.7 153.1 C 698.7 153.1 698.7 153.1 698.7 153.1 Z M 177.1 153.1 C 170.6 153.0 172.2 153.5 167.0 153.5 C 171.3 153.6 172.5 154.0 179.3 153.9 C 179.4 153.6 179.2 153.3 177.1 153.1 C 177.1 153.1 177.1 153.1 177.1 153.1 Z M 715.6 153.4 C 720.1 152.9 710.1 153.9 710.4 153.5 C 705.4 153.8 714.8 153.7 709.9 154.1 C 714.3 153.9 716.5 154.3 721.9 154.0 C 721.9 153.7 717.8 153.7 713.6 153.8 C 713.2 153.6 715.4 153.5 715.6 153.4 C 715.6 153.4 715.6 153.4 715.6 153.4 Z M 244.5 154.2 C 248.9 153.8 240.0 153.4 237.3 153.2 C 237.3 153.8 238.6 153.7 244.5 154.2 C 244.5 154.2 244.5 154.2 244.5 154.2 Z M 133.0 153.8 C 130.8 154.3 140.7 153.8 138.5 154.3 C 141.5 154.3 141.8 154.2 141.8 154.0 C 143.4 154.2 148.2 154.1 147.1 154.4 C 148.1 154.7 139.4 154.3 142.4 154.8 C 139.6 154.8 139.3 154.7 137.1 154.7 C 142.1 154.7 139.5 154.3 133.2 154.2 C 133.5 154.5 136.3 154.4 133.6 154.7 C 133.2 154.5 129.8 154.2 129.5 153.6 C 124.2 153.7 127.9 154.3 121.5 154.3 C 122.2 154.6 126.2 154.5 128.6 154.7 C 128.3 155.1 121.7 154.3 123.7 154.9 C 122.1 154.6 118.3 154.4 117.8 154.0 C 122.5 153.9 125.5 153.6 129.3 153.4 C 125.5 153.1 120.8 154.0 114.2 153.6 C 115.1 154.0 111.2 153.9 112.8 154.3 C 107.8 154.2 109.7 153.7 110.7 153.6 C 109.1 153.4 99.6 153.6 100.5 153.9 C 99.6 153.6 88.0 153.7 88.9 154.2 C 85.1 153.8 80.3 154.5 78.3 153.9 C 76.4 154.1 72.4 154.0 68.1 154.0 C 67.3 154.5 74.6 154.2 75.4 154.6 C 77.0 154.9 67.3 154.5 68.8 154.8 C 68.9 154.9 68.9 155.0 69.0 155.1 C 72.4 154.9 75.8 154.8 79.0 154.7 C 81.5 154.7 78.5 154.8 79.3 155.1 C 81.5 154.8 92.0 154.3 93.0 155.1 C 100.1 154.9 105.4 155.0 108.1 154.7 C 112.5 154.7 105.8 154.9 108.6 155.2 C 120.9 154.7 137.1 155.3 147.3 154.7 C 149.6 154.7 149.0 155.0 149.5 155.2 C 163.9 154.9 151.1 154.4 162.7 154.6 C 162.9 154.9 157.4 154.8 158.0 155.2 C 161.9 155.2 162.8 155.0 168.2 155.1 C 168.1 154.9 168.0 154.7 167.9 154.6 C 172.2 154.6 170.8 155.0 173.3 155.2 C 178.7 155.1 177.2 154.8 180.2 155.3 C 185.2 155.1 190.1 155.0 195.6 155.2 C 198.9 154.9 191.9 154.3 186.4 154.3 C 186.6 154.2 188.1 154.2 188.1 154.0 C 194.6 154.4 196.0 155.1 205.7 155.2 C 198.1 154.8 209.4 155.0 210.9 155.3 C 214.9 155.3 211.6 154.8 209.0 154.8 C 209.4 154.6 212.0 154.8 212.4 154.9 C 212.6 154.3 203.1 154.0 193.4 154.3 C 197.5 153.6 186.4 154.3 191.1 153.5 C 183.2 153.6 190.3 154.1 181.2 154.0 C 182.2 154.2 183.9 154.4 184.9 154.6 C 178.1 154.6 179.7 154.1 172.6 154.2 C 171.7 154.5 176.3 154.4 176.4 154.7 C 168.4 154.3 165.8 154.2 160.3 153.8 C 159.5 154.0 161.1 154.4 152.1 154.2 C 152.0 154.1 152.0 154.0 151.9 153.9 C 156.1 154.0 156.6 153.2 146.3 153.3 C 145.8 153.5 149.0 153.5 151.7 153.5 C 150.7 153.8 147.4 153.9 143.4 153.9 C 141.4 153.8 138.9 153.7 141.6 153.6 C 139.6 153.3 138.6 154.0 133.0 153.8 C 133.0 153.8 133.0 153.8 133.0 153.8 Z M 614.4 153.4 C 613.1 153.4 611.7 153.5 609.2 153.5 C 607.8 153.9 612.5 153.8 612.4 154.0 C 616.1 154.0 613.5 153.6 614.4 153.4 C 614.4 153.4 614.4 153.4 614.4 153.4 Z M 662.2 153.6 C 662.1 153.3 659.3 153.8 655.4 153.6 C 654.0 154.0 658.7 153.9 658.5 154.2 C 663.1 154.2 657.8 153.5 662.2 153.6 C 662.2 153.6 662.2 153.6 662.2 153.6 Z M 641.7 153.6 C 640.1 153.3 639.7 153.8 643.4 153.8 C 642.9 154.0 642.0 154.2 639.6 154.3 C 641.8 154.7 643.9 154.0 648.2 154.2 C 646.8 153.9 644.6 153.8 641.7 153.6 C 641.7 153.6 641.7 153.6 641.7 153.6 Z M 634.8 153.6 C 632.2 153.9 630.7 153.5 626.2 153.8 C 627.1 154.0 636.7 153.9 638.3 153.8 C 640.0 153.5 629.8 153.5 634.8 153.6 C 634.8 153.6 634.8 153.6 634.8 153.6 Z M 313.0 154.7 C 311.4 154.7 311.7 154.8 311.4 154.9 C 305.9 154.3 298.6 154.5 304.3 153.9 C 298.9 154.3 293.6 153.7 288.9 153.6 C 284.9 153.6 287.0 154.0 283.8 154.0 C 278.8 154.0 286.4 153.8 285.4 153.6 C 284.3 153.3 283.0 154.0 276.9 153.8 C 278.8 154.5 271.7 153.7 273.8 154.4 C 270.4 154.2 269.4 154.4 265.1 154.4 C 265.7 154.7 269.9 154.7 270.5 154.9 C 272.8 155.3 272.7 154.6 268.7 154.7 C 270.9 154.3 277.1 154.9 278.8 154.5 C 281.1 155.0 273.4 154.6 275.7 155.1 C 277.2 155.0 278.6 154.9 278.9 154.8 C 281.4 154.9 283.1 155.0 284.2 155.2 C 282.7 155.2 282.5 155.1 282.5 155.1 C 279.3 155.1 285.9 155.7 279.2 155.7 C 280.4 155.8 283.3 155.9 282.8 156.1 C 284.9 156.4 282.5 155.0 289.4 155.5 C 293.8 155.1 278.7 155.1 282.2 154.3 C 291.8 154.4 286.6 155.0 294.3 155.1 C 294.3 154.9 294.0 154.7 296.0 154.7 C 295.7 154.5 292.8 154.6 290.8 154.5 C 291.1 154.4 294.0 154.4 296.0 154.4 C 295.6 154.3 294.1 154.3 294.0 154.2 C 300.6 154.3 300.2 155.1 294.4 155.3 C 294.7 155.7 302.6 155.6 304.7 155.4 C 302.5 155.1 304.8 155.2 302.9 154.8 C 301.2 154.8 301.6 155.0 301.1 155.1 C 298.1 155.0 300.9 154.8 301.0 154.7 C 304.5 154.7 304.5 155.1 307.9 154.8 C 307.1 154.9 306.3 155.0 306.3 155.2 C 308.0 155.2 309.8 155.2 311.5 155.2 C 311.3 155.0 313.4 154.9 313.0 154.7 C 313.0 154.7 313.0 154.7 313.0 154.7 Z M 223.7 153.6 C 218.0 153.5 221.2 153.9 223.9 153.9 C 222.8 154.0 220.8 154.1 218.8 154.2 C 220.6 154.3 222.0 154.2 227.4 154.3 C 223.0 154.8 228.1 155.5 236.6 155.5 C 238.7 154.7 231.5 154.6 234.2 154.2 C 228.1 154.4 224.6 154.1 223.7 153.6 C 223.7 153.6 223.7 153.6 223.7 153.6 Z M 694.7 153.8 C 691.4 153.8 687.9 153.8 684.5 153.8 C 684.6 154.1 695.0 154.4 694.7 153.8 C 694.7 153.8 694.7 153.8 694.7 153.8 Z M 776.4 316.6 C 776.4 318.2 776.3 318.3 776.2 318.4 C 776.4 323.6 776.6 316.2 776.9 318.8 C 776.9 317.0 776.9 315.3 776.9 313.5 C 776.7 313.1 776.5 320.4 776.4 314.9 C 776.2 315.1 776.3 316.6 776.4 316.6 C 776.4 316.6 776.4 316.6 776.4 316.6 Z M 617.6 153.9 C 614.4 154.0 616.1 154.6 608.7 154.4 C 611.2 154.7 612.9 154.6 617.3 154.5 C 617.4 154.3 617.5 154.1 617.6 153.9 C 617.6 153.9 617.6 153.9 617.6 153.9 Z M 338.6 154.0 C 334.1 153.6 333.2 154.5 324.9 154.3 C 329.2 154.8 333.8 154.2 338.6 154.0 C 338.6 154.0 338.6 154.0 338.6 154.0 Z M 55.0 154.7 C 57.6 154.8 54.5 154.9 58.9 155.1 C 61.1 154.9 61.9 154.7 65.3 154.7 C 60.1 154.3 51.8 154.7 47.7 154.0 C 43.6 154.1 44.3 154.5 43.3 154.8 C 45.3 154.8 46.3 154.8 46.8 154.9 C 48.7 154.4 52.6 155.3 55.0 154.7 C 55.0 154.7 55.0 154.7 55.0 154.7 Z M 246.2 154.3 C 249.5 154.5 244.2 154.7 243.2 154.9 C 240.8 154.9 241.5 154.6 241.1 154.4 C 238.1 154.4 237.4 154.6 238.0 154.9 C 243.7 155.0 250.7 155.1 246.8 155.6 C 252.3 155.7 249.1 155.2 251.7 155.1 C 254.8 155.3 252.0 155.4 252.0 155.8 C 253.3 155.8 257.3 155.3 257.2 155.8 C 265.1 155.3 261.2 154.7 254.8 154.0 C 249.5 154.4 255.9 154.6 246.2 154.3 C 246.2 154.3 246.2 154.3 246.2 154.3 Z M 463.4 154.7 C 463.0 154.5 460.0 154.6 460.0 154.4 C 456.3 154.8 453.0 155.2 449.7 155.6 C 450.3 155.9 455.0 155.6 453.0 155.3 C 454.5 155.6 457.8 155.7 459.8 156.0 C 463.2 156.0 464.5 155.2 464.9 155.8 C 468.3 155.6 466.3 155.6 471.7 155.7 C 463.2 155.3 474.8 155.5 475.4 155.1 C 470.4 155.0 466.0 155.0 466.6 155.5 C 463.0 155.3 459.0 155.2 458.3 154.8 C 458.6 154.7 461.4 154.7 463.4 154.7 C 463.4 154.7 463.4 154.7 463.4 154.7 Z M 442.8 155.8 C 444.2 155.8 445.5 155.7 447.8 155.7 C 446.5 155.6 446.0 155.4 446.2 155.2 C 441.9 155.2 440.9 155.4 439.4 155.1 C 435.4 155.0 440.4 155.7 434.2 155.5 C 434.7 155.6 437.7 155.5 437.7 155.7 C 438.2 155.4 440.7 155.4 442.8 155.8 C 442.8 155.8 442.8 155.8 442.8 155.8 Z M 390.0 155.1 C 385.5 155.1 392.3 155.3 390.0 155.6 C 391.2 155.5 399.7 155.6 398.5 156.0 C 401.0 156.5 409.6 155.4 408.8 156.1 C 410.8 156.1 410.1 155.9 410.5 155.7 C 404.5 155.8 404.5 155.5 408.8 155.4 C 408.1 155.3 404.5 155.3 402.0 155.3 C 401.6 155.6 404.0 155.6 403.6 155.8 C 398.5 155.6 394.7 155.3 390.0 155.1 C 390.0 155.1 390.0 155.1 390.0 155.1 Z M 619.8 346.3 C 623.8 346.4 626.3 346.3 628.2 346.2 C 626.8 346.0 625.0 346.2 623.0 346.2 C 622.4 346.0 624.2 345.9 626.3 345.9 C 624.0 345.6 617.2 345.9 619.8 346.3 C 619.8 346.3 619.8 346.3 619.8 346.3 Z M 653.8 346.3 C 657.7 346.4 660.1 346.3 660.4 346.1 C 658.7 345.8 659.5 346.2 657.0 346.2 C 655.5 346.1 654.3 345.9 653.4 345.8 C 651.7 345.8 652.2 346.0 651.8 346.1 C 650.5 346.1 650.2 346.0 650.0 345.9 C 645.7 346.3 655.4 345.9 653.8 346.3 C 653.8 346.3 653.8 346.3 653.8 346.3 Z M 418.9 155.3 C 420.4 155.5 421.6 155.7 425.7 155.7 C 424.9 155.4 428.2 155.5 430.9 155.5 C 426.9 155.1 424.9 155.3 418.9 155.3 C 418.9 155.3 418.9 155.3 418.9 155.3 Z M 775.3 253.8 C 775.7 248.5 775.0 249.1 775.3 241.7 C 775.2 241.7 775.1 241.7 774.9 241.7 C 775.3 246.2 775.0 248.2 775.3 253.8 C 775.3 253.8 775.3 253.8 775.3 253.8 Z M 163.6 346.1 C 164.1 345.8 158.8 345.9 158.4 345.7 C 157.5 346.3 154.7 345.2 144.8 345.4 C 144.6 345.3 145.3 345.2 146.6 345.1 C 138.4 345.0 149.0 345.6 150.0 345.9 C 156.3 345.8 157.3 346.1 163.6 346.1 C 163.6 346.1 163.6 346.1 163.6 346.1 Z M 107.2 155.8 C 107.5 155.7 106.5 155.7 105.5 155.7 C 104.3 155.7 103.1 155.7 102.2 155.7 C 102.9 156.2 108.7 156.5 104.9 157.0 C 106.4 157.0 106.5 157.0 106.4 156.9 C 113.8 155.7 121.7 157.6 131.9 156.9 C 133.6 156.9 133.1 156.7 133.4 156.6 C 132.1 156.6 131.8 156.6 131.6 156.5 C 130.7 157.0 120.5 156.4 124.6 156.2 C 124.2 156.1 122.9 156.2 123.0 156.2 C 121.8 156.2 120.7 156.2 119.5 156.2 C 120.3 156.4 122.6 156.4 123.3 156.6 C 117.7 156.5 110.9 156.3 114.0 155.9 C 110.8 155.9 109.8 156.1 107.6 156.2 C 105.4 156.2 105.1 155.8 107.2 155.8 C 107.2 155.8 107.2 155.8 107.2 155.8 Z M 63.2 156.0 C 57.8 155.9 60.2 156.3 54.8 156.2 C 58.4 156.6 62.1 156.1 66.9 156.4 C 66.0 156.2 63.7 156.2 63.2 156.0 C 63.2 156.0 63.2 156.0 63.2 156.0 Z M 162.1 156.5 C 161.4 157.0 166.1 157.0 171.1 157.0 C 171.8 156.5 167.3 156.5 162.1 156.5 C 162.1 156.5 162.1 156.5 162.1 156.5 Z M 140.1 156.5 C 135.2 156.6 146.5 156.6 143.9 157.0 C 146.2 157.0 148.7 157.0 149.0 157.1 C 150.7 157.1 150.6 156.8 153.9 156.9 C 153.6 156.6 148.2 156.8 148.5 156.5 C 144.9 156.7 144.2 156.7 140.1 156.5 C 140.1 156.5 140.1 156.5 140.1 156.5 Z M 136.8 156.5 C 133.5 156.6 138.2 157.3 142.3 157.3 C 140.6 157.0 139.4 156.7 136.8 156.5 C 136.8 156.5 136.8 156.5 136.8 156.5 Z M 534.4 156.6 C 532.1 156.7 533.8 157.0 530.9 157.0 C 530.9 157.2 541.0 157.2 532.5 157.3 C 535.5 157.7 537.4 157.0 541.1 157.2 C 540.0 157.0 539.1 156.9 541.2 156.9 C 542.5 156.5 533.1 157.0 534.4 156.6 C 534.4 156.6 534.4 156.6 534.4 156.6 Z M 524.3 156.6 C 522.3 156.6 523.2 156.8 524.2 156.8 C 523.9 156.9 521.1 156.9 519.1 156.9 C 519.0 156.7 522.5 157.5 522.2 157.8 C 530.9 157.5 524.5 157.0 524.3 156.6 C 524.3 156.6 524.3 156.6 524.3 156.6 Z M 515.7 156.9 C 510.2 156.5 502.4 156.6 498.7 157.0 C 502.5 157.6 512.9 157.4 515.7 156.9 C 515.7 156.9 515.7 156.9 515.7 156.9 Z M 571.7 157.0 C 561.8 156.5 541.5 157.2 559.5 157.5 C 559.0 157.3 571.0 157.1 576.7 157.3 C 576.9 157.1 583.5 156.8 583.6 157.0 C 588.2 156.7 569.5 156.7 571.7 157.0 C 571.7 157.0 571.7 157.0 571.7 157.0 Z M 491.7 157.8 C 494.5 157.6 491.1 156.9 495.3 157.2 C 497.8 157.1 494.7 157.0 495.4 156.8 C 490.1 156.8 479.3 157.2 478.4 156.8 C 475.7 156.9 474.8 157.2 469.8 157.2 C 469.6 157.3 488.0 156.8 491.7 157.5 C 491.4 157.7 484.8 157.8 491.7 157.8 C 491.7 157.8 491.7 157.8 491.7 157.8 Z M 773.0 253.7 C 773.3 254.2 773.1 247.1 773.5 248.6 C 773.0 244.8 773.3 241.2 773.0 236.9 C 773.1 235.6 773.7 236.0 773.8 230.0 C 773.4 230.0 773.5 232.9 773.2 230.2 C 773.2 224.7 773.7 226.1 773.5 219.9 C 772.9 221.1 773.4 206.7 772.7 208.3 C 772.8 211.6 773.1 211.3 773.0 216.8 C 773.0 218.6 772.7 217.8 772.7 220.1 C 772.4 218.6 772.9 215.6 772.6 213.5 C 772.3 214.1 772.3 218.1 772.1 218.7 C 772.1 221.1 772.2 218.0 772.5 218.6 C 772.6 225.1 771.6 218.4 771.7 225.5 C 772.1 223.9 772.1 223.9 772.5 225.3 C 772.3 228.1 772.5 236.7 772.1 232.0 C 771.8 232.6 772.2 237.7 772.5 237.0 C 772.5 239.8 772.4 240.1 772.2 240.3 C 772.4 247.5 772.7 248.5 773.1 247.0 C 773.5 248.4 772.8 249.4 773.0 253.7 C 773.0 253.7 773.0 253.7 773.0 253.7 Z M 625.9 157.1 C 630.0 156.8 621.3 157.3 617.4 157.1 C 622.2 157.2 620.4 157.8 625.5 157.8 C 623.8 157.6 624.2 157.5 627.5 157.5 C 628.4 157.3 621.0 157.2 625.9 157.1 C 625.9 157.1 625.9 157.1 625.9 157.1 Z M 459.6 157.1 C 457.8 156.8 449.0 157.1 444.4 157.0 C 445.1 157.6 456.5 156.7 457.9 157.4 C 460.5 157.4 456.4 157.2 459.6 157.1 C 459.6 157.1 459.6 157.1 459.6 157.1 Z M 773.5 189.3 C 773.5 187.5 773.4 188.6 773.4 189.4 C 773.2 189.0 773.3 185.3 773.2 182.7 C 773.0 186.7 772.9 182.2 772.5 183.3 C 772.5 181.3 772.4 180.4 772.3 180.1 C 773.1 179.4 771.9 169.9 771.8 180.5 C 772.2 178.3 772.2 179.1 772.3 183.4 C 772.0 188.3 772.4 191.8 771.9 193.7 C 772.0 196.8 772.2 197.8 772.2 201.9 C 771.9 203.0 771.7 206.8 771.2 204.1 C 771.2 211.3 772.1 206.0 772.2 212.0 C 772.0 217.8 771.8 209.3 771.4 210.7 C 771.4 212.2 771.3 211.9 771.2 212.4 C 771.2 214.5 771.6 214.4 771.6 212.3 C 771.7 212.9 772.0 218.6 771.6 217.1 C 771.8 220.4 772.8 211.4 772.3 206.9 C 772.3 204.1 773.1 203.7 773.0 206.6 C 773.3 205.4 772.5 200.3 773.2 201.3 C 773.2 199.0 773.2 196.9 773.2 194.6 C 773.1 195.0 773.1 196.3 773.0 196.4 C 773.0 194.3 773.0 192.0 773.0 189.7 C 773.2 191.5 773.3 191.4 773.5 189.3 C 773.5 189.3 773.5 189.3 773.5 189.3 Z M 481.7 157.3 C 477.4 157.3 476.4 157.5 473.1 157.5 C 474.3 157.8 483.6 157.7 481.7 157.3 C 481.7 157.3 481.7 157.3 481.7 157.3 Z M 771.8 282.0 C 772.0 281.6 771.9 278.7 772.1 278.7 C 772.2 284.0 772.4 278.2 773.1 282.5 C 772.8 275.6 771.9 273.1 771.6 282.0 C 771.6 288.4 771.8 275.4 771.8 282.0 C 771.8 282.0 771.8 282.0 771.8 282.0 Z M 772.1 262.0 C 771.9 257.9 771.7 268.1 771.6 270.3 C 771.4 270.3 771.3 270.3 771.2 270.2 C 771.8 276.0 772.0 268.4 772.7 273.8 C 772.9 267.3 773.1 264.5 772.9 258.8 C 772.7 259.1 772.8 260.4 772.9 260.4 C 772.8 264.7 772.3 261.7 772.5 257.1 C 772.3 258.4 772.3 262.5 772.2 265.4 C 772.3 264.6 772.4 263.6 772.6 263.8 C 772.7 267.4 772.3 266.1 772.3 268.7 C 772.2 268.6 771.8 262.1 772.1 262.0 C 772.1 262.0 772.1 262.0 772.1 262.0 Z M 520.9 343.5 C 524.3 343.4 516.8 342.9 516.8 342.3 C 513.1 342.2 512.4 342.4 510.1 342.4 C 511.4 342.7 515.4 342.7 517.2 342.9 C 516.9 343.4 511.9 342.8 510.6 343.2 C 508.8 343.8 519.1 343.0 520.9 343.5 C 520.9 343.5 520.9 343.5 520.9 343.5 Z M 725.3 157.9 C 723.5 157.9 724.4 158.1 725.2 158.1 C 724.7 158.2 721.8 158.2 721.9 158.1 C 719.2 158.1 723.2 158.3 720.0 158.3 C 719.1 158.6 724.8 158.3 725.1 158.2 C 728.9 158.2 725.5 158.7 726.3 158.8 C 729.6 158.8 728.8 158.5 733.3 158.6 C 730.7 158.3 728.4 158.1 725.3 157.9 C 725.3 157.9 725.3 157.9 725.3 157.9 Z M 772.6 293.9 C 772.8 294.7 772.0 289.7 772.3 285.5 C 772.3 279.6 771.9 288.9 771.9 283.7 C 771.9 288.1 772.2 293.6 772.2 300.4 C 772.5 302.2 772.3 291.0 772.5 297.3 C 772.6 297.0 772.5 295.5 772.5 295.5 C 772.4 294.2 772.5 294.0 772.6 293.9 C 772.6 293.9 772.6 293.9 772.6 293.9 Z M 771.7 286.9 C 771.5 287.1 771.6 288.6 771.7 288.6 C 771.7 290.7 771.3 290.6 771.3 288.5 C 770.8 291.0 771.7 291.2 771.4 296.8 C 771.8 294.5 772.0 293.5 771.7 298.5 C 772.1 302.9 771.9 288.9 771.7 286.9 C 771.7 286.9 771.7 286.9 771.7 286.9 Z M 574.9 343.2 C 574.3 343.0 570.7 343.1 568.0 343.1 C 571.1 342.7 584.9 342.9 586.8 343.2 C 588.2 343.1 589.6 343.0 590.2 343.2 C 590.0 343.1 593.6 342.9 591.6 342.8 C 591.8 342.7 594.8 342.7 594.7 342.5 C 599.9 342.6 593.4 342.8 595.1 343.1 C 600.9 342.7 599.8 343.0 607.0 343.1 C 605.5 342.7 597.7 342.8 598.0 342.3 C 592.7 342.7 586.4 342.4 582.6 342.0 C 588.3 342.6 568.7 342.9 559.4 342.8 C 559.6 342.5 556.3 342.6 552.4 342.4 C 549.4 342.0 550.9 342.9 555.8 342.7 C 555.9 343.0 548.8 342.7 545.9 342.8 C 549.5 343.0 547.6 343.2 549.5 343.3 C 556.1 343.3 550.1 343.2 551.1 342.9 C 552.7 342.9 554.4 342.9 556.2 342.9 C 547.7 343.6 569.1 343.0 561.2 343.1 C 568.1 343.0 568.6 343.4 574.9 343.2 C 574.9 343.2 574.9 343.2 574.9 343.2 Z M 734.3 343.3 C 735.4 343.3 740.6 343.0 741.1 343.3 C 747.7 343.0 741.3 342.7 749.0 342.7 C 748.4 342.5 745.5 342.6 745.3 342.4 C 742.5 342.5 739.6 342.7 740.8 343.1 C 737.3 343.0 736.4 343.2 734.2 343.2 C 734.8 343.0 736.1 342.9 739.0 342.9 C 739.2 342.6 737.8 342.4 733.4 342.4 C 731.8 342.8 733.4 343.1 734.3 343.3 C 734.3 343.3 734.3 343.3 734.3 343.3 Z M 750.8 342.8 C 751.7 342.9 752.8 343.0 752.8 343.2 C 755.7 343.6 753.3 342.7 755.8 342.7 C 757.8 342.7 757.3 342.9 757.8 343.1 C 760.7 343.0 763.0 342.9 764.6 343.1 C 769.0 342.9 759.0 342.7 757.3 342.5 C 754.0 342.5 755.5 342.9 750.8 342.8 C 750.8 342.8 750.8 342.8 750.8 342.8 Z M 772.5 313.9 C 772.8 313.4 772.3 311.2 772.3 309.0 C 772.0 310.4 772.2 315.4 771.7 311.8 C 771.6 316.6 771.6 316.9 771.7 321.8 C 771.3 324.6 772.0 322.3 771.8 316.9 C 772.0 317.7 772.0 320.0 772.2 320.4 C 771.4 323.1 772.7 332.6 772.1 327.0 C 772.2 325.6 772.3 324.8 772.5 324.1 C 772.1 322.7 772.3 311.4 772.5 313.9 C 772.5 313.9 772.5 313.9 772.5 313.9 Z M 760.2 158.7 C 766.5 158.6 767.0 158.6 772.1 158.7 C 772.1 159.2 772.1 159.7 772.1 160.3 C 771.9 160.6 771.8 160.2 771.8 159.0 C 771.7 160.6 771.7 162.6 771.8 165.5 C 772.0 165.2 771.9 163.8 771.8 163.8 C 772.1 158.2 772.1 162.7 772.5 163.2 C 772.5 161.4 772.6 159.8 772.5 158.2 C 768.1 158.3 764.2 158.6 762.4 158.2 C 759.8 158.3 762.7 158.4 760.2 158.7 C 760.2 158.7 760.2 158.7 760.2 158.7 Z M 169.8 342.8 C 168.9 342.9 166.1 342.9 166.6 343.2 C 169.1 343.1 170.9 343.0 173.3 342.9 C 168.5 342.8 169.1 342.3 163.0 342.3 C 165.0 342.5 164.6 342.9 169.8 342.8 C 169.8 342.8 169.8 342.8 169.8 342.8 Z M 772.3 330.7 C 772.2 330.7 772.0 330.7 771.9 328.7 C 771.6 327.8 771.8 333.3 771.6 333.2 C 771.6 335.0 771.8 334.6 771.8 336.8 C 772.0 336.2 771.9 331.8 772.3 333.9 C 772.4 335.4 772.3 335.5 772.2 335.6 C 772.4 339.2 772.5 334.0 772.3 330.7 C 772.3 330.7 772.3 330.7 772.3 330.7 Z M 503.8 343.1 C 506.0 343.0 503.6 342.8 501.8 342.8 C 506.5 342.4 498.4 342.2 497.8 341.8 C 500.2 342.1 506.8 341.9 508.0 342.0 C 510.0 341.9 507.4 341.6 512.8 341.5 C 511.9 341.2 506.2 341.5 507.9 341.8 C 506.1 341.3 500.7 341.9 500.9 341.4 C 493.2 341.3 491.6 341.6 491.2 342.0 C 498.5 341.8 495.2 342.5 501.5 342.4 C 501.6 342.5 499.6 342.5 498.3 342.5 C 499.0 342.8 501.8 342.9 503.8 343.1 C 503.8 343.1 503.8 343.1 503.8 343.1 Z M 679.9 343.1 C 683.6 343.1 683.2 342.7 682.7 342.4 C 681.4 342.5 679.1 342.6 676.1 342.5 C 676.9 342.8 681.5 342.7 679.9 343.1 C 679.9 343.1 679.9 343.1 679.9 343.1 Z M 530.5 342.5 C 530.9 342.7 532.2 342.6 532.1 342.5 C 536.4 342.5 537.6 342.7 539.2 342.9 C 541.5 342.9 540.4 342.6 540.5 342.4 C 536.7 342.7 537.2 342.2 532.0 342.3 C 532.4 342.4 531.8 342.5 530.5 342.5 C 530.5 342.5 530.5 342.5 530.5 342.5 Z M 644.1 342.8 C 646.1 342.8 645.0 342.7 644.0 342.7 C 646.0 342.2 653.2 342.6 655.7 342.4 C 655.7 342.1 647.2 342.2 657.0 342.0 C 654.9 341.7 646.2 342.0 641.7 341.9 C 642.4 341.5 648.5 341.6 647.8 341.1 C 642.8 341.4 637.2 341.6 636.8 342.2 C 644.4 342.2 642.1 342.5 644.1 342.8 C 644.1 342.8 644.1 342.8 644.1 342.8 Z M 635.5 342.5 C 636.3 342.7 637.6 342.5 640.4 342.5 C 635.9 342.1 633.6 342.3 624.9 342.2 C 625.0 342.2 625.1 342.3 625.1 342.4 C 623.5 342.4 621.7 342.4 620.0 342.4 C 627.8 342.9 629.4 342.5 637.0 342.4 C 637.4 342.5 636.5 342.5 635.5 342.5 C 635.5 342.5 635.5 342.5 635.5 342.5 Z M 771.8 253.7 C 771.6 255.9 771.4 257.8 771.3 261.9 C 771.7 261.6 771.9 259.2 771.8 253.7 C 771.8 253.7 771.8 253.7 771.8 253.7 Z M 523.6 342.3 C 519.1 342.5 528.0 342.3 524.9 341.9 C 521.2 341.7 517.2 341.6 516.1 341.2 C 509.7 341.8 524.0 341.8 523.6 342.3 C 523.6 342.3 523.6 342.3 523.6 342.3 Z M 553.3 341.4 C 555.3 341.4 555.7 342.0 553.5 341.6 C 548.7 341.6 557.8 342.0 550.3 341.9 C 553.6 342.1 560.8 342.3 564.0 342.0 C 563.6 341.7 557.2 341.8 556.8 341.5 C 556.4 341.4 557.4 341.4 558.4 341.4 C 557.6 341.2 556.3 341.4 553.3 341.4 C 553.3 341.4 553.3 341.4 553.3 341.4 Z M 579.1 342.0 C 576.2 341.8 572.7 341.6 567.0 341.6 C 571.0 341.9 573.4 342.3 579.1 342.0 C 579.1 342.0 579.1 342.0 579.1 342.0 Z M 259.3 341.5 C 263.4 341.5 259.6 341.1 259.1 341.0 C 255.0 340.9 255.4 341.2 250.6 341.1 C 252.2 341.6 256.5 341.1 259.3 341.5 C 259.3 341.5 259.3 341.5 259.3 341.5 Z M 244.0 341.2 C 243.5 341.0 237.6 341.1 237.2 340.9 C 233.9 341.6 228.3 340.4 228.6 341.0 C 227.3 340.9 226.0 340.8 223.5 340.9 C 228.5 341.5 238.9 341.3 244.0 341.2 C 244.0 341.2 244.0 341.2 244.0 341.2 Z M 607.4 341.2 C 611.9 341.3 605.6 340.6 610.3 340.7 C 610.5 340.5 601.5 340.5 606.7 340.3 C 599.6 340.1 607.8 341.1 607.4 341.2 C 607.4 341.2 607.4 341.2 607.4 341.2 Z M 689.8 340.9 C 689.7 341.1 695.8 340.9 698.3 341.0 C 698.2 340.9 696.2 340.9 694.9 340.9 C 695.4 340.7 696.2 340.6 697.9 340.6 C 696.4 340.3 692.2 340.8 689.8 340.9 C 689.8 340.9 689.8 340.9 689.8 340.9 Z M 604.0 348.0 C 600.9 347.6 597.0 347.3 595.4 347.9 C 592.2 347.5 597.1 347.4 593.3 347.2 C 588.6 347.4 590.6 347.0 583.0 347.2 C 584.1 346.7 578.5 346.8 577.3 346.4 C 580.4 346.4 584.7 346.8 585.9 346.4 C 583.2 346.5 584.5 346.1 585.8 346.3 C 591.1 346.6 579.9 346.8 586.4 347.1 C 587.8 346.6 597.6 347.5 603.6 347.5 C 601.5 347.8 608.5 348.0 604.0 348.0 C 604.0 348.0 604.0 348.0 604.0 348.0 Z M 572.9 347.2 C 568.7 347.2 566.0 346.4 567.1 346.4 C 567.3 346.6 571.9 346.6 572.3 346.4 C 571.1 346.4 570.1 346.4 570.4 346.3 C 578.0 346.4 575.6 346.7 577.6 347.0 C 573.6 347.1 572.3 346.9 570.9 347.1 C 571.9 347.1 572.9 347.1 572.9 347.2 C 572.9 347.2 572.9 347.2 572.9 347.2 Z M 478.5 340.7 C 479.5 341.0 480.3 340.7 481.9 340.6 C 482.6 341.2 490.7 340.4 492.0 340.7 C 490.2 340.9 485.8 340.9 483.9 341.1 C 486.2 341.2 486.8 341.3 489.0 341.1 C 488.7 341.5 483.8 341.5 482.6 341.8 C 482.0 341.5 479.9 341.8 479.1 341.6 C 485.6 341.4 474.8 340.7 478.5 340.7 C 478.5 340.7 478.5 340.7 478.5 340.7 Z M 645.7 340.7 C 646.0 340.3 638.0 339.4 644.2 338.9 C 645.9 339.2 647.1 339.6 647.0 340.1 C 650.9 339.8 653.0 340.2 655.1 339.8 C 663.9 341.0 649.1 339.7 645.7 340.7 C 645.7 340.7 645.7 340.7 645.7 340.7 Z M 672.5 340.3 C 671.4 340.7 675.1 340.7 674.7 341.0 C 671.2 340.7 661.0 341.1 664.4 340.9 C 667.8 340.7 667.4 340.3 672.5 340.3 C 672.5 340.3 672.5 340.3 672.5 340.3 Z M 359.5 157.7 C 364.9 157.4 367.8 158.1 364.7 158.3 C 366.0 157.9 357.8 158.1 359.5 157.7 C 359.5 157.7 359.5 157.7 359.5 157.7 Z M 558.7 151.4 C 553.8 151.2 550.8 151.4 550.3 151.0 C 555.2 150.9 554.6 151.2 558.8 151.2 C 559.2 151.0 561.8 150.8 562.3 151.0 C 559.9 151.1 560.3 151.3 558.7 151.4 C 558.7 151.4 558.7 151.4 558.7 151.4 Z M 778.8 343.4 C 779.0 343.1 779.1 341.0 779.4 342.2 C 779.3 344.7 779.3 347.4 779.4 350.1 C 776.7 350.2 774.1 350.3 771.9 350.5 C 771.8 350.3 771.6 350.1 771.4 350.0 C 775.0 350.0 777.4 350.0 779.2 349.9 C 779.1 347.3 779.0 345.5 778.8 343.4 C 778.8 343.4 778.8 343.4 778.8 343.4 Z M 779.6 333.3 C 779.4 332.2 779.0 334.8 779.0 331.0 C 779.3 331.4 779.7 324.9 779.8 328.1 C 779.5 328.9 779.5 330.7 779.6 333.3 C 779.6 333.3 779.6 333.3 779.6 333.3 Z M 507.1 348.3 C 502.9 348.3 509.1 348.6 509.1 348.8 C 506.0 348.7 501.9 348.7 500.4 348.5 C 503.4 348.6 505.2 347.9 507.1 348.3 C 507.1 348.3 507.1 348.3 507.1 348.3 Z M 569.5 347.4 C 578.2 347.3 574.9 348.0 583.7 348.1 C 580.4 348.4 572.5 348.3 570.4 348.7 C 570.5 348.4 568.4 348.4 568.4 348.1 C 571.5 348.1 572.1 348.3 575.3 348.3 C 573.8 347.9 573.9 348.0 574.8 347.6 C 572.5 347.6 571.0 347.7 569.7 347.7 C 570.2 347.5 567.0 347.4 569.5 347.4 C 569.5 347.4 569.5 347.4 569.5 347.4 Z M 508.1 347.2 C 504.6 347.3 501.3 346.8 504.3 346.8 C 505.0 347.1 507.1 346.8 507.9 347.0 C 503.0 347.1 512.0 347.2 509.9 347.5 C 506.9 347.5 506.0 347.6 506.8 347.9 C 504.8 347.9 501.8 347.9 501.6 347.7 C 502.9 347.7 504.9 347.7 504.8 347.6 C 503.8 347.6 502.8 347.6 503.1 347.5 C 506.1 347.5 507.3 347.4 508.1 347.2 C 508.1 347.2 508.1 347.2 508.1 347.2 Z M 531.8 347.2 C 527.1 347.2 526.4 346.8 524.6 346.6 C 531.0 346.7 532.3 347.2 537.1 347.5 C 531.9 347.4 527.1 347.9 525.3 347.6 C 527.5 347.5 531.7 347.5 531.8 347.2 C 531.8 347.2 531.8 347.2 531.8 347.2 Z M 32.3 272.3 C 32.5 268.4 32.7 265.2 32.9 260.8 C 32.5 259.1 31.7 267.1 32.0 263.7 C 31.9 259.0 32.5 262.4 32.5 258.7 C 32.0 262.2 32.0 242.2 32.5 241.7 C 32.5 244.7 32.6 245.8 32.9 245.3 C 32.9 253.2 33.2 256.6 33.3 262.6 C 32.8 266.7 32.7 279.3 33.2 286.3 C 32.4 290.6 33.3 299.0 32.6 305.0 C 32.9 306.8 33.1 300.0 33.2 305.2 C 32.7 308.4 32.6 305.7 32.4 310.2 C 32.6 310.5 32.9 309.6 32.9 311.9 C 32.6 311.6 32.6 314.4 32.5 315.4 C 32.6 306.0 32.0 315.8 31.9 308.4 C 32.1 305.4 32.5 311.7 32.5 303.4 C 32.4 300.3 32.3 297.4 31.9 298.0 C 31.9 295.7 31.8 294.3 31.7 292.8 C 32.2 296.1 31.6 281.0 32.1 287.9 C 32.1 288.4 32.1 293.1 32.3 296.4 C 32.7 293.5 32.4 289.8 32.3 284.4 C 32.6 282.3 32.7 285.5 32.8 282.9 C 32.5 278.6 32.2 284.2 32.0 281.0 C 32.0 282.3 32.0 284.3 31.9 284.3 C 32.3 277.2 31.8 274.2 31.9 270.5 C 32.1 273.1 32.2 266.5 32.3 272.3 C 32.3 272.3 32.3 272.3 32.3 272.3 Z M 32.8 334.3 C 32.8 335.9 32.8 337.6 32.8 339.4 C 32.4 339.8 32.3 333.1 32.0 337.6 C 32.1 330.0 32.5 337.9 32.8 334.3 C 32.8 334.3 32.8 334.3 32.8 334.3 Z M 34.2 300.4 C 34.6 298.0 33.7 299.1 33.7 296.8 C 33.8 301.0 33.9 304.8 33.4 305.2 C 33.6 300.4 33.6 298.3 33.4 293.2 C 34.0 298.2 33.9 288.1 34.3 286.7 C 34.4 290.5 34.6 293.6 34.6 298.7 C 34.4 297.8 34.3 305.2 34.2 300.4 C 34.2 300.4 34.2 300.4 34.2 300.4 Z M 34.7 314.1 C 34.5 315.0 34.7 322.5 34.2 320.8 C 34.3 316.3 34.2 314.6 33.8 315.6 C 33.8 312.3 34.0 311.8 33.9 308.8 C 34.4 307.1 34.4 312.4 34.6 314.0 C 34.6 313.1 34.7 312.1 34.7 314.1 C 34.7 314.1 34.7 314.1 34.7 314.1 Z M 130.7 341.5 C 132.2 342.0 125.3 341.7 124.0 341.6 C 126.0 342.0 125.0 342.1 120.7 342.3 C 122.3 341.7 116.1 341.9 112.2 341.4 C 111.3 341.8 116.2 341.9 110.5 342.0 C 106.0 341.9 102.1 342.1 95.3 342.2 C 93.8 341.7 96.7 341.7 98.5 341.5 C 93.9 341.6 95.2 341.2 91.8 341.2 C 92.4 341.5 89.7 341.6 88.5 341.4 C 94.4 341.2 80.5 340.9 86.8 340.7 C 87.1 340.9 88.6 340.8 90.1 340.7 C 88.5 341.3 96.7 341.1 98.5 341.4 C 101.8 340.5 110.5 340.8 120.6 341.1 C 121.3 341.3 118.2 341.4 120.6 341.5 C 120.9 341.3 124.2 341.4 125.7 341.2 C 125.6 341.5 126.9 341.6 129.1 341.6 C 129.2 341.6 129.4 341.5 130.7 341.5 C 130.7 341.5 130.7 341.5 130.7 341.5 Z M 197.9 159.4 C 197.9 160.0 208.6 159.7 211.4 159.5 C 211.3 160.2 192.2 160.0 197.9 159.4 C 197.9 159.4 197.9 159.4 197.9 159.4 Z M 132.5 159.9 C 135.3 159.9 133.0 159.5 135.5 159.5 C 135.9 159.9 141.8 159.1 142.2 159.5 C 139.4 159.9 137.4 159.8 132.5 159.9 C 132.5 159.9 132.5 159.9 132.5 159.9 Z M 71.6 159.7 C 76.4 159.7 68.8 159.5 69.6 159.4 C 73.9 159.4 78.3 159.4 78.3 159.7 C 74.4 159.6 72.4 160.1 71.6 159.7 C 71.6 159.7 71.6 159.7 71.6 159.7 Z M 163.0 160.3 C 167.1 160.4 160.8 160.9 159.9 160.7 C 164.3 160.5 156.7 160.3 153.0 160.4 C 152.9 159.9 154.6 160.0 152.5 159.6 C 158.3 159.4 153.8 160.1 157.9 160.0 C 160.5 159.7 157.6 159.8 157.5 159.5 C 159.1 159.5 160.8 159.5 162.4 159.5 C 162.6 159.7 162.7 159.9 162.9 160.1 C 160.9 160.2 158.9 160.2 159.8 160.4 C 161.4 160.4 161.7 160.3 163.0 160.3 C 163.0 160.3 163.0 160.3 163.0 160.3 Z M 42.8 340.7 C 40.2 340.8 42.5 340.9 44.5 341.0 C 45.0 340.8 46.6 340.1 49.6 340.5 C 43.0 340.8 51.6 341.0 47.9 341.2 C 46.4 340.9 42.5 341.3 39.4 341.2 C 38.0 340.9 41.3 340.4 42.8 340.7 C 42.8 340.7 42.8 340.7 42.8 340.7 Z M 54.7 341.0 C 54.4 340.9 53.2 340.8 51.2 340.9 C 53.4 340.5 50.4 340.5 53.0 340.3 C 52.7 340.5 61.6 340.6 56.3 340.7 C 51.7 340.5 57.6 341.0 59.8 341.0 C 57.5 341.0 53.4 341.4 52.9 341.1 C 54.0 341.1 55.0 341.1 54.7 341.0 C 54.7 341.0 54.7 341.0 54.7 341.0 Z M 164.3 340.5 C 164.9 340.2 162.0 340.2 160.9 340.1 C 169.5 340.1 176.9 340.1 181.2 340.2 C 177.3 340.2 177.3 340.5 179.7 340.7 C 175.4 340.6 174.4 340.8 172.9 340.6 C 176.4 340.3 169.6 340.5 164.3 340.5 C 164.3 340.5 164.3 340.5 164.3 340.5 Z M 164.3 340.5 " fill="#FF456F"></path><text xml:space="preserve" font-family="ProximaNova-Semibold,Proxima Nova" font-weight="bold" font-size="40.0" fill="#FEFFFF" transform="matrix(1.00, 0.00, -0.00, -1.00, 155.3, 65.5)">C</text><text xml:space="preserve" font-family="ProximaNova-Semibold,Proxima Nova" font-weight="bold" font-size="40.0" fill="#FEFFFF" transform="matrix(1.00, 0.00, -0.00, -1.00, 182.6, 65.5)">K</text><text xml:space="preserve" font-family="ProximaNova-Semibold,Proxima Nova" font-weight="bold" font-size="40.0" fill="#FEFFFF" transform="matrix(1.00, 0.00, -0.00, -1.00, 207.4, 65.5)">E</text><text xml:space="preserve" font-family="ProximaNova-Semibold,Proxima Nova" font-weight="bold" font-size="40.0" fill="#FEFFFF" transform="matrix(1.00, 0.00, -0.00, -1.00, 230.5, 65.5)">d</text><text xml:space="preserve" font-family="ProximaNova-Semibold,Proxima Nova" font-weight="bold" font-size="40.0" fill="#FEFFFF" transform="matrix(1.00, 0.00, -0.00, -1.00, 253.7, 65.5)">i</text><text xml:space="preserve" font-family="ProximaNova-Semibold,Proxima Nova" font-weight="bold" font-size="40.0" fill="#FEFFFF" transform="matrix(1.00, 0.00, -0.00, -1.00, 263.4, 65.5)">t</text><text xml:space="preserve" font-family="ProximaNova-Semibold,Proxima Nova" font-weight="bold" font-size="40.0" fill="#FEFFFF" transform="matrix(1.00, 0.00, -0.00, -1.00, 276.1, 65.5)">o</text><text xml:space="preserve" font-family="ProximaNova-Semibold,Proxima Nova" font-weight="bold" font-size="40.0" fill="#FEFFFF" transform="matrix(1.00, 0.00, -0.00, -1.00, 299.1, 65.5)">r</text><text xml:space="preserve" font-family="ProximaNova-Semibold,Proxima Nova" font-weight="bold" font-size="40.0" fill="#FEFFFF" transform="matrix(1.00, 0.00, -0.00, -1.00, 313.0, 65.5)"> </text><text xml:space="preserve" font-family="ProximaNova-Semibold,Proxima Nova" font-weight="bold" font-size="40.0" fill="#FEFFFF" transform="matrix(1.00, 0.00, -0.00, -1.00, 323.3, 65.5)">B</text><text xml:space="preserve" font-family="ProximaNova-Semibold,Proxima Nova" font-weight="bold" font-size="40.0" fill="#FEFFFF" transform="matrix(1.00, 0.00, -0.00, -1.00, 349.2, 65.5)">u</text><text xml:space="preserve" font-family="ProximaNova-Semibold,Proxima Nova" font-weight="bold" font-size="40.0" fill="#FEFFFF" transform="matrix(1.00, 0.00, -0.00, -1.00, 371.9, 65.5)">t</text><text xml:space="preserve" font-family="ProximaNova-Semibold,Proxima Nova" font-weight="bold" font-size="40.0" fill="#FEFFFF" transform="matrix(1.00, 0.00, -0.00, -1.00, 384.7, 65.5)">t</text><text xml:space="preserve" font-family="ProximaNova-Semibold,Proxima Nova" font-weight="bold" font-size="40.0" fill="#FEFFFF" transform="matrix(1.00, 0.00, -0.00, -1.00, 397.4, 65.5)">o</text><text xml:space="preserve" font-family="ProximaNova-Semibold,Proxima Nova" font-weight="bold" font-size="40.0" fill="#FEFFFF" transform="matrix(1.00, 0.00, -0.00, -1.00, 420.4, 65.5)">n</text><text xml:space="preserve" font-family="ProximaNova-Semibold,Proxima Nova" font-weight="bold" font-size="40.0" fill="#FEFFFF" transform="matrix(1.00, 0.00, -0.00, -1.00, 443.1, 65.5)">s</text><image xlink:href="../../E767DA47-4E97-4627-A4CF-2DF10980D7A3/assets/19C506EAEC58B65770CA774EEC7EB06D.png" width="200.00" height="200.00" transform="matrix(0.65, 0.00, -0.00, -0.65, 19.0, 146.2)"></image></g></svg>