<?xml version="1.0" encoding="UTF-8" standalone="no"?><svg xmlns="http://www.w3.org/2000/svg" xmlns:xlink="http://www.w3.org/1999/xlink" clip-rule="evenodd" stroke-miterlimit="10" viewBox="0 0 1024 768"><desc>SVG generated by Keynote</desc><defs></defs><g transform="matrix(1.00, 0.00, -0.00, -1.00, 0.0, 768.0)"><path d="M 0.0 768.0 L 1024.0 768.0 L 1024.0 0.0 L 0.0 0.0 Z M 0.0 768.0 " fill="#000000"></path><g opacity="0.35"><g><clipPath id="clip0x600001ebaee0"><path d="M 0.0 0.0 L 1024.0 0.0 L 1024.0 768.0 L 0.0 768.0 Z M 0.0 0.0 "></path></clipPath><g clip-path="url(#clip0x600001ebaee0)"><image xlink:href="933BBC1F382BD3C023CA03D0B905E47F.jpeg" width="1024.00" height="728.00" transform="matrix(1.14, 0.00, -0.00, -1.14, -1.0, 768.9)"></image></g></g></g><text xml:space="preserve" font-family="ProximaNova-Semibold,Proxima Nova" font-weight="bold" font-size="40.0" fill="#FEFFFF" transform="matrix(1.00, 0.00, -0.00, -1.00, 31.1, 695.4)">P</text><text xml:space="preserve" font-family="ProximaNova-Semibold,Proxima Nova" font-weight="bold" font-size="40.0" fill="#FEFFFF" transform="matrix(1.00, 0.00, -0.00, -1.00, 55.5, 695.4)">S</text><text xml:space="preserve" font-family="ProximaNova-Semibold,Proxima Nova" font-weight="bold" font-size="40.0" fill="#FEFFFF" transform="matrix(1.00, 0.00, -0.00, -1.00, 79.2, 695.4)">R</text><text xml:space="preserve" font-family="ProximaNova-Semibold,Proxima Nova" font-weight="bold" font-size="40.0" fill="#FEFFFF" transform="matrix(1.00, 0.00, -0.00, -1.00, 104.4, 695.4)">-</text><text xml:space="preserve" font-family="ProximaNova-Semibold,Proxima Nova" font-weight="bold" font-size="40.0" fill="#FEFFFF" transform="matrix(1.00, 0.00, -0.00, -1.00, 116.4, 695.4)">0</text><text xml:space="preserve" font-family="ProximaNova-Semibold,Proxima Nova" font-weight="bold" font-size="40.0" fill="#FEFFFF" transform="matrix(1.00, 0.00, -0.00, -1.00, 141.1, 695.4)">:</text><text xml:space="preserve" font-family="ProximaNova-Semibold,Proxima Nova" font-weight="bold" font-size="40.0" fill="#FEFFFF" transform="matrix(1.00, 0.00, -0.00, -1.00, 150.6, 695.4)"> </text><text xml:space="preserve" font-family="ProximaNova-Regular,Proxima Nova" font-size="40.0" fill="#FEFFFF" transform="matrix(1.00, 0.00, -0.00, -1.00, 160.9, 695.4)">A</text><text xml:space="preserve" font-family="ProximaNova-Regular,Proxima Nova" font-size="40.0" fill="#FEFFFF" transform="matrix(1.00, 0.00, -0.00, -1.00, 186.7, 695.4)">u</text><text xml:space="preserve" font-family="ProximaNova-Regular,Proxima Nova" font-size="40.0" fill="#FEFFFF" transform="matrix(1.00, 0.00, -0.00, -1.00, 208.8, 695.4)">t</text><text xml:space="preserve" font-family="ProximaNova-Regular,Proxima Nova" font-size="40.0" fill="#FEFFFF" transform="matrix(1.00, 0.00, -0.00, -1.00, 220.5, 695.4)">o</text><text xml:space="preserve" font-family="ProximaNova-Regular,Proxima Nova" font-size="40.0" fill="#FEFFFF" transform="matrix(1.00, 0.00, -0.00, -1.00, 243.4, 695.4)">l</text><text xml:space="preserve" font-family="ProximaNova-Regular,Proxima Nova" font-size="40.0" fill="#FEFFFF" transform="matrix(1.00, 0.00, -0.00, -1.00, 252.4, 695.4)">o</text><text xml:space="preserve" font-family="ProximaNova-Regular,Proxima Nova" font-size="40.0" fill="#FEFFFF" transform="matrix(1.00, 0.00, -0.00, -1.00, 275.3, 695.4)">a</text><text xml:space="preserve" font-family="ProximaNova-Regular,Proxima Nova" font-size="40.0" fill="#FEFFFF" transform="matrix(1.00, 0.00, -0.00, -1.00, 296.4, 695.4)">d</text><text xml:space="preserve" font-family="ProximaNova-Regular,Proxima Nova" font-size="40.0" fill="#FEFFFF" transform="matrix(1.00, 0.00, -0.00, -1.00, 319.4, 695.4)">i</text><text xml:space="preserve" font-family="ProximaNova-Regular,Proxima Nova" font-size="40.0" fill="#FEFFFF" transform="matrix(1.00, 0.00, -0.00, -1.00, 328.4, 695.4)">n</text><text xml:space="preserve" font-family="ProximaNova-Regular,Proxima Nova" font-size="40.0" fill="#FEFFFF" transform="matrix(1.00, 0.00, -0.00, -1.00, 350.5, 695.4)">g</text><text xml:space="preserve" font-family="ProximaNova-Regular,Proxima Nova" font-size="40.0" fill="#FEFFFF" transform="matrix(1.00, 0.00, -0.00, -1.00, 373.5, 695.4)"> </text><text xml:space="preserve" font-family="ProximaNova-Regular,Proxima Nova" font-size="40.0" fill="#FEFFFF" transform="matrix(1.00, 0.00, -0.00, -1.00, 383.8, 695.4)">S</text><text xml:space="preserve" font-family="ProximaNova-Regular,Proxima Nova" font-size="40.0" fill="#FEFFFF" transform="matrix(1.00, 0.00, -0.00, -1.00, 406.6, 695.4)">t</text><text xml:space="preserve" font-family="ProximaNova-Regular,Proxima Nova" font-size="40.0" fill="#FEFFFF" transform="matrix(1.00, 0.00, -0.00, -1.00, 418.4, 695.4)">a</text><text xml:space="preserve" font-family="ProximaNova-Regular,Proxima Nova" font-size="40.0" fill="#FEFFFF" transform="matrix(1.00, 0.00, -0.00, -1.00, 439.5, 695.4)">n</text><text xml:space="preserve" font-family="ProximaNova-Regular,Proxima Nova" font-size="40.0" fill="#FEFFFF" transform="matrix(1.00, 0.00, -0.00, -1.00, 461.6, 695.4)">d</text><text xml:space="preserve" font-family="ProximaNova-Regular,Proxima Nova" font-size="40.0" fill="#FEFFFF" transform="matrix(1.00, 0.00, -0.00, -1.00, 484.6, 695.4)">a</text><text xml:space="preserve" font-family="ProximaNova-Regular,Proxima Nova" font-size="40.0" fill="#FEFFFF" transform="matrix(1.00, 0.00, -0.00, -1.00, 505.7, 695.4)">r</text><text xml:space="preserve" font-family="ProximaNova-Regular,Proxima Nova" font-size="40.0" fill="#FEFFFF" transform="matrix(1.00, 0.00, -0.00, -1.00, 518.9, 695.4)">d</text><text xml:space="preserve" font-family="Helvetica-LightOblique,Helvetica" font-style="italic" font-size="23.0" fill="#91908B" transform="matrix(1.00, 0.00, -0.00, -1.00, 13.5, 21.3)">h</text><text xml:space="preserve" font-family="Helvetica-LightOblique,Helvetica" font-style="italic" font-size="23.0" fill="#91908B" transform="matrix(1.00, 0.00, -0.00, -1.00, 26.3, 21.3)">t</text><text xml:space="preserve" font-family="Helvetica-LightOblique,Helvetica" font-style="italic" font-size="23.0" fill="#91908B" transform="matrix(1.00, 0.00, -0.00, -1.00, 32.7, 21.3)">t</text><text xml:space="preserve" font-family="Helvetica-LightOblique,Helvetica" font-style="italic" font-size="23.0" fill="#91908B" transform="matrix(1.00, 0.00, -0.00, -1.00, 39.0, 21.3)">p</text><text xml:space="preserve" font-family="Helvetica-LightOblique,Helvetica" font-style="italic" font-size="23.0" fill="#91908B" transform="matrix(1.00, 0.00, -0.00, -1.00, 53.1, 21.3)">:</text><text xml:space="preserve" font-family="Helvetica-LightOblique,Helvetica" font-style="italic" font-size="23.0" fill="#91908B" transform="matrix(1.00, 0.00, -0.00, -1.00, 59.5, 21.3)">/</text><text xml:space="preserve" font-family="Helvetica-LightOblique,Helvetica" font-style="italic" font-size="23.0" fill="#91908B" transform="matrix(1.00, 0.00, -0.00, -1.00, 65.9, 21.3)">/</text><text xml:space="preserve" font-family="Helvetica-LightOblique,Helvetica" font-style="italic" font-size="23.0" fill="#91908B" transform="matrix(1.00, 0.00, -0.00, -1.00, 72.3, 21.3)">w</text><text xml:space="preserve" font-family="Helvetica-LightOblique,Helvetica" font-style="italic" font-size="23.0" fill="#91908B" transform="matrix(1.00, 0.00, -0.00, -1.00, 88.9, 21.3)">w</text><text xml:space="preserve" font-family="Helvetica-LightOblique,Helvetica" font-style="italic" font-size="23.0" fill="#91908B" transform="matrix(1.00, 0.00, -0.00, -1.00, 105.5, 21.3)">w</text><text xml:space="preserve" font-family="Helvetica-LightOblique,Helvetica" font-style="italic" font-size="23.0" fill="#91908B" transform="matrix(1.00, 0.00, -0.00, -1.00, 120.8, 21.3)">.</text><text xml:space="preserve" font-family="Helvetica-LightOblique,Helvetica" font-style="italic" font-size="23.0" fill="#91908B" transform="matrix(1.00, 0.00, -0.00, -1.00, 127.2, 21.3)">p</text><text xml:space="preserve" font-family="Helvetica-LightOblique,Helvetica" font-style="italic" font-size="23.0" fill="#91908B" transform="matrix(1.00, 0.00, -0.00, -1.00, 141.3, 21.3)">h</text><text xml:space="preserve" font-family="Helvetica-LightOblique,Helvetica" font-style="italic" font-size="23.0" fill="#91908B" transform="matrix(1.00, 0.00, -0.00, -1.00, 154.1, 21.3)">p</text><text xml:space="preserve" font-family="Helvetica-LightOblique,Helvetica" font-style="italic" font-size="23.0" fill="#91908B" transform="matrix(1.00, 0.00, -0.00, -1.00, 168.1, 21.3)">-</text><text xml:space="preserve" font-family="Helvetica-LightOblique,Helvetica" font-style="italic" font-size="23.0" fill="#91908B" transform="matrix(1.00, 0.00, -0.00, -1.00, 175.8, 21.3)">ï¬</text><text xml:space="preserve" font-family="Helvetica-LightOblique,Helvetica" font-style="italic" font-size="23.0" fill="#91908B" transform="matrix(1.00, 0.00, -0.00, -1.00, 187.3, 21.3)">g</text><text xml:space="preserve" font-family="Helvetica-LightOblique,Helvetica" font-style="italic" font-size="23.0" fill="#91908B" transform="matrix(1.00, 0.00, -0.00, -1.00, 201.3, 21.3)">.</text><text xml:space="preserve" font-family="Helvetica-LightOblique,Helvetica" font-style="italic" font-size="23.0" fill="#91908B" transform="matrix(1.00, 0.00, -0.00, -1.00, 207.7, 21.3)">o</text><text xml:space="preserve" font-family="Helvetica-LightOblique,Helvetica" font-style="italic" font-size="23.0" fill="#91908B" transform="matrix(1.00, 0.00, -0.00, -1.00, 220.5, 21.3)">r</text><text xml:space="preserve" font-family="Helvetica-LightOblique,Helvetica" font-style="italic" font-size="23.0" fill="#91908B" transform="matrix(1.00, 0.00, -0.00, -1.00, 228.2, 21.3)">g</text><text xml:space="preserve" font-family="Helvetica-LightOblique,Helvetica" font-style="italic" font-size="23.0" fill="#91908B" transform="matrix(1.00, 0.00, -0.00, -1.00, 242.2, 21.3)">/</text><text xml:space="preserve" font-family="Helvetica-LightOblique,Helvetica" font-style="italic" font-size="23.0" fill="#91908B" transform="matrix(1.00, 0.00, -0.00, -1.00, 248.6, 21.3)">p</text><text xml:space="preserve" font-family="Helvetica-LightOblique,Helvetica" font-style="italic" font-size="23.0" fill="#91908B" transform="matrix(1.00, 0.00, -0.00, -1.00, 262.7, 21.3)">s</text><text xml:space="preserve" font-family="Helvetica-LightOblique,Helvetica" font-style="italic" font-size="23.0" fill="#91908B" transform="matrix(1.00, 0.00, -0.00, -1.00, 274.2, 21.3)">r</text><text xml:space="preserve" font-family="Helvetica-LightOblique,Helvetica" font-style="italic" font-size="23.0" fill="#91908B" transform="matrix(1.00, 0.00, -0.00, -1.00, 281.8, 21.3)">/</text><text xml:space="preserve" font-family="Helvetica-LightOblique,Helvetica" font-style="italic" font-size="23.0" fill="#91908B" transform="matrix(1.00, 0.00, -0.00, -1.00, 288.2, 21.3)">p</text><text xml:space="preserve" font-family="Helvetica-LightOblique,Helvetica" font-style="italic" font-size="23.0" fill="#91908B" transform="matrix(1.00, 0.00, -0.00, -1.00, 302.3, 21.3)">s</text><text xml:space="preserve" font-family="Helvetica-LightOblique,Helvetica" font-style="italic" font-size="23.0" fill="#91908B" transform="matrix(1.00, 0.00, -0.00, -1.00, 313.8, 21.3)">r</text><text xml:space="preserve" font-family="Helvetica-LightOblique,Helvetica" font-style="italic" font-size="23.0" fill="#91908B" transform="matrix(1.00, 0.00, -0.00, -1.00, 320.2, 21.3)">-</text><text xml:space="preserve" font-family="Helvetica-LightOblique,Helvetica" font-style="italic" font-size="23.0" fill="#91908B" transform="matrix(1.00, 0.00, -0.00, -1.00, 327.8, 21.3)">0</text><g><clipPath id="clip0x6180014ba820"><path d="M 12.5 18.0 L 340.6 18.0 L 340.6 21.1 L 12.5 21.1 Z M 12.5 18.0 "></path></clipPath><g clip-path="url(#clip0x6180014ba820)"><path d="M 4.0 28.4 L 331.2 28.4 " fill="none" stroke="#91908B" stroke-width="1.15" transform="matrix(1.00, 0.00, 0.00, -1.00, 9.5, 48.0)"></path></g></g></g></svg>