<?xml version="1.0" encoding="UTF-8" standalone="no"?><svg xmlns="http://www.w3.org/2000/svg" xmlns:xlink="http://www.w3.org/1999/xlink" clip-rule="evenodd" stroke-miterlimit="10" viewBox="0 0 444 37"><desc>SVG generated by Keynote</desc><defs></defs><g transform="matrix(1.00, 0.00, -0.00, -1.00, 0.0, 37.0)"><text xml:space="preserve" font-family="Helvetica-LightOblique,Helvetica" font-style="italic" font-size="35.0" fill="#FEFFFE" transform="matrix(1.00, 0.00, -0.00, -1.00, 0.3, 9.4)">5</text><text xml:space="preserve" font-family="Helvetica-LightOblique,Helvetica" font-style="italic" font-size="35.0" fill="#FEFFFE" transform="matrix(1.00, 0.00, -0.00, -1.00, 19.8, 9.4)">.</text><text xml:space="preserve" font-family="Helvetica-LightOblique,Helvetica" font-style="italic" font-size="35.0" fill="#FEFFFE" transform="matrix(1.00, 0.00, -0.00, -1.00, 35.9, 9.4)">I</text><text xml:space="preserve" font-family="Helvetica-LightOblique,Helvetica" font-style="italic" font-size="35.0" fill="#FEFFFE" transform="matrix(1.00, 0.00, -0.00, -1.00, 45.6, 9.4)">n</text><text xml:space="preserve" font-family="Helvetica-LightOblique,Helvetica" font-style="italic" font-size="35.0" fill="#FEFFFE" transform="matrix(1.00, 0.00, -0.00, -1.00, 65.1, 9.4)">t</text><text xml:space="preserve" font-family="Helvetica-LightOblique,Helvetica" font-style="italic" font-size="35.0" fill="#FEFFFE" transform="matrix(1.00, 0.00, -0.00, -1.00, 74.8, 9.4)">e</text><text xml:space="preserve" font-family="Helvetica-LightOblique,Helvetica" font-style="italic" font-size="35.0" fill="#FEFFFE" transform="matrix(1.00, 0.00, -0.00, -1.00, 94.3, 9.4)">r</text><text xml:space="preserve" font-family="Helvetica-LightOblique,Helvetica" font-style="italic" font-size="35.0" fill="#FEFFFE" transform="matrix(1.00, 0.00, -0.00, -1.00, 106.5, 9.4)">n</text><text xml:space="preserve" font-family="Helvetica-LightOblique,Helvetica" font-style="italic" font-size="35.0" fill="#FEFFFE" transform="matrix(1.00, 0.00, -0.00, -1.00, 126.0, 9.4)">a</text><text xml:space="preserve" font-family="Helvetica-LightOblique,Helvetica" font-style="italic" font-size="35.0" fill="#FEFFFE" transform="matrix(1.00, 0.00, -0.00, -1.00, 145.5, 9.4)">l</text><text xml:space="preserve" font-family="Helvetica-LightOblique,Helvetica" font-style="italic" font-size="35.0" fill="#FEFFFE" transform="matrix(1.00, 0.00, -0.00, -1.00, 153.2, 9.4)">s</text><text xml:space="preserve" font-family="Helvetica-LightOblique,Helvetica" font-style="italic" font-size="35.0" fill="#FEFFFE" transform="matrix(1.00, 0.00, -0.00, -1.00, 170.7, 9.4)"> </text><text xml:space="preserve" font-family="Helvetica-LightOblique,Helvetica" font-style="italic" font-size="35.0" fill="#FEFFFE" transform="matrix(1.00, 0.00, -0.00, -1.00, 180.5, 9.4)">o</text><text xml:space="preserve" font-family="Helvetica-LightOblique,Helvetica" font-style="italic" font-size="35.0" fill="#FEFFFE" transform="matrix(1.00, 0.00, -0.00, -1.00, 199.9, 9.4)">f</text><text xml:space="preserve" font-family="Helvetica-LightOblique,Helvetica" font-style="italic" font-size="35.0" fill="#FEFFFE" transform="matrix(1.00, 0.00, -0.00, -1.00, 209.7, 9.4)"> </text><text xml:space="preserve" font-family="Helvetica-LightOblique,Helvetica" font-style="italic" font-size="35.0" fill="#FEFFFE" transform="matrix(1.00, 0.00, -0.00, -1.00, 219.4, 9.4)">P</text><text xml:space="preserve" font-family="Helvetica-LightOblique,Helvetica" font-style="italic" font-size="35.0" fill="#FEFFFE" transform="matrix(1.00, 0.00, -0.00, -1.00, 240.8, 9.4)">l</text><text xml:space="preserve" font-family="Helvetica-LightOblique,Helvetica" font-style="italic" font-size="35.0" fill="#FEFFFE" transform="matrix(1.00, 0.00, -0.00, -1.00, 248.5, 9.4)">u</text><text xml:space="preserve" font-family="Helvetica-LightOblique,Helvetica" font-style="italic" font-size="35.0" fill="#FEFFFE" transform="matrix(1.00, 0.00, -0.00, -1.00, 268.0, 9.4)">g</text><text xml:space="preserve" font-family="Helvetica-LightOblique,Helvetica" font-style="italic" font-size="35.0" fill="#FEFFFE" transform="matrix(1.00, 0.00, -0.00, -1.00, 289.4, 9.4)">i</text><text xml:space="preserve" font-family="Helvetica-LightOblique,Helvetica" font-style="italic" font-size="35.0" fill="#FEFFFE" transform="matrix(1.00, 0.00, -0.00, -1.00, 297.2, 9.4)">n</text><text xml:space="preserve" font-family="Helvetica-LightOblique,Helvetica" font-style="italic" font-size="35.0" fill="#FEFFFE" transform="matrix(1.00, 0.00, -0.00, -1.00, 316.6, 9.4)"> </text><text xml:space="preserve" font-family="Helvetica-LightOblique,Helvetica" font-style="italic" font-size="35.0" fill="#FEFFFE" transform="matrix(1.00, 0.00, -0.00, -1.00, 326.3, 9.4)">S</text><text xml:space="preserve" font-family="Helvetica-LightOblique,Helvetica" font-style="italic" font-size="35.0" fill="#FEFFFE" transform="matrix(1.00, 0.00, -0.00, -1.00, 347.7, 9.4)">y</text><text xml:space="preserve" font-family="Helvetica-LightOblique,Helvetica" font-style="italic" font-size="35.0" fill="#FEFFFE" transform="matrix(1.00, 0.00, -0.00, -1.00, 365.2, 9.4)">s</text><text xml:space="preserve" font-family="Helvetica-LightOblique,Helvetica" font-style="italic" font-size="35.0" fill="#FEFFFE" transform="matrix(1.00, 0.00, -0.00, -1.00, 382.7, 9.4)">t</text><text xml:space="preserve" font-family="Helvetica-LightOblique,Helvetica" font-style="italic" font-size="35.0" fill="#FEFFFE" transform="matrix(1.00, 0.00, -0.00, -1.00, 392.5, 9.4)">e</text><text xml:space="preserve" font-family="Helvetica-LightOblique,Helvetica" font-style="italic" font-size="35.0" fill="#FEFFFE" transform="matrix(1.00, 0.00, -0.00, -1.00, 411.9, 9.4)">m</text></g></svg>