<?xml version="1.0" encoding="UTF-8" standalone="no"?><svg xmlns="http://www.w3.org/2000/svg" xmlns:xlink="http://www.w3.org/1999/xlink" clip-rule="evenodd" stroke-miterlimit="10" viewBox="0 0 278 37"><desc>SVG generated by Keynote</desc><defs></defs><g transform="matrix(1.00, 0.00, -0.00, -1.00, 0.0, 37.0)"><text xml:space="preserve" font-family="Helvetica-LightOblique,Helvetica" font-style="italic" font-size="35.0" fill="#FEFFFE" transform="matrix(1.00, 0.00, -0.00, -1.00, 0.3, 10.0)">1</text><text xml:space="preserve" font-family="Helvetica-LightOblique,Helvetica" font-style="italic" font-size="35.0" fill="#FEFFFE" transform="matrix(1.00, 0.00, -0.00, -1.00, 19.8, 10.0)">.</text><text xml:space="preserve" font-family="Helvetica-LightOblique,Helvetica" font-style="italic" font-size="35.0" fill="#FEFFFE" transform="matrix(1.00, 0.00, -0.00, -1.00, 35.9, 10.0)">E</text><text xml:space="preserve" font-family="Helvetica-LightOblique,Helvetica" font-style="italic" font-size="35.0" fill="#FEFFFE" transform="matrix(1.00, 0.00, -0.00, -1.00, 57.3, 10.0)">x</text><text xml:space="preserve" font-family="Helvetica-LightOblique,Helvetica" font-style="italic" font-size="35.0" fill="#FEFFFE" transform="matrix(1.00, 0.00, -0.00, -1.00, 74.8, 10.0)">p</text><text xml:space="preserve" font-family="Helvetica-LightOblique,Helvetica" font-style="italic" font-size="35.0" fill="#FEFFFE" transform="matrix(1.00, 0.00, -0.00, -1.00, 96.1, 10.0)">l</text><text xml:space="preserve" font-family="Helvetica-LightOblique,Helvetica" font-style="italic" font-size="35.0" fill="#FEFFFE" transform="matrix(1.00, 0.00, -0.00, -1.00, 103.9, 10.0)">a</text><text xml:space="preserve" font-family="Helvetica-LightOblique,Helvetica" font-style="italic" font-size="35.0" fill="#FEFFFE" transform="matrix(1.00, 0.00, -0.00, -1.00, 123.4, 10.0)">i</text><text xml:space="preserve" font-family="Helvetica-LightOblique,Helvetica" font-style="italic" font-size="35.0" fill="#FEFFFE" transform="matrix(1.00, 0.00, -0.00, -1.00, 131.1, 10.0)">n</text><text xml:space="preserve" font-family="Helvetica-LightOblique,Helvetica" font-style="italic" font-size="35.0" fill="#FEFFFE" transform="matrix(1.00, 0.00, -0.00, -1.00, 150.6, 10.0)"> </text><text xml:space="preserve" font-family="Helvetica-LightOblique,Helvetica" font-style="italic" font-size="35.0" fill="#FEFFFE" transform="matrix(1.00, 0.00, -0.00, -1.00, 160.3, 10.0)">p</text><text xml:space="preserve" font-family="Helvetica-LightOblique,Helvetica" font-style="italic" font-size="35.0" fill="#FEFFFE" transform="matrix(1.00, 0.00, -0.00, -1.00, 181.7, 10.0)">l</text><text xml:space="preserve" font-family="Helvetica-LightOblique,Helvetica" font-style="italic" font-size="35.0" fill="#FEFFFE" transform="matrix(1.00, 0.00, -0.00, -1.00, 189.5, 10.0)">u</text><text xml:space="preserve" font-family="Helvetica-LightOblique,Helvetica" font-style="italic" font-size="35.0" fill="#FEFFFE" transform="matrix(1.00, 0.00, -0.00, -1.00, 209.0, 10.0)">g</text><text xml:space="preserve" font-family="Helvetica-LightOblique,Helvetica" font-style="italic" font-size="35.0" fill="#FEFFFE" transform="matrix(1.00, 0.00, -0.00, -1.00, 230.3, 10.0)">i</text><text xml:space="preserve" font-family="Helvetica-LightOblique,Helvetica" font-style="italic" font-size="35.0" fill="#FEFFFE" transform="matrix(1.00, 0.00, -0.00, -1.00, 238.1, 10.0)">n</text><text xml:space="preserve" font-family="Helvetica-LightOblique,Helvetica" font-style="italic" font-size="35.0" fill="#FEFFFE" transform="matrix(1.00, 0.00, -0.00, -1.00, 257.6, 10.0)">s</text></g></svg>