<?xml version="1.0" encoding="UTF-8" standalone="no"?><svg xmlns="http://www.w3.org/2000/svg" xmlns:xlink="http://www.w3.org/1999/xlink" clip-rule="evenodd" stroke-miterlimit="10" viewBox="0 0 339 32"><desc>SVG generated by Keynote</desc><defs></defs><g transform="matrix(1.00, 0.00, -0.00, -1.00, 0.0, 32.0)"><text xml:space="preserve" font-family="ProximaNova-Semibold,Proxima Nova" font-weight="bold" font-size="40.0" fill="#FEFFFF" transform="matrix(1.00, 0.00, -0.00, -1.00, 0.1, 2.4)">S</text><text xml:space="preserve" font-family="ProximaNova-Semibold,Proxima Nova" font-weight="bold" font-size="40.0" fill="#FEFFFF" transform="matrix(1.00, 0.00, -0.00, -1.00, 23.9, 2.4)">e</text><text xml:space="preserve" font-family="ProximaNova-Semibold,Proxima Nova" font-weight="bold" font-size="40.0" fill="#FEFFFF" transform="matrix(1.00, 0.00, -0.00, -1.00, 46.2, 2.4)">r</text><text xml:space="preserve" font-family="ProximaNova-Semibold,Proxima Nova" font-weight="bold" font-size="40.0" fill="#FEFFFF" transform="matrix(1.00, 0.00, -0.00, -1.00, 60.0, 2.4)">v</text><text xml:space="preserve" font-family="ProximaNova-Semibold,Proxima Nova" font-weight="bold" font-size="40.0" fill="#FEFFFF" transform="matrix(1.00, 0.00, -0.00, -1.00, 80.2, 2.4)">i</text><text xml:space="preserve" font-family="ProximaNova-Semibold,Proxima Nova" font-weight="bold" font-size="40.0" fill="#FEFFFF" transform="matrix(1.00, 0.00, -0.00, -1.00, 89.8, 2.4)">c</text><text xml:space="preserve" font-family="ProximaNova-Semibold,Proxima Nova" font-weight="bold" font-size="40.0" fill="#FEFFFF" transform="matrix(1.00, 0.00, -0.00, -1.00, 109.7, 2.4)">e</text><text xml:space="preserve" font-family="ProximaNova-Semibold,Proxima Nova" font-weight="bold" font-size="40.0" fill="#FEFFFF" transform="matrix(1.00, 0.00, -0.00, -1.00, 132.0, 2.4)"> </text><text xml:space="preserve" font-family="ProximaNova-Semibold,Proxima Nova" font-weight="bold" font-size="40.0" fill="#FEFFFF" transform="matrix(1.00, 0.00, -0.00, -1.00, 142.3, 2.4)">C</text><text xml:space="preserve" font-family="ProximaNova-Semibold,Proxima Nova" font-weight="bold" font-size="40.0" fill="#FEFFFF" transform="matrix(1.00, 0.00, -0.00, -1.00, 169.6, 2.4)">o</text><text xml:space="preserve" font-family="ProximaNova-Semibold,Proxima Nova" font-weight="bold" font-size="40.0" fill="#FEFFFF" transform="matrix(1.00, 0.00, -0.00, -1.00, 192.6, 2.4)">n</text><text xml:space="preserve" font-family="ProximaNova-Semibold,Proxima Nova" font-weight="bold" font-size="40.0" fill="#FEFFFF" transform="matrix(1.00, 0.00, -0.00, -1.00, 215.3, 2.4)">t</text><text xml:space="preserve" font-family="ProximaNova-Semibold,Proxima Nova" font-weight="bold" font-size="40.0" fill="#FEFFFF" transform="matrix(1.00, 0.00, -0.00, -1.00, 228.0, 2.4)">a</text><text xml:space="preserve" font-family="ProximaNova-Semibold,Proxima Nova" font-weight="bold" font-size="40.0" fill="#FEFFFF" transform="matrix(1.00, 0.00, -0.00, -1.00, 249.5, 2.4)">i</text><text xml:space="preserve" font-family="ProximaNova-Semibold,Proxima Nova" font-weight="bold" font-size="40.0" fill="#FEFFFF" transform="matrix(1.00, 0.00, -0.00, -1.00, 259.2, 2.4)">n</text><text xml:space="preserve" font-family="ProximaNova-Semibold,Proxima Nova" font-weight="bold" font-size="40.0" fill="#FEFFFF" transform="matrix(1.00, 0.00, -0.00, -1.00, 281.9, 2.4)">e</text><text xml:space="preserve" font-family="ProximaNova-Semibold,Proxima Nova" font-weight="bold" font-size="40.0" fill="#FEFFFF" transform="matrix(1.00, 0.00, -0.00, -1.00, 304.2, 2.4)">r</text><text xml:space="preserve" font-family="ProximaNova-Semibold,Proxima Nova" font-weight="bold" font-size="40.0" fill="#FEFFFF" transform="matrix(1.00, 0.00, -0.00, -1.00, 318.0, 2.4)">s</text></g></svg>