<?xml version="1.0" encoding="UTF-8" standalone="no"?><svg xmlns="http://www.w3.org/2000/svg" xmlns:xlink="http://www.w3.org/1999/xlink" clip-rule="evenodd" stroke-miterlimit="10" viewBox="0 0 810 30"><desc>SVG generated by Keynote</desc><defs></defs><g transform="matrix(1.00, 0.00, -0.00, -1.00, 0.0, 30.0)"><text xml:space="preserve" font-family="Helvetica-LightOblique,Helvetica" font-style="italic" font-size="23.0" fill="#91908B" transform="matrix(1.00, 0.00, -0.00, -1.00, 0.5, 6.3)">h</text><text xml:space="preserve" font-family="Helvetica-LightOblique,Helvetica" font-style="italic" font-size="23.0" fill="#91908B" transform="matrix(1.00, 0.00, -0.00, -1.00, 13.3, 6.3)">t</text><text xml:space="preserve" font-family="Helvetica-LightOblique,Helvetica" font-style="italic" font-size="23.0" fill="#91908B" transform="matrix(1.00, 0.00, -0.00, -1.00, 19.7, 6.3)">t</text><text xml:space="preserve" font-family="Helvetica-LightOblique,Helvetica" font-style="italic" font-size="23.0" fill="#91908B" transform="matrix(1.00, 0.00, -0.00, -1.00, 26.0, 6.3)">p</text><text xml:space="preserve" font-family="Helvetica-LightOblique,Helvetica" font-style="italic" font-size="23.0" fill="#91908B" transform="matrix(1.00, 0.00, -0.00, -1.00, 40.1, 6.3)">s</text><text xml:space="preserve" font-family="Helvetica-LightOblique,Helvetica" font-style="italic" font-size="23.0" fill="#91908B" transform="matrix(1.00, 0.00, -0.00, -1.00, 51.6, 6.3)">:</text><text xml:space="preserve" font-family="Helvetica-LightOblique,Helvetica" font-style="italic" font-size="23.0" fill="#91908B" transform="matrix(1.00, 0.00, -0.00, -1.00, 58.0, 6.3)">/</text><text xml:space="preserve" font-family="Helvetica-LightOblique,Helvetica" font-style="italic" font-size="23.0" fill="#91908B" transform="matrix(1.00, 0.00, -0.00, -1.00, 64.4, 6.3)">/</text><text xml:space="preserve" font-family="Helvetica-LightOblique,Helvetica" font-style="italic" font-size="23.0" fill="#91908B" transform="matrix(1.00, 0.00, -0.00, -1.00, 70.8, 6.3)">j</text><text xml:space="preserve" font-family="Helvetica-LightOblique,Helvetica" font-style="italic" font-size="23.0" fill="#91908B" transform="matrix(1.00, 0.00, -0.00, -1.00, 75.9, 6.3)">t</text><text xml:space="preserve" font-family="Helvetica-LightOblique,Helvetica" font-style="italic" font-size="23.0" fill="#91908B" transform="matrix(1.00, 0.00, -0.00, -1.00, 82.3, 6.3)">r</text><text xml:space="preserve" font-family="Helvetica-LightOblique,Helvetica" font-style="italic" font-size="23.0" fill="#91908B" transform="matrix(1.00, 0.00, -0.00, -1.00, 89.5, 6.3)">e</text><text xml:space="preserve" font-family="Helvetica-LightOblique,Helvetica" font-style="italic" font-size="23.0" fill="#91908B" transform="matrix(1.00, 0.00, -0.00, -1.00, 102.3, 6.3)">m</text><text xml:space="preserve" font-family="Helvetica-LightOblique,Helvetica" font-style="italic" font-size="23.0" fill="#91908B" transform="matrix(1.00, 0.00, -0.00, -1.00, 121.5, 6.3)">i</text><text xml:space="preserve" font-family="Helvetica-LightOblique,Helvetica" font-style="italic" font-size="23.0" fill="#91908B" transform="matrix(1.00, 0.00, -0.00, -1.00, 126.6, 6.3)">n</text><text xml:space="preserve" font-family="Helvetica-LightOblique,Helvetica" font-style="italic" font-size="23.0" fill="#91908B" transform="matrix(1.00, 0.00, -0.00, -1.00, 139.4, 6.3)">i</text><text xml:space="preserve" font-family="Helvetica-LightOblique,Helvetica" font-style="italic" font-size="23.0" fill="#91908B" transform="matrix(1.00, 0.00, -0.00, -1.00, 144.5, 6.3)">o</text><text xml:space="preserve" font-family="Helvetica-LightOblique,Helvetica" font-style="italic" font-size="23.0" fill="#91908B" transform="matrix(1.00, 0.00, -0.00, -1.00, 157.3, 6.3)">.</text><text xml:space="preserve" font-family="Helvetica-LightOblique,Helvetica" font-style="italic" font-size="23.0" fill="#91908B" transform="matrix(1.00, 0.00, -0.00, -1.00, 163.7, 6.3)">c</text><text xml:space="preserve" font-family="Helvetica-LightOblique,Helvetica" font-style="italic" font-size="23.0" fill="#91908B" transform="matrix(1.00, 0.00, -0.00, -1.00, 176.4, 6.3)">o</text><text xml:space="preserve" font-family="Helvetica-LightOblique,Helvetica" font-style="italic" font-size="23.0" fill="#91908B" transform="matrix(1.00, 0.00, -0.00, -1.00, 189.2, 6.3)">m</text><text xml:space="preserve" font-family="Helvetica-LightOblique,Helvetica" font-style="italic" font-size="23.0" fill="#91908B" transform="matrix(1.00, 0.00, -0.00, -1.00, 208.4, 6.3)">/</text><text xml:space="preserve" font-family="Helvetica-LightOblique,Helvetica" font-style="italic" font-size="23.0" fill="#91908B" transform="matrix(1.00, 0.00, -0.00, -1.00, 214.8, 6.3)">2</text><text xml:space="preserve" font-family="Helvetica-LightOblique,Helvetica" font-style="italic" font-size="23.0" fill="#91908B" transform="matrix(1.00, 0.00, -0.00, -1.00, 227.6, 6.3)">0</text><text xml:space="preserve" font-family="Helvetica-LightOblique,Helvetica" font-style="italic" font-size="23.0" fill="#91908B" transform="matrix(1.00, 0.00, -0.00, -1.00, 240.4, 6.3)">1</text><text xml:space="preserve" font-family="Helvetica-LightOblique,Helvetica" font-style="italic" font-size="23.0" fill="#91908B" transform="matrix(1.00, 0.00, -0.00, -1.00, 253.2, 6.3)">2</text><text xml:space="preserve" font-family="Helvetica-LightOblique,Helvetica" font-style="italic" font-size="23.0" fill="#91908B" transform="matrix(1.00, 0.00, -0.00, -1.00, 265.9, 6.3)">/</text><text xml:space="preserve" font-family="Helvetica-LightOblique,Helvetica" font-style="italic" font-size="23.0" fill="#91908B" transform="matrix(1.00, 0.00, -0.00, -1.00, 272.3, 6.3)">1</text><text xml:space="preserve" font-family="Helvetica-LightOblique,Helvetica" font-style="italic" font-size="23.0" fill="#91908B" transform="matrix(1.00, 0.00, -0.00, -1.00, 285.1, 6.3)">0</text><text xml:space="preserve" font-family="Helvetica-LightOblique,Helvetica" font-style="italic" font-size="23.0" fill="#91908B" transform="matrix(1.00, 0.00, -0.00, -1.00, 297.9, 6.3)">/</text><text xml:space="preserve" font-family="Helvetica-LightOblique,Helvetica" font-style="italic" font-size="23.0" fill="#91908B" transform="matrix(1.00, 0.00, -0.00, -1.00, 304.3, 6.3)">a</text><text xml:space="preserve" font-family="Helvetica-LightOblique,Helvetica" font-style="italic" font-size="23.0" fill="#91908B" transform="matrix(1.00, 0.00, -0.00, -1.00, 317.1, 6.3)">n</text><text xml:space="preserve" font-family="Helvetica-LightOblique,Helvetica" font-style="italic" font-size="23.0" fill="#91908B" transform="matrix(1.00, 0.00, -0.00, -1.00, 329.9, 6.3)">-</text><text xml:space="preserve" font-family="Helvetica-LightOblique,Helvetica" font-style="italic" font-size="23.0" fill="#91908B" transform="matrix(1.00, 0.00, -0.00, -1.00, 337.5, 6.3)">i</text><text xml:space="preserve" font-family="Helvetica-LightOblique,Helvetica" font-style="italic" font-size="23.0" fill="#91908B" transform="matrix(1.00, 0.00, -0.00, -1.00, 342.6, 6.3)">n</text><text xml:space="preserve" font-family="Helvetica-LightOblique,Helvetica" font-style="italic" font-size="23.0" fill="#91908B" transform="matrix(1.00, 0.00, -0.00, -1.00, 355.4, 6.3)">t</text><text xml:space="preserve" font-family="Helvetica-LightOblique,Helvetica" font-style="italic" font-size="23.0" fill="#91908B" transform="matrix(1.00, 0.00, -0.00, -1.00, 361.8, 6.3)">r</text><text xml:space="preserve" font-family="Helvetica-LightOblique,Helvetica" font-style="italic" font-size="23.0" fill="#91908B" transform="matrix(1.00, 0.00, -0.00, -1.00, 369.1, 6.3)">o</text><text xml:space="preserve" font-family="Helvetica-LightOblique,Helvetica" font-style="italic" font-size="23.0" fill="#91908B" transform="matrix(1.00, 0.00, -0.00, -1.00, 381.9, 6.3)">d</text><text xml:space="preserve" font-family="Helvetica-LightOblique,Helvetica" font-style="italic" font-size="23.0" fill="#91908B" transform="matrix(1.00, 0.00, -0.00, -1.00, 395.9, 6.3)">u</text><text xml:space="preserve" font-family="Helvetica-LightOblique,Helvetica" font-style="italic" font-size="23.0" fill="#91908B" transform="matrix(1.00, 0.00, -0.00, -1.00, 408.7, 6.3)">c</text><text xml:space="preserve" font-family="Helvetica-LightOblique,Helvetica" font-style="italic" font-size="23.0" fill="#91908B" transform="matrix(1.00, 0.00, -0.00, -1.00, 421.5, 6.3)">t</text><text xml:space="preserve" font-family="Helvetica-LightOblique,Helvetica" font-style="italic" font-size="23.0" fill="#91908B" transform="matrix(1.00, 0.00, -0.00, -1.00, 427.9, 6.3)">i</text><text xml:space="preserve" font-family="Helvetica-LightOblique,Helvetica" font-style="italic" font-size="23.0" fill="#91908B" transform="matrix(1.00, 0.00, -0.00, -1.00, 433.0, 6.3)">o</text><text xml:space="preserve" font-family="Helvetica-LightOblique,Helvetica" font-style="italic" font-size="23.0" fill="#91908B" transform="matrix(1.00, 0.00, -0.00, -1.00, 445.8, 6.3)">n</text><text xml:space="preserve" font-family="Helvetica-LightOblique,Helvetica" font-style="italic" font-size="23.0" fill="#91908B" transform="matrix(1.00, 0.00, -0.00, -1.00, 458.6, 6.3)">-</text><text xml:space="preserve" font-family="Helvetica-LightOblique,Helvetica" font-style="italic" font-size="23.0" fill="#91908B" transform="matrix(1.00, 0.00, -0.00, -1.00, 466.2, 6.3)">t</text><text xml:space="preserve" font-family="Helvetica-LightOblique,Helvetica" font-style="italic" font-size="23.0" fill="#91908B" transform="matrix(1.00, 0.00, -0.00, -1.00, 472.6, 6.3)">o</text><text xml:space="preserve" font-family="Helvetica-LightOblique,Helvetica" font-style="italic" font-size="23.0" fill="#91908B" transform="matrix(1.00, 0.00, -0.00, -1.00, 485.4, 6.3)">-</text><text xml:space="preserve" font-family="Helvetica-LightOblique,Helvetica" font-style="italic" font-size="23.0" fill="#91908B" transform="matrix(1.00, 0.00, -0.00, -1.00, 493.1, 6.3)">p</text><text xml:space="preserve" font-family="Helvetica-LightOblique,Helvetica" font-style="italic" font-size="23.0" fill="#91908B" transform="matrix(1.00, 0.00, -0.00, -1.00, 507.1, 6.3)">i</text><text xml:space="preserve" font-family="Helvetica-LightOblique,Helvetica" font-style="italic" font-size="23.0" fill="#91908B" transform="matrix(1.00, 0.00, -0.00, -1.00, 512.2, 6.3)">m</text><text xml:space="preserve" font-family="Helvetica-LightOblique,Helvetica" font-style="italic" font-size="23.0" fill="#91908B" transform="matrix(1.00, 0.00, -0.00, -1.00, 531.4, 6.3)">p</text><text xml:space="preserve" font-family="Helvetica-LightOblique,Helvetica" font-style="italic" font-size="23.0" fill="#91908B" transform="matrix(1.00, 0.00, -0.00, -1.00, 545.4, 6.3)">l</text><text xml:space="preserve" font-family="Helvetica-LightOblique,Helvetica" font-style="italic" font-size="23.0" fill="#91908B" transform="matrix(1.00, 0.00, -0.00, -1.00, 550.5, 6.3)">e</text><text xml:space="preserve" font-family="Helvetica-LightOblique,Helvetica" font-style="italic" font-size="23.0" fill="#91908B" transform="matrix(1.00, 0.00, -0.00, -1.00, 563.3, 6.3)">-</text><text xml:space="preserve" font-family="Helvetica-LightOblique,Helvetica" font-style="italic" font-size="23.0" fill="#91908B" transform="matrix(1.00, 0.00, -0.00, -1.00, 571.0, 6.3)">a</text><text xml:space="preserve" font-family="Helvetica-LightOblique,Helvetica" font-style="italic" font-size="23.0" fill="#91908B" transform="matrix(1.00, 0.00, -0.00, -1.00, 583.8, 6.3)">n</text><text xml:space="preserve" font-family="Helvetica-LightOblique,Helvetica" font-style="italic" font-size="23.0" fill="#91908B" transform="matrix(1.00, 0.00, -0.00, -1.00, 596.6, 6.3)">d</text><text xml:space="preserve" font-family="Helvetica-LightOblique,Helvetica" font-style="italic" font-size="23.0" fill="#91908B" transform="matrix(1.00, 0.00, -0.00, -1.00, 610.6, 6.3)">-</text><text xml:space="preserve" font-family="Helvetica-LightOblique,Helvetica" font-style="italic" font-size="23.0" fill="#91908B" transform="matrix(1.00, 0.00, -0.00, -1.00, 618.3, 6.3)">s</text><text xml:space="preserve" font-family="Helvetica-LightOblique,Helvetica" font-style="italic" font-size="23.0" fill="#91908B" transform="matrix(1.00, 0.00, -0.00, -1.00, 629.8, 6.3)">e</text><text xml:space="preserve" font-family="Helvetica-LightOblique,Helvetica" font-style="italic" font-size="23.0" fill="#91908B" transform="matrix(1.00, 0.00, -0.00, -1.00, 642.6, 6.3)">r</text><text xml:space="preserve" font-family="Helvetica-LightOblique,Helvetica" font-style="italic" font-size="23.0" fill="#91908B" transform="matrix(1.00, 0.00, -0.00, -1.00, 650.2, 6.3)">v</text><text xml:space="preserve" font-family="Helvetica-LightOblique,Helvetica" font-style="italic" font-size="23.0" fill="#91908B" transform="matrix(1.00, 0.00, -0.00, -1.00, 661.7, 6.3)">i</text><text xml:space="preserve" font-family="Helvetica-LightOblique,Helvetica" font-style="italic" font-size="23.0" fill="#91908B" transform="matrix(1.00, 0.00, -0.00, -1.00, 666.8, 6.3)">c</text><text xml:space="preserve" font-family="Helvetica-LightOblique,Helvetica" font-style="italic" font-size="23.0" fill="#91908B" transform="matrix(1.00, 0.00, -0.00, -1.00, 679.6, 6.3)">e</text><text xml:space="preserve" font-family="Helvetica-LightOblique,Helvetica" font-style="italic" font-size="23.0" fill="#91908B" transform="matrix(1.00, 0.00, -0.00, -1.00, 692.4, 6.3)">-</text><text xml:space="preserve" font-family="Helvetica-LightOblique,Helvetica" font-style="italic" font-size="23.0" fill="#91908B" transform="matrix(1.00, 0.00, -0.00, -1.00, 700.1, 6.3)">c</text><text xml:space="preserve" font-family="Helvetica-LightOblique,Helvetica" font-style="italic" font-size="23.0" fill="#91908B" transform="matrix(1.00, 0.00, -0.00, -1.00, 712.9, 6.3)">o</text><text xml:space="preserve" font-family="Helvetica-LightOblique,Helvetica" font-style="italic" font-size="23.0" fill="#91908B" transform="matrix(1.00, 0.00, -0.00, -1.00, 725.6, 6.3)">n</text><text xml:space="preserve" font-family="Helvetica-LightOblique,Helvetica" font-style="italic" font-size="23.0" fill="#91908B" transform="matrix(1.00, 0.00, -0.00, -1.00, 738.4, 6.3)">t</text><text xml:space="preserve" font-family="Helvetica-LightOblique,Helvetica" font-style="italic" font-size="23.0" fill="#91908B" transform="matrix(1.00, 0.00, -0.00, -1.00, 744.8, 6.3)">a</text><text xml:space="preserve" font-family="Helvetica-LightOblique,Helvetica" font-style="italic" font-size="23.0" fill="#91908B" transform="matrix(1.00, 0.00, -0.00, -1.00, 757.6, 6.3)">i</text><text xml:space="preserve" font-family="Helvetica-LightOblique,Helvetica" font-style="italic" font-size="23.0" fill="#91908B" transform="matrix(1.00, 0.00, -0.00, -1.00, 762.7, 6.3)">n</text><text xml:space="preserve" font-family="Helvetica-LightOblique,Helvetica" font-style="italic" font-size="23.0" fill="#91908B" transform="matrix(1.00, 0.00, -0.00, -1.00, 775.5, 6.3)">e</text><text xml:space="preserve" font-family="Helvetica-LightOblique,Helvetica" font-style="italic" font-size="23.0" fill="#91908B" transform="matrix(1.00, 0.00, -0.00, -1.00, 788.3, 6.3)">r</text><text xml:space="preserve" font-family="Helvetica-LightOblique,Helvetica" font-style="italic" font-size="23.0" fill="#91908B" transform="matrix(1.00, 0.00, -0.00, -1.00, 796.0, 6.3)">s</text><g><clipPath id="clip0x6000020b82a0"><path d="M -0.5 3.0 L 807.5 3.0 L 807.5 6.1 L -0.5 6.1 Z M -0.5 3.0 "></path></clipPath><g clip-path="url(#clip0x6000020b82a0)"><path d="M 4.0 28.4 L 811.0 28.4 " fill="none" stroke="#91908B" stroke-width="1.15" transform="matrix(1.00, 0.00, 0.00, -1.00, -3.5, 33.0)"></path></g></g></g></svg>