<?xml version="1.0" encoding="UTF-8" standalone="no"?><svg xmlns="http://www.w3.org/2000/svg" xmlns:xlink="http://www.w3.org/1999/xlink" clip-rule="evenodd" stroke-miterlimit="10" viewBox="0 0 652 30"><desc>SVG generated by Keynote</desc><defs></defs><g transform="matrix(1.00, 0.00, -0.00, -1.00, 0.0, 30.0)"><text xml:space="preserve" font-family="Helvetica-LightOblique,Helvetica" font-style="italic" font-size="23.0" fill="#91908B" transform="matrix(1.00, 0.00, -0.00, -1.00, 0.5, 6.3)">h</text><text xml:space="preserve" font-family="Helvetica-LightOblique,Helvetica" font-style="italic" font-size="23.0" fill="#91908B" transform="matrix(1.00, 0.00, -0.00, -1.00, 13.3, 6.3)">t</text><text xml:space="preserve" font-family="Helvetica-LightOblique,Helvetica" font-style="italic" font-size="23.0" fill="#91908B" transform="matrix(1.00, 0.00, -0.00, -1.00, 19.7, 6.3)">t</text><text xml:space="preserve" font-family="Helvetica-LightOblique,Helvetica" font-style="italic" font-size="23.0" fill="#91908B" transform="matrix(1.00, 0.00, -0.00, -1.00, 26.0, 6.3)">p</text><text xml:space="preserve" font-family="Helvetica-LightOblique,Helvetica" font-style="italic" font-size="23.0" fill="#91908B" transform="matrix(1.00, 0.00, -0.00, -1.00, 40.1, 6.3)">:</text><text xml:space="preserve" font-family="Helvetica-LightOblique,Helvetica" font-style="italic" font-size="23.0" fill="#91908B" transform="matrix(1.00, 0.00, -0.00, -1.00, 46.5, 6.3)">/</text><text xml:space="preserve" font-family="Helvetica-LightOblique,Helvetica" font-style="italic" font-size="23.0" fill="#91908B" transform="matrix(1.00, 0.00, -0.00, -1.00, 52.9, 6.3)">/</text><text xml:space="preserve" font-family="Helvetica-LightOblique,Helvetica" font-style="italic" font-size="23.0" fill="#91908B" transform="matrix(1.00, 0.00, -0.00, -1.00, 59.3, 6.3)">w</text><text xml:space="preserve" font-family="Helvetica-LightOblique,Helvetica" font-style="italic" font-size="23.0" fill="#91908B" transform="matrix(1.00, 0.00, -0.00, -1.00, 75.9, 6.3)">w</text><text xml:space="preserve" font-family="Helvetica-LightOblique,Helvetica" font-style="italic" font-size="23.0" fill="#91908B" transform="matrix(1.00, 0.00, -0.00, -1.00, 92.5, 6.3)">w</text><text xml:space="preserve" font-family="Helvetica-LightOblique,Helvetica" font-style="italic" font-size="23.0" fill="#91908B" transform="matrix(1.00, 0.00, -0.00, -1.00, 107.8, 6.3)">.</text><text xml:space="preserve" font-family="Helvetica-LightOblique,Helvetica" font-style="italic" font-size="23.0" fill="#91908B" transform="matrix(1.00, 0.00, -0.00, -1.00, 114.2, 6.3)">s</text><text xml:space="preserve" font-family="Helvetica-LightOblique,Helvetica" font-style="italic" font-size="23.0" fill="#91908B" transform="matrix(1.00, 0.00, -0.00, -1.00, 125.7, 6.3)">l</text><text xml:space="preserve" font-family="Helvetica-LightOblique,Helvetica" font-style="italic" font-size="23.0" fill="#91908B" transform="matrix(1.00, 0.00, -0.00, -1.00, 130.8, 6.3)">i</text><text xml:space="preserve" font-family="Helvetica-LightOblique,Helvetica" font-style="italic" font-size="23.0" fill="#91908B" transform="matrix(1.00, 0.00, -0.00, -1.00, 135.9, 6.3)">d</text><text xml:space="preserve" font-family="Helvetica-LightOblique,Helvetica" font-style="italic" font-size="23.0" fill="#91908B" transform="matrix(1.00, 0.00, -0.00, -1.00, 150.0, 6.3)">e</text><text xml:space="preserve" font-family="Helvetica-LightOblique,Helvetica" font-style="italic" font-size="23.0" fill="#91908B" transform="matrix(1.00, 0.00, -0.00, -1.00, 162.8, 6.3)">s</text><text xml:space="preserve" font-family="Helvetica-LightOblique,Helvetica" font-style="italic" font-size="23.0" fill="#91908B" transform="matrix(1.00, 0.00, -0.00, -1.00, 174.3, 6.3)">h</text><text xml:space="preserve" font-family="Helvetica-LightOblique,Helvetica" font-style="italic" font-size="23.0" fill="#91908B" transform="matrix(1.00, 0.00, -0.00, -1.00, 187.1, 6.3)">a</text><text xml:space="preserve" font-family="Helvetica-LightOblique,Helvetica" font-style="italic" font-size="23.0" fill="#91908B" transform="matrix(1.00, 0.00, -0.00, -1.00, 199.9, 6.3)">r</text><text xml:space="preserve" font-family="Helvetica-LightOblique,Helvetica" font-style="italic" font-size="23.0" fill="#91908B" transform="matrix(1.00, 0.00, -0.00, -1.00, 207.1, 6.3)">e</text><text xml:space="preserve" font-family="Helvetica-LightOblique,Helvetica" font-style="italic" font-size="23.0" fill="#91908B" transform="matrix(1.00, 0.00, -0.00, -1.00, 219.9, 6.3)">.</text><text xml:space="preserve" font-family="Helvetica-LightOblique,Helvetica" font-style="italic" font-size="23.0" fill="#91908B" transform="matrix(1.00, 0.00, -0.00, -1.00, 226.3, 6.3)">n</text><text xml:space="preserve" font-family="Helvetica-LightOblique,Helvetica" font-style="italic" font-size="23.0" fill="#91908B" transform="matrix(1.00, 0.00, -0.00, -1.00, 239.1, 6.3)">e</text><text xml:space="preserve" font-family="Helvetica-LightOblique,Helvetica" font-style="italic" font-size="23.0" fill="#91908B" transform="matrix(1.00, 0.00, -0.00, -1.00, 251.9, 6.3)">t</text><text xml:space="preserve" font-family="Helvetica-LightOblique,Helvetica" font-style="italic" font-size="23.0" fill="#91908B" transform="matrix(1.00, 0.00, -0.00, -1.00, 258.3, 6.3)">/</text><text xml:space="preserve" font-family="Helvetica-LightOblique,Helvetica" font-style="italic" font-size="23.0" fill="#91908B" transform="matrix(1.00, 0.00, -0.00, -1.00, 264.7, 6.3)">r</text><text xml:space="preserve" font-family="Helvetica-LightOblique,Helvetica" font-style="italic" font-size="23.0" fill="#91908B" transform="matrix(1.00, 0.00, -0.00, -1.00, 271.9, 6.3)">d</text><text xml:space="preserve" font-family="Helvetica-LightOblique,Helvetica" font-style="italic" font-size="23.0" fill="#91908B" transform="matrix(1.00, 0.00, -0.00, -1.00, 285.9, 6.3)">o</text><text xml:space="preserve" font-family="Helvetica-LightOblique,Helvetica" font-style="italic" font-size="23.0" fill="#91908B" transform="matrix(1.00, 0.00, -0.00, -1.00, 298.7, 6.3)">h</text><text xml:space="preserve" font-family="Helvetica-LightOblique,Helvetica" font-style="italic" font-size="23.0" fill="#91908B" transform="matrix(1.00, 0.00, -0.00, -1.00, 311.5, 6.3)">m</text><text xml:space="preserve" font-family="Helvetica-LightOblique,Helvetica" font-style="italic" font-size="23.0" fill="#91908B" transform="matrix(1.00, 0.00, -0.00, -1.00, 330.7, 6.3)">s</text><text xml:space="preserve" font-family="Helvetica-LightOblique,Helvetica" font-style="italic" font-size="23.0" fill="#91908B" transform="matrix(1.00, 0.00, -0.00, -1.00, 342.2, 6.3)">/</text><text xml:space="preserve" font-family="Helvetica-LightOblique,Helvetica" font-style="italic" font-size="23.0" fill="#91908B" transform="matrix(1.00, 0.00, -0.00, -1.00, 348.6, 6.3)">a</text><text xml:space="preserve" font-family="Helvetica-LightOblique,Helvetica" font-style="italic" font-size="23.0" fill="#91908B" transform="matrix(1.00, 0.00, -0.00, -1.00, 361.4, 6.3)">n</text><text xml:space="preserve" font-family="Helvetica-LightOblique,Helvetica" font-style="italic" font-size="23.0" fill="#91908B" transform="matrix(1.00, 0.00, -0.00, -1.00, 374.2, 6.3)">n</text><text xml:space="preserve" font-family="Helvetica-LightOblique,Helvetica" font-style="italic" font-size="23.0" fill="#91908B" transform="matrix(1.00, 0.00, -0.00, -1.00, 386.9, 6.3)">o</text><text xml:space="preserve" font-family="Helvetica-LightOblique,Helvetica" font-style="italic" font-size="23.0" fill="#91908B" transform="matrix(1.00, 0.00, -0.00, -1.00, 399.7, 6.3)">t</text><text xml:space="preserve" font-family="Helvetica-LightOblique,Helvetica" font-style="italic" font-size="23.0" fill="#91908B" transform="matrix(1.00, 0.00, -0.00, -1.00, 406.1, 6.3)">a</text><text xml:space="preserve" font-family="Helvetica-LightOblique,Helvetica" font-style="italic" font-size="23.0" fill="#91908B" transform="matrix(1.00, 0.00, -0.00, -1.00, 418.9, 6.3)">t</text><text xml:space="preserve" font-family="Helvetica-LightOblique,Helvetica" font-style="italic" font-size="23.0" fill="#91908B" transform="matrix(1.00, 0.00, -0.00, -1.00, 425.3, 6.3)">i</text><text xml:space="preserve" font-family="Helvetica-LightOblique,Helvetica" font-style="italic" font-size="23.0" fill="#91908B" transform="matrix(1.00, 0.00, -0.00, -1.00, 430.4, 6.3)">o</text><text xml:space="preserve" font-family="Helvetica-LightOblique,Helvetica" font-style="italic" font-size="23.0" fill="#91908B" transform="matrix(1.00, 0.00, -0.00, -1.00, 443.2, 6.3)">n</text><text xml:space="preserve" font-family="Helvetica-LightOblique,Helvetica" font-style="italic" font-size="23.0" fill="#91908B" transform="matrix(1.00, 0.00, -0.00, -1.00, 456.0, 6.3)">s</text><text xml:space="preserve" font-family="Helvetica-LightOblique,Helvetica" font-style="italic" font-size="23.0" fill="#91908B" transform="matrix(1.00, 0.00, -0.00, -1.00, 467.5, 6.3)">-</text><text xml:space="preserve" font-family="Helvetica-LightOblique,Helvetica" font-style="italic" font-size="23.0" fill="#91908B" transform="matrix(1.00, 0.00, -0.00, -1.00, 475.1, 6.3)">i</text><text xml:space="preserve" font-family="Helvetica-LightOblique,Helvetica" font-style="italic" font-size="23.0" fill="#91908B" transform="matrix(1.00, 0.00, -0.00, -1.00, 480.3, 6.3)">n</text><text xml:space="preserve" font-family="Helvetica-LightOblique,Helvetica" font-style="italic" font-size="23.0" fill="#91908B" transform="matrix(1.00, 0.00, -0.00, -1.00, 493.0, 6.3)">-</text><text xml:space="preserve" font-family="Helvetica-LightOblique,Helvetica" font-style="italic" font-size="23.0" fill="#91908B" transform="matrix(1.00, 0.00, -0.00, -1.00, 500.7, 6.3)">p</text><text xml:space="preserve" font-family="Helvetica-LightOblique,Helvetica" font-style="italic" font-size="23.0" fill="#91908B" transform="matrix(1.00, 0.00, -0.00, -1.00, 514.8, 6.3)">h</text><text xml:space="preserve" font-family="Helvetica-LightOblique,Helvetica" font-style="italic" font-size="23.0" fill="#91908B" transform="matrix(1.00, 0.00, -0.00, -1.00, 527.5, 6.3)">p</text><text xml:space="preserve" font-family="Helvetica-LightOblique,Helvetica" font-style="italic" font-size="23.0" fill="#91908B" transform="matrix(1.00, 0.00, -0.00, -1.00, 541.6, 6.3)">-</text><text xml:space="preserve" font-family="Helvetica-LightOblique,Helvetica" font-style="italic" font-size="23.0" fill="#91908B" transform="matrix(1.00, 0.00, -0.00, -1.00, 549.3, 6.3)">t</text><text xml:space="preserve" font-family="Helvetica-LightOblique,Helvetica" font-style="italic" font-size="23.0" fill="#91908B" transform="matrix(1.00, 0.00, -0.00, -1.00, 555.6, 6.3)">h</text><text xml:space="preserve" font-family="Helvetica-LightOblique,Helvetica" font-style="italic" font-size="23.0" fill="#91908B" transform="matrix(1.00, 0.00, -0.00, -1.00, 568.4, 6.3)">e</text><text xml:space="preserve" font-family="Helvetica-LightOblique,Helvetica" font-style="italic" font-size="23.0" fill="#91908B" transform="matrix(1.00, 0.00, -0.00, -1.00, 581.2, 6.3)">y</text><text xml:space="preserve" font-family="Helvetica-LightOblique,Helvetica" font-style="italic" font-size="23.0" fill="#91908B" transform="matrix(1.00, 0.00, -0.00, -1.00, 592.7, 6.3)">-</text><text xml:space="preserve" font-family="Helvetica-LightOblique,Helvetica" font-style="italic" font-size="23.0" fill="#91908B" transform="matrix(1.00, 0.00, -0.00, -1.00, 600.4, 6.3)">e</text><text xml:space="preserve" font-family="Helvetica-LightOblique,Helvetica" font-style="italic" font-size="23.0" fill="#91908B" transform="matrix(1.00, 0.00, -0.00, -1.00, 613.2, 6.3)">x</text><text xml:space="preserve" font-family="Helvetica-LightOblique,Helvetica" font-style="italic" font-size="23.0" fill="#91908B" transform="matrix(1.00, 0.00, -0.00, -1.00, 624.7, 6.3)">i</text><text xml:space="preserve" font-family="Helvetica-LightOblique,Helvetica" font-style="italic" font-size="23.0" fill="#91908B" transform="matrix(1.00, 0.00, -0.00, -1.00, 629.8, 6.3)">s</text><text xml:space="preserve" font-family="Helvetica-LightOblique,Helvetica" font-style="italic" font-size="23.0" fill="#91908B" transform="matrix(1.00, 0.00, -0.00, -1.00, 641.3, 6.3)">t</text><g><clipPath id="clip0x6000020a6540"><path d="M -0.5 3.0 L 647.7 3.0 L 647.7 6.1 L -0.5 6.1 Z M -0.5 3.0 "></path></clipPath><g clip-path="url(#clip0x6000020a6540)"><path d="M 4.0 28.4 L 651.2 28.4 " fill="none" stroke="#91908B" stroke-width="1.15" transform="matrix(1.00, 0.00, 0.00, -1.00, -3.5, 33.0)"></path></g></g></g></svg>