<?xml version="1.0" encoding="UTF-8" standalone="no"?><svg xmlns="http://www.w3.org/2000/svg" xmlns:xlink="http://www.w3.org/1999/xlink" clip-rule="evenodd" stroke-miterlimit="10" viewBox="0 0 480 28"><desc>SVG generated by Keynote</desc><defs></defs><g transform="matrix(1.00, 0.00, -0.00, -1.00, 0.0, 28.0)"><text xml:space="preserve" font-family="ProximaNova-Semibold,Proxima Nova" font-weight="bold" font-size="36.0" fill="#FEFFFF" transform="matrix(1.00, 0.00, -0.00, -1.00, -1.0, 2.1)">M</text><text xml:space="preserve" font-family="ProximaNova-Semibold,Proxima Nova" font-weight="bold" font-size="36.0" fill="#FEFFFF" transform="matrix(1.00, 0.00, -0.00, -1.00, 29.1, 2.1)">e</text><text xml:space="preserve" font-family="ProximaNova-Semibold,Proxima Nova" font-weight="bold" font-size="36.0" fill="#FEFFFF" transform="matrix(1.00, 0.00, -0.00, -1.00, 49.2, 2.1)">t</text><text xml:space="preserve" font-family="ProximaNova-Semibold,Proxima Nova" font-weight="bold" font-size="36.0" fill="#FEFFFF" transform="matrix(1.00, 0.00, -0.00, -1.00, 60.6, 2.1)">a</text><text xml:space="preserve" font-family="ProximaNova-Semibold,Proxima Nova" font-weight="bold" font-size="36.0" fill="#FEFFFF" transform="matrix(1.00, 0.00, -0.00, -1.00, 80.0, 2.1)">d</text><text xml:space="preserve" font-family="ProximaNova-Semibold,Proxima Nova" font-weight="bold" font-size="36.0" fill="#FEFFFF" transform="matrix(1.00, 0.00, -0.00, -1.00, 100.9, 2.1)">a</text><text xml:space="preserve" font-family="ProximaNova-Semibold,Proxima Nova" font-weight="bold" font-size="36.0" fill="#FEFFFF" transform="matrix(1.00, 0.00, -0.00, -1.00, 120.2, 2.1)">t</text><text xml:space="preserve" font-family="ProximaNova-Semibold,Proxima Nova" font-weight="bold" font-size="36.0" fill="#FEFFFF" transform="matrix(1.00, 0.00, -0.00, -1.00, 131.7, 2.1)">a</text><text xml:space="preserve" font-family="ProximaNova-Semibold,Proxima Nova" font-weight="bold" font-size="36.0" fill="#FEFFFF" transform="matrix(1.00, 0.00, -0.00, -1.00, 151.0, 2.1)"> </text><text xml:space="preserve" font-family="ProximaNova-Semibold,Proxima Nova" font-weight="bold" font-size="36.0" fill="#FEFFFF" transform="matrix(1.00, 0.00, -0.00, -1.00, 160.3, 2.1)">i</text><text xml:space="preserve" font-family="ProximaNova-Semibold,Proxima Nova" font-weight="bold" font-size="36.0" fill="#FEFFFF" transform="matrix(1.00, 0.00, -0.00, -1.00, 169.0, 2.1)">n</text><text xml:space="preserve" font-family="ProximaNova-Semibold,Proxima Nova" font-weight="bold" font-size="36.0" fill="#FEFFFF" transform="matrix(1.00, 0.00, -0.00, -1.00, 189.4, 2.1)">s</text><text xml:space="preserve" font-family="ProximaNova-Semibold,Proxima Nova" font-weight="bold" font-size="36.0" fill="#FEFFFF" transform="matrix(1.00, 0.00, -0.00, -1.00, 206.4, 2.1)">i</text><text xml:space="preserve" font-family="ProximaNova-Semibold,Proxima Nova" font-weight="bold" font-size="36.0" fill="#FEFFFF" transform="matrix(1.00, 0.00, -0.00, -1.00, 215.1, 2.1)">d</text><text xml:space="preserve" font-family="ProximaNova-Semibold,Proxima Nova" font-weight="bold" font-size="36.0" fill="#FEFFFF" transform="matrix(1.00, 0.00, -0.00, -1.00, 236.0, 2.1)">e</text><text xml:space="preserve" font-family="ProximaNova-Semibold,Proxima Nova" font-weight="bold" font-size="36.0" fill="#FEFFFF" transform="matrix(1.00, 0.00, -0.00, -1.00, 256.1, 2.1)"> </text><text xml:space="preserve" font-family="ProximaNova-Semibold,Proxima Nova" font-weight="bold" font-size="36.0" fill="#FEFFFF" transform="matrix(1.00, 0.00, -0.00, -1.00, 265.4, 2.1)">o</text><text xml:space="preserve" font-family="ProximaNova-Semibold,Proxima Nova" font-weight="bold" font-size="36.0" fill="#FEFFFF" transform="matrix(1.00, 0.00, -0.00, -1.00, 286.0, 2.1)">f</text><text xml:space="preserve" font-family="ProximaNova-Semibold,Proxima Nova" font-weight="bold" font-size="36.0" fill="#FEFFFF" transform="matrix(1.00, 0.00, -0.00, -1.00, 297.2, 2.1)"> </text><text xml:space="preserve" font-family="ProximaNova-Semibold,Proxima Nova" font-weight="bold" font-size="36.0" fill="#FEFFFF" transform="matrix(1.00, 0.00, -0.00, -1.00, 306.4, 2.1)">d</text><text xml:space="preserve" font-family="ProximaNova-Semibold,Proxima Nova" font-weight="bold" font-size="36.0" fill="#FEFFFF" transform="matrix(1.00, 0.00, -0.00, -1.00, 327.4, 2.1)">o</text><text xml:space="preserve" font-family="ProximaNova-Semibold,Proxima Nova" font-weight="bold" font-size="36.0" fill="#FEFFFF" transform="matrix(1.00, 0.00, -0.00, -1.00, 348.0, 2.1)">c</text><text xml:space="preserve" font-family="ProximaNova-Semibold,Proxima Nova" font-weight="bold" font-size="36.0" fill="#FEFFFF" transform="matrix(1.00, 0.00, -0.00, -1.00, 366.0, 2.1)">b</text><text xml:space="preserve" font-family="ProximaNova-Semibold,Proxima Nova" font-weight="bold" font-size="36.0" fill="#FEFFFF" transform="matrix(1.00, 0.00, -0.00, -1.00, 386.9, 2.1)">l</text><text xml:space="preserve" font-family="ProximaNova-Semibold,Proxima Nova" font-weight="bold" font-size="36.0" fill="#FEFFFF" transform="matrix(1.00, 0.00, -0.00, -1.00, 395.5, 2.1)">o</text><text xml:space="preserve" font-family="ProximaNova-Semibold,Proxima Nova" font-weight="bold" font-size="36.0" fill="#FEFFFF" transform="matrix(1.00, 0.00, -0.00, -1.00, 416.2, 2.1)">c</text><text xml:space="preserve" font-family="ProximaNova-Semibold,Proxima Nova" font-weight="bold" font-size="36.0" fill="#FEFFFF" transform="matrix(1.00, 0.00, -0.00, -1.00, 434.1, 2.1)">k</text><text xml:space="preserve" font-family="ProximaNova-Semibold,Proxima Nova" font-weight="bold" font-size="36.0" fill="#FEFFFF" transform="matrix(1.00, 0.00, -0.00, -1.00, 453.1, 2.1)">s</text><text xml:space="preserve" font-family="ProximaNova-Semibold,Proxima Nova" font-weight="bold" font-size="36.0" fill="#FEFFFF" transform="matrix(1.00, 0.00, -0.00, -1.00, 470.1, 2.1)">.</text></g></svg>