<?xml version="1.0" encoding="UTF-8" standalone="no"?><svg xmlns="http://www.w3.org/2000/svg" xmlns:xlink="http://www.w3.org/1999/xlink" clip-rule="evenodd" stroke-miterlimit="10" viewBox="0 0 784 33"><desc>SVG generated by Keynote</desc><defs></defs><g transform="matrix(1.00, 0.00, -0.00, -1.00, 0.0, 33.0)"><text xml:space="preserve" font-family="Helvetica-LightOblique,Helvetica" font-style="italic" font-size="31.0" fill="#FEFFFE" transform="matrix(1.00, 0.00, -0.00, -1.00, 0.2, 8.1)">2</text><text xml:space="preserve" font-family="Helvetica-LightOblique,Helvetica" font-style="italic" font-size="31.0" fill="#FEFFFE" transform="matrix(1.00, 0.00, -0.00, -1.00, 17.4, 8.1)">.</text><text xml:space="preserve" font-family="Helvetica-LightOblique,Helvetica" font-style="italic" font-size="31.0" fill="#FEFFFE" transform="matrix(1.00, 0.00, -0.00, -1.00, 42.6, 8.1)">D</text><text xml:space="preserve" font-family="Helvetica-LightOblique,Helvetica" font-style="italic" font-size="31.0" fill="#FEFFFE" transform="matrix(1.00, 0.00, -0.00, -1.00, 65.0, 8.1)">i</text><text xml:space="preserve" font-family="Helvetica-LightOblique,Helvetica" font-style="italic" font-size="31.0" fill="#FEFFFE" transform="matrix(1.00, 0.00, -0.00, -1.00, 71.9, 8.1)">r</text><text xml:space="preserve" font-family="Helvetica-LightOblique,Helvetica" font-style="italic" font-size="31.0" fill="#FEFFFE" transform="matrix(1.00, 0.00, -0.00, -1.00, 81.6, 8.1)">e</text><text xml:space="preserve" font-family="Helvetica-LightOblique,Helvetica" font-style="italic" font-size="31.0" fill="#FEFFFE" transform="matrix(1.00, 0.00, -0.00, -1.00, 98.9, 8.1)">c</text><text xml:space="preserve" font-family="Helvetica-LightOblique,Helvetica" font-style="italic" font-size="31.0" fill="#FEFFFE" transform="matrix(1.00, 0.00, -0.00, -1.00, 116.1, 8.1)">t</text><text xml:space="preserve" font-family="Helvetica-LightOblique,Helvetica" font-style="italic" font-size="31.0" fill="#FEFFFE" transform="matrix(1.00, 0.00, -0.00, -1.00, 124.7, 8.1)">o</text><text xml:space="preserve" font-family="Helvetica-LightOblique,Helvetica" font-style="italic" font-size="31.0" fill="#FEFFFE" transform="matrix(1.00, 0.00, -0.00, -1.00, 142.0, 8.1)">r</text><text xml:space="preserve" font-family="Helvetica-LightOblique,Helvetica" font-style="italic" font-size="31.0" fill="#FEFFFE" transform="matrix(1.00, 0.00, -0.00, -1.00, 152.8, 8.1)">y</text><text xml:space="preserve" font-family="Helvetica-LightOblique,Helvetica" font-style="italic" font-size="31.0" fill="#FEFFFE" transform="matrix(1.00, 0.00, -0.00, -1.00, 168.3, 8.1)"> </text><text xml:space="preserve" font-family="Helvetica-LightOblique,Helvetica" font-style="italic" font-size="31.0" fill="#FEFFFE" transform="matrix(1.00, 0.00, -0.00, -1.00, 177.0, 8.1)">s</text><text xml:space="preserve" font-family="Helvetica-LightOblique,Helvetica" font-style="italic" font-size="31.0" fill="#FEFFFE" transform="matrix(1.00, 0.00, -0.00, -1.00, 192.5, 8.1)">t</text><text xml:space="preserve" font-family="Helvetica-LightOblique,Helvetica" font-style="italic" font-size="31.0" fill="#FEFFFE" transform="matrix(1.00, 0.00, -0.00, -1.00, 201.1, 8.1)">r</text><text xml:space="preserve" font-family="Helvetica-LightOblique,Helvetica" font-style="italic" font-size="31.0" fill="#FEFFFE" transform="matrix(1.00, 0.00, -0.00, -1.00, 211.4, 8.1)">u</text><text xml:space="preserve" font-family="Helvetica-LightOblique,Helvetica" font-style="italic" font-size="31.0" fill="#FEFFFE" transform="matrix(1.00, 0.00, -0.00, -1.00, 228.6, 8.1)">c</text><text xml:space="preserve" font-family="Helvetica-LightOblique,Helvetica" font-style="italic" font-size="31.0" fill="#FEFFFE" transform="matrix(1.00, 0.00, -0.00, -1.00, 245.9, 8.1)">t</text><text xml:space="preserve" font-family="Helvetica-LightOblique,Helvetica" font-style="italic" font-size="31.0" fill="#FEFFFE" transform="matrix(1.00, 0.00, -0.00, -1.00, 254.5, 8.1)">u</text><text xml:space="preserve" font-family="Helvetica-LightOblique,Helvetica" font-style="italic" font-size="31.0" fill="#FEFFFE" transform="matrix(1.00, 0.00, -0.00, -1.00, 271.7, 8.1)">r</text><text xml:space="preserve" font-family="Helvetica-LightOblique,Helvetica" font-style="italic" font-size="31.0" fill="#FEFFFE" transform="matrix(1.00, 0.00, -0.00, -1.00, 281.5, 8.1)">e</text><text xml:space="preserve" font-family="Helvetica-LightOblique,Helvetica" font-style="italic" font-size="31.0" fill="#FEFFFE" transform="matrix(1.00, 0.00, -0.00, -1.00, 298.7, 8.1)"> </text><text xml:space="preserve" font-family="Helvetica-LightOblique,Helvetica" font-style="italic" font-size="31.0" fill="#FEFFFE" transform="matrix(1.00, 0.00, -0.00, -1.00, 307.3, 8.1)">m</text><text xml:space="preserve" font-family="Helvetica-LightOblique,Helvetica" font-style="italic" font-size="31.0" fill="#FEFFFE" transform="matrix(1.00, 0.00, -0.00, -1.00, 333.2, 8.1)">u</text><text xml:space="preserve" font-family="Helvetica-LightOblique,Helvetica" font-style="italic" font-size="31.0" fill="#FEFFFE" transform="matrix(1.00, 0.00, -0.00, -1.00, 350.4, 8.1)">s</text><text xml:space="preserve" font-family="Helvetica-LightOblique,Helvetica" font-style="italic" font-size="31.0" fill="#FEFFFE" transform="matrix(1.00, 0.00, -0.00, -1.00, 365.9, 8.1)">t</text><text xml:space="preserve" font-family="Helvetica-LightOblique,Helvetica" font-style="italic" font-size="31.0" fill="#FEFFFE" transform="matrix(1.00, 0.00, -0.00, -1.00, 374.5, 8.1)"> </text><text xml:space="preserve" font-family="Helvetica-LightOblique,Helvetica" font-style="italic" font-size="31.0" fill="#FEFFFE" transform="matrix(1.00, 0.00, -0.00, -1.00, 383.1, 8.1)">m</text><text xml:space="preserve" font-family="Helvetica-LightOblique,Helvetica" font-style="italic" font-size="31.0" fill="#FEFFFE" transform="matrix(1.00, 0.00, -0.00, -1.00, 409.0, 8.1)">a</text><text xml:space="preserve" font-family="Helvetica-LightOblique,Helvetica" font-style="italic" font-size="31.0" fill="#FEFFFE" transform="matrix(1.00, 0.00, -0.00, -1.00, 426.2, 8.1)">t</text><text xml:space="preserve" font-family="Helvetica-LightOblique,Helvetica" font-style="italic" font-size="31.0" fill="#FEFFFE" transform="matrix(1.00, 0.00, -0.00, -1.00, 434.8, 8.1)">c</text><text xml:space="preserve" font-family="Helvetica-LightOblique,Helvetica" font-style="italic" font-size="31.0" fill="#FEFFFE" transform="matrix(1.00, 0.00, -0.00, -1.00, 452.0, 8.1)">h</text><text xml:space="preserve" font-family="Helvetica-LightOblique,Helvetica" font-style="italic" font-size="31.0" fill="#FEFFFE" transform="matrix(1.00, 0.00, -0.00, -1.00, 469.3, 8.1)"> </text><text xml:space="preserve" font-family="Helvetica-LightOblique,Helvetica" font-style="italic" font-size="31.0" fill="#FEFFFE" transform="matrix(1.00, 0.00, -0.00, -1.00, 477.9, 8.1)">n</text><text xml:space="preserve" font-family="Helvetica-LightOblique,Helvetica" font-style="italic" font-size="31.0" fill="#FEFFFE" transform="matrix(1.00, 0.00, -0.00, -1.00, 495.1, 8.1)">a</text><text xml:space="preserve" font-family="Helvetica-LightOblique,Helvetica" font-style="italic" font-size="31.0" fill="#FEFFFE" transform="matrix(1.00, 0.00, -0.00, -1.00, 512.4, 8.1)">m</text><text xml:space="preserve" font-family="Helvetica-LightOblique,Helvetica" font-style="italic" font-size="31.0" fill="#FEFFFE" transform="matrix(1.00, 0.00, -0.00, -1.00, 538.2, 8.1)">e</text><text xml:space="preserve" font-family="Helvetica-LightOblique,Helvetica" font-style="italic" font-size="31.0" fill="#FEFFFE" transform="matrix(1.00, 0.00, -0.00, -1.00, 555.4, 8.1)">s</text><text xml:space="preserve" font-family="Helvetica-LightOblique,Helvetica" font-style="italic" font-size="31.0" fill="#FEFFFE" transform="matrix(1.00, 0.00, -0.00, -1.00, 570.9, 8.1)">p</text><text xml:space="preserve" font-family="Helvetica-LightOblique,Helvetica" font-style="italic" font-size="31.0" fill="#FEFFFE" transform="matrix(1.00, 0.00, -0.00, -1.00, 589.9, 8.1)">a</text><text xml:space="preserve" font-family="Helvetica-LightOblique,Helvetica" font-style="italic" font-size="31.0" fill="#FEFFFE" transform="matrix(1.00, 0.00, -0.00, -1.00, 607.1, 8.1)">c</text><text xml:space="preserve" font-family="Helvetica-LightOblique,Helvetica" font-style="italic" font-size="31.0" fill="#FEFFFE" transform="matrix(1.00, 0.00, -0.00, -1.00, 624.3, 8.1)">e</text><text xml:space="preserve" font-family="Helvetica-LightOblique,Helvetica" font-style="italic" font-size="31.0" fill="#FEFFFE" transform="matrix(1.00, 0.00, -0.00, -1.00, 641.6, 8.1)"> </text><text xml:space="preserve" font-family="Helvetica-LightOblique,Helvetica" font-style="italic" font-size="31.0" fill="#FEFFFE" transform="matrix(1.00, 0.00, -0.00, -1.00, 650.2, 8.1)">f</text><text xml:space="preserve" font-family="Helvetica-LightOblique,Helvetica" font-style="italic" font-size="31.0" fill="#FEFFFE" transform="matrix(1.00, 0.00, -0.00, -1.00, 658.8, 8.1)">o</text><text xml:space="preserve" font-family="Helvetica-LightOblique,Helvetica" font-style="italic" font-size="31.0" fill="#FEFFFE" transform="matrix(1.00, 0.00, -0.00, -1.00, 676.1, 8.1)">r</text><text xml:space="preserve" font-family="Helvetica-LightOblique,Helvetica" font-style="italic" font-size="31.0" fill="#FEFFFE" transform="matrix(1.00, 0.00, -0.00, -1.00, 686.4, 8.1)"> </text><text xml:space="preserve" font-family="Helvetica-LightOblique,Helvetica" font-style="italic" font-size="31.0" fill="#FEFFFE" transform="matrix(1.00, 0.00, -0.00, -1.00, 695.0, 8.1)">p</text><text xml:space="preserve" font-family="Helvetica-LightOblique,Helvetica" font-style="italic" font-size="31.0" fill="#FEFFFE" transform="matrix(1.00, 0.00, -0.00, -1.00, 713.9, 8.1)">l</text><text xml:space="preserve" font-family="Helvetica-LightOblique,Helvetica" font-style="italic" font-size="31.0" fill="#FEFFFE" transform="matrix(1.00, 0.00, -0.00, -1.00, 720.8, 8.1)">u</text><text xml:space="preserve" font-family="Helvetica-LightOblique,Helvetica" font-style="italic" font-size="31.0" fill="#FEFFFE" transform="matrix(1.00, 0.00, -0.00, -1.00, 738.1, 8.1)">g</text><text xml:space="preserve" font-family="Helvetica-LightOblique,Helvetica" font-style="italic" font-size="31.0" fill="#FEFFFE" transform="matrix(1.00, 0.00, -0.00, -1.00, 757.0, 8.1)">i</text><text xml:space="preserve" font-family="Helvetica-LightOblique,Helvetica" font-style="italic" font-size="31.0" fill="#FEFFFE" transform="matrix(1.00, 0.00, -0.00, -1.00, 763.9, 8.1)">n</text></g></svg>