<?xml version="1.0" encoding="UTF-8" standalone="no"?><svg xmlns="http://www.w3.org/2000/svg" xmlns:xlink="http://www.w3.org/1999/xlink" clip-rule="evenodd" stroke-miterlimit="10" viewBox="0 0 1024 768"><desc>SVG generated by Keynote</desc><defs></defs><g transform="matrix(1.00, 0.00, -0.00, -1.00, 0.0, 768.0)"><path d="M 0.0 768.0 L 1024.0 768.0 L 1024.0 0.0 L 0.0 0.0 Z M 0.0 768.0 " fill="#000000"></path><g opacity="0.30"><g><clipPath id="clip0x6080018af300"><path d="M 0.0 0.0 L 1024.0 0.0 L 1024.0 768.0 L 0.0 768.0 Z M 0.0 0.0 "></path></clipPath><g clip-path="url(#clip0x6080018af300)"><image xlink:href="B116A8DAB29BF25D36EC284B4D3134B4.jpeg" width="1024.00" height="681.00" transform="matrix(1.12, 0.00, -0.00, -1.13, 0.0, 768.0)"></image></g></g></g><text xml:space="preserve" font-family="ProximaNova-Semibold,Proxima Nova" font-weight="bold" font-size="40.0" fill="#FEFFFF" transform="matrix(1.00, 0.00, -0.00, -1.00, 31.1, 695.4)">A</text><text xml:space="preserve" font-family="ProximaNova-Semibold,Proxima Nova" font-weight="bold" font-size="40.0" fill="#FEFFFF" transform="matrix(1.00, 0.00, -0.00, -1.00, 58.0, 695.4)">n</text><text xml:space="preserve" font-family="ProximaNova-Semibold,Proxima Nova" font-weight="bold" font-size="40.0" fill="#FEFFFF" transform="matrix(1.00, 0.00, -0.00, -1.00, 80.8, 695.4)">n</text><text xml:space="preserve" font-family="ProximaNova-Semibold,Proxima Nova" font-weight="bold" font-size="40.0" fill="#FEFFFF" transform="matrix(1.00, 0.00, -0.00, -1.00, 103.5, 695.4)">o</text><text xml:space="preserve" font-family="ProximaNova-Semibold,Proxima Nova" font-weight="bold" font-size="40.0" fill="#FEFFFF" transform="matrix(1.00, 0.00, -0.00, -1.00, 126.4, 695.4)">t</text><text xml:space="preserve" font-family="ProximaNova-Semibold,Proxima Nova" font-weight="bold" font-size="40.0" fill="#FEFFFF" transform="matrix(1.00, 0.00, -0.00, -1.00, 139.2, 695.4)">a</text><text xml:space="preserve" font-family="ProximaNova-Semibold,Proxima Nova" font-weight="bold" font-size="40.0" fill="#FEFFFF" transform="matrix(1.00, 0.00, -0.00, -1.00, 160.7, 695.4)">t</text><text xml:space="preserve" font-family="ProximaNova-Semibold,Proxima Nova" font-weight="bold" font-size="40.0" fill="#FEFFFF" transform="matrix(1.00, 0.00, -0.00, -1.00, 173.4, 695.4)">i</text><text xml:space="preserve" font-family="ProximaNova-Semibold,Proxima Nova" font-weight="bold" font-size="40.0" fill="#FEFFFF" transform="matrix(1.00, 0.00, -0.00, -1.00, 183.1, 695.4)">o</text><text xml:space="preserve" font-family="ProximaNova-Semibold,Proxima Nova" font-weight="bold" font-size="40.0" fill="#FEFFFF" transform="matrix(1.00, 0.00, -0.00, -1.00, 206.0, 695.4)">n</text><text xml:space="preserve" font-family="ProximaNova-Semibold,Proxima Nova" font-weight="bold" font-size="40.0" fill="#FEFFFF" transform="matrix(1.00, 0.00, -0.00, -1.00, 228.8, 695.4)">s</text><text xml:space="preserve" font-family="Helvetica-LightOblique,Helvetica" font-style="italic" font-size="23.0" fill="#91908B" transform="matrix(1.00, 0.00, -0.00, -1.00, 13.5, 21.3)">h</text><text xml:space="preserve" font-family="Helvetica-LightOblique,Helvetica" font-style="italic" font-size="23.0" fill="#91908B" transform="matrix(1.00, 0.00, -0.00, -1.00, 26.3, 21.3)">t</text><text xml:space="preserve" font-family="Helvetica-LightOblique,Helvetica" font-style="italic" font-size="23.0" fill="#91908B" transform="matrix(1.00, 0.00, -0.00, -1.00, 32.7, 21.3)">t</text><text xml:space="preserve" font-family="Helvetica-LightOblique,Helvetica" font-style="italic" font-size="23.0" fill="#91908B" transform="matrix(1.00, 0.00, -0.00, -1.00, 39.0, 21.3)">p</text><text xml:space="preserve" font-family="Helvetica-LightOblique,Helvetica" font-style="italic" font-size="23.0" fill="#91908B" transform="matrix(1.00, 0.00, -0.00, -1.00, 53.1, 21.3)">:</text><text xml:space="preserve" font-family="Helvetica-LightOblique,Helvetica" font-style="italic" font-size="23.0" fill="#91908B" transform="matrix(1.00, 0.00, -0.00, -1.00, 59.5, 21.3)">/</text><text xml:space="preserve" font-family="Helvetica-LightOblique,Helvetica" font-style="italic" font-size="23.0" fill="#91908B" transform="matrix(1.00, 0.00, -0.00, -1.00, 65.9, 21.3)">/</text><text xml:space="preserve" font-family="Helvetica-LightOblique,Helvetica" font-style="italic" font-size="23.0" fill="#91908B" transform="matrix(1.00, 0.00, -0.00, -1.00, 72.3, 21.3)">w</text><text xml:space="preserve" font-family="Helvetica-LightOblique,Helvetica" font-style="italic" font-size="23.0" fill="#91908B" transform="matrix(1.00, 0.00, -0.00, -1.00, 88.9, 21.3)">w</text><text xml:space="preserve" font-family="Helvetica-LightOblique,Helvetica" font-style="italic" font-size="23.0" fill="#91908B" transform="matrix(1.00, 0.00, -0.00, -1.00, 105.5, 21.3)">w</text><text xml:space="preserve" font-family="Helvetica-LightOblique,Helvetica" font-style="italic" font-size="23.0" fill="#91908B" transform="matrix(1.00, 0.00, -0.00, -1.00, 120.8, 21.3)">.</text><text xml:space="preserve" font-family="Helvetica-LightOblique,Helvetica" font-style="italic" font-size="23.0" fill="#91908B" transform="matrix(1.00, 0.00, -0.00, -1.00, 127.2, 21.3)">s</text><text xml:space="preserve" font-family="Helvetica-LightOblique,Helvetica" font-style="italic" font-size="23.0" fill="#91908B" transform="matrix(1.00, 0.00, -0.00, -1.00, 138.7, 21.3)">l</text><text xml:space="preserve" font-family="Helvetica-LightOblique,Helvetica" font-style="italic" font-size="23.0" fill="#91908B" transform="matrix(1.00, 0.00, -0.00, -1.00, 143.8, 21.3)">i</text><text xml:space="preserve" font-family="Helvetica-LightOblique,Helvetica" font-style="italic" font-size="23.0" fill="#91908B" transform="matrix(1.00, 0.00, -0.00, -1.00, 148.9, 21.3)">d</text><text xml:space="preserve" font-family="Helvetica-LightOblique,Helvetica" font-style="italic" font-size="23.0" fill="#91908B" transform="matrix(1.00, 0.00, -0.00, -1.00, 163.0, 21.3)">e</text><text xml:space="preserve" font-family="Helvetica-LightOblique,Helvetica" font-style="italic" font-size="23.0" fill="#91908B" transform="matrix(1.00, 0.00, -0.00, -1.00, 175.8, 21.3)">s</text><text xml:space="preserve" font-family="Helvetica-LightOblique,Helvetica" font-style="italic" font-size="23.0" fill="#91908B" transform="matrix(1.00, 0.00, -0.00, -1.00, 187.3, 21.3)">h</text><text xml:space="preserve" font-family="Helvetica-LightOblique,Helvetica" font-style="italic" font-size="23.0" fill="#91908B" transform="matrix(1.00, 0.00, -0.00, -1.00, 200.1, 21.3)">a</text><text xml:space="preserve" font-family="Helvetica-LightOblique,Helvetica" font-style="italic" font-size="23.0" fill="#91908B" transform="matrix(1.00, 0.00, -0.00, -1.00, 212.9, 21.3)">r</text><text xml:space="preserve" font-family="Helvetica-LightOblique,Helvetica" font-style="italic" font-size="23.0" fill="#91908B" transform="matrix(1.00, 0.00, -0.00, -1.00, 220.1, 21.3)">e</text><text xml:space="preserve" font-family="Helvetica-LightOblique,Helvetica" font-style="italic" font-size="23.0" fill="#91908B" transform="matrix(1.00, 0.00, -0.00, -1.00, 232.9, 21.3)">.</text><text xml:space="preserve" font-family="Helvetica-LightOblique,Helvetica" font-style="italic" font-size="23.0" fill="#91908B" transform="matrix(1.00, 0.00, -0.00, -1.00, 239.3, 21.3)">n</text><text xml:space="preserve" font-family="Helvetica-LightOblique,Helvetica" font-style="italic" font-size="23.0" fill="#91908B" transform="matrix(1.00, 0.00, -0.00, -1.00, 252.1, 21.3)">e</text><text xml:space="preserve" font-family="Helvetica-LightOblique,Helvetica" font-style="italic" font-size="23.0" fill="#91908B" transform="matrix(1.00, 0.00, -0.00, -1.00, 264.9, 21.3)">t</text><text xml:space="preserve" font-family="Helvetica-LightOblique,Helvetica" font-style="italic" font-size="23.0" fill="#91908B" transform="matrix(1.00, 0.00, -0.00, -1.00, 271.3, 21.3)">/</text><text xml:space="preserve" font-family="Helvetica-LightOblique,Helvetica" font-style="italic" font-size="23.0" fill="#91908B" transform="matrix(1.00, 0.00, -0.00, -1.00, 277.7, 21.3)">r</text><text xml:space="preserve" font-family="Helvetica-LightOblique,Helvetica" font-style="italic" font-size="23.0" fill="#91908B" transform="matrix(1.00, 0.00, -0.00, -1.00, 284.9, 21.3)">d</text><text xml:space="preserve" font-family="Helvetica-LightOblique,Helvetica" font-style="italic" font-size="23.0" fill="#91908B" transform="matrix(1.00, 0.00, -0.00, -1.00, 298.9, 21.3)">o</text><text xml:space="preserve" font-family="Helvetica-LightOblique,Helvetica" font-style="italic" font-size="23.0" fill="#91908B" transform="matrix(1.00, 0.00, -0.00, -1.00, 311.7, 21.3)">h</text><text xml:space="preserve" font-family="Helvetica-LightOblique,Helvetica" font-style="italic" font-size="23.0" fill="#91908B" transform="matrix(1.00, 0.00, -0.00, -1.00, 324.5, 21.3)">m</text><text xml:space="preserve" font-family="Helvetica-LightOblique,Helvetica" font-style="italic" font-size="23.0" fill="#91908B" transform="matrix(1.00, 0.00, -0.00, -1.00, 343.7, 21.3)">s</text><text xml:space="preserve" font-family="Helvetica-LightOblique,Helvetica" font-style="italic" font-size="23.0" fill="#91908B" transform="matrix(1.00, 0.00, -0.00, -1.00, 355.2, 21.3)">/</text><text xml:space="preserve" font-family="Helvetica-LightOblique,Helvetica" font-style="italic" font-size="23.0" fill="#91908B" transform="matrix(1.00, 0.00, -0.00, -1.00, 361.6, 21.3)">a</text><text xml:space="preserve" font-family="Helvetica-LightOblique,Helvetica" font-style="italic" font-size="23.0" fill="#91908B" transform="matrix(1.00, 0.00, -0.00, -1.00, 374.4, 21.3)">n</text><text xml:space="preserve" font-family="Helvetica-LightOblique,Helvetica" font-style="italic" font-size="23.0" fill="#91908B" transform="matrix(1.00, 0.00, -0.00, -1.00, 387.2, 21.3)">n</text><text xml:space="preserve" font-family="Helvetica-LightOblique,Helvetica" font-style="italic" font-size="23.0" fill="#91908B" transform="matrix(1.00, 0.00, -0.00, -1.00, 399.9, 21.3)">o</text><text xml:space="preserve" font-family="Helvetica-LightOblique,Helvetica" font-style="italic" font-size="23.0" fill="#91908B" transform="matrix(1.00, 0.00, -0.00, -1.00, 412.7, 21.3)">t</text><text xml:space="preserve" font-family="Helvetica-LightOblique,Helvetica" font-style="italic" font-size="23.0" fill="#91908B" transform="matrix(1.00, 0.00, -0.00, -1.00, 419.1, 21.3)">a</text><text xml:space="preserve" font-family="Helvetica-LightOblique,Helvetica" font-style="italic" font-size="23.0" fill="#91908B" transform="matrix(1.00, 0.00, -0.00, -1.00, 431.9, 21.3)">t</text><text xml:space="preserve" font-family="Helvetica-LightOblique,Helvetica" font-style="italic" font-size="23.0" fill="#91908B" transform="matrix(1.00, 0.00, -0.00, -1.00, 438.3, 21.3)">i</text><text xml:space="preserve" font-family="Helvetica-LightOblique,Helvetica" font-style="italic" font-size="23.0" fill="#91908B" transform="matrix(1.00, 0.00, -0.00, -1.00, 443.4, 21.3)">o</text><text xml:space="preserve" font-family="Helvetica-LightOblique,Helvetica" font-style="italic" font-size="23.0" fill="#91908B" transform="matrix(1.00, 0.00, -0.00, -1.00, 456.2, 21.3)">n</text><text xml:space="preserve" font-family="Helvetica-LightOblique,Helvetica" font-style="italic" font-size="23.0" fill="#91908B" transform="matrix(1.00, 0.00, -0.00, -1.00, 469.0, 21.3)">s</text><text xml:space="preserve" font-family="Helvetica-LightOblique,Helvetica" font-style="italic" font-size="23.0" fill="#91908B" transform="matrix(1.00, 0.00, -0.00, -1.00, 480.5, 21.3)">-</text><text xml:space="preserve" font-family="Helvetica-LightOblique,Helvetica" font-style="italic" font-size="23.0" fill="#91908B" transform="matrix(1.00, 0.00, -0.00, -1.00, 488.1, 21.3)">i</text><text xml:space="preserve" font-family="Helvetica-LightOblique,Helvetica" font-style="italic" font-size="23.0" fill="#91908B" transform="matrix(1.00, 0.00, -0.00, -1.00, 493.3, 21.3)">n</text><text xml:space="preserve" font-family="Helvetica-LightOblique,Helvetica" font-style="italic" font-size="23.0" fill="#91908B" transform="matrix(1.00, 0.00, -0.00, -1.00, 506.0, 21.3)">-</text><text xml:space="preserve" font-family="Helvetica-LightOblique,Helvetica" font-style="italic" font-size="23.0" fill="#91908B" transform="matrix(1.00, 0.00, -0.00, -1.00, 513.7, 21.3)">p</text><text xml:space="preserve" font-family="Helvetica-LightOblique,Helvetica" font-style="italic" font-size="23.0" fill="#91908B" transform="matrix(1.00, 0.00, -0.00, -1.00, 527.8, 21.3)">h</text><text xml:space="preserve" font-family="Helvetica-LightOblique,Helvetica" font-style="italic" font-size="23.0" fill="#91908B" transform="matrix(1.00, 0.00, -0.00, -1.00, 540.5, 21.3)">p</text><text xml:space="preserve" font-family="Helvetica-LightOblique,Helvetica" font-style="italic" font-size="23.0" fill="#91908B" transform="matrix(1.00, 0.00, -0.00, -1.00, 554.6, 21.3)">-</text><text xml:space="preserve" font-family="Helvetica-LightOblique,Helvetica" font-style="italic" font-size="23.0" fill="#91908B" transform="matrix(1.00, 0.00, -0.00, -1.00, 562.3, 21.3)">t</text><text xml:space="preserve" font-family="Helvetica-LightOblique,Helvetica" font-style="italic" font-size="23.0" fill="#91908B" transform="matrix(1.00, 0.00, -0.00, -1.00, 568.6, 21.3)">h</text><text xml:space="preserve" font-family="Helvetica-LightOblique,Helvetica" font-style="italic" font-size="23.0" fill="#91908B" transform="matrix(1.00, 0.00, -0.00, -1.00, 581.4, 21.3)">e</text><text xml:space="preserve" font-family="Helvetica-LightOblique,Helvetica" font-style="italic" font-size="23.0" fill="#91908B" transform="matrix(1.00, 0.00, -0.00, -1.00, 594.2, 21.3)">y</text><text xml:space="preserve" font-family="Helvetica-LightOblique,Helvetica" font-style="italic" font-size="23.0" fill="#91908B" transform="matrix(1.00, 0.00, -0.00, -1.00, 605.7, 21.3)">-</text><text xml:space="preserve" font-family="Helvetica-LightOblique,Helvetica" font-style="italic" font-size="23.0" fill="#91908B" transform="matrix(1.00, 0.00, -0.00, -1.00, 613.4, 21.3)">e</text><text xml:space="preserve" font-family="Helvetica-LightOblique,Helvetica" font-style="italic" font-size="23.0" fill="#91908B" transform="matrix(1.00, 0.00, -0.00, -1.00, 626.2, 21.3)">x</text><text xml:space="preserve" font-family="Helvetica-LightOblique,Helvetica" font-style="italic" font-size="23.0" fill="#91908B" transform="matrix(1.00, 0.00, -0.00, -1.00, 637.7, 21.3)">i</text><text xml:space="preserve" font-family="Helvetica-LightOblique,Helvetica" font-style="italic" font-size="23.0" fill="#91908B" transform="matrix(1.00, 0.00, -0.00, -1.00, 642.8, 21.3)">s</text><text xml:space="preserve" font-family="Helvetica-LightOblique,Helvetica" font-style="italic" font-size="23.0" fill="#91908B" transform="matrix(1.00, 0.00, -0.00, -1.00, 654.3, 21.3)">t</text><g><clipPath id="clip0x610001cb2000"><path d="M 12.5 18.0 L 660.7 18.0 L 660.7 21.1 L 12.5 21.1 Z M 12.5 18.0 "></path></clipPath><g clip-path="url(#clip0x610001cb2000)"><path d="M 4.0 28.4 L 651.2 28.4 " fill="none" stroke="#91908B" stroke-width="1.15" transform="matrix(1.00, 0.00, 0.00, -1.00, 9.5, 48.0)"></path></g></g></g></svg>