<?xml version="1.0" encoding="UTF-8" standalone="no"?><svg xmlns="http://www.w3.org/2000/svg" xmlns:xlink="http://www.w3.org/1999/xlink" clip-rule="evenodd" stroke-miterlimit="10" viewBox="0 0 331 30"><desc>SVG generated by Keynote</desc><defs></defs><g transform="matrix(1.00, 0.00, -0.00, -1.00, 0.0, 30.0)"><text xml:space="preserve" font-family="Helvetica-LightOblique,Helvetica" font-style="italic" font-size="23.0" fill="#91908B" transform="matrix(1.00, 0.00, -0.00, -1.00, 0.5, 6.3)">h</text><text xml:space="preserve" font-family="Helvetica-LightOblique,Helvetica" font-style="italic" font-size="23.0" fill="#91908B" transform="matrix(1.00, 0.00, -0.00, -1.00, 13.3, 6.3)">t</text><text xml:space="preserve" font-family="Helvetica-LightOblique,Helvetica" font-style="italic" font-size="23.0" fill="#91908B" transform="matrix(1.00, 0.00, -0.00, -1.00, 19.7, 6.3)">t</text><text xml:space="preserve" font-family="Helvetica-LightOblique,Helvetica" font-style="italic" font-size="23.0" fill="#91908B" transform="matrix(1.00, 0.00, -0.00, -1.00, 26.0, 6.3)">p</text><text xml:space="preserve" font-family="Helvetica-LightOblique,Helvetica" font-style="italic" font-size="23.0" fill="#91908B" transform="matrix(1.00, 0.00, -0.00, -1.00, 40.1, 6.3)">:</text><text xml:space="preserve" font-family="Helvetica-LightOblique,Helvetica" font-style="italic" font-size="23.0" fill="#91908B" transform="matrix(1.00, 0.00, -0.00, -1.00, 46.5, 6.3)">/</text><text xml:space="preserve" font-family="Helvetica-LightOblique,Helvetica" font-style="italic" font-size="23.0" fill="#91908B" transform="matrix(1.00, 0.00, -0.00, -1.00, 52.9, 6.3)">/</text><text xml:space="preserve" font-family="Helvetica-LightOblique,Helvetica" font-style="italic" font-size="23.0" fill="#91908B" transform="matrix(1.00, 0.00, -0.00, -1.00, 59.3, 6.3)">w</text><text xml:space="preserve" font-family="Helvetica-LightOblique,Helvetica" font-style="italic" font-size="23.0" fill="#91908B" transform="matrix(1.00, 0.00, -0.00, -1.00, 75.9, 6.3)">w</text><text xml:space="preserve" font-family="Helvetica-LightOblique,Helvetica" font-style="italic" font-size="23.0" fill="#91908B" transform="matrix(1.00, 0.00, -0.00, -1.00, 92.5, 6.3)">w</text><text xml:space="preserve" font-family="Helvetica-LightOblique,Helvetica" font-style="italic" font-size="23.0" fill="#91908B" transform="matrix(1.00, 0.00, -0.00, -1.00, 107.8, 6.3)">.</text><text xml:space="preserve" font-family="Helvetica-LightOblique,Helvetica" font-style="italic" font-size="23.0" fill="#91908B" transform="matrix(1.00, 0.00, -0.00, -1.00, 114.2, 6.3)">p</text><text xml:space="preserve" font-family="Helvetica-LightOblique,Helvetica" font-style="italic" font-size="23.0" fill="#91908B" transform="matrix(1.00, 0.00, -0.00, -1.00, 128.3, 6.3)">h</text><text xml:space="preserve" font-family="Helvetica-LightOblique,Helvetica" font-style="italic" font-size="23.0" fill="#91908B" transform="matrix(1.00, 0.00, -0.00, -1.00, 141.1, 6.3)">p</text><text xml:space="preserve" font-family="Helvetica-LightOblique,Helvetica" font-style="italic" font-size="23.0" fill="#91908B" transform="matrix(1.00, 0.00, -0.00, -1.00, 155.1, 6.3)">-</text><text xml:space="preserve" font-family="Helvetica-LightOblique,Helvetica" font-style="italic" font-size="23.0" fill="#91908B" transform="matrix(1.00, 0.00, -0.00, -1.00, 162.8, 6.3)">ï¬</text><text xml:space="preserve" font-family="Helvetica-LightOblique,Helvetica" font-style="italic" font-size="23.0" fill="#91908B" transform="matrix(1.00, 0.00, -0.00, -1.00, 174.3, 6.3)">g</text><text xml:space="preserve" font-family="Helvetica-LightOblique,Helvetica" font-style="italic" font-size="23.0" fill="#91908B" transform="matrix(1.00, 0.00, -0.00, -1.00, 188.3, 6.3)">.</text><text xml:space="preserve" font-family="Helvetica-LightOblique,Helvetica" font-style="italic" font-size="23.0" fill="#91908B" transform="matrix(1.00, 0.00, -0.00, -1.00, 194.7, 6.3)">o</text><text xml:space="preserve" font-family="Helvetica-LightOblique,Helvetica" font-style="italic" font-size="23.0" fill="#91908B" transform="matrix(1.00, 0.00, -0.00, -1.00, 207.5, 6.3)">r</text><text xml:space="preserve" font-family="Helvetica-LightOblique,Helvetica" font-style="italic" font-size="23.0" fill="#91908B" transform="matrix(1.00, 0.00, -0.00, -1.00, 215.2, 6.3)">g</text><text xml:space="preserve" font-family="Helvetica-LightOblique,Helvetica" font-style="italic" font-size="23.0" fill="#91908B" transform="matrix(1.00, 0.00, -0.00, -1.00, 229.2, 6.3)">/</text><text xml:space="preserve" font-family="Helvetica-LightOblique,Helvetica" font-style="italic" font-size="23.0" fill="#91908B" transform="matrix(1.00, 0.00, -0.00, -1.00, 235.6, 6.3)">p</text><text xml:space="preserve" font-family="Helvetica-LightOblique,Helvetica" font-style="italic" font-size="23.0" fill="#91908B" transform="matrix(1.00, 0.00, -0.00, -1.00, 249.7, 6.3)">s</text><text xml:space="preserve" font-family="Helvetica-LightOblique,Helvetica" font-style="italic" font-size="23.0" fill="#91908B" transform="matrix(1.00, 0.00, -0.00, -1.00, 261.2, 6.3)">r</text><text xml:space="preserve" font-family="Helvetica-LightOblique,Helvetica" font-style="italic" font-size="23.0" fill="#91908B" transform="matrix(1.00, 0.00, -0.00, -1.00, 268.8, 6.3)">/</text><text xml:space="preserve" font-family="Helvetica-LightOblique,Helvetica" font-style="italic" font-size="23.0" fill="#91908B" transform="matrix(1.00, 0.00, -0.00, -1.00, 275.2, 6.3)">p</text><text xml:space="preserve" font-family="Helvetica-LightOblique,Helvetica" font-style="italic" font-size="23.0" fill="#91908B" transform="matrix(1.00, 0.00, -0.00, -1.00, 289.3, 6.3)">s</text><text xml:space="preserve" font-family="Helvetica-LightOblique,Helvetica" font-style="italic" font-size="23.0" fill="#91908B" transform="matrix(1.00, 0.00, -0.00, -1.00, 300.8, 6.3)">r</text><text xml:space="preserve" font-family="Helvetica-LightOblique,Helvetica" font-style="italic" font-size="23.0" fill="#91908B" transform="matrix(1.00, 0.00, -0.00, -1.00, 307.2, 6.3)">-</text><text xml:space="preserve" font-family="Helvetica-LightOblique,Helvetica" font-style="italic" font-size="23.0" fill="#91908B" transform="matrix(1.00, 0.00, -0.00, -1.00, 314.8, 6.3)">0</text><g><clipPath id="clip0x600001ebcec0"><path d="M -0.5 3.0 L 327.6 3.0 L 327.6 6.1 L -0.5 6.1 Z M -0.5 3.0 "></path></clipPath><g clip-path="url(#clip0x600001ebcec0)"><path d="M 4.0 28.4 L 331.2 28.4 " fill="none" stroke="#91908B" stroke-width="1.15" transform="matrix(1.00, 0.00, 0.00, -1.00, -3.5, 33.0)"></path></g></g></g></svg>