<?xml version="1.0" encoding="UTF-8" standalone="no"?><svg xmlns="http://www.w3.org/2000/svg" xmlns:xlink="http://www.w3.org/1999/xlink" clip-rule="evenodd" stroke-miterlimit="10" viewBox="0 0 1024 768"><desc>SVG generated by Keynote</desc><defs></defs><g transform="matrix(1.00, 0.00, -0.00, -1.00, 0.0, 768.0)"><path d="M 0.0 768.0 L 1024.0 768.0 L 1024.0 0.0 L 0.0 0.0 Z M 0.0 768.0 " fill="#000000"></path><g opacity="0.25"><g><clipPath id="clip0x6000022b0b60"><path d="M 0.0 0.0 L 1024.0 0.0 L 1024.0 768.0 L 0.0 768.0 Z M 0.0 0.0 "></path></clipPath><g clip-path="url(#clip0x6000022b0b60)"><image xlink:href="../../D435484F-3ACA-4666-9DF5-E516FFBCFFCA/assets/9206440AD4F58986B9EC63070E2F9B06.jpeg" width="612.00" height="612.00" transform="matrix(1.67, 0.00, -0.00, -1.67, 0.0, 996.0)"></image></g></g></g><g><clipPath id="clip0x6000022b0b00"><path d="M 6.0 678.5 L 506.8 678.5 L 506.8 739.5 L 6.0 739.5 Z M 6.0 678.5 "></path></clipPath><g clip-path="url(#clip0x6000022b0b00)"><text xml:space="preserve" font-family="ProximaNova-Semibold,Proxima Nova" font-weight="bold" font-size="36.0" fill="#FEFFFF" transform="matrix(1.00, 0.00, -0.00, -1.00, 15.0, 695.1)">D</text><text xml:space="preserve" font-family="ProximaNova-Semibold,Proxima Nova" font-weight="bold" font-size="36.0" fill="#FEFFFF" transform="matrix(1.00, 0.00, -0.00, -1.00, 40.6, 695.1)">e</text><text xml:space="preserve" font-family="ProximaNova-Semibold,Proxima Nova" font-weight="bold" font-size="36.0" fill="#FEFFFF" transform="matrix(1.00, 0.00, -0.00, -1.00, 60.6, 695.1)">r</text><text xml:space="preserve" font-family="ProximaNova-Semibold,Proxima Nova" font-weight="bold" font-size="36.0" fill="#FEFFFF" transform="matrix(1.00, 0.00, -0.00, -1.00, 73.1, 695.1)">i</text><text xml:space="preserve" font-family="ProximaNova-Semibold,Proxima Nova" font-weight="bold" font-size="36.0" fill="#FEFFFF" transform="matrix(1.00, 0.00, -0.00, -1.00, 81.8, 695.1)">v</text><text xml:space="preserve" font-family="ProximaNova-Semibold,Proxima Nova" font-weight="bold" font-size="36.0" fill="#FEFFFF" transform="matrix(1.00, 0.00, -0.00, -1.00, 99.9, 695.1)">a</text><text xml:space="preserve" font-family="ProximaNova-Semibold,Proxima Nova" font-weight="bold" font-size="36.0" fill="#FEFFFF" transform="matrix(1.00, 0.00, -0.00, -1.00, 119.2, 695.1)">t</text><text xml:space="preserve" font-family="ProximaNova-Semibold,Proxima Nova" font-weight="bold" font-size="36.0" fill="#FEFFFF" transform="matrix(1.00, 0.00, -0.00, -1.00, 130.7, 695.1)">i</text><text xml:space="preserve" font-family="ProximaNova-Semibold,Proxima Nova" font-weight="bold" font-size="36.0" fill="#FEFFFF" transform="matrix(1.00, 0.00, -0.00, -1.00, 139.4, 695.1)">v</text><text xml:space="preserve" font-family="ProximaNova-Semibold,Proxima Nova" font-weight="bold" font-size="36.0" fill="#FEFFFF" transform="matrix(1.00, 0.00, -0.00, -1.00, 157.5, 695.1)">e</text><text xml:space="preserve" font-family="ProximaNova-Semibold,Proxima Nova" font-weight="bold" font-size="36.0" fill="#FEFFFF" transform="matrix(1.00, 0.00, -0.00, -1.00, 177.5, 695.1)">D</text><text xml:space="preserve" font-family="ProximaNova-Semibold,Proxima Nova" font-weight="bold" font-size="36.0" fill="#FEFFFF" transform="matrix(1.00, 0.00, -0.00, -1.00, 203.1, 695.1)">i</text><text xml:space="preserve" font-family="ProximaNova-Semibold,Proxima Nova" font-weight="bold" font-size="36.0" fill="#FEFFFF" transform="matrix(1.00, 0.00, -0.00, -1.00, 211.8, 695.1)">s</text><text xml:space="preserve" font-family="ProximaNova-Semibold,Proxima Nova" font-weight="bold" font-size="36.0" fill="#FEFFFF" transform="matrix(1.00, 0.00, -0.00, -1.00, 228.8, 695.1)">c</text><text xml:space="preserve" font-family="ProximaNova-Semibold,Proxima Nova" font-weight="bold" font-size="36.0" fill="#FEFFFF" transform="matrix(1.00, 0.00, -0.00, -1.00, 246.7, 695.1)">o</text><text xml:space="preserve" font-family="ProximaNova-Semibold,Proxima Nova" font-weight="bold" font-size="36.0" fill="#FEFFFF" transform="matrix(1.00, 0.00, -0.00, -1.00, 267.4, 695.1)">v</text><text xml:space="preserve" font-family="ProximaNova-Semibold,Proxima Nova" font-weight="bold" font-size="36.0" fill="#FEFFFF" transform="matrix(1.00, 0.00, -0.00, -1.00, 285.5, 695.1)">e</text><text xml:space="preserve" font-family="ProximaNova-Semibold,Proxima Nova" font-weight="bold" font-size="36.0" fill="#FEFFFF" transform="matrix(1.00, 0.00, -0.00, -1.00, 305.5, 695.1)">r</text><text xml:space="preserve" font-family="ProximaNova-Semibold,Proxima Nova" font-weight="bold" font-size="36.0" fill="#FEFFFF" transform="matrix(1.00, 0.00, -0.00, -1.00, 318.0, 695.1)">y</text><text xml:space="preserve" font-family="ProximaNova-Semibold,Proxima Nova" font-weight="bold" font-size="36.0" fill="#FEFFFF" transform="matrix(1.00, 0.00, -0.00, -1.00, 336.1, 695.1)">D</text><text xml:space="preserve" font-family="ProximaNova-Semibold,Proxima Nova" font-weight="bold" font-size="36.0" fill="#FEFFFF" transform="matrix(1.00, 0.00, -0.00, -1.00, 361.7, 695.1)">e</text><text xml:space="preserve" font-family="ProximaNova-Semibold,Proxima Nova" font-weight="bold" font-size="36.0" fill="#FEFFFF" transform="matrix(1.00, 0.00, -0.00, -1.00, 381.7, 695.1)">c</text><text xml:space="preserve" font-family="ProximaNova-Semibold,Proxima Nova" font-weight="bold" font-size="36.0" fill="#FEFFFF" transform="matrix(1.00, 0.00, -0.00, -1.00, 399.7, 695.1)">o</text><text xml:space="preserve" font-family="ProximaNova-Semibold,Proxima Nova" font-weight="bold" font-size="36.0" fill="#FEFFFF" transform="matrix(1.00, 0.00, -0.00, -1.00, 420.3, 695.1)">r</text><text xml:space="preserve" font-family="ProximaNova-Semibold,Proxima Nova" font-weight="bold" font-size="36.0" fill="#FEFFFF" transform="matrix(1.00, 0.00, -0.00, -1.00, 432.8, 695.1)">a</text><text xml:space="preserve" font-family="ProximaNova-Semibold,Proxima Nova" font-weight="bold" font-size="36.0" fill="#FEFFFF" transform="matrix(1.00, 0.00, -0.00, -1.00, 452.1, 695.1)">t</text><text xml:space="preserve" font-family="ProximaNova-Semibold,Proxima Nova" font-weight="bold" font-size="36.0" fill="#FEFFFF" transform="matrix(1.00, 0.00, -0.00, -1.00, 463.6, 695.1)">o</text><text xml:space="preserve" font-family="ProximaNova-Semibold,Proxima Nova" font-weight="bold" font-size="36.0" fill="#FEFFFF" transform="matrix(1.00, 0.00, -0.00, -1.00, 484.3, 695.1)">r</text></g></g><g><clipPath id="clip0x6000022b22a0"><path d="M 0.0 610.4 L 830.0 610.4 L 830.0 672.4 L 0.0 672.4 Z M 0.0 610.4 "></path></clipPath><g clip-path="url(#clip0x6000022b22a0)"><image xlink:href="../../BC5FBFBA-BFE6-4346-98CD-E22800DAE5D6/assets/91B6D767D50CBB2363F11294316B7CE3.png" width="830.00" height="62.00" transform="matrix(1.00, 0.00, -0.00, -1.00, 0.0, 672.4)"></image></g></g><g><clipPath id="clip0x618001abb4e0"><path d="M 6.0 508.5 L 262.6 508.5 L 262.6 569.5 L 6.0 569.5 Z M 6.0 508.5 "></path></clipPath><g clip-path="url(#clip0x618001abb4e0)"><text xml:space="preserve" font-family="ProximaNova-Semibold,Proxima Nova" font-weight="bold" font-size="36.0" fill="#FEFFFF" transform="matrix(1.00, 0.00, -0.00, -1.00, 15.0, 525.1)">A</text><text xml:space="preserve" font-family="ProximaNova-Semibold,Proxima Nova" font-weight="bold" font-size="36.0" fill="#FEFFFF" transform="matrix(1.00, 0.00, -0.00, -1.00, 39.2, 525.1)">l</text><text xml:space="preserve" font-family="ProximaNova-Semibold,Proxima Nova" font-weight="bold" font-size="36.0" fill="#FEFFFF" transform="matrix(1.00, 0.00, -0.00, -1.00, 47.9, 525.1)">t</text><text xml:space="preserve" font-family="ProximaNova-Semibold,Proxima Nova" font-weight="bold" font-size="36.0" fill="#FEFFFF" transform="matrix(1.00, 0.00, -0.00, -1.00, 59.4, 525.1)">e</text><text xml:space="preserve" font-family="ProximaNova-Semibold,Proxima Nova" font-weight="bold" font-size="36.0" fill="#FEFFFF" transform="matrix(1.00, 0.00, -0.00, -1.00, 79.4, 525.1)">r</text><text xml:space="preserve" font-family="ProximaNova-Semibold,Proxima Nova" font-weight="bold" font-size="36.0" fill="#FEFFFF" transform="matrix(1.00, 0.00, -0.00, -1.00, 91.9, 525.1)">D</text><text xml:space="preserve" font-family="ProximaNova-Semibold,Proxima Nova" font-weight="bold" font-size="36.0" fill="#FEFFFF" transform="matrix(1.00, 0.00, -0.00, -1.00, 117.5, 525.1)">e</text><text xml:space="preserve" font-family="ProximaNova-Semibold,Proxima Nova" font-weight="bold" font-size="36.0" fill="#FEFFFF" transform="matrix(1.00, 0.00, -0.00, -1.00, 137.5, 525.1)">c</text><text xml:space="preserve" font-family="ProximaNova-Semibold,Proxima Nova" font-weight="bold" font-size="36.0" fill="#FEFFFF" transform="matrix(1.00, 0.00, -0.00, -1.00, 155.5, 525.1)">o</text><text xml:space="preserve" font-family="ProximaNova-Semibold,Proxima Nova" font-weight="bold" font-size="36.0" fill="#FEFFFF" transform="matrix(1.00, 0.00, -0.00, -1.00, 176.1, 525.1)">r</text><text xml:space="preserve" font-family="ProximaNova-Semibold,Proxima Nova" font-weight="bold" font-size="36.0" fill="#FEFFFF" transform="matrix(1.00, 0.00, -0.00, -1.00, 188.6, 525.1)">a</text><text xml:space="preserve" font-family="ProximaNova-Semibold,Proxima Nova" font-weight="bold" font-size="36.0" fill="#FEFFFF" transform="matrix(1.00, 0.00, -0.00, -1.00, 208.0, 525.1)">t</text><text xml:space="preserve" font-family="ProximaNova-Semibold,Proxima Nova" font-weight="bold" font-size="36.0" fill="#FEFFFF" transform="matrix(1.00, 0.00, -0.00, -1.00, 219.4, 525.1)">o</text><text xml:space="preserve" font-family="ProximaNova-Semibold,Proxima Nova" font-weight="bold" font-size="36.0" fill="#FEFFFF" transform="matrix(1.00, 0.00, -0.00, -1.00, 240.1, 525.1)">r</text></g></g><g><clipPath id="clip0x618001aa5520"><path d="M 0.0 440.4 L 790.0 440.4 L 790.0 504.4 L 0.0 504.4 Z M 0.0 440.4 "></path></clipPath><g clip-path="url(#clip0x618001aa5520)"><image xlink:href="../../BC5FBFBA-BFE6-4346-98CD-E22800DAE5D6/assets/F3B44AC73E0C495E7A15414FBA2056AB.png" width="790.00" height="64.00" transform="matrix(1.00, 0.00, -0.00, -1.00, 0.0, 504.4)"></image></g></g><g><clipPath id="clip0x610001ab1d60"><path d="M 6.0 157.5 L 288.0 157.5 L 288.0 218.5 L 6.0 218.5 Z M 6.0 157.5 "></path></clipPath><g clip-path="url(#clip0x610001ab1d60)"><text xml:space="preserve" font-family="ProximaNova-Semibold,Proxima Nova" font-weight="bold" font-size="36.0" fill="#FEFFFF" transform="matrix(1.00, 0.00, -0.00, -1.00, 15.0, 174.1)">C</text><text xml:space="preserve" font-family="ProximaNova-Semibold,Proxima Nova" font-weight="bold" font-size="36.0" fill="#FEFFFF" transform="matrix(1.00, 0.00, -0.00, -1.00, 39.6, 174.1)">a</text><text xml:space="preserve" font-family="ProximaNova-Semibold,Proxima Nova" font-weight="bold" font-size="36.0" fill="#FEFFFF" transform="matrix(1.00, 0.00, -0.00, -1.00, 58.9, 174.1)">c</text><text xml:space="preserve" font-family="ProximaNova-Semibold,Proxima Nova" font-weight="bold" font-size="36.0" fill="#FEFFFF" transform="matrix(1.00, 0.00, -0.00, -1.00, 76.8, 174.1)">h</text><text xml:space="preserve" font-family="ProximaNova-Semibold,Proxima Nova" font-weight="bold" font-size="36.0" fill="#FEFFFF" transform="matrix(1.00, 0.00, -0.00, -1.00, 97.3, 174.1)">e</text><text xml:space="preserve" font-family="ProximaNova-Semibold,Proxima Nova" font-weight="bold" font-size="36.0" fill="#FEFFFF" transform="matrix(1.00, 0.00, -0.00, -1.00, 117.3, 174.1)">D</text><text xml:space="preserve" font-family="ProximaNova-Semibold,Proxima Nova" font-weight="bold" font-size="36.0" fill="#FEFFFF" transform="matrix(1.00, 0.00, -0.00, -1.00, 142.9, 174.1)">e</text><text xml:space="preserve" font-family="ProximaNova-Semibold,Proxima Nova" font-weight="bold" font-size="36.0" fill="#FEFFFF" transform="matrix(1.00, 0.00, -0.00, -1.00, 162.9, 174.1)">c</text><text xml:space="preserve" font-family="ProximaNova-Semibold,Proxima Nova" font-weight="bold" font-size="36.0" fill="#FEFFFF" transform="matrix(1.00, 0.00, -0.00, -1.00, 180.9, 174.1)">o</text><text xml:space="preserve" font-family="ProximaNova-Semibold,Proxima Nova" font-weight="bold" font-size="36.0" fill="#FEFFFF" transform="matrix(1.00, 0.00, -0.00, -1.00, 201.5, 174.1)">r</text><text xml:space="preserve" font-family="ProximaNova-Semibold,Proxima Nova" font-weight="bold" font-size="36.0" fill="#FEFFFF" transform="matrix(1.00, 0.00, -0.00, -1.00, 214.0, 174.1)">a</text><text xml:space="preserve" font-family="ProximaNova-Semibold,Proxima Nova" font-weight="bold" font-size="36.0" fill="#FEFFFF" transform="matrix(1.00, 0.00, -0.00, -1.00, 233.3, 174.1)">t</text><text xml:space="preserve" font-family="ProximaNova-Semibold,Proxima Nova" font-weight="bold" font-size="36.0" fill="#FEFFFF" transform="matrix(1.00, 0.00, -0.00, -1.00, 244.8, 174.1)">o</text><text xml:space="preserve" font-family="ProximaNova-Semibold,Proxima Nova" font-weight="bold" font-size="36.0" fill="#FEFFFF" transform="matrix(1.00, 0.00, -0.00, -1.00, 265.5, 174.1)">r</text></g></g><g><clipPath id="clip0x6100018acf00"><path d="M 0.0 86.2 L 1024.0 86.2 L 1024.0 153.4 L 0.0 153.4 Z M 0.0 86.2 "></path></clipPath><g clip-path="url(#clip0x6100018acf00)"><image xlink:href="../../BC5FBFBA-BFE6-4346-98CD-E22800DAE5D6/assets/C1DB4DB0F8651111C16AE2EB05BF12A3.png" width="1036.00" height="68.00" transform="matrix(0.99, 0.00, -0.00, -0.99, 0.0, 153.4)"></image></g></g><g><clipPath id="clip0x6000022b2300"><path d="M 3.0 338.5 L 309.7 338.5 L 309.7 399.5 L 3.0 399.5 Z M 3.0 338.5 "></path></clipPath><g clip-path="url(#clip0x6000022b2300)"><text xml:space="preserve" font-family="ProximaNova-Semibold,Proxima Nova" font-weight="bold" font-size="36.0" fill="#FEFFFF" transform="matrix(1.00, 0.00, -0.00, -1.00, 12.0, 355.1)">P</text><text xml:space="preserve" font-family="ProximaNova-Semibold,Proxima Nova" font-weight="bold" font-size="36.0" fill="#FEFFFF" transform="matrix(1.00, 0.00, -0.00, -1.00, 33.9, 355.1)">r</text><text xml:space="preserve" font-family="ProximaNova-Semibold,Proxima Nova" font-weight="bold" font-size="36.0" fill="#FEFFFF" transform="matrix(1.00, 0.00, -0.00, -1.00, 46.4, 355.1)">o</text><text xml:space="preserve" font-family="ProximaNova-Semibold,Proxima Nova" font-weight="bold" font-size="36.0" fill="#FEFFFF" transform="matrix(1.00, 0.00, -0.00, -1.00, 67.1, 355.1)">c</text><text xml:space="preserve" font-family="ProximaNova-Semibold,Proxima Nova" font-weight="bold" font-size="36.0" fill="#FEFFFF" transform="matrix(1.00, 0.00, -0.00, -1.00, 85.0, 355.1)">e</text><text xml:space="preserve" font-family="ProximaNova-Semibold,Proxima Nova" font-weight="bold" font-size="36.0" fill="#FEFFFF" transform="matrix(1.00, 0.00, -0.00, -1.00, 105.1, 355.1)">s</text><text xml:space="preserve" font-family="ProximaNova-Semibold,Proxima Nova" font-weight="bold" font-size="36.0" fill="#FEFFFF" transform="matrix(1.00, 0.00, -0.00, -1.00, 122.1, 355.1)">s</text><text xml:space="preserve" font-family="ProximaNova-Semibold,Proxima Nova" font-weight="bold" font-size="36.0" fill="#FEFFFF" transform="matrix(1.00, 0.00, -0.00, -1.00, 139.0, 355.1)">D</text><text xml:space="preserve" font-family="ProximaNova-Semibold,Proxima Nova" font-weight="bold" font-size="36.0" fill="#FEFFFF" transform="matrix(1.00, 0.00, -0.00, -1.00, 164.6, 355.1)">e</text><text xml:space="preserve" font-family="ProximaNova-Semibold,Proxima Nova" font-weight="bold" font-size="36.0" fill="#FEFFFF" transform="matrix(1.00, 0.00, -0.00, -1.00, 184.7, 355.1)">c</text><text xml:space="preserve" font-family="ProximaNova-Semibold,Proxima Nova" font-weight="bold" font-size="36.0" fill="#FEFFFF" transform="matrix(1.00, 0.00, -0.00, -1.00, 202.6, 355.1)">o</text><text xml:space="preserve" font-family="ProximaNova-Semibold,Proxima Nova" font-weight="bold" font-size="36.0" fill="#FEFFFF" transform="matrix(1.00, 0.00, -0.00, -1.00, 223.2, 355.1)">r</text><text xml:space="preserve" font-family="ProximaNova-Semibold,Proxima Nova" font-weight="bold" font-size="36.0" fill="#FEFFFF" transform="matrix(1.00, 0.00, -0.00, -1.00, 235.7, 355.1)">a</text><text xml:space="preserve" font-family="ProximaNova-Semibold,Proxima Nova" font-weight="bold" font-size="36.0" fill="#FEFFFF" transform="matrix(1.00, 0.00, -0.00, -1.00, 255.1, 355.1)">t</text><text xml:space="preserve" font-family="ProximaNova-Semibold,Proxima Nova" font-weight="bold" font-size="36.0" fill="#FEFFFF" transform="matrix(1.00, 0.00, -0.00, -1.00, 266.6, 355.1)">o</text><text xml:space="preserve" font-family="ProximaNova-Semibold,Proxima Nova" font-weight="bold" font-size="36.0" fill="#FEFFFF" transform="matrix(1.00, 0.00, -0.00, -1.00, 287.2, 355.1)">r</text></g></g><g><clipPath id="clip0x6000022b2d80"><path d="M -3.0 282.0 L 892.0 282.0 L 892.0 336.0 L -3.0 336.0 Z M -3.0 282.0 "></path></clipPath><g clip-path="url(#clip0x6000022b2d80)"><image xlink:href="../../BC5FBFBA-BFE6-4346-98CD-E22800DAE5D6/assets/8803B9913AA552A46035B6E19CCC0021.png" width="895.00" height="54.00" transform="matrix(1.00, 0.00, -0.00, -1.00, -3.0, 336.0)"></image></g></g></g></svg>