<?xml version="1.0" encoding="UTF-8" standalone="no"?><svg xmlns="http://www.w3.org/2000/svg" xmlns:xlink="http://www.w3.org/1999/xlink" clip-rule="evenodd" stroke-miterlimit="10" viewBox="0 0 528 144"><desc>SVG generated by Keynote</desc><defs></defs><g transform="matrix(1.00, 0.00, -0.00, -1.00, 0.0, 144.0)"><text xml:space="preserve" font-family="Helvetica-LightOblique,Helvetica" font-style="italic" font-size="31.0" fill="#91908B" transform="matrix(1.00, 0.00, -0.00, -1.00, 33.2, 120.1)">A</text><text xml:space="preserve" font-family="Helvetica-LightOblique,Helvetica" font-style="italic" font-size="31.0" fill="#91908B" transform="matrix(1.00, 0.00, -0.00, -1.00, 53.9, 120.1)"> </text><text xml:space="preserve" font-family="Helvetica-LightOblique,Helvetica" font-style="italic" font-size="31.0" fill="#91908B" transform="matrix(1.00, 0.00, -0.00, -1.00, 62.5, 120.1)">d</text><text xml:space="preserve" font-family="Helvetica-LightOblique,Helvetica" font-style="italic" font-size="31.0" fill="#91908B" transform="matrix(1.00, 0.00, -0.00, -1.00, 81.5, 120.1)">i</text><text xml:space="preserve" font-family="Helvetica-LightOblique,Helvetica" font-style="italic" font-size="31.0" fill="#91908B" transform="matrix(1.00, 0.00, -0.00, -1.00, 88.4, 120.1)">s</text><text xml:space="preserve" font-family="Helvetica-LightOblique,Helvetica" font-style="italic" font-size="31.0" fill="#91908B" transform="matrix(1.00, 0.00, -0.00, -1.00, 103.9, 120.1)">c</text><text xml:space="preserve" font-family="Helvetica-LightOblique,Helvetica" font-style="italic" font-size="31.0" fill="#91908B" transform="matrix(1.00, 0.00, -0.00, -1.00, 121.1, 120.1)">r</text><text xml:space="preserve" font-family="Helvetica-LightOblique,Helvetica" font-style="italic" font-size="31.0" fill="#91908B" transform="matrix(1.00, 0.00, -0.00, -1.00, 130.9, 120.1)">e</text><text xml:space="preserve" font-family="Helvetica-LightOblique,Helvetica" font-style="italic" font-size="31.0" fill="#91908B" transform="matrix(1.00, 0.00, -0.00, -1.00, 148.1, 120.1)">e</text><text xml:space="preserve" font-family="Helvetica-LightOblique,Helvetica" font-style="italic" font-size="31.0" fill="#91908B" transform="matrix(1.00, 0.00, -0.00, -1.00, 165.3, 120.1)">t</text><text xml:space="preserve" font-family="Helvetica-LightOblique,Helvetica" font-style="italic" font-size="31.0" fill="#91908B" transform="matrix(1.00, 0.00, -0.00, -1.00, 174.0, 120.1)"> </text><text xml:space="preserve" font-family="Helvetica-LightOblique,Helvetica" font-style="italic" font-size="31.0" fill="#91908B" transform="matrix(1.00, 0.00, -0.00, -1.00, 182.6, 120.1)">c</text><text xml:space="preserve" font-family="Helvetica-LightOblique,Helvetica" font-style="italic" font-size="31.0" fill="#91908B" transform="matrix(1.00, 0.00, -0.00, -1.00, 199.8, 120.1)">l</text><text xml:space="preserve" font-family="Helvetica-LightOblique,Helvetica" font-style="italic" font-size="31.0" fill="#91908B" transform="matrix(1.00, 0.00, -0.00, -1.00, 206.7, 120.1)">a</text><text xml:space="preserve" font-family="Helvetica-LightOblique,Helvetica" font-style="italic" font-size="31.0" fill="#91908B" transform="matrix(1.00, 0.00, -0.00, -1.00, 223.9, 120.1)">s</text><text xml:space="preserve" font-family="Helvetica-LightOblique,Helvetica" font-style="italic" font-size="31.0" fill="#91908B" transform="matrix(1.00, 0.00, -0.00, -1.00, 239.4, 120.1)">s</text><text xml:space="preserve" font-family="Helvetica-LightOblique,Helvetica" font-style="italic" font-size="31.0" fill="#91908B" transform="matrix(1.00, 0.00, -0.00, -1.00, 254.9, 120.1)"> </text><text xml:space="preserve" font-family="Helvetica-LightOblique,Helvetica" font-style="italic" font-size="31.0" fill="#91908B" transform="matrix(1.00, 0.00, -0.00, -1.00, 263.5, 120.1)">t</text><text xml:space="preserve" font-family="Helvetica-LightOblique,Helvetica" font-style="italic" font-size="31.0" fill="#91908B" transform="matrix(1.00, 0.00, -0.00, -1.00, 272.2, 120.1)">h</text><text xml:space="preserve" font-family="Helvetica-LightOblique,Helvetica" font-style="italic" font-size="31.0" fill="#91908B" transform="matrix(1.00, 0.00, -0.00, -1.00, 289.4, 120.1)">a</text><text xml:space="preserve" font-family="Helvetica-LightOblique,Helvetica" font-style="italic" font-size="31.0" fill="#91908B" transform="matrix(1.00, 0.00, -0.00, -1.00, 306.6, 120.1)">t</text><text xml:space="preserve" font-family="Helvetica-LightOblique,Helvetica" font-style="italic" font-size="31.0" fill="#91908B" transform="matrix(1.00, 0.00, -0.00, -1.00, 315.3, 120.1)"> </text><text xml:space="preserve" font-family="Helvetica-LightOblique,Helvetica" font-style="italic" font-size="31.0" fill="#91908B" transform="matrix(1.00, 0.00, -0.00, -1.00, 323.9, 120.1)">e</text><text xml:space="preserve" font-family="Helvetica-LightOblique,Helvetica" font-style="italic" font-size="31.0" fill="#91908B" transform="matrix(1.00, 0.00, -0.00, -1.00, 341.1, 120.1)">x</text><text xml:space="preserve" font-family="Helvetica-LightOblique,Helvetica" font-style="italic" font-size="31.0" fill="#91908B" transform="matrix(1.00, 0.00, -0.00, -1.00, 356.6, 120.1)">e</text><text xml:space="preserve" font-family="Helvetica-LightOblique,Helvetica" font-style="italic" font-size="31.0" fill="#91908B" transform="matrix(1.00, 0.00, -0.00, -1.00, 373.8, 120.1)">c</text><text xml:space="preserve" font-family="Helvetica-LightOblique,Helvetica" font-style="italic" font-size="31.0" fill="#91908B" transform="matrix(1.00, 0.00, -0.00, -1.00, 391.1, 120.1)">u</text><text xml:space="preserve" font-family="Helvetica-LightOblique,Helvetica" font-style="italic" font-size="31.0" fill="#91908B" transform="matrix(1.00, 0.00, -0.00, -1.00, 408.3, 120.1)">t</text><text xml:space="preserve" font-family="Helvetica-LightOblique,Helvetica" font-style="italic" font-size="31.0" fill="#91908B" transform="matrix(1.00, 0.00, -0.00, -1.00, 416.9, 120.1)">e</text><text xml:space="preserve" font-family="Helvetica-LightOblique,Helvetica" font-style="italic" font-size="31.0" fill="#91908B" transform="matrix(1.00, 0.00, -0.00, -1.00, 434.2, 120.1)">s</text><text xml:space="preserve" font-family="Helvetica-LightOblique,Helvetica" font-style="italic" font-size="31.0" fill="#91908B" transform="matrix(1.00, 0.00, -0.00, -1.00, 449.7, 120.1)"> </text><text xml:space="preserve" font-family="Helvetica-LightOblique,Helvetica" font-style="italic" font-size="31.0" fill="#91908B" transform="matrix(1.00, 0.00, -0.00, -1.00, 458.3, 120.1)">a</text><text xml:space="preserve" font-family="Helvetica-LightOblique,Helvetica" font-style="italic" font-size="31.0" fill="#91908B" transform="matrix(1.00, 0.00, -0.00, -1.00, 475.5, 120.1)">n</text><text xml:space="preserve" font-family="Helvetica-LightOblique,Helvetica" font-style="italic" font-size="31.0" fill="#91908B" transform="matrix(1.00, 0.00, -0.00, -1.00, 492.8, 120.1)"> </text><text xml:space="preserve" font-family="Helvetica-LightOblique,Helvetica" font-style="italic" font-size="31.0" fill="#91908B" transform="matrix(1.00, 0.00, -0.00, -1.00, 0.2, 83.1)">o</text><text xml:space="preserve" font-family="Helvetica-LightOblique,Helvetica" font-style="italic" font-size="31.0" fill="#91908B" transform="matrix(1.00, 0.00, -0.00, -1.00, 17.5, 83.1)">p</text><text xml:space="preserve" font-family="Helvetica-LightOblique,Helvetica" font-style="italic" font-size="31.0" fill="#91908B" transform="matrix(1.00, 0.00, -0.00, -1.00, 36.4, 83.1)">e</text><text xml:space="preserve" font-family="Helvetica-LightOblique,Helvetica" font-style="italic" font-size="31.0" fill="#91908B" transform="matrix(1.00, 0.00, -0.00, -1.00, 53.6, 83.1)">r</text><text xml:space="preserve" font-family="Helvetica-LightOblique,Helvetica" font-style="italic" font-size="31.0" fill="#91908B" transform="matrix(1.00, 0.00, -0.00, -1.00, 64.0, 83.1)">a</text><text xml:space="preserve" font-family="Helvetica-LightOblique,Helvetica" font-style="italic" font-size="31.0" fill="#91908B" transform="matrix(1.00, 0.00, -0.00, -1.00, 81.2, 83.1)">t</text><text xml:space="preserve" font-family="Helvetica-LightOblique,Helvetica" font-style="italic" font-size="31.0" fill="#91908B" transform="matrix(1.00, 0.00, -0.00, -1.00, 89.8, 83.1)">i</text><text xml:space="preserve" font-family="Helvetica-LightOblique,Helvetica" font-style="italic" font-size="31.0" fill="#91908B" transform="matrix(1.00, 0.00, -0.00, -1.00, 96.7, 83.1)">o</text><text xml:space="preserve" font-family="Helvetica-LightOblique,Helvetica" font-style="italic" font-size="31.0" fill="#91908B" transform="matrix(1.00, 0.00, -0.00, -1.00, 113.9, 83.1)">n</text><text xml:space="preserve" font-family="Helvetica-LightOblique,Helvetica" font-style="italic" font-size="31.0" fill="#91908B" transform="matrix(1.00, 0.00, -0.00, -1.00, 131.2, 83.1)"> </text><text xml:space="preserve" font-family="Helvetica-LightOblique,Helvetica" font-style="italic" font-size="31.0" fill="#91908B" transform="matrix(1.00, 0.00, -0.00, -1.00, 139.8, 83.1)">w</text><text xml:space="preserve" font-family="Helvetica-LightOblique,Helvetica" font-style="italic" font-size="31.0" fill="#91908B" transform="matrix(1.00, 0.00, -0.00, -1.00, 162.2, 83.1)">i</text><text xml:space="preserve" font-family="Helvetica-LightOblique,Helvetica" font-style="italic" font-size="31.0" fill="#91908B" transform="matrix(1.00, 0.00, -0.00, -1.00, 169.1, 83.1)">t</text><text xml:space="preserve" font-family="Helvetica-LightOblique,Helvetica" font-style="italic" font-size="31.0" fill="#91908B" transform="matrix(1.00, 0.00, -0.00, -1.00, 177.7, 83.1)">h</text><text xml:space="preserve" font-family="Helvetica-LightOblique,Helvetica" font-style="italic" font-size="31.0" fill="#91908B" transform="matrix(1.00, 0.00, -0.00, -1.00, 194.9, 83.1)">i</text><text xml:space="preserve" font-family="Helvetica-LightOblique,Helvetica" font-style="italic" font-size="31.0" fill="#91908B" transform="matrix(1.00, 0.00, -0.00, -1.00, 201.8, 83.1)">n</text><text xml:space="preserve" font-family="Helvetica-LightOblique,Helvetica" font-style="italic" font-size="31.0" fill="#91908B" transform="matrix(1.00, 0.00, -0.00, -1.00, 219.0, 83.1)"> </text><text xml:space="preserve" font-family="Helvetica-LightOblique,Helvetica" font-style="italic" font-size="31.0" fill="#91908B" transform="matrix(1.00, 0.00, -0.00, -1.00, 227.6, 83.1)">t</text><text xml:space="preserve" font-family="Helvetica-LightOblique,Helvetica" font-style="italic" font-size="31.0" fill="#91908B" transform="matrix(1.00, 0.00, -0.00, -1.00, 236.3, 83.1)">h</text><text xml:space="preserve" font-family="Helvetica-LightOblique,Helvetica" font-style="italic" font-size="31.0" fill="#91908B" transform="matrix(1.00, 0.00, -0.00, -1.00, 253.5, 83.1)">e</text><text xml:space="preserve" font-family="Helvetica-LightOblique,Helvetica" font-style="italic" font-size="31.0" fill="#91908B" transform="matrix(1.00, 0.00, -0.00, -1.00, 270.7, 83.1)"> </text><text xml:space="preserve" font-family="Helvetica-LightOblique,Helvetica" font-style="italic" font-size="31.0" fill="#91908B" transform="matrix(1.00, 0.00, -0.00, -1.00, 279.4, 83.1)">c</text><text xml:space="preserve" font-family="Helvetica-LightOblique,Helvetica" font-style="italic" font-size="31.0" fill="#91908B" transform="matrix(1.00, 0.00, -0.00, -1.00, 296.6, 83.1)">o</text><text xml:space="preserve" font-family="Helvetica-LightOblique,Helvetica" font-style="italic" font-size="31.0" fill="#91908B" transform="matrix(1.00, 0.00, -0.00, -1.00, 313.8, 83.1)">n</text><text xml:space="preserve" font-family="Helvetica-LightOblique,Helvetica" font-style="italic" font-size="31.0" fill="#91908B" transform="matrix(1.00, 0.00, -0.00, -1.00, 331.1, 83.1)">t</text><text xml:space="preserve" font-family="Helvetica-LightOblique,Helvetica" font-style="italic" font-size="31.0" fill="#91908B" transform="matrix(1.00, 0.00, -0.00, -1.00, 339.7, 83.1)">e</text><text xml:space="preserve" font-family="Helvetica-LightOblique,Helvetica" font-style="italic" font-size="31.0" fill="#91908B" transform="matrix(1.00, 0.00, -0.00, -1.00, 356.9, 83.1)">x</text><text xml:space="preserve" font-family="Helvetica-LightOblique,Helvetica" font-style="italic" font-size="31.0" fill="#91908B" transform="matrix(1.00, 0.00, -0.00, -1.00, 372.4, 83.1)">t</text><text xml:space="preserve" font-family="Helvetica-LightOblique,Helvetica" font-style="italic" font-size="31.0" fill="#91908B" transform="matrix(1.00, 0.00, -0.00, -1.00, 381.0, 83.1)"> </text><text xml:space="preserve" font-family="Helvetica-LightOblique,Helvetica" font-style="italic" font-size="31.0" fill="#91908B" transform="matrix(1.00, 0.00, -0.00, -1.00, 389.7, 83.1)">o</text><text xml:space="preserve" font-family="Helvetica-LightOblique,Helvetica" font-style="italic" font-size="31.0" fill="#91908B" transform="matrix(1.00, 0.00, -0.00, -1.00, 406.9, 83.1)">f</text><text xml:space="preserve" font-family="Helvetica-LightOblique,Helvetica" font-style="italic" font-size="31.0" fill="#91908B" transform="matrix(1.00, 0.00, -0.00, -1.00, 415.5, 83.1)"> </text><text xml:space="preserve" font-family="Helvetica-LightOblique,Helvetica" font-style="italic" font-size="31.0" fill="#91908B" transform="matrix(1.00, 0.00, -0.00, -1.00, 424.1, 83.1)">a</text><text xml:space="preserve" font-family="Helvetica-LightOblique,Helvetica" font-style="italic" font-size="31.0" fill="#91908B" transform="matrix(1.00, 0.00, -0.00, -1.00, 441.4, 83.1)"> </text><text xml:space="preserve" font-family="Helvetica-LightOblique,Helvetica" font-style="italic" font-size="31.0" fill="#91908B" transform="matrix(1.00, 0.00, -0.00, -1.00, 450.0, 83.1)">g</text><text xml:space="preserve" font-family="Helvetica-LightOblique,Helvetica" font-style="italic" font-size="31.0" fill="#91908B" transform="matrix(1.00, 0.00, -0.00, -1.00, 468.9, 83.1)">i</text><text xml:space="preserve" font-family="Helvetica-LightOblique,Helvetica" font-style="italic" font-size="31.0" fill="#91908B" transform="matrix(1.00, 0.00, -0.00, -1.00, 475.8, 83.1)">v</text><text xml:space="preserve" font-family="Helvetica-LightOblique,Helvetica" font-style="italic" font-size="31.0" fill="#91908B" transform="matrix(1.00, 0.00, -0.00, -1.00, 491.3, 83.1)">e</text><text xml:space="preserve" font-family="Helvetica-LightOblique,Helvetica" font-style="italic" font-size="31.0" fill="#91908B" transform="matrix(1.00, 0.00, -0.00, -1.00, 508.5, 83.1)">n</text><text xml:space="preserve" font-family="Helvetica-LightOblique,Helvetica" font-style="italic" font-size="31.0" fill="#91908B" transform="matrix(1.00, 0.00, -0.00, -1.00, 525.8, 83.1)"> </text><text xml:space="preserve" font-family="Helvetica-LightOblique,Helvetica" font-style="italic" font-size="31.0" fill="#91908B" transform="matrix(1.00, 0.00, -0.00, -1.00, 1.4, 46.1)">s</text><text xml:space="preserve" font-family="Helvetica-LightOblique,Helvetica" font-style="italic" font-size="31.0" fill="#91908B" transform="matrix(1.00, 0.00, -0.00, -1.00, 16.9, 46.1)">c</text><text xml:space="preserve" font-family="Helvetica-LightOblique,Helvetica" font-style="italic" font-size="31.0" fill="#91908B" transform="matrix(1.00, 0.00, -0.00, -1.00, 34.1, 46.1)">o</text><text xml:space="preserve" font-family="Helvetica-LightOblique,Helvetica" font-style="italic" font-size="31.0" fill="#91908B" transform="matrix(1.00, 0.00, -0.00, -1.00, 51.4, 46.1)">p</text><text xml:space="preserve" font-family="Helvetica-LightOblique,Helvetica" font-style="italic" font-size="31.0" fill="#91908B" transform="matrix(1.00, 0.00, -0.00, -1.00, 70.3, 46.1)">e</text><text xml:space="preserve" font-family="Helvetica-LightOblique,Helvetica" font-style="italic" font-size="31.0" fill="#91908B" transform="matrix(1.00, 0.00, -0.00, -1.00, 87.6, 46.1)">,</text><text xml:space="preserve" font-family="Helvetica-LightOblique,Helvetica" font-style="italic" font-size="31.0" fill="#91908B" transform="matrix(1.00, 0.00, -0.00, -1.00, 96.2, 46.1)"> </text><text xml:space="preserve" font-family="Helvetica-LightOblique,Helvetica" font-style="italic" font-size="31.0" fill="#91908B" transform="matrix(1.00, 0.00, -0.00, -1.00, 104.8, 46.1)">a</text><text xml:space="preserve" font-family="Helvetica-LightOblique,Helvetica" font-style="italic" font-size="31.0" fill="#91908B" transform="matrix(1.00, 0.00, -0.00, -1.00, 122.0, 46.1)">s</text><text xml:space="preserve" font-family="Helvetica-LightOblique,Helvetica" font-style="italic" font-size="31.0" fill="#91908B" transform="matrix(1.00, 0.00, -0.00, -1.00, 137.5, 46.1)"> </text><text xml:space="preserve" font-family="Helvetica-LightOblique,Helvetica" font-style="italic" font-size="31.0" fill="#91908B" transform="matrix(1.00, 0.00, -0.00, -1.00, 146.1, 46.1)">a</text><text xml:space="preserve" font-family="Helvetica-LightOblique,Helvetica" font-style="italic" font-size="31.0" fill="#91908B" transform="matrix(1.00, 0.00, -0.00, -1.00, 163.4, 46.1)"> </text><text xml:space="preserve" font-family="Helvetica-LightOblique,Helvetica" font-style="italic" font-size="31.0" fill="#91908B" transform="matrix(1.00, 0.00, -0.00, -1.00, 172.0, 46.1)">m</text><text xml:space="preserve" font-family="Helvetica-LightOblique,Helvetica" font-style="italic" font-size="31.0" fill="#91908B" transform="matrix(1.00, 0.00, -0.00, -1.00, 197.8, 46.1)">e</text><text xml:space="preserve" font-family="Helvetica-LightOblique,Helvetica" font-style="italic" font-size="31.0" fill="#91908B" transform="matrix(1.00, 0.00, -0.00, -1.00, 215.1, 46.1)">a</text><text xml:space="preserve" font-family="Helvetica-LightOblique,Helvetica" font-style="italic" font-size="31.0" fill="#91908B" transform="matrix(1.00, 0.00, -0.00, -1.00, 232.3, 46.1)">n</text><text xml:space="preserve" font-family="Helvetica-LightOblique,Helvetica" font-style="italic" font-size="31.0" fill="#91908B" transform="matrix(1.00, 0.00, -0.00, -1.00, 249.5, 46.1)">s</text><text xml:space="preserve" font-family="Helvetica-LightOblique,Helvetica" font-style="italic" font-size="31.0" fill="#91908B" transform="matrix(1.00, 0.00, -0.00, -1.00, 265.0, 46.1)"> </text><text xml:space="preserve" font-family="Helvetica-LightOblique,Helvetica" font-style="italic" font-size="31.0" fill="#91908B" transform="matrix(1.00, 0.00, -0.00, -1.00, 273.6, 46.1)">t</text><text xml:space="preserve" font-family="Helvetica-LightOblique,Helvetica" font-style="italic" font-size="31.0" fill="#91908B" transform="matrix(1.00, 0.00, -0.00, -1.00, 282.3, 46.1)">o</text><text xml:space="preserve" font-family="Helvetica-LightOblique,Helvetica" font-style="italic" font-size="31.0" fill="#91908B" transform="matrix(1.00, 0.00, -0.00, -1.00, 299.5, 46.1)"> </text><text xml:space="preserve" font-family="Helvetica-LightOblique,Helvetica" font-style="italic" font-size="31.0" fill="#91908B" transform="matrix(1.00, 0.00, -0.00, -1.00, 308.1, 46.1)">e</text><text xml:space="preserve" font-family="Helvetica-LightOblique,Helvetica" font-style="italic" font-size="31.0" fill="#91908B" transform="matrix(1.00, 0.00, -0.00, -1.00, 325.4, 46.1)">x</text><text xml:space="preserve" font-family="Helvetica-LightOblique,Helvetica" font-style="italic" font-size="31.0" fill="#91908B" transform="matrix(1.00, 0.00, -0.00, -1.00, 340.9, 46.1)">t</text><text xml:space="preserve" font-family="Helvetica-LightOblique,Helvetica" font-style="italic" font-size="31.0" fill="#91908B" transform="matrix(1.00, 0.00, -0.00, -1.00, 349.5, 46.1)">e</text><text xml:space="preserve" font-family="Helvetica-LightOblique,Helvetica" font-style="italic" font-size="31.0" fill="#91908B" transform="matrix(1.00, 0.00, -0.00, -1.00, 366.7, 46.1)">n</text><text xml:space="preserve" font-family="Helvetica-LightOblique,Helvetica" font-style="italic" font-size="31.0" fill="#91908B" transform="matrix(1.00, 0.00, -0.00, -1.00, 383.9, 46.1)">d</text><text xml:space="preserve" font-family="Helvetica-LightOblique,Helvetica" font-style="italic" font-size="31.0" fill="#91908B" transform="matrix(1.00, 0.00, -0.00, -1.00, 402.9, 46.1)"> </text><text xml:space="preserve" font-family="Helvetica-LightOblique,Helvetica" font-style="italic" font-size="31.0" fill="#91908B" transform="matrix(1.00, 0.00, -0.00, -1.00, 411.5, 46.1)">D</text><text xml:space="preserve" font-family="Helvetica-LightOblique,Helvetica" font-style="italic" font-size="31.0" fill="#91908B" transform="matrix(1.00, 0.00, -0.00, -1.00, 433.9, 46.1)">r</text><text xml:space="preserve" font-family="Helvetica-LightOblique,Helvetica" font-style="italic" font-size="31.0" fill="#91908B" transform="matrix(1.00, 0.00, -0.00, -1.00, 444.2, 46.1)">u</text><text xml:space="preserve" font-family="Helvetica-LightOblique,Helvetica" font-style="italic" font-size="31.0" fill="#91908B" transform="matrix(1.00, 0.00, -0.00, -1.00, 461.4, 46.1)">p</text><text xml:space="preserve" font-family="Helvetica-LightOblique,Helvetica" font-style="italic" font-size="31.0" fill="#91908B" transform="matrix(1.00, 0.00, -0.00, -1.00, 480.4, 46.1)">a</text><text xml:space="preserve" font-family="Helvetica-LightOblique,Helvetica" font-style="italic" font-size="31.0" fill="#91908B" transform="matrix(1.00, 0.00, -0.00, -1.00, 497.6, 46.1)">l</text><text xml:space="preserve" font-family="Helvetica-LightOblique,Helvetica" font-style="italic" font-size="31.0" fill="#91908B" transform="matrix(1.00, 0.00, -0.00, -1.00, 504.5, 46.1)">’</text><text xml:space="preserve" font-family="Helvetica-LightOblique,Helvetica" font-style="italic" font-size="31.0" fill="#91908B" transform="matrix(1.00, 0.00, -0.00, -1.00, 509.1, 46.1)">s</text><text xml:space="preserve" font-family="Helvetica-LightOblique,Helvetica" font-style="italic" font-size="31.0" fill="#91908B" transform="matrix(1.00, 0.00, -0.00, -1.00, 524.6, 46.1)"> </text><text xml:space="preserve" font-family="Helvetica-LightOblique,Helvetica" font-style="italic" font-size="31.0" fill="#91908B" transform="matrix(1.00, 0.00, -0.00, -1.00, 177.4, 9.1)">f</text><text xml:space="preserve" font-family="Helvetica-LightOblique,Helvetica" font-style="italic" font-size="31.0" fill="#91908B" transform="matrix(1.00, 0.00, -0.00, -1.00, 186.0, 9.1)">u</text><text xml:space="preserve" font-family="Helvetica-LightOblique,Helvetica" font-style="italic" font-size="31.0" fill="#91908B" transform="matrix(1.00, 0.00, -0.00, -1.00, 203.3, 9.1)">n</text><text xml:space="preserve" font-family="Helvetica-LightOblique,Helvetica" font-style="italic" font-size="31.0" fill="#91908B" transform="matrix(1.00, 0.00, -0.00, -1.00, 220.5, 9.1)">c</text><text xml:space="preserve" font-family="Helvetica-LightOblique,Helvetica" font-style="italic" font-size="31.0" fill="#91908B" transform="matrix(1.00, 0.00, -0.00, -1.00, 237.7, 9.1)">t</text><text xml:space="preserve" font-family="Helvetica-LightOblique,Helvetica" font-style="italic" font-size="31.0" fill="#91908B" transform="matrix(1.00, 0.00, -0.00, -1.00, 246.4, 9.1)">i</text><text xml:space="preserve" font-family="Helvetica-LightOblique,Helvetica" font-style="italic" font-size="31.0" fill="#91908B" transform="matrix(1.00, 0.00, -0.00, -1.00, 253.2, 9.1)">o</text><text xml:space="preserve" font-family="Helvetica-LightOblique,Helvetica" font-style="italic" font-size="31.0" fill="#91908B" transform="matrix(1.00, 0.00, -0.00, -1.00, 270.5, 9.1)">n</text><text xml:space="preserve" font-family="Helvetica-LightOblique,Helvetica" font-style="italic" font-size="31.0" fill="#91908B" transform="matrix(1.00, 0.00, -0.00, -1.00, 287.7, 9.1)">a</text><text xml:space="preserve" font-family="Helvetica-LightOblique,Helvetica" font-style="italic" font-size="31.0" fill="#91908B" transform="matrix(1.00, 0.00, -0.00, -1.00, 304.9, 9.1)">l</text><text xml:space="preserve" font-family="Helvetica-LightOblique,Helvetica" font-style="italic" font-size="31.0" fill="#91908B" transform="matrix(1.00, 0.00, -0.00, -1.00, 311.8, 9.1)">i</text><text xml:space="preserve" font-family="Helvetica-LightOblique,Helvetica" font-style="italic" font-size="31.0" fill="#91908B" transform="matrix(1.00, 0.00, -0.00, -1.00, 318.7, 9.1)">t</text><text xml:space="preserve" font-family="Helvetica-LightOblique,Helvetica" font-style="italic" font-size="31.0" fill="#91908B" transform="matrix(1.00, 0.00, -0.00, -1.00, 327.3, 9.1)">y</text><text xml:space="preserve" font-family="Helvetica-LightOblique,Helvetica" font-style="italic" font-size="31.0" fill="#91908B" transform="matrix(1.00, 0.00, -0.00, -1.00, 340.0, 9.1)">.</text></g></svg>