<?xml version="1.0" encoding="UTF-8" standalone="no"?><svg xmlns="http://www.w3.org/2000/svg" xmlns:xlink="http://www.w3.org/1999/xlink" clip-rule="evenodd" stroke-miterlimit="10" viewBox="0 0 1024 768"><desc>SVG generated by Keynote</desc><defs></defs><g transform="matrix(1.00, 0.00, -0.00, -1.00, 0.0, 768.0)"><path d="M 0.0 768.0 L 1024.0 768.0 L 1024.0 0.0 L 0.0 0.0 Z M 0.0 768.0 " fill="#000000"></path><text xml:space="preserve" font-family="ProximaNova-Semibold,Proxima Nova" font-weight="bold" font-size="45.0" fill="#FEFFFF" transform="matrix(1.00, 0.00, -0.00, -1.00, 341.5, 687.5)">W</text><text xml:space="preserve" font-family="ProximaNova-Semibold,Proxima Nova" font-weight="bold" font-size="45.0" fill="#FEFFFF" transform="matrix(1.00, 0.00, -0.00, -1.00, 382.2, 687.5)">h</text><text xml:space="preserve" font-family="ProximaNova-Semibold,Proxima Nova" font-weight="bold" font-size="45.0" fill="#FEFFFF" transform="matrix(1.00, 0.00, -0.00, -1.00, 407.7, 687.5)">a</text><text xml:space="preserve" font-family="ProximaNova-Semibold,Proxima Nova" font-weight="bold" font-size="45.0" fill="#FEFFFF" transform="matrix(1.00, 0.00, -0.00, -1.00, 431.9, 687.5)">t</text><text xml:space="preserve" font-family="ProximaNova-Semibold,Proxima Nova" font-weight="bold" font-size="45.0" fill="#FEFFFF" transform="matrix(1.00, 0.00, -0.00, -1.00, 446.2, 687.5)"> </text><text xml:space="preserve" font-family="ProximaNova-Semibold,Proxima Nova" font-weight="bold" font-size="45.0" fill="#FEFFFF" transform="matrix(1.00, 0.00, -0.00, -1.00, 457.8, 687.5)">i</text><text xml:space="preserve" font-family="ProximaNova-Semibold,Proxima Nova" font-weight="bold" font-size="45.0" fill="#FEFFFF" transform="matrix(1.00, 0.00, -0.00, -1.00, 468.7, 687.5)">s</text><text xml:space="preserve" font-family="ProximaNova-Semibold,Proxima Nova" font-weight="bold" font-size="45.0" fill="#FEFFFF" transform="matrix(1.00, 0.00, -0.00, -1.00, 489.9, 687.5)"> </text><text xml:space="preserve" font-family="ProximaNova-Semibold,Proxima Nova" font-weight="bold" font-size="45.0" fill="#FEFFFF" transform="matrix(1.00, 0.00, -0.00, -1.00, 501.5, 687.5)">a</text><text xml:space="preserve" font-family="ProximaNova-Semibold,Proxima Nova" font-weight="bold" font-size="45.0" fill="#FEFFFF" transform="matrix(1.00, 0.00, -0.00, -1.00, 525.7, 687.5)"> </text><text xml:space="preserve" font-family="ProximaNova-Semibold,Proxima Nova" font-weight="bold" font-size="45.0" fill="#FF456F" transform="matrix(1.00, 0.00, -0.00, -1.00, 537.3, 687.5)">P</text><text xml:space="preserve" font-family="ProximaNova-Semibold,Proxima Nova" font-weight="bold" font-size="45.0" fill="#FF456F" transform="matrix(1.00, 0.00, -0.00, -1.00, 564.7, 687.5)">l</text><text xml:space="preserve" font-family="ProximaNova-Semibold,Proxima Nova" font-weight="bold" font-size="45.0" fill="#FF456F" transform="matrix(1.00, 0.00, -0.00, -1.00, 575.6, 687.5)">u</text><text xml:space="preserve" font-family="ProximaNova-Semibold,Proxima Nova" font-weight="bold" font-size="45.0" fill="#FF456F" transform="matrix(1.00, 0.00, -0.00, -1.00, 601.1, 687.5)">g</text><text xml:space="preserve" font-family="ProximaNova-Semibold,Proxima Nova" font-weight="bold" font-size="45.0" fill="#FF456F" transform="matrix(1.00, 0.00, -0.00, -1.00, 627.2, 687.5)">i</text><text xml:space="preserve" font-family="ProximaNova-Semibold,Proxima Nova" font-weight="bold" font-size="45.0" fill="#FF456F" transform="matrix(1.00, 0.00, -0.00, -1.00, 638.1, 687.5)">n</text><text xml:space="preserve" font-family="ProximaNova-Semibold,Proxima Nova" font-weight="bold" font-size="45.0" fill="#FEFFFF" transform="matrix(1.00, 0.00, -0.00, -1.00, 661.8, 687.5)">?</text><text xml:space="preserve" font-family="Helvetica-LightOblique,Helvetica" font-style="italic" font-size="31.0" fill="#91908B" transform="matrix(1.00, 0.00, -0.00, -1.00, 282.2, 613.1)">A</text><text xml:space="preserve" font-family="Helvetica-LightOblique,Helvetica" font-style="italic" font-size="31.0" fill="#91908B" transform="matrix(1.00, 0.00, -0.00, -1.00, 302.9, 613.1)"> </text><text xml:space="preserve" font-family="Helvetica-LightOblique,Helvetica" font-style="italic" font-size="31.0" fill="#91908B" transform="matrix(1.00, 0.00, -0.00, -1.00, 311.5, 613.1)">d</text><text xml:space="preserve" font-family="Helvetica-LightOblique,Helvetica" font-style="italic" font-size="31.0" fill="#91908B" transform="matrix(1.00, 0.00, -0.00, -1.00, 330.5, 613.1)">i</text><text xml:space="preserve" font-family="Helvetica-LightOblique,Helvetica" font-style="italic" font-size="31.0" fill="#91908B" transform="matrix(1.00, 0.00, -0.00, -1.00, 337.4, 613.1)">s</text><text xml:space="preserve" font-family="Helvetica-LightOblique,Helvetica" font-style="italic" font-size="31.0" fill="#91908B" transform="matrix(1.00, 0.00, -0.00, -1.00, 352.9, 613.1)">c</text><text xml:space="preserve" font-family="Helvetica-LightOblique,Helvetica" font-style="italic" font-size="31.0" fill="#91908B" transform="matrix(1.00, 0.00, -0.00, -1.00, 370.1, 613.1)">r</text><text xml:space="preserve" font-family="Helvetica-LightOblique,Helvetica" font-style="italic" font-size="31.0" fill="#91908B" transform="matrix(1.00, 0.00, -0.00, -1.00, 379.9, 613.1)">e</text><text xml:space="preserve" font-family="Helvetica-LightOblique,Helvetica" font-style="italic" font-size="31.0" fill="#91908B" transform="matrix(1.00, 0.00, -0.00, -1.00, 397.1, 613.1)">e</text><text xml:space="preserve" font-family="Helvetica-LightOblique,Helvetica" font-style="italic" font-size="31.0" fill="#91908B" transform="matrix(1.00, 0.00, -0.00, -1.00, 414.3, 613.1)">t</text><text xml:space="preserve" font-family="Helvetica-LightOblique,Helvetica" font-style="italic" font-size="31.0" fill="#91908B" transform="matrix(1.00, 0.00, -0.00, -1.00, 423.0, 613.1)"> </text><text xml:space="preserve" font-family="Helvetica-LightOblique,Helvetica" font-style="italic" font-size="31.0" fill="#91908B" transform="matrix(1.00, 0.00, -0.00, -1.00, 431.6, 613.1)">c</text><text xml:space="preserve" font-family="Helvetica-LightOblique,Helvetica" font-style="italic" font-size="31.0" fill="#91908B" transform="matrix(1.00, 0.00, -0.00, -1.00, 448.8, 613.1)">l</text><text xml:space="preserve" font-family="Helvetica-LightOblique,Helvetica" font-style="italic" font-size="31.0" fill="#91908B" transform="matrix(1.00, 0.00, -0.00, -1.00, 455.7, 613.1)">a</text><text xml:space="preserve" font-family="Helvetica-LightOblique,Helvetica" font-style="italic" font-size="31.0" fill="#91908B" transform="matrix(1.00, 0.00, -0.00, -1.00, 472.9, 613.1)">s</text><text xml:space="preserve" font-family="Helvetica-LightOblique,Helvetica" font-style="italic" font-size="31.0" fill="#91908B" transform="matrix(1.00, 0.00, -0.00, -1.00, 488.4, 613.1)">s</text><text xml:space="preserve" font-family="Helvetica-LightOblique,Helvetica" font-style="italic" font-size="31.0" fill="#91908B" transform="matrix(1.00, 0.00, -0.00, -1.00, 503.9, 613.1)"> </text><text xml:space="preserve" font-family="Helvetica-LightOblique,Helvetica" font-style="italic" font-size="31.0" fill="#91908B" transform="matrix(1.00, 0.00, -0.00, -1.00, 512.5, 613.1)">t</text><text xml:space="preserve" font-family="Helvetica-LightOblique,Helvetica" font-style="italic" font-size="31.0" fill="#91908B" transform="matrix(1.00, 0.00, -0.00, -1.00, 521.2, 613.1)">h</text><text xml:space="preserve" font-family="Helvetica-LightOblique,Helvetica" font-style="italic" font-size="31.0" fill="#91908B" transform="matrix(1.00, 0.00, -0.00, -1.00, 538.4, 613.1)">a</text><text xml:space="preserve" font-family="Helvetica-LightOblique,Helvetica" font-style="italic" font-size="31.0" fill="#91908B" transform="matrix(1.00, 0.00, -0.00, -1.00, 555.6, 613.1)">t</text><text xml:space="preserve" font-family="Helvetica-LightOblique,Helvetica" font-style="italic" font-size="31.0" fill="#91908B" transform="matrix(1.00, 0.00, -0.00, -1.00, 564.3, 613.1)"> </text><text xml:space="preserve" font-family="Helvetica-LightOblique,Helvetica" font-style="italic" font-size="31.0" fill="#91908B" transform="matrix(1.00, 0.00, -0.00, -1.00, 572.9, 613.1)">e</text><text xml:space="preserve" font-family="Helvetica-LightOblique,Helvetica" font-style="italic" font-size="31.0" fill="#91908B" transform="matrix(1.00, 0.00, -0.00, -1.00, 590.1, 613.1)">x</text><text xml:space="preserve" font-family="Helvetica-LightOblique,Helvetica" font-style="italic" font-size="31.0" fill="#91908B" transform="matrix(1.00, 0.00, -0.00, -1.00, 605.6, 613.1)">e</text><text xml:space="preserve" font-family="Helvetica-LightOblique,Helvetica" font-style="italic" font-size="31.0" fill="#91908B" transform="matrix(1.00, 0.00, -0.00, -1.00, 622.8, 613.1)">c</text><text xml:space="preserve" font-family="Helvetica-LightOblique,Helvetica" font-style="italic" font-size="31.0" fill="#91908B" transform="matrix(1.00, 0.00, -0.00, -1.00, 640.1, 613.1)">u</text><text xml:space="preserve" font-family="Helvetica-LightOblique,Helvetica" font-style="italic" font-size="31.0" fill="#91908B" transform="matrix(1.00, 0.00, -0.00, -1.00, 657.3, 613.1)">t</text><text xml:space="preserve" font-family="Helvetica-LightOblique,Helvetica" font-style="italic" font-size="31.0" fill="#91908B" transform="matrix(1.00, 0.00, -0.00, -1.00, 665.9, 613.1)">e</text><text xml:space="preserve" font-family="Helvetica-LightOblique,Helvetica" font-style="italic" font-size="31.0" fill="#91908B" transform="matrix(1.00, 0.00, -0.00, -1.00, 683.2, 613.1)">s</text><text xml:space="preserve" font-family="Helvetica-LightOblique,Helvetica" font-style="italic" font-size="31.0" fill="#91908B" transform="matrix(1.00, 0.00, -0.00, -1.00, 698.7, 613.1)"> </text><text xml:space="preserve" font-family="Helvetica-LightOblique,Helvetica" font-style="italic" font-size="31.0" fill="#91908B" transform="matrix(1.00, 0.00, -0.00, -1.00, 707.3, 613.1)">a</text><text xml:space="preserve" font-family="Helvetica-LightOblique,Helvetica" font-style="italic" font-size="31.0" fill="#91908B" transform="matrix(1.00, 0.00, -0.00, -1.00, 724.5, 613.1)">n</text><text xml:space="preserve" font-family="Helvetica-LightOblique,Helvetica" font-style="italic" font-size="31.0" fill="#91908B" transform="matrix(1.00, 0.00, -0.00, -1.00, 741.8, 613.1)"> </text><text xml:space="preserve" font-family="Helvetica-LightOblique,Helvetica" font-style="italic" font-size="31.0" fill="#91908B" transform="matrix(1.00, 0.00, -0.00, -1.00, 249.2, 576.1)">o</text><text xml:space="preserve" font-family="Helvetica-LightOblique,Helvetica" font-style="italic" font-size="31.0" fill="#91908B" transform="matrix(1.00, 0.00, -0.00, -1.00, 266.5, 576.1)">p</text><text xml:space="preserve" font-family="Helvetica-LightOblique,Helvetica" font-style="italic" font-size="31.0" fill="#91908B" transform="matrix(1.00, 0.00, -0.00, -1.00, 285.4, 576.1)">e</text><text xml:space="preserve" font-family="Helvetica-LightOblique,Helvetica" font-style="italic" font-size="31.0" fill="#91908B" transform="matrix(1.00, 0.00, -0.00, -1.00, 302.6, 576.1)">r</text><text xml:space="preserve" font-family="Helvetica-LightOblique,Helvetica" font-style="italic" font-size="31.0" fill="#91908B" transform="matrix(1.00, 0.00, -0.00, -1.00, 313.0, 576.1)">a</text><text xml:space="preserve" font-family="Helvetica-LightOblique,Helvetica" font-style="italic" font-size="31.0" fill="#91908B" transform="matrix(1.00, 0.00, -0.00, -1.00, 330.2, 576.1)">t</text><text xml:space="preserve" font-family="Helvetica-LightOblique,Helvetica" font-style="italic" font-size="31.0" fill="#91908B" transform="matrix(1.00, 0.00, -0.00, -1.00, 338.8, 576.1)">i</text><text xml:space="preserve" font-family="Helvetica-LightOblique,Helvetica" font-style="italic" font-size="31.0" fill="#91908B" transform="matrix(1.00, 0.00, -0.00, -1.00, 345.7, 576.1)">o</text><text xml:space="preserve" font-family="Helvetica-LightOblique,Helvetica" font-style="italic" font-size="31.0" fill="#91908B" transform="matrix(1.00, 0.00, -0.00, -1.00, 362.9, 576.1)">n</text><text xml:space="preserve" font-family="Helvetica-LightOblique,Helvetica" font-style="italic" font-size="31.0" fill="#91908B" transform="matrix(1.00, 0.00, -0.00, -1.00, 380.2, 576.1)"> </text><text xml:space="preserve" font-family="Helvetica-LightOblique,Helvetica" font-style="italic" font-size="31.0" fill="#91908B" transform="matrix(1.00, 0.00, -0.00, -1.00, 388.8, 576.1)">w</text><text xml:space="preserve" font-family="Helvetica-LightOblique,Helvetica" font-style="italic" font-size="31.0" fill="#91908B" transform="matrix(1.00, 0.00, -0.00, -1.00, 411.2, 576.1)">i</text><text xml:space="preserve" font-family="Helvetica-LightOblique,Helvetica" font-style="italic" font-size="31.0" fill="#91908B" transform="matrix(1.00, 0.00, -0.00, -1.00, 418.1, 576.1)">t</text><text xml:space="preserve" font-family="Helvetica-LightOblique,Helvetica" font-style="italic" font-size="31.0" fill="#91908B" transform="matrix(1.00, 0.00, -0.00, -1.00, 426.7, 576.1)">h</text><text xml:space="preserve" font-family="Helvetica-LightOblique,Helvetica" font-style="italic" font-size="31.0" fill="#91908B" transform="matrix(1.00, 0.00, -0.00, -1.00, 443.9, 576.1)">i</text><text xml:space="preserve" font-family="Helvetica-LightOblique,Helvetica" font-style="italic" font-size="31.0" fill="#91908B" transform="matrix(1.00, 0.00, -0.00, -1.00, 450.8, 576.1)">n</text><text xml:space="preserve" font-family="Helvetica-LightOblique,Helvetica" font-style="italic" font-size="31.0" fill="#91908B" transform="matrix(1.00, 0.00, -0.00, -1.00, 468.0, 576.1)"> </text><text xml:space="preserve" font-family="Helvetica-LightOblique,Helvetica" font-style="italic" font-size="31.0" fill="#91908B" transform="matrix(1.00, 0.00, -0.00, -1.00, 476.6, 576.1)">t</text><text xml:space="preserve" font-family="Helvetica-LightOblique,Helvetica" font-style="italic" font-size="31.0" fill="#91908B" transform="matrix(1.00, 0.00, -0.00, -1.00, 485.3, 576.1)">h</text><text xml:space="preserve" font-family="Helvetica-LightOblique,Helvetica" font-style="italic" font-size="31.0" fill="#91908B" transform="matrix(1.00, 0.00, -0.00, -1.00, 502.5, 576.1)">e</text><text xml:space="preserve" font-family="Helvetica-LightOblique,Helvetica" font-style="italic" font-size="31.0" fill="#91908B" transform="matrix(1.00, 0.00, -0.00, -1.00, 519.7, 576.1)"> </text><text xml:space="preserve" font-family="Helvetica-LightOblique,Helvetica" font-style="italic" font-size="31.0" fill="#91908B" transform="matrix(1.00, 0.00, -0.00, -1.00, 528.4, 576.1)">c</text><text xml:space="preserve" font-family="Helvetica-LightOblique,Helvetica" font-style="italic" font-size="31.0" fill="#91908B" transform="matrix(1.00, 0.00, -0.00, -1.00, 545.6, 576.1)">o</text><text xml:space="preserve" font-family="Helvetica-LightOblique,Helvetica" font-style="italic" font-size="31.0" fill="#91908B" transform="matrix(1.00, 0.00, -0.00, -1.00, 562.8, 576.1)">n</text><text xml:space="preserve" font-family="Helvetica-LightOblique,Helvetica" font-style="italic" font-size="31.0" fill="#91908B" transform="matrix(1.00, 0.00, -0.00, -1.00, 580.1, 576.1)">t</text><text xml:space="preserve" font-family="Helvetica-LightOblique,Helvetica" font-style="italic" font-size="31.0" fill="#91908B" transform="matrix(1.00, 0.00, -0.00, -1.00, 588.7, 576.1)">e</text><text xml:space="preserve" font-family="Helvetica-LightOblique,Helvetica" font-style="italic" font-size="31.0" fill="#91908B" transform="matrix(1.00, 0.00, -0.00, -1.00, 605.9, 576.1)">x</text><text xml:space="preserve" font-family="Helvetica-LightOblique,Helvetica" font-style="italic" font-size="31.0" fill="#91908B" transform="matrix(1.00, 0.00, -0.00, -1.00, 621.4, 576.1)">t</text><text xml:space="preserve" font-family="Helvetica-LightOblique,Helvetica" font-style="italic" font-size="31.0" fill="#91908B" transform="matrix(1.00, 0.00, -0.00, -1.00, 630.0, 576.1)"> </text><text xml:space="preserve" font-family="Helvetica-LightOblique,Helvetica" font-style="italic" font-size="31.0" fill="#91908B" transform="matrix(1.00, 0.00, -0.00, -1.00, 638.7, 576.1)">o</text><text xml:space="preserve" font-family="Helvetica-LightOblique,Helvetica" font-style="italic" font-size="31.0" fill="#91908B" transform="matrix(1.00, 0.00, -0.00, -1.00, 655.9, 576.1)">f</text><text xml:space="preserve" font-family="Helvetica-LightOblique,Helvetica" font-style="italic" font-size="31.0" fill="#91908B" transform="matrix(1.00, 0.00, -0.00, -1.00, 664.5, 576.1)"> </text><text xml:space="preserve" font-family="Helvetica-LightOblique,Helvetica" font-style="italic" font-size="31.0" fill="#91908B" transform="matrix(1.00, 0.00, -0.00, -1.00, 673.1, 576.1)">a</text><text xml:space="preserve" font-family="Helvetica-LightOblique,Helvetica" font-style="italic" font-size="31.0" fill="#91908B" transform="matrix(1.00, 0.00, -0.00, -1.00, 690.4, 576.1)"> </text><text xml:space="preserve" font-family="Helvetica-LightOblique,Helvetica" font-style="italic" font-size="31.0" fill="#91908B" transform="matrix(1.00, 0.00, -0.00, -1.00, 699.0, 576.1)">g</text><text xml:space="preserve" font-family="Helvetica-LightOblique,Helvetica" font-style="italic" font-size="31.0" fill="#91908B" transform="matrix(1.00, 0.00, -0.00, -1.00, 717.9, 576.1)">i</text><text xml:space="preserve" font-family="Helvetica-LightOblique,Helvetica" font-style="italic" font-size="31.0" fill="#91908B" transform="matrix(1.00, 0.00, -0.00, -1.00, 724.8, 576.1)">v</text><text xml:space="preserve" font-family="Helvetica-LightOblique,Helvetica" font-style="italic" font-size="31.0" fill="#91908B" transform="matrix(1.00, 0.00, -0.00, -1.00, 740.3, 576.1)">e</text><text xml:space="preserve" font-family="Helvetica-LightOblique,Helvetica" font-style="italic" font-size="31.0" fill="#91908B" transform="matrix(1.00, 0.00, -0.00, -1.00, 757.5, 576.1)">n</text><text xml:space="preserve" font-family="Helvetica-LightOblique,Helvetica" font-style="italic" font-size="31.0" fill="#91908B" transform="matrix(1.00, 0.00, -0.00, -1.00, 774.8, 576.1)"> </text><text xml:space="preserve" font-family="Helvetica-LightOblique,Helvetica" font-style="italic" font-size="31.0" fill="#91908B" transform="matrix(1.00, 0.00, -0.00, -1.00, 250.4, 539.1)">s</text><text xml:space="preserve" font-family="Helvetica-LightOblique,Helvetica" font-style="italic" font-size="31.0" fill="#91908B" transform="matrix(1.00, 0.00, -0.00, -1.00, 265.9, 539.1)">c</text><text xml:space="preserve" font-family="Helvetica-LightOblique,Helvetica" font-style="italic" font-size="31.0" fill="#91908B" transform="matrix(1.00, 0.00, -0.00, -1.00, 283.1, 539.1)">o</text><text xml:space="preserve" font-family="Helvetica-LightOblique,Helvetica" font-style="italic" font-size="31.0" fill="#91908B" transform="matrix(1.00, 0.00, -0.00, -1.00, 300.4, 539.1)">p</text><text xml:space="preserve" font-family="Helvetica-LightOblique,Helvetica" font-style="italic" font-size="31.0" fill="#91908B" transform="matrix(1.00, 0.00, -0.00, -1.00, 319.3, 539.1)">e</text><text xml:space="preserve" font-family="Helvetica-LightOblique,Helvetica" font-style="italic" font-size="31.0" fill="#91908B" transform="matrix(1.00, 0.00, -0.00, -1.00, 336.6, 539.1)">,</text><text xml:space="preserve" font-family="Helvetica-LightOblique,Helvetica" font-style="italic" font-size="31.0" fill="#91908B" transform="matrix(1.00, 0.00, -0.00, -1.00, 345.2, 539.1)"> </text><text xml:space="preserve" font-family="Helvetica-LightOblique,Helvetica" font-style="italic" font-size="31.0" fill="#91908B" transform="matrix(1.00, 0.00, -0.00, -1.00, 353.8, 539.1)">a</text><text xml:space="preserve" font-family="Helvetica-LightOblique,Helvetica" font-style="italic" font-size="31.0" fill="#91908B" transform="matrix(1.00, 0.00, -0.00, -1.00, 371.0, 539.1)">s</text><text xml:space="preserve" font-family="Helvetica-LightOblique,Helvetica" font-style="italic" font-size="31.0" fill="#91908B" transform="matrix(1.00, 0.00, -0.00, -1.00, 386.5, 539.1)"> </text><text xml:space="preserve" font-family="Helvetica-LightOblique,Helvetica" font-style="italic" font-size="31.0" fill="#91908B" transform="matrix(1.00, 0.00, -0.00, -1.00, 395.1, 539.1)">a</text><text xml:space="preserve" font-family="Helvetica-LightOblique,Helvetica" font-style="italic" font-size="31.0" fill="#91908B" transform="matrix(1.00, 0.00, -0.00, -1.00, 412.4, 539.1)"> </text><text xml:space="preserve" font-family="Helvetica-LightOblique,Helvetica" font-style="italic" font-size="31.0" fill="#91908B" transform="matrix(1.00, 0.00, -0.00, -1.00, 421.0, 539.1)">m</text><text xml:space="preserve" font-family="Helvetica-LightOblique,Helvetica" font-style="italic" font-size="31.0" fill="#91908B" transform="matrix(1.00, 0.00, -0.00, -1.00, 446.8, 539.1)">e</text><text xml:space="preserve" font-family="Helvetica-LightOblique,Helvetica" font-style="italic" font-size="31.0" fill="#91908B" transform="matrix(1.00, 0.00, -0.00, -1.00, 464.1, 539.1)">a</text><text xml:space="preserve" font-family="Helvetica-LightOblique,Helvetica" font-style="italic" font-size="31.0" fill="#91908B" transform="matrix(1.00, 0.00, -0.00, -1.00, 481.3, 539.1)">n</text><text xml:space="preserve" font-family="Helvetica-LightOblique,Helvetica" font-style="italic" font-size="31.0" fill="#91908B" transform="matrix(1.00, 0.00, -0.00, -1.00, 498.5, 539.1)">s</text><text xml:space="preserve" font-family="Helvetica-LightOblique,Helvetica" font-style="italic" font-size="31.0" fill="#91908B" transform="matrix(1.00, 0.00, -0.00, -1.00, 514.0, 539.1)"> </text><text xml:space="preserve" font-family="Helvetica-LightOblique,Helvetica" font-style="italic" font-size="31.0" fill="#91908B" transform="matrix(1.00, 0.00, -0.00, -1.00, 522.6, 539.1)">t</text><text xml:space="preserve" font-family="Helvetica-LightOblique,Helvetica" font-style="italic" font-size="31.0" fill="#91908B" transform="matrix(1.00, 0.00, -0.00, -1.00, 531.3, 539.1)">o</text><text xml:space="preserve" font-family="Helvetica-LightOblique,Helvetica" font-style="italic" font-size="31.0" fill="#91908B" transform="matrix(1.00, 0.00, -0.00, -1.00, 548.5, 539.1)"> </text><text xml:space="preserve" font-family="Helvetica-LightOblique,Helvetica" font-style="italic" font-size="31.0" fill="#91908B" transform="matrix(1.00, 0.00, -0.00, -1.00, 557.1, 539.1)">e</text><text xml:space="preserve" font-family="Helvetica-LightOblique,Helvetica" font-style="italic" font-size="31.0" fill="#91908B" transform="matrix(1.00, 0.00, -0.00, -1.00, 574.4, 539.1)">x</text><text xml:space="preserve" font-family="Helvetica-LightOblique,Helvetica" font-style="italic" font-size="31.0" fill="#91908B" transform="matrix(1.00, 0.00, -0.00, -1.00, 589.9, 539.1)">t</text><text xml:space="preserve" font-family="Helvetica-LightOblique,Helvetica" font-style="italic" font-size="31.0" fill="#91908B" transform="matrix(1.00, 0.00, -0.00, -1.00, 598.5, 539.1)">e</text><text xml:space="preserve" font-family="Helvetica-LightOblique,Helvetica" font-style="italic" font-size="31.0" fill="#91908B" transform="matrix(1.00, 0.00, -0.00, -1.00, 615.7, 539.1)">n</text><text xml:space="preserve" font-family="Helvetica-LightOblique,Helvetica" font-style="italic" font-size="31.0" fill="#91908B" transform="matrix(1.00, 0.00, -0.00, -1.00, 632.9, 539.1)">d</text><text xml:space="preserve" font-family="Helvetica-LightOblique,Helvetica" font-style="italic" font-size="31.0" fill="#91908B" transform="matrix(1.00, 0.00, -0.00, -1.00, 651.9, 539.1)"> </text><text xml:space="preserve" font-family="Helvetica-LightOblique,Helvetica" font-style="italic" font-size="31.0" fill="#91908B" transform="matrix(1.00, 0.00, -0.00, -1.00, 660.5, 539.1)">D</text><text xml:space="preserve" font-family="Helvetica-LightOblique,Helvetica" font-style="italic" font-size="31.0" fill="#91908B" transform="matrix(1.00, 0.00, -0.00, -1.00, 682.9, 539.1)">r</text><text xml:space="preserve" font-family="Helvetica-LightOblique,Helvetica" font-style="italic" font-size="31.0" fill="#91908B" transform="matrix(1.00, 0.00, -0.00, -1.00, 693.2, 539.1)">u</text><text xml:space="preserve" font-family="Helvetica-LightOblique,Helvetica" font-style="italic" font-size="31.0" fill="#91908B" transform="matrix(1.00, 0.00, -0.00, -1.00, 710.4, 539.1)">p</text><text xml:space="preserve" font-family="Helvetica-LightOblique,Helvetica" font-style="italic" font-size="31.0" fill="#91908B" transform="matrix(1.00, 0.00, -0.00, -1.00, 729.4, 539.1)">a</text><text xml:space="preserve" font-family="Helvetica-LightOblique,Helvetica" font-style="italic" font-size="31.0" fill="#91908B" transform="matrix(1.00, 0.00, -0.00, -1.00, 746.6, 539.1)">l</text><text xml:space="preserve" font-family="Helvetica-LightOblique,Helvetica" font-style="italic" font-size="31.0" fill="#91908B" transform="matrix(1.00, 0.00, -0.00, -1.00, 753.5, 539.1)">’</text><text xml:space="preserve" font-family="Helvetica-LightOblique,Helvetica" font-style="italic" font-size="31.0" fill="#91908B" transform="matrix(1.00, 0.00, -0.00, -1.00, 758.1, 539.1)">s</text><text xml:space="preserve" font-family="Helvetica-LightOblique,Helvetica" font-style="italic" font-size="31.0" fill="#91908B" transform="matrix(1.00, 0.00, -0.00, -1.00, 773.6, 539.1)"> </text><text xml:space="preserve" font-family="Helvetica-LightOblique,Helvetica" font-style="italic" font-size="31.0" fill="#91908B" transform="matrix(1.00, 0.00, -0.00, -1.00, 426.4, 502.1)">f</text><text xml:space="preserve" font-family="Helvetica-LightOblique,Helvetica" font-style="italic" font-size="31.0" fill="#91908B" transform="matrix(1.00, 0.00, -0.00, -1.00, 435.0, 502.1)">u</text><text xml:space="preserve" font-family="Helvetica-LightOblique,Helvetica" font-style="italic" font-size="31.0" fill="#91908B" transform="matrix(1.00, 0.00, -0.00, -1.00, 452.3, 502.1)">n</text><text xml:space="preserve" font-family="Helvetica-LightOblique,Helvetica" font-style="italic" font-size="31.0" fill="#91908B" transform="matrix(1.00, 0.00, -0.00, -1.00, 469.5, 502.1)">c</text><text xml:space="preserve" font-family="Helvetica-LightOblique,Helvetica" font-style="italic" font-size="31.0" fill="#91908B" transform="matrix(1.00, 0.00, -0.00, -1.00, 486.7, 502.1)">t</text><text xml:space="preserve" font-family="Helvetica-LightOblique,Helvetica" font-style="italic" font-size="31.0" fill="#91908B" transform="matrix(1.00, 0.00, -0.00, -1.00, 495.4, 502.1)">i</text><text xml:space="preserve" font-family="Helvetica-LightOblique,Helvetica" font-style="italic" font-size="31.0" fill="#91908B" transform="matrix(1.00, 0.00, -0.00, -1.00, 502.2, 502.1)">o</text><text xml:space="preserve" font-family="Helvetica-LightOblique,Helvetica" font-style="italic" font-size="31.0" fill="#91908B" transform="matrix(1.00, 0.00, -0.00, -1.00, 519.5, 502.1)">n</text><text xml:space="preserve" font-family="Helvetica-LightOblique,Helvetica" font-style="italic" font-size="31.0" fill="#91908B" transform="matrix(1.00, 0.00, -0.00, -1.00, 536.7, 502.1)">a</text><text xml:space="preserve" font-family="Helvetica-LightOblique,Helvetica" font-style="italic" font-size="31.0" fill="#91908B" transform="matrix(1.00, 0.00, -0.00, -1.00, 553.9, 502.1)">l</text><text xml:space="preserve" font-family="Helvetica-LightOblique,Helvetica" font-style="italic" font-size="31.0" fill="#91908B" transform="matrix(1.00, 0.00, -0.00, -1.00, 560.8, 502.1)">i</text><text xml:space="preserve" font-family="Helvetica-LightOblique,Helvetica" font-style="italic" font-size="31.0" fill="#91908B" transform="matrix(1.00, 0.00, -0.00, -1.00, 567.7, 502.1)">t</text><text xml:space="preserve" font-family="Helvetica-LightOblique,Helvetica" font-style="italic" font-size="31.0" fill="#91908B" transform="matrix(1.00, 0.00, -0.00, -1.00, 576.3, 502.1)">y</text><text xml:space="preserve" font-family="Helvetica-LightOblique,Helvetica" font-style="italic" font-size="31.0" fill="#91908B" transform="matrix(1.00, 0.00, -0.00, -1.00, 589.0, 502.1)">.</text><g><clipPath id="clip0x600001aa78c0"><path d="M 120.3 194.3 L 229.0 194.3 L 229.0 303.0 L 120.3 303.0 Z M 120.3 194.3 "></path></clipPath><g clip-path="url(#clip0x600001aa78c0)"><image xlink:href="../../C85FB509-2DA4-4073-9472-6D321CE414EC/assets/03E49A1C430A0C8880730F107C2F9F10.png" width="200.00" height="200.00" transform="matrix(0.54, 0.00, -0.00, -0.54, 120.3, 303.0)"></image></g></g><g><clipPath id="clip0x608001aa4ce0"><path d="M 86.2 81.0 L 263.1 81.0 L 263.1 185.0 L 86.2 185.0 Z M 86.2 81.0 "></path></clipPath><g clip-path="url(#clip0x608001aa4ce0)"><text xml:space="preserve" font-family="ProximaNova-Semibold,Proxima Nova" font-weight="bold" font-size="36.0" fill="#FEFFFF" transform="matrix(1.00, 0.00, -0.00, -1.00, 96.4, 140.6)">L</text><text xml:space="preserve" font-family="ProximaNova-Semibold,Proxima Nova" font-weight="bold" font-size="36.0" fill="#FEFFFF" transform="matrix(1.00, 0.00, -0.00, -1.00, 114.7, 140.6)">i</text><text xml:space="preserve" font-family="ProximaNova-Semibold,Proxima Nova" font-weight="bold" font-size="36.0" fill="#FEFFFF" transform="matrix(1.00, 0.00, -0.00, -1.00, 123.3, 140.6)">m</text><text xml:space="preserve" font-family="ProximaNova-Semibold,Proxima Nova" font-weight="bold" font-size="36.0" fill="#FEFFFF" transform="matrix(1.00, 0.00, -0.00, -1.00, 153.4, 140.6)">i</text><text xml:space="preserve" font-family="ProximaNova-Semibold,Proxima Nova" font-weight="bold" font-size="36.0" fill="#FEFFFF" transform="matrix(1.00, 0.00, -0.00, -1.00, 162.0, 140.6)">t</text><text xml:space="preserve" font-family="ProximaNova-Semibold,Proxima Nova" font-weight="bold" font-size="36.0" fill="#FEFFFF" transform="matrix(1.00, 0.00, -0.00, -1.00, 173.5, 140.6)">e</text><text xml:space="preserve" font-family="ProximaNova-Semibold,Proxima Nova" font-weight="bold" font-size="36.0" fill="#FEFFFF" transform="matrix(1.00, 0.00, -0.00, -1.00, 193.6, 140.6)">d</text><text xml:space="preserve" font-family="ProximaNova-Semibold,Proxima Nova" font-weight="bold" font-size="36.0" fill="#FEFFFF" transform="matrix(1.00, 0.00, -0.00, -1.00, 214.5, 140.6)"> </text><text xml:space="preserve" font-family="ProximaNova-Semibold,Proxima Nova" font-weight="bold" font-size="36.0" fill="#FEFFFF" transform="matrix(1.00, 0.00, -0.00, -1.00, 223.8, 140.6)">i</text><text xml:space="preserve" font-family="ProximaNova-Semibold,Proxima Nova" font-weight="bold" font-size="36.0" fill="#FEFFFF" transform="matrix(1.00, 0.00, -0.00, -1.00, 232.5, 140.6)">n</text><text xml:space="preserve" font-family="ProximaNova-Semibold,Proxima Nova" font-weight="bold" font-size="36.0" fill="#FEFFFF" transform="matrix(1.00, 0.00, -0.00, -1.00, 252.9, 140.6)"> </text><text xml:space="preserve" font-family="ProximaNova-Semibold,Proxima Nova" font-weight="bold" font-size="36.0" fill="#FEFFFF" transform="matrix(1.00, 0.00, -0.00, -1.00, 126.4, 97.6)">s</text><text xml:space="preserve" font-family="ProximaNova-Semibold,Proxima Nova" font-weight="bold" font-size="36.0" fill="#FEFFFF" transform="matrix(1.00, 0.00, -0.00, -1.00, 143.4, 97.6)">c</text><text xml:space="preserve" font-family="ProximaNova-Semibold,Proxima Nova" font-weight="bold" font-size="36.0" fill="#FEFFFF" transform="matrix(1.00, 0.00, -0.00, -1.00, 161.4, 97.6)">o</text><text xml:space="preserve" font-family="ProximaNova-Semibold,Proxima Nova" font-weight="bold" font-size="36.0" fill="#FEFFFF" transform="matrix(1.00, 0.00, -0.00, -1.00, 182.0, 97.6)">p</text><text xml:space="preserve" font-family="ProximaNova-Semibold,Proxima Nova" font-weight="bold" font-size="36.0" fill="#FEFFFF" transform="matrix(1.00, 0.00, -0.00, -1.00, 202.9, 97.6)">e</text></g></g><g><clipPath id="clip0x6080018a9000"><path d="M 406.3 194.3 L 515.0 194.3 L 515.0 303.0 L 406.3 303.0 Z M 406.3 194.3 "></path></clipPath><g clip-path="url(#clip0x6080018a9000)"><image xlink:href="../../C85FB509-2DA4-4073-9472-6D321CE414EC/assets/47E80839D7DCF609DA33B92F560854F6.png" width="200.00" height="200.00" transform="matrix(0.54, 0.00, -0.00, -0.54, 406.3, 303.0)"></image></g></g><g><clipPath id="clip0x618001abcf80"><path d="M 372.2 81.0 L 549.1 81.0 L 549.1 185.0 L 372.2 185.0 Z M 372.2 81.0 "></path></clipPath><g clip-path="url(#clip0x618001abcf80)"><text xml:space="preserve" font-family="ProximaNova-Semibold,Proxima Nova" font-weight="bold" font-size="36.0" fill="#FEFFFF" transform="matrix(1.00, 0.00, -0.00, -1.00, 383.8, 140.6)">D</text><text xml:space="preserve" font-family="ProximaNova-Semibold,Proxima Nova" font-weight="bold" font-size="36.0" fill="#FEFFFF" transform="matrix(1.00, 0.00, -0.00, -1.00, 409.4, 140.6)">o</text><text xml:space="preserve" font-family="ProximaNova-Semibold,Proxima Nova" font-weight="bold" font-size="36.0" fill="#FEFFFF" transform="matrix(1.00, 0.00, -0.00, -1.00, 430.0, 140.6)">e</text><text xml:space="preserve" font-family="ProximaNova-Semibold,Proxima Nova" font-weight="bold" font-size="36.0" fill="#FEFFFF" transform="matrix(1.00, 0.00, -0.00, -1.00, 450.1, 140.6)">s</text><text xml:space="preserve" font-family="ProximaNova-Semibold,Proxima Nova" font-weight="bold" font-size="36.0" fill="#FEFFFF" transform="matrix(1.00, 0.00, -0.00, -1.00, 467.1, 140.6)"> </text><text xml:space="preserve" font-family="ProximaNova-Semibold,Proxima Nova" font-weight="bold" font-size="36.0" fill="#FEFFFF" transform="matrix(1.00, 0.00, -0.00, -1.00, 476.4, 140.6)">o</text><text xml:space="preserve" font-family="ProximaNova-Semibold,Proxima Nova" font-weight="bold" font-size="36.0" fill="#FEFFFF" transform="matrix(1.00, 0.00, -0.00, -1.00, 497.0, 140.6)">n</text><text xml:space="preserve" font-family="ProximaNova-Semibold,Proxima Nova" font-weight="bold" font-size="36.0" fill="#FEFFFF" transform="matrix(1.00, 0.00, -0.00, -1.00, 517.5, 140.6)">e</text><text xml:space="preserve" font-family="ProximaNova-Semibold,Proxima Nova" font-weight="bold" font-size="36.0" fill="#FEFFFF" transform="matrix(1.00, 0.00, -0.00, -1.00, 537.5, 140.6)"> </text><text xml:space="preserve" font-family="ProximaNova-Semibold,Proxima Nova" font-weight="bold" font-size="36.0" fill="#FEFFFF" transform="matrix(1.00, 0.00, -0.00, -1.00, 419.7, 97.6)">t</text><text xml:space="preserve" font-family="ProximaNova-Semibold,Proxima Nova" font-weight="bold" font-size="36.0" fill="#FEFFFF" transform="matrix(1.00, 0.00, -0.00, -1.00, 431.2, 97.6)">h</text><text xml:space="preserve" font-family="ProximaNova-Semibold,Proxima Nova" font-weight="bold" font-size="36.0" fill="#FEFFFF" transform="matrix(1.00, 0.00, -0.00, -1.00, 451.6, 97.6)">i</text><text xml:space="preserve" font-family="ProximaNova-Semibold,Proxima Nova" font-weight="bold" font-size="36.0" fill="#FEFFFF" transform="matrix(1.00, 0.00, -0.00, -1.00, 460.3, 97.6)">n</text><text xml:space="preserve" font-family="ProximaNova-Semibold,Proxima Nova" font-weight="bold" font-size="36.0" fill="#FEFFFF" transform="matrix(1.00, 0.00, -0.00, -1.00, 480.7, 97.6)">g</text></g></g><g><clipPath id="clip0x6180016ac960"><path d="M 739.0 194.3 L 847.6 194.3 L 847.6 303.0 L 739.0 303.0 Z M 739.0 194.3 "></path></clipPath><g clip-path="url(#clip0x6180016ac960)"><image xlink:href="../../C85FB509-2DA4-4073-9472-6D321CE414EC/assets/05197F975B9902680489615CC28E5CAB.png" width="200.00" height="200.00" transform="matrix(0.54, 0.00, -0.00, -0.54, 739.0, 303.0)"></image></g></g><g><clipPath id="clip0x6000016b3c20"><path d="M 647.9 78.0 L 938.7 78.0 L 938.7 182.0 L 647.9 182.0 Z M 647.9 78.0 "></path></clipPath><g clip-path="url(#clip0x6000016b3c20)"><text xml:space="preserve" font-family="ProximaNova-Semibold,Proxima Nova" font-weight="bold" font-size="36.0" fill="#FEFFFF" transform="matrix(1.00, 0.00, -0.00, -1.00, 684.9, 137.6)">C</text><text xml:space="preserve" font-family="ProximaNova-Semibold,Proxima Nova" font-weight="bold" font-size="36.0" fill="#FEFFFF" transform="matrix(1.00, 0.00, -0.00, -1.00, 709.4, 137.6)">o</text><text xml:space="preserve" font-family="ProximaNova-Semibold,Proxima Nova" font-weight="bold" font-size="36.0" fill="#FEFFFF" transform="matrix(1.00, 0.00, -0.00, -1.00, 730.1, 137.6)">n</text><text xml:space="preserve" font-family="ProximaNova-Semibold,Proxima Nova" font-weight="bold" font-size="36.0" fill="#FEFFFF" transform="matrix(1.00, 0.00, -0.00, -1.00, 750.5, 137.6)">ﬁ</text><text xml:space="preserve" font-family="ProximaNova-Semibold,Proxima Nova" font-weight="bold" font-size="36.0" fill="#FEFFFF" transform="matrix(1.00, 0.00, -0.00, -1.00, 770.3, 137.6)">g</text><text xml:space="preserve" font-family="ProximaNova-Semibold,Proxima Nova" font-weight="bold" font-size="36.0" fill="#FEFFFF" transform="matrix(1.00, 0.00, -0.00, -1.00, 791.2, 137.6)">u</text><text xml:space="preserve" font-family="ProximaNova-Semibold,Proxima Nova" font-weight="bold" font-size="36.0" fill="#FEFFFF" transform="matrix(1.00, 0.00, -0.00, -1.00, 811.6, 137.6)">r</text><text xml:space="preserve" font-family="ProximaNova-Semibold,Proxima Nova" font-weight="bold" font-size="36.0" fill="#FEFFFF" transform="matrix(1.00, 0.00, -0.00, -1.00, 824.1, 137.6)">a</text><text xml:space="preserve" font-family="ProximaNova-Semibold,Proxima Nova" font-weight="bold" font-size="36.0" fill="#FEFFFF" transform="matrix(1.00, 0.00, -0.00, -1.00, 843.5, 137.6)">b</text><text xml:space="preserve" font-family="ProximaNova-Semibold,Proxima Nova" font-weight="bold" font-size="36.0" fill="#FEFFFF" transform="matrix(1.00, 0.00, -0.00, -1.00, 864.4, 137.6)">l</text><text xml:space="preserve" font-family="ProximaNova-Semibold,Proxima Nova" font-weight="bold" font-size="36.0" fill="#FEFFFF" transform="matrix(1.00, 0.00, -0.00, -1.00, 873.1, 137.6)">e</text><text xml:space="preserve" font-family="ProximaNova-Semibold,Proxima Nova" font-weight="bold" font-size="36.0" fill="#FEFFFF" transform="matrix(1.00, 0.00, -0.00, -1.00, 892.9, 137.6)">,</text><text xml:space="preserve" font-family="ProximaNova-Semibold,Proxima Nova" font-weight="bold" font-size="36.0" fill="#FEFFFF" transform="matrix(1.00, 0.00, -0.00, -1.00, 901.8, 137.6)"> </text><text xml:space="preserve" font-family="ProximaNova-Semibold,Proxima Nova" font-weight="bold" font-size="36.0" fill="#FEFFFF" transform="matrix(1.00, 0.00, -0.00, -1.00, 723.8, 94.6)">r</text><text xml:space="preserve" font-family="ProximaNova-Semibold,Proxima Nova" font-weight="bold" font-size="36.0" fill="#FEFFFF" transform="matrix(1.00, 0.00, -0.00, -1.00, 736.3, 94.6)">e</text><text xml:space="preserve" font-family="ProximaNova-Semibold,Proxima Nova" font-weight="bold" font-size="36.0" fill="#FEFFFF" transform="matrix(1.00, 0.00, -0.00, -1.00, 756.4, 94.6)">u</text><text xml:space="preserve" font-family="ProximaNova-Semibold,Proxima Nova" font-weight="bold" font-size="36.0" fill="#FEFFFF" transform="matrix(1.00, 0.00, -0.00, -1.00, 776.8, 94.6)">s</text><text xml:space="preserve" font-family="ProximaNova-Semibold,Proxima Nova" font-weight="bold" font-size="36.0" fill="#FEFFFF" transform="matrix(1.00, 0.00, -0.00, -1.00, 793.8, 94.6)">a</text><text xml:space="preserve" font-family="ProximaNova-Semibold,Proxima Nova" font-weight="bold" font-size="36.0" fill="#FEFFFF" transform="matrix(1.00, 0.00, -0.00, -1.00, 813.1, 94.6)">b</text><text xml:space="preserve" font-family="ProximaNova-Semibold,Proxima Nova" font-weight="bold" font-size="36.0" fill="#FEFFFF" transform="matrix(1.00, 0.00, -0.00, -1.00, 834.0, 94.6)">l</text><text xml:space="preserve" font-family="ProximaNova-Semibold,Proxima Nova" font-weight="bold" font-size="36.0" fill="#FEFFFF" transform="matrix(1.00, 0.00, -0.00, -1.00, 842.7, 94.6)">e</text></g></g></g></svg>