<?xml version="1.0" encoding="UTF-8" standalone="no"?><svg xmlns="http://www.w3.org/2000/svg" xmlns:xlink="http://www.w3.org/1999/xlink" clip-rule="evenodd" stroke-miterlimit="10" viewBox="0 0 284 222"><desc>SVG generated by Keynote</desc><defs></defs><g transform="matrix(1.00, 0.00, -0.00, -1.00, 0.0, 222.0)"><g><clipPath id="clip0x6100018b5a80"><path d="M 88.0 113.3 L 196.6 113.3 L 196.6 222.0 L 88.0 222.0 Z M 88.0 113.3 "></path></clipPath><g clip-path="url(#clip0x6100018b5a80)"><image xlink:href="05197F975B9902680489615CC28E5CAB.png" width="200.00" height="200.00" transform="matrix(0.54, 0.00, -0.00, -0.54, 88.0, 222.0)"></image></g></g><g><clipPath id="clip0x600001ab3740"><path d="M -3.1 -3.0 L 287.7 -3.0 L 287.7 101.0 L -3.1 101.0 Z M -3.1 -3.0 "></path></clipPath><g clip-path="url(#clip0x600001ab3740)"><text xml:space="preserve" font-family="ProximaNova-Semibold,Proxima Nova" font-weight="bold" font-size="36.0" fill="#FEFFFF" transform="matrix(1.00, 0.00, -0.00, -1.00, 33.9, 56.6)">C</text><text xml:space="preserve" font-family="ProximaNova-Semibold,Proxima Nova" font-weight="bold" font-size="36.0" fill="#FEFFFF" transform="matrix(1.00, 0.00, -0.00, -1.00, 58.4, 56.6)">o</text><text xml:space="preserve" font-family="ProximaNova-Semibold,Proxima Nova" font-weight="bold" font-size="36.0" fill="#FEFFFF" transform="matrix(1.00, 0.00, -0.00, -1.00, 79.1, 56.6)">n</text><text xml:space="preserve" font-family="ProximaNova-Semibold,Proxima Nova" font-weight="bold" font-size="36.0" fill="#FEFFFF" transform="matrix(1.00, 0.00, -0.00, -1.00, 99.5, 56.6)">ï¬</text><text xml:space="preserve" font-family="ProximaNova-Semibold,Proxima Nova" font-weight="bold" font-size="36.0" fill="#FEFFFF" transform="matrix(1.00, 0.00, -0.00, -1.00, 119.3, 56.6)">g</text><text xml:space="preserve" font-family="ProximaNova-Semibold,Proxima Nova" font-weight="bold" font-size="36.0" fill="#FEFFFF" transform="matrix(1.00, 0.00, -0.00, -1.00, 140.2, 56.6)">u</text><text xml:space="preserve" font-family="ProximaNova-Semibold,Proxima Nova" font-weight="bold" font-size="36.0" fill="#FEFFFF" transform="matrix(1.00, 0.00, -0.00, -1.00, 160.6, 56.6)">r</text><text xml:space="preserve" font-family="ProximaNova-Semibold,Proxima Nova" font-weight="bold" font-size="36.0" fill="#FEFFFF" transform="matrix(1.00, 0.00, -0.00, -1.00, 173.1, 56.6)">a</text><text xml:space="preserve" font-family="ProximaNova-Semibold,Proxima Nova" font-weight="bold" font-size="36.0" fill="#FEFFFF" transform="matrix(1.00, 0.00, -0.00, -1.00, 192.5, 56.6)">b</text><text xml:space="preserve" font-family="ProximaNova-Semibold,Proxima Nova" font-weight="bold" font-size="36.0" fill="#FEFFFF" transform="matrix(1.00, 0.00, -0.00, -1.00, 213.4, 56.6)">l</text><text xml:space="preserve" font-family="ProximaNova-Semibold,Proxima Nova" font-weight="bold" font-size="36.0" fill="#FEFFFF" transform="matrix(1.00, 0.00, -0.00, -1.00, 222.1, 56.6)">e</text><text xml:space="preserve" font-family="ProximaNova-Semibold,Proxima Nova" font-weight="bold" font-size="36.0" fill="#FEFFFF" transform="matrix(1.00, 0.00, -0.00, -1.00, 241.9, 56.6)">,</text><text xml:space="preserve" font-family="ProximaNova-Semibold,Proxima Nova" font-weight="bold" font-size="36.0" fill="#FEFFFF" transform="matrix(1.00, 0.00, -0.00, -1.00, 250.8, 56.6)"> </text><text xml:space="preserve" font-family="ProximaNova-Semibold,Proxima Nova" font-weight="bold" font-size="36.0" fill="#FEFFFF" transform="matrix(1.00, 0.00, -0.00, -1.00, 72.8, 13.6)">r</text><text xml:space="preserve" font-family="ProximaNova-Semibold,Proxima Nova" font-weight="bold" font-size="36.0" fill="#FEFFFF" transform="matrix(1.00, 0.00, -0.00, -1.00, 85.3, 13.6)">e</text><text xml:space="preserve" font-family="ProximaNova-Semibold,Proxima Nova" font-weight="bold" font-size="36.0" fill="#FEFFFF" transform="matrix(1.00, 0.00, -0.00, -1.00, 105.4, 13.6)">u</text><text xml:space="preserve" font-family="ProximaNova-Semibold,Proxima Nova" font-weight="bold" font-size="36.0" fill="#FEFFFF" transform="matrix(1.00, 0.00, -0.00, -1.00, 125.8, 13.6)">s</text><text xml:space="preserve" font-family="ProximaNova-Semibold,Proxima Nova" font-weight="bold" font-size="36.0" fill="#FEFFFF" transform="matrix(1.00, 0.00, -0.00, -1.00, 142.8, 13.6)">a</text><text xml:space="preserve" font-family="ProximaNova-Semibold,Proxima Nova" font-weight="bold" font-size="36.0" fill="#FEFFFF" transform="matrix(1.00, 0.00, -0.00, -1.00, 162.1, 13.6)">b</text><text xml:space="preserve" font-family="ProximaNova-Semibold,Proxima Nova" font-weight="bold" font-size="36.0" fill="#FEFFFF" transform="matrix(1.00, 0.00, -0.00, -1.00, 183.0, 13.6)">l</text><text xml:space="preserve" font-family="ProximaNova-Semibold,Proxima Nova" font-weight="bold" font-size="36.0" fill="#FEFFFF" transform="matrix(1.00, 0.00, -0.00, -1.00, 191.7, 13.6)">e</text></g></g></g></svg>