<?xml version="1.0" encoding="UTF-8" standalone="no"?><svg xmlns="http://www.w3.org/2000/svg" xmlns:xlink="http://www.w3.org/1999/xlink" clip-rule="evenodd" stroke-miterlimit="10" viewBox="0 0 1024 768"><desc>SVG generated by Keynote</desc><defs></defs><g transform="matrix(1.00, 0.00, -0.00, -1.00, 0.0, 768.0)"><path d="M 0.0 768.0 L 1024.0 768.0 L 1024.0 0.0 L 0.0 0.0 Z M 0.0 768.0 " fill="#FEFFFE"></path><text xml:space="preserve" font-family="ProximaNova-Semibold,Proxima Nova" font-weight="bold" font-size="49.0" fill="#52575F" transform="matrix(1.00, 0.00, -0.00, -1.00, 255.7, 488.8)">P</text><text xml:space="preserve" font-family="ProximaNova-Semibold,Proxima Nova" font-weight="bold" font-size="49.0" fill="#52575F" transform="matrix(1.00, 0.00, -0.00, -1.00, 285.6, 488.8)">l</text><text xml:space="preserve" font-family="ProximaNova-Semibold,Proxima Nova" font-weight="bold" font-size="49.0" fill="#52575F" transform="matrix(1.00, 0.00, -0.00, -1.00, 297.4, 488.8)">u</text><text xml:space="preserve" font-family="ProximaNova-Semibold,Proxima Nova" font-weight="bold" font-size="49.0" fill="#52575F" transform="matrix(1.00, 0.00, -0.00, -1.00, 325.2, 488.8)">g</text><text xml:space="preserve" font-family="ProximaNova-Semibold,Proxima Nova" font-weight="bold" font-size="49.0" fill="#52575F" transform="matrix(1.00, 0.00, -0.00, -1.00, 353.6, 488.8)">i</text><text xml:space="preserve" font-family="ProximaNova-Semibold,Proxima Nova" font-weight="bold" font-size="49.0" fill="#52575F" transform="matrix(1.00, 0.00, -0.00, -1.00, 365.4, 488.8)">n</text><text xml:space="preserve" font-family="ProximaNova-Semibold,Proxima Nova" font-weight="bold" font-size="49.0" fill="#52575F" transform="matrix(1.00, 0.00, -0.00, -1.00, 393.3, 488.8)"> </text><text xml:space="preserve" font-family="ProximaNova-Semibold,Proxima Nova" font-weight="bold" font-size="49.0" fill="#52575F" transform="matrix(1.00, 0.00, -0.00, -1.00, 405.9, 488.8)">S</text><text xml:space="preserve" font-family="ProximaNova-Semibold,Proxima Nova" font-weight="bold" font-size="49.0" fill="#52575F" transform="matrix(1.00, 0.00, -0.00, -1.00, 434.5, 488.8)">y</text><text xml:space="preserve" font-family="ProximaNova-Semibold,Proxima Nova" font-weight="bold" font-size="49.0" fill="#52575F" transform="matrix(1.00, 0.00, -0.00, -1.00, 459.2, 488.8)">s</text><text xml:space="preserve" font-family="ProximaNova-Semibold,Proxima Nova" font-weight="bold" font-size="49.0" fill="#52575F" transform="matrix(1.00, 0.00, -0.00, -1.00, 482.3, 488.8)">t</text><text xml:space="preserve" font-family="ProximaNova-Semibold,Proxima Nova" font-weight="bold" font-size="49.0" fill="#52575F" transform="matrix(1.00, 0.00, -0.00, -1.00, 497.9, 488.8)">e</text><text xml:space="preserve" font-family="ProximaNova-Semibold,Proxima Nova" font-weight="bold" font-size="49.0" fill="#52575F" transform="matrix(1.00, 0.00, -0.00, -1.00, 525.2, 488.8)">m</text><text xml:space="preserve" font-family="ProximaNova-Semibold,Proxima Nova" font-weight="bold" font-size="49.0" fill="#52575F" transform="matrix(1.00, 0.00, -0.00, -1.00, 566.1, 488.8)"> </text><text xml:space="preserve" font-family="ProximaNova-Semibold,Proxima Nova" font-weight="bold" font-size="49.0" fill="#52575F" transform="matrix(1.00, 0.00, -0.00, -1.00, 578.7, 488.8)">I</text><text xml:space="preserve" font-family="ProximaNova-Semibold,Proxima Nova" font-weight="bold" font-size="49.0" fill="#52575F" transform="matrix(1.00, 0.00, -0.00, -1.00, 591.4, 488.8)">n</text><text xml:space="preserve" font-family="ProximaNova-Semibold,Proxima Nova" font-weight="bold" font-size="49.0" fill="#52575F" transform="matrix(1.00, 0.00, -0.00, -1.00, 619.3, 488.8)">t</text><text xml:space="preserve" font-family="ProximaNova-Semibold,Proxima Nova" font-weight="bold" font-size="49.0" fill="#52575F" transform="matrix(1.00, 0.00, -0.00, -1.00, 634.9, 488.8)">e</text><text xml:space="preserve" font-family="ProximaNova-Semibold,Proxima Nova" font-weight="bold" font-size="49.0" fill="#52575F" transform="matrix(1.00, 0.00, -0.00, -1.00, 662.2, 488.8)">r</text><text xml:space="preserve" font-family="ProximaNova-Semibold,Proxima Nova" font-weight="bold" font-size="49.0" fill="#52575F" transform="matrix(1.00, 0.00, -0.00, -1.00, 679.2, 488.8)">n</text><text xml:space="preserve" font-family="ProximaNova-Semibold,Proxima Nova" font-weight="bold" font-size="49.0" fill="#52575F" transform="matrix(1.00, 0.00, -0.00, -1.00, 707.0, 488.8)">a</text><text xml:space="preserve" font-family="ProximaNova-Semibold,Proxima Nova" font-weight="bold" font-size="49.0" fill="#52575F" transform="matrix(1.00, 0.00, -0.00, -1.00, 733.3, 488.8)">l</text><text xml:space="preserve" font-family="ProximaNova-Semibold,Proxima Nova" font-weight="bold" font-size="49.0" fill="#52575F" transform="matrix(1.00, 0.00, -0.00, -1.00, 745.1, 488.8)">s</text><text xml:space="preserve" font-family="Helvetica-Light,Helvetica" font-size="31.0" fill="#91908B" transform="matrix(1.00, 0.00, -0.00, -1.00, 412.6, 426.8)">P</text><text xml:space="preserve" font-family="Helvetica-Light,Helvetica" font-size="31.0" fill="#91908B" transform="matrix(1.00, 0.00, -0.00, -1.00, 431.6, 426.8)">l</text><text xml:space="preserve" font-family="Helvetica-Light,Helvetica" font-size="31.0" fill="#91908B" transform="matrix(1.00, 0.00, -0.00, -1.00, 438.4, 426.8)">u</text><text xml:space="preserve" font-family="Helvetica-Light,Helvetica" font-size="31.0" fill="#91908B" transform="matrix(1.00, 0.00, -0.00, -1.00, 455.7, 426.8)">g</text><text xml:space="preserve" font-family="Helvetica-Light,Helvetica" font-size="31.0" fill="#91908B" transform="matrix(1.00, 0.00, -0.00, -1.00, 474.6, 426.8)">i</text><text xml:space="preserve" font-family="Helvetica-Light,Helvetica" font-size="31.0" fill="#91908B" transform="matrix(1.00, 0.00, -0.00, -1.00, 481.5, 426.8)">n</text><text xml:space="preserve" font-family="Helvetica-Light,Helvetica" font-size="31.0" fill="#91908B" transform="matrix(1.00, 0.00, -0.00, -1.00, 498.7, 426.8)"> </text><text xml:space="preserve" font-family="Helvetica-Light,Helvetica" font-size="31.0" fill="#91908B" transform="matrix(1.00, 0.00, -0.00, -1.00, 507.4, 426.8)">M</text><text xml:space="preserve" font-family="Helvetica-Light,Helvetica" font-size="31.0" fill="#91908B" transform="matrix(1.00, 0.00, -0.00, -1.00, 533.2, 426.8)">a</text><text xml:space="preserve" font-family="Helvetica-Light,Helvetica" font-size="31.0" fill="#91908B" transform="matrix(1.00, 0.00, -0.00, -1.00, 550.4, 426.8)">n</text><text xml:space="preserve" font-family="Helvetica-Light,Helvetica" font-size="31.0" fill="#91908B" transform="matrix(1.00, 0.00, -0.00, -1.00, 567.6, 426.8)">a</text><text xml:space="preserve" font-family="Helvetica-Light,Helvetica" font-size="31.0" fill="#91908B" transform="matrix(1.00, 0.00, -0.00, -1.00, 584.9, 426.8)">g</text><text xml:space="preserve" font-family="Helvetica-Light,Helvetica" font-size="31.0" fill="#91908B" transform="matrix(1.00, 0.00, -0.00, -1.00, 603.8, 426.8)">e</text><text xml:space="preserve" font-family="Helvetica-Light,Helvetica" font-size="31.0" fill="#91908B" transform="matrix(1.00, 0.00, -0.00, -1.00, 621.1, 426.8)">r</text><text xml:space="preserve" font-family="Helvetica-Light,Helvetica" font-size="31.0" fill="#91908B" transform="matrix(1.00, 0.00, -0.00, -1.00, 631.4, 426.8)"> </text><text xml:space="preserve" font-family="Helvetica-Light,Helvetica" font-size="31.0" fill="#91908B" transform="matrix(1.00, 0.00, -0.00, -1.00, 452.8, 378.7)">D</text><text xml:space="preserve" font-family="Helvetica-Light,Helvetica" font-size="31.0" fill="#91908B" transform="matrix(1.00, 0.00, -0.00, -1.00, 475.2, 378.7)">i</text><text xml:space="preserve" font-family="Helvetica-Light,Helvetica" font-size="31.0" fill="#91908B" transform="matrix(1.00, 0.00, -0.00, -1.00, 482.1, 378.7)">s</text><text xml:space="preserve" font-family="Helvetica-Light,Helvetica" font-size="31.0" fill="#91908B" transform="matrix(1.00, 0.00, -0.00, -1.00, 497.6, 378.7)">c</text><text xml:space="preserve" font-family="Helvetica-Light,Helvetica" font-size="31.0" fill="#91908B" transform="matrix(1.00, 0.00, -0.00, -1.00, 514.8, 378.7)">o</text><text xml:space="preserve" font-family="Helvetica-Light,Helvetica" font-size="31.0" fill="#91908B" transform="matrix(1.00, 0.00, -0.00, -1.00, 532.1, 378.7)">v</text><text xml:space="preserve" font-family="Helvetica-Light,Helvetica" font-size="31.0" fill="#91908B" transform="matrix(1.00, 0.00, -0.00, -1.00, 547.6, 378.7)">e</text><text xml:space="preserve" font-family="Helvetica-Light,Helvetica" font-size="31.0" fill="#91908B" transform="matrix(1.00, 0.00, -0.00, -1.00, 564.8, 378.7)">r</text><text xml:space="preserve" font-family="Helvetica-Light,Helvetica" font-size="31.0" fill="#91908B" transform="matrix(1.00, 0.00, -0.00, -1.00, 575.7, 378.7)">y</text><text xml:space="preserve" font-family="Helvetica-Light,Helvetica" font-size="31.0" fill="#91908B" transform="matrix(1.00, 0.00, -0.00, -1.00, 591.2, 378.7)"> </text><text xml:space="preserve" font-family="Helvetica-Light,Helvetica" font-size="31.0" fill="#91908B" transform="matrix(1.00, 0.00, -0.00, -1.00, 470.0, 330.6)">F</text><text xml:space="preserve" font-family="Helvetica-Light,Helvetica" font-size="31.0" fill="#91908B" transform="matrix(1.00, 0.00, -0.00, -1.00, 487.3, 330.6)">a</text><text xml:space="preserve" font-family="Helvetica-Light,Helvetica" font-size="31.0" fill="#91908B" transform="matrix(1.00, 0.00, -0.00, -1.00, 504.5, 330.6)">c</text><text xml:space="preserve" font-family="Helvetica-Light,Helvetica" font-size="31.0" fill="#91908B" transform="matrix(1.00, 0.00, -0.00, -1.00, 521.7, 330.6)">t</text><text xml:space="preserve" font-family="Helvetica-Light,Helvetica" font-size="31.0" fill="#91908B" transform="matrix(1.00, 0.00, -0.00, -1.00, 530.4, 330.6)">o</text><text xml:space="preserve" font-family="Helvetica-Light,Helvetica" font-size="31.0" fill="#91908B" transform="matrix(1.00, 0.00, -0.00, -1.00, 547.6, 330.6)">r</text><text xml:space="preserve" font-family="Helvetica-Light,Helvetica" font-size="31.0" fill="#91908B" transform="matrix(1.00, 0.00, -0.00, -1.00, 558.5, 330.6)">y</text><text xml:space="preserve" font-family="Helvetica-Light,Helvetica" font-size="31.0" fill="#91908B" transform="matrix(1.00, 0.00, -0.00, -1.00, 574.0, 330.6)"> </text><text xml:space="preserve" font-family="Helvetica-Light,Helvetica" font-size="31.0" fill="#91908B" transform="matrix(1.00, 0.00, -0.00, -1.00, 467.8, 282.5)">M</text><text xml:space="preserve" font-family="Helvetica-Light,Helvetica" font-size="31.0" fill="#91908B" transform="matrix(1.00, 0.00, -0.00, -1.00, 493.6, 282.5)">a</text><text xml:space="preserve" font-family="Helvetica-Light,Helvetica" font-size="31.0" fill="#91908B" transform="matrix(1.00, 0.00, -0.00, -1.00, 510.8, 282.5)">p</text><text xml:space="preserve" font-family="Helvetica-Light,Helvetica" font-size="31.0" fill="#91908B" transform="matrix(1.00, 0.00, -0.00, -1.00, 529.8, 282.5)">p</text><text xml:space="preserve" font-family="Helvetica-Light,Helvetica" font-size="31.0" fill="#91908B" transform="matrix(1.00, 0.00, -0.00, -1.00, 548.7, 282.5)">e</text><text xml:space="preserve" font-family="Helvetica-Light,Helvetica" font-size="31.0" fill="#91908B" transform="matrix(1.00, 0.00, -0.00, -1.00, 565.9, 282.5)">r</text><image xlink:href="../../CE851AC5-CC0F-46FD-B807-52A47F1DDEAE/assets/AD8A6671E998E531FA8FB71234A4C073.png" width="512.00" height="512.00" transform="matrix(0.22, 0.00, -0.00, -0.22, 455.1, 669.2)"></image></g></svg>